<svg version="1.1" xmlns="http://www.w3.org/2000/svg" xmlns:xlink="http://www.w3.org/1999/xlink" width="600" height="400"><defs/><g transform="scale(1,1)"><g id="background-f005aa61"><rect fill="white" stroke="none" x="0" y="0" width="600" height="400" class="dcg-svg-background"/></g><g id="background-images-f005aa61"/><g id="graphpaper-f005aa61"><g id="grid-f005aa61"><g><path fill="none" stroke="rgb(0,0,0)" class="dcg-svg-minor-gridline" paint-order="fill stroke markers" d=" M -0.5 0 L -0.5 400" stroke-opacity="0.12" stroke-miterlimit="10" stroke-dasharray=""/><path fill="none" stroke="rgb(0,0,0)" class="dcg-svg-minor-gridline" paint-order="fill stroke markers" d=" M 29.5 0 L 29.5 400" stroke-opacity="0.12" stroke-miterlimit="10" stroke-dasharray=""/><path fill="none" stroke="rgb(0,0,0)" class="dcg-svg-minor-gridline" paint-order="fill stroke markers" d=" M 59.5 0 L 59.5 400" stroke-opacity="0.12" stroke-miterlimit="10" stroke-dasharray=""/><path fill="none" stroke="rgb(0,0,0)" class="dcg-svg-minor-gridline" paint-order="fill stroke markers" d=" M 89.5 0 L 89.5 400" stroke-opacity="0.12" stroke-miterlimit="10" stroke-dasharray=""/><path fill="none" stroke="rgb(0,0,0)" class="dcg-svg-minor-gridline" paint-order="fill stroke markers" d=" M 119.5 0 L 119.5 400" stroke-opacity="0.12" stroke-miterlimit="10" stroke-dasharray=""/><path fill="none" stroke="rgb(0,0,0)" class="dcg-svg-minor-gridline" paint-order="fill stroke markers" d=" M 149.5 0 L 149.5 400" stroke-opacity="0.12" stroke-miterlimit="10" stroke-dasharray=""/><path fill="none" stroke="rgb(0,0,0)" class="dcg-svg-minor-gridline" paint-order="fill stroke markers" d=" M 179.5 0 L 179.5 400" stroke-opacity="0.12" stroke-miterlimit="10" stroke-dasharray=""/><path fill="none" stroke="rgb(0,0,0)" class="dcg-svg-minor-gridline" paint-order="fill stroke markers" d=" M 209.5 0 L 209.5 400" stroke-opacity="0.12" stroke-miterlimit="10" stroke-dasharray=""/><path fill="none" stroke="rgb(0,0,0)" class="dcg-svg-minor-gridline" paint-order="fill stroke markers" d=" M 239.5 0 L 239.5 400" stroke-opacity="0.12" stroke-miterlimit="10" stroke-dasharray=""/><path fill="none" stroke="rgb(0,0,0)" class="dcg-svg-minor-gridline" paint-order="fill stroke markers" d=" M 269.5 0 L 269.5 400" stroke-opacity="0.12" stroke-miterlimit="10" stroke-dasharray=""/><path fill="none" stroke="rgb(0,0,0)" class="dcg-svg-minor-gridline" paint-order="fill stroke markers" d=" M 329.5 0 L 329.5 400" stroke-opacity="0.12" stroke-miterlimit="10" stroke-dasharray=""/><path fill="none" stroke="rgb(0,0,0)" class="dcg-svg-minor-gridline" paint-order="fill stroke markers" d=" M 359.5 0 L 359.5 400" stroke-opacity="0.12" stroke-miterlimit="10" stroke-dasharray=""/><path fill="none" stroke="rgb(0,0,0)" class="dcg-svg-minor-gridline" paint-order="fill stroke markers" d=" M 389.5 0 L 389.5 400" stroke-opacity="0.12" stroke-miterlimit="10" stroke-dasharray=""/><path fill="none" stroke="rgb(0,0,0)" class="dcg-svg-minor-gridline" paint-order="fill stroke markers" d=" M 419.5 0 L 419.5 400" stroke-opacity="0.12" stroke-miterlimit="10" stroke-dasharray=""/><path fill="none" stroke="rgb(0,0,0)" class="dcg-svg-minor-gridline" paint-order="fill stroke markers" d=" M 449.5 0 L 449.5 400" stroke-opacity="0.12" stroke-miterlimit="10" stroke-dasharray=""/><path fill="none" stroke="rgb(0,0,0)" class="dcg-svg-minor-gridline" paint-order="fill stroke markers" d=" M 479.5 0 L 479.5 400" stroke-opacity="0.12" stroke-miterlimit="10" stroke-dasharray=""/><path fill="none" stroke="rgb(0,0,0)" class="dcg-svg-minor-gridline" paint-order="fill stroke markers" d=" M 509.5 0 L 509.5 400" stroke-opacity="0.12" stroke-miterlimit="10" stroke-dasharray=""/><path fill="none" stroke="rgb(0,0,0)" class="dcg-svg-minor-gridline" paint-order="fill stroke markers" d=" M 539.5 0 L 539.5 400" stroke-opacity="0.12" stroke-miterlimit="10" stroke-dasharray=""/><path fill="none" stroke="rgb(0,0,0)" class="dcg-svg-minor-gridline" paint-order="fill stroke markers" d=" M 569.5 0 L 569.5 400" stroke-opacity="0.12" stroke-miterlimit="10" stroke-dasharray=""/><path fill="none" stroke="rgb(0,0,0)" class="dcg-svg-minor-gridline" paint-order="fill stroke markers" d=" M 0 370.5 L 600 370.5" stroke-opacity="0.12" stroke-miterlimit="10" stroke-dasharray=""/><path fill="none" stroke="rgb(0,0,0)" class="dcg-svg-minor-gridline" paint-order="fill stroke markers" d=" M 0 342.5 L 600 342.5" stroke-opacity="0.12" stroke-miterlimit="10" stroke-dasharray=""/><path fill="none" stroke="rgb(0,0,0)" class="dcg-svg-minor-gridline" paint-order="fill stroke markers" d=" M 0 313.5 L 600 313.5" stroke-opacity="0.12" stroke-miterlimit="10" stroke-dasharray=""/><path fill="none" stroke="rgb(0,0,0)" class="dcg-svg-minor-gridline" paint-order="fill stroke markers" d=" M 0 285.5 L 600 285.5" stroke-opacity="0.12" stroke-miterlimit="10" stroke-dasharray=""/><path fill="none" stroke="rgb(0,0,0)" class="dcg-svg-minor-gridline" paint-order="fill stroke markers" d=" M 0 256.5 L 600 256.5" stroke-opacity="0.12" stroke-miterlimit="10" stroke-dasharray=""/><path fill="none" stroke="rgb(0,0,0)" class="dcg-svg-minor-gridline" paint-order="fill stroke markers" d=" M 0 228.5 L 600 228.5" stroke-opacity="0.12" stroke-miterlimit="10" stroke-dasharray=""/><path fill="none" stroke="rgb(0,0,0)" class="dcg-svg-minor-gridline" paint-order="fill stroke markers" d=" M 0 170.5 L 600 170.5" stroke-opacity="0.12" stroke-miterlimit="10" stroke-dasharray=""/><path fill="none" stroke="rgb(0,0,0)" class="dcg-svg-minor-gridline" paint-order="fill stroke markers" d=" M 0 142.5 L 600 142.5" stroke-opacity="0.12" stroke-miterlimit="10" stroke-dasharray=""/><path fill="none" stroke="rgb(0,0,0)" class="dcg-svg-minor-gridline" paint-order="fill stroke markers" d=" M 0 113.5 L 600 113.5" stroke-opacity="0.12" stroke-miterlimit="10" stroke-dasharray=""/><path fill="none" stroke="rgb(0,0,0)" class="dcg-svg-minor-gridline" paint-order="fill stroke markers" d=" M 0 85.5 L 600 85.5" stroke-opacity="0.12" stroke-miterlimit="10" stroke-dasharray=""/><path fill="none" stroke="rgb(0,0,0)" class="dcg-svg-minor-gridline" paint-order="fill stroke markers" d=" M 0 56.5 L 600 56.5" stroke-opacity="0.12" stroke-miterlimit="10" stroke-dasharray=""/><path fill="none" stroke="rgb(0,0,0)" class="dcg-svg-minor-gridline" paint-order="fill stroke markers" d=" M 0 28.5 L 600 28.5" stroke-opacity="0.12" stroke-miterlimit="10" stroke-dasharray=""/><path fill="none" stroke="rgb(0,0,0)" class="dcg-svg-minor-gridline" paint-order="fill stroke markers" d=" M 0 -0.5 L 600 -0.5" stroke-opacity="0.12" stroke-miterlimit="10" stroke-dasharray=""/><path fill="none" stroke="rgb(0,0,0)" class="dcg-svg-major-gridline" paint-order="fill stroke markers" d=" M -0.5 0 L -0.5 400" stroke-opacity="0.31818181818181823" stroke-miterlimit="10" stroke-dasharray=""/><path fill="none" stroke="rgb(0,0,0)" class="dcg-svg-major-gridline" paint-order="fill stroke markers" d=" M 149.5 0 L 149.5 400" stroke-opacity="0.31818181818181823" stroke-miterlimit="10" stroke-dasharray=""/><path fill="none" stroke="rgb(0,0,0)" class="dcg-svg-major-gridline" paint-order="fill stroke markers" d=" M 449.5 0 L 449.5 400" stroke-opacity="0.31818181818181823" stroke-miterlimit="10" stroke-dasharray=""/><path fill="none" stroke="rgb(0,0,0)" class="dcg-svg-major-gridline" paint-order="fill stroke markers" d=" M 0 342.5 L 600 342.5" stroke-opacity="0.31818181818181823" stroke-miterlimit="10" stroke-dasharray=""/><path fill="none" stroke="rgb(0,0,0)" class="dcg-svg-major-gridline" paint-order="fill stroke markers" d=" M 0 56.5 L 600 56.5" stroke-opacity="0.31818181818181823" stroke-miterlimit="10" stroke-dasharray=""/></g></g><g id="axis-f005aa61"><g id="yaxis-f005aa61"><title>Y axis</title><path fill="none" stroke="rgb(0,0,0)" class="dcg-svg-axis-line" paint-order="fill stroke markers" d=" M 299.75 0 L 299.75 400" stroke-opacity="0.9" stroke-miterlimit="10" stroke-width="1.5" stroke-dasharray=""/></g><g id="xaxis-f005aa61"><title>X axis</title><path fill="none" stroke="rgb(0,0,0)" class="dcg-svg-axis-line" paint-order="fill stroke markers" d=" M 0 199.75 L 600 199.75" stroke-opacity="0.9" stroke-miterlimit="10" stroke-width="1.5" stroke-dasharray=""/></g><g><g class="dcg-svg-axis-value"><text fill="none" stroke="#ffffff" font-family="Arial" font-size="14px" font-style="normal" font-weight="normal" text-decoration="normal" x="291.10693359375" y="215.808" text-anchor="middle" stroke-miterlimit="2" stroke-width="3" stroke-dasharray="">0</text><text fill="#000000" stroke="none" font-family="Arial" font-size="14px" font-style="normal" font-weight="normal" text-decoration="normal" x="291.10693359375" y="215.808" text-anchor="middle">0</text></g><g class="dcg-svg-axis-value dcg-svg-offcenter-axis-value"><text fill="none" stroke="#ffffff" font-family="Arial" font-size="14px" font-style="normal" font-weight="normal" text-decoration="normal" x="13.1171875" y="215.808" text-anchor="middle" stroke-miterlimit="2" stroke-width="3" stroke-dasharray="">-10</text><text fill="#000000" stroke="none" font-family="Arial" font-size="14px" font-style="normal" font-weight="normal" text-decoration="normal" x="13.1171875" y="215.808" text-anchor="middle">-10</text></g><g class="dcg-svg-axis-value"><text fill="none" stroke="#ffffff" font-family="Arial" font-size="14px" font-style="normal" font-weight="normal" text-decoration="normal" x="147.6689453125" y="215.808" text-anchor="middle" stroke-miterlimit="2" stroke-width="3" stroke-dasharray="">-5</text><text fill="#000000" stroke="none" font-family="Arial" font-size="14px" font-style="normal" font-weight="normal" text-decoration="normal" x="147.6689453125" y="215.808" text-anchor="middle">-5</text></g><g class="dcg-svg-axis-value"><text fill="none" stroke="#ffffff" font-family="Arial" font-size="14px" font-style="normal" font-weight="normal" text-decoration="normal" x="450" y="215.808" text-anchor="middle" stroke-miterlimit="2" stroke-width="3" stroke-dasharray="">5</text><text fill="#000000" stroke="none" font-family="Arial" font-size="14px" font-style="normal" font-weight="normal" text-decoration="normal" x="450" y="215.808" text-anchor="middle">5</text></g><g class="dcg-svg-axis-value dcg-svg-offcenter-axis-value"><text fill="none" stroke="#ffffff" font-family="Arial" font-size="14px" font-style="normal" font-weight="normal" text-decoration="normal" x="589.2138671875" y="215.808" text-anchor="middle" stroke-miterlimit="2" stroke-width="3" stroke-dasharray="">10</text><text fill="#000000" stroke="none" font-family="Arial" font-size="14px" font-style="normal" font-weight="normal" text-decoration="normal" x="589.2138671875" y="215.808" text-anchor="middle">10</text></g><g class="dcg-svg-axis-value"><text fill="none" stroke="#ffffff" font-family="Arial" font-size="14px" font-style="normal" font-weight="normal" text-decoration="normal" x="288.77587890625" y="346.6651428571428" text-anchor="middle" stroke-miterlimit="2" stroke-width="3" stroke-dasharray="">-5</text><text fill="#000000" stroke="none" font-family="Arial" font-size="14px" font-style="normal" font-weight="normal" text-decoration="normal" x="288.77587890625" y="346.6651428571428" text-anchor="middle">-5</text></g><g class="dcg-svg-axis-value"><text fill="none" stroke="#ffffff" font-family="Arial" font-size="14px" font-style="normal" font-weight="normal" text-decoration="normal" x="291.10693359375" y="60.95085714285717" text-anchor="middle" stroke-miterlimit="2" stroke-width="3" stroke-dasharray="">5</text><text fill="#000000" stroke="none" font-family="Arial" font-size="14px" font-style="normal" font-weight="normal" text-decoration="normal" x="291.10693359375" y="60.95085714285717" text-anchor="middle">5</text></g></g></g></g><g id="expressions-f005aa61"><g id="sketch-f005aa61"><title>Expression 1</title><path fill="#2d70b3" stroke="none" paint-order="stroke fill markers" d="" fill-opacity="0.4"/><g><path fill="none" stroke="#2d70b3" class="dcg-svg-curve" paint-order="fill stroke markers" d=" M 38.62384734976318 -5.5 L 38.62384734976318 -5.5 L 39.05078125 -1.824815907895811 L 49.3046875 86.28756690736287 L 54.28515625 126.43842575150649 L 58.38671875 157.2063459844941 L 62.048828125 182.48910500667316 L 65.271484375 202.7751863791165 L 68.201171875 219.46396789932618 L 70.984375 233.66475611514417 L 73.62109375 245.5583559165713 L 75.96484375 254.8122470325766 L 78.162109375 262.3348808357195 L 80.212890625 268.33499571347215 L 82.1171875 273.01706600891697 L 83.875 276.57693690833065 L 85.6328125 279.4066226512593 L 87.244140625 281.3625250665561 L 88.85546875 282.7134512581598 L 90.173828125 283.37360489862556 L 91.345703125 283.628135951073 L 92.37109375 283.59744974497727 L 93.54296875 283.27664399279433 L 94.71484375 282.6556138862136 L 96.033203125 281.60458972576515 L 97.64453125 279.82480131327793 L 99.40234375 277.2799358385411 L 101.16015625 274.1279239111575 L 103.064453125 270.0570416713855 L 105.26171875 264.5554984119492 L 107.60546875 257.79807730634224 L 110.2421875 249.18813802744054 L 113.171875 238.49953361033917 L 116.39453125 225.5622104592318 L 120.203125 208.97337460893792 L 125.037109375 186.45522090518486 L 134.119140625 142.29407883040955 L 140.564453125 111.75060219786786 L 145.10546875 91.65479180828959 L 148.9140625 76.13125641708507 L 152.283203125 63.63221229866633 L 155.359375 53.36731610846516 L 158.142578125 45.10863435651248 L 160.779296875 38.242406432877374 L 163.123046875 32.955019277987674 L 165.3203125 28.715806209579625 L 167.517578125 25.184185692056133 L 169.568359375 22.533312823354947 L 171.47265625 20.63199480319662 L 173.23046875 19.35508022291583 L 174.841796875 18.585529890606267 L 176.306640625 18.215798236663545 L 177.625 18.148658010852614 L 178.943359375 18.329880816454477 L 180.408203125 18.817978576385315 L 181.873046875 19.60219602400423 L 183.630859375 20.924681395551943 L 185.53515625 22.812596545955103 L 187.732421875 25.555586070386255 L 189.9296875 28.873329466257644 L 192.419921875 33.28444594652433 L 195.056640625 38.65032934540699 L 197.986328125 45.367591186090635 L 201.208984375 53.55684262023425 L 205.017578125 64.12641209291354 L 209.705078125 78.11745760799926 L 217.029296875 101.11304105724616 L 225.525390625 127.54390702354777 L 230.359375 141.59822256844598 L 234.4609375 152.60970578021107 L 238.123046875 161.57236453758563 L 241.4921875 168.99985078831648 L 244.568359375 175.04256323812635 L 247.498046875 180.11079209251713 L 250.28125 184.28965336735598 L 253.064453125 187.84411855845804 L 255.701171875 190.63954078170772 L 258.337890625 192.88973496459408 L 260.681640625 194.44660815099635 L 262.87890625 195.54283620084456 L 265.076171875 196.3048519439294 L 267.126953125 196.73201763894895 L 269.177734375 196.9035110832809 L 271.375 196.8262753802422 L 273.71875 196.47576502077484 L 276.208984375 195.83819671096165 L 279.138671875 194.79735191313787 L 282.654296875 193.2353593489209 L 288.07421875 190.45943902757077 L 294.8125 187.0682997445625 L 298.474609375 185.56530453890463 L 301.404296875 184.6602209456733 L 304.041015625 184.13145942249224 L 306.384765625 183.92585288717768 L 308.58203125 183.98497728781769 L 310.779296875 184.30866518998167 L 312.9765625 184.91455279291927 L 315.173828125 185.81743043824824 L 317.37109375 187.02909666062834 L 319.71484375 188.67161899451213 L 322.205078125 190.819741231386 L 324.98828125 193.71464305258266 L 327.91796875 197.32007146580435 L 330.994140625 201.70474071990898 L 334.216796875 206.92318100733118 L 337.732421875 213.2871868028692 L 341.541015625 220.87616743575143 L 346.08203125 230.68794827189174 L 352.087890625 244.50234696683387 L 363.66015625 271.25477090045047 L 368.0546875 280.5040930611906 L 371.5703125 287.2003248717689 L 374.646484375 292.4109954965507 L 377.4296875 296.5156395621078 L 380.06640625 299.8045281034513 L 382.556640625 302.3248973008043 L 384.75390625 304.04227931748403 L 386.658203125 305.1258850148264 L 388.416015625 305.779084453753 L 390.02734375 306.07624256989624 L 391.4921875 306.0901638928244 L 392.95703125 305.8556070505394 L 394.568359375 305.3063903100179 L 396.1796875 304.44859131202224 L 397.9375 303.1579805682021 L 399.841796875 301.3402444380514 L 402.0390625 298.7010833461779 L 404.236328125 295.48570331164535 L 406.580078125 291.4306461887462 L 409.0703125 286.43252689077633 L 411.70703125 280.3945988754016 L 414.490234375 273.23226047021427 L 417.56640625 264.44144658354946 L 420.935546875 253.86629480142108 L 424.744140625 240.89354507377686 L 429.431640625 223.78163687913712 L 436.462890625 196.78947666580464 L 444.666015625 165.5642342375311 L 449.060546875 150.01103964206933 L 452.576171875 138.60128137080602 L 455.65234375 129.5862580619418 L 458.435546875 122.35107935727473 L 460.92578125 116.71662554431288 L 463.123046875 112.46766103895942 L 465.173828125 109.15929728799631 L 467.078125 106.68946510784929 L 468.8359375 104.94928558148246 L 470.447265625 103.82711703793888 L 471.765625 103.25587011832977 L 472.9375 103.01647045288848 L 474.109375 103.03448191232218 L 475.28125 103.3141200076708 L 476.453125 103.85918676469112 L 477.771484375 104.79384570727416 L 479.236328125 106.23637484363809 L 480.84765625 108.31967688670306 L 482.60546875 111.19082454820636 L 484.36328125 114.69005558685791 L 486.267578125 119.19116978239481 L 488.318359375 124.86277163172065 L 490.515625 131.88078656273467 L 492.859375 140.42459113963707 L 495.349609375 150.67194655511497 L 497.986328125 162.79259076134053 L 500.916015625 177.7220228132527 L 504.138671875 195.80746648079221 L 507.654296875 217.34487004636597 L 511.609375 243.54058021131613 L 516.150390625 275.6984558217855 L 522.009765625 319.44233796020706 L 533.4362575844409 405.5" stroke-linecap="round" stroke-linejoin="round" stroke-miterlimit="10" stroke-width="2.5" stroke-opacity="0.9" stroke-dasharray=""/></g></g></g><g id="labels-f005aa61"/></g></svg>