<svg version="1.1" xmlns="http://www.w3.org/2000/svg" xmlns:xlink="http://www.w3.org/1999/xlink" width="600" height="400"><defs/><g transform="scale(1,1)"><g id="background-e28fdbed"><rect fill="white" stroke="none" x="0" y="0" width="600" height="400" class="dcg-svg-background"/></g><g id="background-images-e28fdbed"/><g id="graphpaper-e28fdbed"><g id="grid-e28fdbed"><g><path fill="none" stroke="rgb(0,0,0)" class="dcg-svg-minor-gridline" paint-order="fill stroke markers" d=" M -0.5 0 L -0.5 400" stroke-opacity="0.12" stroke-miterlimit="10" stroke-dasharray=""/><path fill="none" stroke="rgb(0,0,0)" class="dcg-svg-minor-gridline" paint-order="fill stroke markers" d=" M 29.5 0 L 29.5 400" stroke-opacity="0.12" stroke-miterlimit="10" stroke-dasharray=""/><path fill="none" stroke="rgb(0,0,0)" class="dcg-svg-minor-gridline" paint-order="fill stroke markers" d=" M 59.5 0 L 59.5 400" stroke-opacity="0.12" stroke-miterlimit="10" stroke-dasharray=""/><path fill="none" stroke="rgb(0,0,0)" class="dcg-svg-minor-gridline" paint-order="fill stroke markers" d=" M 89.5 0 L 89.5 400" stroke-opacity="0.12" stroke-miterlimit="10" stroke-dasharray=""/><path fill="none" stroke="rgb(0,0,0)" class="dcg-svg-minor-gridline" paint-order="fill stroke markers" d=" M 119.5 0 L 119.5 400" stroke-opacity="0.12" stroke-miterlimit="10" stroke-dasharray=""/><path fill="none" stroke="rgb(0,0,0)" class="dcg-svg-minor-gridline" paint-order="fill stroke markers" d=" M 149.5 0 L 149.5 400" stroke-opacity="0.12" stroke-miterlimit="10" stroke-dasharray=""/><path fill="none" stroke="rgb(0,0,0)" class="dcg-svg-minor-gridline" paint-order="fill stroke markers" d=" M 179.5 0 L 179.5 400" stroke-opacity="0.12" stroke-miterlimit="10" stroke-dasharray=""/><path fill="none" stroke="rgb(0,0,0)" class="dcg-svg-minor-gridline" paint-order="fill stroke markers" d=" M 209.5 0 L 209.5 400" stroke-opacity="0.12" stroke-miterlimit="10" stroke-dasharray=""/><path fill="none" stroke="rgb(0,0,0)" class="dcg-svg-minor-gridline" paint-order="fill stroke markers" d=" M 239.5 0 L 239.5 400" stroke-opacity="0.12" stroke-miterlimit="10" stroke-dasharray=""/><path fill="none" stroke="rgb(0,0,0)" class="dcg-svg-minor-gridline" paint-order="fill stroke markers" d=" M 269.5 0 L 269.5 400" stroke-opacity="0.12" stroke-miterlimit="10" stroke-dasharray=""/><path fill="none" stroke="rgb(0,0,0)" class="dcg-svg-minor-gridline" paint-order="fill stroke markers" d=" M 329.5 0 L 329.5 400" stroke-opacity="0.12" stroke-miterlimit="10" stroke-dasharray=""/><path fill="none" stroke="rgb(0,0,0)" class="dcg-svg-minor-gridline" paint-order="fill stroke markers" d=" M 359.5 0 L 359.5 400" stroke-opacity="0.12" stroke-miterlimit="10" stroke-dasharray=""/><path fill="none" stroke="rgb(0,0,0)" class="dcg-svg-minor-gridline" paint-order="fill stroke markers" d=" M 389.5 0 L 389.5 400" stroke-opacity="0.12" stroke-miterlimit="10" stroke-dasharray=""/><path fill="none" stroke="rgb(0,0,0)" class="dcg-svg-minor-gridline" paint-order="fill stroke markers" d=" M 419.5 0 L 419.5 400" stroke-opacity="0.12" stroke-miterlimit="10" stroke-dasharray=""/><path fill="none" stroke="rgb(0,0,0)" class="dcg-svg-minor-gridline" paint-order="fill stroke markers" d=" M 449.5 0 L 449.5 400" stroke-opacity="0.12" stroke-miterlimit="10" stroke-dasharray=""/><path fill="none" stroke="rgb(0,0,0)" class="dcg-svg-minor-gridline" paint-order="fill stroke markers" d=" M 479.5 0 L 479.5 400" stroke-opacity="0.12" stroke-miterlimit="10" stroke-dasharray=""/><path fill="none" stroke="rgb(0,0,0)" class="dcg-svg-minor-gridline" paint-order="fill stroke markers" d=" M 509.5 0 L 509.5 400" stroke-opacity="0.12" stroke-miterlimit="10" stroke-dasharray=""/><path fill="none" stroke="rgb(0,0,0)" class="dcg-svg-minor-gridline" paint-order="fill stroke markers" d=" M 539.5 0 L 539.5 400" stroke-opacity="0.12" stroke-miterlimit="10" stroke-dasharray=""/><path fill="none" stroke="rgb(0,0,0)" class="dcg-svg-minor-gridline" paint-order="fill stroke markers" d=" M 569.5 0 L 569.5 400" stroke-opacity="0.12" stroke-miterlimit="10" stroke-dasharray=""/><path fill="none" stroke="rgb(0,0,0)" class="dcg-svg-minor-gridline" paint-order="fill stroke markers" d=" M 0 370.5 L 600 370.5" stroke-opacity="0.12" stroke-miterlimit="10" stroke-dasharray=""/><path fill="none" stroke="rgb(0,0,0)" class="dcg-svg-minor-gridline" paint-order="fill stroke markers" d=" M 0 342.5 L 600 342.5" stroke-opacity="0.12" stroke-miterlimit="10" stroke-dasharray=""/><path fill="none" stroke="rgb(0,0,0)" class="dcg-svg-minor-gridline" paint-order="fill stroke markers" d=" M 0 313.5 L 600 313.5" stroke-opacity="0.12" stroke-miterlimit="10" stroke-dasharray=""/><path fill="none" stroke="rgb(0,0,0)" class="dcg-svg-minor-gridline" paint-order="fill stroke markers" d=" M 0 285.5 L 600 285.5" stroke-opacity="0.12" stroke-miterlimit="10" stroke-dasharray=""/><path fill="none" stroke="rgb(0,0,0)" class="dcg-svg-minor-gridline" paint-order="fill stroke markers" d=" M 0 256.5 L 600 256.5" stroke-opacity="0.12" stroke-miterlimit="10" stroke-dasharray=""/><path fill="none" stroke="rgb(0,0,0)" class="dcg-svg-minor-gridline" paint-order="fill stroke markers" d=" M 0 228.5 L 600 228.5" stroke-opacity="0.12" stroke-miterlimit="10" stroke-dasharray=""/><path fill="none" stroke="rgb(0,0,0)" class="dcg-svg-minor-gridline" paint-order="fill stroke markers" d=" M 0 170.5 L 600 170.5" stroke-opacity="0.12" stroke-miterlimit="10" stroke-dasharray=""/><path fill="none" stroke="rgb(0,0,0)" class="dcg-svg-minor-gridline" paint-order="fill stroke markers" d=" M 0 142.5 L 600 142.5" stroke-opacity="0.12" stroke-miterlimit="10" stroke-dasharray=""/><path fill="none" stroke="rgb(0,0,0)" class="dcg-svg-minor-gridline" paint-order="fill stroke markers" d=" M 0 113.5 L 600 113.5" stroke-opacity="0.12" stroke-miterlimit="10" stroke-dasharray=""/><path fill="none" stroke="rgb(0,0,0)" class="dcg-svg-minor-gridline" paint-order="fill stroke markers" d=" M 0 85.5 L 600 85.5" stroke-opacity="0.12" stroke-miterlimit="10" stroke-dasharray=""/><path fill="none" stroke="rgb(0,0,0)" class="dcg-svg-minor-gridline" paint-order="fill stroke markers" d=" M 0 56.5 L 600 56.5" stroke-opacity="0.12" stroke-miterlimit="10" stroke-dasharray=""/><path fill="none" stroke="rgb(0,0,0)" class="dcg-svg-minor-gridline" paint-order="fill stroke markers" d=" M 0 28.5 L 600 28.5" stroke-opacity="0.12" stroke-miterlimit="10" stroke-dasharray=""/><path fill="none" stroke="rgb(0,0,0)" class="dcg-svg-minor-gridline" paint-order="fill stroke markers" d=" M 0 -0.5 L 600 -0.5" stroke-opacity="0.12" stroke-miterlimit="10" stroke-dasharray=""/><path fill="none" stroke="rgb(0,0,0)" class="dcg-svg-major-gridline" paint-order="fill stroke markers" d=" M -0.5 0 L -0.5 400" stroke-opacity="0.31818181818181823" stroke-miterlimit="10" stroke-dasharray=""/><path fill="none" stroke="rgb(0,0,0)" class="dcg-svg-major-gridline" paint-order="fill stroke markers" d=" M 149.5 0 L 149.5 400" stroke-opacity="0.31818181818181823" stroke-miterlimit="10" stroke-dasharray=""/><path fill="none" stroke="rgb(0,0,0)" class="dcg-svg-major-gridline" paint-order="fill stroke markers" d=" M 449.5 0 L 449.5 400" stroke-opacity="0.31818181818181823" stroke-miterlimit="10" stroke-dasharray=""/><path fill="none" stroke="rgb(0,0,0)" class="dcg-svg-major-gridline" paint-order="fill stroke markers" d=" M 0 342.5 L 600 342.5" stroke-opacity="0.31818181818181823" stroke-miterlimit="10" stroke-dasharray=""/><path fill="none" stroke="rgb(0,0,0)" class="dcg-svg-major-gridline" paint-order="fill stroke markers" d=" M 0 56.5 L 600 56.5" stroke-opacity="0.31818181818181823" stroke-miterlimit="10" stroke-dasharray=""/></g></g><g id="axis-e28fdbed"><g id="yaxis-e28fdbed"><title>Y axis</title><path fill="none" stroke="rgb(0,0,0)" class="dcg-svg-axis-line" paint-order="fill stroke markers" d=" M 299.75 0 L 299.75 400" stroke-opacity="0.9" stroke-miterlimit="10" stroke-width="1.5" stroke-dasharray=""/></g><g id="xaxis-e28fdbed"><title>X axis</title><path fill="none" stroke="rgb(0,0,0)" class="dcg-svg-axis-line" paint-order="fill stroke markers" d=" M 0 199.75 L 600 199.75" stroke-opacity="0.9" stroke-miterlimit="10" stroke-width="1.5" stroke-dasharray=""/></g><g><g class="dcg-svg-axis-value"><text fill="none" stroke="#ffffff" font-family="Arial" font-size="14px" font-style="normal" font-weight="normal" text-decoration="normal" x="291.10693359375" y="215.808" text-anchor="middle" stroke-miterlimit="2" stroke-width="3" stroke-dasharray="">0</text><text fill="#000000" stroke="none" font-family="Arial" font-size="14px" font-style="normal" font-weight="normal" text-decoration="normal" x="291.10693359375" y="215.808" text-anchor="middle">0</text></g><g class="dcg-svg-axis-value dcg-svg-offcenter-axis-value"><text fill="none" stroke="#ffffff" font-family="Arial" font-size="14px" font-style="normal" font-weight="normal" text-decoration="normal" x="13.1171875" y="215.808" text-anchor="middle" stroke-miterlimit="2" stroke-width="3" stroke-dasharray="">-10</text><text fill="#000000" stroke="none" font-family="Arial" font-size="14px" font-style="normal" font-weight="normal" text-decoration="normal" x="13.1171875" y="215.808" text-anchor="middle">-10</text></g><g class="dcg-svg-axis-value"><text fill="none" stroke="#ffffff" font-family="Arial" font-size="14px" font-style="normal" font-weight="normal" text-decoration="normal" x="147.6689453125" y="215.808" text-anchor="middle" stroke-miterlimit="2" stroke-width="3" stroke-dasharray="">-5</text><text fill="#000000" stroke="none" font-family="Arial" font-size="14px" font-style="normal" font-weight="normal" text-decoration="normal" x="147.6689453125" y="215.808" text-anchor="middle">-5</text></g><g class="dcg-svg-axis-value"><text fill="none" stroke="#ffffff" font-family="Arial" font-size="14px" font-style="normal" font-weight="normal" text-decoration="normal" x="450" y="215.808" text-anchor="middle" stroke-miterlimit="2" stroke-width="3" stroke-dasharray="">5</text><text fill="#000000" stroke="none" font-family="Arial" font-size="14px" font-style="normal" font-weight="normal" text-decoration="normal" x="450" y="215.808" text-anchor="middle">5</text></g><g class="dcg-svg-axis-value dcg-svg-offcenter-axis-value"><text fill="none" stroke="#ffffff" font-family="Arial" font-size="14px" font-style="normal" font-weight="normal" text-decoration="normal" x="589.2138671875" y="215.808" text-anchor="middle" stroke-miterlimit="2" stroke-width="3" stroke-dasharray="">10</text><text fill="#000000" stroke="none" font-family="Arial" font-size="14px" font-style="normal" font-weight="normal" text-decoration="normal" x="589.2138671875" y="215.808" text-anchor="middle">10</text></g><g class="dcg-svg-axis-value"><text fill="none" stroke="#ffffff" font-family="Arial" font-size="14px" font-style="normal" font-weight="normal" text-decoration="normal" x="288.77587890625" y="346.6651428571428" text-anchor="middle" stroke-miterlimit="2" stroke-width="3" stroke-dasharray="">-5</text><text fill="#000000" stroke="none" font-family="Arial" font-size="14px" font-style="normal" font-weight="normal" text-decoration="normal" x="288.77587890625" y="346.6651428571428" text-anchor="middle">-5</text></g><g class="dcg-svg-axis-value"><text fill="none" stroke="#ffffff" font-family="Arial" font-size="14px" font-style="normal" font-weight="normal" text-decoration="normal" x="291.10693359375" y="60.95085714285717" text-anchor="middle" stroke-miterlimit="2" stroke-width="3" stroke-dasharray="">5</text><text fill="#000000" stroke="none" font-family="Arial" font-size="14px" font-style="normal" font-weight="normal" text-decoration="normal" x="291.10693359375" y="60.95085714285717" text-anchor="middle">5</text></g></g></g></g><g id="expressions-e28fdbed"><g id="sketch-e28fdbed"><title>Expression 1</title><path fill="#2d70b3" stroke="none" paint-order="stroke fill markers" d="" fill-opacity="0.4"/><g><path fill="none" stroke="#2d70b3" class="dcg-svg-curve" paint-order="fill stroke markers" d=" M -0.5 85.54201152629099 L -0.5 85.54201152629099 L 1.697265625 75.7200070432039 L 3.748046875 67.91483517821274 L 5.65234375 61.85977605126328 L 7.41015625 57.29714414726601 L 9.021484375 53.982929380907706 L 10.486328125 51.690151781971224 L 11.8046875 50.21114521358163 L 12.9765625 49.35897679057672 L 14.001953125 48.968193784784205 L 14.880859375 48.89507108473447 L 15.759765625 49.06190408030943 L 16.78515625 49.557322547931165 L 17.95703125 50.516058890915986 L 19.275390625 52.08845795503123 L 20.740234375 54.438381072542086 L 22.3515625 57.740477677404556 L 23.962890625 61.77445244790829 L 25.720703125 66.98391063495467 L 27.771484375 74.08745920918784 L 29.96875 82.86556144604134 L 32.3125 93.4800107380749 L 34.94921875 106.84964452656726 L 37.87890625 123.30962723242061 L 41.248046875 144.06302663456685 L 45.056640625 169.46819964405537 L 49.744140625 202.84670773386722 L 57.068359375 257.479722199307 L 65.564453125 320.3584703131171 L 70.3984375 353.93956903840484 L 74.353515625 379.43251004284525 L 77.869140625 400.21815711324115 L 78.85259232624291 405.5 L 132.84766457674016 405.5 L 136.462890625 388.1961518255623 L 141.58984375 362.1079916251225 L 159.900390625 267.52958909538063 L 164.1484375 247.8826847098011 L 167.810546875 232.27167843153467 L 171.1796875 219.16472210943346 L 174.255859375 208.35397263253117 L 177.185546875 199.15412811110508 L 179.822265625 191.8295712899667 L 182.3125 185.76651700014224 L 184.65625 180.83043698808152 L 186.853515625 176.88551673204805 L 189.05078125 173.60021994321676 L 191.1015625 171.12422469218484 L 193.15234375 169.21006491607292 L 195.056640625 167.9259925344881 L 196.66796875 167.2020325582948 L 198.279296875 166.8019063168742 L 199.744140625 166.71148797950585 L 201.208984375 166.87354339187937 L 202.8203125 167.3335227163699 L 204.431640625 168.07709551765151 L 206.3359375 169.30402108647505 L 208.38671875 171.02258146229838 L 210.876953125 173.62105102148666 L 213.513671875 176.9244755648774 L 216.443359375 181.17614959319278 L 219.8125 186.6942290746867 L 223.9140625 194.09860478323338 L 229.7734375 205.43873819771792 L 239.1484375 223.5703903816804 L 243.54296875 231.32193680466267 L 247.205078125 237.1385817860896 L 250.427734375 241.66219265534602 L 253.50390625 245.38944124851602 L 256.43359375 248.35505945608222 L 259.0703125 250.50870355598107 L 261.4140625 251.99894110465866 L 263.611328125 253.027053038362 L 265.662109375 253.6626041866494 L 267.56640625 253.97359339748797 L 269.470703125 254.01874031737054 L 271.375 253.8028886587766 L 273.279296875 253.33272937249197 L 275.330078125 252.5517625374263 L 277.52734375 251.41325934356465 L 280.017578125 249.76866835892486 L 282.80078125 247.5222885428591 L 286.0234375 244.44612426137311 L 289.83203125 240.26679493542684 L 294.51953125 234.53643772965276 L 311.21875 213.56066197883504 L 315.02734375 209.68408984072443 L 318.25 206.9253146090121 L 321.033203125 204.99321881835985 L 323.5234375 203.65746187105725 L 325.720703125 202.81012777036514 L 327.771484375 202.31423945007776 L 329.67578125 202.11825025255496 L 331.580078125 202.18369851584612 L 333.484375 202.51528363752848 L 335.388671875 203.11580410449514 L 337.439453125 204.06422262723305 L 339.63671875 205.4258386458996 L 341.98046875 207.26624699544902 L 344.6171875 209.80210386944145 L 347.546875 213.17124820653675 L 350.623046875 217.29025913022673 L 353.9921875 222.41518874289645 L 357.80078125 228.86453676074987 L 362.341796875 237.24589795968544 L 369.8125 251.85832985919708 L 376.404296875 264.49062759303206 L 380.505859375 271.6787118125826 L 383.875 276.94968067188853 L 386.8046875 280.93688478011074 L 389.44140625 283.9643833518689 L 391.931640625 286.2709230281779 L 394.12890625 287.8154055217554 L 396.033203125 288.7532702061627 L 397.64453125 289.23953498970496 L 399.255859375 289.43136916335123 L 400.720703125 289.34095082598293 L 402.185546875 288.99045129235844 L 403.650390625 288.37295934569926 L 405.26171875 287.37798518107184 L 407.01953125 285.90720380536027 L 409.0703125 283.6731596823696 L 411.12109375 280.87233035902983 L 413.318359375 277.23564347431 L 415.515625 272.93819789281497 L 417.859375 267.6275949423522 L 420.349609375 261.17162162475563 L 422.986328125 253.44065257565615 L 425.76953125 244.31315225077302 L 428.845703125 233.12449984514618 L 432.068359375 220.2480526234626 L 435.73046875 204.32145784489927 L 439.83203125 185.08179641059982 L 444.8125 160.17544605978597 L 452.13671875 121.79643378006404 L 461.072265625 75.25745328093495 L 465.759765625 52.40345070404385 L 469.568359375 35.23724297494965 L 472.9375 21.402288549975026 L 475.8671875 10.589867035707528 L 478.50390625 1.9515445270995997 L 480.994140625 -5.165469469063851 L 481.1308152232717 -5.5 L 506.76470795201885 -5.5 L 508.09375 -1.6868982196634192 L 510.291015625 5.6275429030210375 L 512.634765625 14.552937760171858 L 515.125 25.26300089594679 L 517.76171875 37.91730402086506 L 520.69140625 53.464983839950605 L 523.9140625 72.22417214799202 L 527.576171875 95.40115821666052 L 531.677734375 123.31244204115444 L 536.8046875 160.33065356309297 L 555.26171875 295.67328537225916 L 559.216796875 321.32344576476925 L 562.5859375 341.26241685849925 L 565.515625 356.8998101801567 L 568.15234375 369.4435255237758 L 570.49609375 379.2602428146139 L 572.693359375 387.24006257783986 L 574.744140625 393.5580136075487 L 576.501953125 398.06558050103104 L 578.11328125 401.43506953471854 L 579.578125 403.84776810066154 L 580.9385637590373 405.5 L 587.6123624413267 405.5 L 588.806640625 404.0489286263132 L 590.125 401.8929533894265 L 591.58984375 398.8457129955911 L 593.201171875 394.70100939736625 L 594.958984375 389.2345994258437 L 596.86328125 382.206806191093 L 598.9140625 373.3662244401285 L 599.5 370.6008456165661" stroke-linecap="round" stroke-linejoin="round" stroke-miterlimit="10" stroke-width="2.5" stroke-opacity="0.9" stroke-dasharray=""/></g></g></g><g id="labels-e28fdbed"/></g></svg>