<svg version="1.1" xmlns="http://www.w3.org/2000/svg" xmlns:xlink="http://www.w3.org/1999/xlink" width="600" height="400"><defs/><g transform="scale(1,1)"><g id="background-fbe31d56"><rect fill="white" stroke="none" x="0" y="0" width="600" height="400" class="dcg-svg-background"/></g><g id="background-images-fbe31d56"/><g id="graphpaper-fbe31d56"><g id="grid-fbe31d56"><g><path fill="none" stroke="rgb(0,0,0)" class="dcg-svg-minor-gridline" paint-order="fill stroke markers" d=" M 11.5 0 L 11.5 400" stroke-opacity="0.12" stroke-miterlimit="10" stroke-dasharray=""/><path fill="none" stroke="rgb(0,0,0)" class="dcg-svg-minor-gridline" paint-order="fill stroke markers" d=" M 35.5 0 L 35.5 400" stroke-opacity="0.12" stroke-miterlimit="10" stroke-dasharray=""/><path fill="none" stroke="rgb(0,0,0)" class="dcg-svg-minor-gridline" paint-order="fill stroke markers" d=" M 59.5 0 L 59.5 400" stroke-opacity="0.12" stroke-miterlimit="10" stroke-dasharray=""/><path fill="none" stroke="rgb(0,0,0)" class="dcg-svg-minor-gridline" paint-order="fill stroke markers" d=" M 83.5 0 L 83.5 400" stroke-opacity="0.12" stroke-miterlimit="10" stroke-dasharray=""/><path fill="none" stroke="rgb(0,0,0)" class="dcg-svg-minor-gridline" paint-order="fill stroke markers" d=" M 107.5 0 L 107.5 400" stroke-opacity="0.12" stroke-miterlimit="10" stroke-dasharray=""/><path fill="none" stroke="rgb(0,0,0)" class="dcg-svg-minor-gridline" paint-order="fill stroke markers" d=" M 131.5 0 L 131.5 400" stroke-opacity="0.12" stroke-miterlimit="10" stroke-dasharray=""/><path fill="none" stroke="rgb(0,0,0)" class="dcg-svg-minor-gridline" paint-order="fill stroke markers" d=" M 155.5 0 L 155.5 400" stroke-opacity="0.12" stroke-miterlimit="10" stroke-dasharray=""/><path fill="none" stroke="rgb(0,0,0)" class="dcg-svg-minor-gridline" paint-order="fill stroke markers" d=" M 179.5 0 L 179.5 400" stroke-opacity="0.12" stroke-miterlimit="10" stroke-dasharray=""/><path fill="none" stroke="rgb(0,0,0)" class="dcg-svg-minor-gridline" paint-order="fill stroke markers" d=" M 203.5 0 L 203.5 400" stroke-opacity="0.12" stroke-miterlimit="10" stroke-dasharray=""/><path fill="none" stroke="rgb(0,0,0)" class="dcg-svg-minor-gridline" paint-order="fill stroke markers" d=" M 227.5 0 L 227.5 400" stroke-opacity="0.12" stroke-miterlimit="10" stroke-dasharray=""/><path fill="none" stroke="rgb(0,0,0)" class="dcg-svg-minor-gridline" paint-order="fill stroke markers" d=" M 251.5 0 L 251.5 400" stroke-opacity="0.12" stroke-miterlimit="10" stroke-dasharray=""/><path fill="none" stroke="rgb(0,0,0)" class="dcg-svg-minor-gridline" paint-order="fill stroke markers" d=" M 275.5 0 L 275.5 400" stroke-opacity="0.12" stroke-miterlimit="10" stroke-dasharray=""/><path fill="none" stroke="rgb(0,0,0)" class="dcg-svg-minor-gridline" paint-order="fill stroke markers" d=" M 323.5 0 L 323.5 400" stroke-opacity="0.12" stroke-miterlimit="10" stroke-dasharray=""/><path fill="none" stroke="rgb(0,0,0)" class="dcg-svg-minor-gridline" paint-order="fill stroke markers" d=" M 347.5 0 L 347.5 400" stroke-opacity="0.12" stroke-miterlimit="10" stroke-dasharray=""/><path fill="none" stroke="rgb(0,0,0)" class="dcg-svg-minor-gridline" paint-order="fill stroke markers" d=" M 371.5 0 L 371.5 400" stroke-opacity="0.12" stroke-miterlimit="10" stroke-dasharray=""/><path fill="none" stroke="rgb(0,0,0)" class="dcg-svg-minor-gridline" paint-order="fill stroke markers" d=" M 395.5 0 L 395.5 400" stroke-opacity="0.12" stroke-miterlimit="10" stroke-dasharray=""/><path fill="none" stroke="rgb(0,0,0)" class="dcg-svg-minor-gridline" paint-order="fill stroke markers" d=" M 419.5 0 L 419.5 400" stroke-opacity="0.12" stroke-miterlimit="10" stroke-dasharray=""/><path fill="none" stroke="rgb(0,0,0)" class="dcg-svg-minor-gridline" paint-order="fill stroke markers" d=" M 443.5 0 L 443.5 400" stroke-opacity="0.12" stroke-miterlimit="10" stroke-dasharray=""/><path fill="none" stroke="rgb(0,0,0)" class="dcg-svg-minor-gridline" paint-order="fill stroke markers" d=" M 467.5 0 L 467.5 400" stroke-opacity="0.12" stroke-miterlimit="10" stroke-dasharray=""/><path fill="none" stroke="rgb(0,0,0)" class="dcg-svg-minor-gridline" paint-order="fill stroke markers" d=" M 491.5 0 L 491.5 400" stroke-opacity="0.12" stroke-miterlimit="10" stroke-dasharray=""/><path fill="none" stroke="rgb(0,0,0)" class="dcg-svg-minor-gridline" paint-order="fill stroke markers" d=" M 515.5 0 L 515.5 400" stroke-opacity="0.12" stroke-miterlimit="10" stroke-dasharray=""/><path fill="none" stroke="rgb(0,0,0)" class="dcg-svg-minor-gridline" paint-order="fill stroke markers" d=" M 539.5 0 L 539.5 400" stroke-opacity="0.12" stroke-miterlimit="10" stroke-dasharray=""/><path fill="none" stroke="rgb(0,0,0)" class="dcg-svg-minor-gridline" paint-order="fill stroke markers" d=" M 563.5 0 L 563.5 400" stroke-opacity="0.12" stroke-miterlimit="10" stroke-dasharray=""/><path fill="none" stroke="rgb(0,0,0)" class="dcg-svg-minor-gridline" paint-order="fill stroke markers" d=" M 587.5 0 L 587.5 400" stroke-opacity="0.12" stroke-miterlimit="10" stroke-dasharray=""/><path fill="none" stroke="rgb(0,0,0)" class="dcg-svg-minor-gridline" paint-order="fill stroke markers" d=" M 0 379.5 L 600 379.5" stroke-opacity="0.12" stroke-miterlimit="10" stroke-dasharray=""/><path fill="none" stroke="rgb(0,0,0)" class="dcg-svg-minor-gridline" paint-order="fill stroke markers" d=" M 0 359.5 L 600 359.5" stroke-opacity="0.12" stroke-miterlimit="10" stroke-dasharray=""/><path fill="none" stroke="rgb(0,0,0)" class="dcg-svg-minor-gridline" paint-order="fill stroke markers" d=" M 0 339.5 L 600 339.5" stroke-opacity="0.12" stroke-miterlimit="10" stroke-dasharray=""/><path fill="none" stroke="rgb(0,0,0)" class="dcg-svg-minor-gridline" paint-order="fill stroke markers" d=" M 0 319.5 L 600 319.5" stroke-opacity="0.12" stroke-miterlimit="10" stroke-dasharray=""/><path fill="none" stroke="rgb(0,0,0)" class="dcg-svg-minor-gridline" paint-order="fill stroke markers" d=" M 0 299.5 L 600 299.5" stroke-opacity="0.12" stroke-miterlimit="10" stroke-dasharray=""/><path fill="none" stroke="rgb(0,0,0)" class="dcg-svg-minor-gridline" paint-order="fill stroke markers" d=" M 0 279.5 L 600 279.5" stroke-opacity="0.12" stroke-miterlimit="10" stroke-dasharray=""/><path fill="none" stroke="rgb(0,0,0)" class="dcg-svg-minor-gridline" paint-order="fill stroke markers" d=" M 0 259.5 L 600 259.5" stroke-opacity="0.12" stroke-miterlimit="10" stroke-dasharray=""/><path fill="none" stroke="rgb(0,0,0)" class="dcg-svg-minor-gridline" paint-order="fill stroke markers" d=" M 0 239.5 L 600 239.5" stroke-opacity="0.12" stroke-miterlimit="10" stroke-dasharray=""/><path fill="none" stroke="rgb(0,0,0)" class="dcg-svg-minor-gridline" paint-order="fill stroke markers" d=" M 0 219.5 L 600 219.5" stroke-opacity="0.12" stroke-miterlimit="10" stroke-dasharray=""/><path fill="none" stroke="rgb(0,0,0)" class="dcg-svg-minor-gridline" paint-order="fill stroke markers" d=" M 0 179.5 L 600 179.5" stroke-opacity="0.12" stroke-miterlimit="10" stroke-dasharray=""/><path fill="none" stroke="rgb(0,0,0)" class="dcg-svg-minor-gridline" paint-order="fill stroke markers" d=" M 0 159.5 L 600 159.5" stroke-opacity="0.12" stroke-miterlimit="10" stroke-dasharray=""/><path fill="none" stroke="rgb(0,0,0)" class="dcg-svg-minor-gridline" paint-order="fill stroke markers" d=" M 0 139.5 L 600 139.5" stroke-opacity="0.12" stroke-miterlimit="10" stroke-dasharray=""/><path fill="none" stroke="rgb(0,0,0)" class="dcg-svg-minor-gridline" paint-order="fill stroke markers" d=" M 0 119.5 L 600 119.5" stroke-opacity="0.12" stroke-miterlimit="10" stroke-dasharray=""/><path fill="none" stroke="rgb(0,0,0)" class="dcg-svg-minor-gridline" paint-order="fill stroke markers" d=" M 0 99.5 L 600 99.5" stroke-opacity="0.12" stroke-miterlimit="10" stroke-dasharray=""/><path fill="none" stroke="rgb(0,0,0)" class="dcg-svg-minor-gridline" paint-order="fill stroke markers" d=" M 0 79.5 L 600 79.5" stroke-opacity="0.12" stroke-miterlimit="10" stroke-dasharray=""/><path fill="none" stroke="rgb(0,0,0)" class="dcg-svg-minor-gridline" paint-order="fill stroke markers" d=" M 0 59.5 L 600 59.5" stroke-opacity="0.12" stroke-miterlimit="10" stroke-dasharray=""/><path fill="none" stroke="rgb(0,0,0)" class="dcg-svg-minor-gridline" paint-order="fill stroke markers" d=" M 0 39.5 L 600 39.5" stroke-opacity="0.12" stroke-miterlimit="10" stroke-dasharray=""/><path fill="none" stroke="rgb(0,0,0)" class="dcg-svg-minor-gridline" paint-order="fill stroke markers" d=" M 0 19.5 L 600 19.5" stroke-opacity="0.12" stroke-miterlimit="10" stroke-dasharray=""/><path fill="none" stroke="rgb(0,0,0)" class="dcg-svg-minor-gridline" paint-order="fill stroke markers" d=" M 0 -0.5 L 600 -0.5" stroke-opacity="0.12" stroke-miterlimit="10" stroke-dasharray=""/><path fill="none" stroke="rgb(0,0,0)" class="dcg-svg-major-gridline" paint-order="fill stroke markers" d=" M 59.5 0 L 59.5 400" stroke-opacity="0.31818181818181823" stroke-miterlimit="10" stroke-dasharray=""/><path fill="none" stroke="rgb(0,0,0)" class="dcg-svg-major-gridline" paint-order="fill stroke markers" d=" M 179.5 0 L 179.5 400" stroke-opacity="0.31818181818181823" stroke-miterlimit="10" stroke-dasharray=""/><path fill="none" stroke="rgb(0,0,0)" class="dcg-svg-major-gridline" paint-order="fill stroke markers" d=" M 419.5 0 L 419.5 400" stroke-opacity="0.31818181818181823" stroke-miterlimit="10" stroke-dasharray=""/><path fill="none" stroke="rgb(0,0,0)" class="dcg-svg-major-gridline" paint-order="fill stroke markers" d=" M 539.5 0 L 539.5 400" stroke-opacity="0.31818181818181823" stroke-miterlimit="10" stroke-dasharray=""/><path fill="none" stroke="rgb(0,0,0)" class="dcg-svg-major-gridline" paint-order="fill stroke markers" d=" M 0 299.5 L 600 299.5" stroke-opacity="0.31818181818181823" stroke-miterlimit="10" stroke-dasharray=""/><path fill="none" stroke="rgb(0,0,0)" class="dcg-svg-major-gridline" paint-order="fill stroke markers" d=" M 0 99.5 L 600 99.5" stroke-opacity="0.31818181818181823" stroke-miterlimit="10" stroke-dasharray=""/><path fill="none" stroke="rgb(0,0,0)" class="dcg-svg-major-gridline" paint-order="fill stroke markers" d=" M 0 -0.5 L 600 -0.5" stroke-opacity="0.31818181818181823" stroke-miterlimit="10" stroke-dasharray=""/></g></g><g id="axis-fbe31d56"><g id="yaxis-fbe31d56"><title>Y axis</title><path fill="none" stroke="rgb(0,0,0)" class="dcg-svg-axis-line" paint-order="fill stroke markers" d=" M 299.75 0 L 299.75 400" stroke-opacity="0.9" stroke-miterlimit="10" stroke-width="1.5" stroke-dasharray=""/></g><g id="xaxis-fbe31d56"><title>X axis</title><path fill="none" stroke="rgb(0,0,0)" class="dcg-svg-axis-line" paint-order="fill stroke markers" d=" M 0 199.75 L 600 199.75" stroke-opacity="0.9" stroke-miterlimit="10" stroke-width="1.5" stroke-dasharray=""/></g><g><g class="dcg-svg-axis-value"><text fill="none" stroke="#ffffff" font-family="Arial" font-size="14px" font-style="normal" font-weight="normal" text-decoration="normal" x="291.10693359375" y="215.808" text-anchor="middle" stroke-miterlimit="2" stroke-width="3" stroke-dasharray="">0</text><text fill="#000000" stroke="none" font-family="Arial" font-size="14px" font-style="normal" font-weight="normal" text-decoration="normal" x="291.10693359375" y="215.808" text-anchor="middle">0</text></g><g class="dcg-svg-axis-value"><text fill="none" stroke="#ffffff" font-family="Arial" font-size="14px" font-style="normal" font-weight="normal" text-decoration="normal" x="57.6689453125" y="215.808" text-anchor="middle" stroke-miterlimit="2" stroke-width="3" stroke-dasharray="">-2</text><text fill="#000000" stroke="none" font-family="Arial" font-size="14px" font-style="normal" font-weight="normal" text-decoration="normal" x="57.6689453125" y="215.808" text-anchor="middle">-2</text></g><g class="dcg-svg-axis-value"><text fill="none" stroke="#ffffff" font-family="Arial" font-size="14px" font-style="normal" font-weight="normal" text-decoration="normal" x="177.6689453125" y="215.808" text-anchor="middle" stroke-miterlimit="2" stroke-width="3" stroke-dasharray="">-1</text><text fill="#000000" stroke="none" font-family="Arial" font-size="14px" font-style="normal" font-weight="normal" text-decoration="normal" x="177.6689453125" y="215.808" text-anchor="middle">-1</text></g><g class="dcg-svg-axis-value"><text fill="none" stroke="#ffffff" font-family="Arial" font-size="14px" font-style="normal" font-weight="normal" text-decoration="normal" x="420" y="215.808" text-anchor="middle" stroke-miterlimit="2" stroke-width="3" stroke-dasharray="">1</text><text fill="#000000" stroke="none" font-family="Arial" font-size="14px" font-style="normal" font-weight="normal" text-decoration="normal" x="420" y="215.808" text-anchor="middle">1</text></g><g class="dcg-svg-axis-value"><text fill="none" stroke="#ffffff" font-family="Arial" font-size="14px" font-style="normal" font-weight="normal" text-decoration="normal" x="540" y="215.808" text-anchor="middle" stroke-miterlimit="2" stroke-width="3" stroke-dasharray="">2</text><text fill="#000000" stroke="none" font-family="Arial" font-size="14px" font-style="normal" font-weight="normal" text-decoration="normal" x="540" y="215.808" text-anchor="middle">2</text></g><g class="dcg-svg-axis-value dcg-svg-offcenter-axis-value"><text fill="none" stroke="#ffffff" font-family="Arial" font-size="14px" font-style="normal" font-weight="normal" text-decoration="normal" x="288.77587890625" y="393.808" text-anchor="middle" stroke-miterlimit="2" stroke-width="3" stroke-dasharray="">-2</text><text fill="#000000" stroke="none" font-family="Arial" font-size="14px" font-style="normal" font-weight="normal" text-decoration="normal" x="288.77587890625" y="393.808" text-anchor="middle">-2</text></g><g class="dcg-svg-axis-value"><text fill="none" stroke="#ffffff" font-family="Arial" font-size="14px" font-style="normal" font-weight="normal" text-decoration="normal" x="288.77587890625" y="303.808" text-anchor="middle" stroke-miterlimit="2" stroke-width="3" stroke-dasharray="">-1</text><text fill="#000000" stroke="none" font-family="Arial" font-size="14px" font-style="normal" font-weight="normal" text-decoration="normal" x="288.77587890625" y="303.808" text-anchor="middle">-1</text></g><g class="dcg-svg-axis-value"><text fill="none" stroke="#ffffff" font-family="Arial" font-size="14px" font-style="normal" font-weight="normal" text-decoration="normal" x="291.10693359375" y="103.808" text-anchor="middle" stroke-miterlimit="2" stroke-width="3" stroke-dasharray="">1</text><text fill="#000000" stroke="none" font-family="Arial" font-size="14px" font-style="normal" font-weight="normal" text-decoration="normal" x="291.10693359375" y="103.808" text-anchor="middle">1</text></g><g class="dcg-svg-axis-value dcg-svg-offcenter-axis-value"><text fill="none" stroke="#ffffff" font-family="Arial" font-size="14px" font-style="normal" font-weight="normal" text-decoration="normal" x="291.10693359375" y="13.808" text-anchor="middle" stroke-miterlimit="2" stroke-width="3" stroke-dasharray="">2</text><text fill="#000000" stroke="none" font-family="Arial" font-size="14px" font-style="normal" font-weight="normal" text-decoration="normal" x="291.10693359375" y="13.808" text-anchor="middle">2</text></g></g></g></g><g id="expressions-fbe31d56"><g id="sketch-fbe31d56"><title>Expression 1</title><path fill="#2d70b3" stroke="none" paint-order="stroke fill markers" d="" fill-opacity="0.4"/><g><path fill="none" stroke="#2d70b3" class="dcg-svg-curve" paint-order="fill stroke markers" d=" M 51.6437581323444 -5.5 L 51.6437581323444 -5.5 L 58.533203125 14.146283857465846 L 65.857421875 34.12835247487806 L 72.7421875 52.052833877174294 L 79.333984375 68.39583113101958 L 85.779296875 83.57008779817556 L 91.931640625 97.28756289735901 L 97.9375 109.93708229291144 L 103.796875 121.55793112397498 L 109.36328125 131.92878271571186 L 114.783203125 141.39342920967204 L 120.203125 150.22856817758318 L 125.4765625 158.21818005232006 L 130.603515625 165.4114817290216 L 135.583984375 171.8579162155784 L 140.564453125 177.77312934231472 L 145.544921875 183.16072479196677 L 150.37890625 187.8899412848034 L 155.212890625 192.13240509628724 L 160.046875 195.89489133044643 L 164.880859375 199.18526469173096 L 169.421875 201.85411197380085 L 173.81640625 204.05541903664775 L 178.064453125 205.8344372593799 L 182.166015625 207.23417541986151 L 186.267578125 208.32928153166765 L 190.22265625 209.10434799946313 L 194.177734375 209.6113419374111 L 198.1328125 209.85829061106907 L 202.234375 209.84867997237907 L 206.3359375 209.5781501387891 L 210.583984375 209.03367209237445 L 214.978515625 208.19965537305555 L 219.51953125 207.06252389467193 L 224.353515625 205.56132285179999 L 229.48046875 203.6620352235376 L 234.900390625 201.33543662478178 L 240.759765625 198.48317948282073 L 247.205078125 194.9830694532401 L 254.3828125 190.69583509407363 L 262.439453125 185.4767481696557 L 272.107421875 178.77850329642877 L 285.4375 169.06142840106426 L 311.365234375 150.09410342117116 L 321.619140625 143.11266456925983 L 330.115234375 137.74968878188508 L 337.5859375 133.4304022780172 L 344.32421875 129.90542553210355 L 350.623046875 126.9665987741181 L 356.482421875 124.57035680129349 L 362.048828125 122.61745623377755 L 367.322265625 121.07549386140278 L 372.302734375 119.9080317532007 L 377.13671875 119.0542014636456 L 381.82421875 118.49799946827426 L 386.365234375 118.22172440293343 L 390.90625 118.21015630053517 L 395.30078125 118.45616687151846 L 399.6953125 118.9594878729136 L 404.08984375 119.7236901208725 L 408.630859375 120.79047438546479 L 413.171875 122.14124380717828 L 417.859375 123.83509768428786 L 422.693359375 125.90137432676141 L 427.673828125 128.36937153939562 L 432.80078125 131.26802528192144 L 438.220703125 134.72421562641796 L 443.93359375 138.79791361109483 L 449.939453125 143.54877019737995 L 456.091796875 148.90148278045814 L 462.390625 154.87586283930852 L 468.8359375 161.4874811650522 L 475.427734375 168.74694640446018 L 482.3125 176.83643887274368 L 489.63671875 185.97247579570765 L 497.400390625 196.20246582590377 L 505.75 207.76319124357204 L 514.83203125 220.9018826393885 L 525.232421875 236.52715894098708 L 538.416015625 256.94826770723967 L 575.76953125 315.16921893068013 L 585.876953125 330.12261326026095 L 594.51953125 342.35570051208697 L 599.5 349.1242479906082" stroke-linecap="round" stroke-linejoin="round" stroke-miterlimit="10" stroke-width="2.5" stroke-opacity="0.9" stroke-dasharray=""/></g></g><g id="sketch-fbe31d56"><title>Expression 2</title><path fill="#388c46" stroke="none" paint-order="stroke fill markers" d="" fill-opacity="0.4"/><path fill="#388c46" stroke="none" paint-order="stroke fill markers" d="" fill-opacity="0.4"/><path fill="#388c46" stroke="none" class="dcg-svg-region" paint-order="stroke fill markers" d=" M -0.5 -3 L -0.5 199.5 L 165.38245254503454 199.5 L 165.38245254503454 199.5 L 164.880859375 199.18526469173096 L 160.046875 195.89489133044643 L 155.212890625 192.13240509628724 L 150.37890625 187.8899412848034 L 145.544921875 183.16072479196677 L 140.564453125 177.77312934231472 L 135.583984375 171.8579162155784 L 130.603515625 165.4114817290216 L 125.4765625 158.21818005232006 L 120.203125 150.22856817758318 L 114.783203125 141.39342920967204 L 109.36328125 131.92878271571186 L 103.796875 121.55793112397498 L 97.9375 109.93708229291144 L 91.931640625 97.28756289735901 L 85.779296875 83.57008779817556 L 79.333984375 68.39583113101958 L 72.7421875 52.052833877174294 L 65.857421875 34.12835247487806 L 58.533203125 14.146283857465846 L 52.52044364735562 -3 M 238.74766044006782 199.5 L 499.8226666241178 199.5 L 499.8226666241178 199.49999999999994 L 492.2734375 189.3866316362703 L 484.802734375 179.88351020881862 L 477.771484375 171.44424981873158 L 471.033203125 163.852676550318 L 464.587890625 157.0742709136319 L 458.2890625 150.92965506503407 L 452.13671875 145.40469153200831 L 445.984375 140.3666951968803 L 440.271484375 136.1360576528309 L 434.8515625 132.52862441897372 L 429.578125 129.4037273984145 L 424.59765625 126.80442818915435 L 419.763671875 124.61034607848421 L 415.076171875 122.79261205048266 L 410.53515625 121.32224348201458 L 405.994140625 120.13660984267011 L 401.599609375 119.2584273649249 L 397.205078125 118.64245506117402 L 392.810546875 118.28542661434312 L 388.416015625 118.18337507213471 L 383.875 118.34083359131756 L 379.1875 118.7774528336148 L 374.5 119.48521984072681 L 369.666015625 120.49040238534553 L 364.5390625 121.85098002871678 L 359.119140625 123.60477403066352 L 353.40625 125.78624518864643 L 347.400390625 128.4250649919344 L 340.80859375 131.6978469293212 L 333.630859375 135.66673584938349 L 325.57421875 140.561844306453 L 316.345703125 146.64327509715605 L 280.1640625 172.94883523563928 L 268.591796875 181.25957961545944 L 259.509765625 187.41866011029992 L 251.74609375 192.3143897445114 L 244.861328125 196.29690878170925 L 238.74766044006782 199.5" fill-opacity="0.4"/><g><path fill="none" stroke="#388c46" class="dcg-svg-curve" paint-order="fill stroke markers" d=" M -0.5 199.5 L 10.5 199.5 M 17.5 199.5 L 28.5 199.5 M 35.5 199.5 L 46.5 199.5 M 53.5 199.5 L 64.5 199.5 M 71.5 199.5 L 82.5 199.5 M 89.5 199.5 L 100.5 199.5 M 107.5 199.5 L 118.5 199.5 M 125.5 199.5 L 136.5 199.5 M 143.5 199.5 L 154.5 199.5 M 161.5 199.5 L 165.38245254503454 199.5" stroke-linecap="round" stroke-linejoin="round" stroke-miterlimit="10" stroke-width="2.5" stroke-opacity="0.9" stroke-dasharray=""/></g><g><path fill="none" stroke="#388c46" class="dcg-svg-curve" paint-order="fill stroke markers" d=" M 238.74766044006782 199.5 L 249.74766044006782 199.5 M 256.7476604400678 199.5 L 267.7476604400678 199.5 M 274.7476604400678 199.5 L 285.7476604400678 199.5 M 292.7476604400678 199.5 L 303.7476604400678 199.5 M 310.7476604400678 199.5 L 321.7476604400678 199.5 M 328.7476604400678 199.5 L 339.7476604400678 199.5 M 346.7476604400678 199.5 L 357.7476604400678 199.5 M 364.7476604400678 199.5 L 375.7476604400678 199.5 M 382.7476604400678 199.5 L 393.7476604400678 199.5 M 400.7476604400678 199.5 L 411.7476604400678 199.5 M 418.7476604400678 199.5 L 429.7476604400678 199.5 M 436.7476604400678 199.5 L 447.7476604400678 199.5 M 454.7476604400678 199.5 L 465.7476604400678 199.5 M 472.7476604400678 199.5 L 483.7476604400678 199.5 M 490.7476604400678 199.5 L 499.8226666241178 199.5" stroke-linecap="round" stroke-linejoin="round" stroke-miterlimit="10" stroke-width="2.5" stroke-opacity="0.9" stroke-dasharray=""/></g><g><path fill="none" stroke="#388c46" class="dcg-svg-curve" paint-order="fill stroke markers" d=" M 51.6437581323444 -5.5 L 55.28384683264689 4.880257908834935 M 57.60026691465756 11.485876578093528 L 58.533203125 14.146283857465846 M 58.533203125 14.146283857465846 L 61.34860581669368 21.827317383542606 M 63.757651985379354 28.399721552272712 L 65.857421875 34.12835247487806 M 65.857421875 34.12835247487806 L 67.61388194976162 38.70129477368585 M 70.12379264789683 45.23584512450467 L 72.7421875 52.052833877174294 M 72.7421875 52.052833877174294 L 74.12525343298866 55.481859858003034 M 76.74367364184359 61.97369131067185 L 79.333984375 68.39583113101958 M 79.333984375 68.39583113101958 L 80.92715552544928 72.14664817078693 M 83.66379254760174 78.58953710425338 L 85.779296875 83.57008779817556 M 85.779296875 83.57008779817556 L 88.06639158901946 88.66947204325062 M 90.93099667559432 95.05649307797171 L 91.931640625 97.28756289735901 M 91.931640625 97.28756289735901 L 95.60081242533789 105.01555933483607 M 98.6362087639349 111.32282546903974 L 103.58862941801002 121.14491942425573 M 106.8885733225781 127.3181187620726 L 109.36328125 131.92878271571186 M 109.36328125 131.92878271571186 L 112.22920777107038 136.93346396853826 M 115.7560749994841 142.97932996752 L 120.203125 150.22856817758318 M 120.203125 150.22856817758318 L 121.57776657667453 152.31124246063024 M 125.43381161030385 158.15340958410613 L 125.4765625 158.21818005232006 M 125.4765625 158.21818005232006 L 130.603515625 165.4114817290216 M 130.603515625 165.4114817290216 L 131.88067618965653 167.06456546915592 M 136.19116628249276 172.5790552428071 L 140.564453125 177.77312934231472 M 140.564453125 177.77312934231472 L 143.4222772416626 180.86456530541307 M 148.3134011357657 185.8692022640499 L 150.37890625 187.8899412848034 M 150.37890625 187.8899412848034 L 155.212890625 192.13240509628724 M 155.212890625 192.13240509628724 L 156.53767997395693 193.163542415305 M 162.1574570446221 197.33151222073013 L 164.880859375 199.18526469173096 M 164.880859375 199.18526469173096 L 165.38245254503454 199.5" stroke-linecap="round" stroke-linejoin="round" stroke-miterlimit="10" stroke-width="2.5" stroke-opacity="0.9" stroke-dasharray=""/></g><g><path fill="none" stroke="#388c46" class="dcg-svg-curve" paint-order="fill stroke markers" d=" M 238.74766044006782 199.5 L 244.861328125 196.29690878170925 M 244.861328125 196.29690878170925 L 248.40865899302636 194.24494165855035 M 254.4058468661106 190.63716376692216 L 259.509765625 187.41866011029992 M 259.509765625 187.41866011029992 L 263.6198213703002 184.63138009806858 M 269.3979795486151 180.68061104171872 L 278.33264398096225 174.26408772442682 M 284.002123904864 170.15840469250134 L 292.8991986264767 163.68986069883158 M 298.56097344932107 159.57351452104174 L 307.45804817093375 153.104970527372 M 313.11982299377814 148.98862434958215 L 316.345703125 146.64327509715605 M 316.345703125 146.64327509715605 L 322.2004261581252 142.78511476330647 M 328.1034887281464 139.0250932663461 L 333.630859375 135.66673584938349 M 333.630859375 135.66673584938349 L 337.597241908924 133.47354634568032 M 343.79157582180574 130.2168167900006 L 347.400390625 128.4250649919344 M 347.400390625 128.4250649919344 L 353.40625 125.78624518864643 M 353.40625 125.78624518864643 L 353.79007633093113 125.6396808439806 M 360.3518468065448 123.2058913978108 L 364.5390625 121.85098002871678 M 364.5390625 121.85098002871678 L 369.666015625 120.49040238534553 M 369.666015625 120.49040238534553 L 370.93351491383476 120.22683757801134 M 377.81959762199284 118.98399281699689 L 379.1875 118.7774528336148 M 379.1875 118.7774528336148 L 383.875 118.34083359131756 M 383.875 118.34083359131756 L 388.416015625 118.18337507213471 M 388.416015625 118.18337507213471 L 388.7809746077912 118.1918502939315 M 395.7701368160633 118.52587496703471 L 397.205078125 118.64245506117402 M 397.205078125 118.64245506117402 L 401.599609375 119.2584273649249 M 401.599609375 119.2584273649249 L 405.994140625 120.13660984267011 M 405.994140625 120.13660984267011 L 406.6147570521264 120.29864930121762 M 413.33996233975546 122.2304321022694 L 415.076171875 122.79261205048266 M 415.076171875 122.79261205048266 L 419.763671875 124.61034607848421 M 419.763671875 124.61034607848421 L 423.54029622553514 126.32450634120339 M 429.7681357877826 129.5163226732454 L 434.8515625 132.52862441897372 M 434.8515625 132.52862441897372 L 439.08971682464005 135.349487729097 M 444.75607966437605 139.4570904620493 L 445.984375 140.3666951968803 M 445.984375 140.3666951968803 L 452.13671875 145.40469153200831 M 452.13671875 145.40469153200831 L 453.2673904954656 146.4200639519125 M 458.4684880955077 151.10468783873765 L 464.587890625 157.0742709136319 M 464.587890625 157.0742709136319 L 466.2769143679922 158.85058324294025 M 471.0979879265779 163.9256652769103 L 477.771484375 171.44424981873158 M 477.771484375 171.44424981873158 L 478.377605163363 172.17174651716218 M 482.858344219056 177.54975521135253 L 484.802734375 179.88351020881862 M 484.802734375 179.88351020881862 L 489.7236860543879 186.14321569642564 M 493.99282573195035 191.69002000402074 L 499.8226666241178 199.49999999999994" stroke-linecap="round" stroke-linejoin="round" stroke-miterlimit="10" stroke-width="2.5" stroke-opacity="0.9" stroke-dasharray=""/></g></g><g id="sketch-fbe31d56"><title>Expression 3</title><path fill="#6042a6" stroke="none" paint-order="stroke fill markers" d="" fill-opacity="0.4"/><path fill="#6042a6" stroke="none" paint-order="stroke fill markers" d="" fill-opacity="0.4"/><path fill="#6042a6" stroke="none" class="dcg-svg-region" paint-order="stroke fill markers" d=" M 165.38245254503465 199.50000000000006 L 169.861328125 202.09099350187748 L 174.255859375 204.25522649841798 L 178.50390625 205.99921472888448 L 182.60546875 207.3659400600359 L 186.70703125 208.42887954193017 L 190.662109375 209.17377512734612 L 194.6171875 209.65147212832895 L 198.572265625 209.8700379179329 L 202.673828125 209.831999562743 L 206.775390625 209.53410677686196 L 211.0234375 208.96245192212336 L 215.41796875 208.10160911156134 L 219.958984375 206.93817661052148 L 224.79296875 205.4106095358944 L 229.919921875 203.48524727955933 L 235.33984375 201.13325242949827 L 238.7476604400678 199.50000000000006 L 238.7476604400678 199.5 L 165.38245254503465 199.5 M 499.8226666241179 199.50000000000006 L 508.240234375 211.31161594764265 L 517.615234375 225.02926402776828 L 528.6015625 241.69326270091827 L 543.25 264.53775254003733 L 571.521484375 308.7198308576827 L 582.361328125 324.9918198248897 L 591.443359375 338.06827347156155 L 599.5 349.1242479906082 L 599.5 199.5 L 499.8226666241179 199.5" fill-opacity="0.4"/><g><path fill="none" stroke="#6042a6" class="dcg-svg-curve" paint-order="fill stroke markers" d=" M 165.38245254503465 199.50000000000006 L 169.861328125 202.09099350187748 M 169.861328125 202.09099350187748 L 174.255859375 204.25522649841798 M 174.255859375 204.25522649841798 L 175.11352546328075 204.60733173822464 M 181.6678985036571 207.05352229109766 L 182.60546875 207.3659400600359 M 182.60546875 207.3659400600359 L 186.70703125 208.42887954193017 M 186.70703125 208.42887954193017 L 190.662109375 209.17377512734612 M 190.662109375 209.17377512734612 L 192.3995592043313 209.38362548847638 M 199.37737320308037 209.862571259063 L 202.673828125 209.831999562743 M 202.673828125 209.831999562743 L 206.775390625 209.53410677686196 M 206.775390625 209.53410677686196 L 210.33434821880755 209.05518188592396 M 217.1874627129354 207.64825529010804 L 219.958984375 206.93817661052148 M 219.958984375 206.93817661052148 L 224.79296875 205.4106095358944 M 224.79296875 205.4106095358944 L 227.66639107982718 204.33153220370997 M 234.13311970938562 201.6569147247172 L 235.33984375 201.13325242949827 M 235.33984375 201.13325242949827 L 238.7476604400678 199.50000000000006" stroke-linecap="round" stroke-linejoin="round" stroke-miterlimit="10" stroke-width="2.5" stroke-opacity="0.9" stroke-dasharray=""/></g><g><path fill="none" stroke="#6042a6" class="dcg-svg-curve" paint-order="fill stroke markers" d=" M 499.8226666241179 199.50000000000006 L 506.2065904049626 208.45798622238095 M 510.212755073754 214.1978393904449 L 516.4194254990491 223.27953759242052 M 520.3016918301039 229.10406708826073 L 526.3563828654195 238.28778727492082 M 530.1782827753601 244.1521850473867 L 536.1159124839927 253.4120205450164 M 539.8944041167589 259.3046431344171 L 543.25 264.53775254003733 M 543.25 264.53775254003733 L 545.8282115245248 268.56692702500857 M 549.6011096860899 274.4631325389352 L 555.5299496542635 283.7285983465343 M 559.3028478158286 289.62480386046093 L 565.2316877840022 298.89026966806 M 569.0045859455672 304.78647518198665 L 571.521484375 308.7198308576827 M 571.521484375 308.7198308576827 L 575.0310782559532 313.98817920543877 M 578.91195961073 319.8138774391397 L 582.361328125 324.9918198248897 M 582.361328125 324.9918198248897 L 585.0871001151557 328.91642987076114 M 589.0802150548141 334.66578053659094 L 591.443359375 338.06827347156155 M 591.443359375 338.06827347156155 L 595.4818900620136 343.6102722336089" stroke-linecap="round" stroke-linejoin="round" stroke-miterlimit="10" stroke-width="2.5" stroke-opacity="0.9" stroke-dasharray=""/></g><g><path fill="none" stroke="#6042a6" class="dcg-svg-curve" paint-order="fill stroke markers" d=" M 165.38245254503465 199.5 L 176.38245254503465 199.5 M 183.38245254503465 199.5 L 194.38245254503465 199.5 M 201.38245254503465 199.5 L 212.38245254503465 199.5 M 219.38245254503465 199.5 L 230.38245254503465 199.5 M 237.38245254503465 199.5 L 238.7476604400678 199.5" stroke-linecap="round" stroke-linejoin="round" stroke-miterlimit="10" stroke-width="2.5" stroke-opacity="0.9" stroke-dasharray=""/></g><g><path fill="none" stroke="#6042a6" class="dcg-svg-curve" paint-order="fill stroke markers" d=" M 499.8226666241179 199.5 L 510.8226666241179 199.5 M 517.8226666241179 199.5 L 528.8226666241179 199.5 M 535.8226666241179 199.5 L 546.8226666241179 199.5 M 553.8226666241179 199.5 L 564.8226666241179 199.5 M 571.8226666241179 199.5 L 582.8226666241179 199.5 M 589.8226666241179 199.5 L 599.5 199.5" stroke-linecap="round" stroke-linejoin="round" stroke-miterlimit="10" stroke-width="2.5" stroke-opacity="0.9" stroke-dasharray=""/></g></g></g><g id="labels-fbe31d56"/></g></svg>