<svg version="1.1" xmlns="http://www.w3.org/2000/svg" xmlns:xlink="http://www.w3.org/1999/xlink" width="600" height="400"><defs/><g transform="scale(1,1)"><g id="background-57e53e4e"><rect fill="white" stroke="none" x="0" y="0" width="600" height="400" class="dcg-svg-background"/></g><g id="background-images-57e53e4e"/><g id="graphpaper-57e53e4e"><g id="grid-57e53e4e"><g><path fill="none" stroke="rgb(0,0,0)" class="dcg-svg-minor-gridline" paint-order="fill stroke markers" d=" M -0.5 0 L -0.5 400" stroke-opacity="0.12" stroke-miterlimit="10" stroke-dasharray=""/><path fill="none" stroke="rgb(0,0,0)" class="dcg-svg-minor-gridline" paint-order="fill stroke markers" d=" M 29.5 0 L 29.5 400" stroke-opacity="0.12" stroke-miterlimit="10" stroke-dasharray=""/><path fill="none" stroke="rgb(0,0,0)" class="dcg-svg-minor-gridline" paint-order="fill stroke markers" d=" M 59.5 0 L 59.5 400" stroke-opacity="0.12" stroke-miterlimit="10" stroke-dasharray=""/><path fill="none" stroke="rgb(0,0,0)" class="dcg-svg-minor-gridline" paint-order="fill stroke markers" d=" M 89.5 0 L 89.5 400" stroke-opacity="0.12" stroke-miterlimit="10" stroke-dasharray=""/><path fill="none" stroke="rgb(0,0,0)" class="dcg-svg-minor-gridline" paint-order="fill stroke markers" d=" M 119.5 0 L 119.5 400" stroke-opacity="0.12" stroke-miterlimit="10" stroke-dasharray=""/><path fill="none" stroke="rgb(0,0,0)" class="dcg-svg-minor-gridline" paint-order="fill stroke markers" d=" M 149.5 0 L 149.5 400" stroke-opacity="0.12" stroke-miterlimit="10" stroke-dasharray=""/><path fill="none" stroke="rgb(0,0,0)" class="dcg-svg-minor-gridline" paint-order="fill stroke markers" d=" M 179.5 0 L 179.5 400" stroke-opacity="0.12" stroke-miterlimit="10" stroke-dasharray=""/><path fill="none" stroke="rgb(0,0,0)" class="dcg-svg-minor-gridline" paint-order="fill stroke markers" d=" M 209.5 0 L 209.5 400" stroke-opacity="0.12" stroke-miterlimit="10" stroke-dasharray=""/><path fill="none" stroke="rgb(0,0,0)" class="dcg-svg-minor-gridline" paint-order="fill stroke markers" d=" M 239.5 0 L 239.5 400" stroke-opacity="0.12" stroke-miterlimit="10" stroke-dasharray=""/><path fill="none" stroke="rgb(0,0,0)" class="dcg-svg-minor-gridline" paint-order="fill stroke markers" d=" M 269.5 0 L 269.5 400" stroke-opacity="0.12" stroke-miterlimit="10" stroke-dasharray=""/><path fill="none" stroke="rgb(0,0,0)" class="dcg-svg-minor-gridline" paint-order="fill stroke markers" d=" M 329.5 0 L 329.5 400" stroke-opacity="0.12" stroke-miterlimit="10" stroke-dasharray=""/><path fill="none" stroke="rgb(0,0,0)" class="dcg-svg-minor-gridline" paint-order="fill stroke markers" d=" M 359.5 0 L 359.5 400" stroke-opacity="0.12" stroke-miterlimit="10" stroke-dasharray=""/><path fill="none" stroke="rgb(0,0,0)" class="dcg-svg-minor-gridline" paint-order="fill stroke markers" d=" M 389.5 0 L 389.5 400" stroke-opacity="0.12" stroke-miterlimit="10" stroke-dasharray=""/><path fill="none" stroke="rgb(0,0,0)" class="dcg-svg-minor-gridline" paint-order="fill stroke markers" d=" M 419.5 0 L 419.5 400" stroke-opacity="0.12" stroke-miterlimit="10" stroke-dasharray=""/><path fill="none" stroke="rgb(0,0,0)" class="dcg-svg-minor-gridline" paint-order="fill stroke markers" d=" M 449.5 0 L 449.5 400" stroke-opacity="0.12" stroke-miterlimit="10" stroke-dasharray=""/><path fill="none" stroke="rgb(0,0,0)" class="dcg-svg-minor-gridline" paint-order="fill stroke markers" d=" M 479.5 0 L 479.5 400" stroke-opacity="0.12" stroke-miterlimit="10" stroke-dasharray=""/><path fill="none" stroke="rgb(0,0,0)" class="dcg-svg-minor-gridline" paint-order="fill stroke markers" d=" M 509.5 0 L 509.5 400" stroke-opacity="0.12" stroke-miterlimit="10" stroke-dasharray=""/><path fill="none" stroke="rgb(0,0,0)" class="dcg-svg-minor-gridline" paint-order="fill stroke markers" d=" M 539.5 0 L 539.5 400" stroke-opacity="0.12" stroke-miterlimit="10" stroke-dasharray=""/><path fill="none" stroke="rgb(0,0,0)" class="dcg-svg-minor-gridline" paint-order="fill stroke markers" d=" M 569.5 0 L 569.5 400" stroke-opacity="0.12" stroke-miterlimit="10" stroke-dasharray=""/><path fill="none" stroke="rgb(0,0,0)" class="dcg-svg-minor-gridline" paint-order="fill stroke markers" d=" M 0 379.5 L 600 379.5" stroke-opacity="0.12" stroke-miterlimit="10" stroke-dasharray=""/><path fill="none" stroke="rgb(0,0,0)" class="dcg-svg-minor-gridline" paint-order="fill stroke markers" d=" M 0 359.5 L 600 359.5" stroke-opacity="0.12" stroke-miterlimit="10" stroke-dasharray=""/><path fill="none" stroke="rgb(0,0,0)" class="dcg-svg-minor-gridline" paint-order="fill stroke markers" d=" M 0 339.5 L 600 339.5" stroke-opacity="0.12" stroke-miterlimit="10" stroke-dasharray=""/><path fill="none" stroke="rgb(0,0,0)" class="dcg-svg-minor-gridline" paint-order="fill stroke markers" d=" M 0 319.5 L 600 319.5" stroke-opacity="0.12" stroke-miterlimit="10" stroke-dasharray=""/><path fill="none" stroke="rgb(0,0,0)" class="dcg-svg-minor-gridline" paint-order="fill stroke markers" d=" M 0 299.5 L 600 299.5" stroke-opacity="0.12" stroke-miterlimit="10" stroke-dasharray=""/><path fill="none" stroke="rgb(0,0,0)" class="dcg-svg-minor-gridline" paint-order="fill stroke markers" d=" M 0 279.5 L 600 279.5" stroke-opacity="0.12" stroke-miterlimit="10" stroke-dasharray=""/><path fill="none" stroke="rgb(0,0,0)" class="dcg-svg-minor-gridline" paint-order="fill stroke markers" d=" M 0 259.5 L 600 259.5" stroke-opacity="0.12" stroke-miterlimit="10" stroke-dasharray=""/><path fill="none" stroke="rgb(0,0,0)" class="dcg-svg-minor-gridline" paint-order="fill stroke markers" d=" M 0 239.5 L 600 239.5" stroke-opacity="0.12" stroke-miterlimit="10" stroke-dasharray=""/><path fill="none" stroke="rgb(0,0,0)" class="dcg-svg-minor-gridline" paint-order="fill stroke markers" d=" M 0 219.5 L 600 219.5" stroke-opacity="0.12" stroke-miterlimit="10" stroke-dasharray=""/><path fill="none" stroke="rgb(0,0,0)" class="dcg-svg-minor-gridline" paint-order="fill stroke markers" d=" M 0 179.5 L 600 179.5" stroke-opacity="0.12" stroke-miterlimit="10" stroke-dasharray=""/><path fill="none" stroke="rgb(0,0,0)" class="dcg-svg-minor-gridline" paint-order="fill stroke markers" d=" M 0 159.5 L 600 159.5" stroke-opacity="0.12" stroke-miterlimit="10" stroke-dasharray=""/><path fill="none" stroke="rgb(0,0,0)" class="dcg-svg-minor-gridline" paint-order="fill stroke markers" d=" M 0 139.5 L 600 139.5" stroke-opacity="0.12" stroke-miterlimit="10" stroke-dasharray=""/><path fill="none" stroke="rgb(0,0,0)" class="dcg-svg-minor-gridline" paint-order="fill stroke markers" d=" M 0 119.5 L 600 119.5" stroke-opacity="0.12" stroke-miterlimit="10" stroke-dasharray=""/><path fill="none" stroke="rgb(0,0,0)" class="dcg-svg-minor-gridline" paint-order="fill stroke markers" d=" M 0 99.5 L 600 99.5" stroke-opacity="0.12" stroke-miterlimit="10" stroke-dasharray=""/><path fill="none" stroke="rgb(0,0,0)" class="dcg-svg-minor-gridline" paint-order="fill stroke markers" d=" M 0 79.5 L 600 79.5" stroke-opacity="0.12" stroke-miterlimit="10" stroke-dasharray=""/><path fill="none" stroke="rgb(0,0,0)" class="dcg-svg-minor-gridline" paint-order="fill stroke markers" d=" M 0 59.5 L 600 59.5" stroke-opacity="0.12" stroke-miterlimit="10" stroke-dasharray=""/><path fill="none" stroke="rgb(0,0,0)" class="dcg-svg-minor-gridline" paint-order="fill stroke markers" d=" M 0 39.5 L 600 39.5" stroke-opacity="0.12" stroke-miterlimit="10" stroke-dasharray=""/><path fill="none" stroke="rgb(0,0,0)" class="dcg-svg-minor-gridline" paint-order="fill stroke markers" d=" M 0 19.5 L 600 19.5" stroke-opacity="0.12" stroke-miterlimit="10" stroke-dasharray=""/><path fill="none" stroke="rgb(0,0,0)" class="dcg-svg-minor-gridline" paint-order="fill stroke markers" d=" M 0 -0.5 L 600 -0.5" stroke-opacity="0.12" stroke-miterlimit="10" stroke-dasharray=""/><path fill="none" stroke="rgb(0,0,0)" class="dcg-svg-major-gridline" paint-order="fill stroke markers" d=" M -0.5 0 L -0.5 400" stroke-opacity="0.31818181818181823" stroke-miterlimit="10" stroke-dasharray=""/><path fill="none" stroke="rgb(0,0,0)" class="dcg-svg-major-gridline" paint-order="fill stroke markers" d=" M 149.5 0 L 149.5 400" stroke-opacity="0.31818181818181823" stroke-miterlimit="10" stroke-dasharray=""/><path fill="none" stroke="rgb(0,0,0)" class="dcg-svg-major-gridline" paint-order="fill stroke markers" d=" M 449.5 0 L 449.5 400" stroke-opacity="0.31818181818181823" stroke-miterlimit="10" stroke-dasharray=""/><path fill="none" stroke="rgb(0,0,0)" class="dcg-svg-major-gridline" paint-order="fill stroke markers" d=" M 0 299.5 L 600 299.5" stroke-opacity="0.31818181818181823" stroke-miterlimit="10" stroke-dasharray=""/><path fill="none" stroke="rgb(0,0,0)" class="dcg-svg-major-gridline" paint-order="fill stroke markers" d=" M 0 99.5 L 600 99.5" stroke-opacity="0.31818181818181823" stroke-miterlimit="10" stroke-dasharray=""/><path fill="none" stroke="rgb(0,0,0)" class="dcg-svg-major-gridline" paint-order="fill stroke markers" d=" M 0 -0.5 L 600 -0.5" stroke-opacity="0.31818181818181823" stroke-miterlimit="10" stroke-dasharray=""/></g></g><g id="axis-57e53e4e"><g id="yaxis-57e53e4e"><title>Y axis</title><path fill="none" stroke="rgb(0,0,0)" class="dcg-svg-axis-line" paint-order="fill stroke markers" d=" M 299.75 0 L 299.75 400" stroke-opacity="0.9" stroke-miterlimit="10" stroke-width="1.5" stroke-dasharray=""/></g><g id="xaxis-57e53e4e"><title>X axis</title><path fill="none" stroke="rgb(0,0,0)" class="dcg-svg-axis-line" paint-order="fill stroke markers" d=" M 0 199.75 L 600 199.75" stroke-opacity="0.9" stroke-miterlimit="10" stroke-width="1.5" stroke-dasharray=""/></g><g><g class="dcg-svg-axis-value"><text fill="none" stroke="#ffffff" font-family="Arial" font-size="14px" font-style="normal" font-weight="normal" text-decoration="normal" x="291.10693359375" y="215.808" text-anchor="middle" stroke-miterlimit="2" stroke-width="3" stroke-dasharray="">0</text><text fill="#000000" stroke="none" font-family="Arial" font-size="14px" font-style="normal" font-weight="normal" text-decoration="normal" x="291.10693359375" y="215.808" text-anchor="middle">0</text></g><g class="dcg-svg-axis-value dcg-svg-offcenter-axis-value"><text fill="none" stroke="#ffffff" font-family="Arial" font-size="14px" font-style="normal" font-weight="normal" text-decoration="normal" x="13.1171875" y="215.808" text-anchor="middle" stroke-miterlimit="2" stroke-width="3" stroke-dasharray="">-10</text><text fill="#000000" stroke="none" font-family="Arial" font-size="14px" font-style="normal" font-weight="normal" text-decoration="normal" x="13.1171875" y="215.808" text-anchor="middle">-10</text></g><g class="dcg-svg-axis-value"><text fill="none" stroke="#ffffff" font-family="Arial" font-size="14px" font-style="normal" font-weight="normal" text-decoration="normal" x="147.6689453125" y="215.808" text-anchor="middle" stroke-miterlimit="2" stroke-width="3" stroke-dasharray="">-5</text><text fill="#000000" stroke="none" font-family="Arial" font-size="14px" font-style="normal" font-weight="normal" text-decoration="normal" x="147.6689453125" y="215.808" text-anchor="middle">-5</text></g><g class="dcg-svg-axis-value"><text fill="none" stroke="#ffffff" font-family="Arial" font-size="14px" font-style="normal" font-weight="normal" text-decoration="normal" x="450" y="215.808" text-anchor="middle" stroke-miterlimit="2" stroke-width="3" stroke-dasharray="">5</text><text fill="#000000" stroke="none" font-family="Arial" font-size="14px" font-style="normal" font-weight="normal" text-decoration="normal" x="450" y="215.808" text-anchor="middle">5</text></g><g class="dcg-svg-axis-value dcg-svg-offcenter-axis-value"><text fill="none" stroke="#ffffff" font-family="Arial" font-size="14px" font-style="normal" font-weight="normal" text-decoration="normal" x="589.2138671875" y="215.808" text-anchor="middle" stroke-miterlimit="2" stroke-width="3" stroke-dasharray="">10</text><text fill="#000000" stroke="none" font-family="Arial" font-size="14px" font-style="normal" font-weight="normal" text-decoration="normal" x="589.2138671875" y="215.808" text-anchor="middle">10</text></g><g class="dcg-svg-axis-value dcg-svg-offcenter-axis-value"><text fill="none" stroke="#ffffff" font-family="Arial" font-size="14px" font-style="normal" font-weight="normal" text-decoration="normal" x="288.77587890625" y="393.808" text-anchor="middle" stroke-miterlimit="2" stroke-width="3" stroke-dasharray="">-2</text><text fill="#000000" stroke="none" font-family="Arial" font-size="14px" font-style="normal" font-weight="normal" text-decoration="normal" x="288.77587890625" y="393.808" text-anchor="middle">-2</text></g><g class="dcg-svg-axis-value"><text fill="none" stroke="#ffffff" font-family="Arial" font-size="14px" font-style="normal" font-weight="normal" text-decoration="normal" x="288.77587890625" y="303.808" text-anchor="middle" stroke-miterlimit="2" stroke-width="3" stroke-dasharray="">-1</text><text fill="#000000" stroke="none" font-family="Arial" font-size="14px" font-style="normal" font-weight="normal" text-decoration="normal" x="288.77587890625" y="303.808" text-anchor="middle">-1</text></g><g class="dcg-svg-axis-value"><text fill="none" stroke="#ffffff" font-family="Arial" font-size="14px" font-style="normal" font-weight="normal" text-decoration="normal" x="291.10693359375" y="103.808" text-anchor="middle" stroke-miterlimit="2" stroke-width="3" stroke-dasharray="">1</text><text fill="#000000" stroke="none" font-family="Arial" font-size="14px" font-style="normal" font-weight="normal" text-decoration="normal" x="291.10693359375" y="103.808" text-anchor="middle">1</text></g><g class="dcg-svg-axis-value dcg-svg-offcenter-axis-value"><text fill="none" stroke="#ffffff" font-family="Arial" font-size="14px" font-style="normal" font-weight="normal" text-decoration="normal" x="291.10693359375" y="13.808" text-anchor="middle" stroke-miterlimit="2" stroke-width="3" stroke-dasharray="">2</text><text fill="#000000" stroke="none" font-family="Arial" font-size="14px" font-style="normal" font-weight="normal" text-decoration="normal" x="291.10693359375" y="13.808" text-anchor="middle">2</text></g></g></g></g><g id="expressions-57e53e4e"><g id="sketch-57e53e4e"><title>Expression 1</title><path fill="#2d70b3" stroke="none" paint-order="stroke fill markers" d="" fill-opacity="0.4"/><g><path fill="none" stroke="#2d70b3" class="dcg-svg-curve" paint-order="fill stroke markers" d=" M -0.5 145.09788891106305 L -0.5 145.09788891106305 L 2.283203125 153.10503136584364 L 5.359375 162.4163539821982 L 9.021484375 174.00081962622335 L 13.708984375 189.35854228739493 L 25.57421875 228.47049808689 L 29.236328125 239.90946900400598 L 32.3125 249.06021360829595 L 35.095703125 256.8933663196483 L 37.5859375 263.4854723554926 L 39.9296875 269.2880720352352 L 42.126953125 274.34198877277214 L 44.177734375 278.69742421572107 L 46.228515625 282.6829138634627 L 48.1328125 286.03617225925535 L 49.890625 288.82239835411644 L 51.6484375 291.3020480583608 L 53.40625 293.46661060570455 L 55.017578125 295.16763286619005 L 56.62890625 296.5927332821093 L 58.240234375 297.73780161969074 L 59.8515625 298.59953530565656 L 61.462890625 299.17544895240974 L 63.07421875 299.4638815263179 L 64.5390625 299.4759099994443 L 66.00390625 299.24962468284707 L 67.615234375 298.7261191035685 L 69.2265625 297.9164283957157 L 70.837890625 296.8228878460199 L 72.44921875 295.44865141279 L 74.060546875 293.79768262935676 L 75.671875 291.87474317256306 L 77.4296875 289.47334717952316 L 79.1875 286.76314057975674 L 81.091796875 283.4894129721523 L 82.99609375 279.8773826234492 L 85.046875 275.62588218065474 L 87.09765625 271.0187836827712 L 89.294921875 265.71248368267334 L 91.638671875 259.6618386509515 L 94.275390625 252.41809604443984 L 97.05859375 244.3299063481873 L 100.28125 234.48768979273586 L 104.08984375 222.3451251265484 L 109.216796875 205.45528728684764 L 118.884765625 173.53328686764382 L 122.693359375 161.51532540107527 L 125.916015625 151.81632194927727 L 128.845703125 143.4732471928109 L 131.482421875 136.41879035977126 L 133.826171875 130.55536864489835 L 136.0234375 125.43975077602062 L 138.07421875 121.02293879306706 L 140.125 116.97270765666542 L 142.029296875 113.55658327508752 L 143.93359375 110.48663220784226 L 145.69140625 107.97080339310054 L 147.44921875 105.76912524212105 L 149.060546875 104.03336641052306 L 150.671875 102.57294970713878 L 152.283203125 101.39208722396359 L 153.89453125 100.49418477072436 L 155.505859375 99.88183205193968 L 157.1171875 99.55679519776919 L 158.58203125 99.51143557594395 L 160.046875 99.70441990834786 L 161.658203125 100.19142397822304 L 163.26953125 100.96485099655246 L 164.880859375 102.0224702672989 L 166.4921875 103.36123143527635 L 168.103515625 104.97727328389749 L 169.71484375 106.86593487158348 L 171.47265625 109.23079319599339 L 173.23046875 111.90547758996422 L 174.98828125 114.88080788029566 L 176.892578125 118.4314845098686 L 178.943359375 122.62003183572858 L 180.994140625 127.16769969157673 L 183.19140625 132.41454791579991 L 185.53515625 138.40694442619508 L 188.025390625 145.18135141509612 L 190.80859375 153.1931426181658 L 193.884765625 162.50872022091747 L 197.546875 174.0969831474159 L 202.380859375 189.94340321983194 L 213.953125 228.0981119467576 L 217.615234375 239.55348284330316 L 220.837890625 249.14655596122813 L 223.62109375 256.97476791412794 L 226.111328125 263.56185842765336 L 228.455078125 269.3592564316721 L 230.65234375 274.407901569437 L 232.703125 278.7580973889409 L 234.75390625 282.7380639976398 L 236.658203125 286.08596261607835 L 238.416015625 288.86706271466255 L 240.173828125 291.3414331235841 L 241.931640625 293.5005811963962 L 243.54296875 295.19653730188554 L 245.154296875 296.6164881974638 L 246.765625 297.75633850145823 L 248.376953125 298.61280069029397 L 249.98828125 299.183404580275 L 251.599609375 299.4665044520171 L 253.064453125 299.4736780443959 L 254.529296875 299.2425431673894 L 256.140625 298.71372301240604 L 257.751953125 297.89875348129925 L 259.36328125 296.79998508583094 L 260.974609375 295.42058686231314 L 262.5859375 293.7645372315639 L 264.197265625 291.8366125244605 L 265.955078125 289.42990399158725 L 267.712890625 286.7145339596693 L 269.6171875 283.43540143870496 L 271.521484375 279.81818373084525 L 273.572265625 275.5613641467985 L 275.623046875 270.94924788331434 L 277.8203125 265.63793273941644 L 280.1640625 259.5823794462372 L 282.80078125 252.3336958314183 L 285.583984375 244.2409981697479 L 288.806640625 234.39451939092407 L 292.615234375 222.24830541955407 L 297.888671875 204.86851164259048 L 307.263671875 173.9089874173526 L 311.21875 161.423359100761 L 314.44140625 151.72894031785944 L 317.37109375 143.39090921894774 L 320.0078125 136.3416640477348 L 322.3515625 130.48337611810717 L 324.548828125 125.37297067162837 L 326.599609375 120.96134726970865 L 328.650390625 116.91659241972155 L 330.5546875 113.5057884346678 L 332.458984375 110.44136236156373 L 334.216796875 107.93079590365869 L 335.974609375 105.73451742503744 L 337.5859375 104.00381309999176 L 339.197265625 102.54853613997079 L 340.80859375 101.37288381306973 L 342.419921875 100.4802469020317 L 344.03125 99.87319992464973 L 345.642578125 99.553493708416 L 347.107421875 99.51298878902219 L 348.572265625 99.71082412144466 L 350.18359375 100.20314621508822 L 351.794921875 100.98185744824661 L 353.40625 102.04471188430136 L 355.017578125 103.38864406895289 L 356.62890625 105.00977787151578 L 358.240234375 106.9034376643437 L 359.998046875 109.27362472495821 L 361.755859375 111.95349084681538 L 363.66015625 115.19545032987685 L 365.564453125 118.77698189983863 L 367.615234375 122.99719785392193 L 369.666015625 127.57477252586483 L 371.86328125 132.851550157463 L 374.20703125 138.87328492775822 L 376.84375 146.08790143932333 L 379.626953125 154.14948827509252 L 382.849609375 163.96650846714067 L 386.658203125 176.0874260904985 L 391.78515625 192.9625876919889 L 401.74609375 225.8463181712298 L 405.5546875 237.8481996707042 L 408.77734375 247.52901381910888 L 411.560546875 255.44805153619154 L 414.197265625 262.5074800543228 L 416.541015625 268.37580016602067 L 418.73828125 273.49639223670465 L 420.7890625 277.9181562933412 L 422.83984375 281.9736146591562 L 424.744140625 285.3948179490419 L 426.6484375 288.4700436766369 L 428.40625 290.9908967912427 L 430.1640625 293.1977306964521 L 431.775390625 294.9383160088207 L 433.38671875 296.40364086573015 L 434.998046875 297.5894790192291 L 436.609375 298.4924103089053 L 438.220703125 299.10983052621384 L 439.83203125 299.43995892546144 L 441.296875 299.48995573523564 L 442.76171875 299.3016052742954 L 444.373046875 298.81968145018897 L 445.984375 298.05130264766996 L 447.595703125 296.9986850028564 L 449.20703125 295.66486444538793 L 450.818359375 294.0536879422848 L 452.4296875 292.1698024026357 L 454.1875 289.8100362904568 L 455.9453125 287.14030397190015 L 457.703125 284.1697686234278 L 459.607421875 280.62409011988285 L 461.658203125 276.44067449217204 L 463.708984375 271.89785476400385 L 465.90625 266.6558605854873 L 468.25 260.66822499992315 L 470.740234375 253.89837342851064 L 473.5234375 245.89102255761958 L 476.599609375 236.57950913664016 L 480.26171875 224.9948731433437 L 484.94921875 209.6370262134946 L 496.814453125 170.52523851163375 L 500.4765625 159.08645646956765 L 503.552734375 149.93591752538114 L 506.3359375 142.10298597601235 L 508.826171875 135.51110447755048 L 511.169921875 129.70873769087598 L 513.3671875 124.65505699458413 L 515.41796875 120.2998561752355 L 517.46875 116.3146138548903 L 519.373046875 112.9615954863495 L 521.130859375 110.17559895820875 L 522.888671875 107.69618569440024 L 524.646484375 105.53186564968638 L 526.2578125 103.83107029821082 L 527.869140625 102.4062005315975 L 529.48046875 101.26136591838593 L 531.091796875 100.3998683577529 L 532.703125 99.82419255626934 L 534.314453125 99.53599886158116 L 535.779296875 99.52418786889092 L 537.244140625 99.75069043263437 L 538.85546875 100.2744340963111 L 540.466796875 101.08436129303885 L 542.078125 102.17813605401199 L 543.689453125 103.55260374541598 L 545.30078125 105.20380016693213 L 546.912109375 107.12696298517017 L 548.669921875 109.5285970111355 L 550.427734375 112.23903497088787 L 552.33203125 115.51300476786423 L 554.236328125 119.12526756747269 L 556.287109375 123.37700637805074 L 558.337890625 127.98432975072666 L 560.53515625 133.29085452296158 L 562.87890625 139.34171955463364 L 565.515625 146.5856836532733 L 568.298828125 154.67407546079917 L 571.521484375 164.51648315629623 L 575.330078125 176.6592115547266 L 580.45703125 193.54915926818464 L 590.125 225.47101476579314 L 593.93359375 237.4887951523967 L 597.15625 247.18759343317748 L 599.5 253.90211108893698" stroke-linecap="round" stroke-linejoin="round" stroke-miterlimit="10" stroke-width="2.5" stroke-opacity="0.9" stroke-dasharray=""/></g></g></g><g id="labels-57e53e4e"/></g></svg>