<svg version="1.1" xmlns="http://www.w3.org/2000/svg" xmlns:xlink="http://www.w3.org/1999/xlink" width="600" height="400"><defs/><g transform="scale(1,1)"><g id="background-0fcb60d0"><rect fill="white" stroke="none" x="0" y="0" width="600" height="400" class="dcg-svg-background"/></g><g id="background-images-0fcb60d0"/><g id="graphpaper-0fcb60d0"><g id="grid-0fcb60d0"><g><path fill="none" stroke="rgb(0,0,0)" class="dcg-svg-minor-gridline" paint-order="fill stroke markers" d=" M -0.5 0 L -0.5 400" stroke-opacity="0.12" stroke-miterlimit="10" stroke-dasharray=""/><path fill="none" stroke="rgb(0,0,0)" class="dcg-svg-minor-gridline" paint-order="fill stroke markers" d=" M 29.5 0 L 29.5 400" stroke-opacity="0.12" stroke-miterlimit="10" stroke-dasharray=""/><path fill="none" stroke="rgb(0,0,0)" class="dcg-svg-minor-gridline" paint-order="fill stroke markers" d=" M 59.5 0 L 59.5 400" stroke-opacity="0.12" stroke-miterlimit="10" stroke-dasharray=""/><path fill="none" stroke="rgb(0,0,0)" class="dcg-svg-minor-gridline" paint-order="fill stroke markers" d=" M 89.5 0 L 89.5 400" stroke-opacity="0.12" stroke-miterlimit="10" stroke-dasharray=""/><path fill="none" stroke="rgb(0,0,0)" class="dcg-svg-minor-gridline" paint-order="fill stroke markers" d=" M 119.5 0 L 119.5 400" stroke-opacity="0.12" stroke-miterlimit="10" stroke-dasharray=""/><path fill="none" stroke="rgb(0,0,0)" class="dcg-svg-minor-gridline" paint-order="fill stroke markers" d=" M 149.5 0 L 149.5 400" stroke-opacity="0.12" stroke-miterlimit="10" stroke-dasharray=""/><path fill="none" stroke="rgb(0,0,0)" class="dcg-svg-minor-gridline" paint-order="fill stroke markers" d=" M 179.5 0 L 179.5 400" stroke-opacity="0.12" stroke-miterlimit="10" stroke-dasharray=""/><path fill="none" stroke="rgb(0,0,0)" class="dcg-svg-minor-gridline" paint-order="fill stroke markers" d=" M 209.5 0 L 209.5 400" stroke-opacity="0.12" stroke-miterlimit="10" stroke-dasharray=""/><path fill="none" stroke="rgb(0,0,0)" class="dcg-svg-minor-gridline" paint-order="fill stroke markers" d=" M 239.5 0 L 239.5 400" stroke-opacity="0.12" stroke-miterlimit="10" stroke-dasharray=""/><path fill="none" stroke="rgb(0,0,0)" class="dcg-svg-minor-gridline" paint-order="fill stroke markers" d=" M 269.5 0 L 269.5 400" stroke-opacity="0.12" stroke-miterlimit="10" stroke-dasharray=""/><path fill="none" stroke="rgb(0,0,0)" class="dcg-svg-minor-gridline" paint-order="fill stroke markers" d=" M 329.5 0 L 329.5 400" stroke-opacity="0.12" stroke-miterlimit="10" stroke-dasharray=""/><path fill="none" stroke="rgb(0,0,0)" class="dcg-svg-minor-gridline" paint-order="fill stroke markers" d=" M 359.5 0 L 359.5 400" stroke-opacity="0.12" stroke-miterlimit="10" stroke-dasharray=""/><path fill="none" stroke="rgb(0,0,0)" class="dcg-svg-minor-gridline" paint-order="fill stroke markers" d=" M 389.5 0 L 389.5 400" stroke-opacity="0.12" stroke-miterlimit="10" stroke-dasharray=""/><path fill="none" stroke="rgb(0,0,0)" class="dcg-svg-minor-gridline" paint-order="fill stroke markers" d=" M 419.5 0 L 419.5 400" stroke-opacity="0.12" stroke-miterlimit="10" stroke-dasharray=""/><path fill="none" stroke="rgb(0,0,0)" class="dcg-svg-minor-gridline" paint-order="fill stroke markers" d=" M 449.5 0 L 449.5 400" stroke-opacity="0.12" stroke-miterlimit="10" stroke-dasharray=""/><path fill="none" stroke="rgb(0,0,0)" class="dcg-svg-minor-gridline" paint-order="fill stroke markers" d=" M 479.5 0 L 479.5 400" stroke-opacity="0.12" stroke-miterlimit="10" stroke-dasharray=""/><path fill="none" stroke="rgb(0,0,0)" class="dcg-svg-minor-gridline" paint-order="fill stroke markers" d=" M 509.5 0 L 509.5 400" stroke-opacity="0.12" stroke-miterlimit="10" stroke-dasharray=""/><path fill="none" stroke="rgb(0,0,0)" class="dcg-svg-minor-gridline" paint-order="fill stroke markers" d=" M 539.5 0 L 539.5 400" stroke-opacity="0.12" stroke-miterlimit="10" stroke-dasharray=""/><path fill="none" stroke="rgb(0,0,0)" class="dcg-svg-minor-gridline" paint-order="fill stroke markers" d=" M 569.5 0 L 569.5 400" stroke-opacity="0.12" stroke-miterlimit="10" stroke-dasharray=""/><path fill="none" stroke="rgb(0,0,0)" class="dcg-svg-minor-gridline" paint-order="fill stroke markers" d=" M 0 370.5 L 600 370.5" stroke-opacity="0.12" stroke-miterlimit="10" stroke-dasharray=""/><path fill="none" stroke="rgb(0,0,0)" class="dcg-svg-minor-gridline" paint-order="fill stroke markers" d=" M 0 342.5 L 600 342.5" stroke-opacity="0.12" stroke-miterlimit="10" stroke-dasharray=""/><path fill="none" stroke="rgb(0,0,0)" class="dcg-svg-minor-gridline" paint-order="fill stroke markers" d=" M 0 313.5 L 600 313.5" stroke-opacity="0.12" stroke-miterlimit="10" stroke-dasharray=""/><path fill="none" stroke="rgb(0,0,0)" class="dcg-svg-minor-gridline" paint-order="fill stroke markers" d=" M 0 285.5 L 600 285.5" stroke-opacity="0.12" stroke-miterlimit="10" stroke-dasharray=""/><path fill="none" stroke="rgb(0,0,0)" class="dcg-svg-minor-gridline" paint-order="fill stroke markers" d=" M 0 256.5 L 600 256.5" stroke-opacity="0.12" stroke-miterlimit="10" stroke-dasharray=""/><path fill="none" stroke="rgb(0,0,0)" class="dcg-svg-minor-gridline" paint-order="fill stroke markers" d=" M 0 228.5 L 600 228.5" stroke-opacity="0.12" stroke-miterlimit="10" stroke-dasharray=""/><path fill="none" stroke="rgb(0,0,0)" class="dcg-svg-minor-gridline" paint-order="fill stroke markers" d=" M 0 170.5 L 600 170.5" stroke-opacity="0.12" stroke-miterlimit="10" stroke-dasharray=""/><path fill="none" stroke="rgb(0,0,0)" class="dcg-svg-minor-gridline" paint-order="fill stroke markers" d=" M 0 142.5 L 600 142.5" stroke-opacity="0.12" stroke-miterlimit="10" stroke-dasharray=""/><path fill="none" stroke="rgb(0,0,0)" class="dcg-svg-minor-gridline" paint-order="fill stroke markers" d=" M 0 113.5 L 600 113.5" stroke-opacity="0.12" stroke-miterlimit="10" stroke-dasharray=""/><path fill="none" stroke="rgb(0,0,0)" class="dcg-svg-minor-gridline" paint-order="fill stroke markers" d=" M 0 85.5 L 600 85.5" stroke-opacity="0.12" stroke-miterlimit="10" stroke-dasharray=""/><path fill="none" stroke="rgb(0,0,0)" class="dcg-svg-minor-gridline" paint-order="fill stroke markers" d=" M 0 56.5 L 600 56.5" stroke-opacity="0.12" stroke-miterlimit="10" stroke-dasharray=""/><path fill="none" stroke="rgb(0,0,0)" class="dcg-svg-minor-gridline" paint-order="fill stroke markers" d=" M 0 28.5 L 600 28.5" stroke-opacity="0.12" stroke-miterlimit="10" stroke-dasharray=""/><path fill="none" stroke="rgb(0,0,0)" class="dcg-svg-minor-gridline" paint-order="fill stroke markers" d=" M 0 -0.5 L 600 -0.5" stroke-opacity="0.12" stroke-miterlimit="10" stroke-dasharray=""/><path fill="none" stroke="rgb(0,0,0)" class="dcg-svg-major-gridline" paint-order="fill stroke markers" d=" M -0.5 0 L -0.5 400" stroke-opacity="0.31818181818181823" stroke-miterlimit="10" stroke-dasharray=""/><path fill="none" stroke="rgb(0,0,0)" class="dcg-svg-major-gridline" paint-order="fill stroke markers" d=" M 149.5 0 L 149.5 400" stroke-opacity="0.31818181818181823" stroke-miterlimit="10" stroke-dasharray=""/><path fill="none" stroke="rgb(0,0,0)" class="dcg-svg-major-gridline" paint-order="fill stroke markers" d=" M 449.5 0 L 449.5 400" stroke-opacity="0.31818181818181823" stroke-miterlimit="10" stroke-dasharray=""/><path fill="none" stroke="rgb(0,0,0)" class="dcg-svg-major-gridline" paint-order="fill stroke markers" d=" M 0 342.5 L 600 342.5" stroke-opacity="0.31818181818181823" stroke-miterlimit="10" stroke-dasharray=""/><path fill="none" stroke="rgb(0,0,0)" class="dcg-svg-major-gridline" paint-order="fill stroke markers" d=" M 0 56.5 L 600 56.5" stroke-opacity="0.31818181818181823" stroke-miterlimit="10" stroke-dasharray=""/></g></g><g id="axis-0fcb60d0"><g id="yaxis-0fcb60d0"><title>Y axis</title><path fill="none" stroke="rgb(0,0,0)" class="dcg-svg-axis-line" paint-order="fill stroke markers" d=" M 299.75 0 L 299.75 400" stroke-opacity="0.9" stroke-miterlimit="10" stroke-width="1.5" stroke-dasharray=""/></g><g id="xaxis-0fcb60d0"><title>X axis</title><path fill="none" stroke="rgb(0,0,0)" class="dcg-svg-axis-line" paint-order="fill stroke markers" d=" M 0 199.75 L 600 199.75" stroke-opacity="0.9" stroke-miterlimit="10" stroke-width="1.5" stroke-dasharray=""/></g><g><g class="dcg-svg-axis-value"><text fill="none" stroke="#ffffff" font-family="Arial" font-size="14px" font-style="normal" font-weight="normal" text-decoration="normal" x="291.10693359375" y="215.808" text-anchor="middle" stroke-miterlimit="2" stroke-width="3" stroke-dasharray="">0</text><text fill="#000000" stroke="none" font-family="Arial" font-size="14px" font-style="normal" font-weight="normal" text-decoration="normal" x="291.10693359375" y="215.808" text-anchor="middle">0</text></g><g class="dcg-svg-axis-value dcg-svg-offcenter-axis-value"><text fill="none" stroke="#ffffff" font-family="Arial" font-size="14px" font-style="normal" font-weight="normal" text-decoration="normal" x="13.1171875" y="215.808" text-anchor="middle" stroke-miterlimit="2" stroke-width="3" stroke-dasharray="">-10</text><text fill="#000000" stroke="none" font-family="Arial" font-size="14px" font-style="normal" font-weight="normal" text-decoration="normal" x="13.1171875" y="215.808" text-anchor="middle">-10</text></g><g class="dcg-svg-axis-value"><text fill="none" stroke="#ffffff" font-family="Arial" font-size="14px" font-style="normal" font-weight="normal" text-decoration="normal" x="147.6689453125" y="215.808" text-anchor="middle" stroke-miterlimit="2" stroke-width="3" stroke-dasharray="">-5</text><text fill="#000000" stroke="none" font-family="Arial" font-size="14px" font-style="normal" font-weight="normal" text-decoration="normal" x="147.6689453125" y="215.808" text-anchor="middle">-5</text></g><g class="dcg-svg-axis-value"><text fill="none" stroke="#ffffff" font-family="Arial" font-size="14px" font-style="normal" font-weight="normal" text-decoration="normal" x="450" y="215.808" text-anchor="middle" stroke-miterlimit="2" stroke-width="3" stroke-dasharray="">5</text><text fill="#000000" stroke="none" font-family="Arial" font-size="14px" font-style="normal" font-weight="normal" text-decoration="normal" x="450" y="215.808" text-anchor="middle">5</text></g><g class="dcg-svg-axis-value dcg-svg-offcenter-axis-value"><text fill="none" stroke="#ffffff" font-family="Arial" font-size="14px" font-style="normal" font-weight="normal" text-decoration="normal" x="589.2138671875" y="215.808" text-anchor="middle" stroke-miterlimit="2" stroke-width="3" stroke-dasharray="">10</text><text fill="#000000" stroke="none" font-family="Arial" font-size="14px" font-style="normal" font-weight="normal" text-decoration="normal" x="589.2138671875" y="215.808" text-anchor="middle">10</text></g><g class="dcg-svg-axis-value"><text fill="none" stroke="#ffffff" font-family="Arial" font-size="14px" font-style="normal" font-weight="normal" text-decoration="normal" x="288.77587890625" y="346.6651428571428" text-anchor="middle" stroke-miterlimit="2" stroke-width="3" stroke-dasharray="">-5</text><text fill="#000000" stroke="none" font-family="Arial" font-size="14px" font-style="normal" font-weight="normal" text-decoration="normal" x="288.77587890625" y="346.6651428571428" text-anchor="middle">-5</text></g><g class="dcg-svg-axis-value"><text fill="none" stroke="#ffffff" font-family="Arial" font-size="14px" font-style="normal" font-weight="normal" text-decoration="normal" x="291.10693359375" y="60.95085714285717" text-anchor="middle" stroke-miterlimit="2" stroke-width="3" stroke-dasharray="">5</text><text fill="#000000" stroke="none" font-family="Arial" font-size="14px" font-style="normal" font-weight="normal" text-decoration="normal" x="291.10693359375" y="60.95085714285717" text-anchor="middle">5</text></g></g></g></g><g id="expressions-0fcb60d0"><g id="sketch-0fcb60d0"><title>Expression 1</title><path fill="#2d70b3" stroke="none" paint-order="stroke fill markers" d="" fill-opacity="0.4"/><g><path fill="none" stroke="#2d70b3" class="dcg-svg-curve" paint-order="fill stroke markers" d=" M -0.5 318.1050229743238 L -0.5 318.1050229743238 L 1.84375 307.74191878914627 L 4.48046875 294.63183274253686 L 7.41015625 278.4294538407978 L 10.6328125 258.858472671864 L 14.294921875 234.75544076293414 L 18.8359375 202.76163652036433 L 25.28125 154.97034822321083 L 35.828125 76.75412919845041 L 40.515625 44.27669489829964 L 44.470703125 18.844445707984505 L 47.986328125 -1.8772242993286454 L 48.66344122041933 -5.5 L 103.05586871963467 -5.5 L 106.43359375 10.659047010586448 L 111.560546875 36.73954508965113 L 129.87109375 131.32989683551784 L 134.119140625 150.98716134574758 L 137.78125 166.60886293283977 L 141.150390625 179.72686796018178 L 144.2265625 190.54853083012546 L 147.15625 199.75934233700016 L 149.79296875 207.09412276864916 L 152.283203125 213.1670381487172 L 154.626953125 218.11249801527927 L 156.970703125 222.30632079824207 L 159.16796875 225.55655466053983 L 161.21875 228.0001995764696 L 163.26953125 229.88256189212882 L 165.02734375 231.05779509573046 L 166.638671875 231.7877210622203 L 168.25 232.19365668669266 L 169.71484375 232.28920436003818 L 171.1796875 232.132119528338 L 172.791015625 231.67740910388392 L 174.40234375 230.93888136329443 L 176.306640625 229.717609068877 L 178.357421875 228.0047377785767 L 180.701171875 225.5797055758931 L 183.337890625 222.31205573416244 L 186.267578125 218.09446472524695 L 189.63671875 212.60793126619916 L 193.591796875 205.50435312574908 L 199.158203125 194.77313028659947 L 209.265625 175.21397240998937 L 213.66015625 167.4819773978225 L 217.322265625 161.68660908327212 L 220.544921875 157.18486442883489 L 223.62109375 153.48072323963405 L 226.55078125 150.53868883256843 L 229.1875 148.40721954409676 L 231.53125 146.9371770115661 L 233.728515625 145.9282004255783 L 235.779296875 145.31051713088684 L 237.68359375 145.0159921248485 L 239.587890625 144.98706566695503 L 241.4921875 145.21877880679705 L 243.54296875 145.75195808768177 L 245.59375 146.56869595362434 L 247.791015625 147.7435113387272 L 250.28125 149.42632640696615 L 253.064453125 151.71121550473575 L 256.287109375 154.82570791191156 L 260.2421875 159.21244072736195 L 265.076171875 165.17367548274513 L 280.45703125 184.59585959845515 L 284.265625 188.5900487942391 L 287.634765625 191.58919267423633 L 290.41796875 193.61824981189554 L 292.908203125 195.04873243527462 L 295.10546875 195.9849762506381 L 297.15625 196.56759789948362 L 299.060546875 196.84673910581066 L 300.96484375 196.86635951821435 L 302.869140625 196.62115564022744 L 304.7734375 196.10771010631393 L 306.82421875 195.2531174829801 L 308.875 194.08641301206848 L 311.21875 192.37527062662497 L 313.708984375 190.12583523894855 L 316.4921875 187.1063195806765 L 319.568359375 183.1857202106733 L 322.791015625 178.48023545649315 L 326.453125 172.48817631797306 L 330.701171875 164.85186494256425 L 336.4140625 153.84221235453953 L 346.521484375 134.29464538851835 L 350.623046875 127.12724018700823 L 353.9921875 121.87940706578138 L 356.921875 117.91669375786148 L 359.55859375 114.91456560230279 L 362.048828125 112.63472735866173 L 364.099609375 111.20199479854625 L 366.00390625 110.2582231415575 L 367.615234375 109.76671311167422 L 369.2265625 109.56942418776748 L 370.69140625 109.65471623326897 L 372.15625 109.99994403898023 L 373.62109375 110.61203306728225 L 375.232421875 111.60093026055375 L 376.990234375 113.06494593428454 L 379.041015625 115.29095321789583 L 381.091796875 118.0836348850367 L 383.2890625 121.7115231221157 L 385.486328125 126.00015742408334 L 387.830078125 131.30141699780796 L 390.3203125 137.74760858599916 L 392.95703125 145.4684839585009 L 395.740234375 154.5857419004896 L 398.81640625 165.7637160996266 L 402.0390625 178.6298763470791 L 405.701171875 194.54612942782856 L 409.802734375 213.77621121356003 L 414.63671875 237.92311370054458 L 421.814453125 275.4973870566337 L 431.189453125 324.3322697614209 L 435.876953125 347.1457190908808 L 439.685546875 364.2667948679532 L 443.0546875 378.05308140098697 L 445.984375 388.81686440089976 L 448.62109375 397.4067054612667 L 450.96484375 404.08792605802154 L 451.54051178793515 405.5 L 476.4147282574607 405.5 L 478.064453125 400.77741005505186 L 480.26171875 393.4767559030391 L 482.60546875 384.56563740612035 L 485.095703125 373.8701405448143 L 487.732421875 361.2304479446712 L 490.662109375 345.69784986926845 L 493.884765625 326.95363254237486 L 497.546875 303.7913099096042 L 501.6484375 275.89310922090147 L 506.775390625 238.88572829667802 L 525.232421875 103.52447718222186 L 529.1875 77.85822294264221 L 532.556640625 57.902349944319326 L 535.486328125 42.248001599881775 L 538.123046875 29.6873439917336 L 540.466796875 19.854321766185762 L 542.6640625 11.858233134365719 L 544.71484375 5.524311056095655 L 546.47265625 1.0025038919604299 L 548.083984375 -2.3804436347285787 L 549.548828125 -4.805680919880615 L 550.1164433963288 -5.5 L 558.4377377265072 -5.5 L 558.77734375 -5.09053754961792 L 560.095703125 -2.9468971015492116 L 561.560546875 0.08661419422492145 L 563.171875 4.216226857176309 L 564.9296875 9.666240210378533 L 566.833984375 16.676416896520266 L 568.884765625 25.498283826101158 L 571.08203125 36.39013205800535 L 573.42578125 49.61051158750513 L 575.916015625 65.41003334398465 L 578.69921875 85.10997482795807 L 581.62890625 108.03594545008445 L 584.8515625 135.6393834880626 L 588.513671875 169.7061880110919 L 592.615234375 210.73803485118114 L 597.595703125 263.6712687206658 L 599.5 284.5473237550265" stroke-linecap="round" stroke-linejoin="round" stroke-miterlimit="10" stroke-width="2.5" stroke-opacity="0.9" stroke-dasharray=""/></g></g></g><g id="labels-0fcb60d0"/></g></svg>