<svg version="1.1" xmlns="http://www.w3.org/2000/svg" xmlns:xlink="http://www.w3.org/1999/xlink" width="600" height="400"><defs/><g transform="scale(1,1)"><g id="background-71b290f2"><rect fill="white" stroke="none" x="0" y="0" width="600" height="400" class="dcg-svg-background"/></g><g id="background-images-71b290f2"/><g id="graphpaper-71b290f2"><g id="grid-71b290f2"><g><path fill="none" stroke="rgb(0,0,0)" class="dcg-svg-minor-gridline" paint-order="fill stroke markers" d=" M -0.5 0 L -0.5 400" stroke-opacity="0.12" stroke-miterlimit="10" stroke-dasharray=""/><path fill="none" stroke="rgb(0,0,0)" class="dcg-svg-minor-gridline" paint-order="fill stroke markers" d=" M 29.5 0 L 29.5 400" stroke-opacity="0.12" stroke-miterlimit="10" stroke-dasharray=""/><path fill="none" stroke="rgb(0,0,0)" class="dcg-svg-minor-gridline" paint-order="fill stroke markers" d=" M 59.5 0 L 59.5 400" stroke-opacity="0.12" stroke-miterlimit="10" stroke-dasharray=""/><path fill="none" stroke="rgb(0,0,0)" class="dcg-svg-minor-gridline" paint-order="fill stroke markers" d=" M 89.5 0 L 89.5 400" stroke-opacity="0.12" stroke-miterlimit="10" stroke-dasharray=""/><path fill="none" stroke="rgb(0,0,0)" class="dcg-svg-minor-gridline" paint-order="fill stroke markers" d=" M 119.5 0 L 119.5 400" stroke-opacity="0.12" stroke-miterlimit="10" stroke-dasharray=""/><path fill="none" stroke="rgb(0,0,0)" class="dcg-svg-minor-gridline" paint-order="fill stroke markers" d=" M 149.5 0 L 149.5 400" stroke-opacity="0.12" stroke-miterlimit="10" stroke-dasharray=""/><path fill="none" stroke="rgb(0,0,0)" class="dcg-svg-minor-gridline" paint-order="fill stroke markers" d=" M 179.5 0 L 179.5 400" stroke-opacity="0.12" stroke-miterlimit="10" stroke-dasharray=""/><path fill="none" stroke="rgb(0,0,0)" class="dcg-svg-minor-gridline" paint-order="fill stroke markers" d=" M 209.5 0 L 209.5 400" stroke-opacity="0.12" stroke-miterlimit="10" stroke-dasharray=""/><path fill="none" stroke="rgb(0,0,0)" class="dcg-svg-minor-gridline" paint-order="fill stroke markers" d=" M 239.5 0 L 239.5 400" stroke-opacity="0.12" stroke-miterlimit="10" stroke-dasharray=""/><path fill="none" stroke="rgb(0,0,0)" class="dcg-svg-minor-gridline" paint-order="fill stroke markers" d=" M 269.5 0 L 269.5 400" stroke-opacity="0.12" stroke-miterlimit="10" stroke-dasharray=""/><path fill="none" stroke="rgb(0,0,0)" class="dcg-svg-minor-gridline" paint-order="fill stroke markers" d=" M 329.5 0 L 329.5 400" stroke-opacity="0.12" stroke-miterlimit="10" stroke-dasharray=""/><path fill="none" stroke="rgb(0,0,0)" class="dcg-svg-minor-gridline" paint-order="fill stroke markers" d=" M 359.5 0 L 359.5 400" stroke-opacity="0.12" stroke-miterlimit="10" stroke-dasharray=""/><path fill="none" stroke="rgb(0,0,0)" class="dcg-svg-minor-gridline" paint-order="fill stroke markers" d=" M 389.5 0 L 389.5 400" stroke-opacity="0.12" stroke-miterlimit="10" stroke-dasharray=""/><path fill="none" stroke="rgb(0,0,0)" class="dcg-svg-minor-gridline" paint-order="fill stroke markers" d=" M 419.5 0 L 419.5 400" stroke-opacity="0.12" stroke-miterlimit="10" stroke-dasharray=""/><path fill="none" stroke="rgb(0,0,0)" class="dcg-svg-minor-gridline" paint-order="fill stroke markers" d=" M 449.5 0 L 449.5 400" stroke-opacity="0.12" stroke-miterlimit="10" stroke-dasharray=""/><path fill="none" stroke="rgb(0,0,0)" class="dcg-svg-minor-gridline" paint-order="fill stroke markers" d=" M 479.5 0 L 479.5 400" stroke-opacity="0.12" stroke-miterlimit="10" stroke-dasharray=""/><path fill="none" stroke="rgb(0,0,0)" class="dcg-svg-minor-gridline" paint-order="fill stroke markers" d=" M 509.5 0 L 509.5 400" stroke-opacity="0.12" stroke-miterlimit="10" stroke-dasharray=""/><path fill="none" stroke="rgb(0,0,0)" class="dcg-svg-minor-gridline" paint-order="fill stroke markers" d=" M 539.5 0 L 539.5 400" stroke-opacity="0.12" stroke-miterlimit="10" stroke-dasharray=""/><path fill="none" stroke="rgb(0,0,0)" class="dcg-svg-minor-gridline" paint-order="fill stroke markers" d=" M 569.5 0 L 569.5 400" stroke-opacity="0.12" stroke-miterlimit="10" stroke-dasharray=""/><path fill="none" stroke="rgb(0,0,0)" class="dcg-svg-minor-gridline" paint-order="fill stroke markers" d=" M 0 370.5 L 600 370.5" stroke-opacity="0.12" stroke-miterlimit="10" stroke-dasharray=""/><path fill="none" stroke="rgb(0,0,0)" class="dcg-svg-minor-gridline" paint-order="fill stroke markers" d=" M 0 342.5 L 600 342.5" stroke-opacity="0.12" stroke-miterlimit="10" stroke-dasharray=""/><path fill="none" stroke="rgb(0,0,0)" class="dcg-svg-minor-gridline" paint-order="fill stroke markers" d=" M 0 313.5 L 600 313.5" stroke-opacity="0.12" stroke-miterlimit="10" stroke-dasharray=""/><path fill="none" stroke="rgb(0,0,0)" class="dcg-svg-minor-gridline" paint-order="fill stroke markers" d=" M 0 285.5 L 600 285.5" stroke-opacity="0.12" stroke-miterlimit="10" stroke-dasharray=""/><path fill="none" stroke="rgb(0,0,0)" class="dcg-svg-minor-gridline" paint-order="fill stroke markers" d=" M 0 256.5 L 600 256.5" stroke-opacity="0.12" stroke-miterlimit="10" stroke-dasharray=""/><path fill="none" stroke="rgb(0,0,0)" class="dcg-svg-minor-gridline" paint-order="fill stroke markers" d=" M 0 228.5 L 600 228.5" stroke-opacity="0.12" stroke-miterlimit="10" stroke-dasharray=""/><path fill="none" stroke="rgb(0,0,0)" class="dcg-svg-minor-gridline" paint-order="fill stroke markers" d=" M 0 170.5 L 600 170.5" stroke-opacity="0.12" stroke-miterlimit="10" stroke-dasharray=""/><path fill="none" stroke="rgb(0,0,0)" class="dcg-svg-minor-gridline" paint-order="fill stroke markers" d=" M 0 142.5 L 600 142.5" stroke-opacity="0.12" stroke-miterlimit="10" stroke-dasharray=""/><path fill="none" stroke="rgb(0,0,0)" class="dcg-svg-minor-gridline" paint-order="fill stroke markers" d=" M 0 113.5 L 600 113.5" stroke-opacity="0.12" stroke-miterlimit="10" stroke-dasharray=""/><path fill="none" stroke="rgb(0,0,0)" class="dcg-svg-minor-gridline" paint-order="fill stroke markers" d=" M 0 85.5 L 600 85.5" stroke-opacity="0.12" stroke-miterlimit="10" stroke-dasharray=""/><path fill="none" stroke="rgb(0,0,0)" class="dcg-svg-minor-gridline" paint-order="fill stroke markers" d=" M 0 56.5 L 600 56.5" stroke-opacity="0.12" stroke-miterlimit="10" stroke-dasharray=""/><path fill="none" stroke="rgb(0,0,0)" class="dcg-svg-minor-gridline" paint-order="fill stroke markers" d=" M 0 28.5 L 600 28.5" stroke-opacity="0.12" stroke-miterlimit="10" stroke-dasharray=""/><path fill="none" stroke="rgb(0,0,0)" class="dcg-svg-minor-gridline" paint-order="fill stroke markers" d=" M 0 -0.5 L 600 -0.5" stroke-opacity="0.12" stroke-miterlimit="10" stroke-dasharray=""/><path fill="none" stroke="rgb(0,0,0)" class="dcg-svg-major-gridline" paint-order="fill stroke markers" d=" M -0.5 0 L -0.5 400" stroke-opacity="0.31818181818181823" stroke-miterlimit="10" stroke-dasharray=""/><path fill="none" stroke="rgb(0,0,0)" class="dcg-svg-major-gridline" paint-order="fill stroke markers" d=" M 149.5 0 L 149.5 400" stroke-opacity="0.31818181818181823" stroke-miterlimit="10" stroke-dasharray=""/><path fill="none" stroke="rgb(0,0,0)" class="dcg-svg-major-gridline" paint-order="fill stroke markers" d=" M 449.5 0 L 449.5 400" stroke-opacity="0.31818181818181823" stroke-miterlimit="10" stroke-dasharray=""/><path fill="none" stroke="rgb(0,0,0)" class="dcg-svg-major-gridline" paint-order="fill stroke markers" d=" M 0 342.5 L 600 342.5" stroke-opacity="0.31818181818181823" stroke-miterlimit="10" stroke-dasharray=""/><path fill="none" stroke="rgb(0,0,0)" class="dcg-svg-major-gridline" paint-order="fill stroke markers" d=" M 0 56.5 L 600 56.5" stroke-opacity="0.31818181818181823" stroke-miterlimit="10" stroke-dasharray=""/></g></g><g id="axis-71b290f2"><g id="yaxis-71b290f2"><title>Y axis</title><path fill="none" stroke="rgb(0,0,0)" class="dcg-svg-axis-line" paint-order="fill stroke markers" d=" M 299.75 0 L 299.75 400" stroke-opacity="0.9" stroke-miterlimit="10" stroke-width="1.5" stroke-dasharray=""/></g><g id="xaxis-71b290f2"><title>X axis</title><path fill="none" stroke="rgb(0,0,0)" class="dcg-svg-axis-line" paint-order="fill stroke markers" d=" M 0 199.75 L 600 199.75" stroke-opacity="0.9" stroke-miterlimit="10" stroke-width="1.5" stroke-dasharray=""/></g><g><g class="dcg-svg-axis-value"><text fill="none" stroke="#ffffff" font-family="Arial" font-size="14px" font-style="normal" font-weight="normal" text-decoration="normal" x="291.10693359375" y="215.808" text-anchor="middle" stroke-miterlimit="2" stroke-width="3" stroke-dasharray="">0</text><text fill="#000000" stroke="none" font-family="Arial" font-size="14px" font-style="normal" font-weight="normal" text-decoration="normal" x="291.10693359375" y="215.808" text-anchor="middle">0</text></g><g class="dcg-svg-axis-value dcg-svg-offcenter-axis-value"><text fill="none" stroke="#ffffff" font-family="Arial" font-size="14px" font-style="normal" font-weight="normal" text-decoration="normal" x="13.1171875" y="215.808" text-anchor="middle" stroke-miterlimit="2" stroke-width="3" stroke-dasharray="">-10</text><text fill="#000000" stroke="none" font-family="Arial" font-size="14px" font-style="normal" font-weight="normal" text-decoration="normal" x="13.1171875" y="215.808" text-anchor="middle">-10</text></g><g class="dcg-svg-axis-value"><text fill="none" stroke="#ffffff" font-family="Arial" font-size="14px" font-style="normal" font-weight="normal" text-decoration="normal" x="147.6689453125" y="215.808" text-anchor="middle" stroke-miterlimit="2" stroke-width="3" stroke-dasharray="">-5</text><text fill="#000000" stroke="none" font-family="Arial" font-size="14px" font-style="normal" font-weight="normal" text-decoration="normal" x="147.6689453125" y="215.808" text-anchor="middle">-5</text></g><g class="dcg-svg-axis-value"><text fill="none" stroke="#ffffff" font-family="Arial" font-size="14px" font-style="normal" font-weight="normal" text-decoration="normal" x="450" y="215.808" text-anchor="middle" stroke-miterlimit="2" stroke-width="3" stroke-dasharray="">5</text><text fill="#000000" stroke="none" font-family="Arial" font-size="14px" font-style="normal" font-weight="normal" text-decoration="normal" x="450" y="215.808" text-anchor="middle">5</text></g><g class="dcg-svg-axis-value dcg-svg-offcenter-axis-value"><text fill="none" stroke="#ffffff" font-family="Arial" font-size="14px" font-style="normal" font-weight="normal" text-decoration="normal" x="589.2138671875" y="215.808" text-anchor="middle" stroke-miterlimit="2" stroke-width="3" stroke-dasharray="">10</text><text fill="#000000" stroke="none" font-family="Arial" font-size="14px" font-style="normal" font-weight="normal" text-decoration="normal" x="589.2138671875" y="215.808" text-anchor="middle">10</text></g><g class="dcg-svg-axis-value"><text fill="none" stroke="#ffffff" font-family="Arial" font-size="14px" font-style="normal" font-weight="normal" text-decoration="normal" x="288.77587890625" y="346.6651428571428" text-anchor="middle" stroke-miterlimit="2" stroke-width="3" stroke-dasharray="">-5</text><text fill="#000000" stroke="none" font-family="Arial" font-size="14px" font-style="normal" font-weight="normal" text-decoration="normal" x="288.77587890625" y="346.6651428571428" text-anchor="middle">-5</text></g><g class="dcg-svg-axis-value"><text fill="none" stroke="#ffffff" font-family="Arial" font-size="14px" font-style="normal" font-weight="normal" text-decoration="normal" x="291.10693359375" y="60.95085714285717" text-anchor="middle" stroke-miterlimit="2" stroke-width="3" stroke-dasharray="">5</text><text fill="#000000" stroke="none" font-family="Arial" font-size="14px" font-style="normal" font-weight="normal" text-decoration="normal" x="291.10693359375" y="60.95085714285717" text-anchor="middle">5</text></g></g></g></g><g id="expressions-71b290f2"><g id="sketch-71b290f2"><title>Expression 1</title><path fill="#2d70b3" stroke="none" paint-order="stroke fill markers" d="" fill-opacity="0.4"/><g><path fill="none" stroke="#2d70b3" class="dcg-svg-curve" paint-order="fill stroke markers" d=" M -0.5 313.45798847370895 L -0.5 313.45798847370895 L 1.697265625 323.27999295679604 L 3.748046875 331.0851648217872 L 5.65234375 337.1402239487367 L 7.41015625 341.702855852734 L 9.021484375 345.0170706190923 L 10.486328125 347.3098482180287 L 11.8046875 348.78885478641837 L 12.9765625 349.6410232094232 L 14.001953125 350.0318062152158 L 14.880859375 350.10492891526553 L 15.759765625 349.93809591969057 L 16.78515625 349.4426774520688 L 17.95703125 348.48394110908396 L 19.275390625 346.91154204496877 L 20.740234375 344.5616189274579 L 22.3515625 341.25952232259544 L 23.962890625 337.2255475520917 L 25.720703125 332.0160893650453 L 27.771484375 324.91254079081216 L 29.96875 316.1344385539586 L 32.3125 305.51998926192505 L 34.94921875 292.1503554734327 L 37.87890625 275.6903727675794 L 41.248046875 254.93697336543312 L 45.056640625 229.5318003559446 L 49.744140625 196.15329226613275 L 57.068359375 141.52027780069295 L 65.564453125 78.64152968688285 L 70.3984375 45.0604309615951 L 74.353515625 19.56748995715475 L 77.869140625 -1.2181571132411477 L 78.66639752220806 -5.5 L 133.0565907076109 -5.5 L 136.462890625 10.80384817443769 L 141.58984375 36.89200837487749 L 159.900390625 131.47041090461937 L 164.1484375 151.1173152901989 L 167.810546875 166.7283215684653 L 171.1796875 179.83527789056652 L 174.255859375 190.6460273674688 L 177.185546875 199.8458718888949 L 179.822265625 207.17042871003326 L 182.3125 213.23348299985773 L 184.65625 218.16956301191846 L 186.853515625 222.11448326795193 L 189.05078125 225.39978005678321 L 191.1015625 227.87577530781513 L 193.15234375 229.78993508392705 L 195.056640625 231.07400746551187 L 196.66796875 231.79796744170517 L 198.279296875 232.1980936831258 L 199.744140625 232.28851202049412 L 201.208984375 232.1264566081206 L 202.8203125 231.6664772836301 L 204.431640625 230.92290448234846 L 206.3359375 229.69597891352493 L 208.38671875 227.9774185377016 L 210.876953125 225.3789489785133 L 213.513671875 222.07552443512256 L 216.443359375 217.8238504068072 L 219.8125 212.30577092531328 L 223.9140625 204.9013952167666 L 229.7734375 193.56126180228205 L 239.1484375 175.42960961831957 L 243.54296875 167.67806319533733 L 247.205078125 161.86141821391038 L 250.427734375 157.33780734465395 L 253.50390625 153.61055875148398 L 256.43359375 150.64494054391778 L 259.0703125 148.4912964440189 L 261.4140625 147.0010588953413 L 263.611328125 145.972946961638 L 265.662109375 145.33739581335058 L 267.56640625 145.026406602512 L 269.470703125 144.98125968262943 L 271.375 145.19711134122338 L 273.279296875 145.66727062750803 L 275.330078125 146.4482374625737 L 277.52734375 147.58674065643532 L 280.017578125 149.2313316410751 L 282.80078125 151.4777114571409 L 286.0234375 154.55387573862686 L 289.83203125 158.73320506457313 L 294.51953125 164.4635622703472 L 311.21875 185.43933802116493 L 315.02734375 189.31591015927555 L 318.25 192.07468539098787 L 321.033203125 194.00678118164012 L 323.5234375 195.34253812894272 L 325.720703125 196.18987222963483 L 327.771484375 196.6857605499222 L 329.67578125 196.881749747445 L 331.580078125 196.81630148415385 L 333.484375 196.4847163624715 L 335.388671875 195.88419589550486 L 337.439453125 194.93577737276695 L 339.63671875 193.57416135410037 L 341.98046875 191.73375300455095 L 344.6171875 189.19789613055855 L 347.546875 185.82875179346325 L 350.623046875 181.70974086977324 L 353.9921875 176.58481125710352 L 357.80078125 170.1354632392501 L 362.341796875 161.75410204031454 L 369.8125 147.1416701408029 L 376.404296875 134.50937240696794 L 380.505859375 127.3212881874174 L 383.875 122.05031932811141 L 386.8046875 118.06311521988926 L 389.44140625 115.03561664813111 L 391.931640625 112.72907697182205 L 394.12890625 111.18459447824455 L 396.033203125 110.24672979383729 L 397.64453125 109.76046501029504 L 399.255859375 109.56863083664871 L 400.720703125 109.65904917401707 L 402.185546875 110.00954870764161 L 403.650390625 110.62704065430069 L 405.26171875 111.62201481892811 L 407.01953125 113.09279619463979 L 409.0703125 115.32684031763034 L 411.12109375 118.12766964097011 L 413.318359375 121.76435652569 L 415.515625 126.06180210718497 L 417.859375 131.37240505764777 L 420.349609375 137.82837837524437 L 422.986328125 145.55934742434383 L 425.76953125 154.68684774922696 L 428.845703125 165.8755001548538 L 432.068359375 178.75194737653737 L 435.73046875 194.6785421551007 L 439.83203125 213.91820358940015 L 444.8125 238.824553940214 L 452.13671875 277.20356621993596 L 461.072265625 323.74254671906505 L 465.759765625 346.59654929595615 L 469.568359375 363.7627570250503 L 472.9375 377.5977114500249 L 475.8671875 388.4101329642924 L 478.50390625 397.0484554729004 L 480.994140625 404.1654694690638 L 481.5393716497636 405.5 L 506.4161617750364 405.5 L 508.09375 400.6868982196634 L 510.291015625 393.3724570969789 L 512.634765625 384.44706223982814 L 515.125 373.7369991040532 L 517.76171875 361.08269597913494 L 520.69140625 345.5350161600494 L 523.9140625 326.775827852008 L 527.576171875 303.5988417833394 L 531.677734375 275.68755795884556 L 536.8046875 238.66934643690698 L 555.26171875 103.32671462774078 L 559.216796875 77.67655423523075 L 562.5859375 57.73758314150069 L 565.515625 42.10018981984325 L 568.15234375 29.55647447622414 L 570.49609375 19.739757185386054 L 572.693359375 11.759937422160078 L 574.744140625 5.4419863924513265 L 576.501953125 0.9344194989689072 L 578.11328125 -2.4350695347184796 L 579.578125 -4.847768100661597 L 580.1151691982725 -5.5 L 588.4353944474224 -5.5 L 588.806640625 -5.048928626313284 L 590.125 -2.892953389426566 L 591.58984375 0.15428700440884313 L 593.201171875 4.298990602633694 L 594.958984375 9.765400574156274 L 596.86328125 16.79319380890695 L 598.9140625 25.633775559871424 L 599.5 28.399154383433824" stroke-linecap="round" stroke-linejoin="round" stroke-miterlimit="10" stroke-width="2.5" stroke-opacity="0.9" stroke-dasharray=""/></g></g></g><g id="labels-71b290f2"/></g></svg>