<svg version="1.1" xmlns="http://www.w3.org/2000/svg" xmlns:xlink="http://www.w3.org/1999/xlink" width="600" height="400"><defs/><g transform="scale(1,1)"><g id="background-e05ffeed"><rect fill="white" stroke="none" x="0" y="0" width="600" height="400" class="dcg-svg-background"/></g><g id="background-images-e05ffeed"/><g id="graphpaper-e05ffeed"><g id="grid-e05ffeed"><g><path fill="none" stroke="rgb(0,0,0)" class="dcg-svg-minor-gridline" paint-order="fill stroke markers" d=" M -0.5 0 L -0.5 400" stroke-opacity="0.12" stroke-miterlimit="10" stroke-dasharray=""/><path fill="none" stroke="rgb(0,0,0)" class="dcg-svg-minor-gridline" paint-order="fill stroke markers" d=" M 29.5 0 L 29.5 400" stroke-opacity="0.12" stroke-miterlimit="10" stroke-dasharray=""/><path fill="none" stroke="rgb(0,0,0)" class="dcg-svg-minor-gridline" paint-order="fill stroke markers" d=" M 59.5 0 L 59.5 400" stroke-opacity="0.12" stroke-miterlimit="10" stroke-dasharray=""/><path fill="none" stroke="rgb(0,0,0)" class="dcg-svg-minor-gridline" paint-order="fill stroke markers" d=" M 89.5 0 L 89.5 400" stroke-opacity="0.12" stroke-miterlimit="10" stroke-dasharray=""/><path fill="none" stroke="rgb(0,0,0)" class="dcg-svg-minor-gridline" paint-order="fill stroke markers" d=" M 119.5 0 L 119.5 400" stroke-opacity="0.12" stroke-miterlimit="10" stroke-dasharray=""/><path fill="none" stroke="rgb(0,0,0)" class="dcg-svg-minor-gridline" paint-order="fill stroke markers" d=" M 149.5 0 L 149.5 400" stroke-opacity="0.12" stroke-miterlimit="10" stroke-dasharray=""/><path fill="none" stroke="rgb(0,0,0)" class="dcg-svg-minor-gridline" paint-order="fill stroke markers" d=" M 179.5 0 L 179.5 400" stroke-opacity="0.12" stroke-miterlimit="10" stroke-dasharray=""/><path fill="none" stroke="rgb(0,0,0)" class="dcg-svg-minor-gridline" paint-order="fill stroke markers" d=" M 209.5 0 L 209.5 400" stroke-opacity="0.12" stroke-miterlimit="10" stroke-dasharray=""/><path fill="none" stroke="rgb(0,0,0)" class="dcg-svg-minor-gridline" paint-order="fill stroke markers" d=" M 239.5 0 L 239.5 400" stroke-opacity="0.12" stroke-miterlimit="10" stroke-dasharray=""/><path fill="none" stroke="rgb(0,0,0)" class="dcg-svg-minor-gridline" paint-order="fill stroke markers" d=" M 269.5 0 L 269.5 400" stroke-opacity="0.12" stroke-miterlimit="10" stroke-dasharray=""/><path fill="none" stroke="rgb(0,0,0)" class="dcg-svg-minor-gridline" paint-order="fill stroke markers" d=" M 329.5 0 L 329.5 400" stroke-opacity="0.12" stroke-miterlimit="10" stroke-dasharray=""/><path fill="none" stroke="rgb(0,0,0)" class="dcg-svg-minor-gridline" paint-order="fill stroke markers" d=" M 359.5 0 L 359.5 400" stroke-opacity="0.12" stroke-miterlimit="10" stroke-dasharray=""/><path fill="none" stroke="rgb(0,0,0)" class="dcg-svg-minor-gridline" paint-order="fill stroke markers" d=" M 389.5 0 L 389.5 400" stroke-opacity="0.12" stroke-miterlimit="10" stroke-dasharray=""/><path fill="none" stroke="rgb(0,0,0)" class="dcg-svg-minor-gridline" paint-order="fill stroke markers" d=" M 419.5 0 L 419.5 400" stroke-opacity="0.12" stroke-miterlimit="10" stroke-dasharray=""/><path fill="none" stroke="rgb(0,0,0)" class="dcg-svg-minor-gridline" paint-order="fill stroke markers" d=" M 449.5 0 L 449.5 400" stroke-opacity="0.12" stroke-miterlimit="10" stroke-dasharray=""/><path fill="none" stroke="rgb(0,0,0)" class="dcg-svg-minor-gridline" paint-order="fill stroke markers" d=" M 479.5 0 L 479.5 400" stroke-opacity="0.12" stroke-miterlimit="10" stroke-dasharray=""/><path fill="none" stroke="rgb(0,0,0)" class="dcg-svg-minor-gridline" paint-order="fill stroke markers" d=" M 509.5 0 L 509.5 400" stroke-opacity="0.12" stroke-miterlimit="10" stroke-dasharray=""/><path fill="none" stroke="rgb(0,0,0)" class="dcg-svg-minor-gridline" paint-order="fill stroke markers" d=" M 539.5 0 L 539.5 400" stroke-opacity="0.12" stroke-miterlimit="10" stroke-dasharray=""/><path fill="none" stroke="rgb(0,0,0)" class="dcg-svg-minor-gridline" paint-order="fill stroke markers" d=" M 569.5 0 L 569.5 400" stroke-opacity="0.12" stroke-miterlimit="10" stroke-dasharray=""/><path fill="none" stroke="rgb(0,0,0)" class="dcg-svg-minor-gridline" paint-order="fill stroke markers" d=" M 0 370.5 L 600 370.5" stroke-opacity="0.12" stroke-miterlimit="10" stroke-dasharray=""/><path fill="none" stroke="rgb(0,0,0)" class="dcg-svg-minor-gridline" paint-order="fill stroke markers" d=" M 0 342.5 L 600 342.5" stroke-opacity="0.12" stroke-miterlimit="10" stroke-dasharray=""/><path fill="none" stroke="rgb(0,0,0)" class="dcg-svg-minor-gridline" paint-order="fill stroke markers" d=" M 0 313.5 L 600 313.5" stroke-opacity="0.12" stroke-miterlimit="10" stroke-dasharray=""/><path fill="none" stroke="rgb(0,0,0)" class="dcg-svg-minor-gridline" paint-order="fill stroke markers" d=" M 0 285.5 L 600 285.5" stroke-opacity="0.12" stroke-miterlimit="10" stroke-dasharray=""/><path fill="none" stroke="rgb(0,0,0)" class="dcg-svg-minor-gridline" paint-order="fill stroke markers" d=" M 0 256.5 L 600 256.5" stroke-opacity="0.12" stroke-miterlimit="10" stroke-dasharray=""/><path fill="none" stroke="rgb(0,0,0)" class="dcg-svg-minor-gridline" paint-order="fill stroke markers" d=" M 0 228.5 L 600 228.5" stroke-opacity="0.12" stroke-miterlimit="10" stroke-dasharray=""/><path fill="none" stroke="rgb(0,0,0)" class="dcg-svg-minor-gridline" paint-order="fill stroke markers" d=" M 0 170.5 L 600 170.5" stroke-opacity="0.12" stroke-miterlimit="10" stroke-dasharray=""/><path fill="none" stroke="rgb(0,0,0)" class="dcg-svg-minor-gridline" paint-order="fill stroke markers" d=" M 0 142.5 L 600 142.5" stroke-opacity="0.12" stroke-miterlimit="10" stroke-dasharray=""/><path fill="none" stroke="rgb(0,0,0)" class="dcg-svg-minor-gridline" paint-order="fill stroke markers" d=" M 0 113.5 L 600 113.5" stroke-opacity="0.12" stroke-miterlimit="10" stroke-dasharray=""/><path fill="none" stroke="rgb(0,0,0)" class="dcg-svg-minor-gridline" paint-order="fill stroke markers" d=" M 0 85.5 L 600 85.5" stroke-opacity="0.12" stroke-miterlimit="10" stroke-dasharray=""/><path fill="none" stroke="rgb(0,0,0)" class="dcg-svg-minor-gridline" paint-order="fill stroke markers" d=" M 0 56.5 L 600 56.5" stroke-opacity="0.12" stroke-miterlimit="10" stroke-dasharray=""/><path fill="none" stroke="rgb(0,0,0)" class="dcg-svg-minor-gridline" paint-order="fill stroke markers" d=" M 0 28.5 L 600 28.5" stroke-opacity="0.12" stroke-miterlimit="10" stroke-dasharray=""/><path fill="none" stroke="rgb(0,0,0)" class="dcg-svg-minor-gridline" paint-order="fill stroke markers" d=" M 0 -0.5 L 600 -0.5" stroke-opacity="0.12" stroke-miterlimit="10" stroke-dasharray=""/><path fill="none" stroke="rgb(0,0,0)" class="dcg-svg-major-gridline" paint-order="fill stroke markers" d=" M -0.5 0 L -0.5 400" stroke-opacity="0.31818181818181823" stroke-miterlimit="10" stroke-dasharray=""/><path fill="none" stroke="rgb(0,0,0)" class="dcg-svg-major-gridline" paint-order="fill stroke markers" d=" M 149.5 0 L 149.5 400" stroke-opacity="0.31818181818181823" stroke-miterlimit="10" stroke-dasharray=""/><path fill="none" stroke="rgb(0,0,0)" class="dcg-svg-major-gridline" paint-order="fill stroke markers" d=" M 449.5 0 L 449.5 400" stroke-opacity="0.31818181818181823" stroke-miterlimit="10" stroke-dasharray=""/><path fill="none" stroke="rgb(0,0,0)" class="dcg-svg-major-gridline" paint-order="fill stroke markers" d=" M 0 342.5 L 600 342.5" stroke-opacity="0.31818181818181823" stroke-miterlimit="10" stroke-dasharray=""/><path fill="none" stroke="rgb(0,0,0)" class="dcg-svg-major-gridline" paint-order="fill stroke markers" d=" M 0 56.5 L 600 56.5" stroke-opacity="0.31818181818181823" stroke-miterlimit="10" stroke-dasharray=""/></g></g><g id="axis-e05ffeed"><g id="yaxis-e05ffeed"><title>Y axis</title><path fill="none" stroke="rgb(0,0,0)" class="dcg-svg-axis-line" paint-order="fill stroke markers" d=" M 299.75 0 L 299.75 400" stroke-opacity="0.9" stroke-miterlimit="10" stroke-width="1.5" stroke-dasharray=""/></g><g id="xaxis-e05ffeed"><title>X axis</title><path fill="none" stroke="rgb(0,0,0)" class="dcg-svg-axis-line" paint-order="fill stroke markers" d=" M 0 199.75 L 600 199.75" stroke-opacity="0.9" stroke-miterlimit="10" stroke-width="1.5" stroke-dasharray=""/></g><g><g class="dcg-svg-axis-value"><text fill="none" stroke="#ffffff" font-family="Arial" font-size="14px" font-style="normal" font-weight="normal" text-decoration="normal" x="291.10693359375" y="215.808" text-anchor="middle" stroke-miterlimit="2" stroke-width="3" stroke-dasharray="">0</text><text fill="#000000" stroke="none" font-family="Arial" font-size="14px" font-style="normal" font-weight="normal" text-decoration="normal" x="291.10693359375" y="215.808" text-anchor="middle">0</text></g><g class="dcg-svg-axis-value dcg-svg-offcenter-axis-value"><text fill="none" stroke="#ffffff" font-family="Arial" font-size="14px" font-style="normal" font-weight="normal" text-decoration="normal" x="13.1171875" y="215.808" text-anchor="middle" stroke-miterlimit="2" stroke-width="3" stroke-dasharray="">-10</text><text fill="#000000" stroke="none" font-family="Arial" font-size="14px" font-style="normal" font-weight="normal" text-decoration="normal" x="13.1171875" y="215.808" text-anchor="middle">-10</text></g><g class="dcg-svg-axis-value"><text fill="none" stroke="#ffffff" font-family="Arial" font-size="14px" font-style="normal" font-weight="normal" text-decoration="normal" x="147.6689453125" y="215.808" text-anchor="middle" stroke-miterlimit="2" stroke-width="3" stroke-dasharray="">-5</text><text fill="#000000" stroke="none" font-family="Arial" font-size="14px" font-style="normal" font-weight="normal" text-decoration="normal" x="147.6689453125" y="215.808" text-anchor="middle">-5</text></g><g class="dcg-svg-axis-value"><text fill="none" stroke="#ffffff" font-family="Arial" font-size="14px" font-style="normal" font-weight="normal" text-decoration="normal" x="450" y="215.808" text-anchor="middle" stroke-miterlimit="2" stroke-width="3" stroke-dasharray="">5</text><text fill="#000000" stroke="none" font-family="Arial" font-size="14px" font-style="normal" font-weight="normal" text-decoration="normal" x="450" y="215.808" text-anchor="middle">5</text></g><g class="dcg-svg-axis-value dcg-svg-offcenter-axis-value"><text fill="none" stroke="#ffffff" font-family="Arial" font-size="14px" font-style="normal" font-weight="normal" text-decoration="normal" x="589.2138671875" y="215.808" text-anchor="middle" stroke-miterlimit="2" stroke-width="3" stroke-dasharray="">10</text><text fill="#000000" stroke="none" font-family="Arial" font-size="14px" font-style="normal" font-weight="normal" text-decoration="normal" x="589.2138671875" y="215.808" text-anchor="middle">10</text></g><g class="dcg-svg-axis-value"><text fill="none" stroke="#ffffff" font-family="Arial" font-size="14px" font-style="normal" font-weight="normal" text-decoration="normal" x="288.77587890625" y="346.6651428571428" text-anchor="middle" stroke-miterlimit="2" stroke-width="3" stroke-dasharray="">-5</text><text fill="#000000" stroke="none" font-family="Arial" font-size="14px" font-style="normal" font-weight="normal" text-decoration="normal" x="288.77587890625" y="346.6651428571428" text-anchor="middle">-5</text></g><g class="dcg-svg-axis-value"><text fill="none" stroke="#ffffff" font-family="Arial" font-size="14px" font-style="normal" font-weight="normal" text-decoration="normal" x="291.10693359375" y="60.95085714285717" text-anchor="middle" stroke-miterlimit="2" stroke-width="3" stroke-dasharray="">5</text><text fill="#000000" stroke="none" font-family="Arial" font-size="14px" font-style="normal" font-weight="normal" text-decoration="normal" x="291.10693359375" y="60.95085714285717" text-anchor="middle">5</text></g></g></g></g><g id="expressions-e05ffeed"><g id="sketch-e05ffeed"><title>Expression 1</title><path fill="#2d70b3" stroke="none" paint-order="stroke fill markers" d="" fill-opacity="0.4"/><g><path fill="none" stroke="#2d70b3" class="dcg-svg-curve" paint-order="fill stroke markers" d=" M 14.264987080625746 -5.5 L 14.264987080625746 -5.5 L 14.44140625 -2.997314237927924 L 21.033203125 88.21163768989186 L 25.720703125 149.1728664854981 L 29.67578125 196.9280753689739 L 33.19140625 235.91989519607395 L 36.4140625 268.40374470067644 L 39.34375 294.9710524658163 L 41.98046875 316.30665161636585 L 44.470703125 334.1104623065821 L 46.814453125 348.71460635678284 L 48.865234375 359.74164944296837 L 50.76953125 368.49554590378426 L 52.52734375 375.2956403560793 L 54.138671875 380.445107803202 L 55.603515625 384.2265326781707 L 57.068359375 387.1531790064299 L 58.38671875 389.05994160169377 L 59.55859375 390.1803577959095 L 60.583984375 390.72060754944266 L 61.43311780123739 390.85955486509647 L 62.341796875 390.70133813670896 L 63.220703125 390.24913148886503 L 64.24609375 389.3536791411049 L 65.41796875 387.85143559883625 L 66.736328125 385.56082031325997 L 68.201171875 382.28512298337716 L 69.8125 377.81621089587003 L 71.5703125 371.9391519327944 L 73.474609375 364.43785264567504 L 75.525390625 355.101785739277 L 77.869140625 342.9280526846334 L 80.359375 328.3633465769414 L 83.142578125 310.281079706836 L 86.21875 288.34128179229344 L 89.880859375 259.97564726345547 L 94.275390625 223.46048944948421 L 100.427734375 169.5915303047003 L 111.4140625 73.21695075232583 L 116.1015625 34.92872951805077 L 120.056640625 5.024972595814631 L 121.57659100618743 -5.5 L 181.92911674508167 -5.5 L 183.77734375 4.578355624445919 L 191.541015625 48.889577360195744 L 199.3046875 92.63953466597815 L 204.138671875 118.19242721536841 L 208.09375 137.57522624391686 L 211.609375 153.39097901252214 L 214.83203125 166.565471476485 L 217.76171875 177.35133983717046 L 220.544921875 186.4900429560756 L 223.181640625 194.11836058337724 L 225.671875 200.38623784265755 L 228.015625 205.44906483309407 L 230.212890625 209.46157682129092 L 232.263671875 212.5732288293231 L 234.314453125 215.08464620518265 L 236.365234375 217.01088951064966 L 238.123046875 218.21039651364305 L 239.734375 218.95629525640095 L 241.345703125 219.37639267115583 L 242.810546875 219.48680363592757 L 244.275390625 219.34986381351422 L 245.88671875 218.9274251854782 L 247.64453125 218.16061197782463 L 249.548828125 216.99514337099913 L 251.74609375 215.2564416620137 L 254.3828125 212.67896569250485 L 257.458984375 209.10668952509135 L 261.12109375 204.25319650612738 L 266.39453125 196.59933333558538 L 274.451171875 184.92980332411736 L 278.259765625 180.04128979973456 L 281.482421875 176.4657842838612 L 284.412109375 173.77359840377872 L 286.90234375 171.96678237439892 L 289.099609375 170.77667984625228 L 291.00390625 170.0720754391432 L 292.76171875 169.70341295561477 L 294.51953125 169.61411243577498 L 296.130859375 169.7833945881997 L 297.888671875 170.24648499177277 L 299.646484375 171.00283540592162 L 301.55078125 172.1540777181157 L 303.6015625 173.77794578229302 L 305.9453125 176.11423758746386 L 308.435546875 179.14247135335222 L 311.072265625 182.9347456247088 L 313.85546875 187.5493748643462 L 316.931640625 193.31343361847533 L 320.447265625 200.63994088002661 L 324.548828125 209.97863144911736 L 330.115234375 223.51564591022176 L 339.9296875 247.4681718650771 L 344.03125 256.5728527265063 L 347.400390625 263.2849754934631 L 350.330078125 268.404590454503 L 352.966796875 272.3422353271361 L 355.310546875 275.2441412979032 L 357.5078125 277.4066930124928 L 359.412109375 278.8142499000265 L 361.169921875 279.7087284434849 L 362.634765625 280.14565513564963 L 364.10440491659955 280.29356905312994 L 365.41796875 280.17372061932514 L 366.736328125 279.8095569543231 L 368.201171875 279.11376344133214 L 369.8125 277.98953644059384 L 371.5703125 276.3296593992814 L 373.474609375 274.01748430904905 L 375.525390625 270.92857856880494 L 377.576171875 267.22147777580653 L 379.7734375 262.57192758164706 L 382.1171875 256.8560565167426 L 384.607421875 249.9552606931146 L 387.390625 241.28160401252214 L 390.3203125 231.12953186127768 L 393.54296875 218.86724015926046 L 397.205078125 203.73118636383805 L 401.599609375 184.2380198500923 L 407.8984375 154.76309107356207 L 417.126953125 111.64698628117611 L 421.375 93.25049880808137 L 424.890625 79.31491430768887 L 427.8203125 68.84958303658914 L 430.45703125 60.48603612652107 L 432.80078125 53.999168036443905 L 434.998046875 48.80712592190241 L 436.90234375 45.05630987908319 L 438.66015625 42.24834301319959 L 440.271484375 40.252436973465876 L 441.8828125 38.831483535640984 L 443.201171875 38.11035183816176 L 444.373046875 37.81159677545298 L 445.3984375 37.81972742776355 L 446.423828125 38.08361170639233 L 447.595703125 38.703047144487016 L 448.9140625 39.81104957191479 L 450.37890625 41.55992086376472 L 451.84375 43.86065472661022 L 453.455078125 47.03557349162128 L 455.212890625 51.274786599168976 L 456.970703125 56.32720498197358 L 458.875 62.71911118258646 L 460.92578125 70.66687754595404 L 463.123046875 80.39530778906254 L 465.466796875 92.13229016649774 L 467.95703125 106.10183429263714 L 470.740234375 123.47454268011523 L 473.669921875 143.66373423851255 L 476.892578125 167.96153478098338 L 480.5546875 197.959051082574 L 484.65625 234.1248875149244 L 489.63671875 280.848791323602 L 497.107421875 354.1615664777501 L 502.37577063968365 405.5 L 574.7369013481064 405.5 L 577.087890625 377.53473578200857 L 582.068359375 314.56719755537694 L 590.564453125 202.60154889931778 L 597.7421875 109.59664891903975 L 599.5 87.7766667616986" stroke-linecap="round" stroke-linejoin="round" stroke-miterlimit="10" stroke-width="2.5" stroke-opacity="0.9" stroke-dasharray=""/></g></g></g><g id="labels-e05ffeed"/></g></svg>