<svg version="1.1" xmlns="http://www.w3.org/2000/svg" xmlns:xlink="http://www.w3.org/1999/xlink" width="600" height="400"><defs/><g transform="scale(1,1)"><g id="background-9549d56d"><rect fill="white" stroke="none" x="0" y="0" width="600" height="400" class="dcg-svg-background"/></g><g id="background-images-9549d56d"/><g id="graphpaper-9549d56d"><g id="grid-9549d56d"><g><path fill="none" stroke="rgb(0,0,0)" class="dcg-svg-minor-gridline" paint-order="fill stroke markers" d=" M -0.5 0 L -0.5 400" stroke-opacity="0.12" stroke-miterlimit="10" stroke-dasharray=""/><path fill="none" stroke="rgb(0,0,0)" class="dcg-svg-minor-gridline" paint-order="fill stroke markers" d=" M 29.5 0 L 29.5 400" stroke-opacity="0.12" stroke-miterlimit="10" stroke-dasharray=""/><path fill="none" stroke="rgb(0,0,0)" class="dcg-svg-minor-gridline" paint-order="fill stroke markers" d=" M 59.5 0 L 59.5 400" stroke-opacity="0.12" stroke-miterlimit="10" stroke-dasharray=""/><path fill="none" stroke="rgb(0,0,0)" class="dcg-svg-minor-gridline" paint-order="fill stroke markers" d=" M 89.5 0 L 89.5 400" stroke-opacity="0.12" stroke-miterlimit="10" stroke-dasharray=""/><path fill="none" stroke="rgb(0,0,0)" class="dcg-svg-minor-gridline" paint-order="fill stroke markers" d=" M 119.5 0 L 119.5 400" stroke-opacity="0.12" stroke-miterlimit="10" stroke-dasharray=""/><path fill="none" stroke="rgb(0,0,0)" class="dcg-svg-minor-gridline" paint-order="fill stroke markers" d=" M 149.5 0 L 149.5 400" stroke-opacity="0.12" stroke-miterlimit="10" stroke-dasharray=""/><path fill="none" stroke="rgb(0,0,0)" class="dcg-svg-minor-gridline" paint-order="fill stroke markers" d=" M 179.5 0 L 179.5 400" stroke-opacity="0.12" stroke-miterlimit="10" stroke-dasharray=""/><path fill="none" stroke="rgb(0,0,0)" class="dcg-svg-minor-gridline" paint-order="fill stroke markers" d=" M 209.5 0 L 209.5 400" stroke-opacity="0.12" stroke-miterlimit="10" stroke-dasharray=""/><path fill="none" stroke="rgb(0,0,0)" class="dcg-svg-minor-gridline" paint-order="fill stroke markers" d=" M 239.5 0 L 239.5 400" stroke-opacity="0.12" stroke-miterlimit="10" stroke-dasharray=""/><path fill="none" stroke="rgb(0,0,0)" class="dcg-svg-minor-gridline" paint-order="fill stroke markers" d=" M 269.5 0 L 269.5 400" stroke-opacity="0.12" stroke-miterlimit="10" stroke-dasharray=""/><path fill="none" stroke="rgb(0,0,0)" class="dcg-svg-minor-gridline" paint-order="fill stroke markers" d=" M 329.5 0 L 329.5 400" stroke-opacity="0.12" stroke-miterlimit="10" stroke-dasharray=""/><path fill="none" stroke="rgb(0,0,0)" class="dcg-svg-minor-gridline" paint-order="fill stroke markers" d=" M 359.5 0 L 359.5 400" stroke-opacity="0.12" stroke-miterlimit="10" stroke-dasharray=""/><path fill="none" stroke="rgb(0,0,0)" class="dcg-svg-minor-gridline" paint-order="fill stroke markers" d=" M 389.5 0 L 389.5 400" stroke-opacity="0.12" stroke-miterlimit="10" stroke-dasharray=""/><path fill="none" stroke="rgb(0,0,0)" class="dcg-svg-minor-gridline" paint-order="fill stroke markers" d=" M 419.5 0 L 419.5 400" stroke-opacity="0.12" stroke-miterlimit="10" stroke-dasharray=""/><path fill="none" stroke="rgb(0,0,0)" class="dcg-svg-minor-gridline" paint-order="fill stroke markers" d=" M 449.5 0 L 449.5 400" stroke-opacity="0.12" stroke-miterlimit="10" stroke-dasharray=""/><path fill="none" stroke="rgb(0,0,0)" class="dcg-svg-minor-gridline" paint-order="fill stroke markers" d=" M 479.5 0 L 479.5 400" stroke-opacity="0.12" stroke-miterlimit="10" stroke-dasharray=""/><path fill="none" stroke="rgb(0,0,0)" class="dcg-svg-minor-gridline" paint-order="fill stroke markers" d=" M 509.5 0 L 509.5 400" stroke-opacity="0.12" stroke-miterlimit="10" stroke-dasharray=""/><path fill="none" stroke="rgb(0,0,0)" class="dcg-svg-minor-gridline" paint-order="fill stroke markers" d=" M 539.5 0 L 539.5 400" stroke-opacity="0.12" stroke-miterlimit="10" stroke-dasharray=""/><path fill="none" stroke="rgb(0,0,0)" class="dcg-svg-minor-gridline" paint-order="fill stroke markers" d=" M 569.5 0 L 569.5 400" stroke-opacity="0.12" stroke-miterlimit="10" stroke-dasharray=""/><path fill="none" stroke="rgb(0,0,0)" class="dcg-svg-minor-gridline" paint-order="fill stroke markers" d=" M 0 370.5 L 600 370.5" stroke-opacity="0.12" stroke-miterlimit="10" stroke-dasharray=""/><path fill="none" stroke="rgb(0,0,0)" class="dcg-svg-minor-gridline" paint-order="fill stroke markers" d=" M 0 313.5 L 600 313.5" stroke-opacity="0.12" stroke-miterlimit="10" stroke-dasharray=""/><path fill="none" stroke="rgb(0,0,0)" class="dcg-svg-minor-gridline" paint-order="fill stroke markers" d=" M 0 285.5 L 600 285.5" stroke-opacity="0.12" stroke-miterlimit="10" stroke-dasharray=""/><path fill="none" stroke="rgb(0,0,0)" class="dcg-svg-minor-gridline" paint-order="fill stroke markers" d=" M 0 256.5 L 600 256.5" stroke-opacity="0.12" stroke-miterlimit="10" stroke-dasharray=""/><path fill="none" stroke="rgb(0,0,0)" class="dcg-svg-minor-gridline" paint-order="fill stroke markers" d=" M 0 228.5 L 600 228.5" stroke-opacity="0.12" stroke-miterlimit="10" stroke-dasharray=""/><path fill="none" stroke="rgb(0,0,0)" class="dcg-svg-minor-gridline" paint-order="fill stroke markers" d=" M 0 199.5 L 600 199.5" stroke-opacity="0.12" stroke-miterlimit="10" stroke-dasharray=""/><path fill="none" stroke="rgb(0,0,0)" class="dcg-svg-minor-gridline" paint-order="fill stroke markers" d=" M 0 170.5 L 600 170.5" stroke-opacity="0.12" stroke-miterlimit="10" stroke-dasharray=""/><path fill="none" stroke="rgb(0,0,0)" class="dcg-svg-minor-gridline" paint-order="fill stroke markers" d=" M 0 142.5 L 600 142.5" stroke-opacity="0.12" stroke-miterlimit="10" stroke-dasharray=""/><path fill="none" stroke="rgb(0,0,0)" class="dcg-svg-minor-gridline" paint-order="fill stroke markers" d=" M 0 113.5 L 600 113.5" stroke-opacity="0.12" stroke-miterlimit="10" stroke-dasharray=""/><path fill="none" stroke="rgb(0,0,0)" class="dcg-svg-minor-gridline" paint-order="fill stroke markers" d=" M 0 85.5 L 600 85.5" stroke-opacity="0.12" stroke-miterlimit="10" stroke-dasharray=""/><path fill="none" stroke="rgb(0,0,0)" class="dcg-svg-minor-gridline" paint-order="fill stroke markers" d=" M 0 56.5 L 600 56.5" stroke-opacity="0.12" stroke-miterlimit="10" stroke-dasharray=""/><path fill="none" stroke="rgb(0,0,0)" class="dcg-svg-minor-gridline" paint-order="fill stroke markers" d=" M 0 28.5 L 600 28.5" stroke-opacity="0.12" stroke-miterlimit="10" stroke-dasharray=""/><path fill="none" stroke="rgb(0,0,0)" class="dcg-svg-minor-gridline" paint-order="fill stroke markers" d=" M 0 -0.5 L 600 -0.5" stroke-opacity="0.12" stroke-miterlimit="10" stroke-dasharray=""/><path fill="none" stroke="rgb(0,0,0)" class="dcg-svg-major-gridline" paint-order="fill stroke markers" d=" M -0.5 0 L -0.5 400" stroke-opacity="0.31818181818181823" stroke-miterlimit="10" stroke-dasharray=""/><path fill="none" stroke="rgb(0,0,0)" class="dcg-svg-major-gridline" paint-order="fill stroke markers" d=" M 149.5 0 L 149.5 400" stroke-opacity="0.31818181818181823" stroke-miterlimit="10" stroke-dasharray=""/><path fill="none" stroke="rgb(0,0,0)" class="dcg-svg-major-gridline" paint-order="fill stroke markers" d=" M 449.5 0 L 449.5 400" stroke-opacity="0.31818181818181823" stroke-miterlimit="10" stroke-dasharray=""/><path fill="none" stroke="rgb(0,0,0)" class="dcg-svg-major-gridline" paint-order="fill stroke markers" d=" M 0 199.5 L 600 199.5" stroke-opacity="0.31818181818181823" stroke-miterlimit="10" stroke-dasharray=""/><path fill="none" stroke="rgb(0,0,0)" class="dcg-svg-major-gridline" paint-order="fill stroke markers" d=" M 0 56.5 L 600 56.5" stroke-opacity="0.31818181818181823" stroke-miterlimit="10" stroke-dasharray=""/></g></g><g id="axis-9549d56d"><g id="yaxis-9549d56d"><title>Y axis</title><path fill="none" stroke="rgb(0,0,0)" class="dcg-svg-axis-line" paint-order="fill stroke markers" d=" M 299.75 0 L 299.75 400" stroke-opacity="0.9" stroke-miterlimit="10" stroke-width="1.5" stroke-dasharray=""/></g><g id="xaxis-9549d56d"><title>X axis</title><path fill="none" stroke="rgb(0,0,0)" class="dcg-svg-axis-line" paint-order="fill stroke markers" d=" M 0 342.75 L 600 342.75" stroke-opacity="0.9" stroke-miterlimit="10" stroke-width="1.5" stroke-dasharray=""/></g><g/></g></g><g id="expressions-9549d56d"><g id="sketch-9549d56d"><title>Expression 1</title><path fill="#2d70b3" stroke="none" paint-order="stroke fill markers" d="" fill-opacity="0.4"/><g><path fill="none" stroke="#2d70b3" class="dcg-svg-curve" paint-order="fill stroke markers" d=" M 167.9232230035424 -5.5 L 167.9232230035424 -5.5 L 168.689453125 -2.229557165501433 L 175.720703125 26.497330609195217 L 182.60546875 53.36804999904729 L 189.197265625 77.88618792201908 L 195.49609375 100.17366879762369 L 201.6484375 120.83573728732733 L 207.5078125 139.47121512476855 L 213.220703125 156.6395617290141 L 218.787109375 172.39800974327272 L 224.060546875 186.42870633970225 L 229.1875 199.21862009593414 L 234.16796875 210.8286015555353 L 239.001953125 221.32004589741052 L 243.689453125 230.75455195649428 L 248.23046875 239.19361222004537 L 252.625 246.69833192371183 L 257.01953125 253.54683836967746 L 261.267578125 259.5391000430347 L 265.369140625 264.7355195993761 L 269.470703125 269.3500904962716 L 273.42578125 273.24636773601236 L 277.234375 276.48279814129427 L 280.75 279.01994396391365 L 284.119140625 281.04470238678994 L 287.1953125 282.5451206724059 L 290.125 283.6645649501255 L 293.0546875 284.48170618175726 L 295.837890625 284.9777681574232 L 298.62109375 285.2006618247136 L 301.404296875 285.1503296285842 L 304.1875 284.8267845653352 L 306.970703125 284.23011018261167 L 309.75390625 283.36046057940325 L 312.68359375 282.15038394199235 L 315.759765625 280.5549238011016 L 318.982421875 278.5270799062839 L 322.3515625 276.01787572748225 L 325.8671875 272.9764381332622 L 329.67578125 269.19533378529115 L 333.630859375 264.7355195993761 L 337.732421875 259.5391000430347 L 341.833984375 253.76376719108083 L 346.08203125 247.1753662029815 L 350.4765625 239.7142465601043 L 354.87109375 231.6014702279821 L 359.412109375 222.53930645099285 L 364.099609375 212.46763726514553 L 368.93359375 201.3260656998661 L 373.9140625 189.0542039578902 L 379.041015625 175.5919909222999 L 384.314453125 160.88004086653672 L 389.880859375 144.41454774513434 L 395.59375 126.53428151352063 L 401.453125 107.18401360006203 L 407.60546875 85.78923483580104 L 413.904296875 62.771663462390165 L 420.49609375 37.512517573319826 L 427.234375 10.494942093800091 L 431.0552107716958 -5.5" stroke-linecap="round" stroke-linejoin="round" stroke-miterlimit="10" stroke-width="2.5" stroke-opacity="0.9" stroke-dasharray=""/></g></g><g id="sketch-9549d56d"><title>Expression 2</title><path fill="#388c46" stroke="none" paint-order="stroke fill markers" d="" fill-opacity="0.4"/><path fill="#388c46" stroke="none" paint-order="stroke fill markers" d="" fill-opacity="0.4"/><path fill="#388c46" stroke="none" class="dcg-svg-region" paint-order="stroke fill markers" d=" M -0.5 -3 L -0.5 342.35714285714283 L 599.5 342.35714285714283 L 599.5 -3 L 430.4580163977979 -3 L 427.234375 10.494942093800091 L 420.49609375 37.512517573319826 L 413.904296875 62.771663462390165 L 407.60546875 85.78923483580104 L 401.453125 107.18401360006203 L 395.59375 126.53428151352063 L 389.880859375 144.41454774513434 L 384.314453125 160.88004086653672 L 379.041015625 175.5919909222999 L 373.9140625 189.0542039578902 L 368.93359375 201.3260656998661 L 364.099609375 212.46763726514553 L 359.412109375 222.53930645099285 L 354.87109375 231.6014702279821 L 350.4765625 239.7142465601043 L 346.08203125 247.1753662029815 L 341.833984375 253.76376719108083 L 337.732421875 259.5391000430347 L 333.630859375 264.7355195993761 L 329.67578125 269.19533378529115 L 325.8671875 272.9764381332622 L 322.3515625 276.01787572748225 L 318.982421875 278.5270799062839 L 315.759765625 280.5549238011016 L 312.68359375 282.15038394199235 L 309.75390625 283.36046057940325 L 306.970703125 284.23011018261167 L 304.1875 284.8267845653352 L 301.404296875 285.1503296285842 L 298.62109375 285.2006618247136 L 295.837890625 284.9777681574232 L 293.0546875 284.48170618175726 L 290.125 283.6645649501255 L 287.1953125 282.5451206724059 L 284.119140625 281.04470238678994 L 280.75 279.01994396391365 L 277.234375 276.48279814129427 L 273.42578125 273.24636773601236 L 269.470703125 269.3500904962716 L 265.369140625 264.7355195993761 L 261.267578125 259.5391000430347 L 257.01953125 253.54683836967746 L 252.625 246.69833192371183 L 248.23046875 239.19361222004537 L 243.689453125 230.75455195649428 L 239.001953125 221.32004589741052 L 234.16796875 210.8286015555353 L 229.1875 199.21862009593414 L 224.060546875 186.42870633970225 L 218.787109375 172.39800974327272 L 213.220703125 156.6395617290141 L 207.5078125 139.47121512476855 L 201.6484375 120.83573728732733 L 195.49609375 100.17366879762369 L 189.197265625 77.88618792201908 L 182.60546875 53.36804999904729 L 175.720703125 26.497330609195217 L 168.689453125 -2.229557165501433 L 168.5089465280258 -3" fill-opacity="0.4"/><g><path fill="none" stroke="#388c46" class="dcg-svg-curve" paint-order="fill stroke markers" d=" M -0.5 342.35714285714283 L 10.5 342.35714285714283 M 17.5 342.35714285714283 L 28.5 342.35714285714283 M 35.5 342.35714285714283 L 46.5 342.35714285714283 M 53.5 342.35714285714283 L 64.5 342.35714285714283 M 71.5 342.35714285714283 L 82.5 342.35714285714283 M 89.5 342.35714285714283 L 100.5 342.35714285714283 M 107.5 342.35714285714283 L 118.5 342.35714285714283 M 125.5 342.35714285714283 L 136.5 342.35714285714283 M 143.5 342.35714285714283 L 154.5 342.35714285714283 M 161.5 342.35714285714283 L 172.5 342.35714285714283 M 179.5 342.35714285714283 L 190.5 342.35714285714283 M 197.5 342.35714285714283 L 208.5 342.35714285714283 M 215.5 342.35714285714283 L 226.5 342.35714285714283 M 233.5 342.35714285714283 L 244.5 342.35714285714283 M 251.5 342.35714285714283 L 262.5 342.35714285714283 M 269.5 342.35714285714283 L 280.5 342.35714285714283 M 287.5 342.35714285714283 L 298.5 342.35714285714283 M 305.5 342.35714285714283 L 316.5 342.35714285714283 M 323.5 342.35714285714283 L 334.5 342.35714285714283 M 341.5 342.35714285714283 L 352.5 342.35714285714283 M 359.5 342.35714285714283 L 370.5 342.35714285714283 M 377.5 342.35714285714283 L 388.5 342.35714285714283 M 395.5 342.35714285714283 L 406.5 342.35714285714283 M 413.5 342.35714285714283 L 424.5 342.35714285714283 M 431.5 342.35714285714283 L 442.5 342.35714285714283 M 449.5 342.35714285714283 L 460.5 342.35714285714283 M 467.5 342.35714285714283 L 478.5 342.35714285714283 M 485.5 342.35714285714283 L 496.5 342.35714285714283 M 503.5 342.35714285714283 L 514.5 342.35714285714283 M 521.5 342.35714285714283 L 532.5 342.35714285714283 M 539.5 342.35714285714283 L 550.5 342.35714285714283 M 557.5 342.35714285714283 L 568.5 342.35714285714283 M 575.5 342.35714285714283 L 586.5 342.35714285714283 M 593.5 342.35714285714283 L 599.5 342.35714285714283" stroke-linecap="round" stroke-linejoin="round" stroke-miterlimit="10" stroke-width="2.5" stroke-opacity="0.9" stroke-dasharray=""/></g><g><path fill="none" stroke="#388c46" class="dcg-svg-curve" paint-order="fill stroke markers" d=" M 167.9232230035424 -5.5 L 168.689453125 -2.229557165501433 M 168.689453125 -2.229557165501433 L 170.5060551185933 5.192355240008976 M 172.17026397657833 11.99164997380337 L 174.7854493248405 22.6762559840517 M 176.4817194942098 29.46751992600595 L 179.21192739547868 40.12331481967057 M 180.94933242355887 46.90427520654806 L 182.60546875 53.36804999904729 M 182.60546875 53.36804999904729 L 183.72901752180917 57.54708103910834 M 185.54645625790795 64.3070304797867 L 188.4024314146346 74.92980817228127 M 190.26843585425632 81.67636690853764 L 193.26004745619716 92.26174644935398 M 195.16380029379587 98.9978970662371 L 195.49609375 100.17366879762369 M 195.49609375 100.17366879762369 L 198.28656914456508 109.54521825328216 M 200.2842148415153 116.25412365352862 L 201.6484375 120.83573728732733 M 201.6484375 120.83573728732733 L 203.5139644758309 126.76896166932121 M 205.61356937327335 133.4466603204012 L 207.5078125 139.47121512476855 M 207.5078125 139.47121512476855 L 208.98692949983032 143.91624916938918 M 211.19707947929106 150.55817939096556 L 213.220703125 156.6395617290141 M 213.220703125 156.6395617290141 L 214.74972664744337 160.96821411420473 M 217.08118105524696 167.56854140490276 L 218.787109375 172.39800974327272 M 218.787109375 172.39800974327272 L 220.85514460390226 177.9002983069383 M 223.31789102586023 184.45276960112443 L 224.060546875 186.42870633970225 M 224.060546875 186.42870633970225 L 227.36798844523992 194.67958974077578 M 230.01928850057453 201.1576040660634 L 234.16796875 210.8286015555353 M 234.16796875 210.8286015555353 L 234.3674561110873 211.2615592118693 M 237.2967559694302 217.61916900957726 L 239.001953125 221.32004589741052 M 239.001953125 221.32004589741052 L 242.08332952875622 227.52191562574245 M 245.29596906643528 233.74011421034095 L 248.23046875 239.19361222004537 M 248.23046875 239.19361222004537 L 250.65954663775454 243.34184729880877 M 254.30478588300033 249.31613659800328 L 257.01953125 253.54683836967746 M 257.01953125 253.54683836967746 L 260.47405691537944 258.4197652354579 M 264.75443275412596 263.9567237132603 L 265.369140625 264.7355195993761 M 265.369140625 264.7355195993761 L 269.470703125 269.3500904962716 M 269.470703125 269.3500904962716 L 272.20193009679235 272.0407118065044 M 277.46470354952544 276.6490209657589 L 280.75 279.01994396391365 M 280.75 279.01994396391365 L 284.119140625 281.04470238678994 M 284.119140625 281.04470238678994 L 286.83147957977314 282.3676593377991 M 293.46562013602613 284.55494843039577 L 295.837890625 284.9777681574232 M 295.837890625 284.9777681574232 L 298.62109375 285.2006618247136 M 298.62109375 285.2006618247136 L 301.404296875 285.1503296285842 M 301.404296875 285.1503296285842 L 304.1875 284.8267845653352 M 304.1875 284.8267845653352 L 304.3954014252337 284.7822138139393 M 311.09434193930076 282.8068077029191 L 312.68359375 282.15038394199235 M 312.68359375 282.15038394199235 L 315.759765625 280.5549238011016 M 315.759765625 280.5549238011016 L 318.982421875 278.5270799062839 M 318.982421875 278.5270799062839 L 320.59257104534333 277.32790377313586 M 325.9794037129882 272.8650318666205 L 329.67578125 269.19533378529115 M 329.67578125 269.19533378529115 L 333.5183576377313 264.862378495194 M 337.8542206870927 259.3675974313329 L 341.833984375 253.76376719108083 M 341.833984375 253.76376719108083 L 344.070269542852 250.29545720225858 M 347.75048411651636 244.34263484953394 L 350.4765625 239.7142465601043 M 350.4765625 239.7142465601043 L 353.1573536257763 234.7652184250646 M 356.39514344702656 228.56003872911432 L 359.412109375 222.53930645099285 M 359.412109375 222.53930645099285 L 361.21201831080566 218.6719811462281 M 364.1619412008556 212.32397223756362 L 368.5401749134054 202.23283406794707 M 371.19426969706154 195.75576618423318 L 373.9140625 189.0542039578902 M 373.9140625 189.0542039578902 L 375.25495109825096 185.53333541734776 M 377.74627805046134 178.9916773693304 L 379.041015625 175.5919909222999 M 379.041015625 175.5919909222999 L 381.5251696276828 168.66164432801602 M 383.88713761968114 162.07217491046993 L 384.314453125 160.88004086653672 M 384.314453125 160.88004086653672 L 387.431725206448 151.6591145256643 M 389.6735387408043 145.02780454367908 L 389.880859375 144.41454774513434 M 389.880859375 144.41454774513434 L 393.03169469164277 134.55302964307128 M 395.16214953596904 127.8851092659007 L 395.59375 126.53428151352063 M 395.59375 126.53428151352063 L 398.37068611558857 117.36360071306028 M 400.3993607826769 110.66401273355632 L 401.453125 107.18401360006203 M 401.453125 107.18401360006203 L 403.4882517286044 100.10685928537917 M 405.4227942908881 93.37948646423176 L 407.60546875 85.78923483580104 M 407.60546875 85.78923483580104 L 408.4242771152494 82.7970941368874 M 410.2719160282056 76.04533655479588 L 413.17534860570817 65.4354317829378 M 414.9745078574345 58.67071559490921 L 417.7521170640543 48.02717825550455 M 419.51968655917597 41.25401813042886 L 420.49609375 37.512517573319826 M 420.49609375 37.512517573319826 L 422.2222620444634 30.59133389817743 M 423.9161988677529 23.799384396104863 L 426.578099590065 13.126320892847968 M 428.2306559998613 6.324269012276248 L 430.786404030024 -4.374710004729036" stroke-linecap="round" stroke-linejoin="round" stroke-miterlimit="10" stroke-width="2.5" stroke-opacity="0.9" stroke-dasharray=""/></g></g></g><g id="labels-9549d56d"/></g></svg>