<svg version="1.1" xmlns="http://www.w3.org/2000/svg" xmlns:xlink="http://www.w3.org/1999/xlink" width="600" height="400"><defs/><g transform="scale(1,1)"><g id="background-4bd52135"><rect fill="white" stroke="none" x="0" y="0" width="600" height="400" class="dcg-svg-background"/></g><g id="background-images-4bd52135"/><g id="graphpaper-4bd52135"><g id="grid-4bd52135"><g><path fill="none" stroke="rgb(0,0,0)" class="dcg-svg-minor-gridline" paint-order="fill stroke markers" d=" M 8.5 0 L 8.5 400" stroke-opacity="0.12" stroke-miterlimit="10" stroke-dasharray=""/><path fill="none" stroke="rgb(0,0,0)" class="dcg-svg-minor-gridline" paint-order="fill stroke markers" d=" M 25.5 0 L 25.5 400" stroke-opacity="0.12" stroke-miterlimit="10" stroke-dasharray=""/><path fill="none" stroke="rgb(0,0,0)" class="dcg-svg-minor-gridline" paint-order="fill stroke markers" d=" M 59.5 0 L 59.5 400" stroke-opacity="0.12" stroke-miterlimit="10" stroke-dasharray=""/><path fill="none" stroke="rgb(0,0,0)" class="dcg-svg-minor-gridline" paint-order="fill stroke markers" d=" M 76.5 0 L 76.5 400" stroke-opacity="0.12" stroke-miterlimit="10" stroke-dasharray=""/><path fill="none" stroke="rgb(0,0,0)" class="dcg-svg-minor-gridline" paint-order="fill stroke markers" d=" M 93.5 0 L 93.5 400" stroke-opacity="0.12" stroke-miterlimit="10" stroke-dasharray=""/><path fill="none" stroke="rgb(0,0,0)" class="dcg-svg-minor-gridline" paint-order="fill stroke markers" d=" M 110.5 0 L 110.5 400" stroke-opacity="0.12" stroke-miterlimit="10" stroke-dasharray=""/><path fill="none" stroke="rgb(0,0,0)" class="dcg-svg-minor-gridline" paint-order="fill stroke markers" d=" M 128.5 0 L 128.5 400" stroke-opacity="0.12" stroke-miterlimit="10" stroke-dasharray=""/><path fill="none" stroke="rgb(0,0,0)" class="dcg-svg-minor-gridline" paint-order="fill stroke markers" d=" M 145.5 0 L 145.5 400" stroke-opacity="0.12" stroke-miterlimit="10" stroke-dasharray=""/><path fill="none" stroke="rgb(0,0,0)" class="dcg-svg-minor-gridline" paint-order="fill stroke markers" d=" M 162.5 0 L 162.5 400" stroke-opacity="0.12" stroke-miterlimit="10" stroke-dasharray=""/><path fill="none" stroke="rgb(0,0,0)" class="dcg-svg-minor-gridline" paint-order="fill stroke markers" d=" M 179.5 0 L 179.5 400" stroke-opacity="0.12" stroke-miterlimit="10" stroke-dasharray=""/><path fill="none" stroke="rgb(0,0,0)" class="dcg-svg-minor-gridline" paint-order="fill stroke markers" d=" M 196.5 0 L 196.5 400" stroke-opacity="0.12" stroke-miterlimit="10" stroke-dasharray=""/><path fill="none" stroke="rgb(0,0,0)" class="dcg-svg-minor-gridline" paint-order="fill stroke markers" d=" M 213.5 0 L 213.5 400" stroke-opacity="0.12" stroke-miterlimit="10" stroke-dasharray=""/><path fill="none" stroke="rgb(0,0,0)" class="dcg-svg-minor-gridline" paint-order="fill stroke markers" d=" M 230.5 0 L 230.5 400" stroke-opacity="0.12" stroke-miterlimit="10" stroke-dasharray=""/><path fill="none" stroke="rgb(0,0,0)" class="dcg-svg-minor-gridline" paint-order="fill stroke markers" d=" M 248.5 0 L 248.5 400" stroke-opacity="0.12" stroke-miterlimit="10" stroke-dasharray=""/><path fill="none" stroke="rgb(0,0,0)" class="dcg-svg-minor-gridline" paint-order="fill stroke markers" d=" M 265.5 0 L 265.5 400" stroke-opacity="0.12" stroke-miterlimit="10" stroke-dasharray=""/><path fill="none" stroke="rgb(0,0,0)" class="dcg-svg-minor-gridline" paint-order="fill stroke markers" d=" M 282.5 0 L 282.5 400" stroke-opacity="0.12" stroke-miterlimit="10" stroke-dasharray=""/><path fill="none" stroke="rgb(0,0,0)" class="dcg-svg-minor-gridline" paint-order="fill stroke markers" d=" M 299.5 0 L 299.5 400" stroke-opacity="0.12" stroke-miterlimit="10" stroke-dasharray=""/><path fill="none" stroke="rgb(0,0,0)" class="dcg-svg-minor-gridline" paint-order="fill stroke markers" d=" M 316.5 0 L 316.5 400" stroke-opacity="0.12" stroke-miterlimit="10" stroke-dasharray=""/><path fill="none" stroke="rgb(0,0,0)" class="dcg-svg-minor-gridline" paint-order="fill stroke markers" d=" M 333.5 0 L 333.5 400" stroke-opacity="0.12" stroke-miterlimit="10" stroke-dasharray=""/><path fill="none" stroke="rgb(0,0,0)" class="dcg-svg-minor-gridline" paint-order="fill stroke markers" d=" M 350.5 0 L 350.5 400" stroke-opacity="0.12" stroke-miterlimit="10" stroke-dasharray=""/><path fill="none" stroke="rgb(0,0,0)" class="dcg-svg-minor-gridline" paint-order="fill stroke markers" d=" M 368.5 0 L 368.5 400" stroke-opacity="0.12" stroke-miterlimit="10" stroke-dasharray=""/><path fill="none" stroke="rgb(0,0,0)" class="dcg-svg-minor-gridline" paint-order="fill stroke markers" d=" M 385.5 0 L 385.5 400" stroke-opacity="0.12" stroke-miterlimit="10" stroke-dasharray=""/><path fill="none" stroke="rgb(0,0,0)" class="dcg-svg-minor-gridline" paint-order="fill stroke markers" d=" M 402.5 0 L 402.5 400" stroke-opacity="0.12" stroke-miterlimit="10" stroke-dasharray=""/><path fill="none" stroke="rgb(0,0,0)" class="dcg-svg-minor-gridline" paint-order="fill stroke markers" d=" M 419.5 0 L 419.5 400" stroke-opacity="0.12" stroke-miterlimit="10" stroke-dasharray=""/><path fill="none" stroke="rgb(0,0,0)" class="dcg-svg-minor-gridline" paint-order="fill stroke markers" d=" M 436.5 0 L 436.5 400" stroke-opacity="0.12" stroke-miterlimit="10" stroke-dasharray=""/><path fill="none" stroke="rgb(0,0,0)" class="dcg-svg-minor-gridline" paint-order="fill stroke markers" d=" M 453.5 0 L 453.5 400" stroke-opacity="0.12" stroke-miterlimit="10" stroke-dasharray=""/><path fill="none" stroke="rgb(0,0,0)" class="dcg-svg-minor-gridline" paint-order="fill stroke markers" d=" M 470.5 0 L 470.5 400" stroke-opacity="0.12" stroke-miterlimit="10" stroke-dasharray=""/><path fill="none" stroke="rgb(0,0,0)" class="dcg-svg-minor-gridline" paint-order="fill stroke markers" d=" M 488.5 0 L 488.5 400" stroke-opacity="0.12" stroke-miterlimit="10" stroke-dasharray=""/><path fill="none" stroke="rgb(0,0,0)" class="dcg-svg-minor-gridline" paint-order="fill stroke markers" d=" M 505.5 0 L 505.5 400" stroke-opacity="0.12" stroke-miterlimit="10" stroke-dasharray=""/><path fill="none" stroke="rgb(0,0,0)" class="dcg-svg-minor-gridline" paint-order="fill stroke markers" d=" M 522.5 0 L 522.5 400" stroke-opacity="0.12" stroke-miterlimit="10" stroke-dasharray=""/><path fill="none" stroke="rgb(0,0,0)" class="dcg-svg-minor-gridline" paint-order="fill stroke markers" d=" M 539.5 0 L 539.5 400" stroke-opacity="0.12" stroke-miterlimit="10" stroke-dasharray=""/><path fill="none" stroke="rgb(0,0,0)" class="dcg-svg-minor-gridline" paint-order="fill stroke markers" d=" M 556.5 0 L 556.5 400" stroke-opacity="0.12" stroke-miterlimit="10" stroke-dasharray=""/><path fill="none" stroke="rgb(0,0,0)" class="dcg-svg-minor-gridline" paint-order="fill stroke markers" d=" M 573.5 0 L 573.5 400" stroke-opacity="0.12" stroke-miterlimit="10" stroke-dasharray=""/><path fill="none" stroke="rgb(0,0,0)" class="dcg-svg-minor-gridline" paint-order="fill stroke markers" d=" M 590.5 0 L 590.5 400" stroke-opacity="0.12" stroke-miterlimit="10" stroke-dasharray=""/><path fill="none" stroke="rgb(0,0,0)" class="dcg-svg-minor-gridline" paint-order="fill stroke markers" d=" M 0 395.5 L 600 395.5" stroke-opacity="0.12" stroke-miterlimit="10" stroke-dasharray=""/><path fill="none" stroke="rgb(0,0,0)" class="dcg-svg-minor-gridline" paint-order="fill stroke markers" d=" M 0 377.5 L 600 377.5" stroke-opacity="0.12" stroke-miterlimit="10" stroke-dasharray=""/><path fill="none" stroke="rgb(0,0,0)" class="dcg-svg-minor-gridline" paint-order="fill stroke markers" d=" M 0 359.5 L 600 359.5" stroke-opacity="0.12" stroke-miterlimit="10" stroke-dasharray=""/><path fill="none" stroke="rgb(0,0,0)" class="dcg-svg-minor-gridline" paint-order="fill stroke markers" d=" M 0 341.5 L 600 341.5" stroke-opacity="0.12" stroke-miterlimit="10" stroke-dasharray=""/><path fill="none" stroke="rgb(0,0,0)" class="dcg-svg-minor-gridline" paint-order="fill stroke markers" d=" M 0 323.5 L 600 323.5" stroke-opacity="0.12" stroke-miterlimit="10" stroke-dasharray=""/><path fill="none" stroke="rgb(0,0,0)" class="dcg-svg-minor-gridline" paint-order="fill stroke markers" d=" M 0 306.5 L 600 306.5" stroke-opacity="0.12" stroke-miterlimit="10" stroke-dasharray=""/><path fill="none" stroke="rgb(0,0,0)" class="dcg-svg-minor-gridline" paint-order="fill stroke markers" d=" M 0 288.5 L 600 288.5" stroke-opacity="0.12" stroke-miterlimit="10" stroke-dasharray=""/><path fill="none" stroke="rgb(0,0,0)" class="dcg-svg-minor-gridline" paint-order="fill stroke markers" d=" M 0 270.5 L 600 270.5" stroke-opacity="0.12" stroke-miterlimit="10" stroke-dasharray=""/><path fill="none" stroke="rgb(0,0,0)" class="dcg-svg-minor-gridline" paint-order="fill stroke markers" d=" M 0 252.5 L 600 252.5" stroke-opacity="0.12" stroke-miterlimit="10" stroke-dasharray=""/><path fill="none" stroke="rgb(0,0,0)" class="dcg-svg-minor-gridline" paint-order="fill stroke markers" d=" M 0 235.5 L 600 235.5" stroke-opacity="0.12" stroke-miterlimit="10" stroke-dasharray=""/><path fill="none" stroke="rgb(0,0,0)" class="dcg-svg-minor-gridline" paint-order="fill stroke markers" d=" M 0 217.5 L 600 217.5" stroke-opacity="0.12" stroke-miterlimit="10" stroke-dasharray=""/><path fill="none" stroke="rgb(0,0,0)" class="dcg-svg-minor-gridline" paint-order="fill stroke markers" d=" M 0 181.5 L 600 181.5" stroke-opacity="0.12" stroke-miterlimit="10" stroke-dasharray=""/><path fill="none" stroke="rgb(0,0,0)" class="dcg-svg-minor-gridline" paint-order="fill stroke markers" d=" M 0 163.5 L 600 163.5" stroke-opacity="0.12" stroke-miterlimit="10" stroke-dasharray=""/><path fill="none" stroke="rgb(0,0,0)" class="dcg-svg-minor-gridline" paint-order="fill stroke markers" d=" M 0 146.5 L 600 146.5" stroke-opacity="0.12" stroke-miterlimit="10" stroke-dasharray=""/><path fill="none" stroke="rgb(0,0,0)" class="dcg-svg-minor-gridline" paint-order="fill stroke markers" d=" M 0 128.5 L 600 128.5" stroke-opacity="0.12" stroke-miterlimit="10" stroke-dasharray=""/><path fill="none" stroke="rgb(0,0,0)" class="dcg-svg-minor-gridline" paint-order="fill stroke markers" d=" M 0 110.5 L 600 110.5" stroke-opacity="0.12" stroke-miterlimit="10" stroke-dasharray=""/><path fill="none" stroke="rgb(0,0,0)" class="dcg-svg-minor-gridline" paint-order="fill stroke markers" d=" M 0 92.5 L 600 92.5" stroke-opacity="0.12" stroke-miterlimit="10" stroke-dasharray=""/><path fill="none" stroke="rgb(0,0,0)" class="dcg-svg-minor-gridline" paint-order="fill stroke markers" d=" M 0 75.5 L 600 75.5" stroke-opacity="0.12" stroke-miterlimit="10" stroke-dasharray=""/><path fill="none" stroke="rgb(0,0,0)" class="dcg-svg-minor-gridline" paint-order="fill stroke markers" d=" M 0 57.5 L 600 57.5" stroke-opacity="0.12" stroke-miterlimit="10" stroke-dasharray=""/><path fill="none" stroke="rgb(0,0,0)" class="dcg-svg-minor-gridline" paint-order="fill stroke markers" d=" M 0 39.5 L 600 39.5" stroke-opacity="0.12" stroke-miterlimit="10" stroke-dasharray=""/><path fill="none" stroke="rgb(0,0,0)" class="dcg-svg-minor-gridline" paint-order="fill stroke markers" d=" M 0 21.5 L 600 21.5" stroke-opacity="0.12" stroke-miterlimit="10" stroke-dasharray=""/><path fill="none" stroke="rgb(0,0,0)" class="dcg-svg-minor-gridline" paint-order="fill stroke markers" d=" M 0 3.5 L 600 3.5" stroke-opacity="0.12" stroke-miterlimit="10" stroke-dasharray=""/><path fill="none" stroke="rgb(0,0,0)" class="dcg-svg-major-gridline" paint-order="fill stroke markers" d=" M 128.5 0 L 128.5 400" stroke-opacity="0.31818181818181823" stroke-miterlimit="10" stroke-dasharray=""/><path fill="none" stroke="rgb(0,0,0)" class="dcg-svg-major-gridline" paint-order="fill stroke markers" d=" M 213.5 0 L 213.5 400" stroke-opacity="0.31818181818181823" stroke-miterlimit="10" stroke-dasharray=""/><path fill="none" stroke="rgb(0,0,0)" class="dcg-svg-major-gridline" paint-order="fill stroke markers" d=" M 299.5 0 L 299.5 400" stroke-opacity="0.31818181818181823" stroke-miterlimit="10" stroke-dasharray=""/><path fill="none" stroke="rgb(0,0,0)" class="dcg-svg-major-gridline" paint-order="fill stroke markers" d=" M 385.5 0 L 385.5 400" stroke-opacity="0.31818181818181823" stroke-miterlimit="10" stroke-dasharray=""/><path fill="none" stroke="rgb(0,0,0)" class="dcg-svg-major-gridline" paint-order="fill stroke markers" d=" M 470.5 0 L 470.5 400" stroke-opacity="0.31818181818181823" stroke-miterlimit="10" stroke-dasharray=""/><path fill="none" stroke="rgb(0,0,0)" class="dcg-svg-major-gridline" paint-order="fill stroke markers" d=" M 556.5 0 L 556.5 400" stroke-opacity="0.31818181818181823" stroke-miterlimit="10" stroke-dasharray=""/><path fill="none" stroke="rgb(0,0,0)" class="dcg-svg-major-gridline" paint-order="fill stroke markers" d=" M 0 377.5 L 600 377.5" stroke-opacity="0.31818181818181823" stroke-miterlimit="10" stroke-dasharray=""/><path fill="none" stroke="rgb(0,0,0)" class="dcg-svg-major-gridline" paint-order="fill stroke markers" d=" M 0 288.5 L 600 288.5" stroke-opacity="0.31818181818181823" stroke-miterlimit="10" stroke-dasharray=""/><path fill="none" stroke="rgb(0,0,0)" class="dcg-svg-major-gridline" paint-order="fill stroke markers" d=" M 0 110.5 L 600 110.5" stroke-opacity="0.31818181818181823" stroke-miterlimit="10" stroke-dasharray=""/><path fill="none" stroke="rgb(0,0,0)" class="dcg-svg-major-gridline" paint-order="fill stroke markers" d=" M 0 21.5 L 600 21.5" stroke-opacity="0.31818181818181823" stroke-miterlimit="10" stroke-dasharray=""/></g></g><g id="axis-4bd52135"><g id="yaxis-4bd52135"><title>Y axis</title><path fill="none" stroke="rgb(0,0,0)" class="dcg-svg-axis-line" paint-order="fill stroke markers" d=" M 42.75 0 L 42.75 400" stroke-opacity="0.9" stroke-miterlimit="10" stroke-width="1.5" stroke-dasharray=""/></g><g id="xaxis-4bd52135"><title>X axis</title><path fill="none" stroke="rgb(0,0,0)" class="dcg-svg-axis-line" paint-order="fill stroke markers" d=" M 0 199.75 L 600 199.75" stroke-opacity="0.9" stroke-miterlimit="10" stroke-width="1.5" stroke-dasharray=""/></g><g><g class="dcg-svg-axis-value"><text fill="none" stroke="#ffffff" font-family="Arial" font-size="14px" font-style="normal" font-weight="normal" text-decoration="normal" x="33.964076450892854" y="215.808" text-anchor="middle" stroke-miterlimit="2" stroke-width="3" stroke-dasharray="">0</text><text fill="#000000" stroke="none" font-family="Arial" font-size="14px" font-style="normal" font-weight="normal" text-decoration="normal" x="33.964076450892854" y="215.808" text-anchor="middle">0</text></g><g class="dcg-svg-axis-value"><text fill="none" stroke="#ffffff" font-family="Arial" font-size="14px" font-style="normal" font-weight="normal" text-decoration="normal" x="128.57142857142856" y="215.808" text-anchor="middle" stroke-miterlimit="2" stroke-width="3" stroke-dasharray="">1</text><text fill="#000000" stroke="none" font-family="Arial" font-size="14px" font-style="normal" font-weight="normal" text-decoration="normal" x="128.57142857142856" y="215.808" text-anchor="middle">1</text></g><g class="dcg-svg-axis-value"><text fill="none" stroke="#ffffff" font-family="Arial" font-size="14px" font-style="normal" font-weight="normal" text-decoration="normal" x="214.28571428571428" y="215.808" text-anchor="middle" stroke-miterlimit="2" stroke-width="3" stroke-dasharray="">2</text><text fill="#000000" stroke="none" font-family="Arial" font-size="14px" font-style="normal" font-weight="normal" text-decoration="normal" x="214.28571428571428" y="215.808" text-anchor="middle">2</text></g><g class="dcg-svg-axis-value"><text fill="none" stroke="#ffffff" font-family="Arial" font-size="14px" font-style="normal" font-weight="normal" text-decoration="normal" x="299.99999999999994" y="215.808" text-anchor="middle" stroke-miterlimit="2" stroke-width="3" stroke-dasharray="">3</text><text fill="#000000" stroke="none" font-family="Arial" font-size="14px" font-style="normal" font-weight="normal" text-decoration="normal" x="299.99999999999994" y="215.808" text-anchor="middle">3</text></g><g class="dcg-svg-axis-value"><text fill="none" stroke="#ffffff" font-family="Arial" font-size="14px" font-style="normal" font-weight="normal" text-decoration="normal" x="385.71428571428567" y="215.808" text-anchor="middle" stroke-miterlimit="2" stroke-width="3" stroke-dasharray="">4</text><text fill="#000000" stroke="none" font-family="Arial" font-size="14px" font-style="normal" font-weight="normal" text-decoration="normal" x="385.71428571428567" y="215.808" text-anchor="middle">4</text></g><g class="dcg-svg-axis-value"><text fill="none" stroke="#ffffff" font-family="Arial" font-size="14px" font-style="normal" font-weight="normal" text-decoration="normal" x="471.4285714285714" y="215.808" text-anchor="middle" stroke-miterlimit="2" stroke-width="3" stroke-dasharray="">5</text><text fill="#000000" stroke="none" font-family="Arial" font-size="14px" font-style="normal" font-weight="normal" text-decoration="normal" x="471.4285714285714" y="215.808" text-anchor="middle">5</text></g><g class="dcg-svg-axis-value"><text fill="none" stroke="#ffffff" font-family="Arial" font-size="14px" font-style="normal" font-weight="normal" text-decoration="normal" x="557.1428571428571" y="215.808" text-anchor="middle" stroke-miterlimit="2" stroke-width="3" stroke-dasharray="">6</text><text fill="#000000" stroke="none" font-family="Arial" font-size="14px" font-style="normal" font-weight="normal" text-decoration="normal" x="557.1428571428571" y="215.808" text-anchor="middle">6</text></g><g class="dcg-svg-axis-value"><text fill="none" stroke="#ffffff" font-family="Arial" font-size="14px" font-style="normal" font-weight="normal" text-decoration="normal" x="31.633021763392854" y="381.58577777777776" text-anchor="middle" stroke-miterlimit="2" stroke-width="3" stroke-dasharray="">-2</text><text fill="#000000" stroke="none" font-family="Arial" font-size="14px" font-style="normal" font-weight="normal" text-decoration="normal" x="31.633021763392854" y="381.58577777777776" text-anchor="middle">-2</text></g><g class="dcg-svg-axis-value"><text fill="none" stroke="#ffffff" font-family="Arial" font-size="14px" font-style="normal" font-weight="normal" text-decoration="normal" x="31.633021763392854" y="292.6968888888889" text-anchor="middle" stroke-miterlimit="2" stroke-width="3" stroke-dasharray="">-1</text><text fill="#000000" stroke="none" font-family="Arial" font-size="14px" font-style="normal" font-weight="normal" text-decoration="normal" x="31.633021763392854" y="292.6968888888889" text-anchor="middle">-1</text></g><g class="dcg-svg-axis-value"><text fill="none" stroke="#ffffff" font-family="Arial" font-size="14px" font-style="normal" font-weight="normal" text-decoration="normal" x="33.964076450892854" y="114.91911111111112" text-anchor="middle" stroke-miterlimit="2" stroke-width="3" stroke-dasharray="">1</text><text fill="#000000" stroke="none" font-family="Arial" font-size="14px" font-style="normal" font-weight="normal" text-decoration="normal" x="33.964076450892854" y="114.91911111111112" text-anchor="middle">1</text></g><g class="dcg-svg-axis-value"><text fill="none" stroke="#ffffff" font-family="Arial" font-size="14px" font-style="normal" font-weight="normal" text-decoration="normal" x="33.964076450892854" y="26.03022222222223" text-anchor="middle" stroke-miterlimit="2" stroke-width="3" stroke-dasharray="">2</text><text fill="#000000" stroke="none" font-family="Arial" font-size="14px" font-style="normal" font-weight="normal" text-decoration="normal" x="33.964076450892854" y="26.03022222222223" text-anchor="middle">2</text></g></g></g></g><g id="expressions-4bd52135"><g id="sketch-4bd52135"><title>Expression 1</title><path fill="#2d70b3" stroke="none" paint-order="stroke fill markers" d="" fill-opacity="0.4"/><g><path fill="none" stroke="#2d70b3" class="dcg-svg-curve" paint-order="fill stroke markers" d=" M 128.07142857142856 101.8065313372179 L 128.07142857142856 101.8065313372179 L 131.8791443487694 107.80667748498388 L 135.68686012611022 113.16110443867296 L 139.49457590345108 117.88902053672416 L 143.3022916807919 122.0097793701654 L 146.81710624449116 125.29155669780323 L 150.18547020136958 127.98115103066056 L 153.4073835514272 130.1496912023951 L 156.48284629466403 131.86257935166162 L 159.55830903790087 133.23781611974835 L 162.4873211743169 134.24390035484998 L 165.4163333107329 134.96382901635837 L 168.34534544714896 135.40784965946096 L 171.27435758356498 135.5865797391735 L 174.20336971998103 135.51108136510175 L 177.2788324632178 135.17089020572018 L 180.50074581327547 134.54305526727137 L 183.8691097701539 133.60833868939972 L 187.38392433385312 132.35255787625073 L 191.19164011119398 130.69953774905377 L 195.43870770899719 128.54197838620848 L 200.41802834090447 125.66868932481196 L 206.8618550410197 121.57530294452567 L 219.89595904807103 113.20995375565047 L 224.28947725269506 110.80866545887153 L 227.80429181639428 109.20710054955191 L 230.87975455963115 108.10891310088124 L 233.66231608922635 107.4077481651779 L 236.15197640518 107.04975533670529 L 238.49518611431282 106.97023531073978 L 240.83839582344567 107.16093772313246 L 243.03515492575764 107.60053518314538 L 245.2319140280697 108.30413888293941 L 247.5751237372025 109.35448697859903 L 249.9183334463353 110.71887584258741 L 252.40799376228892 112.51154295103504 L 255.19055529188415 114.92271138196821 L 258.26601803512096 118.0604047221276 L 261.7808325988202 122.19308225354246 L 265.8814495898026 127.62608485428905 L 271.1536714353515 135.28839058231767 L 287.702590006102 159.82620582740833 L 292.53546003118856 166.08850365084754 L 297.0754288426334 171.36126664069786 L 301.32249644043657 175.72885314122868 L 305.42311343141904 179.43162992696475 L 309.37727981558066 182.54545373005575 L 313.33144619974235 185.24260525575366 L 317.28561258390397 187.5604217680426 L 321.2397789680656 189.53871710646484 L 325.340395959048 191.27421835470054 L 329.73391416367207 192.824172743137 L 334.42033358193777 194.17746117486539 L 339.39965421384494 195.33290907349814 L 344.9647772730354 196.34472344529672 L 351.26215336632987 197.2096271817085 L 358.43823310054916 197.92141984896577 L 366.9323682961557 198.49393627676866 L 377.4768119872533 198.93395868892384 L 391.53607024205024 199.24526780264898 L 412.9178588378873 199.43124582128914 L 436.64285714285705 199.48764908747475" stroke-linecap="round" stroke-linejoin="round" stroke-miterlimit="10" stroke-width="2.5" stroke-opacity="0.9" stroke-dasharray=""/></g></g><g id="sketch-4bd52135"><title>Expression 6</title><path fill="#2d70b3" stroke="none" class="dcg-svg-region" paint-order="stroke fill markers" d=" M 128.07142857142856 101.8065313372179 L 131.8791443487694 107.80667748498388 L 135.68686012611022 113.16110443867296 L 139.49457590345108 117.88902053672416 L 143.3022916807919 122.0097793701654 L 146.81710624449116 125.29155669780323 L 150.18547020136958 127.98115103066056 L 153.4073835514272 130.1496912023951 L 156.48284629466403 131.86257935166162 L 159.55830903790087 133.23781611974835 L 162.4873211743169 134.24390035484998 L 165.4163333107329 134.96382901635837 L 168.34534544714896 135.40784965946096 L 171.27435758356498 135.5865797391735 L 174.20336971998103 135.51108136510175 L 177.2788324632178 135.17089020572018 L 180.50074581327547 134.54305526727137 L 183.8691097701539 133.60833868939972 L 187.38392433385312 132.35255787625073 L 191.19164011119398 130.69953774905377 L 195.43870770899719 128.54197838620848 L 200.41802834090447 125.66868932481196 L 206.8618550410197 121.57530294452567 L 219.89595904807103 113.20995375565047 L 224.28947725269506 110.80866545887153 L 227.80429181639428 109.20710054955191 L 230.87975455963115 108.10891310088124 L 233.66231608922635 107.4077481651779 L 236.15197640518 107.04975533670529 L 238.49518611431282 106.97023531073978 L 240.83839582344567 107.16093772313246 L 243.03515492575764 107.60053518314538 L 245.2319140280697 108.30413888293941 L 247.5751237372025 109.35448697859903 L 249.9183334463353 110.71887584258741 L 252.40799376228892 112.51154295103504 L 255.19055529188415 114.92271138196821 L 258.26601803512096 118.0604047221276 L 261.7808325988202 122.19308225354246 L 265.8814495898026 127.62608485428905 L 271.1536714353515 135.28839058231767 L 287.702590006102 159.82620582740833 L 292.53546003118856 166.08850365084754 L 297.0754288426334 171.36126664069786 L 301.32249644043657 175.72885314122868 L 305.42311343141904 179.43162992696475 L 309.37727981558066 182.54545373005575 L 313.33144619974235 185.24260525575366 L 317.28561258390397 187.5604217680426 L 321.2397789680656 189.53871710646484 L 325.340395959048 191.27421835470054 L 329.73391416367207 192.824172743137 L 334.42033358193777 194.17746117486539 L 339.39965421384494 195.33290907349814 L 344.9647772730354 196.34472344529672 L 351.26215336632987 197.2096271817085 L 358.43823310054916 197.92141984896577 L 366.9323682961557 198.49393627676866 L 377.4768119872533 198.93395868892384 L 391.53607024205024 199.24526780264898 L 412.9178588378873 199.43124582128914 L 436.64285714285705 199.48764908747475 L 436.64285714285705 399.5 L 128.07142857142856 399.5 L 128.07142857142856 101.8065313372179" fill-opacity="0.4"/><path fill="#2d70b3" stroke="none" paint-order="stroke fill markers" d="" fill-opacity="0.4"/><path fill="#2d70b3" stroke="none" paint-order="stroke fill markers" d="" fill-opacity="0.4"/><path fill="#2d70b3" stroke="none" paint-order="stroke fill markers" d="" fill-opacity="0.4"/><path fill="#2d70b3" stroke="none" paint-order="stroke fill markers" d="" fill-opacity="0.4"/><g><path fill="none" stroke="#2d70b3" class="dcg-svg-curve" paint-order="fill stroke markers" d=" M 128.07142857142856 101.8065313372179 L 131.8791443487694 107.80667748498388 M 131.8791443487694 107.80667748498388 L 134.13564575445295 110.97977985242665 M 138.3986451961869 116.52823923470127 L 139.49457590345108 117.88902053672416 M 139.49457590345108 117.88902053672416 L 143.3022916807919 122.0097793701654 M 143.3022916807919 122.0097793701654 L 145.96440506663555 124.49539082844613 M 151.44891032088924 128.831521712948 L 153.4073835514272 130.1496912023951 M 153.4073835514272 130.1496912023951 L 156.48284629466403 131.86257935166162 M 156.48284629466403 131.86257935166162 L 159.55830903790087 133.23781611974835 M 159.55830903790087 133.23781611974835 L 161.21340186439733 133.80632274342025 M 168.02338024341563 135.35904166886203 L 168.34534544714896 135.40784965946096 M 168.34534544714896 135.40784965946096 L 171.27435758356498 135.5865797391735 M 171.27435758356498 135.5865797391735 L 174.20336971998103 135.51108136510175 M 174.20336971998103 135.51108136510175 L 177.2788324632178 135.17089020572018 M 177.2788324632178 135.17089020572018 L 178.9628481793686 134.8427361591573 M 185.69367829120708 132.95645276498192 L 187.38392433385312 132.35255787625073 M 187.38392433385312 132.35255787625073 L 191.19164011119398 130.69953774905377 M 191.19164011119398 130.69953774905377 L 195.43870770899719 128.54197838620848 M 195.43870770899719 128.54197838620848 L 195.69022416840514 128.39684222306462 M 201.7192144285619 124.84212187393068 L 206.8618550410197 121.57530294452567 M 206.8618550410197 121.57530294452567 L 210.991893576145 118.92462480883312 M 216.8829614964968 115.1437097399904 L 219.89595904807103 113.20995375565047 M 219.89595904807103 113.20995375565047 L 224.28947725269506 110.80866545887153 M 224.28947725269506 110.80866545887153 L 226.48519765675042 109.80816068512578 M 233.09526550856737 107.55063664390497 L 233.66231608922635 107.4077481651779 M 233.66231608922635 107.4077481651779 L 236.15197640518 107.04975533670529 M 236.15197640518 107.04975533670529 L 238.49518611431282 106.97023531073978 M 238.49518611431282 106.97023531073978 L 240.83839582344567 107.16093772313246 M 240.83839582344567 107.16093772313246 L 243.03515492575764 107.60053518314538 M 243.03515492575764 107.60053518314538 L 243.95333718928845 107.89462133807498 M 250.2251662030993 110.93980919133399 L 252.40799376228892 112.51154295103504 M 252.40799376228892 112.51154295103504 L 255.19055529188415 114.92271138196821 M 255.19055529188415 114.92271138196821 L 258.26601803512096 118.0604047221276 M 258.26601803512096 118.0604047221276 L 258.4180753119066 118.2391918757232 M 262.8709226092873 123.63736780250727 L 265.8814495898026 127.62608485428905 M 265.8814495898026 127.62608485428905 L 269.28406701416367 132.57122861810527 M 273.2234931736788 138.35740703727288 L 279.37409225916616 147.47717298216435 M 283.28810985902174 153.28066040164072 L 287.702590006102 159.82620582740833 M 287.702590006102 159.82620582740833 L 289.5995856949699 162.28427979004465 M 293.96742951056274 167.75160663393532 L 297.0754288426334 171.36126664069786 M 297.0754288426334 171.36126664069786 L 301.32249644043657 175.72885314122868 M 301.32249644043657 175.72885314122868 L 301.42981340502376 175.82575825723023 M 306.69553911194464 180.43363869107623 L 309.37727981558066 182.54545373005575 M 309.37727981558066 182.54545373005575 L 313.33144619974235 185.24260525575366 M 313.33144619974235 185.24260525575366 L 315.74714733672874 186.6586185035749 M 321.9721611668595 189.84868270993076 L 325.340395959048 191.27421835470054 M 325.340395959048 191.27421835470054 L 329.73391416367207 192.824172743137 M 329.73391416367207 192.824172743137 L 332.3121881066741 193.5686960112193 M 339.1016667290349 195.2637612843527 L 339.39965421384494 195.33290907349814 M 339.39965421384494 195.33290907349814 L 344.9647772730354 196.34472344529672 M 344.9647772730354 196.34472344529672 L 349.9556639149572 197.0301893346855 M 356.9156560177557 197.77039599708485 L 358.43823310054916 197.92141984896577 M 358.43823310054916 197.92141984896577 L 366.9323682961557 198.49393627676866 M 366.9323682961557 198.49393627676866 L 367.8880802322288 198.53381838755195 M 374.8819932289959 198.82567621878482 L 377.4768119872533 198.93395868892384 M 377.4768119872533 198.93395868892384 L 385.8776756788071 199.1199760010001 M 392.8762380091276 199.25692453308804 L 403.8758219325979 199.35259851353098 M 410.87555715662444 199.41348195563103 L 412.9178588378873 199.43124582128914 M 412.9178588378873 199.43124582128914 L 421.8754545895786 199.45254140374067 M 428.8754348079369 199.46918299597493 L 436.64285714285705 199.48764908747475" stroke-linecap="round" stroke-linejoin="round" stroke-miterlimit="10" stroke-width="2.5" stroke-opacity="0.9" stroke-dasharray=""/></g></g></g><g id="labels-4bd52135"/></g></svg>