<svg version="1.1" xmlns="http://www.w3.org/2000/svg" xmlns:xlink="http://www.w3.org/1999/xlink" width="600" height="400"><defs/><g transform="scale(1,1)"><g id="background-151bec84"><rect fill="white" stroke="none" x="0" y="0" width="600" height="400" class="dcg-svg-background"/></g><g id="background-images-151bec84"/><g id="graphpaper-151bec84"><g id="grid-151bec84"><g><path fill="none" stroke="rgb(0,0,0)" class="dcg-svg-minor-gridline" paint-order="fill stroke markers" d=" M -0.5 0 L -0.5 400" stroke-opacity="0.12" stroke-miterlimit="10" stroke-dasharray=""/><path fill="none" stroke="rgb(0,0,0)" class="dcg-svg-minor-gridline" paint-order="fill stroke markers" d=" M 29.5 0 L 29.5 400" stroke-opacity="0.12" stroke-miterlimit="10" stroke-dasharray=""/><path fill="none" stroke="rgb(0,0,0)" class="dcg-svg-minor-gridline" paint-order="fill stroke markers" d=" M 59.5 0 L 59.5 400" stroke-opacity="0.12" stroke-miterlimit="10" stroke-dasharray=""/><path fill="none" stroke="rgb(0,0,0)" class="dcg-svg-minor-gridline" paint-order="fill stroke markers" d=" M 89.5 0 L 89.5 400" stroke-opacity="0.12" stroke-miterlimit="10" stroke-dasharray=""/><path fill="none" stroke="rgb(0,0,0)" class="dcg-svg-minor-gridline" paint-order="fill stroke markers" d=" M 119.5 0 L 119.5 400" stroke-opacity="0.12" stroke-miterlimit="10" stroke-dasharray=""/><path fill="none" stroke="rgb(0,0,0)" class="dcg-svg-minor-gridline" paint-order="fill stroke markers" d=" M 149.5 0 L 149.5 400" stroke-opacity="0.12" stroke-miterlimit="10" stroke-dasharray=""/><path fill="none" stroke="rgb(0,0,0)" class="dcg-svg-minor-gridline" paint-order="fill stroke markers" d=" M 179.5 0 L 179.5 400" stroke-opacity="0.12" stroke-miterlimit="10" stroke-dasharray=""/><path fill="none" stroke="rgb(0,0,0)" class="dcg-svg-minor-gridline" paint-order="fill stroke markers" d=" M 209.5 0 L 209.5 400" stroke-opacity="0.12" stroke-miterlimit="10" stroke-dasharray=""/><path fill="none" stroke="rgb(0,0,0)" class="dcg-svg-minor-gridline" paint-order="fill stroke markers" d=" M 239.5 0 L 239.5 400" stroke-opacity="0.12" stroke-miterlimit="10" stroke-dasharray=""/><path fill="none" stroke="rgb(0,0,0)" class="dcg-svg-minor-gridline" paint-order="fill stroke markers" d=" M 269.5 0 L 269.5 400" stroke-opacity="0.12" stroke-miterlimit="10" stroke-dasharray=""/><path fill="none" stroke="rgb(0,0,0)" class="dcg-svg-minor-gridline" paint-order="fill stroke markers" d=" M 329.5 0 L 329.5 400" stroke-opacity="0.12" stroke-miterlimit="10" stroke-dasharray=""/><path fill="none" stroke="rgb(0,0,0)" class="dcg-svg-minor-gridline" paint-order="fill stroke markers" d=" M 359.5 0 L 359.5 400" stroke-opacity="0.12" stroke-miterlimit="10" stroke-dasharray=""/><path fill="none" stroke="rgb(0,0,0)" class="dcg-svg-minor-gridline" paint-order="fill stroke markers" d=" M 389.5 0 L 389.5 400" stroke-opacity="0.12" stroke-miterlimit="10" stroke-dasharray=""/><path fill="none" stroke="rgb(0,0,0)" class="dcg-svg-minor-gridline" paint-order="fill stroke markers" d=" M 419.5 0 L 419.5 400" stroke-opacity="0.12" stroke-miterlimit="10" stroke-dasharray=""/><path fill="none" stroke="rgb(0,0,0)" class="dcg-svg-minor-gridline" paint-order="fill stroke markers" d=" M 449.5 0 L 449.5 400" stroke-opacity="0.12" stroke-miterlimit="10" stroke-dasharray=""/><path fill="none" stroke="rgb(0,0,0)" class="dcg-svg-minor-gridline" paint-order="fill stroke markers" d=" M 479.5 0 L 479.5 400" stroke-opacity="0.12" stroke-miterlimit="10" stroke-dasharray=""/><path fill="none" stroke="rgb(0,0,0)" class="dcg-svg-minor-gridline" paint-order="fill stroke markers" d=" M 509.5 0 L 509.5 400" stroke-opacity="0.12" stroke-miterlimit="10" stroke-dasharray=""/><path fill="none" stroke="rgb(0,0,0)" class="dcg-svg-minor-gridline" paint-order="fill stroke markers" d=" M 539.5 0 L 539.5 400" stroke-opacity="0.12" stroke-miterlimit="10" stroke-dasharray=""/><path fill="none" stroke="rgb(0,0,0)" class="dcg-svg-minor-gridline" paint-order="fill stroke markers" d=" M 569.5 0 L 569.5 400" stroke-opacity="0.12" stroke-miterlimit="10" stroke-dasharray=""/><path fill="none" stroke="rgb(0,0,0)" class="dcg-svg-minor-gridline" paint-order="fill stroke markers" d=" M 0 370.5 L 600 370.5" stroke-opacity="0.12" stroke-miterlimit="10" stroke-dasharray=""/><path fill="none" stroke="rgb(0,0,0)" class="dcg-svg-minor-gridline" paint-order="fill stroke markers" d=" M 0 342.5 L 600 342.5" stroke-opacity="0.12" stroke-miterlimit="10" stroke-dasharray=""/><path fill="none" stroke="rgb(0,0,0)" class="dcg-svg-minor-gridline" paint-order="fill stroke markers" d=" M 0 313.5 L 600 313.5" stroke-opacity="0.12" stroke-miterlimit="10" stroke-dasharray=""/><path fill="none" stroke="rgb(0,0,0)" class="dcg-svg-minor-gridline" paint-order="fill stroke markers" d=" M 0 285.5 L 600 285.5" stroke-opacity="0.12" stroke-miterlimit="10" stroke-dasharray=""/><path fill="none" stroke="rgb(0,0,0)" class="dcg-svg-minor-gridline" paint-order="fill stroke markers" d=" M 0 256.5 L 600 256.5" stroke-opacity="0.12" stroke-miterlimit="10" stroke-dasharray=""/><path fill="none" stroke="rgb(0,0,0)" class="dcg-svg-minor-gridline" paint-order="fill stroke markers" d=" M 0 228.5 L 600 228.5" stroke-opacity="0.12" stroke-miterlimit="10" stroke-dasharray=""/><path fill="none" stroke="rgb(0,0,0)" class="dcg-svg-minor-gridline" paint-order="fill stroke markers" d=" M 0 170.5 L 600 170.5" stroke-opacity="0.12" stroke-miterlimit="10" stroke-dasharray=""/><path fill="none" stroke="rgb(0,0,0)" class="dcg-svg-minor-gridline" paint-order="fill stroke markers" d=" M 0 142.5 L 600 142.5" stroke-opacity="0.12" stroke-miterlimit="10" stroke-dasharray=""/><path fill="none" stroke="rgb(0,0,0)" class="dcg-svg-minor-gridline" paint-order="fill stroke markers" d=" M 0 113.5 L 600 113.5" stroke-opacity="0.12" stroke-miterlimit="10" stroke-dasharray=""/><path fill="none" stroke="rgb(0,0,0)" class="dcg-svg-minor-gridline" paint-order="fill stroke markers" d=" M 0 85.5 L 600 85.5" stroke-opacity="0.12" stroke-miterlimit="10" stroke-dasharray=""/><path fill="none" stroke="rgb(0,0,0)" class="dcg-svg-minor-gridline" paint-order="fill stroke markers" d=" M 0 56.5 L 600 56.5" stroke-opacity="0.12" stroke-miterlimit="10" stroke-dasharray=""/><path fill="none" stroke="rgb(0,0,0)" class="dcg-svg-minor-gridline" paint-order="fill stroke markers" d=" M 0 28.5 L 600 28.5" stroke-opacity="0.12" stroke-miterlimit="10" stroke-dasharray=""/><path fill="none" stroke="rgb(0,0,0)" class="dcg-svg-minor-gridline" paint-order="fill stroke markers" d=" M 0 -0.5 L 600 -0.5" stroke-opacity="0.12" stroke-miterlimit="10" stroke-dasharray=""/><path fill="none" stroke="rgb(0,0,0)" class="dcg-svg-major-gridline" paint-order="fill stroke markers" d=" M -0.5 0 L -0.5 400" stroke-opacity="0.31818181818181823" stroke-miterlimit="10" stroke-dasharray=""/><path fill="none" stroke="rgb(0,0,0)" class="dcg-svg-major-gridline" paint-order="fill stroke markers" d=" M 149.5 0 L 149.5 400" stroke-opacity="0.31818181818181823" stroke-miterlimit="10" stroke-dasharray=""/><path fill="none" stroke="rgb(0,0,0)" class="dcg-svg-major-gridline" paint-order="fill stroke markers" d=" M 449.5 0 L 449.5 400" stroke-opacity="0.31818181818181823" stroke-miterlimit="10" stroke-dasharray=""/><path fill="none" stroke="rgb(0,0,0)" class="dcg-svg-major-gridline" paint-order="fill stroke markers" d=" M 0 342.5 L 600 342.5" stroke-opacity="0.31818181818181823" stroke-miterlimit="10" stroke-dasharray=""/><path fill="none" stroke="rgb(0,0,0)" class="dcg-svg-major-gridline" paint-order="fill stroke markers" d=" M 0 56.5 L 600 56.5" stroke-opacity="0.31818181818181823" stroke-miterlimit="10" stroke-dasharray=""/></g></g><g id="axis-151bec84"><g id="yaxis-151bec84"><title>Y axis</title><path fill="none" stroke="rgb(0,0,0)" class="dcg-svg-axis-line" paint-order="fill stroke markers" d=" M 299.75 0 L 299.75 400" stroke-opacity="0.9" stroke-miterlimit="10" stroke-width="1.5" stroke-dasharray=""/></g><g id="xaxis-151bec84"><title>X axis</title><path fill="none" stroke="rgb(0,0,0)" class="dcg-svg-axis-line" paint-order="fill stroke markers" d=" M 0 199.75 L 600 199.75" stroke-opacity="0.9" stroke-miterlimit="10" stroke-width="1.5" stroke-dasharray=""/></g><g><g class="dcg-svg-axis-value"><text fill="none" stroke="#ffffff" font-family="Arial" font-size="14px" font-style="normal" font-weight="normal" text-decoration="normal" x="291.10693359375" y="215.808" text-anchor="middle" stroke-miterlimit="2" stroke-width="3" stroke-dasharray="">0</text><text fill="#000000" stroke="none" font-family="Arial" font-size="14px" font-style="normal" font-weight="normal" text-decoration="normal" x="291.10693359375" y="215.808" text-anchor="middle">0</text></g><g class="dcg-svg-axis-value dcg-svg-offcenter-axis-value"><text fill="none" stroke="#ffffff" font-family="Arial" font-size="14px" font-style="normal" font-weight="normal" text-decoration="normal" x="13.1171875" y="215.808" text-anchor="middle" stroke-miterlimit="2" stroke-width="3" stroke-dasharray="">-10</text><text fill="#000000" stroke="none" font-family="Arial" font-size="14px" font-style="normal" font-weight="normal" text-decoration="normal" x="13.1171875" y="215.808" text-anchor="middle">-10</text></g><g class="dcg-svg-axis-value"><text fill="none" stroke="#ffffff" font-family="Arial" font-size="14px" font-style="normal" font-weight="normal" text-decoration="normal" x="147.6689453125" y="215.808" text-anchor="middle" stroke-miterlimit="2" stroke-width="3" stroke-dasharray="">-5</text><text fill="#000000" stroke="none" font-family="Arial" font-size="14px" font-style="normal" font-weight="normal" text-decoration="normal" x="147.6689453125" y="215.808" text-anchor="middle">-5</text></g><g class="dcg-svg-axis-value"><text fill="none" stroke="#ffffff" font-family="Arial" font-size="14px" font-style="normal" font-weight="normal" text-decoration="normal" x="450" y="215.808" text-anchor="middle" stroke-miterlimit="2" stroke-width="3" stroke-dasharray="">5</text><text fill="#000000" stroke="none" font-family="Arial" font-size="14px" font-style="normal" font-weight="normal" text-decoration="normal" x="450" y="215.808" text-anchor="middle">5</text></g><g class="dcg-svg-axis-value dcg-svg-offcenter-axis-value"><text fill="none" stroke="#ffffff" font-family="Arial" font-size="14px" font-style="normal" font-weight="normal" text-decoration="normal" x="589.2138671875" y="215.808" text-anchor="middle" stroke-miterlimit="2" stroke-width="3" stroke-dasharray="">10</text><text fill="#000000" stroke="none" font-family="Arial" font-size="14px" font-style="normal" font-weight="normal" text-decoration="normal" x="589.2138671875" y="215.808" text-anchor="middle">10</text></g><g class="dcg-svg-axis-value"><text fill="none" stroke="#ffffff" font-family="Arial" font-size="14px" font-style="normal" font-weight="normal" text-decoration="normal" x="288.77587890625" y="346.6651428571428" text-anchor="middle" stroke-miterlimit="2" stroke-width="3" stroke-dasharray="">-5</text><text fill="#000000" stroke="none" font-family="Arial" font-size="14px" font-style="normal" font-weight="normal" text-decoration="normal" x="288.77587890625" y="346.6651428571428" text-anchor="middle">-5</text></g><g class="dcg-svg-axis-value"><text fill="none" stroke="#ffffff" font-family="Arial" font-size="14px" font-style="normal" font-weight="normal" text-decoration="normal" x="291.10693359375" y="60.95085714285717" text-anchor="middle" stroke-miterlimit="2" stroke-width="3" stroke-dasharray="">5</text><text fill="#000000" stroke="none" font-family="Arial" font-size="14px" font-style="normal" font-weight="normal" text-decoration="normal" x="291.10693359375" y="60.95085714285717" text-anchor="middle">5</text></g></g></g></g><g id="expressions-151bec84"><g id="sketch-151bec84"><title>Expression 1</title><path fill="#2d70b3" stroke="none" paint-order="stroke fill markers" d="" fill-opacity="0.4"/><g><path fill="none" stroke="#2d70b3" class="dcg-svg-curve" paint-order="fill stroke markers" d=" M -0.5 51.061210131935354 L -0.5 51.061210131935354 L 1.697265625 46.61271298949072 L 3.748046875 43.128445224789175 L 5.798828125 40.297209044533304 L 7.703125 38.25720278634202 L 9.4609375 36.878790907401196 L 11.072265625 36.040213354406376 L 12.537109375 35.629006321802535 L 13.85546875 35.5429145639539 L 15.173828125 35.72356215476918 L 16.4921875 36.16818326149411 L 17.95703125 36.96779738175155 L 19.568359375 38.212822238311446 L 21.47265625 40.167078188276264 L 23.5234375 42.84007002099281 L 25.720703125 46.33421903936858 L 28.064453125 50.74721173153648 L 30.5546875 56.16810784342931 L 33.19140625 62.67293159078196 L 36.12109375 70.74294205157429 L 39.34375 80.52959932780226 L 43.005859375 92.63466670397753 L 47.400390625 108.24900690637384 L 53.259765625 130.27816646422218 L 67.322265625 183.5847267436568 L 72.009765625 199.9248938607511 L 75.96484375 212.6556407273759 L 79.48046875 222.98705316750048 L 82.703125 231.53438430256037 L 85.6328125 238.46903765590093 L 88.416015625 244.27287404363767 L 91.052734375 249.03492175158206 L 93.54296875 252.85415504988967 L 95.88671875 255.83477757673495 L 98.23046875 258.21331784303356 L 100.28125 259.79869783941035 L 102.185546875 260.85727249985644 L 103.943359375 261.4832405790928 L 105.5546875 261.76382176419804 L 107.166015625 261.76753475435646 L 108.77734375 261.49874038101154 L 110.388671875 260.96261575260417 L 112.146484375 260.0798939867303 L 114.05078125 258.7828222308377 L 116.248046875 256.8618369107354 L 118.73828125 254.16112875741928 L 121.375 250.7322580246544 L 124.158203125 246.52652501239868 L 127.234375 241.24536894295508 L 130.603515625 234.79402929595992 L 134.55859375 226.48165508747388 L 139.24609375 215.8505051395117 L 146.130859375 199.36326137226993 L 156.23828125 175.22369249926075 L 161.21875 164.15727564722772 L 165.466796875 155.47113926009933 L 169.275390625 148.41351171250926 L 172.64453125 142.82637913836902 L 175.8671875 138.11072319192493 L 178.943359375 134.21679647109931 L 181.873046875 131.08095142111216 L 184.65625 128.63059761320523 L 187.146484375 126.87848213981613 L 189.490234375 125.60854915248609 L 191.6875 124.74854322347397 L 193.73828125 124.22977682825604 L 195.7890625 123.9791039775784 L 197.83984375 123.98912914327764 L 199.890625 124.25104569582766 L 202.087890625 124.79965209944334 L 204.431640625 125.67485807500424 L 206.921875 126.91200865971365 L 209.705078125 128.6392388265212 L 212.78125 130.92758373719874 L 216.443359375 134.09791613899506 L 220.837890625 138.41278616887712 L 226.697265625 144.7472690116219 L 242.6640625 162.31901815492154 L 247.498046875 166.91980180281269 L 251.599609375 170.33824540149604 L 255.26171875 172.95170813157134 L 258.630859375 174.9567981809939 L 261.70703125 176.4362675716267 L 264.63671875 177.52611140378545 L 267.419921875 178.2719554938079 L 270.203125 178.73931479988644 L 272.986328125 178.9360311196558 L 275.76953125 178.87402392835585 L 278.69921875 178.54664262014293 L 281.775390625 177.938097458888 L 285.14453125 176.99669231882507 L 288.953125 175.64370652729707 L 293.640625 173.66570052903367 L 301.697265625 169.88505965072727 L 308.435546875 166.86090118431622 L 312.830078125 165.19729597699126 L 316.4921875 164.10066677588438 L 319.71484375 163.40635164142128 L 322.791015625 163.0155739362566 L 325.720703125 162.91569802731482 L 328.50390625 163.08455007925818 L 331.287109375 163.52297905264 L 334.0703125 164.23926484530526 L 336.853515625 165.2374556187818 L 339.783203125 166.59233335215032 L 342.859375 168.34446065185404 L 346.228515625 170.63532200520874 L 349.890625 173.53631286951602 L 353.9921875 177.23793609595765 L 358.97265625 182.25951783379486 L 365.564453125 189.49698517951845 L 378.30859375 203.59549199497005 L 383.142578125 208.2954747659516 L 386.951171875 211.5078438828819 L 390.173828125 213.8005479475267 L 393.103515625 215.4913960417761 L 395.740234375 216.65621706253853 L 398.083984375 217.3837974858017 L 400.28125 217.7860460908458 L 402.26855378445185 217.9053056512985 L 404.3828125 217.767227045185 L 406.43359375 217.36416978373566 L 408.484375 216.68945553663855 L 410.681640625 215.65940805902483 L 413.025390625 214.20596998788105 L 415.515625 212.25802330180005 L 418.15234375 209.74313000749106 L 421.08203125 206.4099109769665 L 424.158203125 202.31513968759248 L 427.380859375 197.39928074467346 L 430.75 191.61759688187686 L 434.412109375 184.65483449603607 L 438.513671875 176.12629340494445 L 443.201171875 165.62038198061583 L 449.5 150.66698675262666 L 462.09765625 120.6037582392778 L 466.638671875 110.66915260692235 L 470.447265625 103.0589664283321 L 473.81640625 97.02088245411221 L 476.892578125 92.1754398469975 L 479.67578125 88.40883621850315 L 482.3125 85.43232520903484 L 484.802734375 83.18843809999265 L 487 81.69201622995536 L 488.904296875 80.77742447540345 L 490.662109375 80.2583504432107 L 492.2734375 80.06339668920714 L 493.884765625 80.14222167440585 L 495.49609375 80.49895913278664 L 497.107421875 81.13689490514435 L 498.865234375 82.15634566205489 L 500.76953125 83.64382501410927 L 502.8203125 85.69203318225948 L 505.1640625 88.59766645902556 L 507.5078125 92.09989548576198 L 509.998046875 96.46319720248829 L 512.634765625 101.78510549780827 L 515.41796875 108.15615688500827 L 518.34765625 115.65501724311213 L 521.5703125 124.77603911183394 L 525.0859375 135.66733481504633 L 529.041015625 148.93296969559077 L 533.728515625 165.75905473797508 L 540.173828125 190.14619079794033 L 552.0390625 235.2129996395321 L 556.7265625 251.7176677661882 L 560.53515625 264.08369644981474 L 563.904296875 274.0338825621535 L 566.98046875 282.16835368474943 L 569.763671875 288.6499134257643 L 572.25390625 293.67719914599786 L 574.59765625 297.696137352387 L 576.794921875 300.8020877693548 L 578.845703125 303.0981386899814 L 580.75 304.6912499702586 L 582.361328125 305.6234002071598 L 583.826171875 306.1335807023737 L 585.14453125 306.3142282931889 L 586.462890625 306.22813653534035 L 587.78125 305.8730649214019 L 589.24609375 305.1610137558585 L 590.7109375 304.1132405278513 L 592.46875 302.4118095299286 L 594.373046875 300.0224047230675 L 596.27734375 297.06776183621093 L 598.328125 293.2598225166734 L 599.5 290.7959327252075" stroke-linecap="round" stroke-linejoin="round" stroke-miterlimit="10" stroke-width="2.5" stroke-opacity="0.9" stroke-dasharray=""/></g></g></g><g id="labels-151bec84"/></g></svg>