<svg version="1.1" xmlns="http://www.w3.org/2000/svg" xmlns:xlink="http://www.w3.org/1999/xlink" width="600" height="400"><defs/><g transform="scale(1,1)"><g id="background-a5a01a2c"><rect fill="white" stroke="none" x="0" y="0" width="600" height="400" class="dcg-svg-background"/></g><g id="background-images-a5a01a2c"/><g id="graphpaper-a5a01a2c"><g id="grid-a5a01a2c"><g><path fill="none" stroke="rgb(0,0,0)" class="dcg-svg-minor-gridline" paint-order="fill stroke markers" d=" M -0.5 0 L -0.5 400" stroke-opacity="0.12" stroke-miterlimit="10" stroke-dasharray=""/><path fill="none" stroke="rgb(0,0,0)" class="dcg-svg-minor-gridline" paint-order="fill stroke markers" d=" M 29.5 0 L 29.5 400" stroke-opacity="0.12" stroke-miterlimit="10" stroke-dasharray=""/><path fill="none" stroke="rgb(0,0,0)" class="dcg-svg-minor-gridline" paint-order="fill stroke markers" d=" M 59.5 0 L 59.5 400" stroke-opacity="0.12" stroke-miterlimit="10" stroke-dasharray=""/><path fill="none" stroke="rgb(0,0,0)" class="dcg-svg-minor-gridline" paint-order="fill stroke markers" d=" M 89.5 0 L 89.5 400" stroke-opacity="0.12" stroke-miterlimit="10" stroke-dasharray=""/><path fill="none" stroke="rgb(0,0,0)" class="dcg-svg-minor-gridline" paint-order="fill stroke markers" d=" M 119.5 0 L 119.5 400" stroke-opacity="0.12" stroke-miterlimit="10" stroke-dasharray=""/><path fill="none" stroke="rgb(0,0,0)" class="dcg-svg-minor-gridline" paint-order="fill stroke markers" d=" M 149.5 0 L 149.5 400" stroke-opacity="0.12" stroke-miterlimit="10" stroke-dasharray=""/><path fill="none" stroke="rgb(0,0,0)" class="dcg-svg-minor-gridline" paint-order="fill stroke markers" d=" M 179.5 0 L 179.5 400" stroke-opacity="0.12" stroke-miterlimit="10" stroke-dasharray=""/><path fill="none" stroke="rgb(0,0,0)" class="dcg-svg-minor-gridline" paint-order="fill stroke markers" d=" M 209.5 0 L 209.5 400" stroke-opacity="0.12" stroke-miterlimit="10" stroke-dasharray=""/><path fill="none" stroke="rgb(0,0,0)" class="dcg-svg-minor-gridline" paint-order="fill stroke markers" d=" M 239.5 0 L 239.5 400" stroke-opacity="0.12" stroke-miterlimit="10" stroke-dasharray=""/><path fill="none" stroke="rgb(0,0,0)" class="dcg-svg-minor-gridline" paint-order="fill stroke markers" d=" M 269.5 0 L 269.5 400" stroke-opacity="0.12" stroke-miterlimit="10" stroke-dasharray=""/><path fill="none" stroke="rgb(0,0,0)" class="dcg-svg-minor-gridline" paint-order="fill stroke markers" d=" M 329.5 0 L 329.5 400" stroke-opacity="0.12" stroke-miterlimit="10" stroke-dasharray=""/><path fill="none" stroke="rgb(0,0,0)" class="dcg-svg-minor-gridline" paint-order="fill stroke markers" d=" M 359.5 0 L 359.5 400" stroke-opacity="0.12" stroke-miterlimit="10" stroke-dasharray=""/><path fill="none" stroke="rgb(0,0,0)" class="dcg-svg-minor-gridline" paint-order="fill stroke markers" d=" M 389.5 0 L 389.5 400" stroke-opacity="0.12" stroke-miterlimit="10" stroke-dasharray=""/><path fill="none" stroke="rgb(0,0,0)" class="dcg-svg-minor-gridline" paint-order="fill stroke markers" d=" M 419.5 0 L 419.5 400" stroke-opacity="0.12" stroke-miterlimit="10" stroke-dasharray=""/><path fill="none" stroke="rgb(0,0,0)" class="dcg-svg-minor-gridline" paint-order="fill stroke markers" d=" M 449.5 0 L 449.5 400" stroke-opacity="0.12" stroke-miterlimit="10" stroke-dasharray=""/><path fill="none" stroke="rgb(0,0,0)" class="dcg-svg-minor-gridline" paint-order="fill stroke markers" d=" M 479.5 0 L 479.5 400" stroke-opacity="0.12" stroke-miterlimit="10" stroke-dasharray=""/><path fill="none" stroke="rgb(0,0,0)" class="dcg-svg-minor-gridline" paint-order="fill stroke markers" d=" M 509.5 0 L 509.5 400" stroke-opacity="0.12" stroke-miterlimit="10" stroke-dasharray=""/><path fill="none" stroke="rgb(0,0,0)" class="dcg-svg-minor-gridline" paint-order="fill stroke markers" d=" M 539.5 0 L 539.5 400" stroke-opacity="0.12" stroke-miterlimit="10" stroke-dasharray=""/><path fill="none" stroke="rgb(0,0,0)" class="dcg-svg-minor-gridline" paint-order="fill stroke markers" d=" M 569.5 0 L 569.5 400" stroke-opacity="0.12" stroke-miterlimit="10" stroke-dasharray=""/><path fill="none" stroke="rgb(0,0,0)" class="dcg-svg-minor-gridline" paint-order="fill stroke markers" d=" M 0 370.5 L 600 370.5" stroke-opacity="0.12" stroke-miterlimit="10" stroke-dasharray=""/><path fill="none" stroke="rgb(0,0,0)" class="dcg-svg-minor-gridline" paint-order="fill stroke markers" d=" M 0 342.5 L 600 342.5" stroke-opacity="0.12" stroke-miterlimit="10" stroke-dasharray=""/><path fill="none" stroke="rgb(0,0,0)" class="dcg-svg-minor-gridline" paint-order="fill stroke markers" d=" M 0 313.5 L 600 313.5" stroke-opacity="0.12" stroke-miterlimit="10" stroke-dasharray=""/><path fill="none" stroke="rgb(0,0,0)" class="dcg-svg-minor-gridline" paint-order="fill stroke markers" d=" M 0 285.5 L 600 285.5" stroke-opacity="0.12" stroke-miterlimit="10" stroke-dasharray=""/><path fill="none" stroke="rgb(0,0,0)" class="dcg-svg-minor-gridline" paint-order="fill stroke markers" d=" M 0 256.5 L 600 256.5" stroke-opacity="0.12" stroke-miterlimit="10" stroke-dasharray=""/><path fill="none" stroke="rgb(0,0,0)" class="dcg-svg-minor-gridline" paint-order="fill stroke markers" d=" M 0 228.5 L 600 228.5" stroke-opacity="0.12" stroke-miterlimit="10" stroke-dasharray=""/><path fill="none" stroke="rgb(0,0,0)" class="dcg-svg-minor-gridline" paint-order="fill stroke markers" d=" M 0 170.5 L 600 170.5" stroke-opacity="0.12" stroke-miterlimit="10" stroke-dasharray=""/><path fill="none" stroke="rgb(0,0,0)" class="dcg-svg-minor-gridline" paint-order="fill stroke markers" d=" M 0 142.5 L 600 142.5" stroke-opacity="0.12" stroke-miterlimit="10" stroke-dasharray=""/><path fill="none" stroke="rgb(0,0,0)" class="dcg-svg-minor-gridline" paint-order="fill stroke markers" d=" M 0 113.5 L 600 113.5" stroke-opacity="0.12" stroke-miterlimit="10" stroke-dasharray=""/><path fill="none" stroke="rgb(0,0,0)" class="dcg-svg-minor-gridline" paint-order="fill stroke markers" d=" M 0 85.5 L 600 85.5" stroke-opacity="0.12" stroke-miterlimit="10" stroke-dasharray=""/><path fill="none" stroke="rgb(0,0,0)" class="dcg-svg-minor-gridline" paint-order="fill stroke markers" d=" M 0 56.5 L 600 56.5" stroke-opacity="0.12" stroke-miterlimit="10" stroke-dasharray=""/><path fill="none" stroke="rgb(0,0,0)" class="dcg-svg-minor-gridline" paint-order="fill stroke markers" d=" M 0 28.5 L 600 28.5" stroke-opacity="0.12" stroke-miterlimit="10" stroke-dasharray=""/><path fill="none" stroke="rgb(0,0,0)" class="dcg-svg-minor-gridline" paint-order="fill stroke markers" d=" M 0 -0.5 L 600 -0.5" stroke-opacity="0.12" stroke-miterlimit="10" stroke-dasharray=""/><path fill="none" stroke="rgb(0,0,0)" class="dcg-svg-major-gridline" paint-order="fill stroke markers" d=" M -0.5 0 L -0.5 400" stroke-opacity="0.31818181818181823" stroke-miterlimit="10" stroke-dasharray=""/><path fill="none" stroke="rgb(0,0,0)" class="dcg-svg-major-gridline" paint-order="fill stroke markers" d=" M 149.5 0 L 149.5 400" stroke-opacity="0.31818181818181823" stroke-miterlimit="10" stroke-dasharray=""/><path fill="none" stroke="rgb(0,0,0)" class="dcg-svg-major-gridline" paint-order="fill stroke markers" d=" M 449.5 0 L 449.5 400" stroke-opacity="0.31818181818181823" stroke-miterlimit="10" stroke-dasharray=""/><path fill="none" stroke="rgb(0,0,0)" class="dcg-svg-major-gridline" paint-order="fill stroke markers" d=" M 0 342.5 L 600 342.5" stroke-opacity="0.31818181818181823" stroke-miterlimit="10" stroke-dasharray=""/><path fill="none" stroke="rgb(0,0,0)" class="dcg-svg-major-gridline" paint-order="fill stroke markers" d=" M 0 56.5 L 600 56.5" stroke-opacity="0.31818181818181823" stroke-miterlimit="10" stroke-dasharray=""/></g></g><g id="axis-a5a01a2c"><g id="yaxis-a5a01a2c"><title>Y axis</title><path fill="none" stroke="rgb(0,0,0)" class="dcg-svg-axis-line" paint-order="fill stroke markers" d=" M 299.75 0 L 299.75 400" stroke-opacity="0.9" stroke-miterlimit="10" stroke-width="1.5" stroke-dasharray=""/></g><g id="xaxis-a5a01a2c"><title>X axis</title><path fill="none" stroke="rgb(0,0,0)" class="dcg-svg-axis-line" paint-order="fill stroke markers" d=" M 0 199.75 L 600 199.75" stroke-opacity="0.9" stroke-miterlimit="10" stroke-width="1.5" stroke-dasharray=""/></g><g><g class="dcg-svg-axis-value"><text fill="none" stroke="#ffffff" font-family="Arial" font-size="14px" font-style="normal" font-weight="normal" text-decoration="normal" x="291.10693359375" y="215.808" text-anchor="middle" stroke-miterlimit="2" stroke-width="3" stroke-dasharray="">0</text><text fill="#000000" stroke="none" font-family="Arial" font-size="14px" font-style="normal" font-weight="normal" text-decoration="normal" x="291.10693359375" y="215.808" text-anchor="middle">0</text></g><g class="dcg-svg-axis-value dcg-svg-offcenter-axis-value"><text fill="none" stroke="#ffffff" font-family="Arial" font-size="14px" font-style="normal" font-weight="normal" text-decoration="normal" x="13.1171875" y="215.808" text-anchor="middle" stroke-miterlimit="2" stroke-width="3" stroke-dasharray="">-10</text><text fill="#000000" stroke="none" font-family="Arial" font-size="14px" font-style="normal" font-weight="normal" text-decoration="normal" x="13.1171875" y="215.808" text-anchor="middle">-10</text></g><g class="dcg-svg-axis-value"><text fill="none" stroke="#ffffff" font-family="Arial" font-size="14px" font-style="normal" font-weight="normal" text-decoration="normal" x="147.6689453125" y="215.808" text-anchor="middle" stroke-miterlimit="2" stroke-width="3" stroke-dasharray="">-5</text><text fill="#000000" stroke="none" font-family="Arial" font-size="14px" font-style="normal" font-weight="normal" text-decoration="normal" x="147.6689453125" y="215.808" text-anchor="middle">-5</text></g><g class="dcg-svg-axis-value"><text fill="none" stroke="#ffffff" font-family="Arial" font-size="14px" font-style="normal" font-weight="normal" text-decoration="normal" x="450" y="215.808" text-anchor="middle" stroke-miterlimit="2" stroke-width="3" stroke-dasharray="">5</text><text fill="#000000" stroke="none" font-family="Arial" font-size="14px" font-style="normal" font-weight="normal" text-decoration="normal" x="450" y="215.808" text-anchor="middle">5</text></g><g class="dcg-svg-axis-value dcg-svg-offcenter-axis-value"><text fill="none" stroke="#ffffff" font-family="Arial" font-size="14px" font-style="normal" font-weight="normal" text-decoration="normal" x="589.2138671875" y="215.808" text-anchor="middle" stroke-miterlimit="2" stroke-width="3" stroke-dasharray="">10</text><text fill="#000000" stroke="none" font-family="Arial" font-size="14px" font-style="normal" font-weight="normal" text-decoration="normal" x="589.2138671875" y="215.808" text-anchor="middle">10</text></g><g class="dcg-svg-axis-value"><text fill="none" stroke="#ffffff" font-family="Arial" font-size="14px" font-style="normal" font-weight="normal" text-decoration="normal" x="288.77587890625" y="346.6651428571428" text-anchor="middle" stroke-miterlimit="2" stroke-width="3" stroke-dasharray="">-5</text><text fill="#000000" stroke="none" font-family="Arial" font-size="14px" font-style="normal" font-weight="normal" text-decoration="normal" x="288.77587890625" y="346.6651428571428" text-anchor="middle">-5</text></g><g class="dcg-svg-axis-value"><text fill="none" stroke="#ffffff" font-family="Arial" font-size="14px" font-style="normal" font-weight="normal" text-decoration="normal" x="291.10693359375" y="60.95085714285717" text-anchor="middle" stroke-miterlimit="2" stroke-width="3" stroke-dasharray="">5</text><text fill="#000000" stroke="none" font-family="Arial" font-size="14px" font-style="normal" font-weight="normal" text-decoration="normal" x="291.10693359375" y="60.95085714285717" text-anchor="middle">5</text></g></g></g></g><g id="expressions-a5a01a2c"><g id="sketch-a5a01a2c"><title>Expression 1</title><path fill="#2d70b3" stroke="none" paint-order="stroke fill markers" d="" fill-opacity="0.4"/><g><path fill="none" stroke="#2d70b3" class="dcg-svg-curve" paint-order="fill stroke markers" d=" M -0.5 59.765277406727876 L -0.5 59.765277406727876 L 1.697265625 50.135861246838545 L 3.748046875 42.48373196743546 L 5.65234375 36.547399490034024 L 7.41015625 32.07423095670333 L 9.021484375 28.82500079360699 L 10.486328125 26.57717961817906 L 11.8046875 25.127173178581415 L 12.9765625 24.291713940341367 L 14.001953125 23.908593346427097 L 14.880859375 23.83690442480969 L 15.759765625 24.000466185177345 L 16.78515625 24.48617056519862 L 17.95703125 25.42610815636027 L 19.275390625 26.96767586627709 L 20.740234375 29.271522059915185 L 22.3515625 32.508871672525515 L 24.109375 36.85813157889896 L 26.013671875 42.50068454563706 L 28.064453125 49.61579623093007 L 30.26171875 58.37458539265231 L 32.751953125 69.63258405913064 L 35.388671875 82.97458121988154 L 38.318359375 99.34381307282524 L 41.6875 119.9177403914108 L 45.642578125 146.0275800051134 L 50.4765625 180.03311809471475 L 58.97265625 242.36707580910308 L 66.150390625 294.08196443610825 L 70.837890625 325.77333524482026 L 74.79296875 350.541389297492 L 78.30859375 370.68278895242935 L 81.384765625 386.6483439675059 L 84.16796875 399.62970759227454 L 85.58438264370623 405.5 L 125.12543582592139 405.5 L 126.94140625 398.71207738123763 L 130.1640625 385.43066940189397 L 133.826171875 369.01379825415205 L 138.220703125 347.86882192412793 L 144.2265625 317.3577441881165 L 156.970703125 252.2464286393678 L 161.658203125 230.03640693445726 L 165.61328125 212.64412096816778 L 169.12890625 198.4416866890396 L 172.3515625 186.59809348816952 L 175.427734375 176.43248100122543 L 178.2109375 168.24999471604124 L 180.84765625 161.42166409216074 L 183.337890625 155.8168757767555 L 185.681640625 151.29978931090054 L 187.87890625 147.73441001215556 L 190.076171875 144.81371587865516 L 192.126953125 142.66285390332632 L 194.03125 141.15452566647696 L 195.7890625 140.17137759801398 L 197.400390625 139.60697002526592 L 198.865234375 139.3661876913133 L 200.330078125 139.37748369453226 L 201.794921875 139.63313594560606 L 203.40625 140.18659201147454 L 205.1640625 141.101950415783 L 207.068359375 142.44167210122612 L 209.265625 144.4084960334844 L 211.90234375 147.31419901541076 L 214.685546875 150.95637319258876 L 217.76171875 155.57035367118328 L 221.423828125 161.71151352274777 L 225.96484375 170.0174373651763 L 242.6640625 201.22620595270027 L 246.47265625 207.3018749350959 L 249.841796875 212.0622640852363 L 252.91796875 215.82859770889587 L 255.84765625 218.85088096586765 L 258.484375 221.07050468547507 L 260.974609375 222.7146119025139 L 263.171875 223.79286304970725 L 265.22265625 224.48167246551196 L 267.126953125 224.84718795698694 L 269.03125 224.95124049427585 L 270.935546875 224.79815350374534 L 272.83984375 224.39407373908398 L 274.890625 223.6873286931553 L 277.087890625 222.63106240505573 L 279.578125 221.08193509693 L 282.361328125 218.94349118337905 L 285.583984375 215.99152514510175 L 289.392578125 211.9540696672798 L 294.080078125 206.3844600717929 L 302.72265625 195.374276232691 L 308.58203125 188.21644237591116 L 312.830078125 183.59408972183965 L 316.345703125 180.3048042124994 L 319.421875 177.91806490307 L 322.05859375 176.2892233735363 L 324.40234375 175.19488306208453 L 326.599609375 174.4907859311749 L 328.650390625 174.12768922388915 L 330.5546875 174.05315102360976 L 332.458984375 174.23727921981043 L 334.36328125 174.68382629957193 L 336.4140625 175.46030043301207 L 338.46484375 176.54310844859617 L 340.662109375 178.04001357049597 L 343.15234375 180.14911903413233 L 345.935546875 183.00685657152317 L 348.865234375 186.5541788941419 L 352.087890625 191.0422674090682 L 355.603515625 196.5543694419504 L 359.705078125 203.64858659697506 L 364.978515625 213.49113582379778 L 377.576171875 237.2884864772522 L 381.53125 243.8926828669933 L 384.75390625 248.65470838175378 L 387.68359375 252.37986109428047 L 390.3203125 255.1582069966106 L 392.6640625 257.11510537740537 L 394.71484375 258.39541202811756 L 396.47265625 259.1499922210659 L 398.083984375 259.54912398946055 L 399.548828125 259.6591255097014 L 401.013671875 259.52005905610577 L 402.478515625 259.1246002566537 L 404.08984375 258.3855644547765 L 405.701171875 257.320457216132 L 407.458984375 255.77877039843906 L 409.509765625 253.47012267717076 L 411.560546875 250.6042522334844 L 413.7578125 246.90942022194244 L 415.955078125 242.5666953563988 L 418.298828125 237.22296363057586 L 420.7890625 230.75000528395876 L 423.42578125 223.02261844397867 L 426.208984375 213.92407416857782 L 429.28515625 202.79862814225365 L 432.654296875 189.41832514795664 L 436.31640625 173.60382041384725 L 440.564453125 153.8542787996493 L 445.69140625 128.497247729418 L 454.333984375 83.91509194019307 L 461.658203125 46.79961119035073 L 466.19921875 25.263722805439954 L 470.0078125 8.601698920082413 L 473.23046875 -4.229530325731503 L 473.58560241626157 -5.5 L 513.675819992091 -5.5 L 515.7109375 3.3131099539231172 L 518.494140625 16.745508603329654 L 521.5703125 33.171497866525044 L 524.939453125 52.88740849306174 L 528.748046875 77.06252832914453 L 533.142578125 106.96685433338456 L 538.85546875 148.0299908967901 L 552.771484375 248.9559094591717 L 557.166015625 278.1500362853003 L 560.828125 300.51027600429984 L 563.904296875 317.5758566421642 L 566.6875 331.45237042485655 L 569.177734375 342.46791049168655 L 571.521484375 351.5240691575892 L 573.572265625 358.3364027450841 L 575.4765625 363.68481531515715 L 577.234375 367.7524415685752 L 578.845703125 370.72390014781985 L 580.310546875 372.7802555441138 L 581.775390625 374.209204701141 L 582.947265625 374.893045204526 L 583.97265625 375.1521253166748 L 584.8515625 375.1197630572372 L 585.73046875 374.8507839011844 L 586.755859375 374.23599481079975 L 587.927734375 373.1341380233301 L 589.24609375 371.3828534045742 L 590.7109375 368.7990256985598 L 592.17578125 365.5423198412469 L 593.787109375 361.1831307708421 L 595.544921875 355.5027619902649 L 597.44921875 348.2679705016541 L 599.5 339.2347225932721" stroke-linecap="round" stroke-linejoin="round" stroke-miterlimit="10" stroke-width="2.5" stroke-opacity="0.9" stroke-dasharray=""/></g></g></g><g id="labels-a5a01a2c"/></g></svg>