<svg version="1.1" xmlns="http://www.w3.org/2000/svg" xmlns:xlink="http://www.w3.org/1999/xlink" width="600" height="400"><defs/><g transform="scale(1,1)"><g id="background-d02dd061"><rect fill="white" stroke="none" x="0" y="0" width="600" height="400" class="dcg-svg-background"/></g><g id="background-images-d02dd061"/><g id="graphpaper-d02dd061"><g id="grid-d02dd061"><g><path fill="none" stroke="rgb(0,0,0)" class="dcg-svg-minor-gridline" paint-order="fill stroke markers" d=" M -0.5 0 L -0.5 400" stroke-opacity="0.12" stroke-miterlimit="10" stroke-dasharray=""/><path fill="none" stroke="rgb(0,0,0)" class="dcg-svg-minor-gridline" paint-order="fill stroke markers" d=" M 32.5 0 L 32.5 400" stroke-opacity="0.12" stroke-miterlimit="10" stroke-dasharray=""/><path fill="none" stroke="rgb(0,0,0)" class="dcg-svg-minor-gridline" paint-order="fill stroke markers" d=" M 66.5 0 L 66.5 400" stroke-opacity="0.12" stroke-miterlimit="10" stroke-dasharray=""/><path fill="none" stroke="rgb(0,0,0)" class="dcg-svg-minor-gridline" paint-order="fill stroke markers" d=" M 99.5 0 L 99.5 400" stroke-opacity="0.12" stroke-miterlimit="10" stroke-dasharray=""/><path fill="none" stroke="rgb(0,0,0)" class="dcg-svg-minor-gridline" paint-order="fill stroke markers" d=" M 132.5 0 L 132.5 400" stroke-opacity="0.12" stroke-miterlimit="10" stroke-dasharray=""/><path fill="none" stroke="rgb(0,0,0)" class="dcg-svg-minor-gridline" paint-order="fill stroke markers" d=" M 166.5 0 L 166.5 400" stroke-opacity="0.12" stroke-miterlimit="10" stroke-dasharray=""/><path fill="none" stroke="rgb(0,0,0)" class="dcg-svg-minor-gridline" paint-order="fill stroke markers" d=" M 199.5 0 L 199.5 400" stroke-opacity="0.12" stroke-miterlimit="10" stroke-dasharray=""/><path fill="none" stroke="rgb(0,0,0)" class="dcg-svg-minor-gridline" paint-order="fill stroke markers" d=" M 232.5 0 L 232.5 400" stroke-opacity="0.12" stroke-miterlimit="10" stroke-dasharray=""/><path fill="none" stroke="rgb(0,0,0)" class="dcg-svg-minor-gridline" paint-order="fill stroke markers" d=" M 266.5 0 L 266.5 400" stroke-opacity="0.12" stroke-miterlimit="10" stroke-dasharray=""/><path fill="none" stroke="rgb(0,0,0)" class="dcg-svg-minor-gridline" paint-order="fill stroke markers" d=" M 332.5 0 L 332.5 400" stroke-opacity="0.12" stroke-miterlimit="10" stroke-dasharray=""/><path fill="none" stroke="rgb(0,0,0)" class="dcg-svg-minor-gridline" paint-order="fill stroke markers" d=" M 366.5 0 L 366.5 400" stroke-opacity="0.12" stroke-miterlimit="10" stroke-dasharray=""/><path fill="none" stroke="rgb(0,0,0)" class="dcg-svg-minor-gridline" paint-order="fill stroke markers" d=" M 399.5 0 L 399.5 400" stroke-opacity="0.12" stroke-miterlimit="10" stroke-dasharray=""/><path fill="none" stroke="rgb(0,0,0)" class="dcg-svg-minor-gridline" paint-order="fill stroke markers" d=" M 432.5 0 L 432.5 400" stroke-opacity="0.12" stroke-miterlimit="10" stroke-dasharray=""/><path fill="none" stroke="rgb(0,0,0)" class="dcg-svg-minor-gridline" paint-order="fill stroke markers" d=" M 466.5 0 L 466.5 400" stroke-opacity="0.12" stroke-miterlimit="10" stroke-dasharray=""/><path fill="none" stroke="rgb(0,0,0)" class="dcg-svg-minor-gridline" paint-order="fill stroke markers" d=" M 499.5 0 L 499.5 400" stroke-opacity="0.12" stroke-miterlimit="10" stroke-dasharray=""/><path fill="none" stroke="rgb(0,0,0)" class="dcg-svg-minor-gridline" paint-order="fill stroke markers" d=" M 532.5 0 L 532.5 400" stroke-opacity="0.12" stroke-miterlimit="10" stroke-dasharray=""/><path fill="none" stroke="rgb(0,0,0)" class="dcg-svg-minor-gridline" paint-order="fill stroke markers" d=" M 566.5 0 L 566.5 400" stroke-opacity="0.12" stroke-miterlimit="10" stroke-dasharray=""/><path fill="none" stroke="rgb(0,0,0)" class="dcg-svg-minor-gridline" paint-order="fill stroke markers" d=" M 0 374.5 L 600 374.5" stroke-opacity="0.12" stroke-miterlimit="10" stroke-dasharray=""/><path fill="none" stroke="rgb(0,0,0)" class="dcg-svg-minor-gridline" paint-order="fill stroke markers" d=" M 0 349.5 L 600 349.5" stroke-opacity="0.12" stroke-miterlimit="10" stroke-dasharray=""/><path fill="none" stroke="rgb(0,0,0)" class="dcg-svg-minor-gridline" paint-order="fill stroke markers" d=" M 0 324.5 L 600 324.5" stroke-opacity="0.12" stroke-miterlimit="10" stroke-dasharray=""/><path fill="none" stroke="rgb(0,0,0)" class="dcg-svg-minor-gridline" paint-order="fill stroke markers" d=" M 0 299.5 L 600 299.5" stroke-opacity="0.12" stroke-miterlimit="10" stroke-dasharray=""/><path fill="none" stroke="rgb(0,0,0)" class="dcg-svg-minor-gridline" paint-order="fill stroke markers" d=" M 0 274.5 L 600 274.5" stroke-opacity="0.12" stroke-miterlimit="10" stroke-dasharray=""/><path fill="none" stroke="rgb(0,0,0)" class="dcg-svg-minor-gridline" paint-order="fill stroke markers" d=" M 0 249.5 L 600 249.5" stroke-opacity="0.12" stroke-miterlimit="10" stroke-dasharray=""/><path fill="none" stroke="rgb(0,0,0)" class="dcg-svg-minor-gridline" paint-order="fill stroke markers" d=" M 0 224.5 L 600 224.5" stroke-opacity="0.12" stroke-miterlimit="10" stroke-dasharray=""/><path fill="none" stroke="rgb(0,0,0)" class="dcg-svg-minor-gridline" paint-order="fill stroke markers" d=" M 0 174.5 L 600 174.5" stroke-opacity="0.12" stroke-miterlimit="10" stroke-dasharray=""/><path fill="none" stroke="rgb(0,0,0)" class="dcg-svg-minor-gridline" paint-order="fill stroke markers" d=" M 0 149.5 L 600 149.5" stroke-opacity="0.12" stroke-miterlimit="10" stroke-dasharray=""/><path fill="none" stroke="rgb(0,0,0)" class="dcg-svg-minor-gridline" paint-order="fill stroke markers" d=" M 0 124.5 L 600 124.5" stroke-opacity="0.12" stroke-miterlimit="10" stroke-dasharray=""/><path fill="none" stroke="rgb(0,0,0)" class="dcg-svg-minor-gridline" paint-order="fill stroke markers" d=" M 0 99.5 L 600 99.5" stroke-opacity="0.12" stroke-miterlimit="10" stroke-dasharray=""/><path fill="none" stroke="rgb(0,0,0)" class="dcg-svg-minor-gridline" paint-order="fill stroke markers" d=" M 0 74.5 L 600 74.5" stroke-opacity="0.12" stroke-miterlimit="10" stroke-dasharray=""/><path fill="none" stroke="rgb(0,0,0)" class="dcg-svg-minor-gridline" paint-order="fill stroke markers" d=" M 0 49.5 L 600 49.5" stroke-opacity="0.12" stroke-miterlimit="10" stroke-dasharray=""/><path fill="none" stroke="rgb(0,0,0)" class="dcg-svg-minor-gridline" paint-order="fill stroke markers" d=" M 0 24.5 L 600 24.5" stroke-opacity="0.12" stroke-miterlimit="10" stroke-dasharray=""/><path fill="none" stroke="rgb(0,0,0)" class="dcg-svg-minor-gridline" paint-order="fill stroke markers" d=" M 0 -0.5 L 600 -0.5" stroke-opacity="0.12" stroke-miterlimit="10" stroke-dasharray=""/><path fill="none" stroke="rgb(0,0,0)" class="dcg-svg-major-gridline" paint-order="fill stroke markers" d=" M 32.5 0 L 32.5 400" stroke-opacity="0.31818181818181823" stroke-miterlimit="10" stroke-dasharray=""/><path fill="none" stroke="rgb(0,0,0)" class="dcg-svg-major-gridline" paint-order="fill stroke markers" d=" M 166.5 0 L 166.5 400" stroke-opacity="0.31818181818181823" stroke-miterlimit="10" stroke-dasharray=""/><path fill="none" stroke="rgb(0,0,0)" class="dcg-svg-major-gridline" paint-order="fill stroke markers" d=" M 432.5 0 L 432.5 400" stroke-opacity="0.31818181818181823" stroke-miterlimit="10" stroke-dasharray=""/><path fill="none" stroke="rgb(0,0,0)" class="dcg-svg-major-gridline" paint-order="fill stroke markers" d=" M 566.5 0 L 566.5 400" stroke-opacity="0.31818181818181823" stroke-miterlimit="10" stroke-dasharray=""/><path fill="none" stroke="rgb(0,0,0)" class="dcg-svg-major-gridline" paint-order="fill stroke markers" d=" M 0 299.5 L 600 299.5" stroke-opacity="0.31818181818181823" stroke-miterlimit="10" stroke-dasharray=""/><path fill="none" stroke="rgb(0,0,0)" class="dcg-svg-major-gridline" paint-order="fill stroke markers" d=" M 0 99.5 L 600 99.5" stroke-opacity="0.31818181818181823" stroke-miterlimit="10" stroke-dasharray=""/><path fill="none" stroke="rgb(0,0,0)" class="dcg-svg-major-gridline" paint-order="fill stroke markers" d=" M 0 -0.5 L 600 -0.5" stroke-opacity="0.31818181818181823" stroke-miterlimit="10" stroke-dasharray=""/></g></g><g id="axis-d02dd061"><g id="yaxis-d02dd061"><title>Y axis</title><path fill="none" stroke="rgb(0,0,0)" class="dcg-svg-axis-line" paint-order="fill stroke markers" d=" M 299.75 0 L 299.75 400" stroke-opacity="0.9" stroke-miterlimit="10" stroke-width="1.5" stroke-dasharray=""/></g><g id="xaxis-d02dd061"><title>X axis</title><path fill="none" stroke="rgb(0,0,0)" class="dcg-svg-axis-line" paint-order="fill stroke markers" d=" M 0 199.75 L 600 199.75" stroke-opacity="0.9" stroke-miterlimit="10" stroke-width="1.5" stroke-dasharray=""/></g><g><g class="dcg-svg-axis-value"><text fill="none" stroke="#ffffff" font-family="Arial" font-size="14px" font-style="normal" font-weight="normal" text-decoration="normal" x="291.10693359375" y="215.808" text-anchor="middle" stroke-miterlimit="2" stroke-width="3" stroke-dasharray="">0</text><text fill="#000000" stroke="none" font-family="Arial" font-size="14px" font-style="normal" font-weight="normal" text-decoration="normal" x="291.10693359375" y="215.808" text-anchor="middle">0</text></g><g class="dcg-svg-axis-value"><text fill="none" stroke="#ffffff" font-family="Arial" font-size="14px" font-style="normal" font-weight="normal" text-decoration="normal" x="31.002278645833314" y="215.808" text-anchor="middle" stroke-miterlimit="2" stroke-width="3" stroke-dasharray="">-4</text><text fill="#000000" stroke="none" font-family="Arial" font-size="14px" font-style="normal" font-weight="normal" text-decoration="normal" x="31.002278645833314" y="215.808" text-anchor="middle">-4</text></g><g class="dcg-svg-axis-value"><text fill="none" stroke="#ffffff" font-family="Arial" font-size="14px" font-style="normal" font-weight="normal" text-decoration="normal" x="164.33561197916666" y="215.808" text-anchor="middle" stroke-miterlimit="2" stroke-width="3" stroke-dasharray="">-2</text><text fill="#000000" stroke="none" font-family="Arial" font-size="14px" font-style="normal" font-weight="normal" text-decoration="normal" x="164.33561197916666" y="215.808" text-anchor="middle">-2</text></g><g class="dcg-svg-axis-value"><text fill="none" stroke="#ffffff" font-family="Arial" font-size="14px" font-style="normal" font-weight="normal" text-decoration="normal" x="433.33333333333337" y="215.808" text-anchor="middle" stroke-miterlimit="2" stroke-width="3" stroke-dasharray="">2</text><text fill="#000000" stroke="none" font-family="Arial" font-size="14px" font-style="normal" font-weight="normal" text-decoration="normal" x="433.33333333333337" y="215.808" text-anchor="middle">2</text></g><g class="dcg-svg-axis-value"><text fill="none" stroke="#ffffff" font-family="Arial" font-size="14px" font-style="normal" font-weight="normal" text-decoration="normal" x="566.6666666666667" y="215.808" text-anchor="middle" stroke-miterlimit="2" stroke-width="3" stroke-dasharray="">4</text><text fill="#000000" stroke="none" font-family="Arial" font-size="14px" font-style="normal" font-weight="normal" text-decoration="normal" x="566.6666666666667" y="215.808" text-anchor="middle">4</text></g><g class="dcg-svg-axis-value dcg-svg-offcenter-axis-value"><text fill="none" stroke="#ffffff" font-family="Arial" font-size="14px" font-style="normal" font-weight="normal" text-decoration="normal" x="288.77587890625" y="393.808" text-anchor="middle" stroke-miterlimit="2" stroke-width="3" stroke-dasharray="">-4</text><text fill="#000000" stroke="none" font-family="Arial" font-size="14px" font-style="normal" font-weight="normal" text-decoration="normal" x="288.77587890625" y="393.808" text-anchor="middle">-4</text></g><g class="dcg-svg-axis-value"><text fill="none" stroke="#ffffff" font-family="Arial" font-size="14px" font-style="normal" font-weight="normal" text-decoration="normal" x="288.77587890625" y="303.808" text-anchor="middle" stroke-miterlimit="2" stroke-width="3" stroke-dasharray="">-2</text><text fill="#000000" stroke="none" font-family="Arial" font-size="14px" font-style="normal" font-weight="normal" text-decoration="normal" x="288.77587890625" y="303.808" text-anchor="middle">-2</text></g><g class="dcg-svg-axis-value"><text fill="none" stroke="#ffffff" font-family="Arial" font-size="14px" font-style="normal" font-weight="normal" text-decoration="normal" x="291.10693359375" y="103.808" text-anchor="middle" stroke-miterlimit="2" stroke-width="3" stroke-dasharray="">2</text><text fill="#000000" stroke="none" font-family="Arial" font-size="14px" font-style="normal" font-weight="normal" text-decoration="normal" x="291.10693359375" y="103.808" text-anchor="middle">2</text></g><g class="dcg-svg-axis-value dcg-svg-offcenter-axis-value"><text fill="none" stroke="#ffffff" font-family="Arial" font-size="14px" font-style="normal" font-weight="normal" text-decoration="normal" x="291.10693359375" y="13.808" text-anchor="middle" stroke-miterlimit="2" stroke-width="3" stroke-dasharray="">4</text><text fill="#000000" stroke="none" font-family="Arial" font-size="14px" font-style="normal" font-weight="normal" text-decoration="normal" x="291.10693359375" y="13.808" text-anchor="middle">4</text></g></g></g></g><g id="expressions-d02dd061"><g id="sketch-d02dd061"><title>Expression 1</title><path fill="#2d70b3" stroke="none" paint-order="stroke fill markers" d="" fill-opacity="0.4"/><g><path fill="none" stroke="#2d70b3" class="dcg-svg-curve" paint-order="fill stroke markers" d=" M 126.85587652538403 -5.5 L 126.85587652538403 -5.5 L 130.017578125 4.368513011126822 L 141.00390625 38.10391091975117 L 148.9140625 61.478038386067 L 155.798828125 80.91511434050403 L 161.951171875 97.40869086863256 L 167.517578125 111.51589863833226 L 172.791015625 124.09348243643501 L 177.771484375 135.2170728561265 L 182.458984375 144.97922987587708 L 187 153.7557039413788 L 191.39453125 161.59225959046017 L 195.49609375 168.3113732787034 L 199.59765625000003 174.4483332548707 L 203.55273437500003 179.81098034877328 L 207.36132812500003 184.45921100616846 L 211.02343750000003 188.45319564926095 L 214.68554687500003 191.98489132856307 L 218.34765625000003 195.0601429286837 L 222.00976562500003 197.68675942083908 L 225.67187500000003 199.874451258865 L 229.18750000000003 201.57239254331785 L 232.55664062500003 202.84081998454968 L 235.77929687500003 203.73632154297928 L 239.00195312500003 204.3323545145076 L 242.07812500000003 204.63294556602477 L 245.30078125000003 204.67906838921337 L 248.52343750000003 204.4635687679627 L 251.89257812500003 203.9741272162977 L 255.40820312500003 203.19387305921228 L 259.216796875 202.06132581277146 L 263.318359375 200.53772473311597 L 267.859375 198.524422703751 L 273.1328125 195.81847573340426 L 279.28515625 192.2618229499129 L 287.341796875 187.15542172303932 L 312.537109375 170.86676445405158 L 318.982421875 167.3130472851016 L 324.548828125 164.6376288063144 L 329.3828125 162.66721310424435 L 333.77734375 161.1971784119299 L 337.87890625 160.12659862073173 L 341.6875 159.41117821236918 L 345.349609375 158.9899501436182 L 348.865234375 158.8418582693885 L 352.380859375 158.9531627801713 L 355.896484375 159.33060595983193 L 359.412109375 159.97943380822343 L 362.927734375 160.90337414378462 L 366.58984375 162.16070602971422 L 370.3984375 163.7882424970208 L 374.5 165.90421708365767 L 378.748046875 168.48824104106484 L 383.2890625 171.68299160824043 L 387.830078125 175.31101569123825 L 392.517578125 179.49143614735732 L 397.498046875 184.39081808671313 L 402.62500000000006 189.89118669404724 L 408.19140625000006 196.3377183003959 L 414.34375000000006 203.96390147810945 L 421.22851562500006 213.00834650759754 L 429.87109375000006 224.90688447878318 L 457.55664062500006 263.4481599730522 L 464.14843750000006 271.85447659134144 L 469.86132812500006 278.64730047460125 L 474.98828125000006 284.269878647036 L 479.67578125000006 288.9589489299016 L 484.07031250000006 292.91809727357116 L 488.31835937500006 296.3065815854769 L 492.41992187500006 299.1381784353754 L 496.37500000000006 301.43343416565585 L 500.03710937500006 303.157868353006 L 503.40625000000006 304.3895646260484 L 506.48242187500006 305.2071623501805 L 509.41210937500006 305.70594214887706 L 512.341796875 305.9255061289615 L 515.125 305.8706278674691 L 517.908203125 305.5550561494824 L 520.69140625 304.97552435694337 L 523.62109375 304.07746703517705 L 526.697265625 302.8141838966383 L 529.919921875 301.1371119948023 L 533.435546875 298.8942230485068 L 536.951171875 296.2209444298079 L 540.466796875 293.1200235510366 L 544.12890625 289.44011818642986 L 547.9375 285.1339515473901 L 551.74609375 280.34992660951093 L 555.701171875 274.8903464928991 L 559.94921875 268.4885543092434 L 564.34375 261.306633934493 L 569.03125 253.0553778509644 L 574.01171875 243.66979178708274 L 579.431640625 232.80123023575743 L 585.4375 220.0624922476731 L 592.322265625 204.7226851451597 L 599.5 188.11293515431652" stroke-linecap="round" stroke-linejoin="round" stroke-miterlimit="10" stroke-width="2.5" stroke-opacity="0.9" stroke-dasharray=""/></g></g><g id="sketch-d02dd061"><title>Expression 2</title><path fill="#388c46" stroke="none" paint-order="stroke fill markers" d="" fill-opacity="0.4"/><path fill="#388c46" stroke="none" paint-order="stroke fill markers" d="" fill-opacity="0.4"/><path fill="#388c46" stroke="none" class="dcg-svg-region" paint-order="stroke fill markers" d=" M -0.5 -3 L -0.5 199.5 L 224.99025141390808 199.5 L 224.99025141390808 199.5 L 222.00976562500003 197.68675942083908 L 218.34765625000003 195.0601429286837 L 214.68554687500003 191.98489132856307 L 211.02343750000003 188.45319564926095 L 207.36132812500003 184.45921100616846 L 203.55273437500003 179.81098034877328 L 199.59765625000003 174.4483332548707 L 195.49609375 168.3113732787034 L 191.39453125 161.59225959046017 L 187 153.7557039413788 L 182.458984375 144.97922987587708 L 177.771484375 135.2170728561265 L 172.791015625 124.09348243643501 L 167.517578125 111.51589863833226 L 161.951171875 97.40869086863256 L 155.798828125 80.91511434050403 L 148.9140625 61.478038386067 L 141.00390625 38.10391091975117 L 130.017578125 4.368513011126822 L 127.65683346693417 -3 M 265.7487002444821 199.5 L 410.7903703467321 199.5 L 410.7903703467321 199.5 L 405.40820312500006 193.05623254852156 L 399.98828125000006 187.007031190711 L 395.0078125 181.88413083343187 L 390.173828125 177.34732399139546 L 385.486328125 173.38540064609214 L 380.9453125 169.97901139676557 L 376.55078125 167.10222931121507 L 372.44921875 164.79934275933473 L 368.494140625 162.93373312410972 L 364.685546875 161.46925735111768 L 361.0234375 160.36858801333824 L 357.5078125 159.59403742326 L 353.9921875 159.09276962700704 L 350.4765625 158.86023212090373 L 346.9609375 158.8903652980794 L 343.298828125 159.19292260153708 L 339.490234375 159.79025624739407 L 335.53515625 160.70142729583074 L 331.287109375 161.9908142463318 L 326.599609375 163.7588771374486 L 321.326171875 166.13746476918425 L 315.3203125 169.27888186141067 L 307.99609375 173.60399455573446 L 293.93359375 182.7814670909316 L 283.38671875 189.71066209098154 L 276.35546875 194.00192202127633 L 270.642578125 197.14107032953078 L 265.7487002444821 199.5 M 594.6036633592348 199.5 L 599.5 199.5 L 599.5 188.11293515431652 L 594.6036633592348 199.49999999999986" fill-opacity="0.4"/><g><path fill="none" stroke="#388c46" class="dcg-svg-curve" paint-order="fill stroke markers" d=" M -0.5 199.5 L 10.5 199.5 M 17.5 199.5 L 28.5 199.5 M 35.5 199.5 L 46.5 199.5 M 53.5 199.5 L 64.5 199.5 M 71.5 199.5 L 82.5 199.5 M 89.5 199.5 L 100.5 199.5 M 107.5 199.5 L 118.5 199.5 M 125.5 199.5 L 136.5 199.5 M 143.5 199.5 L 154.5 199.5 M 161.5 199.5 L 172.5 199.5 M 179.5 199.5 L 190.5 199.5 M 197.5 199.5 L 208.5 199.5 M 215.5 199.5 L 224.99025141390808 199.5" stroke-linecap="round" stroke-linejoin="round" stroke-miterlimit="10" stroke-width="2.5" stroke-opacity="0.9" stroke-dasharray=""/></g><g><path fill="none" stroke="#388c46" class="dcg-svg-curve" paint-order="fill stroke markers" d=" M 265.7487002444821 199.5 L 276.7487002444821 199.5 M 283.7487002444821 199.5 L 294.7487002444821 199.5 M 301.7487002444821 199.5 L 312.7487002444821 199.5 M 319.7487002444821 199.5 L 330.7487002444821 199.5 M 337.7487002444821 199.5 L 348.7487002444821 199.5 M 355.7487002444821 199.5 L 366.7487002444821 199.5 M 373.7487002444821 199.5 L 384.7487002444821 199.5 M 391.7487002444821 199.5 L 402.7487002444821 199.5 M 409.7487002444821 199.5 L 410.7903703467321 199.5" stroke-linecap="round" stroke-linejoin="round" stroke-miterlimit="10" stroke-width="2.5" stroke-opacity="0.9" stroke-dasharray=""/></g><g><path fill="none" stroke="#388c46" class="dcg-svg-curve" paint-order="fill stroke markers" d=" M 594.6036633592348 199.5 L 599.5 199.5" stroke-linecap="round" stroke-linejoin="round" stroke-miterlimit="10" stroke-width="2.5" stroke-opacity="0.9" stroke-dasharray=""/></g><g><path fill="none" stroke="#388c46" class="dcg-svg-curve" paint-order="fill stroke markers" d=" M 126.85587652538403 -5.5 L 130.017578125 4.368513011126822 M 130.017578125 4.368513011126822 L 130.21494591024305 4.974564522947885 M 132.38253170601925 11.63050711719772 L 135.78873795652473 22.089845479590323 M 137.95632375230093 28.74578807384016 L 141.00390625 38.10391091975117 M 141.00390625 38.10391091975117 L 141.37515550631772 39.20093443795864 M 143.61905209261334 45.831539848478165 L 147.14517529964934 56.251062636437425 M 149.40881724369746 62.874830383915906 L 153.08151558432522 73.24359534888401 M 155.41868725563378 79.84190032659099 L 155.798828125 80.91511434050403 M 155.798828125 80.91511434050403 L 159.245326060642 90.15469518407245 M 161.69177002121455 96.71327063517295 L 161.951171875 97.40869086863256 M 161.951171875 97.40869086863256 L 165.71617932467169 106.95052809026647 M 168.3265077853204 113.44526266122064 L 172.57979256910312 123.58969801012213 M 175.42831900606285 129.98374781023355 L 177.771484375 135.2170728561265 M 177.771484375 135.2170728561265 L 180.05092824205568 139.96422783167952 M 183.11925956063422 146.25535145777826 L 187 153.7557039413788 M 187 153.7557039413788 L 188.24976835006413 155.98435556918056 M 191.69179184115742 162.07922710760053 L 195.49609375 168.3113732787034 M 195.49609375 168.3113732787034 L 197.5511912819485 171.38631150058544 M 201.56651585585337 177.11788842165558 L 203.55273437500003 179.81098034877328 M 203.55273437500003 179.81098034877328 L 207.36132812500003 184.45921100616846 M 207.36132812500003 184.45921100616846 L 208.47265310708107 185.67124878478253 M 213.3452830631291 190.69235649991404 L 214.68554687500003 191.98489132856307 M 214.68554687500003 191.98489132856307 L 218.34765625000003 195.0601429286837 M 218.34765625000003 195.0601429286837 L 221.88728500770475 197.59891125017728" stroke-linecap="round" stroke-linejoin="round" stroke-miterlimit="10" stroke-width="2.5" stroke-opacity="0.9" stroke-dasharray=""/></g><g><path fill="none" stroke="#388c46" class="dcg-svg-curve" paint-order="fill stroke markers" d=" M 265.7487002444821 199.5 L 270.642578125 197.14107032953078 M 270.642578125 197.14107032953078 L 275.52176633359863 194.4600290815763 M 281.5185706679457 190.85081626106177 L 283.38671875 189.71066209098154 M 283.38671875 189.71066209098154 L 290.7509773127712 184.87241534848872 M 296.6066734335195 181.03696110836137 L 305.81850817206 175.02513104174943 M 311.78456288583715 171.36681998316138 L 315.3203125 169.27888186141067 M 315.3203125 169.27888186141067 L 321.326171875 166.13746476918425 M 321.326171875 166.13746476918425 L 321.4318799306786 166.0897850775577 M 327.8448835032703 163.2891762360166 L 331.287109375 161.9908142463318 M 331.287109375 161.9908142463318 L 335.53515625 160.70142729583074 M 335.53515625 160.70142729583074 L 338.3432349548359 160.05450201731225 M 345.25995041971834 159.0308979833508 L 346.9609375 158.8903652980794 M 346.9609375 158.8903652980794 L 350.4765625 158.86023212090373 M 350.4765625 158.86023212090373 L 353.9921875 159.09276962700704 M 353.9921875 159.09276962700704 L 356.2237739873513 159.41095556568436 M 363.0374738640942 160.97391894262847 L 364.685546875 161.46925735111768 M 364.685546875 161.46925735111768 L 368.494140625 162.93373312410972 M 368.494140625 162.93373312410972 L 372.44921875 164.79934275933473 M 372.44921875 164.79934275933473 L 373.16914934403667 165.20355907526172 M 379.1627031845643 168.8120658791564 L 380.9453125 169.97901139676557 M 380.9453125 169.97901139676557 L 385.486328125 173.38540064609214 M 385.486328125 173.38540064609214 L 387.9247665630743 175.446393963189 M 393.1307414671144 180.12245598213826 L 395.0078125 181.88413083343187 M 395.0078125 181.88413083343187 L 399.98828125000006 187.007031190711 M 399.98828125000006 187.007031190711 L 400.8430028469163 187.9609901524563 M 405.5099774333692 193.17808122929424 L 410.7903703467321 199.5" stroke-linecap="round" stroke-linejoin="round" stroke-miterlimit="10" stroke-width="2.5" stroke-opacity="0.9" stroke-dasharray=""/></g><g><path fill="none" stroke="#388c46" class="dcg-svg-curve" paint-order="fill stroke markers" d=" M 594.6036633592348 199.49999999999986 L 598.9488927893042 189.39460633126734" stroke-linecap="round" stroke-linejoin="round" stroke-miterlimit="10" stroke-width="2.5" stroke-opacity="0.9" stroke-dasharray=""/></g></g><g id="sketch-d02dd061"><title>Expression 3</title><path fill="#6042a6" stroke="none" paint-order="stroke fill markers" d="" fill-opacity="0.4"/><path fill="#6042a6" stroke="none" paint-order="stroke fill markers" d="" fill-opacity="0.4"/><path fill="#6042a6" stroke="none" class="dcg-svg-region" paint-order="stroke fill markers" d=" M 224.99025141390814 199.50000000000003 L 228.60156250000003 201.31627555859535 L 231.97070312500003 202.6449457389124 L 235.19335937500003 203.59611488262743 L 238.41601562500003 204.24573038705316 L 241.49218750000003 204.5953756867487 L 244.71484375000003 204.69055088893836 L 247.93750000000003 204.5215726065292 L 251.30664062500003 204.0779191788391 L 254.82226562500003 203.3421950690974 L 258.630859375 202.25398553636984 L 262.732421875 200.77342011811905 L 265.7487002444821 199.50000000000003 L 265.7487002444821 199.5 L 224.99025141390814 199.5 M 410.7903703467322 199.50000000000003 L 417.12695312500006 207.56259123637633 L 424.59765625000006 217.58897806126194 L 434.70507812500006 231.71934441206656 L 453.01562500000006 257.37878694404867 L 460.33984375000006 267.06284529070484 L 466.49218750000006 274.7028175849213 L 471.91210937500006 280.9542366896276 L 476.89257812500006 286.22985778768873 L 481.58007812500006 290.7288907345489 L 485.97460937500006 294.4924402622736 L 490.07617187500006 297.574735270925 L 494.17773437500006 300.21246093120385 L 497.98632812500006 302.2407190459114 L 501.50195312500006 303.73591016863514 L 504.72460937500006 304.7763565358306 L 507.80078125000006 305.4657964699068 L 510.73046875000006 305.83963368745617 L 513.513671875 305.93393749585005 L 516.296875 305.7697332267019 L 519.080078125 305.3433809875958 L 521.86328125 304.6518889154386 L 524.79296875 303.6350129449382 L 527.869140625 302.2462639232484 L 531.23828125 300.3465632902039 L 534.75390625 297.94207219266184 L 538.26953125 295.1080074484697 L 541.931640625 291.7027850171961 L 545.59375 287.84119025072266 L 549.40234375 283.34982542321103 L 553.357421875 278.1851961453739 L 557.458984375 272.3075695953697 L 561.70703125 265.6823572220811 L 566.248046875 258.0257695357418 L 571.08203125 249.26476169900099 L 576.208984375 239.34146892394733 L 581.775390625 227.91058595836176 L 588.07421875 214.2704950674082 L 594.6036633592348 199.50000000000014 L 594.6036633592348 199.5 L 410.7903703467322 199.5" fill-opacity="0.4"/><g><path fill="none" stroke="#6042a6" class="dcg-svg-curve" paint-order="fill stroke markers" d=" M 224.99025141390814 199.50000000000003 L 228.60156250000003 201.31627555859535 M 228.60156250000003 201.31627555859535 L 231.97070312500003 202.6449457389124 M 231.97070312500003 202.6449457389124 L 235.17025384943992 203.58929527133253 M 242.08438119095024 204.6128650340136 L 244.71484375000003 204.69055088893836 M 244.71484375000003 204.69055088893836 L 247.93750000000003 204.5215726065292 M 247.93750000000003 204.5215726065292 L 251.30664062500003 204.0779191788391 M 251.30664062500003 204.0779191788391 L 253.01276274019523 203.7208745070346 M 259.75043944693175 201.84984405675937 L 262.732421875 200.77342011811905 M 262.732421875 200.77342011811905 L 265.7487002444821 199.50000000000003" stroke-linecap="round" stroke-linejoin="round" stroke-miterlimit="10" stroke-width="2.5" stroke-opacity="0.9" stroke-dasharray=""/></g><g><path fill="none" stroke="#6042a6" class="dcg-svg-curve" paint-order="fill stroke markers" d=" M 410.7903703467322 199.50000000000003 L 417.12695312500006 207.56259123637633 M 417.12695312500006 207.56259123637633 L 417.5722936769256 208.16028017779223 M 421.75468523983346 213.77344335148643 L 424.59765625000006 217.58897806126194 M 424.59765625000006 217.58897806126194 L 428.22901100594186 222.66568047714821 M 432.3014934803388 228.35908776064107 L 434.70507812500006 231.71934441206656 M 434.70507812500006 231.71934441206656 L 438.6948217433246 237.31036240790354 M 442.76089688028605 243.00834740091503 L 449.1504435240826 251.96232381850447 M 453.2242490476296 257.6546289851892 L 459.85966539884413 266.42795502757673 M 464.2309828474881 271.89485665186317 L 466.49218750000006 274.7028175849213 M 466.49218750000006 274.7028175849213 L 471.3362811231757 280.2900677555533 M 476.1139898368615 285.4051288302774 L 476.89257812500006 286.22985778768873 M 476.89257812500006 286.22985778768873 L 481.58007812500006 290.7288907345489 M 481.58007812500006 290.7288907345489 L 484.1386183590745 292.9200670720969 M 489.6381621329895 297.24557406917813 L 490.07617187500006 297.574735270925 M 490.07617187500006 297.574735270925 L 494.17773437500006 300.21246093120385 M 494.17773437500006 300.21246093120385 L 497.98632812500006 302.2407190459114 M 497.98632812500006 302.2407190459114 L 499.14635386191037 302.73407660934873 M 505.75286221529285 305.0068113345974 L 507.80078125000006 305.4657964699068 M 507.80078125000006 305.4657964699068 L 510.73046875000006 305.83963368745617 M 510.73046875000006 305.83963368745617 L 513.513671875 305.93393749585005 M 513.513671875 305.93393749585005 L 516.296875 305.7697332267019 M 516.296875 305.7697332267019 L 516.667542029942 305.7129516297142 M 523.461263309591 304.0972394664141 L 524.79296875 303.6350129449382 M 524.79296875 303.6350129449382 L 527.869140625 302.2462639232484 M 527.869140625 302.2462639232484 L 531.23828125 300.3465632902039 M 531.23828125 300.3465632902039 L 533.1758659891037 299.0213635729678 M 538.6887684368929 294.7181786021284 L 541.931640625 291.7027850171961 M 541.931640625 291.7027850171961 L 545.59375 287.84119025072266 M 545.59375 287.84119025072266 L 546.402117373174 286.88790590854745 M 550.8378905966341 281.4752563149628 L 553.357421875 278.1851961453739 M 553.357421875 278.1851961453739 L 557.2808872761167 272.56278653693175 M 561.0693675713861 266.6768512608384 L 561.70703125 265.6823572220811 M 561.70703125 265.6823572220811 L 566.248046875 258.0257695357418 M 566.248046875 258.0257695357418 L 566.6909124658391 257.2231295992061 M 570.0726281027703 251.09418194476046 L 571.08203125 249.26476169900099 M 571.08203125 249.26476169900099 L 575.1721151470015 241.3483444829808 M 578.2846903801031 235.07890680583074 L 581.775390625 227.91058595836176 M 581.775390625 227.91058595836176 L 583.0444162062383 225.1625153764175 M 585.9791299091746 218.80740282967236 L 588.07421875 214.2704950674082 M 588.07421875 214.2704950674082 L 590.5012126046365 208.7803036493147 M 593.3314281569765 202.37796970556474 L 594.6036633592348 199.50000000000014" stroke-linecap="round" stroke-linejoin="round" stroke-miterlimit="10" stroke-width="2.5" stroke-opacity="0.9" stroke-dasharray=""/></g><g><path fill="none" stroke="#6042a6" class="dcg-svg-curve" paint-order="fill stroke markers" d=" M 224.99025141390814 199.5 L 235.99025141390814 199.5 M 242.99025141390814 199.5 L 253.99025141390814 199.5 M 260.99025141390814 199.5 L 265.7487002444821 199.5" stroke-linecap="round" stroke-linejoin="round" stroke-miterlimit="10" stroke-width="2.5" stroke-opacity="0.9" stroke-dasharray=""/></g><g><path fill="none" stroke="#6042a6" class="dcg-svg-curve" paint-order="fill stroke markers" d=" M 410.7903703467322 199.5 L 421.7903703467322 199.5 M 428.7903703467322 199.5 L 439.7903703467322 199.5 M 446.7903703467322 199.5 L 457.7903703467322 199.5 M 464.7903703467322 199.5 L 475.7903703467322 199.5 M 482.7903703467322 199.5 L 493.7903703467322 199.5 M 500.7903703467322 199.5 L 511.7903703467322 199.5 M 518.7903703467322 199.5 L 529.7903703467322 199.5 M 536.7903703467322 199.5 L 547.7903703467322 199.5 M 554.7903703467322 199.5 L 565.7903703467322 199.5 M 572.7903703467322 199.5 L 583.7903703467322 199.5 M 590.7903703467322 199.5 L 594.6036633592348 199.5" stroke-linecap="round" stroke-linejoin="round" stroke-miterlimit="10" stroke-width="2.5" stroke-opacity="0.9" stroke-dasharray=""/></g></g></g><g id="labels-d02dd061"/></g></svg>