<svg version="1.1" xmlns="http://www.w3.org/2000/svg" xmlns:xlink="http://www.w3.org/1999/xlink" width="600" height="400"><defs/><g transform="scale(1,1)"><g id="background-26e4ff58"><rect fill="white" stroke="none" x="0" y="0" width="600" height="400" class="dcg-svg-background"/></g><g id="background-images-26e4ff58"/><g id="graphpaper-26e4ff58"><g id="grid-26e4ff58"><g><path fill="none" stroke="rgb(0,0,0)" class="dcg-svg-minor-gridline" paint-order="fill stroke markers" d=" M -0.5 0 L -0.5 400" stroke-opacity="0.12" stroke-miterlimit="10" stroke-dasharray=""/><path fill="none" stroke="rgb(0,0,0)" class="dcg-svg-minor-gridline" paint-order="fill stroke markers" d=" M 24.5 0 L 24.5 400" stroke-opacity="0.12" stroke-miterlimit="10" stroke-dasharray=""/><path fill="none" stroke="rgb(0,0,0)" class="dcg-svg-minor-gridline" paint-order="fill stroke markers" d=" M 49.5 0 L 49.5 400" stroke-opacity="0.12" stroke-miterlimit="10" stroke-dasharray=""/><path fill="none" stroke="rgb(0,0,0)" class="dcg-svg-minor-gridline" paint-order="fill stroke markers" d=" M 74.5 0 L 74.5 400" stroke-opacity="0.12" stroke-miterlimit="10" stroke-dasharray=""/><path fill="none" stroke="rgb(0,0,0)" class="dcg-svg-minor-gridline" paint-order="fill stroke markers" d=" M 99.5 0 L 99.5 400" stroke-opacity="0.12" stroke-miterlimit="10" stroke-dasharray=""/><path fill="none" stroke="rgb(0,0,0)" class="dcg-svg-minor-gridline" paint-order="fill stroke markers" d=" M 124.5 0 L 124.5 400" stroke-opacity="0.12" stroke-miterlimit="10" stroke-dasharray=""/><path fill="none" stroke="rgb(0,0,0)" class="dcg-svg-minor-gridline" paint-order="fill stroke markers" d=" M 149.5 0 L 149.5 400" stroke-opacity="0.12" stroke-miterlimit="10" stroke-dasharray=""/><path fill="none" stroke="rgb(0,0,0)" class="dcg-svg-minor-gridline" paint-order="fill stroke markers" d=" M 174.5 0 L 174.5 400" stroke-opacity="0.12" stroke-miterlimit="10" stroke-dasharray=""/><path fill="none" stroke="rgb(0,0,0)" class="dcg-svg-minor-gridline" paint-order="fill stroke markers" d=" M 199.5 0 L 199.5 400" stroke-opacity="0.12" stroke-miterlimit="10" stroke-dasharray=""/><path fill="none" stroke="rgb(0,0,0)" class="dcg-svg-minor-gridline" paint-order="fill stroke markers" d=" M 224.5 0 L 224.5 400" stroke-opacity="0.12" stroke-miterlimit="10" stroke-dasharray=""/><path fill="none" stroke="rgb(0,0,0)" class="dcg-svg-minor-gridline" paint-order="fill stroke markers" d=" M 249.5 0 L 249.5 400" stroke-opacity="0.12" stroke-miterlimit="10" stroke-dasharray=""/><path fill="none" stroke="rgb(0,0,0)" class="dcg-svg-minor-gridline" paint-order="fill stroke markers" d=" M 274.5 0 L 274.5 400" stroke-opacity="0.12" stroke-miterlimit="10" stroke-dasharray=""/><path fill="none" stroke="rgb(0,0,0)" class="dcg-svg-minor-gridline" paint-order="fill stroke markers" d=" M 324.5 0 L 324.5 400" stroke-opacity="0.12" stroke-miterlimit="10" stroke-dasharray=""/><path fill="none" stroke="rgb(0,0,0)" class="dcg-svg-minor-gridline" paint-order="fill stroke markers" d=" M 349.5 0 L 349.5 400" stroke-opacity="0.12" stroke-miterlimit="10" stroke-dasharray=""/><path fill="none" stroke="rgb(0,0,0)" class="dcg-svg-minor-gridline" paint-order="fill stroke markers" d=" M 374.5 0 L 374.5 400" stroke-opacity="0.12" stroke-miterlimit="10" stroke-dasharray=""/><path fill="none" stroke="rgb(0,0,0)" class="dcg-svg-minor-gridline" paint-order="fill stroke markers" d=" M 399.5 0 L 399.5 400" stroke-opacity="0.12" stroke-miterlimit="10" stroke-dasharray=""/><path fill="none" stroke="rgb(0,0,0)" class="dcg-svg-minor-gridline" paint-order="fill stroke markers" d=" M 424.5 0 L 424.5 400" stroke-opacity="0.12" stroke-miterlimit="10" stroke-dasharray=""/><path fill="none" stroke="rgb(0,0,0)" class="dcg-svg-minor-gridline" paint-order="fill stroke markers" d=" M 449.5 0 L 449.5 400" stroke-opacity="0.12" stroke-miterlimit="10" stroke-dasharray=""/><path fill="none" stroke="rgb(0,0,0)" class="dcg-svg-minor-gridline" paint-order="fill stroke markers" d=" M 474.5 0 L 474.5 400" stroke-opacity="0.12" stroke-miterlimit="10" stroke-dasharray=""/><path fill="none" stroke="rgb(0,0,0)" class="dcg-svg-minor-gridline" paint-order="fill stroke markers" d=" M 499.5 0 L 499.5 400" stroke-opacity="0.12" stroke-miterlimit="10" stroke-dasharray=""/><path fill="none" stroke="rgb(0,0,0)" class="dcg-svg-minor-gridline" paint-order="fill stroke markers" d=" M 524.5 0 L 524.5 400" stroke-opacity="0.12" stroke-miterlimit="10" stroke-dasharray=""/><path fill="none" stroke="rgb(0,0,0)" class="dcg-svg-minor-gridline" paint-order="fill stroke markers" d=" M 549.5 0 L 549.5 400" stroke-opacity="0.12" stroke-miterlimit="10" stroke-dasharray=""/><path fill="none" stroke="rgb(0,0,0)" class="dcg-svg-minor-gridline" paint-order="fill stroke markers" d=" M 574.5 0 L 574.5 400" stroke-opacity="0.12" stroke-miterlimit="10" stroke-dasharray=""/><path fill="none" stroke="rgb(0,0,0)" class="dcg-svg-minor-gridline" paint-order="fill stroke markers" d=" M 0 374.5 L 600 374.5" stroke-opacity="0.12" stroke-miterlimit="10" stroke-dasharray=""/><path fill="none" stroke="rgb(0,0,0)" class="dcg-svg-minor-gridline" paint-order="fill stroke markers" d=" M 0 349.5 L 600 349.5" stroke-opacity="0.12" stroke-miterlimit="10" stroke-dasharray=""/><path fill="none" stroke="rgb(0,0,0)" class="dcg-svg-minor-gridline" paint-order="fill stroke markers" d=" M 0 299.5 L 600 299.5" stroke-opacity="0.12" stroke-miterlimit="10" stroke-dasharray=""/><path fill="none" stroke="rgb(0,0,0)" class="dcg-svg-minor-gridline" paint-order="fill stroke markers" d=" M 0 274.5 L 600 274.5" stroke-opacity="0.12" stroke-miterlimit="10" stroke-dasharray=""/><path fill="none" stroke="rgb(0,0,0)" class="dcg-svg-minor-gridline" paint-order="fill stroke markers" d=" M 0 249.5 L 600 249.5" stroke-opacity="0.12" stroke-miterlimit="10" stroke-dasharray=""/><path fill="none" stroke="rgb(0,0,0)" class="dcg-svg-minor-gridline" paint-order="fill stroke markers" d=" M 0 224.5 L 600 224.5" stroke-opacity="0.12" stroke-miterlimit="10" stroke-dasharray=""/><path fill="none" stroke="rgb(0,0,0)" class="dcg-svg-minor-gridline" paint-order="fill stroke markers" d=" M 0 199.5 L 600 199.5" stroke-opacity="0.12" stroke-miterlimit="10" stroke-dasharray=""/><path fill="none" stroke="rgb(0,0,0)" class="dcg-svg-minor-gridline" paint-order="fill stroke markers" d=" M 0 174.5 L 600 174.5" stroke-opacity="0.12" stroke-miterlimit="10" stroke-dasharray=""/><path fill="none" stroke="rgb(0,0,0)" class="dcg-svg-minor-gridline" paint-order="fill stroke markers" d=" M 0 149.5 L 600 149.5" stroke-opacity="0.12" stroke-miterlimit="10" stroke-dasharray=""/><path fill="none" stroke="rgb(0,0,0)" class="dcg-svg-minor-gridline" paint-order="fill stroke markers" d=" M 0 124.5 L 600 124.5" stroke-opacity="0.12" stroke-miterlimit="10" stroke-dasharray=""/><path fill="none" stroke="rgb(0,0,0)" class="dcg-svg-minor-gridline" paint-order="fill stroke markers" d=" M 0 99.5 L 600 99.5" stroke-opacity="0.12" stroke-miterlimit="10" stroke-dasharray=""/><path fill="none" stroke="rgb(0,0,0)" class="dcg-svg-minor-gridline" paint-order="fill stroke markers" d=" M 0 74.5 L 600 74.5" stroke-opacity="0.12" stroke-miterlimit="10" stroke-dasharray=""/><path fill="none" stroke="rgb(0,0,0)" class="dcg-svg-minor-gridline" paint-order="fill stroke markers" d=" M 0 49.5 L 600 49.5" stroke-opacity="0.12" stroke-miterlimit="10" stroke-dasharray=""/><path fill="none" stroke="rgb(0,0,0)" class="dcg-svg-minor-gridline" paint-order="fill stroke markers" d=" M 0 24.5 L 600 24.5" stroke-opacity="0.12" stroke-miterlimit="10" stroke-dasharray=""/><path fill="none" stroke="rgb(0,0,0)" class="dcg-svg-minor-gridline" paint-order="fill stroke markers" d=" M 0 -0.5 L 600 -0.5" stroke-opacity="0.12" stroke-miterlimit="10" stroke-dasharray=""/><path fill="none" stroke="rgb(0,0,0)" class="dcg-svg-major-gridline" paint-order="fill stroke markers" d=" M -0.5 0 L -0.5 400" stroke-opacity="0.31818181818181823" stroke-miterlimit="10" stroke-dasharray=""/><path fill="none" stroke="rgb(0,0,0)" class="dcg-svg-major-gridline" paint-order="fill stroke markers" d=" M 99.5 0 L 99.5 400" stroke-opacity="0.31818181818181823" stroke-miterlimit="10" stroke-dasharray=""/><path fill="none" stroke="rgb(0,0,0)" class="dcg-svg-major-gridline" paint-order="fill stroke markers" d=" M 199.5 0 L 199.5 400" stroke-opacity="0.31818181818181823" stroke-miterlimit="10" stroke-dasharray=""/><path fill="none" stroke="rgb(0,0,0)" class="dcg-svg-major-gridline" paint-order="fill stroke markers" d=" M 399.5 0 L 399.5 400" stroke-opacity="0.31818181818181823" stroke-miterlimit="10" stroke-dasharray=""/><path fill="none" stroke="rgb(0,0,0)" class="dcg-svg-major-gridline" paint-order="fill stroke markers" d=" M 499.5 0 L 499.5 400" stroke-opacity="0.31818181818181823" stroke-miterlimit="10" stroke-dasharray=""/><path fill="none" stroke="rgb(0,0,0)" class="dcg-svg-major-gridline" paint-order="fill stroke markers" d=" M 0 224.5 L 600 224.5" stroke-opacity="0.31818181818181823" stroke-miterlimit="10" stroke-dasharray=""/><path fill="none" stroke="rgb(0,0,0)" class="dcg-svg-major-gridline" paint-order="fill stroke markers" d=" M 0 124.5 L 600 124.5" stroke-opacity="0.31818181818181823" stroke-miterlimit="10" stroke-dasharray=""/><path fill="none" stroke="rgb(0,0,0)" class="dcg-svg-major-gridline" paint-order="fill stroke markers" d=" M 0 24.5 L 600 24.5" stroke-opacity="0.31818181818181823" stroke-miterlimit="10" stroke-dasharray=""/></g></g><g id="axis-26e4ff58"><g id="yaxis-26e4ff58"><title>Y axis</title><path fill="none" stroke="rgb(0,0,0)" class="dcg-svg-axis-line" paint-order="fill stroke markers" d=" M 299.75 0 L 299.75 400" stroke-opacity="0.9" stroke-miterlimit="10" stroke-width="1.5" stroke-dasharray=""/></g><g id="xaxis-26e4ff58"><title>X axis</title><path fill="none" stroke="rgb(0,0,0)" class="dcg-svg-axis-line" paint-order="fill stroke markers" d=" M 0 324.75 L 600 324.75" stroke-opacity="0.9" stroke-miterlimit="10" stroke-width="1.5" stroke-dasharray=""/></g><g/></g></g><g id="expressions-26e4ff58"><g id="sketch-26e4ff58"><title>Expression 1</title><path fill="#2d70b3" stroke="none" paint-order="stroke fill markers" d="" fill-opacity="0.4"/><g><path fill="none" stroke="#2d70b3" class="dcg-svg-curve" paint-order="fill stroke markers" d=" M 34.00000000000002 324.63061689999995 L 34.00000000000002 324.63061689999995 L 38.2474747474748 294.30458180736315 L 42.34848484848487 267.13747116637285 L 46.449494949494984 241.96928892913556 L 50.404040404040444 219.52282702367398 L 54.358585858585855 198.79900235471206 L 58.166666666666686 180.409967574211 L 61.97474747474753 163.5005486109965 L 65.63636363636365 148.58431292688329 L 69.29797979797979 134.9345331539368 L 72.81313131313131 122.97710382036485 L 76.32828282828287 112.09970859474447 L 79.69696969696967 102.65042994850421 L 83.06565656565658 94.11864509999833 L 86.28787878787881 86.78351887372156 L 89.51010101010101 80.22462050070197 L 92.7323232323233 74.41174539289517 L 95.80808080808082 69.53168889835871 L 98.88383838383844 65.27879242440281 L 101.95959595959597 61.627958645259184 L 105.03535353535356 58.554472088966236 L 108.11111111111113 56.03399913736894 L 110.89393939393942 54.21009979127905 L 113.6767676767677 52.80181250791287 L 116.31313131313135 51.83541830057436 L 118.80303030303034 51.238028008372794 L 121.2929292929293 50.93472360326592 L 123.78282828282829 50.913686043856785 L 126.41919191919195 51.18612206214323 L 129.2020202020202 51.78776769967283 L 131.98484848484853 52.6964696818244 L 135.06060606060606 54.039369576583965 L 138.28282828282832 55.80574731222316 L 141.79797979797985 58.1253918652651 L 145.60606060606062 61.06742652656743 L 149.85353535353536 64.83157256614857 L 154.54040404040404 69.51828356108928 L 159.81313131313132 75.38146740000644 L 165.52525252525254 82.33962734716698 L 171.96969696969697 90.8143732728526 L 179.43939393939397 101.27687219122595 L 188.95959595959596 115.2750354932549 L 219.57070707070707 160.77060302674892 L 227.62626262626264 171.84599278988173 L 234.80303030303034 181.10692423310195 L 241.3939393939394 189.01197434034276 L 247.54545454545456 195.80336174639024 L 253.4040404040404 201.69334954159027 L 258.969696969697 206.72744706800898 L 264.0959595959596 210.85213284614946 L 268.92929292929296 214.2711838961647 L 273.469696969697 217.05298985085645 L 277.71717171717177 219.26789631753115 L 281.8181818181818 221.04352525635088 L 285.7727272727273 222.4125569516472 L 289.5808080808081 223.40849469226134 L 293.24242424242425 224.06519198097007 L 296.9040404040404 224.4251302267047 L 300.5656565656566 224.48738218575934 L 304.22727272727275 224.2517875872595 L 307.88888888888886 223.7189531331623 L 311.550505050505 222.89025249825607 L 315.3585858585859 221.71685831419506 L 319.31313131313135 220.1656164821365 L 323.41414141414145 218.20385223218523 L 327.66161616161617 215.79985448546148 L 332.0555555555556 212.92343107049396 L 336.74242424242425 209.43091176704476 L 341.72222222222223 205.2570352757879 L 347.1414141414142 200.1968953707081 L 353 194.15366223333334 L 359.1515151515152 187.21423437284383 L 365.5959595959596 179.3521043054412 L 372.6262626262627 170.16748119156497 L 380.53535353535347 159.20246948036296 L 389.90909090909093 145.55748174201895 L 405.1414141414141 122.64066581886436 L 418.3232323232324 103.06178008692558 L 426.52525252525254 91.50234424883956 L 433.2626262626262 82.60878297244165 L 439.1212121212121 75.45805999444616 L 444.540404040404 69.43308671722792 L 449.520202020202 64.48115004225849 L 454.06060606060606 60.521706936173075 L 458.16161616161617 57.453111047484015 L 461.82323232323233 55.15936892383212 L 465.19191919191917 53.45085203238841 L 468.2676767676768 52.2504706270214 L 471.1969696969697 51.44594366855591 L 473.979797979798 51.00460913713857 L 476.6161616161616 50.89145463955555 L 479.1060606060607 51.069643292183514 L 481.59595959595964 51.53671932466875 L 484.08585858585866 52.304593918466196 L 486.5757575757576 53.385342244375465 L 489.21212121212113 54.884290058055 L 491.9949494949494 56.87821569393088 L 494.92424242424244 59.45287246908816 L 498.00000000000006 62.70385423333329 L 501.07575757575756 66.53985314034935 L 504.1515151515152 70.98570379546919 L 507.2272727272727 76.06662265783297 L 510.3030303030303 81.80820804038723 L 513.3787878787879 88.23644010988488 L 516.60101010101 95.73597853043918 L 519.8232323232322 104.04881115492691 L 523.1919191919192 113.64297802219198 L 526.560606060606 124.19639231541845 L 529.929292929293 135.74581431528145 L 533.4444444444445 148.89965243347223 L 536.959595959596 163.22164818306416 L 540.6212121212121 179.42967577395137 L 544.2828282828283 197.00275899700807 L 548.0909090909091 216.781528107158 L 551.8989898989898 238.14991274406117 L 555.8535353535353 262.08593798970827 L 559.8080808080808 287.86698350361826 L 563.909090909091 316.62456615373947 L 568.010101010101 347.51688877344344 L 572.2575757575759 381.8466312734158 L 574.9882314954818 405.5" stroke-linecap="round" stroke-linejoin="round" stroke-miterlimit="10" stroke-width="2.5" stroke-opacity="0.9" stroke-dasharray=""/></g></g><g id="sketch-26e4ff58"><title>Expression 2</title><path fill="#388c46" stroke="none" paint-order="stroke fill markers" d="" fill-opacity="0.4"/><path fill="#388c46" stroke="none" paint-order="stroke fill markers" d="" fill-opacity="0.4"/><path fill="#388c46" stroke="none" class="dcg-svg-region" paint-order="stroke fill markers" d=" M 34.01763322927071 324.5 L 564.9823667707293 324.5 L 564.9823667707293 324.4999999999999 L 563.7578125 315.5263108299114 L 559.65625 286.84226763248444 L 555.701171875 261.12997412547156 L 551.74609375 237.26059189243827 L 547.9375 215.95440101623538 L 544.12890625 196.23589445083053 L 540.466796875 178.71894660125872 L 536.8046875 162.56529237190261 L 533.2890625 148.29384862491864 L 529.7734375 135.18896094569942 L 526.404296875 123.68495752871428 L 523.03515625 113.1755118508882 L 519.666015625 103.62387431723806 L 516.443359375 95.35038527301555 L 513.220703125 87.88889349507559 L 510.14453125 81.49577811305068 L 507.068359375 75.78814592179879 L 503.9921875 70.74002596596256 L 500.916015625 66.3258293497729 L 497.83984375 62.52034923704923 L 494.763671875 59.298760851199404 L 491.833984375 56.751060643548044 L 489.05078125 54.781814724585274 L 486.4140625 53.30541982362047 L 483.923828125 52.245237986609936 L 481.43359375 51.49722318342543 L 478.943359375 51.04930605008303 L 476.453125 50.8895813003183 L 473.81640625 51.0215349420032 L 471.033203125 51.481882964255476 L 468.103515625 52.30551246841247 L 465.02734375 53.52495621601702 L 461.658203125 55.25319504504483 L 457.99609375 57.56702171816147 L 453.89453125 60.65646525417111 L 449.353515625 64.63699498035749 L 444.373046875 69.60969691990795 L 438.953125 75.65452442318201 L 432.947265625 83.0102615267624 L 426.0625 92.13543128967285 L 417.712890625 103.94670969599429 L 402.0390625 127.32816725084558 L 388.5625 147.5507755279541 L 379.48046875 160.6982761429681 L 371.716796875 171.38797998614064 L 364.83203125 180.31351490822271 L 358.38671875 188.10830462203012 L 352.234375 194.97579381614923 L 346.521484375 200.80219730789577 L 341.248046875 205.67448618017988 L 336.267578125 209.80428201419454 L 331.580078125 213.25349301023562 L 327.185546875 216.0878954759046 L 322.9375 218.45012855529785 L 318.8359375 220.3706453652121 L 314.880859375 221.8813846338544 L 311.072265625 223.01521788813443 L 307.41015625 223.80546743693412 L 303.748046875 224.29954786912458 L 300.0859375 224.49618532368913 L 296.423828125 224.39487332576573 L 292.76171875 223.99587278664694 L 288.953125 223.26623783260584 L 285.14453125 222.21777796690003 L 281.189453125 220.79469371598134 L 277.087890625 218.96371422826815 L 272.693359375 216.60740112620442 L 268.15234375 213.75305408323766 L 263.318359375 210.25899147116615 L 258.044921875 205.93032962333564 L 252.478515625 200.80219730789577 L 246.619140625 194.81923380717672 L 240.466796875 187.93772781919142 L 233.875 179.94570922851562 L 226.55078125 170.4057817015855 L 218.201171875 158.82742526806578 L 190.076171875 116.94766099663138 L 180.26171875 102.46167761684046 L 172.64453125 91.73432312850491 L 166.19921875 83.19728197940276 L 160.486328125 76.17073279088982 L 155.212890625 70.23298857526424 L 150.37890625 65.33019654630334 L 146.130859375 61.50587413776702 L 142.17578125 58.39789748602203 L 138.66015625 56.03560193153686 L 135.4375 54.2274112701416 L 132.361328125 52.84213330578683 L 129.431640625 51.85133869727184 L 126.6484375 51.2236995161511 L 124.01171875 50.92550964505068 L 121.375 50.92959594726568 L 118.884765625 51.223468050559006 L 116.39453125 51.81111458633677 L 113.7578125 52.766851811204106 L 110.974609375 54.163510025502546 L 108.044921875 56.08258354168538 L 104.96875 58.615081429481506 L 101.892578125 61.701264945260846 L 98.81640625 65.36548583945842 L 95.740234375 69.63247792209768 L 92.6640625 74.52735706279054 L 89.44140625 80.35656088209362 L 86.21875 86.93262827396399 L 82.99609375 94.2857858742646 L 79.626953125 102.83736795081683 L 76.2578125 112.30743649462244 L 72.7421875 123.20761206606409 L 69.2265625 135.18896094569942 L 65.564453125 148.86490097979006 L 61.90234375 163.80860058302645 L 58.09375 180.7480026483536 L 54.28515625 199.16850843178693 L 50.330078125 219.92663269320659 L 46.375 242.40908813476565 L 42.2734375 267.616435802076 L 38.171875 294.8246358409524 L 34.01763322927071 324.4999999999999" fill-opacity="0.4"/><g><path fill="none" stroke="#388c46" class="dcg-svg-curve" paint-order="fill stroke markers" d=" M 34.01763322927071 324.5 L 45.01763322927071 324.5 M 52.01763322927071 324.5 L 63.01763322927071 324.5 M 70.0176332292707 324.5 L 81.0176332292707 324.5 M 88.0176332292707 324.5 L 99.0176332292707 324.5 M 106.0176332292707 324.5 L 117.0176332292707 324.5 M 124.0176332292707 324.5 L 135.0176332292707 324.5 M 142.0176332292707 324.5 L 153.0176332292707 324.5 M 160.0176332292707 324.5 L 171.0176332292707 324.5 M 178.0176332292707 324.5 L 189.0176332292707 324.5 M 196.0176332292707 324.5 L 207.0176332292707 324.5 M 214.0176332292707 324.5 L 225.0176332292707 324.5 M 232.0176332292707 324.5 L 243.0176332292707 324.5 M 250.0176332292707 324.5 L 261.0176332292707 324.5 M 268.0176332292707 324.5 L 279.0176332292707 324.5 M 286.0176332292707 324.5 L 297.0176332292707 324.5 M 304.0176332292707 324.5 L 315.0176332292707 324.5 M 322.0176332292707 324.5 L 333.0176332292707 324.5 M 340.0176332292707 324.5 L 351.0176332292707 324.5 M 358.0176332292707 324.5 L 369.0176332292707 324.5 M 376.0176332292707 324.5 L 387.0176332292707 324.5 M 394.0176332292707 324.5 L 405.0176332292707 324.5 M 412.0176332292707 324.5 L 423.0176332292707 324.5 M 430.0176332292707 324.5 L 441.0176332292707 324.5 M 448.0176332292707 324.5 L 459.0176332292707 324.5 M 466.0176332292707 324.5 L 477.0176332292707 324.5 M 484.0176332292707 324.5 L 495.0176332292707 324.5 M 502.0176332292707 324.5 L 513.0176332292707 324.5 M 520.0176332292707 324.5 L 531.0176332292707 324.5 M 538.0176332292707 324.5 L 549.0176332292707 324.5 M 556.0176332292707 324.5 L 564.9823667707293 324.5" stroke-linecap="round" stroke-linejoin="round" stroke-miterlimit="10" stroke-width="2.5" stroke-opacity="0.9" stroke-dasharray=""/></g><g><path fill="none" stroke="#388c46" class="dcg-svg-curve" paint-order="fill stroke markers" d=" M 34.01763322927071 324.4999999999999 L 35.54264819009744 313.606225201095 M 36.51311225607808 306.67382305633737 L 38.038127216904805 295.7800482574325 M 39.071511238664755 288.8567924291275 L 40.711205303819526 277.97968787999787 M 41.754646981645294 271.05789407600633 L 42.2734375 267.616435802076 M 42.2734375 267.616435802076 L 43.4811011366207 260.1943869722785 M 44.60530720666308 253.2852509400325 L 46.37191674530111 242.42803717507454 M 47.58447918616634 235.53386062949912 L 49.49031629680528 224.70021927916306 M 50.7330643844109 217.81156983373495 L 52.791875087027016 207.0059556220951 M 54.10202735232818 200.12965566923336 L 54.28515625 199.16850843178693 M 54.28515625 199.16850843178693 L 56.314280481702475 189.35452009412816 M 57.73161134333091 182.4995092824171 L 58.09375 180.7480026483536 M 58.09375 180.7480026483536 L 60.11437538756291 171.76090974474957 M 61.649897101038874 164.9314022173034 L 61.90234375 163.80860058302645 M 61.90234375 163.80860058302645 L 64.2466191807386 154.24248875049676 M 65.94295453754472 147.45140889347567 L 68.78826211122865 136.82576892163695 M 70.72035617006328 130.0980701040371 L 72.7421875 123.20761206606409 M 72.7421875 123.20761206606409 L 73.91447347581465 119.57294598071127 M 76.06318255631498 112.91088554212506 L 76.2578125 112.30743649462244 M 76.2578125 112.30743649462244 L 79.626953125 102.83736795081683 M 79.626953125 102.83736795081683 L 79.74220124664475 102.54484416475088 M 82.30809410315948 96.03207256973185 L 82.99609375 94.2857858742646 M 82.99609375 94.2857858742646 L 86.21875 86.93262827396399 M 86.21875 86.93262827396399 L 86.70048933603793 85.94960368389165 M 89.81466034519418 79.6814115554236 L 92.6640625 74.52735706279054 M 92.6640625 74.52735706279054 L 95.38346738990785 70.20017418367782 M 99.50392174374977 64.54654309514818 L 101.892578125 61.701264945260846 M 101.892578125 61.701264945260846 L 104.96875 58.615081429481506 M 104.96875 58.615081429481506 L 107.22890432466917 56.75438043945052 M 113.15609737206562 53.06880259896675 L 113.7578125 52.766851811204106 M 113.7578125 52.766851811204106 L 116.39453125 51.81111458633677 M 116.39453125 51.81111458633677 L 118.884765625 51.223468050559006 M 118.884765625 51.223468050559006 L 121.375 50.92959594726568 M 121.375 50.92959594726568 L 123.83103455638961 50.92578966362322 M 130.67514753763422 52.271881825059054 L 132.361328125 52.84213330578683 M 132.361328125 52.84213330578683 L 135.4375 54.2274112701416 M 135.4375 54.2274112701416 L 138.66015625 56.03560193153686 M 138.66015625 56.03560193153686 L 140.4455621691224 57.235290881778816 M 146.0406994679399 61.43502474435176 L 146.130859375 61.50587413776702 M 146.130859375 61.50587413776702 L 150.37890625 65.33019654630334 M 150.37890625 65.33019654630334 L 154.0083358546773 69.01128799283634 M 158.72191771532374 74.18405565590061 L 160.486328125 76.17073279088982 M 160.486328125 76.17073279088982 L 165.74943638839432 82.64407378841838 M 169.98740892894315 88.21487196255134 L 172.64453125 91.73432312850491 M 172.64453125 91.73432312850491 L 176.4599647221964 97.1076328156974 M 180.50486079686465 102.82055157598523 L 186.6747797004104 111.92725793578781 M 190.59791990275914 117.72457422015631 L 196.73055708359072 126.85642842443937 M 200.63314438048354 132.6676083726195 L 206.76578156131512 141.79946257690256 M 210.66836885820797 147.61064252508268 L 216.80100603903955 156.7424967293657 M 220.8265829149721 162.46806801433735 L 226.55078125 170.4057817015855 M 226.55078125 170.4057817015855 L 227.28982280122418 171.3683967024098 M 231.5526087578497 176.92075258869772 L 233.875 179.94570922851562 M 233.875 179.94570922851562 L 238.44760781059946 185.48962499582 M 243.0172645807349 190.79047134301968 L 246.619140625 194.81923380717672 M 246.619140625 194.81923380717672 L 250.53452228980993 198.8172004148682 M 255.58338939091266 203.66260719880844 L 258.044921875 205.93032962333564 M 258.044921875 205.93032962333564 L 263.318359375 210.25899147116615 M 263.318359375 210.25899147116615 L 263.9915278894747 210.7455658486536 M 269.73221641388824 214.74611493984577 L 272.693359375 216.60740112620442 M 272.693359375 216.60740112620442 L 277.087890625 218.96371422826815 M 277.087890625 218.96371422826815 L 279.38542648495434 219.98935775603638 M 285.9361525240348 222.43570174379653 L 288.953125 223.26623783260584 M 288.953125 223.26623783260584 L 292.76171875 223.99587278664694 M 292.76171875 223.99587278664694 L 296.423828125 224.39487332576573 M 296.423828125 224.39487332576573 L 296.73287082219326 224.40342297021655 M 303.7263437624513 224.30071322066675 L 303.748046875 224.29954786912458 M 303.748046875 224.29954786912458 L 307.41015625 223.80546743693412 M 307.41015625 223.80546743693412 L 311.072265625 223.01521788813443 M 311.072265625 223.01521788813443 L 314.4618228326456 222.00613345130964 M 320.945163167953 219.38302092910845 L 322.9375 218.45012855529785 M 322.9375 218.45012855529785 L 327.185546875 216.0878954759046 M 327.185546875 216.0878954759046 L 330.49608402991026 213.95265188773658 M 336.17923815142285 209.8692853652884 L 336.267578125 209.80428201419454 M 336.267578125 209.80428201419454 L 341.248046875 205.67448618017988 M 341.248046875 205.67448618017988 L 344.4947680422037 202.6747420067871 M 349.49043695938695 197.774252815347 L 352.234375 194.97579381614923 M 352.234375 194.97579381614923 L 356.9590823346466 189.70188879969743 M 361.4840048144775 184.36252913696126 L 364.83203125 180.31351490822271 M 364.83203125 180.31351490822271 L 368.34154290228577 175.76372040277352 M 372.5828368688549 170.1955402231385 L 379.0469200383282 161.2952240052656 M 383.03966726603556 155.545842354708 L 388.5625 147.5507755279541 M 388.5625 147.5507755279541 L 389.27391449985845 146.4832438964054 M 393.15578356300057 140.65820376121147 L 399.2558635193668 131.50456926304958 M 403.1422208802336 125.68252901633099 L 409.2672209426665 116.54555061889583 M 413.1649482551238 110.731109820528 L 417.712890625 103.94670969599429 M 417.712890625 103.94670969599429 L 419.3478101017211 101.63396807609418 M 423.38854388600856 95.91798430385357 L 426.0625 92.13543128967285 M 426.0625 92.13543128967285 L 429.897711174076 87.05218591194009 M 434.17213758287954 81.5100871894787 L 438.953125 75.65452442318201 M 438.953125 75.65452442318201 L 441.24993841153935 73.09289324100529 M 446.01601936005954 67.96928657437898 L 449.353515625 64.63699498035749 M 449.353515625 64.63699498035749 L 453.89453125 60.65646525417111 M 453.89453125 60.65646525417111 L 454.09029418094826 60.50900961461707 M 459.780006834944 56.43989381022858 L 461.658203125 55.25319504504483 M 461.658203125 55.25319504504483 L 465.02734375 53.52495621601702 M 465.02734375 53.52495621601702 L 468.103515625 52.30551246841247 M 468.103515625 52.30551246841247 L 469.72343053396753 51.85010221962333 M 476.63117555995524 50.901001543095376 L 478.943359375 51.04930605008303 M 478.943359375 51.04930605008303 L 481.43359375 51.49722318342543 M 481.43359375 51.49722318342543 L 483.923828125 52.245237986609936 M 483.923828125 52.245237986609936 L 486.4140625 53.30541982362047 M 486.4140625 53.30541982362047 L 487.15239264026985 53.7188377713341 M 492.90161149021833 57.679485201845125 L 494.763671875 59.298760851199404 M 494.763671875 59.298760851199404 L 497.83984375 62.52034923704923 M 497.83984375 62.52034923704923 L 500.4034510296595 65.69174437230245 M 504.4107313452721 71.42687300298337 L 507.068359375 75.78814592179879 M 507.068359375 75.78814592179879 L 509.8641204351171 80.9754945077008 M 512.9233763614567 87.2709682351301 L 513.220703125 87.88889349507559 M 513.220703125 87.88889349507559 L 516.443359375 95.35038527301555 M 516.443359375 95.35038527301555 L 517.2369837876821 97.38784827688154 M 519.768336421913 103.91395753816822 L 523.03515625 113.1755118508882 M 523.03515625 113.1755118508882 L 523.3951346893376 114.29840171346477 M 525.5320845089766 120.9642434058803 L 526.404296875 123.68495752871428 M 526.404296875 123.68495752871428 L 528.6929498503072 131.49961253386917 M 530.5910965212648 138.23687693036123 L 533.2890625 148.29384862491864 M 533.2890625 148.29384862491864 L 533.4295684877661 148.86422325262177 M 535.1038936590027 155.6610339179974 L 536.8046875 162.56529237190261 M 536.8046875 162.56529237190261 L 537.6645984702766 166.3583807424209 M 539.2122586560756 173.18514776270897 L 540.466796875 178.71894660125872 M 540.466796875 178.71894660125872 L 541.5566469092146 183.93202034054048 M 542.989104344146 190.78388619570066 L 544.12890625 196.23589445083053 M 544.12890625 196.23589445083053 L 545.1586916169732 201.5674763554691 M 546.4861936037131 208.44044794534213 L 547.9375 215.95440101623538 M 547.9375 215.95440101623538 L 548.5264884458855 219.24934426186653 M 549.7582505101574 226.14011796421815 L 551.6938766111559 236.96847663934216 M 552.8418604543095 243.87367853112372 L 554.640007000273 254.72571377799053 M 555.7784680766775 261.6324831939895 L 557.4508247561325 272.50461376424494 M 558.5150517339675 279.4232423089529 L 559.65625 286.84226763248444 M 559.65625 286.84226763248444 L 560.1507903105048 290.30080706212624 M 561.1416493965445 297.2303235150696 L 562.6987136746069 308.11956365540914 M 563.6895727606466 315.0490801083525 L 563.7578125 315.5263108299114 M 563.7578125 315.5263108299114 L 564.9823667707293 324.4999999999999" stroke-linecap="round" stroke-linejoin="round" stroke-miterlimit="10" stroke-width="2.5" stroke-opacity="0.9" stroke-dasharray=""/></g></g></g><g id="labels-26e4ff58"/></g></svg>