<svg version="1.1" xmlns="http://www.w3.org/2000/svg" xmlns:xlink="http://www.w3.org/1999/xlink" width="600" height="400"><defs/><g transform="scale(1,1)"><g id="background-245fb6aa"><rect fill="white" stroke="none" x="0" y="0" width="600" height="400" class="dcg-svg-background"/></g><g id="background-images-245fb6aa"/><g id="graphpaper-245fb6aa"><g id="grid-245fb6aa"><g><path fill="none" stroke="rgb(0,0,0)" class="dcg-svg-minor-gridline" paint-order="fill stroke markers" d=" M -0.5 0 L -0.5 400" stroke-opacity="0.12" stroke-miterlimit="10" stroke-dasharray=""/><path fill="none" stroke="rgb(0,0,0)" class="dcg-svg-minor-gridline" paint-order="fill stroke markers" d=" M 24.5 0 L 24.5 400" stroke-opacity="0.12" stroke-miterlimit="10" stroke-dasharray=""/><path fill="none" stroke="rgb(0,0,0)" class="dcg-svg-minor-gridline" paint-order="fill stroke markers" d=" M 49.5 0 L 49.5 400" stroke-opacity="0.12" stroke-miterlimit="10" stroke-dasharray=""/><path fill="none" stroke="rgb(0,0,0)" class="dcg-svg-minor-gridline" paint-order="fill stroke markers" d=" M 74.5 0 L 74.5 400" stroke-opacity="0.12" stroke-miterlimit="10" stroke-dasharray=""/><path fill="none" stroke="rgb(0,0,0)" class="dcg-svg-minor-gridline" paint-order="fill stroke markers" d=" M 99.5 0 L 99.5 400" stroke-opacity="0.12" stroke-miterlimit="10" stroke-dasharray=""/><path fill="none" stroke="rgb(0,0,0)" class="dcg-svg-minor-gridline" paint-order="fill stroke markers" d=" M 124.5 0 L 124.5 400" stroke-opacity="0.12" stroke-miterlimit="10" stroke-dasharray=""/><path fill="none" stroke="rgb(0,0,0)" class="dcg-svg-minor-gridline" paint-order="fill stroke markers" d=" M 149.5 0 L 149.5 400" stroke-opacity="0.12" stroke-miterlimit="10" stroke-dasharray=""/><path fill="none" stroke="rgb(0,0,0)" class="dcg-svg-minor-gridline" paint-order="fill stroke markers" d=" M 174.5 0 L 174.5 400" stroke-opacity="0.12" stroke-miterlimit="10" stroke-dasharray=""/><path fill="none" stroke="rgb(0,0,0)" class="dcg-svg-minor-gridline" paint-order="fill stroke markers" d=" M 199.5 0 L 199.5 400" stroke-opacity="0.12" stroke-miterlimit="10" stroke-dasharray=""/><path fill="none" stroke="rgb(0,0,0)" class="dcg-svg-minor-gridline" paint-order="fill stroke markers" d=" M 224.5 0 L 224.5 400" stroke-opacity="0.12" stroke-miterlimit="10" stroke-dasharray=""/><path fill="none" stroke="rgb(0,0,0)" class="dcg-svg-minor-gridline" paint-order="fill stroke markers" d=" M 249.5 0 L 249.5 400" stroke-opacity="0.12" stroke-miterlimit="10" stroke-dasharray=""/><path fill="none" stroke="rgb(0,0,0)" class="dcg-svg-minor-gridline" paint-order="fill stroke markers" d=" M 274.5 0 L 274.5 400" stroke-opacity="0.12" stroke-miterlimit="10" stroke-dasharray=""/><path fill="none" stroke="rgb(0,0,0)" class="dcg-svg-minor-gridline" paint-order="fill stroke markers" d=" M 324.5 0 L 324.5 400" stroke-opacity="0.12" stroke-miterlimit="10" stroke-dasharray=""/><path fill="none" stroke="rgb(0,0,0)" class="dcg-svg-minor-gridline" paint-order="fill stroke markers" d=" M 349.5 0 L 349.5 400" stroke-opacity="0.12" stroke-miterlimit="10" stroke-dasharray=""/><path fill="none" stroke="rgb(0,0,0)" class="dcg-svg-minor-gridline" paint-order="fill stroke markers" d=" M 374.5 0 L 374.5 400" stroke-opacity="0.12" stroke-miterlimit="10" stroke-dasharray=""/><path fill="none" stroke="rgb(0,0,0)" class="dcg-svg-minor-gridline" paint-order="fill stroke markers" d=" M 399.5 0 L 399.5 400" stroke-opacity="0.12" stroke-miterlimit="10" stroke-dasharray=""/><path fill="none" stroke="rgb(0,0,0)" class="dcg-svg-minor-gridline" paint-order="fill stroke markers" d=" M 424.5 0 L 424.5 400" stroke-opacity="0.12" stroke-miterlimit="10" stroke-dasharray=""/><path fill="none" stroke="rgb(0,0,0)" class="dcg-svg-minor-gridline" paint-order="fill stroke markers" d=" M 449.5 0 L 449.5 400" stroke-opacity="0.12" stroke-miterlimit="10" stroke-dasharray=""/><path fill="none" stroke="rgb(0,0,0)" class="dcg-svg-minor-gridline" paint-order="fill stroke markers" d=" M 474.5 0 L 474.5 400" stroke-opacity="0.12" stroke-miterlimit="10" stroke-dasharray=""/><path fill="none" stroke="rgb(0,0,0)" class="dcg-svg-minor-gridline" paint-order="fill stroke markers" d=" M 499.5 0 L 499.5 400" stroke-opacity="0.12" stroke-miterlimit="10" stroke-dasharray=""/><path fill="none" stroke="rgb(0,0,0)" class="dcg-svg-minor-gridline" paint-order="fill stroke markers" d=" M 524.5 0 L 524.5 400" stroke-opacity="0.12" stroke-miterlimit="10" stroke-dasharray=""/><path fill="none" stroke="rgb(0,0,0)" class="dcg-svg-minor-gridline" paint-order="fill stroke markers" d=" M 549.5 0 L 549.5 400" stroke-opacity="0.12" stroke-miterlimit="10" stroke-dasharray=""/><path fill="none" stroke="rgb(0,0,0)" class="dcg-svg-minor-gridline" paint-order="fill stroke markers" d=" M 574.5 0 L 574.5 400" stroke-opacity="0.12" stroke-miterlimit="10" stroke-dasharray=""/><path fill="none" stroke="rgb(0,0,0)" class="dcg-svg-minor-gridline" paint-order="fill stroke markers" d=" M 0 374.5 L 600 374.5" stroke-opacity="0.12" stroke-miterlimit="10" stroke-dasharray=""/><path fill="none" stroke="rgb(0,0,0)" class="dcg-svg-minor-gridline" paint-order="fill stroke markers" d=" M 0 349.5 L 600 349.5" stroke-opacity="0.12" stroke-miterlimit="10" stroke-dasharray=""/><path fill="none" stroke="rgb(0,0,0)" class="dcg-svg-minor-gridline" paint-order="fill stroke markers" d=" M 0 299.5 L 600 299.5" stroke-opacity="0.12" stroke-miterlimit="10" stroke-dasharray=""/><path fill="none" stroke="rgb(0,0,0)" class="dcg-svg-minor-gridline" paint-order="fill stroke markers" d=" M 0 274.5 L 600 274.5" stroke-opacity="0.12" stroke-miterlimit="10" stroke-dasharray=""/><path fill="none" stroke="rgb(0,0,0)" class="dcg-svg-minor-gridline" paint-order="fill stroke markers" d=" M 0 249.5 L 600 249.5" stroke-opacity="0.12" stroke-miterlimit="10" stroke-dasharray=""/><path fill="none" stroke="rgb(0,0,0)" class="dcg-svg-minor-gridline" paint-order="fill stroke markers" d=" M 0 224.5 L 600 224.5" stroke-opacity="0.12" stroke-miterlimit="10" stroke-dasharray=""/><path fill="none" stroke="rgb(0,0,0)" class="dcg-svg-minor-gridline" paint-order="fill stroke markers" d=" M 0 199.5 L 600 199.5" stroke-opacity="0.12" stroke-miterlimit="10" stroke-dasharray=""/><path fill="none" stroke="rgb(0,0,0)" class="dcg-svg-minor-gridline" paint-order="fill stroke markers" d=" M 0 174.5 L 600 174.5" stroke-opacity="0.12" stroke-miterlimit="10" stroke-dasharray=""/><path fill="none" stroke="rgb(0,0,0)" class="dcg-svg-minor-gridline" paint-order="fill stroke markers" d=" M 0 149.5 L 600 149.5" stroke-opacity="0.12" stroke-miterlimit="10" stroke-dasharray=""/><path fill="none" stroke="rgb(0,0,0)" class="dcg-svg-minor-gridline" paint-order="fill stroke markers" d=" M 0 124.5 L 600 124.5" stroke-opacity="0.12" stroke-miterlimit="10" stroke-dasharray=""/><path fill="none" stroke="rgb(0,0,0)" class="dcg-svg-minor-gridline" paint-order="fill stroke markers" d=" M 0 99.5 L 600 99.5" stroke-opacity="0.12" stroke-miterlimit="10" stroke-dasharray=""/><path fill="none" stroke="rgb(0,0,0)" class="dcg-svg-minor-gridline" paint-order="fill stroke markers" d=" M 0 74.5 L 600 74.5" stroke-opacity="0.12" stroke-miterlimit="10" stroke-dasharray=""/><path fill="none" stroke="rgb(0,0,0)" class="dcg-svg-minor-gridline" paint-order="fill stroke markers" d=" M 0 49.5 L 600 49.5" stroke-opacity="0.12" stroke-miterlimit="10" stroke-dasharray=""/><path fill="none" stroke="rgb(0,0,0)" class="dcg-svg-minor-gridline" paint-order="fill stroke markers" d=" M 0 24.5 L 600 24.5" stroke-opacity="0.12" stroke-miterlimit="10" stroke-dasharray=""/><path fill="none" stroke="rgb(0,0,0)" class="dcg-svg-minor-gridline" paint-order="fill stroke markers" d=" M 0 -0.5 L 600 -0.5" stroke-opacity="0.12" stroke-miterlimit="10" stroke-dasharray=""/><path fill="none" stroke="rgb(0,0,0)" class="dcg-svg-major-gridline" paint-order="fill stroke markers" d=" M -0.5 0 L -0.5 400" stroke-opacity="0.31818181818181823" stroke-miterlimit="10" stroke-dasharray=""/><path fill="none" stroke="rgb(0,0,0)" class="dcg-svg-major-gridline" paint-order="fill stroke markers" d=" M 99.5 0 L 99.5 400" stroke-opacity="0.31818181818181823" stroke-miterlimit="10" stroke-dasharray=""/><path fill="none" stroke="rgb(0,0,0)" class="dcg-svg-major-gridline" paint-order="fill stroke markers" d=" M 199.5 0 L 199.5 400" stroke-opacity="0.31818181818181823" stroke-miterlimit="10" stroke-dasharray=""/><path fill="none" stroke="rgb(0,0,0)" class="dcg-svg-major-gridline" paint-order="fill stroke markers" d=" M 399.5 0 L 399.5 400" stroke-opacity="0.31818181818181823" stroke-miterlimit="10" stroke-dasharray=""/><path fill="none" stroke="rgb(0,0,0)" class="dcg-svg-major-gridline" paint-order="fill stroke markers" d=" M 499.5 0 L 499.5 400" stroke-opacity="0.31818181818181823" stroke-miterlimit="10" stroke-dasharray=""/><path fill="none" stroke="rgb(0,0,0)" class="dcg-svg-major-gridline" paint-order="fill stroke markers" d=" M 0 224.5 L 600 224.5" stroke-opacity="0.31818181818181823" stroke-miterlimit="10" stroke-dasharray=""/><path fill="none" stroke="rgb(0,0,0)" class="dcg-svg-major-gridline" paint-order="fill stroke markers" d=" M 0 124.5 L 600 124.5" stroke-opacity="0.31818181818181823" stroke-miterlimit="10" stroke-dasharray=""/><path fill="none" stroke="rgb(0,0,0)" class="dcg-svg-major-gridline" paint-order="fill stroke markers" d=" M 0 24.5 L 600 24.5" stroke-opacity="0.31818181818181823" stroke-miterlimit="10" stroke-dasharray=""/></g></g><g id="axis-245fb6aa"><g id="yaxis-245fb6aa"><title>Y axis</title><path fill="none" stroke="rgb(0,0,0)" class="dcg-svg-axis-line" paint-order="fill stroke markers" d=" M 299.75 0 L 299.75 400" stroke-opacity="0.9" stroke-miterlimit="10" stroke-width="1.5" stroke-dasharray=""/></g><g id="xaxis-245fb6aa"><title>X axis</title><path fill="none" stroke="rgb(0,0,0)" class="dcg-svg-axis-line" paint-order="fill stroke markers" d=" M 0 324.75 L 600 324.75" stroke-opacity="0.9" stroke-miterlimit="10" stroke-width="1.5" stroke-dasharray=""/></g><g/></g></g><g id="expressions-245fb6aa"><g id="sketch-245fb6aa"><title>Expression 1</title><path fill="#2d70b3" stroke="none" paint-order="stroke fill markers" d="" fill-opacity="0.4"/><g><path fill="none" stroke="#2d70b3" class="dcg-svg-curve" paint-order="fill stroke markers" d=" M 39.49999999999999 285.7906666666668 L 39.49999999999999 285.7906666666668 L 43.60149097567353 259.2391055254319 L 47.55650013078733 235.50837307928683 L 51.51150928590113 213.54829160561985 L 55.32003662045514 194.01344357283008 L 59.12856395500915 176.0013250177815 L 62.93709128956316 159.45483151028526 L 66.59913680355743 144.87456128676246 L 70.26118231755162 131.54818735500845 L 73.77674601098614 119.8895829681178 L 77.29230970442059 109.29977165193048 L 80.66139157729529 100.11569778563182 L 84.03047345017004 91.83908916167894 L 87.25307350248495 84.73879413936857 L 90.47567355479993 78.40581106273828 L 93.69827360711483 72.81006256769467 L 96.77439183886997 68.12918183881663 L 99.85051007062516 64.06768039875448 L 102.9266283023803 60.600572123793256 L 106.0027465341355 57.70325292315664 L 108.93238294533091 55.451471093271834 L 111.71553753596649 53.7518584633213 L 114.35221030604235 52.52073004456179 L 116.98888307611823 51.64353213049765 L 119.4790740256343 51.12709057278374 L 121.96926497515038 50.9015778612096 L 124.60593774522624 50.96681470162315 L 127.24261051530212 51.33122929590979 L 130.02576510593772 52.025463085676336 L 132.95540151713317 53.08274548240939 L 136.0315197488883 54.533918367407125 L 139.40060162176303 56.5002624292153 L 143.06264713575726 59.05467302487148 L 147.017656290871 62.26420594844609 L 151.41211090766416 66.3310174617539 L 156.39249280669634 71.5107732425621 L 161.8123201674078 77.75036298567608 L 167.67159298979857 85.09549547958107 L 174.40975673554797 94.16637410830407 L 182.31977504577554 105.45034205088172 L 193.30591158775832 121.80681999005657 L 215.13170285116396 154.41830442899982 L 223.9206120847502 166.8314644915451 L 231.39118493329843 176.78318160068034 L 238.27583049960762 185.34898868581675 L 244.57454878367776 192.5979180631231 L 250.5803034266283 198.9277437821113 L 256.2930944284593 204.3769397612264 L 261.7129217891708 208.99730463352716 L 266.693303688203 212.7472745777752 L 271.3807219461156 215.82565942944822 L 275.7751765629087 218.3022429498328 L 280.023149359142 220.31060848984205 L 283.97815851425577 221.83334638157865 L 287.78668584880984 222.9788828958218 L 291.59521318336385 223.80640907440068 L 295.25725869735805 224.30004811922927 L 298.91930421135237 224.49625326911544 L 302.58134972534657 224.39451918071396 L 306.24339523934077 223.99510784330792 L 309.9054407533351 223.2990485788088 L 313.7139680878891 222.262402374083 L 317.5224954224431 220.90975207636183 L 321.47750457755683 219.17468980044168 L 325.5789955532304 217.02540968866467 L 329.97345017002357 214.3351836465857 L 334.51438660737637 211.1449136856299 L 339.3482866858488 207.30506841041182 L 344.47515040544073 202.75223381300873 L 350.041459586712 197.27737124146267 L 356.0472142296626 190.78895121727405 L 362.34593251373263 183.38866254238448 L 369.08409625948207 174.86849638771398 L 376.4081872874706 164.99890649115042 L 384.9041328799372 152.91490851476803 L 395.8902694219199 136.61226491949253 L 419.7668061731624 100.98067237818816 L 427.67682448339 89.93834628505488 L 434.26850640857964 81.3389047354699 L 440.1277792309704 74.29310618415002 L 445.40112477112217 68.53486489902792 L 450.3815066701543 63.68734897567447 L 454.77596128694745 59.9503444402427 L 458.7309704420613 57.067892850146166 L 462.3930159560555 54.84255751558686 L 465.61561600837035 53.264609217118846 L 468.6917342401256 52.11310227570448 L 471.47488883076113 51.387450867616735 L 474.11156160083704 50.99179031612039 L 476.7482343709129 50.89384316876112 L 479.238425320429 51.08709832091313 L 481.72861626994506 51.56993783541975 L 484.2188072194611 52.35428581472661 L 486.7089981689772 53.4522304275539 L 489.34567093905315 54.97018854378763 L 492.1288255296887 56.98509300682002 L 495.0584619408842 59.582865059132075 L 498.1345801726393 62.85928072379511 L 501.2106984043944 66.72192964802798 L 504.28681663614964 71.19567191066488 L 507.36293486790476 76.30574962347879 L 510.43905309966 82.0777869311824 L 513.5151713314151 88.53779001142703 L 516.7377713837301 96.0720556882066 L 519.9603714360451 104.421122341466 L 523.3294533089197 114.05481445268151 L 526.6985351817945 124.64946938301057 L 530.0676170546692 136.24188281870602 L 533.5831807481036 149.44248677866688 L 537.0987444415381 163.813234375234 L 540.7607899555323 180.07420133644345 L 544.4228354695265 197.70247034477222 L 548.2313628040805 217.541066404727 L 552.0398901386346 238.97181226397765 L 555.9948992937484 262.9753374043585 L 559.9499084488621 288.82673479764037 L 564.0513994245357 317.66035294836206 L 568.1528904002092 348.63191319709114 L 572.4008631964426 383.0471731543823 L 574.9869635797098 405.5" stroke-linecap="round" stroke-linejoin="round" stroke-miterlimit="10" stroke-width="2.5" stroke-opacity="0.9" stroke-dasharray=""/></g></g><g id="sketch-245fb6aa"><title>Expression 2</title><path fill="#388c46" stroke="none" paint-order="stroke fill markers" d="" fill-opacity="0.4"/><path fill="#388c46" stroke="none" paint-order="stroke fill markers" d="" fill-opacity="0.4"/><path fill="#388c46" stroke="none" class="dcg-svg-region" paint-order="stroke fill markers" d=" M 39.49999999999999 324.5 L 564.9823667707293 324.5 L 564.9823667707293 324.4999999999999 L 564.05078125 317.655848026654 L 559.94921875 288.8220616284816 L 555.994140625 262.97055789819024 L 552.0390625 238.96697788545865 L 548.23046875 217.53622474093575 L 544.421875 197.69766316562894 L 540.759765625 180.06946407604303 L 537.09765625 163.80860058302645 L 533.58203125 149.43798164781768 L 530.06640625 136.23753297320224 L 526.697265625 124.64529145272724 L 523.328125 114.050829268992 L 519.958984375 104.41734902266217 L 516.736328125 96.06850136751933 L 513.513671875 88.53446921548499 L 510.4375 82.0747013092041 L 507.361328125 76.3029099440264 L 504.28515625 71.19308777796687 L 501.208984375 66.71960952862901 L 498.1328125 62.85723197320476 L 495.056640625 59.58109394847452 L 492.126953125 56.98359117737891 L 489.34375 54.96894609928131 L 486.70703125 53.45123623442487 L 484.216796875 52.353527761990335 L 481.7265625 51.56941703567287 L 479.236328125 51.086815388227535 L 476.74609375 50.893798230128596 L 474.109375 50.99199698120361 L 471.47265625 51.38790819505817 L 468.54296875 52.160500445781565 L 465.466796875 53.32927831168678 L 462.09765625 55.005398222157964 L 458.435546875 57.266491323354785 L 454.48046875 60.184559355868316 L 449.939453125 64.09234189905146 L 444.958984375 68.99414812851501 L 439.685546875 74.80246981849814 L 433.826171875 81.89530703803212 L 427.234375 90.53728864341974 L 419.32421875 101.61688082330511 L 396.47265625 135.73528814772726 L 385.33984375 152.28036551448167 L 376.84375 164.39449083805084 L 369.373046875 174.4904224191505 L 362.634765625 183.03569256441006 L 356.3359375 190.46262308070436 L 350.330078125 196.9790109751575 L 344.763671875 202.48179234313466 L 339.490234375 207.18556854754024 L 334.65625 211.03866350650787 L 330.115234375 214.24181891252556 L 325.720703125 216.94486426258845 L 321.619140625 219.10637296587265 L 317.6640625 220.85342808673158 L 313.85546875 222.21777796690003 L 310.046875 223.26623783260584 L 306.384765625 223.97373278272607 L 302.72265625 224.38462458262802 L 299.060546875 224.4978542394183 L 295.3984375 224.31313014635816 L 291.736328125 223.83092808286347 L 287.927734375 223.01521788813443 L 284.119140625 221.8813846338544 L 280.1640625 220.3706453652121 L 275.916015625 218.3749499212372 L 271.521484375 215.9111890016011 L 266.833984375 212.84610654165772 L 261.853515625 209.10977920339246 L 256.580078125 204.63527539668758 L 250.8671875 199.21502816537395 L 244.861328125 192.9135095791953 L 238.5625 185.6916446685791 L 231.82421875 177.3401410918741 L 224.353515625 167.42469518267353 L 215.564453125 155.0441783923834 L 192.712890625 120.91272693851533 L 182.01953125 105.01236444283859 L 174.109375 93.74998495727777 L 167.517578125 84.89539760903608 L 161.658203125 77.56509448354518 L 156.23828125 71.34200727046118 L 151.2578125 66.1798727796413 L 146.86328125 62.13063366190181 L 142.908203125 58.93858918407392 L 139.24609375 56.40182374222792 L 135.876953125 54.45297655078508 L 132.80078125 53.01885964759282 L 129.87109375 51.978799143718845 L 127.087890625 51.3018262621718 L 124.451171875 50.9545869972153 L 121.814453125 50.90733918605298 L 119.32421875 51.150600243738154 L 116.833984375 51.68553820749554 L 114.197265625 52.583147946244935 L 111.560546875 53.835551855265294 L 108.77734375 55.55857315371395 L 105.84765625 57.836067468771944 L 102.771484375 60.76158692649369 L 99.6953125 64.25814713397995 L 96.619140625 68.35037274137176 L 93.54296875 73.06327045839862 L 90.3203125 78.69396965065971 L 87.09765625 85.06336865658523 L 83.875 92.20156860351568 L 80.505859375 100.51942298738322 L 77.13671875 109.74642328397027 L 73.62109375 120.38284875630058 L 70.10546875 132.08995800410054 L 66.443359375 145.4689018448353 L 62.78125 160.10386240482333 L 58.97265625 176.70952107469205 L 55.1640625 194.7831760258414 L 51.35546875 214.3819714332058 L 47.400390625 236.41105432671068 L 43.4453125 260.21347577730194 L 39.49999999999999 285.7906666666668" fill-opacity="0.4"/><g><path fill="none" stroke="#388c46" class="dcg-svg-curve" paint-order="fill stroke markers" d=" M 39.49999999999999 324.5 L 50.49999999999999 324.5 M 57.49999999999999 324.5 L 68.5 324.5 M 75.5 324.5 L 86.5 324.5 M 93.5 324.5 L 104.5 324.5 M 111.5 324.5 L 122.5 324.5 M 129.5 324.5 L 140.5 324.5 M 147.5 324.5 L 158.5 324.5 M 165.5 324.5 L 176.5 324.5 M 183.5 324.5 L 194.5 324.5 M 201.5 324.5 L 212.5 324.5 M 219.5 324.5 L 230.5 324.5 M 237.5 324.5 L 248.5 324.5 M 255.5 324.5 L 266.5 324.5 M 273.5 324.5 L 284.5 324.5 M 291.5 324.5 L 302.5 324.5 M 309.5 324.5 L 320.5 324.5 M 327.5 324.5 L 338.5 324.5 M 345.5 324.5 L 356.5 324.5 M 363.5 324.5 L 374.5 324.5 M 381.5 324.5 L 392.5 324.5 M 399.5 324.5 L 410.5 324.5 M 417.5 324.5 L 428.5 324.5 M 435.5 324.5 L 446.5 324.5 M 453.5 324.5 L 464.5 324.5 M 471.5 324.5 L 482.5 324.5 M 489.5 324.5 L 500.5 324.5 M 507.5 324.5 L 518.5 324.5 M 525.5 324.5 L 536.5 324.5 M 543.5 324.5 L 554.5 324.5 M 561.5 324.5 L 564.9823667707293 324.5" stroke-linecap="round" stroke-linejoin="round" stroke-miterlimit="10" stroke-width="2.5" stroke-opacity="0.9" stroke-dasharray=""/></g><g><path fill="none" stroke="#388c46" class="dcg-svg-curve" paint-order="fill stroke markers" d=" M 39.49999999999999 285.7906666666668 L 41.17693055856505 274.9192406377711 M 42.24406818674281 268.0010604375648 L 43.4453125 260.21347577730194 M 43.4453125 260.21347577730194 L 43.956779885651585 257.13536660050505 M 45.10418765326797 250.2300457958781 L 46.907257002379446 239.37882738860722 M 48.105748523914954 232.48233607293764 L 50.0495960951732 221.65545025014848 M 51.28659000415572 214.76561381746444 L 51.35546875 214.3819714332058 M 51.35546875 214.3819714332058 L 53.3794693466019 203.96658554512462 M 54.71478563337844 197.09512788213422 L 55.1640625 194.7831760258414 M 55.1640625 194.7831760258414 L 56.94660126613128 186.32415080265915 M 58.38998602963549 179.47457852225477 L 58.97265625 176.70952107469205 M 58.97265625 176.70952107469205 L 60.800008456083106 168.74217433316898 M 62.36486351299739 161.91932825174155 L 62.78125 160.10386240482333 M 62.78125 160.10386240482333 L 64.99931461616686 151.23976664659463 M 66.72088855210848 144.4549924023573 L 69.6250005111252 133.84527356868898 M 71.59532144380249 127.12871547980549 L 73.62109375 120.38284875630058 M 73.62109375 120.38284875630058 L 74.86276594619298 116.62620412671941 M 77.05956607918465 109.97984653961294 L 77.13671875 109.74642328397027 M 77.13671875 109.74642328397027 L 80.505859375 100.51942298738322 M 80.505859375 100.51942298738322 L 80.85548700229107 99.65624984738281 M 83.48343804422697 93.1682707073741 L 83.875 92.20156860351568 M 83.875 92.20156860351568 L 87.09765625 85.06336865658523 M 87.09765625 85.06336865658523 L 88.05704063166525 83.16719933139606 M 91.30722123863914 76.96961998181406 L 93.54296875 73.06327045839862 M 93.54296875 73.06327045839862 L 96.619140625 68.35037274137176 M 96.619140625 68.35037274137176 L 97.14256848546788 67.65405765194622 M 101.51284439873723 62.19223210348071 L 102.771484375 60.76158692649369 M 102.771484375 60.76158692649369 L 105.84765625 57.836067468771944 M 105.84765625 57.836067468771944 L 108.77734375 55.55857315371395 M 108.77734375 55.55857315371395 L 109.74538061429276 54.9592823150836 M 116.03954551292254 51.9559864907801 L 116.833984375 51.68553820749554 M 116.833984375 51.68553820749554 L 119.32421875 51.150600243738154 M 119.32421875 51.150600243738154 L 121.814453125 50.90733918605298 M 121.814453125 50.90733918605298 L 124.451171875 50.9545869972153 M 124.451171875 50.9545869972153 L 126.90450541869387 51.27767558465201 M 133.56379117185045 53.37457625599239 L 135.876953125 54.45297655078508 M 135.876953125 54.45297655078508 L 139.24609375 56.40182374222792 M 139.24609375 56.40182374222792 L 142.908203125 58.93858918407392 M 142.908203125 58.93858918407392 L 142.98657733263354 59.00184304373839 M 148.347493918789 63.49822707644516 L 151.2578125 66.1798727796413 M 151.2578125 66.1798727796413 L 156.14768887667145 71.24811048314282 M 160.74996514442893 76.52226687575258 L 161.658203125 77.56509448354518 M 161.658203125 77.56509448354518 L 167.517578125 84.89539760903608 M 167.517578125 84.89539760903608 L 167.65658276844906 85.08211889013302 M 171.8366116507053 90.6970417340823 L 174.109375 93.74998495727777 M 174.109375 93.74998495727777 L 178.24413022510433 99.63699666138038 M 182.26020502208542 105.37023142225634 L 188.39886489593383 114.49803811133577 M 192.30528481565557 120.3066423680227 L 192.712890625 120.91272693851533 M 192.712890625 120.91272693851533 L 198.42626505493195 129.44631242060188 M 202.32063412399197 135.26300302213372 L 208.44035694680056 144.40351682454087 M 212.33472601586058 150.2202074260727 L 215.564453125 155.0441783923834 M 215.564453125 155.0441783923834 L 218.5715113863695 159.28000391919764 M 222.62362628278606 164.98792515781324 L 224.353515625 167.42469518267353 M 224.353515625 167.42469518267353 L 229.1745723668548 173.82341382390555 M 233.45484753211292 179.36116123051764 L 238.5625 185.6916446685791 M 238.5625 185.6916446685791 L 240.44628498883802 187.851481457273 M 245.05664531417912 193.11844193291236 L 250.8671875 199.21502816537395 M 250.8671875 199.21502816537395 L 252.7373504384424 200.98939182023526 M 257.8785638411216 205.73703857862307 L 261.853515625 209.10977920339246 M 261.853515625 209.10977920339246 L 266.4826609186441 212.58254511793504 M 272.3589870743734 216.38072859602445 L 275.916015625 218.3749499212372 M 275.916015625 218.3749499212372 L 280.1640625 220.3706453652121 M 280.1640625 220.3706453652121 L 282.24596520464314 221.16587925693125 M 288.9261307319999 223.2290506411775 L 291.736328125 223.83092808286347 M 291.736328125 223.83092808286347 L 295.3984375 224.31313014635816 M 295.3984375 224.31313014635816 L 299.060546875 224.4978542394183 M 299.060546875 224.4978542394183 L 299.8257676818943 224.47419418985098 M 306.79384004908684 223.89470234981752 L 310.046875 223.26623783260584 M 310.046875 223.26623783260584 L 313.85546875 222.21777796690003 M 313.85546875 222.21777796690003 L 317.3731137926288 220.9576544390531 M 323.7133247636488 218.00274544783065 L 325.720703125 216.94486426258845 M 325.720703125 216.94486426258845 L 330.115234375 214.24181891252556 M 330.115234375 214.24181891252556 L 333.0338287697115 212.1830919260063 M 338.5775347236125 207.91306747037507 L 339.490234375 207.18556854754024 M 339.490234375 207.18556854754024 L 344.763671875 202.48179234313466 M 344.763671875 202.48179234313466 L 346.73101541124197 200.53693584696305 M 351.6442777097028 195.55309775775842 L 356.3359375 190.46262308070436 M 356.3359375 190.46262308070436 L 358.9731358503898 187.35310992725076 M 363.46382543983844 181.98430574609148 L 369.373046875 174.4904224191505 M 369.373046875 174.4904224191505 L 370.2394518765691 173.31955998880005 M 374.40324982591716 167.692590410332 L 376.84375 164.39449083805084 M 376.84375 164.39449083805084 L 380.8040654818331 158.74768896892155 M 384.82344580511074 153.01666970383016 L 385.33984375 152.28036551448167 M 385.33984375 152.28036551448167 L 390.9786647120694 143.90020739408618 M 394.8865027104386 138.09255707932874 L 396.47265625 135.73528814772726 M 396.47265625 135.73528814772726 L 401.01289047393993 128.9565148975102 M 404.90828742252785 123.14051260960386 L 411.02962548459465 114.0010804428939 M 414.92502243318256 108.18507815498756 L 419.32421875 101.61688082330511 M 419.32421875 101.61688082330511 L 421.1223849655362 99.09822661343554 M 425.1897453952895 93.40115902260631 L 427.234375 90.53728864341974 M 427.234375 90.53728864341974 L 431.77151381520633 84.58900611505322 M 436.1266905813338 79.11050410179433 L 439.685546875 74.80246981849814 M 439.685546875 74.80246981849814 L 443.3235298882034 70.79548658538326 M 448.2139372381672 65.79060464251621 L 449.939453125 64.09234189905146 M 449.939453125 64.09234189905146 L 454.48046875 60.184559355868316 M 454.48046875 60.184559355868316 L 456.56298721148937 58.648071236662986 M 462.42805653201873 54.841026783635165 L 465.466796875 53.32927831168678 M 465.466796875 53.32927831168678 L 468.54296875 52.160500445781565 M 468.54296875 52.160500445781565 L 471.47265625 51.38790819505817 M 471.47265625 51.38790819505817 L 472.74382126343136 51.19703896280613 M 479.7103957717352 51.17868859888263 L 481.7265625 51.56941703567287 M 481.7265625 51.56941703567287 L 484.216796875 52.353527761990335 M 484.216796875 52.353527761990335 L 486.70703125 53.45123623442487 M 486.70703125 53.45123623442487 L 489.34375 54.96894609928131 M 489.34375 54.96894609928131 L 489.8069310552128 55.30422361631576 M 495.2076329202857 59.74190147813397 L 498.1328125 62.85723197320476 M 498.1328125 62.85723197320476 L 501.208984375 66.71960952862901 M 501.208984375 66.71960952862901 L 502.22259868360635 68.19364340808126 M 506.01803203457195 74.07156383679677 L 507.361328125 76.3029099440264 M 507.361328125 76.3029099440264 L 510.4375 82.0747013092041 M 510.4375 82.0747013092041 L 511.2351089339793 83.74963002022822 M 514.182373839317 90.09778273962925 L 516.736328125 96.06850136751933 M 516.736328125 96.06850136751933 L 518.358954054892 100.27219411009882 M 520.803034941302 106.83076697174954 L 523.328125 114.050829268992 M 523.328125 114.050829268992 L 524.3436971101339 117.2443559018171 M 526.465079433016 123.91516822417815 L 526.697265625 124.64529145272724 M 526.697265625 124.64529145272724 L 529.5534210116136 134.47249866870135 M 531.3948572070507 141.2255930408404 L 533.58203125 149.43798164781768 M 533.58203125 149.43798164781768 L 534.1764322941573 151.86768074833998 M 535.8398571681515 158.66716732370557 L 537.09765625 163.80860058302645 M 537.09765625 163.80860058302645 L 538.3515139499556 169.37610466628297 M 539.889464387836 176.2050656744176 L 540.759765625 180.06946407604303 M 540.759765625 180.06946407604303 L 542.1914525933275 186.9611377884493 M 543.6152449576597 193.81480945429888 L 544.421875 197.69766316562894 M 544.421875 197.69766316562894 L 545.7480864884749 204.60575838476012 M 547.0678413633145 211.48022178711648 L 548.23046875 217.53622474093575 M 548.23046875 217.53622474093575 L 549.0761923359198 222.2950660845022 M 550.3010148259214 229.18707666690747 L 552.0390625 238.96697788545865 M 552.0390625 238.96697788545865 L 552.2125106011988 240.0196436593319 M 553.3505578864207 246.92651331038215 L 555.1389179060551 257.7801656191754 M 556.2572280015498 264.6901710338401 L 557.9207855633479 275.5636514443887 M 558.9794131026739 282.4831389783742 L 559.94921875 288.8220616284816 M 559.94921875 288.8220616284816 L 560.5952546809249 293.3636630396102 M 561.5810702348779 300.2938987999277 L 563.1302089625184 311.18426928042675 M 564.1132632428603 318.1148893548177 L 564.9823667707293 324.4999999999999" stroke-linecap="round" stroke-linejoin="round" stroke-miterlimit="10" stroke-width="2.5" stroke-opacity="0.9" stroke-dasharray=""/></g></g></g><g id="labels-245fb6aa"/></g></svg>