<svg version="1.1" xmlns="http://www.w3.org/2000/svg" xmlns:xlink="http://www.w3.org/1999/xlink" width="600" height="400"><defs/><g transform="scale(1,1)"><g id="background-a2e21076"><rect fill="white" stroke="none" x="0" y="0" width="600" height="400" class="dcg-svg-background"/></g><g id="background-images-a2e21076"/><g id="graphpaper-a2e21076"><g id="grid-a2e21076"><g><path fill="none" stroke="rgb(0,0,0)" class="dcg-svg-minor-gridline" paint-order="fill stroke markers" d=" M -0.5 0 L -0.5 400" stroke-opacity="0.12" stroke-miterlimit="10" stroke-dasharray=""/><path fill="none" stroke="rgb(0,0,0)" class="dcg-svg-minor-gridline" paint-order="fill stroke markers" d=" M 29.5 0 L 29.5 400" stroke-opacity="0.12" stroke-miterlimit="10" stroke-dasharray=""/><path fill="none" stroke="rgb(0,0,0)" class="dcg-svg-minor-gridline" paint-order="fill stroke markers" d=" M 59.5 0 L 59.5 400" stroke-opacity="0.12" stroke-miterlimit="10" stroke-dasharray=""/><path fill="none" stroke="rgb(0,0,0)" class="dcg-svg-minor-gridline" paint-order="fill stroke markers" d=" M 89.5 0 L 89.5 400" stroke-opacity="0.12" stroke-miterlimit="10" stroke-dasharray=""/><path fill="none" stroke="rgb(0,0,0)" class="dcg-svg-minor-gridline" paint-order="fill stroke markers" d=" M 119.5 0 L 119.5 400" stroke-opacity="0.12" stroke-miterlimit="10" stroke-dasharray=""/><path fill="none" stroke="rgb(0,0,0)" class="dcg-svg-minor-gridline" paint-order="fill stroke markers" d=" M 149.5 0 L 149.5 400" stroke-opacity="0.12" stroke-miterlimit="10" stroke-dasharray=""/><path fill="none" stroke="rgb(0,0,0)" class="dcg-svg-minor-gridline" paint-order="fill stroke markers" d=" M 179.5 0 L 179.5 400" stroke-opacity="0.12" stroke-miterlimit="10" stroke-dasharray=""/><path fill="none" stroke="rgb(0,0,0)" class="dcg-svg-minor-gridline" paint-order="fill stroke markers" d=" M 209.5 0 L 209.5 400" stroke-opacity="0.12" stroke-miterlimit="10" stroke-dasharray=""/><path fill="none" stroke="rgb(0,0,0)" class="dcg-svg-minor-gridline" paint-order="fill stroke markers" d=" M 239.5 0 L 239.5 400" stroke-opacity="0.12" stroke-miterlimit="10" stroke-dasharray=""/><path fill="none" stroke="rgb(0,0,0)" class="dcg-svg-minor-gridline" paint-order="fill stroke markers" d=" M 269.5 0 L 269.5 400" stroke-opacity="0.12" stroke-miterlimit="10" stroke-dasharray=""/><path fill="none" stroke="rgb(0,0,0)" class="dcg-svg-minor-gridline" paint-order="fill stroke markers" d=" M 329.5 0 L 329.5 400" stroke-opacity="0.12" stroke-miterlimit="10" stroke-dasharray=""/><path fill="none" stroke="rgb(0,0,0)" class="dcg-svg-minor-gridline" paint-order="fill stroke markers" d=" M 359.5 0 L 359.5 400" stroke-opacity="0.12" stroke-miterlimit="10" stroke-dasharray=""/><path fill="none" stroke="rgb(0,0,0)" class="dcg-svg-minor-gridline" paint-order="fill stroke markers" d=" M 389.5 0 L 389.5 400" stroke-opacity="0.12" stroke-miterlimit="10" stroke-dasharray=""/><path fill="none" stroke="rgb(0,0,0)" class="dcg-svg-minor-gridline" paint-order="fill stroke markers" d=" M 419.5 0 L 419.5 400" stroke-opacity="0.12" stroke-miterlimit="10" stroke-dasharray=""/><path fill="none" stroke="rgb(0,0,0)" class="dcg-svg-minor-gridline" paint-order="fill stroke markers" d=" M 449.5 0 L 449.5 400" stroke-opacity="0.12" stroke-miterlimit="10" stroke-dasharray=""/><path fill="none" stroke="rgb(0,0,0)" class="dcg-svg-minor-gridline" paint-order="fill stroke markers" d=" M 479.5 0 L 479.5 400" stroke-opacity="0.12" stroke-miterlimit="10" stroke-dasharray=""/><path fill="none" stroke="rgb(0,0,0)" class="dcg-svg-minor-gridline" paint-order="fill stroke markers" d=" M 509.5 0 L 509.5 400" stroke-opacity="0.12" stroke-miterlimit="10" stroke-dasharray=""/><path fill="none" stroke="rgb(0,0,0)" class="dcg-svg-minor-gridline" paint-order="fill stroke markers" d=" M 539.5 0 L 539.5 400" stroke-opacity="0.12" stroke-miterlimit="10" stroke-dasharray=""/><path fill="none" stroke="rgb(0,0,0)" class="dcg-svg-minor-gridline" paint-order="fill stroke markers" d=" M 569.5 0 L 569.5 400" stroke-opacity="0.12" stroke-miterlimit="10" stroke-dasharray=""/><path fill="none" stroke="rgb(0,0,0)" class="dcg-svg-minor-gridline" paint-order="fill stroke markers" d=" M 0 370.5 L 600 370.5" stroke-opacity="0.12" stroke-miterlimit="10" stroke-dasharray=""/><path fill="none" stroke="rgb(0,0,0)" class="dcg-svg-minor-gridline" paint-order="fill stroke markers" d=" M 0 342.5 L 600 342.5" stroke-opacity="0.12" stroke-miterlimit="10" stroke-dasharray=""/><path fill="none" stroke="rgb(0,0,0)" class="dcg-svg-minor-gridline" paint-order="fill stroke markers" d=" M 0 313.5 L 600 313.5" stroke-opacity="0.12" stroke-miterlimit="10" stroke-dasharray=""/><path fill="none" stroke="rgb(0,0,0)" class="dcg-svg-minor-gridline" paint-order="fill stroke markers" d=" M 0 285.5 L 600 285.5" stroke-opacity="0.12" stroke-miterlimit="10" stroke-dasharray=""/><path fill="none" stroke="rgb(0,0,0)" class="dcg-svg-minor-gridline" paint-order="fill stroke markers" d=" M 0 256.5 L 600 256.5" stroke-opacity="0.12" stroke-miterlimit="10" stroke-dasharray=""/><path fill="none" stroke="rgb(0,0,0)" class="dcg-svg-minor-gridline" paint-order="fill stroke markers" d=" M 0 228.5 L 600 228.5" stroke-opacity="0.12" stroke-miterlimit="10" stroke-dasharray=""/><path fill="none" stroke="rgb(0,0,0)" class="dcg-svg-minor-gridline" paint-order="fill stroke markers" d=" M 0 170.5 L 600 170.5" stroke-opacity="0.12" stroke-miterlimit="10" stroke-dasharray=""/><path fill="none" stroke="rgb(0,0,0)" class="dcg-svg-minor-gridline" paint-order="fill stroke markers" d=" M 0 142.5 L 600 142.5" stroke-opacity="0.12" stroke-miterlimit="10" stroke-dasharray=""/><path fill="none" stroke="rgb(0,0,0)" class="dcg-svg-minor-gridline" paint-order="fill stroke markers" d=" M 0 113.5 L 600 113.5" stroke-opacity="0.12" stroke-miterlimit="10" stroke-dasharray=""/><path fill="none" stroke="rgb(0,0,0)" class="dcg-svg-minor-gridline" paint-order="fill stroke markers" d=" M 0 85.5 L 600 85.5" stroke-opacity="0.12" stroke-miterlimit="10" stroke-dasharray=""/><path fill="none" stroke="rgb(0,0,0)" class="dcg-svg-minor-gridline" paint-order="fill stroke markers" d=" M 0 56.5 L 600 56.5" stroke-opacity="0.12" stroke-miterlimit="10" stroke-dasharray=""/><path fill="none" stroke="rgb(0,0,0)" class="dcg-svg-minor-gridline" paint-order="fill stroke markers" d=" M 0 28.5 L 600 28.5" stroke-opacity="0.12" stroke-miterlimit="10" stroke-dasharray=""/><path fill="none" stroke="rgb(0,0,0)" class="dcg-svg-minor-gridline" paint-order="fill stroke markers" d=" M 0 -0.5 L 600 -0.5" stroke-opacity="0.12" stroke-miterlimit="10" stroke-dasharray=""/><path fill="none" stroke="rgb(0,0,0)" class="dcg-svg-major-gridline" paint-order="fill stroke markers" d=" M -0.5 0 L -0.5 400" stroke-opacity="0.31818181818181823" stroke-miterlimit="10" stroke-dasharray=""/><path fill="none" stroke="rgb(0,0,0)" class="dcg-svg-major-gridline" paint-order="fill stroke markers" d=" M 149.5 0 L 149.5 400" stroke-opacity="0.31818181818181823" stroke-miterlimit="10" stroke-dasharray=""/><path fill="none" stroke="rgb(0,0,0)" class="dcg-svg-major-gridline" paint-order="fill stroke markers" d=" M 449.5 0 L 449.5 400" stroke-opacity="0.31818181818181823" stroke-miterlimit="10" stroke-dasharray=""/><path fill="none" stroke="rgb(0,0,0)" class="dcg-svg-major-gridline" paint-order="fill stroke markers" d=" M 0 342.5 L 600 342.5" stroke-opacity="0.31818181818181823" stroke-miterlimit="10" stroke-dasharray=""/><path fill="none" stroke="rgb(0,0,0)" class="dcg-svg-major-gridline" paint-order="fill stroke markers" d=" M 0 56.5 L 600 56.5" stroke-opacity="0.31818181818181823" stroke-miterlimit="10" stroke-dasharray=""/></g></g><g id="axis-a2e21076"><g id="yaxis-a2e21076"><title>Y axis</title><path fill="none" stroke="rgb(0,0,0)" class="dcg-svg-axis-line" paint-order="fill stroke markers" d=" M 299.75 0 L 299.75 400" stroke-opacity="0.9" stroke-miterlimit="10" stroke-width="1.5" stroke-dasharray=""/></g><g id="xaxis-a2e21076"><title>X axis</title><path fill="none" stroke="rgb(0,0,0)" class="dcg-svg-axis-line" paint-order="fill stroke markers" d=" M 0 199.75 L 600 199.75" stroke-opacity="0.9" stroke-miterlimit="10" stroke-width="1.5" stroke-dasharray=""/></g><g><g class="dcg-svg-axis-value"><text fill="none" stroke="#ffffff" font-family="Arial" font-size="14px" font-style="normal" font-weight="normal" text-decoration="normal" x="291.10693359375" y="215.808" text-anchor="middle" stroke-miterlimit="2" stroke-width="3" stroke-dasharray="">0</text><text fill="#000000" stroke="none" font-family="Arial" font-size="14px" font-style="normal" font-weight="normal" text-decoration="normal" x="291.10693359375" y="215.808" text-anchor="middle">0</text></g><g class="dcg-svg-axis-value dcg-svg-offcenter-axis-value"><text fill="none" stroke="#ffffff" font-family="Arial" font-size="14px" font-style="normal" font-weight="normal" text-decoration="normal" x="13.1171875" y="215.808" text-anchor="middle" stroke-miterlimit="2" stroke-width="3" stroke-dasharray="">-10</text><text fill="#000000" stroke="none" font-family="Arial" font-size="14px" font-style="normal" font-weight="normal" text-decoration="normal" x="13.1171875" y="215.808" text-anchor="middle">-10</text></g><g class="dcg-svg-axis-value"><text fill="none" stroke="#ffffff" font-family="Arial" font-size="14px" font-style="normal" font-weight="normal" text-decoration="normal" x="147.6689453125" y="215.808" text-anchor="middle" stroke-miterlimit="2" stroke-width="3" stroke-dasharray="">-5</text><text fill="#000000" stroke="none" font-family="Arial" font-size="14px" font-style="normal" font-weight="normal" text-decoration="normal" x="147.6689453125" y="215.808" text-anchor="middle">-5</text></g><g class="dcg-svg-axis-value"><text fill="none" stroke="#ffffff" font-family="Arial" font-size="14px" font-style="normal" font-weight="normal" text-decoration="normal" x="450" y="215.808" text-anchor="middle" stroke-miterlimit="2" stroke-width="3" stroke-dasharray="">5</text><text fill="#000000" stroke="none" font-family="Arial" font-size="14px" font-style="normal" font-weight="normal" text-decoration="normal" x="450" y="215.808" text-anchor="middle">5</text></g><g class="dcg-svg-axis-value dcg-svg-offcenter-axis-value"><text fill="none" stroke="#ffffff" font-family="Arial" font-size="14px" font-style="normal" font-weight="normal" text-decoration="normal" x="589.2138671875" y="215.808" text-anchor="middle" stroke-miterlimit="2" stroke-width="3" stroke-dasharray="">10</text><text fill="#000000" stroke="none" font-family="Arial" font-size="14px" font-style="normal" font-weight="normal" text-decoration="normal" x="589.2138671875" y="215.808" text-anchor="middle">10</text></g><g class="dcg-svg-axis-value"><text fill="none" stroke="#ffffff" font-family="Arial" font-size="14px" font-style="normal" font-weight="normal" text-decoration="normal" x="288.77587890625" y="346.6651428571428" text-anchor="middle" stroke-miterlimit="2" stroke-width="3" stroke-dasharray="">-5</text><text fill="#000000" stroke="none" font-family="Arial" font-size="14px" font-style="normal" font-weight="normal" text-decoration="normal" x="288.77587890625" y="346.6651428571428" text-anchor="middle">-5</text></g><g class="dcg-svg-axis-value"><text fill="none" stroke="#ffffff" font-family="Arial" font-size="14px" font-style="normal" font-weight="normal" text-decoration="normal" x="291.10693359375" y="60.95085714285717" text-anchor="middle" stroke-miterlimit="2" stroke-width="3" stroke-dasharray="">5</text><text fill="#000000" stroke="none" font-family="Arial" font-size="14px" font-style="normal" font-weight="normal" text-decoration="normal" x="291.10693359375" y="60.95085714285717" text-anchor="middle">5</text></g></g></g></g><g id="expressions-a2e21076"><g id="sketch-a2e21076"><title>Expression 1</title><path fill="#2d70b3" stroke="none" paint-order="stroke fill markers" d="" fill-opacity="0.4"/><g><path fill="none" stroke="#2d70b3" class="dcg-svg-curve" paint-order="fill stroke markers" d=" M -0.5 223.4734722593272 L -0.5 223.4734722593272 L 3.015625 225.12638082316084 L 6.23828125 226.3332130096818 L 9.314453125 227.19677777581097 L 12.244140625 227.74881781603864 L 15.173828125 228.03167016926812 L 18.103515625 228.04263948834455 L 21.033203125 227.78162124480062 L 23.962890625 227.2511027249257 L 27.0390625 226.4095747950377 L 30.115234375 225.28536043387308 L 33.484375 223.74378754937996 L 37 221.80987667444995 L 40.955078125 219.26991387250322 L 45.349609375 216.047431945951 L 50.4765625 211.8451867142367 L 56.921875 206.0680413511251 L 80.359375 184.58327626654392 L 85.33984375 180.76139193862892 L 89.587890625 177.90503481083778 L 93.396484375 175.71017863836238 L 96.912109375 174.0233135510555 L 100.28125 172.7344089868532 L 103.357421875 171.85176124410134 L 106.287109375 171.28106985764666 L 109.216796875 170.97928135357276 L 112.146484375 170.94927152476785 L 115.076171875 171.1913263398858 L 118.005859375 171.70313921830316 L 120.935546875 172.47983300990998 L 124.01171875 173.57230744182309 L 127.380859375 175.08084485442745 L 130.896484375 176.9826457047962 L 134.705078125 179.39056502097898 L 138.953125 182.4562193981644 L 143.93359375 186.48001425030387 L 150.0859375 191.93199188829018 L 160.33984375 201.60429593708878 L 169.861328125 210.39158597014435 L 175.720703125 215.31075374290313 L 180.5546875 218.92401658524744 L 184.802734375 221.68669845522746 L 188.611328125 223.78743932547204 L 192.126953125 225.38028311132163 L 195.349609375 226.52897534895706 L 198.42578125 227.3349278512793 L 201.35546875 227.83074070012145 L 204.28515625 228.05658520516687 L 207.21484375 228.01030925653507 L 210.14453125 227.6923538254432 L 213.07421875 227.10574876211803 L 216.150390625 226.20683009710146 L 219.373046875 224.96439064100045 L 222.7421875 223.35186914568465 L 226.404296875 221.25904844485638 L 230.359375 218.63611947849856 L 234.900390625 215.21809739223298 L 240.173828125 210.80342610804792 L 247.05859375 204.53782483833197 L 266.6875 186.381220803077 L 272.107421875 182.03410080549116 L 276.6484375 178.8242612294065 L 280.603515625 176.41152733814195 L 284.265625 174.5339912453413 L 287.634765625 173.13425614414442 L 290.857421875 172.1060157062322 L 293.93359375 171.41898548885027 L 296.86328125 171.03885415115505 L 299.79296875 170.9299338096247 L 302.72265625 171.0932623843236 L 305.65234375 171.52728349007722 L 308.58203125 172.2278612675259 L 311.658203125 173.24301076278357 L 314.880859375 174.60212717464503 L 318.396484375 176.41152733814195 L 322.205078125 178.72822373301514 L 326.453125 181.70476693520413 L 331.287109375 185.5215178010069 L 337.146484375 190.6232883451925 L 345.642578125 198.56558410228268 L 358.09375 210.15948623467494 L 363.953125 215.10140981401878 L 368.787109375 218.7394866308823 L 373.03515625 221.52794587173685 L 376.84375 223.6545157435134 L 380.359375 225.27311067856868 L 383.58203125 226.4467085812963 L 386.658203125 227.27732357030015 L 389.587890625 227.7971909985369 L 392.517578125 228.04740978366766 L 395.447265625 228.02559554923997 L 398.376953125 227.7319561667246 L 401.306640625 227.16928977467393 L 404.3828125 226.29485103430852 L 407.60546875 225.0770611947105 L 410.974609375 223.48891651543408 L 414.63671875 221.42062437291582 L 418.591796875 218.82147518200958 L 422.986328125 215.54239885105227 L 428.259765625 211.16064937556655 L 434.998046875 205.05825626551712 L 455.798828125 185.8630480170678 L 461.072265625 181.68254836231569 L 465.466796875 178.61328528119003 L 469.421875 176.2317764759424 L 473.083984375 174.385946941505 L 476.453125 173.01733952807558 L 479.67578125 172.02025728289107 L 482.751953125 171.36389644964476 L 485.681640625 171.01351691041208 L 488.611328125 170.93458981012873 L 491.541015625 171.12786725827078 L 494.470703125 171.59150748186374 L 497.400390625 172.3210923760439 L 500.4765625 173.3657383383986 L 503.69921875 174.75436789252356 L 507.21484375 176.59395130514687 L 511.0234375 178.9405102188804 L 515.271484375 181.94631073297128 L 520.10546875 185.79044434622796 L 525.96484375 190.91601155034328 L 534.75390625 199.15187264376544 L 546.47265625 210.05632930869152 L 552.478515625 215.1252033857258 L 557.3125 218.76048111809038 L 561.560546875 221.546028769404 L 565.369140625 223.66967863902374 L 568.884765625 225.28536043387308 L 572.107421875 226.45613932800072 L 575.18359375 227.2839615512746 L 578.11328125 227.80110393047656 L 581.04296875 228.04856037959283 L 583.97265625 228.02397284493048 L 586.90234375 227.72757562519993 L 589.83203125 227.1621931388435 L 592.908203125 226.28497573696703 L 596.130859375 225.0643866703487 L 599.5 223.4734722593272" stroke-linecap="round" stroke-linejoin="round" stroke-miterlimit="10" stroke-width="2.5" stroke-opacity="0.9" stroke-dasharray=""/></g></g></g><g id="labels-a2e21076"/></g></svg>