<svg version="1.1" xmlns="http://www.w3.org/2000/svg" xmlns:xlink="http://www.w3.org/1999/xlink" width="600" height="400"><defs/><g transform="scale(1,1)"><g id="background-beacdffb"><rect fill="white" stroke="none" x="0" y="0" width="600" height="400" class="dcg-svg-background"/></g><g id="background-images-beacdffb"/><g id="graphpaper-beacdffb"><g id="grid-beacdffb"><g><path fill="none" stroke="rgb(0,0,0)" class="dcg-svg-minor-gridline" paint-order="fill stroke markers" d=" M -0.5 0 L -0.5 400" stroke-opacity="0.12" stroke-miterlimit="10" stroke-dasharray=""/><path fill="none" stroke="rgb(0,0,0)" class="dcg-svg-minor-gridline" paint-order="fill stroke markers" d=" M 29.5 0 L 29.5 400" stroke-opacity="0.12" stroke-miterlimit="10" stroke-dasharray=""/><path fill="none" stroke="rgb(0,0,0)" class="dcg-svg-minor-gridline" paint-order="fill stroke markers" d=" M 59.5 0 L 59.5 400" stroke-opacity="0.12" stroke-miterlimit="10" stroke-dasharray=""/><path fill="none" stroke="rgb(0,0,0)" class="dcg-svg-minor-gridline" paint-order="fill stroke markers" d=" M 89.5 0 L 89.5 400" stroke-opacity="0.12" stroke-miterlimit="10" stroke-dasharray=""/><path fill="none" stroke="rgb(0,0,0)" class="dcg-svg-minor-gridline" paint-order="fill stroke markers" d=" M 119.5 0 L 119.5 400" stroke-opacity="0.12" stroke-miterlimit="10" stroke-dasharray=""/><path fill="none" stroke="rgb(0,0,0)" class="dcg-svg-minor-gridline" paint-order="fill stroke markers" d=" M 149.5 0 L 149.5 400" stroke-opacity="0.12" stroke-miterlimit="10" stroke-dasharray=""/><path fill="none" stroke="rgb(0,0,0)" class="dcg-svg-minor-gridline" paint-order="fill stroke markers" d=" M 179.5 0 L 179.5 400" stroke-opacity="0.12" stroke-miterlimit="10" stroke-dasharray=""/><path fill="none" stroke="rgb(0,0,0)" class="dcg-svg-minor-gridline" paint-order="fill stroke markers" d=" M 209.5 0 L 209.5 400" stroke-opacity="0.12" stroke-miterlimit="10" stroke-dasharray=""/><path fill="none" stroke="rgb(0,0,0)" class="dcg-svg-minor-gridline" paint-order="fill stroke markers" d=" M 239.5 0 L 239.5 400" stroke-opacity="0.12" stroke-miterlimit="10" stroke-dasharray=""/><path fill="none" stroke="rgb(0,0,0)" class="dcg-svg-minor-gridline" paint-order="fill stroke markers" d=" M 269.5 0 L 269.5 400" stroke-opacity="0.12" stroke-miterlimit="10" stroke-dasharray=""/><path fill="none" stroke="rgb(0,0,0)" class="dcg-svg-minor-gridline" paint-order="fill stroke markers" d=" M 329.5 0 L 329.5 400" stroke-opacity="0.12" stroke-miterlimit="10" stroke-dasharray=""/><path fill="none" stroke="rgb(0,0,0)" class="dcg-svg-minor-gridline" paint-order="fill stroke markers" d=" M 359.5 0 L 359.5 400" stroke-opacity="0.12" stroke-miterlimit="10" stroke-dasharray=""/><path fill="none" stroke="rgb(0,0,0)" class="dcg-svg-minor-gridline" paint-order="fill stroke markers" d=" M 389.5 0 L 389.5 400" stroke-opacity="0.12" stroke-miterlimit="10" stroke-dasharray=""/><path fill="none" stroke="rgb(0,0,0)" class="dcg-svg-minor-gridline" paint-order="fill stroke markers" d=" M 419.5 0 L 419.5 400" stroke-opacity="0.12" stroke-miterlimit="10" stroke-dasharray=""/><path fill="none" stroke="rgb(0,0,0)" class="dcg-svg-minor-gridline" paint-order="fill stroke markers" d=" M 449.5 0 L 449.5 400" stroke-opacity="0.12" stroke-miterlimit="10" stroke-dasharray=""/><path fill="none" stroke="rgb(0,0,0)" class="dcg-svg-minor-gridline" paint-order="fill stroke markers" d=" M 479.5 0 L 479.5 400" stroke-opacity="0.12" stroke-miterlimit="10" stroke-dasharray=""/><path fill="none" stroke="rgb(0,0,0)" class="dcg-svg-minor-gridline" paint-order="fill stroke markers" d=" M 509.5 0 L 509.5 400" stroke-opacity="0.12" stroke-miterlimit="10" stroke-dasharray=""/><path fill="none" stroke="rgb(0,0,0)" class="dcg-svg-minor-gridline" paint-order="fill stroke markers" d=" M 539.5 0 L 539.5 400" stroke-opacity="0.12" stroke-miterlimit="10" stroke-dasharray=""/><path fill="none" stroke="rgb(0,0,0)" class="dcg-svg-minor-gridline" paint-order="fill stroke markers" d=" M 569.5 0 L 569.5 400" stroke-opacity="0.12" stroke-miterlimit="10" stroke-dasharray=""/><path fill="none" stroke="rgb(0,0,0)" class="dcg-svg-minor-gridline" paint-order="fill stroke markers" d=" M 0 370.5 L 600 370.5" stroke-opacity="0.12" stroke-miterlimit="10" stroke-dasharray=""/><path fill="none" stroke="rgb(0,0,0)" class="dcg-svg-minor-gridline" paint-order="fill stroke markers" d=" M 0 342.5 L 600 342.5" stroke-opacity="0.12" stroke-miterlimit="10" stroke-dasharray=""/><path fill="none" stroke="rgb(0,0,0)" class="dcg-svg-minor-gridline" paint-order="fill stroke markers" d=" M 0 313.5 L 600 313.5" stroke-opacity="0.12" stroke-miterlimit="10" stroke-dasharray=""/><path fill="none" stroke="rgb(0,0,0)" class="dcg-svg-minor-gridline" paint-order="fill stroke markers" d=" M 0 285.5 L 600 285.5" stroke-opacity="0.12" stroke-miterlimit="10" stroke-dasharray=""/><path fill="none" stroke="rgb(0,0,0)" class="dcg-svg-minor-gridline" paint-order="fill stroke markers" d=" M 0 256.5 L 600 256.5" stroke-opacity="0.12" stroke-miterlimit="10" stroke-dasharray=""/><path fill="none" stroke="rgb(0,0,0)" class="dcg-svg-minor-gridline" paint-order="fill stroke markers" d=" M 0 228.5 L 600 228.5" stroke-opacity="0.12" stroke-miterlimit="10" stroke-dasharray=""/><path fill="none" stroke="rgb(0,0,0)" class="dcg-svg-minor-gridline" paint-order="fill stroke markers" d=" M 0 170.5 L 600 170.5" stroke-opacity="0.12" stroke-miterlimit="10" stroke-dasharray=""/><path fill="none" stroke="rgb(0,0,0)" class="dcg-svg-minor-gridline" paint-order="fill stroke markers" d=" M 0 142.5 L 600 142.5" stroke-opacity="0.12" stroke-miterlimit="10" stroke-dasharray=""/><path fill="none" stroke="rgb(0,0,0)" class="dcg-svg-minor-gridline" paint-order="fill stroke markers" d=" M 0 113.5 L 600 113.5" stroke-opacity="0.12" stroke-miterlimit="10" stroke-dasharray=""/><path fill="none" stroke="rgb(0,0,0)" class="dcg-svg-minor-gridline" paint-order="fill stroke markers" d=" M 0 85.5 L 600 85.5" stroke-opacity="0.12" stroke-miterlimit="10" stroke-dasharray=""/><path fill="none" stroke="rgb(0,0,0)" class="dcg-svg-minor-gridline" paint-order="fill stroke markers" d=" M 0 56.5 L 600 56.5" stroke-opacity="0.12" stroke-miterlimit="10" stroke-dasharray=""/><path fill="none" stroke="rgb(0,0,0)" class="dcg-svg-minor-gridline" paint-order="fill stroke markers" d=" M 0 28.5 L 600 28.5" stroke-opacity="0.12" stroke-miterlimit="10" stroke-dasharray=""/><path fill="none" stroke="rgb(0,0,0)" class="dcg-svg-minor-gridline" paint-order="fill stroke markers" d=" M 0 -0.5 L 600 -0.5" stroke-opacity="0.12" stroke-miterlimit="10" stroke-dasharray=""/><path fill="none" stroke="rgb(0,0,0)" class="dcg-svg-major-gridline" paint-order="fill stroke markers" d=" M -0.5 0 L -0.5 400" stroke-opacity="0.31818181818181823" stroke-miterlimit="10" stroke-dasharray=""/><path fill="none" stroke="rgb(0,0,0)" class="dcg-svg-major-gridline" paint-order="fill stroke markers" d=" M 149.5 0 L 149.5 400" stroke-opacity="0.31818181818181823" stroke-miterlimit="10" stroke-dasharray=""/><path fill="none" stroke="rgb(0,0,0)" class="dcg-svg-major-gridline" paint-order="fill stroke markers" d=" M 449.5 0 L 449.5 400" stroke-opacity="0.31818181818181823" stroke-miterlimit="10" stroke-dasharray=""/><path fill="none" stroke="rgb(0,0,0)" class="dcg-svg-major-gridline" paint-order="fill stroke markers" d=" M 0 342.5 L 600 342.5" stroke-opacity="0.31818181818181823" stroke-miterlimit="10" stroke-dasharray=""/><path fill="none" stroke="rgb(0,0,0)" class="dcg-svg-major-gridline" paint-order="fill stroke markers" d=" M 0 56.5 L 600 56.5" stroke-opacity="0.31818181818181823" stroke-miterlimit="10" stroke-dasharray=""/></g></g><g id="axis-beacdffb"><g id="yaxis-beacdffb"><title>Y axis</title><path fill="none" stroke="rgb(0,0,0)" class="dcg-svg-axis-line" paint-order="fill stroke markers" d=" M 299.75 0 L 299.75 400" stroke-opacity="0.9" stroke-miterlimit="10" stroke-width="1.5" stroke-dasharray=""/></g><g id="xaxis-beacdffb"><title>X axis</title><path fill="none" stroke="rgb(0,0,0)" class="dcg-svg-axis-line" paint-order="fill stroke markers" d=" M 0 199.75 L 600 199.75" stroke-opacity="0.9" stroke-miterlimit="10" stroke-width="1.5" stroke-dasharray=""/></g><g><g class="dcg-svg-axis-value"><text fill="none" stroke="#ffffff" font-family="Arial" font-size="14px" font-style="normal" font-weight="normal" text-decoration="normal" x="291.10693359375" y="215.808" text-anchor="middle" stroke-miterlimit="2" stroke-width="3" stroke-dasharray="">0</text><text fill="#000000" stroke="none" font-family="Arial" font-size="14px" font-style="normal" font-weight="normal" text-decoration="normal" x="291.10693359375" y="215.808" text-anchor="middle">0</text></g><g class="dcg-svg-axis-value dcg-svg-offcenter-axis-value"><text fill="none" stroke="#ffffff" font-family="Arial" font-size="14px" font-style="normal" font-weight="normal" text-decoration="normal" x="13.1171875" y="215.808" text-anchor="middle" stroke-miterlimit="2" stroke-width="3" stroke-dasharray="">-10</text><text fill="#000000" stroke="none" font-family="Arial" font-size="14px" font-style="normal" font-weight="normal" text-decoration="normal" x="13.1171875" y="215.808" text-anchor="middle">-10</text></g><g class="dcg-svg-axis-value"><text fill="none" stroke="#ffffff" font-family="Arial" font-size="14px" font-style="normal" font-weight="normal" text-decoration="normal" x="147.6689453125" y="215.808" text-anchor="middle" stroke-miterlimit="2" stroke-width="3" stroke-dasharray="">-5</text><text fill="#000000" stroke="none" font-family="Arial" font-size="14px" font-style="normal" font-weight="normal" text-decoration="normal" x="147.6689453125" y="215.808" text-anchor="middle">-5</text></g><g class="dcg-svg-axis-value"><text fill="none" stroke="#ffffff" font-family="Arial" font-size="14px" font-style="normal" font-weight="normal" text-decoration="normal" x="450" y="215.808" text-anchor="middle" stroke-miterlimit="2" stroke-width="3" stroke-dasharray="">5</text><text fill="#000000" stroke="none" font-family="Arial" font-size="14px" font-style="normal" font-weight="normal" text-decoration="normal" x="450" y="215.808" text-anchor="middle">5</text></g><g class="dcg-svg-axis-value dcg-svg-offcenter-axis-value"><text fill="none" stroke="#ffffff" font-family="Arial" font-size="14px" font-style="normal" font-weight="normal" text-decoration="normal" x="589.2138671875" y="215.808" text-anchor="middle" stroke-miterlimit="2" stroke-width="3" stroke-dasharray="">10</text><text fill="#000000" stroke="none" font-family="Arial" font-size="14px" font-style="normal" font-weight="normal" text-decoration="normal" x="589.2138671875" y="215.808" text-anchor="middle">10</text></g><g class="dcg-svg-axis-value"><text fill="none" stroke="#ffffff" font-family="Arial" font-size="14px" font-style="normal" font-weight="normal" text-decoration="normal" x="288.77587890625" y="346.6651428571428" text-anchor="middle" stroke-miterlimit="2" stroke-width="3" stroke-dasharray="">-5</text><text fill="#000000" stroke="none" font-family="Arial" font-size="14px" font-style="normal" font-weight="normal" text-decoration="normal" x="288.77587890625" y="346.6651428571428" text-anchor="middle">-5</text></g><g class="dcg-svg-axis-value"><text fill="none" stroke="#ffffff" font-family="Arial" font-size="14px" font-style="normal" font-weight="normal" text-decoration="normal" x="291.10693359375" y="60.95085714285717" text-anchor="middle" stroke-miterlimit="2" stroke-width="3" stroke-dasharray="">5</text><text fill="#000000" stroke="none" font-family="Arial" font-size="14px" font-style="normal" font-weight="normal" text-decoration="normal" x="291.10693359375" y="60.95085714285717" text-anchor="middle">5</text></g></g></g></g><g id="expressions-beacdffb"><g id="sketch-beacdffb"><title>Expression 1</title><path fill="#2d70b3" stroke="none" paint-order="stroke fill markers" d="" fill-opacity="0.4"/><g><path fill="none" stroke="#2d70b3" class="dcg-svg-curve" paint-order="fill stroke markers" d=" M -0.5 153.98532487034674 L -0.5 153.98532487034674 L 5.505859375 184.00563752225946 L 10.046875 205.23901682507133 L 14.001953125 222.3183930786204 L 17.517578125 236.17420269078522 L 20.59375 247.14418771892474 L 23.5234375 256.50324036903595 L 26.16015625 263.9628555810266 L 28.650390625 270.13303519290184 L 30.994140625 275.1398873250972 L 33.19140625 279.11415097985423 L 35.2421875 282.1868954818413 L 37.29296875 284.64084233731796 L 39.197265625 286.3646014972838 L 40.955078125 287.48289513033274 L 42.419921875 288.07021321749835 L 43.884765625 288.34701097750514 L 45.203125 288.33341044997235 L 46.521484375 288.0739964148489 L 47.986328125 287.50168517342934 L 49.59765625 286.53307752847724 L 51.35546875 285.08068999035027 L 53.40625 282.8799829547786 L 55.603515625 279.9402460678165 L 57.947265625 276.17325979081573 L 60.4375 271.4995065740717 L 63.07421875 265.852306634879 L 66.00390625 258.8126058433972 L 69.2265625 250.24867179064265 L 73.03515625 239.19752675686635 L 77.576171875 225.00988467751006 L 83.875 204.2262472133669 L 95.154296875 166.92746610599207 L 99.98828125 152.0835304321976 L 103.943359375 140.8669856110921 L 107.458984375 131.7641498396203 L 110.681640625 124.24021883287867 L 113.611328125 118.14709686935942 L 116.39453125 113.06211234308222 L 119.03125 108.90725228108778 L 121.521484375 105.59474230617798 L 123.865234375 103.03149103580705 L 126.208984375 101.01256300871341 L 128.259765625 99.69465627691295 L 130.1640625 98.84531619245797 L 131.921875 98.37938253373568 L 133.533203125 98.21792311442078 L 135.14453125 98.30732724778528 L 136.755859375 98.6436543026195 L 138.513671875 99.28662772995642 L 140.41796875 100.30020995676506 L 142.46875 101.74887047267322 L 144.8125 103.83955510940189 L 147.44921875 106.71696211315054 L 150.232421875 110.31653094598437 L 153.30859375 114.90787091937045 L 156.677734375 120.59130228407332 L 160.486328125 127.7157266678334 L 164.880859375 136.66384784128041 L 170.59375 149.0744535363931 L 186.267578125 183.53995266334599 L 190.955078125 192.886027524318 L 195.056640625 200.3788462323405 L 198.865234375 206.65806130959035 L 202.380859375 211.80913030976998 L 205.75 216.1230851585765 L 208.97265625 219.6550747996906 L 212.048828125 222.47266585633488 L 214.83203125 224.55357401612756 L 217.46875 226.11805459159075 L 219.958984375 227.23900830779894 L 222.302734375 227.9863551454624 L 224.646484375 228.44607007982182 L 226.990234375 228.63090125605723 L 229.333984375 228.55565637010167 L 231.82421875 228.209446557437 L 234.4609375 227.56803755936133 L 237.390625 226.55805288447678 L 240.61328125 225.13435937636544 L 244.275390625 223.19215469228925 L 248.962890625 220.34239098603425 L 258.044921875 214.34173112656796 L 264.34375 210.3954303900168 L 268.73828125 208.00020722488156 L 272.546875 206.26657870992636 L 275.916015625 205.05063723221122 L 278.9921875 204.2313407255325 L 281.921875 203.7277864269001 L 284.705078125 203.51016290207664 L 287.48828125 203.55203898944112 L 290.271484375 203.85427395132692 L 293.0546875 204.4133231152 L 295.984375 205.27052331076965 L 299.060546875 206.45179228106431 L 302.4296875 208.04989290431539 L 306.23828125 210.19397486871114 L 310.6328125 213.03106777411907 L 316.4921875 217.22462234778902 L 329.96875 227.01155094079465 L 334.36328125 229.72508172320306 L 338.025390625 231.63460175341874 L 341.248046875 232.98927296326718 L 344.177734375 233.91732012320145 L 346.814453125 234.48049251292497 L 349.451171875 234.766993601265 L 351.94140625 234.7699190098657 L 354.431640625 234.50264147381657 L 356.921875 233.95802385050553 L 359.412109375 233.13187908107886 L 362.048828125 231.9490745264881 L 364.83203125 230.359610290802 L 367.76171875 228.3167044606127 L 370.984375 225.64931906783386 L 374.5 222.2702389190861 L 378.6015625 217.77321262206675 L 383.142578125 212.21077973873426 L 388.708984375 204.78601365643993 L 405.701171875 181.68883395870816 L 409.802734375 176.93195217788121 L 413.46484375 173.24017959686262 L 416.6875 170.51942635337764 L 419.470703125 168.62651899727132 L 421.814453125 167.39499395538886 L 424.01171875 166.56432843752296 L 426.0625 166.08826396801499 L 427.966796875 165.91689844174067 L 429.87109375 166.01603688151366 L 431.775390625 166.3940904445234 L 433.6796875 167.05824915502112 L 435.583984375 168.01442320425565 L 437.634765625 169.3759424858075 L 439.83203125 171.2208197613875 L 442.322265625 173.79732663578216 L 444.958984375 177.08701904489786 L 447.595703125 180.94842597769653 L 450.37890625 185.63173906320978 L 453.30859375 191.21327588693893 L 456.53125 198.0870959464861 L 459.900390625 206.038205502381 L 463.708984375 215.87343262975577 L 467.95703125 227.74956774179262 L 473.083984375 243.0644216995821 L 480.701171875 266.93036586386404 L 489.783203125 295.17289492767475 L 494.6171875 309.2073395992104 L 498.572265625 319.78545865169235 L 502.087890625 328.30990229266683 L 505.1640625 334.9686031600272 L 507.947265625 340.2680928019111 L 510.583984375 344.5935719533785 L 512.927734375 347.83000646055444 L 515.271484375 350.4612811527321 L 517.46875 352.3538927247631 L 519.373046875 353.52892834988785 L 520.984375 354.1770763540842 L 522.44921875 354.4858733035991 L 523.9140625 354.5238980273295 L 525.37890625 354.2882591772845 L 526.84375 353.7767508275793 L 528.455078125 352.89368465784526 L 530.212890625 351.5464150970715 L 532.1171875 349.6349921163972 L 534.16796875 347.05346453062407 L 536.365234375 343.6917207408182 L 538.708984375 339.43796234573944 L 541.19921875 334.181902257561 L 543.8359375 327.81876838862144 L 546.619140625 320.254174755427 L 549.6953125 310.9452020838039 L 553.064453125 299.70709936530636 L 556.7265625 286.4042661044115 L 560.974609375 269.7990705351684 L 566.248046875 247.9106221162845 L 584.265625 171.98476107354955 L 588.3671875 156.6208671493136 L 591.8828125 144.61100587141266 L 594.958984375 135.15420063220654 L 597.7421875 127.55894003674621 L 599.5 123.27493251999084" stroke-linecap="round" stroke-linejoin="round" stroke-miterlimit="10" stroke-width="2.5" stroke-opacity="0.9" stroke-dasharray=""/></g></g></g><g id="labels-beacdffb"/></g></svg>