<svg version="1.1" xmlns="http://www.w3.org/2000/svg" xmlns:xlink="http://www.w3.org/1999/xlink" width="600" height="400"><defs/><g transform="scale(1,1)"><g id="background-aa36c317"><rect fill="white" stroke="none" x="0" y="0" width="600" height="400" class="dcg-svg-background"/></g><g id="background-images-aa36c317"/><g id="graphpaper-aa36c317"><g id="grid-aa36c317"><g><path fill="none" stroke="rgb(0,0,0)" class="dcg-svg-minor-gridline" paint-order="fill stroke markers" d=" M 8.5 0 L 8.5 400" stroke-opacity="0.12" stroke-miterlimit="10" stroke-dasharray=""/><path fill="none" stroke="rgb(0,0,0)" class="dcg-svg-minor-gridline" paint-order="fill stroke markers" d=" M 25.5 0 L 25.5 400" stroke-opacity="0.12" stroke-miterlimit="10" stroke-dasharray=""/><path fill="none" stroke="rgb(0,0,0)" class="dcg-svg-minor-gridline" paint-order="fill stroke markers" d=" M 59.5 0 L 59.5 400" stroke-opacity="0.12" stroke-miterlimit="10" stroke-dasharray=""/><path fill="none" stroke="rgb(0,0,0)" class="dcg-svg-minor-gridline" paint-order="fill stroke markers" d=" M 76.5 0 L 76.5 400" stroke-opacity="0.12" stroke-miterlimit="10" stroke-dasharray=""/><path fill="none" stroke="rgb(0,0,0)" class="dcg-svg-minor-gridline" paint-order="fill stroke markers" d=" M 93.5 0 L 93.5 400" stroke-opacity="0.12" stroke-miterlimit="10" stroke-dasharray=""/><path fill="none" stroke="rgb(0,0,0)" class="dcg-svg-minor-gridline" paint-order="fill stroke markers" d=" M 110.5 0 L 110.5 400" stroke-opacity="0.12" stroke-miterlimit="10" stroke-dasharray=""/><path fill="none" stroke="rgb(0,0,0)" class="dcg-svg-minor-gridline" paint-order="fill stroke markers" d=" M 128.5 0 L 128.5 400" stroke-opacity="0.12" stroke-miterlimit="10" stroke-dasharray=""/><path fill="none" stroke="rgb(0,0,0)" class="dcg-svg-minor-gridline" paint-order="fill stroke markers" d=" M 145.5 0 L 145.5 400" stroke-opacity="0.12" stroke-miterlimit="10" stroke-dasharray=""/><path fill="none" stroke="rgb(0,0,0)" class="dcg-svg-minor-gridline" paint-order="fill stroke markers" d=" M 162.5 0 L 162.5 400" stroke-opacity="0.12" stroke-miterlimit="10" stroke-dasharray=""/><path fill="none" stroke="rgb(0,0,0)" class="dcg-svg-minor-gridline" paint-order="fill stroke markers" d=" M 179.5 0 L 179.5 400" stroke-opacity="0.12" stroke-miterlimit="10" stroke-dasharray=""/><path fill="none" stroke="rgb(0,0,0)" class="dcg-svg-minor-gridline" paint-order="fill stroke markers" d=" M 196.5 0 L 196.5 400" stroke-opacity="0.12" stroke-miterlimit="10" stroke-dasharray=""/><path fill="none" stroke="rgb(0,0,0)" class="dcg-svg-minor-gridline" paint-order="fill stroke markers" d=" M 213.5 0 L 213.5 400" stroke-opacity="0.12" stroke-miterlimit="10" stroke-dasharray=""/><path fill="none" stroke="rgb(0,0,0)" class="dcg-svg-minor-gridline" paint-order="fill stroke markers" d=" M 230.5 0 L 230.5 400" stroke-opacity="0.12" stroke-miterlimit="10" stroke-dasharray=""/><path fill="none" stroke="rgb(0,0,0)" class="dcg-svg-minor-gridline" paint-order="fill stroke markers" d=" M 248.5 0 L 248.5 400" stroke-opacity="0.12" stroke-miterlimit="10" stroke-dasharray=""/><path fill="none" stroke="rgb(0,0,0)" class="dcg-svg-minor-gridline" paint-order="fill stroke markers" d=" M 265.5 0 L 265.5 400" stroke-opacity="0.12" stroke-miterlimit="10" stroke-dasharray=""/><path fill="none" stroke="rgb(0,0,0)" class="dcg-svg-minor-gridline" paint-order="fill stroke markers" d=" M 282.5 0 L 282.5 400" stroke-opacity="0.12" stroke-miterlimit="10" stroke-dasharray=""/><path fill="none" stroke="rgb(0,0,0)" class="dcg-svg-minor-gridline" paint-order="fill stroke markers" d=" M 299.5 0 L 299.5 400" stroke-opacity="0.12" stroke-miterlimit="10" stroke-dasharray=""/><path fill="none" stroke="rgb(0,0,0)" class="dcg-svg-minor-gridline" paint-order="fill stroke markers" d=" M 316.5 0 L 316.5 400" stroke-opacity="0.12" stroke-miterlimit="10" stroke-dasharray=""/><path fill="none" stroke="rgb(0,0,0)" class="dcg-svg-minor-gridline" paint-order="fill stroke markers" d=" M 333.5 0 L 333.5 400" stroke-opacity="0.12" stroke-miterlimit="10" stroke-dasharray=""/><path fill="none" stroke="rgb(0,0,0)" class="dcg-svg-minor-gridline" paint-order="fill stroke markers" d=" M 350.5 0 L 350.5 400" stroke-opacity="0.12" stroke-miterlimit="10" stroke-dasharray=""/><path fill="none" stroke="rgb(0,0,0)" class="dcg-svg-minor-gridline" paint-order="fill stroke markers" d=" M 368.5 0 L 368.5 400" stroke-opacity="0.12" stroke-miterlimit="10" stroke-dasharray=""/><path fill="none" stroke="rgb(0,0,0)" class="dcg-svg-minor-gridline" paint-order="fill stroke markers" d=" M 385.5 0 L 385.5 400" stroke-opacity="0.12" stroke-miterlimit="10" stroke-dasharray=""/><path fill="none" stroke="rgb(0,0,0)" class="dcg-svg-minor-gridline" paint-order="fill stroke markers" d=" M 402.5 0 L 402.5 400" stroke-opacity="0.12" stroke-miterlimit="10" stroke-dasharray=""/><path fill="none" stroke="rgb(0,0,0)" class="dcg-svg-minor-gridline" paint-order="fill stroke markers" d=" M 419.5 0 L 419.5 400" stroke-opacity="0.12" stroke-miterlimit="10" stroke-dasharray=""/><path fill="none" stroke="rgb(0,0,0)" class="dcg-svg-minor-gridline" paint-order="fill stroke markers" d=" M 436.5 0 L 436.5 400" stroke-opacity="0.12" stroke-miterlimit="10" stroke-dasharray=""/><path fill="none" stroke="rgb(0,0,0)" class="dcg-svg-minor-gridline" paint-order="fill stroke markers" d=" M 453.5 0 L 453.5 400" stroke-opacity="0.12" stroke-miterlimit="10" stroke-dasharray=""/><path fill="none" stroke="rgb(0,0,0)" class="dcg-svg-minor-gridline" paint-order="fill stroke markers" d=" M 470.5 0 L 470.5 400" stroke-opacity="0.12" stroke-miterlimit="10" stroke-dasharray=""/><path fill="none" stroke="rgb(0,0,0)" class="dcg-svg-minor-gridline" paint-order="fill stroke markers" d=" M 488.5 0 L 488.5 400" stroke-opacity="0.12" stroke-miterlimit="10" stroke-dasharray=""/><path fill="none" stroke="rgb(0,0,0)" class="dcg-svg-minor-gridline" paint-order="fill stroke markers" d=" M 505.5 0 L 505.5 400" stroke-opacity="0.12" stroke-miterlimit="10" stroke-dasharray=""/><path fill="none" stroke="rgb(0,0,0)" class="dcg-svg-minor-gridline" paint-order="fill stroke markers" d=" M 522.5 0 L 522.5 400" stroke-opacity="0.12" stroke-miterlimit="10" stroke-dasharray=""/><path fill="none" stroke="rgb(0,0,0)" class="dcg-svg-minor-gridline" paint-order="fill stroke markers" d=" M 539.5 0 L 539.5 400" stroke-opacity="0.12" stroke-miterlimit="10" stroke-dasharray=""/><path fill="none" stroke="rgb(0,0,0)" class="dcg-svg-minor-gridline" paint-order="fill stroke markers" d=" M 556.5 0 L 556.5 400" stroke-opacity="0.12" stroke-miterlimit="10" stroke-dasharray=""/><path fill="none" stroke="rgb(0,0,0)" class="dcg-svg-minor-gridline" paint-order="fill stroke markers" d=" M 573.5 0 L 573.5 400" stroke-opacity="0.12" stroke-miterlimit="10" stroke-dasharray=""/><path fill="none" stroke="rgb(0,0,0)" class="dcg-svg-minor-gridline" paint-order="fill stroke markers" d=" M 590.5 0 L 590.5 400" stroke-opacity="0.12" stroke-miterlimit="10" stroke-dasharray=""/><path fill="none" stroke="rgb(0,0,0)" class="dcg-svg-minor-gridline" paint-order="fill stroke markers" d=" M 0 395.5 L 600 395.5" stroke-opacity="0.12" stroke-miterlimit="10" stroke-dasharray=""/><path fill="none" stroke="rgb(0,0,0)" class="dcg-svg-minor-gridline" paint-order="fill stroke markers" d=" M 0 377.5 L 600 377.5" stroke-opacity="0.12" stroke-miterlimit="10" stroke-dasharray=""/><path fill="none" stroke="rgb(0,0,0)" class="dcg-svg-minor-gridline" paint-order="fill stroke markers" d=" M 0 359.5 L 600 359.5" stroke-opacity="0.12" stroke-miterlimit="10" stroke-dasharray=""/><path fill="none" stroke="rgb(0,0,0)" class="dcg-svg-minor-gridline" paint-order="fill stroke markers" d=" M 0 341.5 L 600 341.5" stroke-opacity="0.12" stroke-miterlimit="10" stroke-dasharray=""/><path fill="none" stroke="rgb(0,0,0)" class="dcg-svg-minor-gridline" paint-order="fill stroke markers" d=" M 0 323.5 L 600 323.5" stroke-opacity="0.12" stroke-miterlimit="10" stroke-dasharray=""/><path fill="none" stroke="rgb(0,0,0)" class="dcg-svg-minor-gridline" paint-order="fill stroke markers" d=" M 0 306.5 L 600 306.5" stroke-opacity="0.12" stroke-miterlimit="10" stroke-dasharray=""/><path fill="none" stroke="rgb(0,0,0)" class="dcg-svg-minor-gridline" paint-order="fill stroke markers" d=" M 0 288.5 L 600 288.5" stroke-opacity="0.12" stroke-miterlimit="10" stroke-dasharray=""/><path fill="none" stroke="rgb(0,0,0)" class="dcg-svg-minor-gridline" paint-order="fill stroke markers" d=" M 0 270.5 L 600 270.5" stroke-opacity="0.12" stroke-miterlimit="10" stroke-dasharray=""/><path fill="none" stroke="rgb(0,0,0)" class="dcg-svg-minor-gridline" paint-order="fill stroke markers" d=" M 0 252.5 L 600 252.5" stroke-opacity="0.12" stroke-miterlimit="10" stroke-dasharray=""/><path fill="none" stroke="rgb(0,0,0)" class="dcg-svg-minor-gridline" paint-order="fill stroke markers" d=" M 0 235.5 L 600 235.5" stroke-opacity="0.12" stroke-miterlimit="10" stroke-dasharray=""/><path fill="none" stroke="rgb(0,0,0)" class="dcg-svg-minor-gridline" paint-order="fill stroke markers" d=" M 0 217.5 L 600 217.5" stroke-opacity="0.12" stroke-miterlimit="10" stroke-dasharray=""/><path fill="none" stroke="rgb(0,0,0)" class="dcg-svg-minor-gridline" paint-order="fill stroke markers" d=" M 0 181.5 L 600 181.5" stroke-opacity="0.12" stroke-miterlimit="10" stroke-dasharray=""/><path fill="none" stroke="rgb(0,0,0)" class="dcg-svg-minor-gridline" paint-order="fill stroke markers" d=" M 0 163.5 L 600 163.5" stroke-opacity="0.12" stroke-miterlimit="10" stroke-dasharray=""/><path fill="none" stroke="rgb(0,0,0)" class="dcg-svg-minor-gridline" paint-order="fill stroke markers" d=" M 0 146.5 L 600 146.5" stroke-opacity="0.12" stroke-miterlimit="10" stroke-dasharray=""/><path fill="none" stroke="rgb(0,0,0)" class="dcg-svg-minor-gridline" paint-order="fill stroke markers" d=" M 0 128.5 L 600 128.5" stroke-opacity="0.12" stroke-miterlimit="10" stroke-dasharray=""/><path fill="none" stroke="rgb(0,0,0)" class="dcg-svg-minor-gridline" paint-order="fill stroke markers" d=" M 0 110.5 L 600 110.5" stroke-opacity="0.12" stroke-miterlimit="10" stroke-dasharray=""/><path fill="none" stroke="rgb(0,0,0)" class="dcg-svg-minor-gridline" paint-order="fill stroke markers" d=" M 0 92.5 L 600 92.5" stroke-opacity="0.12" stroke-miterlimit="10" stroke-dasharray=""/><path fill="none" stroke="rgb(0,0,0)" class="dcg-svg-minor-gridline" paint-order="fill stroke markers" d=" M 0 75.5 L 600 75.5" stroke-opacity="0.12" stroke-miterlimit="10" stroke-dasharray=""/><path fill="none" stroke="rgb(0,0,0)" class="dcg-svg-minor-gridline" paint-order="fill stroke markers" d=" M 0 57.5 L 600 57.5" stroke-opacity="0.12" stroke-miterlimit="10" stroke-dasharray=""/><path fill="none" stroke="rgb(0,0,0)" class="dcg-svg-minor-gridline" paint-order="fill stroke markers" d=" M 0 39.5 L 600 39.5" stroke-opacity="0.12" stroke-miterlimit="10" stroke-dasharray=""/><path fill="none" stroke="rgb(0,0,0)" class="dcg-svg-minor-gridline" paint-order="fill stroke markers" d=" M 0 21.5 L 600 21.5" stroke-opacity="0.12" stroke-miterlimit="10" stroke-dasharray=""/><path fill="none" stroke="rgb(0,0,0)" class="dcg-svg-minor-gridline" paint-order="fill stroke markers" d=" M 0 3.5 L 600 3.5" stroke-opacity="0.12" stroke-miterlimit="10" stroke-dasharray=""/><path fill="none" stroke="rgb(0,0,0)" class="dcg-svg-major-gridline" paint-order="fill stroke markers" d=" M 128.5 0 L 128.5 400" stroke-opacity="0.31818181818181823" stroke-miterlimit="10" stroke-dasharray=""/><path fill="none" stroke="rgb(0,0,0)" class="dcg-svg-major-gridline" paint-order="fill stroke markers" d=" M 213.5 0 L 213.5 400" stroke-opacity="0.31818181818181823" stroke-miterlimit="10" stroke-dasharray=""/><path fill="none" stroke="rgb(0,0,0)" class="dcg-svg-major-gridline" paint-order="fill stroke markers" d=" M 299.5 0 L 299.5 400" stroke-opacity="0.31818181818181823" stroke-miterlimit="10" stroke-dasharray=""/><path fill="none" stroke="rgb(0,0,0)" class="dcg-svg-major-gridline" paint-order="fill stroke markers" d=" M 385.5 0 L 385.5 400" stroke-opacity="0.31818181818181823" stroke-miterlimit="10" stroke-dasharray=""/><path fill="none" stroke="rgb(0,0,0)" class="dcg-svg-major-gridline" paint-order="fill stroke markers" d=" M 470.5 0 L 470.5 400" stroke-opacity="0.31818181818181823" stroke-miterlimit="10" stroke-dasharray=""/><path fill="none" stroke="rgb(0,0,0)" class="dcg-svg-major-gridline" paint-order="fill stroke markers" d=" M 556.5 0 L 556.5 400" stroke-opacity="0.31818181818181823" stroke-miterlimit="10" stroke-dasharray=""/><path fill="none" stroke="rgb(0,0,0)" class="dcg-svg-major-gridline" paint-order="fill stroke markers" d=" M 0 377.5 L 600 377.5" stroke-opacity="0.31818181818181823" stroke-miterlimit="10" stroke-dasharray=""/><path fill="none" stroke="rgb(0,0,0)" class="dcg-svg-major-gridline" paint-order="fill stroke markers" d=" M 0 288.5 L 600 288.5" stroke-opacity="0.31818181818181823" stroke-miterlimit="10" stroke-dasharray=""/><path fill="none" stroke="rgb(0,0,0)" class="dcg-svg-major-gridline" paint-order="fill stroke markers" d=" M 0 110.5 L 600 110.5" stroke-opacity="0.31818181818181823" stroke-miterlimit="10" stroke-dasharray=""/><path fill="none" stroke="rgb(0,0,0)" class="dcg-svg-major-gridline" paint-order="fill stroke markers" d=" M 0 21.5 L 600 21.5" stroke-opacity="0.31818181818181823" stroke-miterlimit="10" stroke-dasharray=""/></g></g><g id="axis-aa36c317"><g id="yaxis-aa36c317"><title>Y axis</title><path fill="none" stroke="rgb(0,0,0)" class="dcg-svg-axis-line" paint-order="fill stroke markers" d=" M 42.75 0 L 42.75 400" stroke-opacity="0.9" stroke-miterlimit="10" stroke-width="1.5" stroke-dasharray=""/></g><g id="xaxis-aa36c317"><title>X axis</title><path fill="none" stroke="rgb(0,0,0)" class="dcg-svg-axis-line" paint-order="fill stroke markers" d=" M 0 199.75 L 600 199.75" stroke-opacity="0.9" stroke-miterlimit="10" stroke-width="1.5" stroke-dasharray=""/></g><g><g class="dcg-svg-axis-value"><text fill="none" stroke="#ffffff" font-family="Arial" font-size="14px" font-style="normal" font-weight="normal" text-decoration="normal" x="33.964076450892854" y="215.808" text-anchor="middle" stroke-miterlimit="2" stroke-width="3" stroke-dasharray="">0</text><text fill="#000000" stroke="none" font-family="Arial" font-size="14px" font-style="normal" font-weight="normal" text-decoration="normal" x="33.964076450892854" y="215.808" text-anchor="middle">0</text></g><g class="dcg-svg-axis-value"><text fill="none" stroke="#ffffff" font-family="Arial" font-size="14px" font-style="normal" font-weight="normal" text-decoration="normal" x="128.57142857142856" y="215.808" text-anchor="middle" stroke-miterlimit="2" stroke-width="3" stroke-dasharray="">1</text><text fill="#000000" stroke="none" font-family="Arial" font-size="14px" font-style="normal" font-weight="normal" text-decoration="normal" x="128.57142857142856" y="215.808" text-anchor="middle">1</text></g><g class="dcg-svg-axis-value"><text fill="none" stroke="#ffffff" font-family="Arial" font-size="14px" font-style="normal" font-weight="normal" text-decoration="normal" x="214.28571428571428" y="215.808" text-anchor="middle" stroke-miterlimit="2" stroke-width="3" stroke-dasharray="">2</text><text fill="#000000" stroke="none" font-family="Arial" font-size="14px" font-style="normal" font-weight="normal" text-decoration="normal" x="214.28571428571428" y="215.808" text-anchor="middle">2</text></g><g class="dcg-svg-axis-value"><text fill="none" stroke="#ffffff" font-family="Arial" font-size="14px" font-style="normal" font-weight="normal" text-decoration="normal" x="299.99999999999994" y="215.808" text-anchor="middle" stroke-miterlimit="2" stroke-width="3" stroke-dasharray="">3</text><text fill="#000000" stroke="none" font-family="Arial" font-size="14px" font-style="normal" font-weight="normal" text-decoration="normal" x="299.99999999999994" y="215.808" text-anchor="middle">3</text></g><g class="dcg-svg-axis-value"><text fill="none" stroke="#ffffff" font-family="Arial" font-size="14px" font-style="normal" font-weight="normal" text-decoration="normal" x="385.71428571428567" y="215.808" text-anchor="middle" stroke-miterlimit="2" stroke-width="3" stroke-dasharray="">4</text><text fill="#000000" stroke="none" font-family="Arial" font-size="14px" font-style="normal" font-weight="normal" text-decoration="normal" x="385.71428571428567" y="215.808" text-anchor="middle">4</text></g><g class="dcg-svg-axis-value"><text fill="none" stroke="#ffffff" font-family="Arial" font-size="14px" font-style="normal" font-weight="normal" text-decoration="normal" x="471.4285714285714" y="215.808" text-anchor="middle" stroke-miterlimit="2" stroke-width="3" stroke-dasharray="">5</text><text fill="#000000" stroke="none" font-family="Arial" font-size="14px" font-style="normal" font-weight="normal" text-decoration="normal" x="471.4285714285714" y="215.808" text-anchor="middle">5</text></g><g class="dcg-svg-axis-value"><text fill="none" stroke="#ffffff" font-family="Arial" font-size="14px" font-style="normal" font-weight="normal" text-decoration="normal" x="557.1428571428571" y="215.808" text-anchor="middle" stroke-miterlimit="2" stroke-width="3" stroke-dasharray="">6</text><text fill="#000000" stroke="none" font-family="Arial" font-size="14px" font-style="normal" font-weight="normal" text-decoration="normal" x="557.1428571428571" y="215.808" text-anchor="middle">6</text></g><g class="dcg-svg-axis-value"><text fill="none" stroke="#ffffff" font-family="Arial" font-size="14px" font-style="normal" font-weight="normal" text-decoration="normal" x="31.633021763392854" y="381.58577777777776" text-anchor="middle" stroke-miterlimit="2" stroke-width="3" stroke-dasharray="">-2</text><text fill="#000000" stroke="none" font-family="Arial" font-size="14px" font-style="normal" font-weight="normal" text-decoration="normal" x="31.633021763392854" y="381.58577777777776" text-anchor="middle">-2</text></g><g class="dcg-svg-axis-value"><text fill="none" stroke="#ffffff" font-family="Arial" font-size="14px" font-style="normal" font-weight="normal" text-decoration="normal" x="31.633021763392854" y="292.6968888888889" text-anchor="middle" stroke-miterlimit="2" stroke-width="3" stroke-dasharray="">-1</text><text fill="#000000" stroke="none" font-family="Arial" font-size="14px" font-style="normal" font-weight="normal" text-decoration="normal" x="31.633021763392854" y="292.6968888888889" text-anchor="middle">-1</text></g><g class="dcg-svg-axis-value"><text fill="none" stroke="#ffffff" font-family="Arial" font-size="14px" font-style="normal" font-weight="normal" text-decoration="normal" x="33.964076450892854" y="114.91911111111112" text-anchor="middle" stroke-miterlimit="2" stroke-width="3" stroke-dasharray="">1</text><text fill="#000000" stroke="none" font-family="Arial" font-size="14px" font-style="normal" font-weight="normal" text-decoration="normal" x="33.964076450892854" y="114.91911111111112" text-anchor="middle">1</text></g><g class="dcg-svg-axis-value"><text fill="none" stroke="#ffffff" font-family="Arial" font-size="14px" font-style="normal" font-weight="normal" text-decoration="normal" x="33.964076450892854" y="26.03022222222223" text-anchor="middle" stroke-miterlimit="2" stroke-width="3" stroke-dasharray="">2</text><text fill="#000000" stroke="none" font-family="Arial" font-size="14px" font-style="normal" font-weight="normal" text-decoration="normal" x="33.964076450892854" y="26.03022222222223" text-anchor="middle">2</text></g></g></g></g><g id="expressions-aa36c317"><g id="sketch-aa36c317"><title>Expression 1</title><path fill="#2d70b3" stroke="none" paint-order="stroke fill markers" d="" fill-opacity="0.4"/><g><path fill="none" stroke="#2d70b3" class="dcg-svg-curve" paint-order="fill stroke markers" d=" M 87.95486934385194 -5.5 L 87.95486934385194 -5.5 L 88.26953125 -4.274595427617612 L 92.810546875 12.184132949700256 L 97.205078125 26.974965151003914 L 101.59960937499999 40.67662590272033 L 105.84765624999999 52.91337279661502 L 110.09570312499999 64.1854050522681 L 114.19726562499999 74.17785518791862 L 118.29882812499999 83.3188658646252 L 122.25390624999999 91.34911356746085 L 126.20898437499999 98.63078353294628 L 130.017578125 104.9551085127863 L 133.826171875 110.62406369150011 L 137.634765625 115.65681248904957 L 141.443359375 120.07264608038656 L 145.10546875 123.75497201224579 L 148.62109375 126.78655043584683 L 151.84375 129.14582474101832 L 155.06640625 131.11630052196193 L 158.142578125 132.64598473963787 L 161.072265625 133.79419274632073 L 164.001953125 134.65127363692665 L 166.931640625 135.22732652600217 L 169.861328125 135.5327889417435 L 172.791015625 135.5785057914676 L 175.8671875 135.35936643453272 L 178.943359375 134.88017649802737 L 182.166015625 134.1152481945668 L 185.681640625 132.99493777655726 L 189.34375 131.53759335615462 L 193.4453125 129.59251870892678 L 197.986328125 127.11230025546126 L 203.55273437499997 123.71604237304649 L 213.80664062499997 117.00502816314997 L 220.10546874999997 113.08744172320752 L 224.35351562499997 110.77663923435148 L 227.86914062499997 109.1808006643738 L 230.94531249999997 108.0890214177208 L 233.72851562499997 107.39479940805415 L 236.21874999999997 107.04392642752293 L 238.56249999999997 106.97185365228171 L 240.90624999999997 107.17066801034179 L 243.10351562499997 107.61840038809987 L 245.30078124999997 108.33056088387212 L 247.64453124999997 109.39037814472198 L 249.98828124999997 110.76443737456185 L 252.47851562499997 112.56740501058613 L 255.26171874999997 114.98984531766416 L 258.337890625 118.13932532786879 L 261.853515625 122.28408663986664 L 265.955078125 127.72862205717007 L 271.228515625 135.40077861131556 L 287.48828125 159.53429620804272 L 292.322265625 165.82590440029702 L 296.86328125 171.1286957040933 L 301.111328125 175.52462801910372 L 305.212890625 179.2537783819421 L 309.16796875 182.39137873054094 L 313.123046875 185.11026741777138 L 317.078125 187.447589859947 L 321.033203125 189.4431266032128 L 325.134765625 191.19419758695958 L 329.529296875 192.7584069117898 L 334.216796875 194.12441317701177 L 339.197265625 195.29092415173847 L 344.763671875 196.31258733109894 L 350.916015625 197.16858437062535 L 358.09375 197.89268345714177 L 366.58984375 198.47527433968398 L 377.13671875 198.92319106291666 L 391.052734375 199.2379987886393 L 411.99999999999994 199.42703728197003 L 454.91992187499994 199.49837382088813 L 599.5 199.5000308114807" stroke-linecap="round" stroke-linejoin="round" stroke-miterlimit="10" stroke-width="2.5" stroke-opacity="0.9" stroke-dasharray=""/></g></g><g id="sketch-aa36c317"><title>Expression 6</title><path fill="#2d70b3" stroke="none" class="dcg-svg-region" paint-order="stroke fill markers" d=" M -0.5 -3 L 88.62119619152377 -3 L 92.810546875 12.184132949700256 L 97.205078125 26.974965151003914 L 101.59960937499999 40.67662590272033 L 105.84765624999999 52.91337279661502 L 110.09570312499999 64.1854050522681 L 114.19726562499999 74.17785518791862 L 118.29882812499999 83.3188658646252 L 122.25390624999999 91.34911356746085 L 126.20898437499999 98.63078353294628 L 130.017578125 104.9551085127863 L 133.826171875 110.62406369150011 L 137.634765625 115.65681248904957 L 141.443359375 120.07264608038656 L 145.10546875 123.75497201224579 L 148.62109375 126.78655043584683 L 151.84375 129.14582474101832 L 155.06640625 131.11630052196193 L 158.142578125 132.64598473963787 L 161.072265625 133.79419274632073 L 164.001953125 134.65127363692665 L 166.931640625 135.22732652600217 L 169.861328125 135.5327889417435 L 172.791015625 135.5785057914676 L 175.8671875 135.35936643453272 L 178.943359375 134.88017649802737 L 182.166015625 134.1152481945668 L 185.681640625 132.99493777655726 L 189.34375 131.53759335615462 L 193.4453125 129.59251870892678 L 197.986328125 127.11230025546126 L 203.55273437499997 123.71604237304649 L 213.80664062499997 117.00502816314997 L 220.10546874999997 113.08744172320752 L 224.35351562499997 110.77663923435148 L 227.86914062499997 109.1808006643738 L 230.94531249999997 108.0890214177208 L 233.72851562499997 107.39479940805415 L 236.21874999999997 107.04392642752293 L 238.56249999999997 106.97185365228171 L 240.90624999999997 107.17066801034179 L 243.10351562499997 107.61840038809987 L 245.30078124999997 108.33056088387212 L 247.64453124999997 109.39037814472198 L 249.98828124999997 110.76443737456185 L 252.47851562499997 112.56740501058613 L 255.26171874999997 114.98984531766416 L 258.337890625 118.13932532786879 L 261.853515625 122.28408663986664 L 265.955078125 127.72862205717007 L 271.228515625 135.40077861131556 L 287.48828125 159.53429620804272 L 292.322265625 165.82590440029702 L 296.86328125 171.1286957040933 L 301.111328125 175.52462801910372 L 305.212890625 179.2537783819421 L 309.16796875 182.39137873054094 L 313.123046875 185.11026741777138 L 317.078125 187.447589859947 L 321.033203125 189.4431266032128 L 325.134765625 191.19419758695958 L 329.529296875 192.7584069117898 L 334.216796875 194.12441317701177 L 339.197265625 195.29092415173847 L 344.763671875 196.31258733109894 L 350.916015625 197.16858437062535 L 358.09375 197.89268345714177 L 366.58984375 198.47527433968398 L 377.13671875 198.92319106291666 L 391.052734375 199.2379987886393 L 411.99999999999994 199.42703728197003 L 454.91992187499994 199.49837382088813 L 599.5 199.5000308114807 L 599.5 399.5 L -0.5 399.5 L -0.5 -3" fill-opacity="0.4"/><path fill="#2d70b3" stroke="none" paint-order="stroke fill markers" d="" fill-opacity="0.4"/><path fill="#2d70b3" stroke="none" paint-order="stroke fill markers" d="" fill-opacity="0.4"/><path fill="#2d70b3" stroke="none" paint-order="stroke fill markers" d="" fill-opacity="0.4"/><path fill="#2d70b3" stroke="none" paint-order="stroke fill markers" d="" fill-opacity="0.4"/><g><path fill="none" stroke="#2d70b3" class="dcg-svg-curve" paint-order="fill stroke markers" d=" M 87.95486934385194 -5.5 L 88.26953125 -4.274595427617612 M 88.26953125 -4.274595427617612 L 90.85866621685733 5.109620058696796 M 92.72042704485396 11.857497252254582 L 92.810546875 12.184132949700256 M 92.810546875 12.184132949700256 L 95.84691902212901 22.403760112187133 M 97.8865302888531 29.099657373328707 L 101.24599697516513 39.57410168238681 M 103.51557353306116 46.19567245513595 L 105.84765624999999 52.91337279661502 M 105.84765624999999 52.91337279661502 L 107.21913255354096 56.552533471219796 M 109.68770984776204 63.10281027013877 L 110.09570312499999 64.1854050522681 M 110.09570312499999 64.1854050522681 L 113.83334033268292 73.29124055347619 M 116.67056055549037 79.69000217245363 L 118.29882812499999 83.3188658646252 M 118.29882812499999 83.3188658646252 L 121.40167697082406 89.61877803549413 M 124.67435023287004 95.80537806999955 L 126.20898437499999 98.63078353294628 M 126.20898437499999 98.63078353294628 L 130.017578125 104.9551085127863 M 130.017578125 104.9551085127863 L 130.24183905978475 105.28891286974384 M 134.17171385252374 111.0806694851439 L 137.634765625 115.65681248904957 M 137.634765625 115.65681248904957 L 141.07096489175197 119.64087725013124 M 146.0418943256762 124.56246643230712 L 148.62109375 126.78655043584683 M 148.62109375 126.78655043584683 L 151.84375 129.14582474101832 M 151.84375 129.14582474101832 L 154.91539845703878 131.02396762149704 M 161.30340571936173 133.8618128450276 L 164.001953125 134.65127363692665 M 164.001953125 134.65127363692665 L 166.931640625 135.22732652600217 M 166.931640625 135.22732652600217 L 169.861328125 135.5327889417435 M 169.861328125 135.5327889417435 L 172.11804507103056 135.56800429815658 M 179.06956199954942 134.85022109726478 L 182.166015625 134.1152481945668 M 182.166015625 134.1152481945668 L 185.681640625 132.99493777655726 M 185.681640625 132.99493777655726 L 189.34375 131.53759335615462 M 189.34375 131.53759335615462 L 189.5120532484525 131.45777928978086 M 195.7682793086182 128.3237573521493 L 197.986328125 127.11230025546126 M 197.986328125 127.11230025546126 L 203.55273437499997 123.71604237304649 M 203.55273437499997 123.71604237304649 L 205.1860068036426 122.64709223736011 M 211.043083234168 118.81373135075108 L 213.80664062499997 117.00502816314997 M 213.80664062499997 117.00502816314997 L 220.10546874999997 113.08744172320752 M 220.10546874999997 113.08744172320752 L 220.3509449524203 112.95391047079924 M 226.57857482589236 109.7666238620442 L 227.86914062499997 109.1808006643738 M 227.86914062499997 109.1808006643738 L 230.94531249999997 108.0890214177208 M 230.94531249999997 108.0890214177208 L 233.72851562499997 107.39479940805415 M 233.72851562499997 107.39479940805415 L 236.21874999999997 107.04392642752293 M 236.21874999999997 107.04392642752293 L 237.15352384136628 107.01518114966899 M 244.05077565572046 107.9254188775477 L 245.30078124999997 108.33056088387212 M 245.30078124999997 108.33056088387212 L 247.64453124999997 109.39037814472198 M 247.64453124999997 109.39037814472198 L 249.98828124999997 110.76443737456185 M 249.98828124999997 110.76443737456185 L 252.47851562499997 112.56740501058613 M 252.47851562499997 112.56740501058613 L 253.47608351186926 113.43566670391792 M 258.4868127213969 118.31489767806184 L 261.853515625 122.28408663986664 M 261.853515625 122.28408663986664 L 265.3405550341645 126.91288592421961 M 269.34167082928144 132.65566810870175 L 271.228515625 135.40077861131556 M 271.228515625 135.40077861131556 L 275.51359361221586 141.76089519558045 M 279.42488517665095 147.56622019061552 L 285.5712004921918 156.68887375424205 M 289.66273558655223 162.36442838395297 L 292.322265625 165.82590440029702 M 292.322265625 165.82590440029702 L 296.6378202298392 170.8654125895249 M 301.51106720836475 175.8880717427506 L 305.212890625 179.2537783819421 M 305.212890625 179.2537783819421 L 309.16796875 182.39137873054094 M 309.16796875 182.39137873054094 L 309.9494866887383 182.92862735505534 M 315.8339417011944 186.7123180259732 L 317.078125 187.447589859947 M 317.078125 187.447589859947 L 321.033203125 189.4431266032128 M 321.033203125 189.4431266032128 L 325.134765625 191.19419758695958 M 325.134765625 191.19419758695958 L 325.76134592792056 191.41722541332518 M 332.4099452915988 193.59787011925127 L 334.216796875 194.12441317701177 M 334.216796875 194.12441317701177 L 339.197265625 195.29092415173847 M 339.197265625 195.29092415173847 L 343.1342389887765 196.01351976248702 M 350.0560411091725 197.04893311745593 L 350.916015625 197.16858437062535 M 350.916015625 197.16858437062535 L 358.09375 197.89268345714177 M 358.09375 197.89268345714177 L 361.0044904692148 198.09227763638575 M 367.99011230475094 198.53474254260567 L 377.13671875 198.92319106291666 M 377.13671875 198.92319106291666 L 378.9813955335363 198.9649212907755 M 385.9796050829364 199.12323459623192 L 391.052734375 199.2379987886393 M 391.052734375 199.2379987886393 L 396.97806587369746 199.2914719129626 M 403.9777808458239 199.35464080554092 L 411.99999999999994 199.42703728197003 M 411.99999999999994 199.42703728197003 L 414.9774500690186 199.43198605572 M 421.977440400201 199.44362063148043 L 432.9774252063447 199.46190353624684 M 439.9774155375271 199.47353811200728 L 450.97740034367087 199.49182101677366 M 457.97739489781657 199.49840886170497 L 468.97739489709414 199.49853492953363 M 475.97739489663445 199.4986151545155 L 486.977394895912 199.49874122234417 M 493.97739489545233 199.49882144732604 L 504.9773948947299 199.4989475151547 M 511.9773948942702 199.49902774013657 L 522.9773948935479 199.49915380796523 M 529.9773948930881 199.4992340329471 L 540.9773948923657 199.49936010077576 M 547.977394891906 199.49944032575763 L 558.9773948911835 199.4995663935863 M 565.9773948907238 199.49964661856816 L 576.9773948900014 199.49977268639685 M 583.9773948895416 199.49985291137872 L 594.9773948888193 199.4999789792074" stroke-linecap="round" stroke-linejoin="round" stroke-miterlimit="10" stroke-width="2.5" stroke-opacity="0.9" stroke-dasharray=""/></g></g></g><g id="labels-aa36c317"/></g></svg>