<svg version="1.1" xmlns="http://www.w3.org/2000/svg" xmlns:xlink="http://www.w3.org/1999/xlink" width="600" height="400"><defs/><g transform="scale(1,1)"><g id="background-7967cd1e"><rect fill="white" stroke="none" x="0" y="0" width="600" height="400" class="dcg-svg-background"/></g><g id="background-images-7967cd1e"/><g id="graphpaper-7967cd1e"><g id="grid-7967cd1e"><g><path fill="none" stroke="rgb(0,0,0)" class="dcg-svg-minor-gridline" paint-order="fill stroke markers" d=" M -0.5 0 L -0.5 400" stroke-opacity="0.12" stroke-miterlimit="10" stroke-dasharray=""/><path fill="none" stroke="rgb(0,0,0)" class="dcg-svg-minor-gridline" paint-order="fill stroke markers" d=" M 32.5 0 L 32.5 400" stroke-opacity="0.12" stroke-miterlimit="10" stroke-dasharray=""/><path fill="none" stroke="rgb(0,0,0)" class="dcg-svg-minor-gridline" paint-order="fill stroke markers" d=" M 66.5 0 L 66.5 400" stroke-opacity="0.12" stroke-miterlimit="10" stroke-dasharray=""/><path fill="none" stroke="rgb(0,0,0)" class="dcg-svg-minor-gridline" paint-order="fill stroke markers" d=" M 132.5 0 L 132.5 400" stroke-opacity="0.12" stroke-miterlimit="10" stroke-dasharray=""/><path fill="none" stroke="rgb(0,0,0)" class="dcg-svg-minor-gridline" paint-order="fill stroke markers" d=" M 166.5 0 L 166.5 400" stroke-opacity="0.12" stroke-miterlimit="10" stroke-dasharray=""/><path fill="none" stroke="rgb(0,0,0)" class="dcg-svg-minor-gridline" paint-order="fill stroke markers" d=" M 199.5 0 L 199.5 400" stroke-opacity="0.12" stroke-miterlimit="10" stroke-dasharray=""/><path fill="none" stroke="rgb(0,0,0)" class="dcg-svg-minor-gridline" paint-order="fill stroke markers" d=" M 232.5 0 L 232.5 400" stroke-opacity="0.12" stroke-miterlimit="10" stroke-dasharray=""/><path fill="none" stroke="rgb(0,0,0)" class="dcg-svg-minor-gridline" paint-order="fill stroke markers" d=" M 266.5 0 L 266.5 400" stroke-opacity="0.12" stroke-miterlimit="10" stroke-dasharray=""/><path fill="none" stroke="rgb(0,0,0)" class="dcg-svg-minor-gridline" paint-order="fill stroke markers" d=" M 299.5 0 L 299.5 400" stroke-opacity="0.12" stroke-miterlimit="10" stroke-dasharray=""/><path fill="none" stroke="rgb(0,0,0)" class="dcg-svg-minor-gridline" paint-order="fill stroke markers" d=" M 332.5 0 L 332.5 400" stroke-opacity="0.12" stroke-miterlimit="10" stroke-dasharray=""/><path fill="none" stroke="rgb(0,0,0)" class="dcg-svg-minor-gridline" paint-order="fill stroke markers" d=" M 366.5 0 L 366.5 400" stroke-opacity="0.12" stroke-miterlimit="10" stroke-dasharray=""/><path fill="none" stroke="rgb(0,0,0)" class="dcg-svg-minor-gridline" paint-order="fill stroke markers" d=" M 399.5 0 L 399.5 400" stroke-opacity="0.12" stroke-miterlimit="10" stroke-dasharray=""/><path fill="none" stroke="rgb(0,0,0)" class="dcg-svg-minor-gridline" paint-order="fill stroke markers" d=" M 432.5 0 L 432.5 400" stroke-opacity="0.12" stroke-miterlimit="10" stroke-dasharray=""/><path fill="none" stroke="rgb(0,0,0)" class="dcg-svg-minor-gridline" paint-order="fill stroke markers" d=" M 466.5 0 L 466.5 400" stroke-opacity="0.12" stroke-miterlimit="10" stroke-dasharray=""/><path fill="none" stroke="rgb(0,0,0)" class="dcg-svg-minor-gridline" paint-order="fill stroke markers" d=" M 499.5 0 L 499.5 400" stroke-opacity="0.12" stroke-miterlimit="10" stroke-dasharray=""/><path fill="none" stroke="rgb(0,0,0)" class="dcg-svg-minor-gridline" paint-order="fill stroke markers" d=" M 532.5 0 L 532.5 400" stroke-opacity="0.12" stroke-miterlimit="10" stroke-dasharray=""/><path fill="none" stroke="rgb(0,0,0)" class="dcg-svg-minor-gridline" paint-order="fill stroke markers" d=" M 566.5 0 L 566.5 400" stroke-opacity="0.12" stroke-miterlimit="10" stroke-dasharray=""/><path fill="none" stroke="rgb(0,0,0)" class="dcg-svg-minor-gridline" paint-order="fill stroke markers" d=" M 0 374.5 L 600 374.5" stroke-opacity="0.12" stroke-miterlimit="10" stroke-dasharray=""/><path fill="none" stroke="rgb(0,0,0)" class="dcg-svg-minor-gridline" paint-order="fill stroke markers" d=" M 0 349.5 L 600 349.5" stroke-opacity="0.12" stroke-miterlimit="10" stroke-dasharray=""/><path fill="none" stroke="rgb(0,0,0)" class="dcg-svg-minor-gridline" paint-order="fill stroke markers" d=" M 0 324.5 L 600 324.5" stroke-opacity="0.12" stroke-miterlimit="10" stroke-dasharray=""/><path fill="none" stroke="rgb(0,0,0)" class="dcg-svg-minor-gridline" paint-order="fill stroke markers" d=" M 0 299.5 L 600 299.5" stroke-opacity="0.12" stroke-miterlimit="10" stroke-dasharray=""/><path fill="none" stroke="rgb(0,0,0)" class="dcg-svg-minor-gridline" paint-order="fill stroke markers" d=" M 0 274.5 L 600 274.5" stroke-opacity="0.12" stroke-miterlimit="10" stroke-dasharray=""/><path fill="none" stroke="rgb(0,0,0)" class="dcg-svg-minor-gridline" paint-order="fill stroke markers" d=" M 0 249.5 L 600 249.5" stroke-opacity="0.12" stroke-miterlimit="10" stroke-dasharray=""/><path fill="none" stroke="rgb(0,0,0)" class="dcg-svg-minor-gridline" paint-order="fill stroke markers" d=" M 0 224.5 L 600 224.5" stroke-opacity="0.12" stroke-miterlimit="10" stroke-dasharray=""/><path fill="none" stroke="rgb(0,0,0)" class="dcg-svg-minor-gridline" paint-order="fill stroke markers" d=" M 0 174.5 L 600 174.5" stroke-opacity="0.12" stroke-miterlimit="10" stroke-dasharray=""/><path fill="none" stroke="rgb(0,0,0)" class="dcg-svg-minor-gridline" paint-order="fill stroke markers" d=" M 0 149.5 L 600 149.5" stroke-opacity="0.12" stroke-miterlimit="10" stroke-dasharray=""/><path fill="none" stroke="rgb(0,0,0)" class="dcg-svg-minor-gridline" paint-order="fill stroke markers" d=" M 0 124.5 L 600 124.5" stroke-opacity="0.12" stroke-miterlimit="10" stroke-dasharray=""/><path fill="none" stroke="rgb(0,0,0)" class="dcg-svg-minor-gridline" paint-order="fill stroke markers" d=" M 0 99.5 L 600 99.5" stroke-opacity="0.12" stroke-miterlimit="10" stroke-dasharray=""/><path fill="none" stroke="rgb(0,0,0)" class="dcg-svg-minor-gridline" paint-order="fill stroke markers" d=" M 0 74.5 L 600 74.5" stroke-opacity="0.12" stroke-miterlimit="10" stroke-dasharray=""/><path fill="none" stroke="rgb(0,0,0)" class="dcg-svg-minor-gridline" paint-order="fill stroke markers" d=" M 0 49.5 L 600 49.5" stroke-opacity="0.12" stroke-miterlimit="10" stroke-dasharray=""/><path fill="none" stroke="rgb(0,0,0)" class="dcg-svg-minor-gridline" paint-order="fill stroke markers" d=" M 0 24.5 L 600 24.5" stroke-opacity="0.12" stroke-miterlimit="10" stroke-dasharray=""/><path fill="none" stroke="rgb(0,0,0)" class="dcg-svg-minor-gridline" paint-order="fill stroke markers" d=" M 0 -0.5 L 600 -0.5" stroke-opacity="0.12" stroke-miterlimit="10" stroke-dasharray=""/><path fill="none" stroke="rgb(0,0,0)" class="dcg-svg-major-gridline" paint-order="fill stroke markers" d=" M 232.5 0 L 232.5 400" stroke-opacity="0.31818181818181823" stroke-miterlimit="10" stroke-dasharray=""/><path fill="none" stroke="rgb(0,0,0)" class="dcg-svg-major-gridline" paint-order="fill stroke markers" d=" M 366.5 0 L 366.5 400" stroke-opacity="0.31818181818181823" stroke-miterlimit="10" stroke-dasharray=""/><path fill="none" stroke="rgb(0,0,0)" class="dcg-svg-major-gridline" paint-order="fill stroke markers" d=" M 499.5 0 L 499.5 400" stroke-opacity="0.31818181818181823" stroke-miterlimit="10" stroke-dasharray=""/><path fill="none" stroke="rgb(0,0,0)" class="dcg-svg-major-gridline" paint-order="fill stroke markers" d=" M 0 299.5 L 600 299.5" stroke-opacity="0.31818181818181823" stroke-miterlimit="10" stroke-dasharray=""/><path fill="none" stroke="rgb(0,0,0)" class="dcg-svg-major-gridline" paint-order="fill stroke markers" d=" M 0 99.5 L 600 99.5" stroke-opacity="0.31818181818181823" stroke-miterlimit="10" stroke-dasharray=""/><path fill="none" stroke="rgb(0,0,0)" class="dcg-svg-major-gridline" paint-order="fill stroke markers" d=" M 0 -0.5 L 600 -0.5" stroke-opacity="0.31818181818181823" stroke-miterlimit="10" stroke-dasharray=""/></g></g><g id="axis-7967cd1e"><g id="yaxis-7967cd1e"><title>Y axis</title><path fill="none" stroke="rgb(0,0,0)" class="dcg-svg-axis-line" paint-order="fill stroke markers" d=" M 99.75 0 L 99.75 400" stroke-opacity="0.9" stroke-miterlimit="10" stroke-width="1.5" stroke-dasharray=""/></g><g id="xaxis-7967cd1e"><title>X axis</title><path fill="none" stroke="rgb(0,0,0)" class="dcg-svg-axis-line" paint-order="fill stroke markers" d=" M 0 199.75 L 600 199.75" stroke-opacity="0.9" stroke-miterlimit="10" stroke-width="1.5" stroke-dasharray=""/></g><g><g class="dcg-svg-axis-value"><text fill="none" stroke="#ffffff" font-family="Arial" font-size="14px" font-style="normal" font-weight="normal" text-decoration="normal" x="91.10693359375" y="215.808" text-anchor="middle" stroke-miterlimit="2" stroke-width="3" stroke-dasharray="">0</text><text fill="#000000" stroke="none" font-family="Arial" font-size="14px" font-style="normal" font-weight="normal" text-decoration="normal" x="91.10693359375" y="215.808" text-anchor="middle">0</text></g><g class="dcg-svg-axis-value"><text fill="none" stroke="#ffffff" font-family="Arial" font-size="14px" font-style="normal" font-weight="normal" text-decoration="normal" x="233.33333333333334" y="215.808" text-anchor="middle" stroke-miterlimit="2" stroke-width="3" stroke-dasharray="">2</text><text fill="#000000" stroke="none" font-family="Arial" font-size="14px" font-style="normal" font-weight="normal" text-decoration="normal" x="233.33333333333334" y="215.808" text-anchor="middle">2</text></g><g class="dcg-svg-axis-value"><text fill="none" stroke="#ffffff" font-family="Arial" font-size="14px" font-style="normal" font-weight="normal" text-decoration="normal" x="366.6666666666667" y="215.808" text-anchor="middle" stroke-miterlimit="2" stroke-width="3" stroke-dasharray="">4</text><text fill="#000000" stroke="none" font-family="Arial" font-size="14px" font-style="normal" font-weight="normal" text-decoration="normal" x="366.6666666666667" y="215.808" text-anchor="middle">4</text></g><g class="dcg-svg-axis-value"><text fill="none" stroke="#ffffff" font-family="Arial" font-size="14px" font-style="normal" font-weight="normal" text-decoration="normal" x="500" y="215.808" text-anchor="middle" stroke-miterlimit="2" stroke-width="3" stroke-dasharray="">6</text><text fill="#000000" stroke="none" font-family="Arial" font-size="14px" font-style="normal" font-weight="normal" text-decoration="normal" x="500" y="215.808" text-anchor="middle">6</text></g><g class="dcg-svg-axis-value dcg-svg-offcenter-axis-value"><text fill="none" stroke="#ffffff" font-family="Arial" font-size="14px" font-style="normal" font-weight="normal" text-decoration="normal" x="88.77587890625" y="393.808" text-anchor="middle" stroke-miterlimit="2" stroke-width="3" stroke-dasharray="">-4</text><text fill="#000000" stroke="none" font-family="Arial" font-size="14px" font-style="normal" font-weight="normal" text-decoration="normal" x="88.77587890625" y="393.808" text-anchor="middle">-4</text></g><g class="dcg-svg-axis-value"><text fill="none" stroke="#ffffff" font-family="Arial" font-size="14px" font-style="normal" font-weight="normal" text-decoration="normal" x="88.77587890625" y="303.808" text-anchor="middle" stroke-miterlimit="2" stroke-width="3" stroke-dasharray="">-2</text><text fill="#000000" stroke="none" font-family="Arial" font-size="14px" font-style="normal" font-weight="normal" text-decoration="normal" x="88.77587890625" y="303.808" text-anchor="middle">-2</text></g><g class="dcg-svg-axis-value"><text fill="none" stroke="#ffffff" font-family="Arial" font-size="14px" font-style="normal" font-weight="normal" text-decoration="normal" x="91.10693359375" y="103.808" text-anchor="middle" stroke-miterlimit="2" stroke-width="3" stroke-dasharray="">2</text><text fill="#000000" stroke="none" font-family="Arial" font-size="14px" font-style="normal" font-weight="normal" text-decoration="normal" x="91.10693359375" y="103.808" text-anchor="middle">2</text></g><g class="dcg-svg-axis-value dcg-svg-offcenter-axis-value"><text fill="none" stroke="#ffffff" font-family="Arial" font-size="14px" font-style="normal" font-weight="normal" text-decoration="normal" x="91.10693359375" y="13.808" text-anchor="middle" stroke-miterlimit="2" stroke-width="3" stroke-dasharray="">4</text><text fill="#000000" stroke="none" font-family="Arial" font-size="14px" font-style="normal" font-weight="normal" text-decoration="normal" x="91.10693359375" y="13.808" text-anchor="middle">4</text></g></g></g></g><g id="expressions-7967cd1e"><g id="sketch-7967cd1e"><title>Expression 1</title><path fill="#2d70b3" stroke="none" paint-order="stroke fill markers" d="" fill-opacity="0.4"/><g><path fill="none" stroke="#2d70b3" class="dcg-svg-curve" paint-order="fill stroke markers" d=" M 99.5 179.07354924039484 L 99.5 179.07354924039484 L 109.46024272860431 172.70364338390428 L 116.49100230173677 168.63434700929858 L 122.34996861268048 165.64584823252673 L 127.47656413475623 163.40206986782036 L 132.0172630257376 161.7472573812555 L 136.2650136011718 160.51172112666342 L 140.2198158610588 159.65409829005606 L 144.02814396317223 159.1110564918806 L 147.68999790751204 158.86287715813683 L 151.20537769407827 158.8866338851364 L 154.7207574806445 159.17440336319694 L 158.23613726721075 159.73193348706056 L 161.75151705377695 160.5634610121921 L 165.41337099811676 161.72389785004688 L 169.22169910023018 163.2505991779762 L 173.1765013601172 165.18046999899812 L 177.4242519355514 167.6405770580203 L 181.96495082653277 170.70599041717676 L 186.50564971751413 174.20909504672045 L 191.1928227662691 178.26645547478938 L 196.02646997279766 182.89598690777018 L 201.15306549487343 188.26699543836634 L 206.57260933249634 194.41539149064602 L 212.43157564344006 201.54250662034636 L 219.02291274325174 210.0602784126322 L 226.93251726302577 220.80991809065173 L 238.94339820046036 237.72724159615126 L 252.27254655785728 256.3682110442944 L 259.74272860431057 266.29487478669785 L 266.04111738857506 274.16100585657045 L 271.6071353839715 280.61590623943056 L 276.5872567482737 285.9205588234847 L 281.2744297970287 290.45030006563417 L 285.6686545302365 294.24547228482527 L 289.91640510567066 297.46281562392977 L 294.0176815233313 300.1181949506386 L 297.82600962544467 302.1637866435175 L 301.3413894120109 303.6757207204754 L 304.5638208830299 304.73208973505945 L 307.6397781962754 305.4371962291433 L 310.56926135174723 305.8263379400822 L 313.3522703494455 305.93549139918645 L 316.1352793471438 305.7864034263257 L 318.91828834484204 305.3753977836467 L 321.7012973425403 304.69944517214253 L 324.63078049801214 303.69909260997247 L 327.7067378112576 302.32782701675995 L 330.9291692822767 300.5373656576986 L 334.44454906884295 298.17092830971575 L 337.95992885540915 295.3747627255395 L 341.6217827997489 292.00867942168725 L 345.2836367440887 288.1856953536536 L 349.09196484620213 283.7337255107415 L 353.0467671060892 278.60896491015416 L 357.1480435237497 272.7713166718958 L 361.39579409918395 266.1857716523815 L 365.93649299016533 258.5693153775294 L 370.77014019669383 249.8480790150621 L 375.89673571876966 239.96321521644734 L 381.4627537141662 228.56916763182087 L 387.7611424984307 214.96395770826703 L 395.0848503871103 198.3910183343441 L 404.75214480016746 175.70763071541344 L 424.6726302573761 128.7833512798212 L 431.8498639882821 112.7666609937063 L 437.8553044569994 100.08588314881217 L 443.1283741368488 89.64336955311035 L 447.81554718560375 81.00474841070513 L 452.2097719188115 73.53178630992011 L 456.1645741786985 67.37916736238753 L 459.9729022808119 62.012260634222116 L 463.4882820673782 57.57885585132561 L 466.8571876961708 53.82785707606615 L 470.07961916718983 50.7194910776513 L 473.1555764804353 48.20961062929962 L 476.0850596359071 46.25074034814094 L 479.014542791379 44.72744021989877 L 481.6510776313037 43.740087597803324 L 483.99466415568116 43.175352295676646 L 486.19177652228507 42.919077005885526 L 488.38888888888897 42.9320072049631 L 490.5860012554928 43.218582908865926 L 492.78311362209666 43.782932713003845 L 495.1267001464742 44.69535997859333 L 497.6167608286253 46.02055212815941 L 500.2532956685499 47.82808998390743 L 502.88983050847463 50.0561426316346 L 505.67283950617286 52.86851814117 L 508.45584850387115 56.15753130079116 L 511.23885750156944 59.925964742264796 L 514.1683406570412 64.41265996501636 L 517.2442979702868 69.6986054499547 L 520.4667294413058 75.86754520339355 L 523.8356350700984 83.00524068257573 L 527.204540698891 90.84206866817789 L 530.7199204854572 99.75770461683823 L 534.5282485875706 110.25517151836283 L 538.4830508474577 122.06253332076687 L 542.5843272651183 135.25858986218606 L 546.8320778405525 149.91572638450447 L 551.3727767315338 166.65442509191382 L 556.2064239380624 185.62977825703862 L 561.3330194601382 206.9786425366258 L 566.1666666666667 228.17535054032226" stroke-linecap="round" stroke-linejoin="round" stroke-miterlimit="10" stroke-width="2.5" stroke-opacity="0.9" stroke-dasharray=""/></g></g><g id="sketch-7967cd1e"><title>Expression 2</title><path fill="#388c46" stroke="none" paint-order="stroke fill markers" d="" fill-opacity="0.4"/><path fill="#388c46" stroke="none" paint-order="stroke fill markers" d="" fill-opacity="0.4"/><path fill="#388c46" stroke="none" class="dcg-svg-region" paint-order="stroke fill markers" d=" M 99.5 199.5 L 210.79037034673212 199.5 L 210.79037034673212 199.5 L 206.62890625000003 194.4816109961295 L 201.20898437500003 188.3280514756384 L 196.08203125 182.95172004571785 L 191.248046875 178.31684481830712 L 186.560546875 174.2540606756392 L 182.01953125 170.7455293066928 L 177.478515625 167.6745725163144 L 173.23046875 165.20922063498364 L 169.275390625 163.27445393949057 L 165.466796875 161.7430591763182 L 161.8046875 160.57815731769088 L 158.2890625 159.74241220245727 L 154.7734375 159.18075484480622 L 151.2578125 158.88897045636475 L 147.7421875 158.86133237615468 L 144.080078125 159.10563265421192 L 140.271484375 159.6448411285146 L 136.31640625 160.4987248087203 L 132.068359375 161.73054681024252 L 127.52734375 163.38176567019724 L 122.40039062500001 165.62199266820969 L 116.54101562500001 168.60713799551584 L 109.50976562500001 172.67346836960894 L 99.5 179.07354924039484 M 394.6036633592348 199.5 L 559.5699039289872 199.5 L 559.5699039289872 199.49999999999974 L 556.7265625 187.7398687589772 L 551.892578125 168.6389126777852 L 547.3515625 151.77558302497255 L 542.95703125 136.5048239761707 L 538.85546875 123.22121792573677 L 534.900390625 111.32718716958402 L 531.091796875 100.74454920038357 L 527.4296875 91.39058065178801 L 523.9140625 83.17975397939415 L 520.544921875 76.02524808118983 L 517.322265625 69.84024402075477 L 514.24609375 64.53901956473658 L 511.31640625000006 60.03785800718151 L 508.53320312500006 56.25578784042477 L 505.75000000000006 52.9532685474378 L 502.96679687500006 50.12754334628863 L 500.33007812500006 47.887010689695046 L 497.69335937500006 46.0671764611692 L 495.20312500000006 44.730557741114126 L 492.85937500000006 43.80755660905987 L 490.66210937500006 43.233464743769275 L 488.46484375000006 42.937323079287694 L 486.26757812500006 42.91501308664493 L 484.07031250000006 43.162104435264894 L 481.72656250000006 43.71726987211264 L 479.08984375000006 44.6941487939506 L 476.16015625000006 46.20619159962877 L 473.23046875000006 48.154222747658025 L 470.15429687500006 50.65319118029822 L 466.93164062500006 53.750660730449226 L 463.56250000000006 57.49087389096036 L 460.04687500000006 61.91370562133841 L 456.23828125000006 67.26996581925533 L 452.28320312500006 73.4124394491655 L 448.03515625000006 80.61631271411562 L 443.34765625000006 89.22500028789324 L 438.22070312500006 99.33985262843112 L 432.36132812500006 111.65812054144163 L 425.33007812500006 127.28454654404823 L 403.94335937500006 177.6266756138165 L 394.6036633592348 199.49999999999986" fill-opacity="0.4"/><g><path fill="none" stroke="#388c46" class="dcg-svg-curve" paint-order="fill stroke markers" d=" M 99.5 199.5 L 110.5 199.5 M 117.5 199.5 L 128.5 199.5 M 135.5 199.5 L 146.5 199.5 M 153.5 199.5 L 164.5 199.5 M 171.5 199.5 L 182.5 199.5 M 189.5 199.5 L 200.5 199.5 M 207.5 199.5 L 210.79037034673212 199.5" stroke-linecap="round" stroke-linejoin="round" stroke-miterlimit="10" stroke-width="2.5" stroke-opacity="0.9" stroke-dasharray=""/></g><g><path fill="none" stroke="#388c46" class="dcg-svg-curve" paint-order="fill stroke markers" d=" M 394.6036633592348 199.5 L 405.6036633592348 199.5 M 412.6036633592348 199.5 L 423.6036633592348 199.5 M 430.6036633592348 199.5 L 441.6036633592348 199.5 M 448.6036633592348 199.5 L 459.6036633592348 199.5 M 466.6036633592348 199.5 L 477.6036633592348 199.5 M 484.6036633592348 199.5 L 495.6036633592348 199.5 M 502.6036633592348 199.5 L 513.6036633592348 199.5 M 520.6036633592348 199.5 L 531.6036633592348 199.5 M 538.6036633592348 199.5 L 549.6036633592348 199.5 M 556.6036633592348 199.5 L 559.5699039289872 199.5" stroke-linecap="round" stroke-linejoin="round" stroke-miterlimit="10" stroke-width="2.5" stroke-opacity="0.9" stroke-dasharray=""/></g><g><path fill="none" stroke="#388c46" class="dcg-svg-curve" paint-order="fill stroke markers" d=" M 99.5 179.07354924039484 L 108.76757780641258 173.1480111549473 M 114.80680618779634 169.61007040576155 L 116.54101562500001 168.60713799551584 M 116.54101562500001 168.60713799551584 L 122.40039062500001 165.62199266820969 M 122.40039062500001 165.62199266820969 L 124.61857496984508 164.6527549290036 M 131.1227015719154 162.07440997400704 L 132.068359375 161.73054681024252 M 132.068359375 161.73054681024252 L 136.31640625 160.4987248087203 M 136.31640625 160.4987248087203 L 140.271484375 159.6448411285146 M 140.271484375 159.6448411285146 L 141.78095197454414 159.4311355524448 M 148.74985370656276 158.86925414239596 L 151.2578125 158.88897045636475 M 151.2578125 158.88897045636475 L 154.7734375 159.18075484480622 M 154.7734375 159.18075484480622 L 158.2890625 159.74241220245727 M 158.2890625 159.74241220245727 L 159.65503907211587 160.0671363262388 M 166.34591660963193 162.09654380770397 L 169.275390625 163.27445393949057 M 169.275390625 163.27445393949057 L 173.23046875 165.20922063498364 M 173.23046875 165.20922063498364 L 176.2054064533606 166.93572424467413 M 182.05600598563734 170.77371083362988 L 186.560546875 174.2540606756392 M 186.560546875 174.2540606756392 L 190.57130161855972 177.73029124038896 M 195.6543293726328 182.54163497254748 L 196.08203125 182.95172004571785 M 196.08203125 182.95172004571785 L 201.20898437500003 188.3280514756384 M 201.20898437500003 188.3280514756384 L 203.17759681099616 190.56313420876012 M 207.7640478305245 195.85049989992027 L 210.79037034673212 199.5" stroke-linecap="round" stroke-linejoin="round" stroke-miterlimit="10" stroke-width="2.5" stroke-opacity="0.9" stroke-dasharray=""/></g><g><path fill="none" stroke="#388c46" class="dcg-svg-curve" paint-order="fill stroke markers" d=" M 394.6036633592348 199.49999999999986 L 398.9232579892437 189.3836220794001 M 401.672090935613 182.94592703901844 L 403.94335937500006 177.6266756138165 M 403.94335937500006 177.6266756138165 L 405.98290006048404 172.8258072977417 M 408.719942948178 166.38309077201097 L 413.0210103431257 156.25882194586268 M 415.7580532308196 149.81610542013195 L 420.05912062576726 139.69183659398362 M 422.7961635134612 133.2491200682529 L 425.33007812500006 127.28454654404823 M 425.33007812500006 127.28454654404823 L 427.18458115758466 123.16305258347326 M 430.0569159003404 116.779503952378 L 432.36132812500006 111.65812054144163 M 432.36132812500006 111.65812054144163 L 434.6740315423317 106.79608315724514 M 437.68086117201926 100.47477193424454 L 438.22070312500006 99.33985262843112 M 438.22070312500006 99.33985262843112 L 442.6257319811184 90.64926869892702 M 445.93153622412484 84.47965299714535 L 448.03515625000006 80.61631271411562 M 448.03515625000006 80.61631271411562 L 451.38817007854084 74.93024394246792 M 455.1188834076959 69.00845783140285 L 456.23828125000006 67.26996581925533 M 456.23828125000006 67.26996581925533 L 460.04687500000006 61.91370562133841 M 460.04687500000006 61.91370562133841 L 461.5153884655622 60.06624238166531 M 466.04565232774627 54.73423056569394 L 466.93164062500006 53.750660730449226 M 466.93164062500006 53.750660730449226 L 470.15429687500006 50.65319118029822 M 470.15429687500006 50.65319118029822 L 473.23046875000006 48.154222747658025 M 473.23046875000006 48.154222747658025 L 474.26558018541704 47.4659482071572 M 480.4288591091962 44.198056489674315 L 481.72656250000006 43.71726987211264 M 481.72656250000006 43.71726987211264 L 484.07031250000006 43.162104435264894 M 484.07031250000006 43.162104435264894 L 486.26757812500006 42.91501308664493 M 486.26757812500006 42.91501308664493 L 488.46484375000006 42.937323079287694 M 488.46484375000006 42.937323079287694 L 490.66210937500006 43.233464743769275 M 490.66210937500006 43.233464743769275 L 491.2250768828542 43.380554409672534 M 497.6630673085474 46.05091737186568 L 497.69335937500006 46.0671764611692 M 497.69335937500006 46.0671764611692 L 500.33007812500006 47.887010689695046 M 500.33007812500006 47.887010689695046 L 502.96679687500006 50.12754334628863 M 502.96679687500006 50.12754334628863 L 505.75000000000006 52.9532685474378 M 505.75000000000006 52.9532685474378 L 505.9662285033209 53.209842994878066 M 510.32117926226965 58.68545283573129 L 511.31640625000006 60.03785800718151 M 511.31640625000006 60.03785800718151 L 514.24609375 64.53901956473658 M 514.24609375 64.53901956473658 L 516.2287123150262 67.95570317376689 M 519.5500312408054 74.11582860395501 L 520.544921875 76.02524808118983 M 520.544921875 76.02524808118983 L 523.9140625 83.17975397939415 M 523.9140625 83.17975397939415 L 524.2835940472884 84.04280378839434 M 527.038843559186 90.4777552355451 L 527.4296875 91.39058065178801 M 527.4296875 91.39058065178801 L 531.077846598617 100.70891660911755 M 533.4492382792256 107.29498501794036 L 534.900390625 111.32718716958402 M 534.900390625 111.32718716958402 L 537.0191109385645 117.69877422217134 M 539.203669697786 124.34892577287474 L 542.4489478475726 134.85930967311918 M 544.4166198984115 141.57681579788257 L 547.3515625 151.77558302497255 M 547.3515625 151.77558302497255 L 547.452276685364 152.14959109910436 M 549.2724230261529 158.90881200821164 L 551.892578125 168.6389126777852 M 551.892578125 168.6389126777852 L 552.1190989385888 169.5339846879909 M 553.836484178136 176.3200430386821 L 556.5352324117102 186.9838490183396 M 558.1883385983257 193.78581124975398 L 559.5699039289872 199.49999999999974" stroke-linecap="round" stroke-linejoin="round" stroke-miterlimit="10" stroke-width="2.5" stroke-opacity="0.9" stroke-dasharray=""/></g></g><g id="sketch-7967cd1e"><title>Expression 3</title><path fill="#6042a6" stroke="none" paint-order="stroke fill markers" d="" fill-opacity="0.4"/><path fill="#6042a6" stroke="none" paint-order="stroke fill markers" d="" fill-opacity="0.4"/><path fill="#6042a6" stroke="none" class="dcg-svg-region" paint-order="stroke fill markers" d=" M 210.79037034673217 199.50000000000003 L 217.17578125000003 207.62646519341823 L 224.64648437500003 217.65597739781109 L 234.75390625000003 231.78846050790466 L 253.06445312500003 257.4450369180762 L 260.388671875 267.1254548009537 L 266.541015625 274.76128121480804 L 271.9609375 281.0082486415229 L 276.94140625 286.27914397514843 L 281.62890625 290.7731991772953 L 286.0234375 294.53164045191215 L 290.125 297.6088057377521 L 294.2265625 300.24107641166916 L 298.03515625 302.264000618715 L 301.55078125 303.7540584615466 L 304.7734375 304.78963895605347 L 307.849609375 305.4743054850916 L 310.779296875 305.8434925459976 L 313.5625 305.9332961159805 L 316.345703125 305.76452225697653 L 319.12890625 305.33354230877364 L 321.912109375 304.63737591447557 L 324.841796875 303.61554217172943 L 327.91796875 302.2215612143709 L 331.287109375 300.3161186739174 L 334.802734375 297.9056460584339 L 338.318359375 295.0656349482151 L 341.98046875 291.6542832333349 L 345.642578125 287.7866539145941 L 349.451171875 283.28914479642583 L 353.40625 278.1183113742218 L 357.5078125 272.23447894292747 L 361.755859375 265.603125723086 L 366.296875 257.94034467793483 L 371.130859375 249.17322170160352 L 376.2578125 239.2440469403223 L 381.82421875 227.80755913907174 L 388.123046875 214.1622066491124 L 394.6036633592347 199.50000000000014 L 394.6036633592347 199.5 L 210.79037034673217 199.5 M 559.5699039289872 199.50000000000026 L 564.9296875 222.6572271430337 L 570.7890625 249.33071929193414 L 577.234375 280.1094843514057 L 584.412109375 315.8609369723842 L 593.201171875 361.22036530130384 L 599.5 394.41399612854 L 599.5 199.5 L 559.5699039289872 199.5" fill-opacity="0.4"/><g><path fill="none" stroke="#6042a6" class="dcg-svg-curve" paint-order="fill stroke markers" d=" M 210.79037034673217 199.50000000000003 L 217.17578125000003 207.62646519341823 M 217.17578125000003 207.62646519341823 L 217.57300905500566 208.1597484803549 M 221.75456243392173 213.77353609116415 L 224.64648437500003 217.65597739781109 M 224.64648437500003 217.65597739781109 L 228.2292550795321 222.66550871997504 M 232.30133400734644 228.35920463788725 L 234.75390625000003 231.78846050790466 M 234.75390625000003 231.78846050790466 L 238.69478833564557 237.31038964765574 M 242.76116442188624 243.00815987163372 L 249.15118398597872 251.96179879502768 M 253.22347788478498 257.6552198988129 L 259.8604812648163 266.4273454185175 M 264.2312860764634 271.8946185879716 L 266.541015625 274.76128121480804 M 266.541015625 274.76128121480804 L 271.3371716899712 280.2893001424455 M 276.1148150989492 285.4043517297619 L 276.94140625 286.27914397514843 M 276.94140625 286.27914397514843 L 281.62890625 290.7731991772953 M 281.62890625 290.7731991772953 L 284.13882625016106 292.9198187796913 M 289.6391253885295 297.24428209884917 L 290.125 297.6088057377521 M 290.125 297.6088057377521 L 294.2265625 300.24107641166916 M 294.2265625 300.24107641166916 L 298.03515625 302.264000618715 M 298.03515625 302.264000618715 L 299.1460212296363 302.7348281601149 M 305.7526793090255 305.00758974609977 L 307.849609375 305.4743054850916 M 307.849609375 305.4743054850916 L 310.779296875 305.8434925459976 M 310.779296875 305.8434925459976 L 313.5625 305.9332961159805 M 313.5625 305.9332961159805 L 316.345703125 305.76452225697653 M 316.345703125 305.76452225697653 L 316.66779851016133 305.7146456773024 M 323.4611995238808 304.09707508557074 L 324.841796875 303.61554217172943 M 324.841796875 303.61554217172943 L 327.91796875 302.2215612143709 M 327.91796875 302.2215612143709 L 331.287109375 300.3161186739174 M 331.287109375 300.3161186739174 L 333.1757339957054 299.02119161851806 M 338.6899673892369 294.71947225703923 L 341.98046875 291.6542832333349 M 341.98046875 291.6542832333349 L 345.642578125 287.7866539145941 M 345.642578125 287.7866539145941 L 346.40301678622046 286.8886637278889 M 350.83833045674373 281.47558619412195 L 353.40625 278.1183113742218 M 353.40625 278.1183113742218 L 357.2795896030138 272.56187253569885 M 361.0684245711722 266.6762360568307 L 361.755859375 265.603125723086 M 361.755859375 265.603125723086 L 366.296875 257.94034467793483 M 366.296875 257.94034467793483 L 366.692005043196 257.22371975497106 M 370.07191197343286 251.09377447438848 L 371.130859375 249.17322170160352 M 371.130859375 249.17322170160352 L 375.17144038304446 241.34798242442807 M 378.2850139453288 235.0790500717987 L 381.82421875 227.80755913907174 M 381.82421875 227.80755913907174 L 383.0450652658996 225.16280034981855 M 385.9788461586314 218.80725712571555 L 388.123046875 214.1622066491124 M 388.123046875 214.1622066491124 L 390.5017259298977 208.7805143456612 M 393.3315914816164 202.37802569208313 L 394.6036633592347 199.50000000000014" stroke-linecap="round" stroke-linejoin="round" stroke-miterlimit="10" stroke-width="2.5" stroke-opacity="0.9" stroke-dasharray=""/></g><g><path fill="none" stroke="#6042a6" class="dcg-svg-curve" paint-order="fill stroke markers" d=" M 559.5699039289872 199.50000000000026 L 562.0503037496475 210.21669803296118 M 563.6287399991586 217.03641496302723 L 564.9296875 222.6572271430337 M 564.9296875 222.6572271430337 L 566.0519367280446 227.76601536248657 M 567.553819282147 234.60299925845146 L 569.9139204385934 245.34683109496768 M 571.3877817572519 252.18982648891426 L 573.6423640411394 262.95629567454705 M 575.0770982217953 269.80768515631337 L 577.234375 280.1094843514057 M 577.234375 280.1094843514057 L 577.3278244619022 280.57494515492755 M 578.7057026838401 287.43799488558733 L 580.8709398897425 298.22278731948126 M 582.2488181116805 305.08583705014104 L 584.412109375 315.8609369723842 M 584.412109375 315.8609369723842 L 584.413989941841 315.87064238030933 M 585.7455770697807 322.7428236730799 L 587.8380711279716 333.54196570457646 M 589.1696582559113 340.414146997347 L 591.2621523141022 351.2132890288436 M 592.5937394420419 358.0854703216141 L 593.201171875 361.22036530130384 M 593.201171875 361.22036530130384 L 594.6566181548377 368.8902914436063 M 595.9616505512785 375.767564918192 L 598.0124157456853 386.57470894968384 M 599.3174481421261 393.45198242426954 L 599.5 394.41399612854" stroke-linecap="round" stroke-linejoin="round" stroke-miterlimit="10" stroke-width="2.5" stroke-opacity="0.9" stroke-dasharray=""/></g><g><path fill="none" stroke="#6042a6" class="dcg-svg-curve" paint-order="fill stroke markers" d=" M 210.79037034673217 199.5 L 221.79037034673217 199.5 M 228.79037034673217 199.5 L 239.79037034673217 199.5 M 246.79037034673217 199.5 L 257.7903703467322 199.5 M 264.7903703467322 199.5 L 275.7903703467322 199.5 M 282.7903703467322 199.5 L 293.7903703467322 199.5 M 300.7903703467322 199.5 L 311.7903703467322 199.5 M 318.7903703467322 199.5 L 329.7903703467322 199.5 M 336.7903703467322 199.5 L 347.7903703467322 199.5 M 354.7903703467322 199.5 L 365.7903703467322 199.5 M 372.7903703467322 199.5 L 383.7903703467322 199.5 M 390.7903703467322 199.5 L 394.6036633592347 199.5" stroke-linecap="round" stroke-linejoin="round" stroke-miterlimit="10" stroke-width="2.5" stroke-opacity="0.9" stroke-dasharray=""/></g><g><path fill="none" stroke="#6042a6" class="dcg-svg-curve" paint-order="fill stroke markers" d=" M 559.5699039289872 199.5 L 570.5699039289872 199.5 M 577.5699039289872 199.5 L 588.5699039289872 199.5 M 595.5699039289872 199.5 L 599.5 199.5" stroke-linecap="round" stroke-linejoin="round" stroke-miterlimit="10" stroke-width="2.5" stroke-opacity="0.9" stroke-dasharray=""/></g></g></g><g id="labels-7967cd1e"/></g></svg>