<svg version="1.1" xmlns="http://www.w3.org/2000/svg" xmlns:xlink="http://www.w3.org/1999/xlink" width="600" height="400"><defs/><g transform="scale(1,1)"><g id="background-2ca0a539"><rect fill="white" stroke="none" x="0" y="0" width="600" height="400" class="dcg-svg-background"/></g><g id="background-images-2ca0a539"/><g id="graphpaper-2ca0a539"><g id="grid-2ca0a539"><g><path fill="none" stroke="rgb(0,0,0)" class="dcg-svg-minor-gridline" paint-order="fill stroke markers" d=" M -0.5 0 L -0.5 400" stroke-opacity="0.12" stroke-miterlimit="10" stroke-dasharray=""/><path fill="none" stroke="rgb(0,0,0)" class="dcg-svg-minor-gridline" paint-order="fill stroke markers" d=" M 29.5 0 L 29.5 400" stroke-opacity="0.12" stroke-miterlimit="10" stroke-dasharray=""/><path fill="none" stroke="rgb(0,0,0)" class="dcg-svg-minor-gridline" paint-order="fill stroke markers" d=" M 59.5 0 L 59.5 400" stroke-opacity="0.12" stroke-miterlimit="10" stroke-dasharray=""/><path fill="none" stroke="rgb(0,0,0)" class="dcg-svg-minor-gridline" paint-order="fill stroke markers" d=" M 89.5 0 L 89.5 400" stroke-opacity="0.12" stroke-miterlimit="10" stroke-dasharray=""/><path fill="none" stroke="rgb(0,0,0)" class="dcg-svg-minor-gridline" paint-order="fill stroke markers" d=" M 119.5 0 L 119.5 400" stroke-opacity="0.12" stroke-miterlimit="10" stroke-dasharray=""/><path fill="none" stroke="rgb(0,0,0)" class="dcg-svg-minor-gridline" paint-order="fill stroke markers" d=" M 149.5 0 L 149.5 400" stroke-opacity="0.12" stroke-miterlimit="10" stroke-dasharray=""/><path fill="none" stroke="rgb(0,0,0)" class="dcg-svg-minor-gridline" paint-order="fill stroke markers" d=" M 179.5 0 L 179.5 400" stroke-opacity="0.12" stroke-miterlimit="10" stroke-dasharray=""/><path fill="none" stroke="rgb(0,0,0)" class="dcg-svg-minor-gridline" paint-order="fill stroke markers" d=" M 209.5 0 L 209.5 400" stroke-opacity="0.12" stroke-miterlimit="10" stroke-dasharray=""/><path fill="none" stroke="rgb(0,0,0)" class="dcg-svg-minor-gridline" paint-order="fill stroke markers" d=" M 239.5 0 L 239.5 400" stroke-opacity="0.12" stroke-miterlimit="10" stroke-dasharray=""/><path fill="none" stroke="rgb(0,0,0)" class="dcg-svg-minor-gridline" paint-order="fill stroke markers" d=" M 269.5 0 L 269.5 400" stroke-opacity="0.12" stroke-miterlimit="10" stroke-dasharray=""/><path fill="none" stroke="rgb(0,0,0)" class="dcg-svg-minor-gridline" paint-order="fill stroke markers" d=" M 329.5 0 L 329.5 400" stroke-opacity="0.12" stroke-miterlimit="10" stroke-dasharray=""/><path fill="none" stroke="rgb(0,0,0)" class="dcg-svg-minor-gridline" paint-order="fill stroke markers" d=" M 359.5 0 L 359.5 400" stroke-opacity="0.12" stroke-miterlimit="10" stroke-dasharray=""/><path fill="none" stroke="rgb(0,0,0)" class="dcg-svg-minor-gridline" paint-order="fill stroke markers" d=" M 389.5 0 L 389.5 400" stroke-opacity="0.12" stroke-miterlimit="10" stroke-dasharray=""/><path fill="none" stroke="rgb(0,0,0)" class="dcg-svg-minor-gridline" paint-order="fill stroke markers" d=" M 419.5 0 L 419.5 400" stroke-opacity="0.12" stroke-miterlimit="10" stroke-dasharray=""/><path fill="none" stroke="rgb(0,0,0)" class="dcg-svg-minor-gridline" paint-order="fill stroke markers" d=" M 449.5 0 L 449.5 400" stroke-opacity="0.12" stroke-miterlimit="10" stroke-dasharray=""/><path fill="none" stroke="rgb(0,0,0)" class="dcg-svg-minor-gridline" paint-order="fill stroke markers" d=" M 479.5 0 L 479.5 400" stroke-opacity="0.12" stroke-miterlimit="10" stroke-dasharray=""/><path fill="none" stroke="rgb(0,0,0)" class="dcg-svg-minor-gridline" paint-order="fill stroke markers" d=" M 509.5 0 L 509.5 400" stroke-opacity="0.12" stroke-miterlimit="10" stroke-dasharray=""/><path fill="none" stroke="rgb(0,0,0)" class="dcg-svg-minor-gridline" paint-order="fill stroke markers" d=" M 539.5 0 L 539.5 400" stroke-opacity="0.12" stroke-miterlimit="10" stroke-dasharray=""/><path fill="none" stroke="rgb(0,0,0)" class="dcg-svg-minor-gridline" paint-order="fill stroke markers" d=" M 569.5 0 L 569.5 400" stroke-opacity="0.12" stroke-miterlimit="10" stroke-dasharray=""/><path fill="none" stroke="rgb(0,0,0)" class="dcg-svg-minor-gridline" paint-order="fill stroke markers" d=" M 0 370.5 L 600 370.5" stroke-opacity="0.12" stroke-miterlimit="10" stroke-dasharray=""/><path fill="none" stroke="rgb(0,0,0)" class="dcg-svg-minor-gridline" paint-order="fill stroke markers" d=" M 0 342.5 L 600 342.5" stroke-opacity="0.12" stroke-miterlimit="10" stroke-dasharray=""/><path fill="none" stroke="rgb(0,0,0)" class="dcg-svg-minor-gridline" paint-order="fill stroke markers" d=" M 0 313.5 L 600 313.5" stroke-opacity="0.12" stroke-miterlimit="10" stroke-dasharray=""/><path fill="none" stroke="rgb(0,0,0)" class="dcg-svg-minor-gridline" paint-order="fill stroke markers" d=" M 0 285.5 L 600 285.5" stroke-opacity="0.12" stroke-miterlimit="10" stroke-dasharray=""/><path fill="none" stroke="rgb(0,0,0)" class="dcg-svg-minor-gridline" paint-order="fill stroke markers" d=" M 0 256.5 L 600 256.5" stroke-opacity="0.12" stroke-miterlimit="10" stroke-dasharray=""/><path fill="none" stroke="rgb(0,0,0)" class="dcg-svg-minor-gridline" paint-order="fill stroke markers" d=" M 0 228.5 L 600 228.5" stroke-opacity="0.12" stroke-miterlimit="10" stroke-dasharray=""/><path fill="none" stroke="rgb(0,0,0)" class="dcg-svg-minor-gridline" paint-order="fill stroke markers" d=" M 0 170.5 L 600 170.5" stroke-opacity="0.12" stroke-miterlimit="10" stroke-dasharray=""/><path fill="none" stroke="rgb(0,0,0)" class="dcg-svg-minor-gridline" paint-order="fill stroke markers" d=" M 0 142.5 L 600 142.5" stroke-opacity="0.12" stroke-miterlimit="10" stroke-dasharray=""/><path fill="none" stroke="rgb(0,0,0)" class="dcg-svg-minor-gridline" paint-order="fill stroke markers" d=" M 0 113.5 L 600 113.5" stroke-opacity="0.12" stroke-miterlimit="10" stroke-dasharray=""/><path fill="none" stroke="rgb(0,0,0)" class="dcg-svg-minor-gridline" paint-order="fill stroke markers" d=" M 0 85.5 L 600 85.5" stroke-opacity="0.12" stroke-miterlimit="10" stroke-dasharray=""/><path fill="none" stroke="rgb(0,0,0)" class="dcg-svg-minor-gridline" paint-order="fill stroke markers" d=" M 0 56.5 L 600 56.5" stroke-opacity="0.12" stroke-miterlimit="10" stroke-dasharray=""/><path fill="none" stroke="rgb(0,0,0)" class="dcg-svg-minor-gridline" paint-order="fill stroke markers" d=" M 0 28.5 L 600 28.5" stroke-opacity="0.12" stroke-miterlimit="10" stroke-dasharray=""/><path fill="none" stroke="rgb(0,0,0)" class="dcg-svg-minor-gridline" paint-order="fill stroke markers" d=" M 0 -0.5 L 600 -0.5" stroke-opacity="0.12" stroke-miterlimit="10" stroke-dasharray=""/><path fill="none" stroke="rgb(0,0,0)" class="dcg-svg-major-gridline" paint-order="fill stroke markers" d=" M -0.5 0 L -0.5 400" stroke-opacity="0.31818181818181823" stroke-miterlimit="10" stroke-dasharray=""/><path fill="none" stroke="rgb(0,0,0)" class="dcg-svg-major-gridline" paint-order="fill stroke markers" d=" M 149.5 0 L 149.5 400" stroke-opacity="0.31818181818181823" stroke-miterlimit="10" stroke-dasharray=""/><path fill="none" stroke="rgb(0,0,0)" class="dcg-svg-major-gridline" paint-order="fill stroke markers" d=" M 449.5 0 L 449.5 400" stroke-opacity="0.31818181818181823" stroke-miterlimit="10" stroke-dasharray=""/><path fill="none" stroke="rgb(0,0,0)" class="dcg-svg-major-gridline" paint-order="fill stroke markers" d=" M 0 342.5 L 600 342.5" stroke-opacity="0.31818181818181823" stroke-miterlimit="10" stroke-dasharray=""/><path fill="none" stroke="rgb(0,0,0)" class="dcg-svg-major-gridline" paint-order="fill stroke markers" d=" M 0 56.5 L 600 56.5" stroke-opacity="0.31818181818181823" stroke-miterlimit="10" stroke-dasharray=""/></g></g><g id="axis-2ca0a539"><g id="yaxis-2ca0a539"><title>Y axis</title><path fill="none" stroke="rgb(0,0,0)" class="dcg-svg-axis-line" paint-order="fill stroke markers" d=" M 299.75 0 L 299.75 400" stroke-opacity="0.9" stroke-miterlimit="10" stroke-width="1.5" stroke-dasharray=""/></g><g id="xaxis-2ca0a539"><title>X axis</title><path fill="none" stroke="rgb(0,0,0)" class="dcg-svg-axis-line" paint-order="fill stroke markers" d=" M 0 199.75 L 600 199.75" stroke-opacity="0.9" stroke-miterlimit="10" stroke-width="1.5" stroke-dasharray=""/></g><g><g class="dcg-svg-axis-value"><text fill="none" stroke="#ffffff" font-family="Arial" font-size="14px" font-style="normal" font-weight="normal" text-decoration="normal" x="291.10693359375" y="215.808" text-anchor="middle" stroke-miterlimit="2" stroke-width="3" stroke-dasharray="">0</text><text fill="#000000" stroke="none" font-family="Arial" font-size="14px" font-style="normal" font-weight="normal" text-decoration="normal" x="291.10693359375" y="215.808" text-anchor="middle">0</text></g><g class="dcg-svg-axis-value dcg-svg-offcenter-axis-value"><text fill="none" stroke="#ffffff" font-family="Arial" font-size="14px" font-style="normal" font-weight="normal" text-decoration="normal" x="13.1171875" y="215.808" text-anchor="middle" stroke-miterlimit="2" stroke-width="3" stroke-dasharray="">-10</text><text fill="#000000" stroke="none" font-family="Arial" font-size="14px" font-style="normal" font-weight="normal" text-decoration="normal" x="13.1171875" y="215.808" text-anchor="middle">-10</text></g><g class="dcg-svg-axis-value"><text fill="none" stroke="#ffffff" font-family="Arial" font-size="14px" font-style="normal" font-weight="normal" text-decoration="normal" x="147.6689453125" y="215.808" text-anchor="middle" stroke-miterlimit="2" stroke-width="3" stroke-dasharray="">-5</text><text fill="#000000" stroke="none" font-family="Arial" font-size="14px" font-style="normal" font-weight="normal" text-decoration="normal" x="147.6689453125" y="215.808" text-anchor="middle">-5</text></g><g class="dcg-svg-axis-value"><text fill="none" stroke="#ffffff" font-family="Arial" font-size="14px" font-style="normal" font-weight="normal" text-decoration="normal" x="450" y="215.808" text-anchor="middle" stroke-miterlimit="2" stroke-width="3" stroke-dasharray="">5</text><text fill="#000000" stroke="none" font-family="Arial" font-size="14px" font-style="normal" font-weight="normal" text-decoration="normal" x="450" y="215.808" text-anchor="middle">5</text></g><g class="dcg-svg-axis-value dcg-svg-offcenter-axis-value"><text fill="none" stroke="#ffffff" font-family="Arial" font-size="14px" font-style="normal" font-weight="normal" text-decoration="normal" x="589.2138671875" y="215.808" text-anchor="middle" stroke-miterlimit="2" stroke-width="3" stroke-dasharray="">10</text><text fill="#000000" stroke="none" font-family="Arial" font-size="14px" font-style="normal" font-weight="normal" text-decoration="normal" x="589.2138671875" y="215.808" text-anchor="middle">10</text></g><g class="dcg-svg-axis-value"><text fill="none" stroke="#ffffff" font-family="Arial" font-size="14px" font-style="normal" font-weight="normal" text-decoration="normal" x="288.77587890625" y="346.6651428571428" text-anchor="middle" stroke-miterlimit="2" stroke-width="3" stroke-dasharray="">-5</text><text fill="#000000" stroke="none" font-family="Arial" font-size="14px" font-style="normal" font-weight="normal" text-decoration="normal" x="288.77587890625" y="346.6651428571428" text-anchor="middle">-5</text></g><g class="dcg-svg-axis-value"><text fill="none" stroke="#ffffff" font-family="Arial" font-size="14px" font-style="normal" font-weight="normal" text-decoration="normal" x="291.10693359375" y="60.95085714285717" text-anchor="middle" stroke-miterlimit="2" stroke-width="3" stroke-dasharray="">5</text><text fill="#000000" stroke="none" font-family="Arial" font-size="14px" font-style="normal" font-weight="normal" text-decoration="normal" x="291.10693359375" y="60.95085714285717" text-anchor="middle">5</text></g></g></g></g><g id="expressions-2ca0a539"><g id="sketch-2ca0a539"><title>Expression 1</title><path fill="#2d70b3" stroke="none" paint-order="stroke fill markers" d="" fill-opacity="0.4"/><g><path fill="none" stroke="#2d70b3" class="dcg-svg-curve" paint-order="fill stroke markers" d=" M -0.5 162.52796826030368 L -0.5 162.52796826030368 L 4.7734375 166.95990816515462 L 11.658203125 173.23909452879425 L 30.84765625 191.00338994490323 L 36.267578125 195.37074454789249 L 40.80859375 198.60174498662863 L 44.763671875 201.03563783786493 L 48.42578125 202.93469721937004 L 51.794921875 204.35559215437132 L 55.017578125 205.40503796176856 L 58.09375 206.11296250043188 L 61.0234375 206.51338207472548 L 63.88055098076552 206.64285714285714 L 66.736328125 206.51350307177856 L 69.666015625 206.11320644871515 L 72.595703125 205.4456950566918 L 75.671875 204.464212335018 L 78.89453125 203.1388300001441 L 82.263671875 201.44450376874647 L 85.92578125 199.26963889615425 L 90.02734375 196.4609598406304 L 94.71484375 192.83415143009572 L 100.28125 188.0679113693531 L 107.8984375 181.02424504099054 L 123.279296875 166.70455653424855 L 128.9921875 161.94841931715214 L 133.6796875 158.4742483410306 L 137.78125 155.82340894347539 L 141.58984375 153.73276376966587 L 145.10546875 152.1499748195774 L 148.328125 151.01099913941147 L 151.404296875 150.21466142775532 L 154.333984375 149.72822033728744 L 157.263671875 149.51186639582315 L 160.193359375 149.5676612760829 L 163.123046875 149.89507329936563 L 166.052734375 150.49098250200365 L 169.12890625 151.39940945373155 L 172.3515625 152.65141609238944 L 175.720703125 154.2733909066647 L 179.3828125 156.3757139922546 L 183.337890625 159.00784291122085 L 187.87890625 162.43486678189703 L 193.15234375 166.8576401563874 L 200.037109375 173.12963381315652 L 219.373046875 191.02871763568783 L 224.79296875 195.39334716349762 L 229.333984375 198.62149356403862 L 233.2890625 201.05253011717483 L 236.951171875 202.9486821975025 L 240.3203125 204.3667175168524 L 243.54296875 205.4132963719673 L 246.619140625 206.1183949818812 L 249.548828125 206.51606969324519 L 252.478515625 206.6426906847353 L 255.408203125 206.4970513638476 L 258.337890625 206.08053955191247 L 261.267578125 205.3971242593145 L 264.34375 204.39944323454696 L 267.56640625 203.05782383167198 L 271.08203125 201.2663407485805 L 274.890625 198.96739966143497 L 278.9921875 196.1166674149329 L 283.6796875 192.44970654809117 L 289.392578125 187.51646362524113 L 297.44921875 180.02303276660322 L 311.21875 167.19238831450312 L 317.078125 162.27197872484209 L 321.912109375 158.65736519763811 L 326.16015625 155.89328215485043 L 329.96875 153.7911386202843 L 333.484375 152.19689738605385 L 336.70703125 151.04685435424932 L 339.783203125 150.2395649000037 L 342.712890625 149.74244862570953 L 345.642578125 149.5152839166903 L 348.572265625 149.5602354632699 L 351.501953125 149.8768749146788 L 354.431640625 150.4621849608797 L 357.5078125 151.35977991757824 L 360.73046875 152.60088715405408 L 364.099609375 154.21209192975883 L 367.76171875 156.3035886410194 L 371.716796875 158.9252352054167 L 376.2578125 162.34200172651836 L 381.53125 166.75554169881997 L 388.416015625 173.02024781689104 L 408.044921875 191.17815212718963 L 413.46484375 195.5265873068014 L 418.005859375 198.73780008812093 L 421.9609375 201.1519057609627 L 425.623046875 203.03083631448433 L 428.9921875 204.43194160081367 L 432.21484375 205.46155456138655 L 435.291015625 206.14993663660871 L 438.220703125 206.5313801503468 L 441.150390625 206.6416240483169 L 444.080078125 206.47961779806514 L 447.009765625 206.0469051841161 L 449.939453125 205.3476095969934 L 453.015625 204.33376473032777 L 456.23828125 202.9759546007246 L 459.75390625 201.16789149807488 L 463.5625 198.85251936099337 L 467.810546875 195.87727546424085 L 472.64453125 192.06174340556944 L 478.50390625 186.96103681339483 L 487 179.01940618707303 L 499.451171875 167.4245329108831 L 505.310546875 162.48138805611856 L 510.14453125 158.84197566045628 L 514.392578125 156.05212681174973 L 518.201171875 153.9241630833077 L 521.716796875 152.30417739163641 L 524.939453125 151.12923353446948 L 528.015625 150.29728500500525 L 530.9453125 149.7761162695122 L 533.875 149.5245782747123 L 536.8046875 149.54506796802661 L 539.734375 149.83739009975704 L 542.6640625 150.39875908365315 L 545.740234375 151.2718704248703 L 548.962890625 152.48832292339887 L 552.33203125 154.07514421938973 L 555.994140625 156.1421037082418 L 559.94921875 158.7399596232008 L 564.34375 162.01780328222517 L 569.6171875 166.39839292865688 L 576.35546875 172.4998630909826 L 597.15625 191.69645526662214 L 599.5 193.6148888825534" stroke-linecap="round" stroke-linejoin="round" stroke-miterlimit="10" stroke-width="2.5" stroke-opacity="0.9" stroke-dasharray=""/></g></g></g><g id="labels-2ca0a539"/></g></svg>