<svg version="1.1" xmlns="http://www.w3.org/2000/svg" xmlns:xlink="http://www.w3.org/1999/xlink" width="600" height="400"><defs/><g transform="scale(1,1)"><g id="background-677580fa"><rect fill="white" stroke="none" x="0" y="0" width="600" height="400" class="dcg-svg-background"/></g><g id="background-images-677580fa"/><g id="graphpaper-677580fa"><g id="axis-677580fa"><g id="yaxis-677580fa"><title>Y axis</title><path fill="none" stroke="rgb(0,0,0)" class="dcg-svg-axis-line" paint-order="fill stroke markers" d=" M 25.75 0 L 25.75 400" stroke-opacity="0.9" stroke-miterlimit="10" stroke-width="1.5" stroke-dasharray=""/></g><g id="xaxis-677580fa"><title>X axis</title><path fill="none" stroke="rgb(0,0,0)" class="dcg-svg-axis-line" paint-order="fill stroke markers" d=" M 0 374.75 L 600 374.75" stroke-opacity="0.9" stroke-miterlimit="10" stroke-width="1.5" stroke-dasharray=""/></g><g><g><path fill="none" stroke="rgb(0,0,0)" class="dcg-svg-tickmark" paint-order="fill stroke markers" d="" stroke-opacity="0.9" stroke-miterlimit="2" stroke-width="1.5" stroke-dasharray=""/></g></g></g></g><g id="expressions-677580fa"><g id="sketch-677580fa"><title>Expression 1</title><path fill="#2d70b3" stroke="none" paint-order="stroke fill markers" d="" fill-opacity="0.4"/><g><path fill="none" stroke="#2d70b3" class="dcg-svg-curve" paint-order="fill stroke markers" d=" M 51.67391304347826 237.59523809523807 L 51.67391304347826 237.59523809523807 L 57.23857257417802 249.5469985345905 L 62.65679369617517 260.44855102139184 L 68.0750148181723 270.62354374516156 L 73.34679753146682 279.82543825138833 L 78.47214183605871 288.11084407702475 L 83.45104773194798 295.5348077630947 L 88.42995362783724 302.3422249568848 L 93.26242111502387 308.35886527674654 L 98.09488860221052 313.79270543614706 L 102.78091768069453 318.5041736224818 L 107.32050835047593 322.54355326797315 L 111.56722220285205 325.8535399228223 L 115.66749764652556 328.61821390548147 L 119.47489627279383 330.80498183811005 L 123.13585649035947 332.56105734940274 L 126.65037829922247 333.92610647482053 L 130.01846169938287 334.93829569152587 L 133.38654509954324 335.6595943411323 L 136.608190091001 336.07609115553487 L 139.82983508245877 336.2238548213578 L 143.0514800739165 336.1013445789462 L 146.2731250653743 335.70679406656586 L 149.49477005683207 335.0381684599045 L 152.71641504828978 334.0931114543278 L 155.93806003974757 332.86887916612125 L 159.30614343990794 331.2870056335912 L 162.82066524877095 329.30256943081145 L 166.4816254663366 326.8666128697266 L 170.28902409260485 323.92521127006853 L 174.24286112757574 320.418084451463 L 178.34313657124923 316.2764644011784 L 182.44341201492279 311.5971479915619 L 186.54368745859625 306.3476814129459 L 190.49752449356717 300.7040812667718 L 194.30492311983542 294.6770263040763 L 197.96588333740107 288.26647586606106 L 201.48040514626408 281.45819376447884 L 204.84848854642448 274.21856794976605 L 207.92369512917958 266.85807333458297 L 210.70602489452946 259.4179392609211 L 213.3419162511767 251.47877637252589 L 215.68493079041872 243.45029868717722 L 217.7350685122555 235.40362798151696 L 219.63876782538964 226.75028502361445 L 221.39602872982113 217.340210588876 L 223.00685122554998 206.9850137190245 L 224.47123531257628 195.45599568040657 L 225.78918099089987 182.4898400679904 L 226.9606882605209 167.8113850757378 L 227.98575712143926 151.1901647698317 L 228.864387573655 132.55612694426554 L 229.74301802587075 107.4017501678307 L 230.4752100693839 78.21171187784654 L 231.20740211289706 35.85253715507764 L 231.6807745387689 -5.5" stroke-linecap="round" stroke-linejoin="round" stroke-miterlimit="10" stroke-width="2.5" stroke-opacity="0.9" stroke-dasharray=""/></g></g><g id="sketch-677580fa"><title>Expression 2</title><path fill="#388c46" stroke="none" paint-order="stroke fill markers" d="" fill-opacity="0.4"/><path fill="#388c46" stroke="none" paint-order="stroke fill markers" d="" fill-opacity="0.4"/><path fill="#388c46" stroke="none" class="dcg-svg-region" paint-order="stroke fill markers" d=" M 51.67391304347826 374.5 L 234.28260869565216 374.5 L 234.28260869565216 -3 L 231.64848060970232 -3 L 231.23828125 33.63469044068205 L 230.505859375 76.75595021981616 L 229.7734375 106.36792559542903 L 228.89453125 131.8193174022873 L 228.015625 150.63435993349648 L 226.990234375 167.3897183391725 L 225.818359375 182.16595337985603 L 224.5 195.20312500000006 L 223.03515625 206.78397222904493 L 221.423828125 217.1774010490285 L 219.666015625 226.61609683719857 L 217.76171875 235.2912500592131 L 215.7109375 243.3548752963952 L 213.3671875 251.3975898206016 L 210.73046875 259.348677593028 L 207.947265625 266.79843171276616 L 204.87109375 274.16727965095265 L 201.501953125 281.4142457693439 L 197.986328125 288.2288227415876 L 194.32421875 294.6448889464479 L 190.515625 300.6768522029428 L 186.560546875 306.3248634869833 L 182.458984375 311.5783135083706 L 178.357421875 316.2611112127664 L 174.255859375 320.4057775652061 L 170.30078125 323.915472956167 L 166.4921875 326.8590331685046 L 162.830078125 329.2967918638888 L 159.314453125 331.28271774151 L 155.9453125 332.86580595156045 L 152.72265625 334.09101063505517 L 149.5 335.036858974359 L 146.27734375 335.70609820346306 L 143.0546875 336.1010873685899 L 139.83203125 336.2238635530791 L 136.609375 336.07619499202565 L 133.38671875 335.6596240078977 L 130.017578125 334.93806824675914 L 126.6484375 333.9254395957059 L 123.1328125 332.5597386876387 L 119.470703125 330.802775450205 L 115.662109375 328.61485930062514 L 111.560546875 325.8486932611464 L 107.3125 322.5368829015872 L 102.771484375 318.4952415357641 L 98.083984375 313.7811011548732 L 93.25 308.3441470225193 L 88.416015625 302.3240296650001 L 83.435546875 295.5126509696264 L 78.455078125 288.08434156459776 L 73.328125 279.7940613486111 L 68.0546875 270.5867293529584 L 62.634765625 260.40570061277634 L 57.21484375 249.49765882865844 L 51.67391304347826 237.59523809523807" fill-opacity="0.4"/><g><path fill="none" stroke="#388c46" class="dcg-svg-curve" paint-order="fill stroke markers" d=" M 51.67391304347826 374.5 L 62.67391304347826 374.5 M 69.67391304347825 374.5 L 80.67391304347825 374.5 M 87.67391304347825 374.5 L 98.67391304347825 374.5 M 105.67391304347825 374.5 L 116.67391304347825 374.5 M 123.67391304347825 374.5 L 134.67391304347825 374.5 M 141.67391304347825 374.5 L 152.67391304347825 374.5 M 159.67391304347825 374.5 L 170.67391304347825 374.5 M 177.67391304347825 374.5 L 188.67391304347825 374.5 M 195.67391304347825 374.5 L 206.67391304347825 374.5 M 213.67391304347825 374.5 L 224.67391304347825 374.5 M 231.67391304347825 374.5 L 234.28260869565216 374.5" stroke-linecap="round" stroke-linejoin="round" stroke-miterlimit="10" stroke-width="2.5" stroke-opacity="0.9" stroke-dasharray=""/></g><g><path fill="none" stroke="#388c46" class="dcg-svg-curve" paint-order="fill stroke markers" d=" M 51.67391304347826 237.59523809523807 L 56.31634078141408 247.56759311790168 M 59.38232399884589 253.85989239326332 L 62.634765625 260.40570061277634 M 62.634765625 260.40570061277634 L 64.36908008227141 263.66351608340864 M 67.65849053083272 269.8424948745112 L 68.0546875 270.5867293529584 M 68.0546875 270.5867293529584 L 73.1026420978055 279.40037204446213 M 76.77131724117368 285.3617011964673 L 78.455078125 288.08434156459776 M 78.455078125 288.08434156459776 L 82.79810903060091 294.561920070116 M 86.89162441649715 300.2392448139735 L 88.416015625 302.3240296650001 M 88.416015625 302.3240296650001 L 93.25 308.3441470225193 M 93.25 308.3441470225193 L 93.71288745727027 308.86477300688034 M 98.38117833858149 314.07998415533757 L 102.771484375 318.4952415357641 M 102.771484375 318.4952415357641 L 106.33722217889353 321.668856118492 M 111.81583388405024 326.02086331944855 L 115.662109375 328.61485930062514 M 115.662109375 328.61485930062514 L 119.470703125 330.802775450205 M 119.470703125 330.802775450205 L 121.24545918971785 331.6542467859353 M 127.73549901634337 334.2521667227182 L 130.017578125 334.93806824675914 M 130.017578125 334.93806824675914 L 133.38671875 335.6596240078977 M 133.38671875 335.6596240078977 L 136.609375 336.07619499202565 M 136.609375 336.07619499202565 L 138.52942316404787 336.1641754427915 M 145.5073644583054 335.8004717431763 L 146.27734375 335.70609820346306 M 146.27734375 335.70609820346306 L 149.5 335.036858974359 M 149.5 335.036858974359 L 152.72265625 334.09101063505517 M 152.72265625 334.09101063505517 L 155.9453125 332.86580595156045 M 155.9453125 332.86580595156045 L 156.0598518007415 332.81198634686785 M 162.27828518032845 329.6084917431171 L 162.830078125 329.2967918638888 M 162.830078125 329.2967918638888 L 166.4921875 326.8590331685046 M 166.4921875 326.8590331685046 L 170.30078125 323.915472956167 M 170.30078125 323.915472956167 L 171.1635256620944 323.1498824947384 M 176.2715784950212 318.3688749914379 L 178.357421875 316.2611112127664 M 178.357421875 316.2611112127664 L 182.458984375 311.5783135083706 M 182.458984375 311.5783135083706 L 183.5725799124562 310.15197452168786 M 187.79071195590956 304.56813807256185 L 190.515625 300.6768522029428 M 190.515625 300.6768522029428 L 193.85214544028398 295.3925478057261 M 197.35586450461292 289.33340371226365 L 197.986328125 288.2288227415876 M 197.986328125 288.2288227415876 L 201.501953125 281.4142457693439 M 201.501953125 281.4142457693439 L 202.3704622025221 279.5460970160345 M 205.28264904472948 273.18141523626775 L 207.947265625 266.79843171276616 M 207.947265625 266.79843171276616 L 209.37625213526542 262.9734869768695 M 211.71582497176712 256.3773125938688 L 213.3671875 251.3975898206016 M 213.3671875 251.3975898206016 L 214.9769051291754 245.87375009535785 M 216.7896143652414 239.11354239298345 L 217.76171875 235.2912500592131 M 217.76171875 235.2912500592131 L 219.27457905563347 228.3993126059869 M 220.61336618985382 221.52923246093192 L 221.423828125 217.1774010490285 M 221.423828125 217.1774010490285 L 222.43088503989645 210.68165744457272 M 223.4186182530424 203.75237594078703 L 224.5 195.20312500000006 M 224.5 195.20312500000006 L 224.7397163508124 192.8325853239759 M 225.44398640658156 185.86810374323014 L 225.818359375 182.16595337985603 M 225.818359375 182.16595337985603 L 226.39383354224026 174.90976858626982 M 226.947252470791 167.93167948612776 L 226.990234375 167.3897183391725 M 226.990234375 167.3897183391725 L 227.62894400383766 156.95290675984737 M 228.04687142759855 149.9654571191008 L 228.5601542292279 138.97743906462202 M 228.88678873935564 131.9850639390446 L 228.89453125 131.8193174022873 M 228.89453125 131.8193174022873 L 229.26843856929497 120.99169877649186 M 229.5100237332255 113.99586883226304 L 229.7734375 106.36792559542903 M 229.7734375 106.36792559542903 L 229.85670394196615 103.00144527407522 M 230.02978883489493 96.00358548555131 L 230.3017793809259 85.00694867501375 M 230.47486427385468 78.00908888648985 L 230.505859375 76.75595021981616 M 230.505859375 76.75595021981616 L 230.67138107560046 67.01087774955896 M 230.790260110179 60.011887266986655 L 230.9770700216595 49.013473651515895 M 231.09594905623803 42.01448316894359 L 231.23828125 33.63469044068205 M 231.23828125 33.63469044068205 L 231.2676043913566 31.015856010695526 M 231.34597861813998 24.016294775834005 L 231.46913811737102 13.016984263908764 M 231.54751234415443 6.017423029047246 L 231.67067184338546 -4.981887482877995" stroke-linecap="round" stroke-linejoin="round" stroke-miterlimit="10" stroke-width="2.5" stroke-opacity="0.9" stroke-dasharray=""/></g></g><g id="sketch-677580fa"><title>Expression 4</title><path fill="#000000" stroke="none" paint-order="stroke fill markers" d="" fill-opacity="0.4"/><g><path fill="none" stroke="#000000" class="dcg-svg-curve" paint-order="fill stroke markers" d=" M 234.28260869565216 374.5 L 234.28260869565216 363.5 M 234.28260869565216 356.5 L 234.28260869565216 345.5 M 234.28260869565216 338.5 L 234.28260869565216 327.5 M 234.28260869565216 320.5 L 234.28260869565216 309.5 M 234.28260869565216 302.5 L 234.28260869565216 291.5 M 234.28260869565216 284.5 L 234.28260869565216 273.5 M 234.28260869565216 266.5 L 234.28260869565216 255.5 M 234.28260869565216 248.5 L 234.28260869565216 237.5 M 234.28260869565216 230.5 L 234.28260869565216 219.5 M 234.28260869565216 212.5 L 234.28260869565216 201.5 M 234.28260869565216 194.5 L 234.28260869565216 183.5 M 234.28260869565216 176.5 L 234.28260869565216 165.5 M 234.28260869565216 158.5 L 234.28260869565216 147.5 M 234.28260869565216 140.5 L 234.28260869565216 129.5 M 234.28260869565216 122.5 L 234.28260869565216 111.5 M 234.28260869565216 104.5 L 234.28260869565216 93.5 M 234.28260869565216 86.5 L 234.28260869565216 75.5 M 234.28260869565216 68.5 L 234.28260869565216 57.5 M 234.28260869565216 50.5 L 234.28260869565216 39.5 M 234.28260869565216 32.5 L 234.28260869565216 21.5 M 234.28260869565216 14.5 L 234.28260869565216 3.5" stroke-linecap="round" stroke-linejoin="round" stroke-miterlimit="10" stroke-width="2.5" stroke-opacity="0.9" stroke-dasharray=""/></g></g><g id="sketch-677580fa"><title>a</title><path fill="white" stroke="#000000" class="dcg-svg-point" paint-order="fill stroke markers" d=" M 55.45391304347826 374.5 L 55.45391304347826 374.5 A 3.78 3.78 0 1 0 55.453911153478415 374.50377999937 Z" fill-opacity="0.9" stroke-linecap="round" stroke-linejoin="round" stroke-miterlimit="10" stroke-width="2.25" stroke-opacity="0.9" stroke-dasharray=""/></g><g id="sketch-677580fa"><title>b</title><path fill="white" stroke="#000000" class="dcg-svg-point" paint-order="fill stroke markers" d=" M 238.06260869565216 374.5 L 238.06260869565216 374.5 A 3.78 3.78 0 1 0 238.0626068056523 374.50377999937 Z" fill-opacity="0.9" stroke-linecap="round" stroke-linejoin="round" stroke-miterlimit="10" stroke-width="2.25" stroke-opacity="0.9" stroke-dasharray=""/></g><g id="sketch-677580fa"><title>``b - eps`</title><path fill="white" stroke="#c64440" class="dcg-svg-point" paint-order="fill stroke markers" d=" M 225.0191304347826 374.5 L 225.0191304347826 374.5 A 3.78 3.78 0 1 0 225.01912854478275 374.50377999937 Z" fill-opacity="0.9" stroke-linecap="round" stroke-linejoin="round" stroke-miterlimit="10" stroke-width="2.25" stroke-opacity="0.9" stroke-dasharray=""/></g></g><g id="labels-677580fa"><g transform="rotate(0,0,0) translate(52.17391304347826,375)"><g class="dcg-svg-label"><g transform="translate(-16.080163043478258,-25.5)"><g><text fill="none" stroke="#FFF" font-family="arial, sans-serif" font-size="15.4px" font-style="normal" font-weight="normal" text-decoration="normal" x="0" y="13.4888" text-anchor="start" stroke-linecap="round" stroke-linejoin="round" stroke-miterlimit="2" stroke-width="3" stroke-dasharray="">a</text></g></g><g transform="translate(-16.080163043478258,-25.5)"><g><text fill="rgb(0, 0, 0)" stroke="none" font-family="arial, sans-serif" font-size="15.4px" font-style="normal" font-weight="normal" text-decoration="normal" x="0" y="13.4888" text-anchor="start">a</text></g></g></g></g><g transform="rotate(0,0,0) translate(234.78260869565216,375)"><g class="dcg-svg-label"><g transform="translate(-16.079483695652158,6.5)"><g><text fill="none" stroke="#FFF" font-family="arial, sans-serif" font-size="15.4px" font-style="normal" font-weight="normal" text-decoration="normal" x="0" y="13.4888" text-anchor="start" stroke-linecap="round" stroke-linejoin="round" stroke-miterlimit="2" stroke-width="3" stroke-dasharray="">b</text></g></g><g transform="translate(-16.079483695652158,6.5)"><g><text fill="rgb(0, 0, 0)" stroke="none" font-family="arial, sans-serif" font-size="15.4px" font-style="normal" font-weight="normal" text-decoration="normal" x="0" y="13.4888" text-anchor="start">b</text></g></g></g></g><g transform="rotate(0,0,0) translate(221.7391304347826,375)"><g class="dcg-svg-label"><g transform="translate(18.354619565217405,-27.921875)"><g><text fill="none" stroke="#FFF" font-family="arial, sans-serif" font-size="15.4px" font-style="normal" font-weight="normal" text-decoration="normal" x="0" y="13.4888" text-anchor="start" stroke-linecap="round" stroke-linejoin="round" stroke-miterlimit="2" stroke-width="3" stroke-dasharray="">b - eps</text></g></g><g transform="translate(65.4483695652174,-27.921875)"><g><text fill="none" stroke="#FFF" font-family="arial, sans-serif" font-size="15.4px" font-style="normal" font-weight="normal" text-decoration="normal" x="0" y="13.4888" text-anchor="start" stroke-linecap="round" stroke-linejoin="round" stroke-miterlimit="2" stroke-width="3" stroke-dasharray="">`</text></g></g><g transform="translate(18.354619565217405,-27.921875)"><g><text fill="rgb(198, 68, 64)" stroke="none" font-family="arial, sans-serif" font-size="15.4px" font-style="normal" font-weight="normal" text-decoration="normal" x="0" y="13.4888" text-anchor="start">b - eps</text></g></g><g transform="translate(65.4483695652174,-27.921875)"><g><text fill="rgb(198, 68, 64)" stroke="none" font-family="arial, sans-serif" font-size="15.4px" font-style="normal" font-weight="normal" text-decoration="normal" x="0" y="13.4888" text-anchor="start">`</text></g></g></g></g></g></g></svg>