<svg version="1.1" xmlns="http://www.w3.org/2000/svg" xmlns:xlink="http://www.w3.org/1999/xlink" width="600" height="400"><defs/><g transform="scale(1,1)"><g id="background-435de3c3"><rect fill="white" stroke="none" x="0" y="0" width="600" height="400" class="dcg-svg-background"/></g><g id="background-images-435de3c3"/><g id="graphpaper-435de3c3"><g id="grid-435de3c3"><g><path fill="none" stroke="rgb(0,0,0)" class="dcg-svg-minor-gridline" paint-order="fill stroke markers" d=" M -0.5 0 L -0.5 400" stroke-opacity="0.12" stroke-miterlimit="10" stroke-dasharray=""/><path fill="none" stroke="rgb(0,0,0)" class="dcg-svg-minor-gridline" paint-order="fill stroke markers" d=" M 37.5 0 L 37.5 400" stroke-opacity="0.12" stroke-miterlimit="10" stroke-dasharray=""/><path fill="none" stroke="rgb(0,0,0)" class="dcg-svg-minor-gridline" paint-order="fill stroke markers" d=" M 74.5 0 L 74.5 400" stroke-opacity="0.12" stroke-miterlimit="10" stroke-dasharray=""/><path fill="none" stroke="rgb(0,0,0)" class="dcg-svg-minor-gridline" paint-order="fill stroke markers" d=" M 112.5 0 L 112.5 400" stroke-opacity="0.12" stroke-miterlimit="10" stroke-dasharray=""/><path fill="none" stroke="rgb(0,0,0)" class="dcg-svg-minor-gridline" paint-order="fill stroke markers" d=" M 149.5 0 L 149.5 400" stroke-opacity="0.12" stroke-miterlimit="10" stroke-dasharray=""/><path fill="none" stroke="rgb(0,0,0)" class="dcg-svg-minor-gridline" paint-order="fill stroke markers" d=" M 187.5 0 L 187.5 400" stroke-opacity="0.12" stroke-miterlimit="10" stroke-dasharray=""/><path fill="none" stroke="rgb(0,0,0)" class="dcg-svg-minor-gridline" paint-order="fill stroke markers" d=" M 224.5 0 L 224.5 400" stroke-opacity="0.12" stroke-miterlimit="10" stroke-dasharray=""/><path fill="none" stroke="rgb(0,0,0)" class="dcg-svg-minor-gridline" paint-order="fill stroke markers" d=" M 262.5 0 L 262.5 400" stroke-opacity="0.12" stroke-miterlimit="10" stroke-dasharray=""/><path fill="none" stroke="rgb(0,0,0)" class="dcg-svg-minor-gridline" paint-order="fill stroke markers" d=" M 337.5 0 L 337.5 400" stroke-opacity="0.12" stroke-miterlimit="10" stroke-dasharray=""/><path fill="none" stroke="rgb(0,0,0)" class="dcg-svg-minor-gridline" paint-order="fill stroke markers" d=" M 374.5 0 L 374.5 400" stroke-opacity="0.12" stroke-miterlimit="10" stroke-dasharray=""/><path fill="none" stroke="rgb(0,0,0)" class="dcg-svg-minor-gridline" paint-order="fill stroke markers" d=" M 412.5 0 L 412.5 400" stroke-opacity="0.12" stroke-miterlimit="10" stroke-dasharray=""/><path fill="none" stroke="rgb(0,0,0)" class="dcg-svg-minor-gridline" paint-order="fill stroke markers" d=" M 449.5 0 L 449.5 400" stroke-opacity="0.12" stroke-miterlimit="10" stroke-dasharray=""/><path fill="none" stroke="rgb(0,0,0)" class="dcg-svg-minor-gridline" paint-order="fill stroke markers" d=" M 487.5 0 L 487.5 400" stroke-opacity="0.12" stroke-miterlimit="10" stroke-dasharray=""/><path fill="none" stroke="rgb(0,0,0)" class="dcg-svg-minor-gridline" paint-order="fill stroke markers" d=" M 524.5 0 L 524.5 400" stroke-opacity="0.12" stroke-miterlimit="10" stroke-dasharray=""/><path fill="none" stroke="rgb(0,0,0)" class="dcg-svg-minor-gridline" paint-order="fill stroke markers" d=" M 562.5 0 L 562.5 400" stroke-opacity="0.12" stroke-miterlimit="10" stroke-dasharray=""/><path fill="none" stroke="rgb(0,0,0)" class="dcg-svg-minor-gridline" paint-order="fill stroke markers" d=" M 0 387.5 L 600 387.5" stroke-opacity="0.12" stroke-miterlimit="10" stroke-dasharray=""/><path fill="none" stroke="rgb(0,0,0)" class="dcg-svg-minor-gridline" paint-order="fill stroke markers" d=" M 0 349.5 L 600 349.5" stroke-opacity="0.12" stroke-miterlimit="10" stroke-dasharray=""/><path fill="none" stroke="rgb(0,0,0)" class="dcg-svg-minor-gridline" paint-order="fill stroke markers" d=" M 0 312.5 L 600 312.5" stroke-opacity="0.12" stroke-miterlimit="10" stroke-dasharray=""/><path fill="none" stroke="rgb(0,0,0)" class="dcg-svg-minor-gridline" paint-order="fill stroke markers" d=" M 0 274.5 L 600 274.5" stroke-opacity="0.12" stroke-miterlimit="10" stroke-dasharray=""/><path fill="none" stroke="rgb(0,0,0)" class="dcg-svg-minor-gridline" paint-order="fill stroke markers" d=" M 0 237.5 L 600 237.5" stroke-opacity="0.12" stroke-miterlimit="10" stroke-dasharray=""/><path fill="none" stroke="rgb(0,0,0)" class="dcg-svg-minor-gridline" paint-order="fill stroke markers" d=" M 0 162.5 L 600 162.5" stroke-opacity="0.12" stroke-miterlimit="10" stroke-dasharray=""/><path fill="none" stroke="rgb(0,0,0)" class="dcg-svg-minor-gridline" paint-order="fill stroke markers" d=" M 0 124.5 L 600 124.5" stroke-opacity="0.12" stroke-miterlimit="10" stroke-dasharray=""/><path fill="none" stroke="rgb(0,0,0)" class="dcg-svg-minor-gridline" paint-order="fill stroke markers" d=" M 0 87.5 L 600 87.5" stroke-opacity="0.12" stroke-miterlimit="10" stroke-dasharray=""/><path fill="none" stroke="rgb(0,0,0)" class="dcg-svg-minor-gridline" paint-order="fill stroke markers" d=" M 0 49.5 L 600 49.5" stroke-opacity="0.12" stroke-miterlimit="10" stroke-dasharray=""/><path fill="none" stroke="rgb(0,0,0)" class="dcg-svg-minor-gridline" paint-order="fill stroke markers" d=" M 0 12.5 L 600 12.5" stroke-opacity="0.12" stroke-miterlimit="10" stroke-dasharray=""/><path fill="none" stroke="rgb(0,0,0)" class="dcg-svg-major-gridline" paint-order="fill stroke markers" d=" M -0.5 0 L -0.5 400" stroke-opacity="0.31818181818181823" stroke-miterlimit="10" stroke-dasharray=""/><path fill="none" stroke="rgb(0,0,0)" class="dcg-svg-major-gridline" paint-order="fill stroke markers" d=" M 149.5 0 L 149.5 400" stroke-opacity="0.31818181818181823" stroke-miterlimit="10" stroke-dasharray=""/><path fill="none" stroke="rgb(0,0,0)" class="dcg-svg-major-gridline" paint-order="fill stroke markers" d=" M 449.5 0 L 449.5 400" stroke-opacity="0.31818181818181823" stroke-miterlimit="10" stroke-dasharray=""/><path fill="none" stroke="rgb(0,0,0)" class="dcg-svg-major-gridline" paint-order="fill stroke markers" d=" M 0 349.5 L 600 349.5" stroke-opacity="0.31818181818181823" stroke-miterlimit="10" stroke-dasharray=""/><path fill="none" stroke="rgb(0,0,0)" class="dcg-svg-major-gridline" paint-order="fill stroke markers" d=" M 0 49.5 L 600 49.5" stroke-opacity="0.31818181818181823" stroke-miterlimit="10" stroke-dasharray=""/></g></g><g id="axis-435de3c3"><g id="yaxis-435de3c3"><title>Y axis</title><path fill="none" stroke="rgb(0,0,0)" class="dcg-svg-axis-line" paint-order="fill stroke markers" d=" M 299.75 0 L 299.75 400" stroke-opacity="0.9" stroke-miterlimit="10" stroke-width="1.5" stroke-dasharray=""/></g><g id="xaxis-435de3c3"><title>X axis</title><path fill="none" stroke="rgb(0,0,0)" class="dcg-svg-axis-line" paint-order="fill stroke markers" d=" M 0 199.75 L 600 199.75" stroke-opacity="0.9" stroke-miterlimit="10" stroke-width="1.5" stroke-dasharray=""/></g><g><g class="dcg-svg-axis-value"><text fill="none" stroke="#ffffff" font-family="Arial" font-size="14px" font-style="normal" font-weight="normal" text-decoration="normal" x="291.10693359375" y="215.80800000000002" text-anchor="middle" stroke-miterlimit="2" stroke-width="3" stroke-dasharray="">0</text><text fill="#000000" stroke="none" font-family="Arial" font-size="14px" font-style="normal" font-weight="normal" text-decoration="normal" x="291.10693359375" y="215.80800000000002" text-anchor="middle">0</text></g><g class="dcg-svg-axis-value dcg-svg-offcenter-axis-value"><text fill="none" stroke="#ffffff" font-family="Arial" font-size="14px" font-style="normal" font-weight="normal" text-decoration="normal" x="9.22412109375" y="215.80800000000002" text-anchor="middle" stroke-miterlimit="2" stroke-width="3" stroke-dasharray="">-4</text><text fill="#000000" stroke="none" font-family="Arial" font-size="14px" font-style="normal" font-weight="normal" text-decoration="normal" x="9.22412109375" y="215.80800000000002" text-anchor="middle">-4</text></g><g class="dcg-svg-axis-value"><text fill="none" stroke="#ffffff" font-family="Arial" font-size="14px" font-style="normal" font-weight="normal" text-decoration="normal" x="147.6689453125" y="215.80800000000002" text-anchor="middle" stroke-miterlimit="2" stroke-width="3" stroke-dasharray="">-2</text><text fill="#000000" stroke="none" font-family="Arial" font-size="14px" font-style="normal" font-weight="normal" text-decoration="normal" x="147.6689453125" y="215.80800000000002" text-anchor="middle">-2</text></g><g class="dcg-svg-axis-value"><text fill="none" stroke="#ffffff" font-family="Arial" font-size="14px" font-style="normal" font-weight="normal" text-decoration="normal" x="450" y="215.80800000000002" text-anchor="middle" stroke-miterlimit="2" stroke-width="3" stroke-dasharray="">2</text><text fill="#000000" stroke="none" font-family="Arial" font-size="14px" font-style="normal" font-weight="normal" text-decoration="normal" x="450" y="215.80800000000002" text-anchor="middle">2</text></g><g class="dcg-svg-axis-value dcg-svg-offcenter-axis-value"><text fill="none" stroke="#ffffff" font-family="Arial" font-size="14px" font-style="normal" font-weight="normal" text-decoration="normal" x="593.10693359375" y="215.80800000000002" text-anchor="middle" stroke-miterlimit="2" stroke-width="3" stroke-dasharray="">4</text><text fill="#000000" stroke="none" font-family="Arial" font-size="14px" font-style="normal" font-weight="normal" text-decoration="normal" x="593.10693359375" y="215.80800000000002" text-anchor="middle">4</text></g><g class="dcg-svg-axis-value"><text fill="none" stroke="#ffffff" font-family="Arial" font-size="14px" font-style="normal" font-weight="normal" text-decoration="normal" x="288.77587890625" y="353.808" text-anchor="middle" stroke-miterlimit="2" stroke-width="3" stroke-dasharray="">-2</text><text fill="#000000" stroke="none" font-family="Arial" font-size="14px" font-style="normal" font-weight="normal" text-decoration="normal" x="288.77587890625" y="353.808" text-anchor="middle">-2</text></g><g class="dcg-svg-axis-value"><text fill="none" stroke="#ffffff" font-family="Arial" font-size="14px" font-style="normal" font-weight="normal" text-decoration="normal" x="291.10693359375" y="53.80800000000006" text-anchor="middle" stroke-miterlimit="2" stroke-width="3" stroke-dasharray="">2</text><text fill="#000000" stroke="none" font-family="Arial" font-size="14px" font-style="normal" font-weight="normal" text-decoration="normal" x="291.10693359375" y="53.80800000000006" text-anchor="middle">2</text></g></g></g></g><g id="expressions-435de3c3"><g id="sketch-435de3c3"><title>Expression 1</title><path fill="#2d70b3" stroke="none" paint-order="stroke fill markers" d="" fill-opacity="0.4"/><g><path fill="none" stroke="#2d70b3" class="dcg-svg-curve" paint-order="fill stroke markers" d=" M 63.88055098076552 134.5480947161671 L 63.88055098076552 134.5480947161671 L 71.79068479925394 132.074044593478 L 79.40785069853912 130.00641905991085 L 86.87853263822268 128.28783986747698 L 94.20273061830457 126.9076578573547 L 101.38044463878482 125.85345820340774 L 108.55815865926509 125.09894857416612 L 115.58938872014367 124.65337812018572 L 122.62061878102232 124.50008046579973 L 129.6518488419009 124.63965423167383 L 136.68307890277956 125.0715543883295 L 143.7143089636581 125.79409438445987 L 150.89202298413838 126.82853612862982 L 158.21622096422033 128.18888945702133 L 165.54041894430222 129.85139021392928 L 173.15758484358733 131.8933235046885 L 180.92123470247412 134.2932673714633 L 188.97785248056422 137.11181802772904 L 197.32743817785757 140.37014572546576 L 205.9699917943542 144.08545887041964 L 215.05199728965576 148.34149358400055 L 224.71993862336387 153.23758463384473 L 234.97381579547852 158.802682582479 L 246.25308068480467 165.31265363585402 L 258.8507012105455 172.9863036223786 L 273.6455811303109 182.4150454575486 L 294.1533354745402 195.93689867309257 L 329.4559697385349 219.23548682529224 L 344.54381757750366 228.7332792314607 L 357.1414381032445 236.26821228300466 L 368.42070299257057 242.62649248292723 L 378.82106412428686 248.1068854316632 L 388.48900545799495 252.82996287125667 L 397.5710109532966 256.90884526885293 L 406.21356456979316 260.4434972297405 L 414.5631502670865 263.5171153773358 L 422.6197680451766 266.1489236588943 L 430.38341790406344 268.36190956698664 L 438.0005838033486 270.2145993267977 L 445.32478178343047 271.69051762580773 L 452.6489797635124 272.86056242070566 L 459.8266937839926 273.7056637993136 L 466.8579238448712 274.2407505577218 L 473.8891539057498 274.4839779394388 L 480.9203839666285 274.43439615212895 L 487.95161402750705 274.09219881051314 L 494.9828440883857 273.4587221803109 L 502.160558108866 272.5141785139877 L 509.33827212934625 271.2725181001717 L 516.6624701094281 269.70449381324715 L 524.1331520491117 267.79871932760403 L 531.7503179483969 265.54565649437586 L 535.1194490192345 264.45190528383296" stroke-linecap="round" stroke-linejoin="round" stroke-miterlimit="10" stroke-width="2.5" stroke-opacity="0.9" stroke-dasharray=""/></g></g><g id="sketch-435de3c3"><title>Expression 2</title><path fill="#3072da" stroke="none" paint-order="stroke fill markers" d="" fill-opacity="0.4"/><path fill="#3072da" stroke="none" paint-order="stroke fill markers" d="" fill-opacity="0.4"/><path fill="#3072da" stroke="none" class="dcg-svg-region" paint-order="stroke fill markers" d=" M 63.88055098076552 199.50000000000003 L 299.5 199.50000000000003 L 299.5 199.50000000000003 L 293.93359375 195.79057649339634 L 273.572265625 182.3674571553919 L 258.77734375 172.94056215629365 L 246.1796875 165.26911105203814 L 234.900390625 158.7615745650847 L 224.646484375 153.19905086578137 L 214.978515625 148.30568236475887 L 205.896484375 144.05244830912378 L 197.25390625 140.34000215829184 L 188.904296875 137.0846152086305 L 180.84765625 134.26904613293135 L 173.083984375 131.87209487700892 L 165.466796875 129.83319781278925 L 158.142578125 128.1736970038229 L 150.818359375 126.81640970769502 L 143.640625 125.7850243030278 L 136.609375 125.06551579059595 L 129.578125 124.63667234608914 L 122.546875 124.50016859398079 L 115.515625 124.65653757850168 L 108.484375 125.10516868211363 L 101.306640625 125.86277928461385 L 94.12890625 126.92004368045366 L 86.8046875 128.30330266264525 L 79.333984375 130.02495454514064 L 71.716796875 132.09563058961362 L 63.88055098076552 134.5480947161671" fill-opacity="0.4"/><g><path fill="none" stroke="#3072da" class="dcg-svg-curve" paint-order="fill stroke markers" d=" M 63.88055098076552 199.50000000000003 L 74.88055098076552 199.50000000000003 M 81.88055098076552 199.50000000000003 L 92.88055098076552 199.50000000000003 M 99.88055098076552 199.50000000000003 L 110.88055098076552 199.50000000000003 M 117.88055098076552 199.50000000000003 L 128.88055098076552 199.50000000000003 M 135.88055098076552 199.50000000000003 L 146.88055098076552 199.50000000000003 M 153.88055098076552 199.50000000000003 L 164.88055098076552 199.50000000000003 M 171.88055098076552 199.50000000000003 L 182.88055098076552 199.50000000000003 M 189.88055098076552 199.50000000000003 L 200.88055098076552 199.50000000000003 M 207.88055098076552 199.50000000000003 L 218.88055098076552 199.50000000000003 M 225.88055098076552 199.50000000000003 L 236.88055098076552 199.50000000000003 M 243.88055098076552 199.50000000000003 L 254.88055098076552 199.50000000000003 M 261.8805509807655 199.50000000000003 L 272.8805509807655 199.50000000000003 M 279.8805509807655 199.50000000000003 L 290.8805509807655 199.50000000000003 M 297.8805509807655 199.50000000000003 L 299.5 199.50000000000003" stroke-linecap="round" stroke-linejoin="round" stroke-miterlimit="10" stroke-width="2.5" stroke-opacity="0.9" stroke-dasharray=""/></g><g><path fill="none" stroke="#3072da" class="dcg-svg-curve" paint-order="fill stroke markers" d=" M 63.88055098076552 134.5480947161671 L 71.716796875 132.09563058961362 M 71.716796875 132.09563058961362 L 74.40807911647565 131.36402543136603 M 81.1809050270367 129.59932467279867 L 86.8046875 128.30330266264525 M 86.8046875 128.30330266264525 L 91.94267109430602 127.33293815009205 M 98.85304888284766 126.22418792073438 L 101.306640625 125.86277928461385 M 101.306640625 125.86277928461385 L 108.484375 125.10516868211363 M 108.484375 125.10516868211363 L 109.78405927724971 125.02224192063457 M 116.77209351418779 124.6285947936987 L 122.546875 124.50016859398079 M 122.546875 124.50016859398079 L 127.7696815057663 124.60156346467562 M 134.75971216451956 124.95270287944308 L 136.609375 125.06551579059595 M 136.609375 125.06551579059595 L 143.640625 125.7850243030278 M 143.640625 125.7850243030278 L 145.69842162860013 126.08071390334288 M 152.61524127500593 127.14939880301937 L 158.142578125 128.1736970038229 M 158.142578125 128.1736970038229 L 163.38817155223873 129.36222875487297 M 170.16991480986428 131.0920841602861 L 173.083984375 131.87209487700892 M 173.083984375 131.87209487700892 L 180.71204771606702 134.2271784379852 M 187.32177351388765 136.5315678475141 L 188.904296875 137.0846152086305 M 188.904296875 137.0846152086305 L 197.25390625 140.34000215829184 M 197.25390625 140.34000215829184 L 197.58637265648113 140.482814130966 M 204.0180996292115 143.24558233482472 L 205.896484375 144.05244830912378 M 205.896484375 144.05244830912378 L 214.0068200845736 147.8506246303726 M 220.26675368535382 150.98228364674415 L 224.646484375 153.19905086578137 M 224.646484375 153.19905086578137 L 230.00062586283616 156.10355751811318 M 236.13530510274236 159.47405257778667 L 245.66325519999268 164.97115790189207 M 251.64914819595683 168.59978617628437 L 258.77734375 172.94056215629365 M 258.77734375 172.94056215629365 L 261.0157140360428 174.3667867645684 M 266.9191846762183 178.12830698923628 L 273.572265625 182.3674571553919 M 273.572265625 182.3674571553919 L 276.16976492453796 184.0798475684353 M 282.0140564747201 187.93267202284136 L 291.19794319643495 193.98711045119376 M 297.0320176180328 197.85534967259122 L 299.5 199.50000000000003" stroke-linecap="round" stroke-linejoin="round" stroke-miterlimit="10" stroke-width="2.5" stroke-opacity="0.9" stroke-dasharray=""/></g></g><g id="sketch-435de3c3"><title>Expression 3</title><path fill="#3072da" stroke="none" paint-order="stroke fill markers" d="" fill-opacity="0.4"/><path fill="#3072da" stroke="none" paint-order="stroke fill markers" d="" fill-opacity="0.4"/><path fill="#3072da" stroke="none" class="dcg-svg-region" paint-order="stroke fill markers" d=" M 299.5 199.50000000000003 L 328.357421875 218.52800213378464 L 343.73828125 228.23798349220553 L 356.482421875 235.88465745485678 L 367.76171875 242.26632733894849 L 378.162109375 247.77149683050249 L 387.830078125 252.52017764203023 L 396.912109375 256.6251961492728 L 405.5546875 260.1864359455931 L 413.904296875 263.2871806034441 L 421.9609375 265.94636355384665 L 429.724609375 268.1867109736453 L 437.341796875 270.0670555839182 L 444.8125 271.5971698218377 L 452.13671875 272.7887879054 L 459.314453125 273.65532504511265 L 466.345703125 274.2116076366482 L 473.376953125 274.4761429992059 L 480.408203125 274.4478981278559 L 487.439453125 274.1269833182166 L 494.470703125 273.51465173575195 L 501.6484375 272.591466086774 L 508.826171875 271.3708474974857 L 516.150390625 269.82387969460694 L 523.62109375 267.9390593624855 L 531.23828125 265.7067222263429 L 535.1194490192345 264.45190528383296 L 535.1194490192345 199.50000000000003 L 299.5 199.50000000000003" fill-opacity="0.4"/><g><path fill="none" stroke="#3072da" class="dcg-svg-curve" paint-order="fill stroke markers" d=" M 299.5 199.50000000000003 L 308.6833208948888 205.5552966353019 M 314.5272523734545 209.40866722140308 L 323.7105732683433 215.46396385670494 M 329.5699146861416 219.2934523798574 L 338.87145163796777 225.1655397713914 M 344.80541222564665 228.87827795272085 L 354.23777250199583 234.53783443862594 M 360.29655484607156 238.04264104063844 L 367.76171875 242.26632733894849 M 367.76171875 242.26632733894849 L 369.9030467417348 243.3997822212269 M 376.08978836124226 246.6745689522147 L 378.162109375 247.77149683050249 M 378.162109375 247.77149683050249 L 385.9308411679767 251.5873167353004 M 392.28060366903503 254.53178597306518 L 396.912109375 256.6251961492728 M 396.912109375 256.6251961492728 L 402.38319991179713 258.87960045631087 M 408.90119505151034 261.4292085049745 L 413.904296875 263.2871806034441 M 413.904296875 263.2871806034441 L 419.2819890446365 265.06214711810236 M 425.9760096191485 267.10498496485775 L 429.724609375 268.1867109736453 M 429.724609375 268.1867109736453 L 436.6161813237607 269.88793339598425 M 443.46724041497396 271.3216400878482 L 444.8125 271.5971698218377 M 444.8125 271.5971698218377 L 452.13671875 272.7887879054 M 452.13671875 272.7887879054 L 454.3271071561734 273.0532241195564 M 461.28473741164623 273.8112055569757 L 466.345703125 274.2116076366482 M 466.345703125 274.2116076366482 L 472.2647354234549 274.43429824714593 M 479.26390104559226 274.45249484465853 L 480.408203125 274.4478981278559 M 480.408203125 274.4478981278559 L 487.439453125 274.1269833182166 M 487.439453125 274.1269833182166 L 490.2459497758306 273.88257349985076 M 497.2074161043014 273.1626612585531 L 501.6484375 272.591466086774 M 501.6484375 272.591466086774 L 508.0785202493745 271.4979903290356 M 514.9330563167733 270.0809961249657 L 516.150390625 269.82387969460694 M 516.150390625 269.82387969460694 L 523.62109375 267.9390593624855 M 523.62109375 267.9390593624855 L 525.5893197520088 267.36223963780293 M 532.2977328138572 265.36419187178444 L 535.1194490192345 264.45190528383296" stroke-linecap="round" stroke-linejoin="round" stroke-miterlimit="10" stroke-width="2.5" stroke-opacity="0.9" stroke-dasharray=""/></g><g><path fill="none" stroke="#3072da" class="dcg-svg-curve" paint-order="fill stroke markers" d=" M 299.5 199.50000000000003 L 310.5 199.50000000000003 M 317.5 199.50000000000003 L 328.5 199.50000000000003 M 335.5 199.50000000000003 L 346.5 199.50000000000003 M 353.5 199.50000000000003 L 364.5 199.50000000000003 M 371.5 199.50000000000003 L 382.5 199.50000000000003 M 389.5 199.50000000000003 L 400.5 199.50000000000003 M 407.5 199.50000000000003 L 418.5 199.50000000000003 M 425.5 199.50000000000003 L 436.5 199.50000000000003 M 443.5 199.50000000000003 L 454.5 199.50000000000003 M 461.5 199.50000000000003 L 472.5 199.50000000000003 M 479.5 199.50000000000003 L 490.5 199.50000000000003 M 497.5 199.50000000000003 L 508.5 199.50000000000003 M 515.5 199.50000000000003 L 526.5 199.50000000000003 M 533.5 199.50000000000003 L 535.1194490192345 199.50000000000003" stroke-linecap="round" stroke-linejoin="round" stroke-miterlimit="10" stroke-width="2.5" stroke-opacity="0.9" stroke-dasharray=""/></g></g><g id="sketch-435de3c3"><title>k</title><path fill="none" stroke="#3072da" class="dcg-svg-point" paint-order="fill stroke markers" d=" M 535.0194490192345 199.40000000000003 L 535.0194490192345 199.60000000000002 L 535.2194490192345 199.60000000000002 L 535.2194490192345 199.40000000000003" stroke-linecap="round" stroke-linejoin="round" stroke-miterlimit="10" stroke-width="9" stroke-opacity="0.9" stroke-dasharray=""/></g><g id="sketch-435de3c3"><title>Expression 5</title><path fill="none" stroke="#3072da" class="dcg-svg-point" paint-order="fill stroke markers" d=" M 63.78055098076552 199.40000000000003 L 63.78055098076552 199.60000000000002 L 63.98055098076552 199.60000000000002 L 63.98055098076552 199.40000000000003" stroke-linecap="round" stroke-linejoin="round" stroke-miterlimit="10" stroke-width="9" stroke-opacity="0.9" stroke-dasharray=""/></g></g><g id="labels-435de3c3"><g transform="rotate(0,0,0) translate(535.6194490192345,200.00000000000003)"><g class="dcg-svg-label"><g transform="translate(-4.36163651923448,-28.50000000000003)"><g><text fill="none" stroke="#FFF" font-family="arial, sans-serif" font-size="15.4px" font-style="normal" font-weight="normal" text-decoration="normal" x="0" y="13.4888" text-anchor="start" stroke-linecap="round" stroke-linejoin="round" stroke-miterlimit="2" stroke-width="3" stroke-dasharray="">k</text></g></g><g transform="translate(-4.36163651923448,-28.50000000000003)"><g><text fill="rgb(48, 114, 218)" stroke="none" font-family="arial, sans-serif" font-size="15.4px" font-style="normal" font-weight="normal" text-decoration="normal" x="0" y="13.4888" text-anchor="start">k</text></g></g></g></g></g></g></svg>