<svg version="1.1" xmlns="http://www.w3.org/2000/svg" xmlns:xlink="http://www.w3.org/1999/xlink" width="600" height="400"><defs/><g transform="scale(1,1)"><g id="background-541eee2a"><rect fill="white" stroke="none" x="0" y="0" width="600" height="400" class="dcg-svg-background"/></g><g id="background-images-541eee2a"/><g id="graphpaper-541eee2a"><g id="grid-541eee2a"><g><path fill="none" stroke="rgb(0,0,0)" class="dcg-svg-minor-gridline" paint-order="fill stroke markers" d=" M -0.5 0 L -0.5 400" stroke-opacity="0.12" stroke-miterlimit="10" stroke-dasharray=""/><path fill="none" stroke="rgb(0,0,0)" class="dcg-svg-minor-gridline" paint-order="fill stroke markers" d=" M 29.5 0 L 29.5 400" stroke-opacity="0.12" stroke-miterlimit="10" stroke-dasharray=""/><path fill="none" stroke="rgb(0,0,0)" class="dcg-svg-minor-gridline" paint-order="fill stroke markers" d=" M 59.5 0 L 59.5 400" stroke-opacity="0.12" stroke-miterlimit="10" stroke-dasharray=""/><path fill="none" stroke="rgb(0,0,0)" class="dcg-svg-minor-gridline" paint-order="fill stroke markers" d=" M 89.5 0 L 89.5 400" stroke-opacity="0.12" stroke-miterlimit="10" stroke-dasharray=""/><path fill="none" stroke="rgb(0,0,0)" class="dcg-svg-minor-gridline" paint-order="fill stroke markers" d=" M 119.5 0 L 119.5 400" stroke-opacity="0.12" stroke-miterlimit="10" stroke-dasharray=""/><path fill="none" stroke="rgb(0,0,0)" class="dcg-svg-minor-gridline" paint-order="fill stroke markers" d=" M 149.5 0 L 149.5 400" stroke-opacity="0.12" stroke-miterlimit="10" stroke-dasharray=""/><path fill="none" stroke="rgb(0,0,0)" class="dcg-svg-minor-gridline" paint-order="fill stroke markers" d=" M 179.5 0 L 179.5 400" stroke-opacity="0.12" stroke-miterlimit="10" stroke-dasharray=""/><path fill="none" stroke="rgb(0,0,0)" class="dcg-svg-minor-gridline" paint-order="fill stroke markers" d=" M 209.5 0 L 209.5 400" stroke-opacity="0.12" stroke-miterlimit="10" stroke-dasharray=""/><path fill="none" stroke="rgb(0,0,0)" class="dcg-svg-minor-gridline" paint-order="fill stroke markers" d=" M 239.5 0 L 239.5 400" stroke-opacity="0.12" stroke-miterlimit="10" stroke-dasharray=""/><path fill="none" stroke="rgb(0,0,0)" class="dcg-svg-minor-gridline" paint-order="fill stroke markers" d=" M 269.5 0 L 269.5 400" stroke-opacity="0.12" stroke-miterlimit="10" stroke-dasharray=""/><path fill="none" stroke="rgb(0,0,0)" class="dcg-svg-minor-gridline" paint-order="fill stroke markers" d=" M 329.5 0 L 329.5 400" stroke-opacity="0.12" stroke-miterlimit="10" stroke-dasharray=""/><path fill="none" stroke="rgb(0,0,0)" class="dcg-svg-minor-gridline" paint-order="fill stroke markers" d=" M 359.5 0 L 359.5 400" stroke-opacity="0.12" stroke-miterlimit="10" stroke-dasharray=""/><path fill="none" stroke="rgb(0,0,0)" class="dcg-svg-minor-gridline" paint-order="fill stroke markers" d=" M 389.5 0 L 389.5 400" stroke-opacity="0.12" stroke-miterlimit="10" stroke-dasharray=""/><path fill="none" stroke="rgb(0,0,0)" class="dcg-svg-minor-gridline" paint-order="fill stroke markers" d=" M 419.5 0 L 419.5 400" stroke-opacity="0.12" stroke-miterlimit="10" stroke-dasharray=""/><path fill="none" stroke="rgb(0,0,0)" class="dcg-svg-minor-gridline" paint-order="fill stroke markers" d=" M 449.5 0 L 449.5 400" stroke-opacity="0.12" stroke-miterlimit="10" stroke-dasharray=""/><path fill="none" stroke="rgb(0,0,0)" class="dcg-svg-minor-gridline" paint-order="fill stroke markers" d=" M 479.5 0 L 479.5 400" stroke-opacity="0.12" stroke-miterlimit="10" stroke-dasharray=""/><path fill="none" stroke="rgb(0,0,0)" class="dcg-svg-minor-gridline" paint-order="fill stroke markers" d=" M 509.5 0 L 509.5 400" stroke-opacity="0.12" stroke-miterlimit="10" stroke-dasharray=""/><path fill="none" stroke="rgb(0,0,0)" class="dcg-svg-minor-gridline" paint-order="fill stroke markers" d=" M 539.5 0 L 539.5 400" stroke-opacity="0.12" stroke-miterlimit="10" stroke-dasharray=""/><path fill="none" stroke="rgb(0,0,0)" class="dcg-svg-minor-gridline" paint-order="fill stroke markers" d=" M 569.5 0 L 569.5 400" stroke-opacity="0.12" stroke-miterlimit="10" stroke-dasharray=""/><path fill="none" stroke="rgb(0,0,0)" class="dcg-svg-minor-gridline" paint-order="fill stroke markers" d=" M 0 370.5 L 600 370.5" stroke-opacity="0.12" stroke-miterlimit="10" stroke-dasharray=""/><path fill="none" stroke="rgb(0,0,0)" class="dcg-svg-minor-gridline" paint-order="fill stroke markers" d=" M 0 342.5 L 600 342.5" stroke-opacity="0.12" stroke-miterlimit="10" stroke-dasharray=""/><path fill="none" stroke="rgb(0,0,0)" class="dcg-svg-minor-gridline" paint-order="fill stroke markers" d=" M 0 313.5 L 600 313.5" stroke-opacity="0.12" stroke-miterlimit="10" stroke-dasharray=""/><path fill="none" stroke="rgb(0,0,0)" class="dcg-svg-minor-gridline" paint-order="fill stroke markers" d=" M 0 285.5 L 600 285.5" stroke-opacity="0.12" stroke-miterlimit="10" stroke-dasharray=""/><path fill="none" stroke="rgb(0,0,0)" class="dcg-svg-minor-gridline" paint-order="fill stroke markers" d=" M 0 256.5 L 600 256.5" stroke-opacity="0.12" stroke-miterlimit="10" stroke-dasharray=""/><path fill="none" stroke="rgb(0,0,0)" class="dcg-svg-minor-gridline" paint-order="fill stroke markers" d=" M 0 228.5 L 600 228.5" stroke-opacity="0.12" stroke-miterlimit="10" stroke-dasharray=""/><path fill="none" stroke="rgb(0,0,0)" class="dcg-svg-minor-gridline" paint-order="fill stroke markers" d=" M 0 170.5 L 600 170.5" stroke-opacity="0.12" stroke-miterlimit="10" stroke-dasharray=""/><path fill="none" stroke="rgb(0,0,0)" class="dcg-svg-minor-gridline" paint-order="fill stroke markers" d=" M 0 142.5 L 600 142.5" stroke-opacity="0.12" stroke-miterlimit="10" stroke-dasharray=""/><path fill="none" stroke="rgb(0,0,0)" class="dcg-svg-minor-gridline" paint-order="fill stroke markers" d=" M 0 113.5 L 600 113.5" stroke-opacity="0.12" stroke-miterlimit="10" stroke-dasharray=""/><path fill="none" stroke="rgb(0,0,0)" class="dcg-svg-minor-gridline" paint-order="fill stroke markers" d=" M 0 85.5 L 600 85.5" stroke-opacity="0.12" stroke-miterlimit="10" stroke-dasharray=""/><path fill="none" stroke="rgb(0,0,0)" class="dcg-svg-minor-gridline" paint-order="fill stroke markers" d=" M 0 56.5 L 600 56.5" stroke-opacity="0.12" stroke-miterlimit="10" stroke-dasharray=""/><path fill="none" stroke="rgb(0,0,0)" class="dcg-svg-minor-gridline" paint-order="fill stroke markers" d=" M 0 28.5 L 600 28.5" stroke-opacity="0.12" stroke-miterlimit="10" stroke-dasharray=""/><path fill="none" stroke="rgb(0,0,0)" class="dcg-svg-minor-gridline" paint-order="fill stroke markers" d=" M 0 -0.5 L 600 -0.5" stroke-opacity="0.12" stroke-miterlimit="10" stroke-dasharray=""/><path fill="none" stroke="rgb(0,0,0)" class="dcg-svg-major-gridline" paint-order="fill stroke markers" d=" M -0.5 0 L -0.5 400" stroke-opacity="0.31818181818181823" stroke-miterlimit="10" stroke-dasharray=""/><path fill="none" stroke="rgb(0,0,0)" class="dcg-svg-major-gridline" paint-order="fill stroke markers" d=" M 149.5 0 L 149.5 400" stroke-opacity="0.31818181818181823" stroke-miterlimit="10" stroke-dasharray=""/><path fill="none" stroke="rgb(0,0,0)" class="dcg-svg-major-gridline" paint-order="fill stroke markers" d=" M 449.5 0 L 449.5 400" stroke-opacity="0.31818181818181823" stroke-miterlimit="10" stroke-dasharray=""/><path fill="none" stroke="rgb(0,0,0)" class="dcg-svg-major-gridline" paint-order="fill stroke markers" d=" M 0 342.5 L 600 342.5" stroke-opacity="0.31818181818181823" stroke-miterlimit="10" stroke-dasharray=""/><path fill="none" stroke="rgb(0,0,0)" class="dcg-svg-major-gridline" paint-order="fill stroke markers" d=" M 0 56.5 L 600 56.5" stroke-opacity="0.31818181818181823" stroke-miterlimit="10" stroke-dasharray=""/></g></g><g id="axis-541eee2a"><g id="yaxis-541eee2a"><title>Y axis</title><path fill="none" stroke="rgb(0,0,0)" class="dcg-svg-axis-line" paint-order="fill stroke markers" d=" M 299.75 0 L 299.75 400" stroke-opacity="0.9" stroke-miterlimit="10" stroke-width="1.5" stroke-dasharray=""/></g><g id="xaxis-541eee2a"><title>X axis</title><path fill="none" stroke="rgb(0,0,0)" class="dcg-svg-axis-line" paint-order="fill stroke markers" d=" M 0 199.75 L 600 199.75" stroke-opacity="0.9" stroke-miterlimit="10" stroke-width="1.5" stroke-dasharray=""/></g><g><g class="dcg-svg-axis-value"><text fill="none" stroke="#ffffff" font-family="Arial" font-size="14px" font-style="normal" font-weight="normal" text-decoration="normal" x="291.10693359375" y="215.808" text-anchor="middle" stroke-miterlimit="2" stroke-width="3" stroke-dasharray="">0</text><text fill="#000000" stroke="none" font-family="Arial" font-size="14px" font-style="normal" font-weight="normal" text-decoration="normal" x="291.10693359375" y="215.808" text-anchor="middle">0</text></g><g class="dcg-svg-axis-value dcg-svg-offcenter-axis-value"><text fill="none" stroke="#ffffff" font-family="Arial" font-size="14px" font-style="normal" font-weight="normal" text-decoration="normal" x="13.1171875" y="215.808" text-anchor="middle" stroke-miterlimit="2" stroke-width="3" stroke-dasharray="">-10</text><text fill="#000000" stroke="none" font-family="Arial" font-size="14px" font-style="normal" font-weight="normal" text-decoration="normal" x="13.1171875" y="215.808" text-anchor="middle">-10</text></g><g class="dcg-svg-axis-value"><text fill="none" stroke="#ffffff" font-family="Arial" font-size="14px" font-style="normal" font-weight="normal" text-decoration="normal" x="147.6689453125" y="215.808" text-anchor="middle" stroke-miterlimit="2" stroke-width="3" stroke-dasharray="">-5</text><text fill="#000000" stroke="none" font-family="Arial" font-size="14px" font-style="normal" font-weight="normal" text-decoration="normal" x="147.6689453125" y="215.808" text-anchor="middle">-5</text></g><g class="dcg-svg-axis-value"><text fill="none" stroke="#ffffff" font-family="Arial" font-size="14px" font-style="normal" font-weight="normal" text-decoration="normal" x="450" y="215.808" text-anchor="middle" stroke-miterlimit="2" stroke-width="3" stroke-dasharray="">5</text><text fill="#000000" stroke="none" font-family="Arial" font-size="14px" font-style="normal" font-weight="normal" text-decoration="normal" x="450" y="215.808" text-anchor="middle">5</text></g><g class="dcg-svg-axis-value dcg-svg-offcenter-axis-value"><text fill="none" stroke="#ffffff" font-family="Arial" font-size="14px" font-style="normal" font-weight="normal" text-decoration="normal" x="589.2138671875" y="215.808" text-anchor="middle" stroke-miterlimit="2" stroke-width="3" stroke-dasharray="">10</text><text fill="#000000" stroke="none" font-family="Arial" font-size="14px" font-style="normal" font-weight="normal" text-decoration="normal" x="589.2138671875" y="215.808" text-anchor="middle">10</text></g><g class="dcg-svg-axis-value"><text fill="none" stroke="#ffffff" font-family="Arial" font-size="14px" font-style="normal" font-weight="normal" text-decoration="normal" x="288.77587890625" y="346.6651428571428" text-anchor="middle" stroke-miterlimit="2" stroke-width="3" stroke-dasharray="">-5</text><text fill="#000000" stroke="none" font-family="Arial" font-size="14px" font-style="normal" font-weight="normal" text-decoration="normal" x="288.77587890625" y="346.6651428571428" text-anchor="middle">-5</text></g><g class="dcg-svg-axis-value"><text fill="none" stroke="#ffffff" font-family="Arial" font-size="14px" font-style="normal" font-weight="normal" text-decoration="normal" x="291.10693359375" y="60.95085714285717" text-anchor="middle" stroke-miterlimit="2" stroke-width="3" stroke-dasharray="">5</text><text fill="#000000" stroke="none" font-family="Arial" font-size="14px" font-style="normal" font-weight="normal" text-decoration="normal" x="291.10693359375" y="60.95085714285717" text-anchor="middle">5</text></g></g></g></g><g id="expressions-541eee2a"><g id="sketch-541eee2a"><title>Expression 1</title><path fill="#2d70b3" stroke="none" paint-order="stroke fill markers" d="" fill-opacity="0.4"/><g><path fill="none" stroke="#2d70b3" class="dcg-svg-curve" paint-order="fill stroke markers" d=" M 11.156103961441996 -5.5 L 11.156103961441996 -5.5 L 14.587890625 33.44483565467908 L 21.1796875 106.32666247292593 L 25.8671875 154.9915253478879 L 29.822265625 193.08284424637122 L 33.337890625 224.15906070936188 L 36.560546875 250.02651931801722 L 39.490234375 271.16302141234365 L 42.126953125 288.12004621723315 L 44.6171875 302.25369952958425 L 46.9609375 313.8311857525296 L 49.01171875 322.5585291434967 L 50.916015625 329.4731308542577 L 52.673828125 334.8310304516604 L 54.28515625 338.87515177149453 L 55.896484375 342.0898211191715 L 57.361328125 344.29474372214474 L 58.6796875 345.69817120525505 L 59.8515625 346.48689691973345 L 60.876953125 346.8257148051041 L 61.755859375 346.857359533205 L 62.634765625 346.65223280163775 L 63.66015625 346.1166105351186 L 64.83203125 345.1184716718141 L 66.150390625 343.5110216340612 L 67.615234375 341.1349551466779 L 69.2265625 337.8213595503322 L 70.984375 333.3953524654097 L 72.888671875 327.6805368786884 L 74.939453125 320.50433730251615 L 77.13671875 311.7042511840102 L 79.626953125 300.4360689313438 L 82.41015625 286.3557644964158 L 85.486328125 269.1739900770874 L 89.001953125 247.76912599117978 L 93.25 219.92603047857875 L 98.81640625 181.29157354473907 L 112.439453125 85.88218738460392 L 116.98046875 56.64294946027803 L 120.7890625 34.00490452351556 L 124.158203125 15.717113700596201 L 127.234375 0.6333573744401519 L 128.63346020067257 -5.5 L 173.35343611972448 -5.5 L 173.5234375 -4.890436647396882 L 177.0390625 8.885921445462714 L 181.287109375 26.837817197293248 L 186.853515625 51.77290627892501 L 200.623046875 114.01000605445745 L 205.1640625 132.8773794590673 L 209.119140625 148.0535074352585 L 212.634765625 160.3666153388893 L 215.857421875 170.56434918125052 L 218.787109375 178.86264204411722 L 221.5703125 185.8472782512948 L 224.20703125 191.6337130265388 L 226.697265625 196.34651851519132 L 229.041015625 200.1133614242941 L 231.384765625 203.2368353759927 L 233.58203125 205.59031578117438 L 235.779296875 207.401086924859 L 237.68359375 208.5447539459109 L 239.44140625 209.26194054871397 L 241.19921875 209.66677182653072 L 242.810546875 209.77515719445634 L 244.568359375 209.62075709628124 L 246.326171875 209.19759401304412 L 248.23046875 208.4559473630473 L 250.28125 207.35398841775452 L 252.625 205.74815637562045 L 255.408203125 203.42532412691983 L 258.77734375 200.12424513238346 L 263.318359375 195.08616184034537 L 277.087890625 179.36813214843434 L 280.75 175.96637013443848 L 283.826171875 173.59785624053168 L 286.462890625 171.98674803004832 L 288.806640625 170.9156806621721 L 290.857421875 170.27783531154014 L 292.76171875 169.9484446502061 L 294.666015625 169.8813174279172 L 296.5703125 170.0831510164139 L 298.474609375 170.55846170139898 L 300.37890625 171.30955738371142 L 302.4296875 172.42690101641392 L 304.626953125 173.97584350072424 L 307.1171875 176.1621178958092 L 309.900390625 179.1273706627161 L 312.830078125 182.80922667310375 L 316.052734375 187.4658880929104 L 319.568359375 193.17942692309077 L 323.669921875 200.52058721197267 L 329.08984375 210.96804741815947 L 340.80859375 233.777645253428 L 344.763671875 240.6645345646087 L 348.1328125 245.8917639425472 L 351.0625 249.8383368270242 L 353.69921875 252.83550895412722 L 356.189453125 255.12671969445634 L 358.38671875 256.67509094959706 L 360.291015625 257.6346240249784 L 362.048828125 258.1898251297447 L 363.66015625 258.4096976933827 L 365.125 258.3627699229437 L 366.58984375 258.07548161312207 L 368.201171875 257.47672503878005 L 369.8125 256.57734343818936 L 371.5703125 255.2494418051394 L 373.62109375 253.23966256037102 L 375.818359375 250.5350902524161 L 378.015625 247.2635421513027 L 380.359375 243.15798775156102 L 382.849609375 238.11644533849937 L 385.486328125 232.04414426905046 L 388.416015625 224.46021235437775 L 391.4921875 215.62264303389188 L 395.0078125 204.54854954635866 L 398.962890625 191.05272001724305 L 403.943359375 172.9161963535615 L 420.349609375 112.2290931299026 L 424.01171875 100.32090407073326 L 427.234375 90.86509312185768 L 430.017578125 83.62944493820214 L 432.5078125 77.99218439156965 L 434.705078125 73.74343115249599 L 436.755859375 70.4410154600904 L 438.66015625 67.98438869627392 L 440.41796875 66.26506867866863 L 442.029296875 65.1709223233969 L 443.34765625 64.62990561024145 L 444.51953125 64.42351221116769 L 445.69140625 64.48080179115465 L 446.86328125 64.8064473645 L 448.03515625 65.40468698887315 L 449.353515625 66.40824346361507 L 450.96484375 68.11662683291837 L 452.576171875 70.36155197976836 L 454.333984375 73.42867688789454 L 456.23828125 77.48417972146154 L 458.142578125 82.30392513810563 L 460.193359375 88.34747487309306 L 462.390625 95.79703016476896 L 464.734375 104.83815104170685 L 467.224609375 115.654323922162 L 470.0078125 129.16773487401417 L 472.9375 144.93811338851063 L 476.16015625 163.99157271069782 L 479.67578125 186.62245109482257 L 483.630859375 214.07258559047025 L 488.318359375 248.77779786164507 L 494.763671875 298.95344527821015 L 506.3359375 389.34026306116726 L 508.5596268555674 405.5 L 569.5429110758622 405.5 L 570.49609375 397.52606597687884 L 574.158203125 364.36763745926214 L 578.40625 323.14907305781213 L 583.826171875 267.5225795145012 L 599.5 104.40704769507317" stroke-linecap="round" stroke-linejoin="round" stroke-miterlimit="10" stroke-width="2.5" stroke-opacity="0.9" stroke-dasharray=""/></g></g></g><g id="labels-541eee2a"/></g></svg>