<svg version="1.1" xmlns="http://www.w3.org/2000/svg" xmlns:xlink="http://www.w3.org/1999/xlink" width="600" height="400"><defs/><g transform="scale(1,1)"><g id="background-758dd8e4"><rect fill="white" stroke="none" x="0" y="0" width="600" height="400" class="dcg-svg-background"/></g><g id="background-images-758dd8e4"/><g id="graphpaper-758dd8e4"><g id="grid-758dd8e4"><g><path fill="none" stroke="rgb(0,0,0)" class="dcg-svg-minor-gridline" paint-order="fill stroke markers" d=" M -0.5 0 L -0.5 400" stroke-opacity="0.12" stroke-miterlimit="10" stroke-dasharray=""/><path fill="none" stroke="rgb(0,0,0)" class="dcg-svg-minor-gridline" paint-order="fill stroke markers" d=" M 37.5 0 L 37.5 400" stroke-opacity="0.12" stroke-miterlimit="10" stroke-dasharray=""/><path fill="none" stroke="rgb(0,0,0)" class="dcg-svg-minor-gridline" paint-order="fill stroke markers" d=" M 74.5 0 L 74.5 400" stroke-opacity="0.12" stroke-miterlimit="10" stroke-dasharray=""/><path fill="none" stroke="rgb(0,0,0)" class="dcg-svg-minor-gridline" paint-order="fill stroke markers" d=" M 112.5 0 L 112.5 400" stroke-opacity="0.12" stroke-miterlimit="10" stroke-dasharray=""/><path fill="none" stroke="rgb(0,0,0)" class="dcg-svg-minor-gridline" paint-order="fill stroke markers" d=" M 149.5 0 L 149.5 400" stroke-opacity="0.12" stroke-miterlimit="10" stroke-dasharray=""/><path fill="none" stroke="rgb(0,0,0)" class="dcg-svg-minor-gridline" paint-order="fill stroke markers" d=" M 187.5 0 L 187.5 400" stroke-opacity="0.12" stroke-miterlimit="10" stroke-dasharray=""/><path fill="none" stroke="rgb(0,0,0)" class="dcg-svg-minor-gridline" paint-order="fill stroke markers" d=" M 224.5 0 L 224.5 400" stroke-opacity="0.12" stroke-miterlimit="10" stroke-dasharray=""/><path fill="none" stroke="rgb(0,0,0)" class="dcg-svg-minor-gridline" paint-order="fill stroke markers" d=" M 262.5 0 L 262.5 400" stroke-opacity="0.12" stroke-miterlimit="10" stroke-dasharray=""/><path fill="none" stroke="rgb(0,0,0)" class="dcg-svg-minor-gridline" paint-order="fill stroke markers" d=" M 337.5 0 L 337.5 400" stroke-opacity="0.12" stroke-miterlimit="10" stroke-dasharray=""/><path fill="none" stroke="rgb(0,0,0)" class="dcg-svg-minor-gridline" paint-order="fill stroke markers" d=" M 374.5 0 L 374.5 400" stroke-opacity="0.12" stroke-miterlimit="10" stroke-dasharray=""/><path fill="none" stroke="rgb(0,0,0)" class="dcg-svg-minor-gridline" paint-order="fill stroke markers" d=" M 412.5 0 L 412.5 400" stroke-opacity="0.12" stroke-miterlimit="10" stroke-dasharray=""/><path fill="none" stroke="rgb(0,0,0)" class="dcg-svg-minor-gridline" paint-order="fill stroke markers" d=" M 449.5 0 L 449.5 400" stroke-opacity="0.12" stroke-miterlimit="10" stroke-dasharray=""/><path fill="none" stroke="rgb(0,0,0)" class="dcg-svg-minor-gridline" paint-order="fill stroke markers" d=" M 487.5 0 L 487.5 400" stroke-opacity="0.12" stroke-miterlimit="10" stroke-dasharray=""/><path fill="none" stroke="rgb(0,0,0)" class="dcg-svg-minor-gridline" paint-order="fill stroke markers" d=" M 524.5 0 L 524.5 400" stroke-opacity="0.12" stroke-miterlimit="10" stroke-dasharray=""/><path fill="none" stroke="rgb(0,0,0)" class="dcg-svg-minor-gridline" paint-order="fill stroke markers" d=" M 562.5 0 L 562.5 400" stroke-opacity="0.12" stroke-miterlimit="10" stroke-dasharray=""/><path fill="none" stroke="rgb(0,0,0)" class="dcg-svg-minor-gridline" paint-order="fill stroke markers" d=" M 0 387.5 L 600 387.5" stroke-opacity="0.12" stroke-miterlimit="10" stroke-dasharray=""/><path fill="none" stroke="rgb(0,0,0)" class="dcg-svg-minor-gridline" paint-order="fill stroke markers" d=" M 0 349.5 L 600 349.5" stroke-opacity="0.12" stroke-miterlimit="10" stroke-dasharray=""/><path fill="none" stroke="rgb(0,0,0)" class="dcg-svg-minor-gridline" paint-order="fill stroke markers" d=" M 0 312.5 L 600 312.5" stroke-opacity="0.12" stroke-miterlimit="10" stroke-dasharray=""/><path fill="none" stroke="rgb(0,0,0)" class="dcg-svg-minor-gridline" paint-order="fill stroke markers" d=" M 0 274.5 L 600 274.5" stroke-opacity="0.12" stroke-miterlimit="10" stroke-dasharray=""/><path fill="none" stroke="rgb(0,0,0)" class="dcg-svg-minor-gridline" paint-order="fill stroke markers" d=" M 0 237.5 L 600 237.5" stroke-opacity="0.12" stroke-miterlimit="10" stroke-dasharray=""/><path fill="none" stroke="rgb(0,0,0)" class="dcg-svg-minor-gridline" paint-order="fill stroke markers" d=" M 0 162.5 L 600 162.5" stroke-opacity="0.12" stroke-miterlimit="10" stroke-dasharray=""/><path fill="none" stroke="rgb(0,0,0)" class="dcg-svg-minor-gridline" paint-order="fill stroke markers" d=" M 0 124.5 L 600 124.5" stroke-opacity="0.12" stroke-miterlimit="10" stroke-dasharray=""/><path fill="none" stroke="rgb(0,0,0)" class="dcg-svg-minor-gridline" paint-order="fill stroke markers" d=" M 0 87.5 L 600 87.5" stroke-opacity="0.12" stroke-miterlimit="10" stroke-dasharray=""/><path fill="none" stroke="rgb(0,0,0)" class="dcg-svg-minor-gridline" paint-order="fill stroke markers" d=" M 0 49.5 L 600 49.5" stroke-opacity="0.12" stroke-miterlimit="10" stroke-dasharray=""/><path fill="none" stroke="rgb(0,0,0)" class="dcg-svg-minor-gridline" paint-order="fill stroke markers" d=" M 0 12.5 L 600 12.5" stroke-opacity="0.12" stroke-miterlimit="10" stroke-dasharray=""/><path fill="none" stroke="rgb(0,0,0)" class="dcg-svg-major-gridline" paint-order="fill stroke markers" d=" M -0.5 0 L -0.5 400" stroke-opacity="0.31818181818181823" stroke-miterlimit="10" stroke-dasharray=""/><path fill="none" stroke="rgb(0,0,0)" class="dcg-svg-major-gridline" paint-order="fill stroke markers" d=" M 149.5 0 L 149.5 400" stroke-opacity="0.31818181818181823" stroke-miterlimit="10" stroke-dasharray=""/><path fill="none" stroke="rgb(0,0,0)" class="dcg-svg-major-gridline" paint-order="fill stroke markers" d=" M 449.5 0 L 449.5 400" stroke-opacity="0.31818181818181823" stroke-miterlimit="10" stroke-dasharray=""/><path fill="none" stroke="rgb(0,0,0)" class="dcg-svg-major-gridline" paint-order="fill stroke markers" d=" M 0 349.5 L 600 349.5" stroke-opacity="0.31818181818181823" stroke-miterlimit="10" stroke-dasharray=""/><path fill="none" stroke="rgb(0,0,0)" class="dcg-svg-major-gridline" paint-order="fill stroke markers" d=" M 0 49.5 L 600 49.5" stroke-opacity="0.31818181818181823" stroke-miterlimit="10" stroke-dasharray=""/></g></g><g id="axis-758dd8e4"><g id="yaxis-758dd8e4"><title>Y axis</title><path fill="none" stroke="rgb(0,0,0)" class="dcg-svg-axis-line" paint-order="fill stroke markers" d=" M 299.75 0 L 299.75 400" stroke-opacity="0.9" stroke-miterlimit="10" stroke-width="1.5" stroke-dasharray=""/></g><g id="xaxis-758dd8e4"><title>X axis</title><path fill="none" stroke="rgb(0,0,0)" class="dcg-svg-axis-line" paint-order="fill stroke markers" d=" M 0 199.75 L 600 199.75" stroke-opacity="0.9" stroke-miterlimit="10" stroke-width="1.5" stroke-dasharray=""/></g><g><g class="dcg-svg-axis-value"><text fill="none" stroke="#ffffff" font-family="Arial" font-size="14px" font-style="normal" font-weight="normal" text-decoration="normal" x="291.10693359375" y="215.80800000000002" text-anchor="middle" stroke-miterlimit="2" stroke-width="3" stroke-dasharray="">0</text><text fill="#000000" stroke="none" font-family="Arial" font-size="14px" font-style="normal" font-weight="normal" text-decoration="normal" x="291.10693359375" y="215.80800000000002" text-anchor="middle">0</text></g><g class="dcg-svg-axis-value dcg-svg-offcenter-axis-value"><text fill="none" stroke="#ffffff" font-family="Arial" font-size="14px" font-style="normal" font-weight="normal" text-decoration="normal" x="9.22412109375" y="215.80800000000002" text-anchor="middle" stroke-miterlimit="2" stroke-width="3" stroke-dasharray="">-4</text><text fill="#000000" stroke="none" font-family="Arial" font-size="14px" font-style="normal" font-weight="normal" text-decoration="normal" x="9.22412109375" y="215.80800000000002" text-anchor="middle">-4</text></g><g class="dcg-svg-axis-value"><text fill="none" stroke="#ffffff" font-family="Arial" font-size="14px" font-style="normal" font-weight="normal" text-decoration="normal" x="147.6689453125" y="215.80800000000002" text-anchor="middle" stroke-miterlimit="2" stroke-width="3" stroke-dasharray="">-2</text><text fill="#000000" stroke="none" font-family="Arial" font-size="14px" font-style="normal" font-weight="normal" text-decoration="normal" x="147.6689453125" y="215.80800000000002" text-anchor="middle">-2</text></g><g class="dcg-svg-axis-value"><text fill="none" stroke="#ffffff" font-family="Arial" font-size="14px" font-style="normal" font-weight="normal" text-decoration="normal" x="450" y="215.80800000000002" text-anchor="middle" stroke-miterlimit="2" stroke-width="3" stroke-dasharray="">2</text><text fill="#000000" stroke="none" font-family="Arial" font-size="14px" font-style="normal" font-weight="normal" text-decoration="normal" x="450" y="215.80800000000002" text-anchor="middle">2</text></g><g class="dcg-svg-axis-value dcg-svg-offcenter-axis-value"><text fill="none" stroke="#ffffff" font-family="Arial" font-size="14px" font-style="normal" font-weight="normal" text-decoration="normal" x="593.10693359375" y="215.80800000000002" text-anchor="middle" stroke-miterlimit="2" stroke-width="3" stroke-dasharray="">4</text><text fill="#000000" stroke="none" font-family="Arial" font-size="14px" font-style="normal" font-weight="normal" text-decoration="normal" x="593.10693359375" y="215.80800000000002" text-anchor="middle">4</text></g><g class="dcg-svg-axis-value"><text fill="none" stroke="#ffffff" font-family="Arial" font-size="14px" font-style="normal" font-weight="normal" text-decoration="normal" x="288.77587890625" y="353.808" text-anchor="middle" stroke-miterlimit="2" stroke-width="3" stroke-dasharray="">-2</text><text fill="#000000" stroke="none" font-family="Arial" font-size="14px" font-style="normal" font-weight="normal" text-decoration="normal" x="288.77587890625" y="353.808" text-anchor="middle">-2</text></g><g class="dcg-svg-axis-value"><text fill="none" stroke="#ffffff" font-family="Arial" font-size="14px" font-style="normal" font-weight="normal" text-decoration="normal" x="291.10693359375" y="53.80800000000006" text-anchor="middle" stroke-miterlimit="2" stroke-width="3" stroke-dasharray="">2</text><text fill="#000000" stroke="none" font-family="Arial" font-size="14px" font-style="normal" font-weight="normal" text-decoration="normal" x="291.10693359375" y="53.80800000000006" text-anchor="middle">2</text></g></g></g></g><g id="expressions-758dd8e4"><g id="sketch-758dd8e4"><title>Expression 1</title><path fill="#2d70b3" stroke="none" paint-order="stroke fill markers" d="" fill-opacity="0.4"/><g><path fill="none" stroke="#2d70b3" class="dcg-svg-curve" paint-order="fill stroke markers" d=" M 63.88055098076552 134.5480947161671 L 63.88055098076552 134.5480947161671 L 71.79068479925394 132.074044593478 L 79.40785069853912 130.00641905991085 L 86.87853263822268 128.28783986747698 L 94.20273061830457 126.9076578573547 L 101.38044463878482 125.85345820340774 L 108.55815865926509 125.09894857416612 L 115.58938872014367 124.65337812018572 L 122.62061878102232 124.50008046579973 L 129.6518488419009 124.63965423167383 L 136.68307890277956 125.0715543883295 L 143.7143089636581 125.79409438445987 L 150.89202298413838 126.82853612862982 L 158.21622096422033 128.18888945702133 L 165.54041894430222 129.85139021392928 L 173.15758484358733 131.8933235046885 L 180.92123470247412 134.2932673714633 L 188.97785248056422 137.11181802772904 L 197.32743817785757 140.37014572546576 L 205.9699917943542 144.08545887041964 L 215.05199728965576 148.34149358400055 L 224.71993862336387 153.23758463384473 L 234.97381579547852 158.802682582479 L 246.25308068480467 165.31265363585402 L 258.8507012105455 172.9863036223786 L 273.6455811303109 182.4150454575486 L 294.1533354745402 195.93689867309257 L 329.4559697385349 219.23548682529224 L 344.54381757750366 228.7332792314607 L 357.1414381032445 236.26821228300466 L 368.42070299257057 242.62649248292723 L 378.82106412428686 248.1068854316632 L 388.48900545799495 252.82996287125667 L 397.5710109532966 256.90884526885293 L 406.21356456979316 260.4434972297405 L 414.5631502670865 263.5171153773358 L 422.6197680451766 266.1489236588943 L 430.38341790406344 268.36190956698664 L 438.0005838033486 270.2145993267977 L 445.32478178343047 271.69051762580773 L 452.6489797635124 272.86056242070566 L 459.8266937839926 273.7056637993136 L 466.8579238448712 274.2407505577218 L 473.8891539057498 274.4839779394388 L 480.9203839666285 274.43439615212895 L 487.95161402750705 274.09219881051314 L 494.9828440883857 273.4587221803109 L 502.160558108866 272.5141785139877 L 509.33827212934625 271.2725181001717 L 516.6624701094281 269.70449381324715 L 524.1331520491117 267.79871932760403 L 531.7503179483969 265.54565649437586 L 535.1194490192345 264.45190528383296" stroke-linecap="round" stroke-linejoin="round" stroke-miterlimit="10" stroke-width="2.5" stroke-opacity="0.9" stroke-dasharray=""/></g></g><g id="sketch-758dd8e4"><title>Expression 2</title><path fill="#388c46" stroke="none" paint-order="stroke fill markers" d="" fill-opacity="0.4"/><path fill="#388c46" stroke="none" paint-order="stroke fill markers" d="" fill-opacity="0.4"/><path fill="#388c46" stroke="none" class="dcg-svg-region" paint-order="stroke fill markers" d=" M 63.88055098076552 199.50000000000003 L 299.5 199.50000000000003 L 299.5 199.50000000000003 L 293.93359375 195.79057649339634 L 273.572265625 182.3674571553919 L 258.77734375 172.94056215629365 L 246.1796875 165.26911105203814 L 234.900390625 158.7615745650847 L 224.646484375 153.19905086578137 L 214.978515625 148.30568236475887 L 205.896484375 144.05244830912378 L 197.25390625 140.34000215829184 L 188.904296875 137.0846152086305 L 180.84765625 134.26904613293135 L 173.083984375 131.87209487700892 L 165.466796875 129.83319781278925 L 158.142578125 128.1736970038229 L 150.818359375 126.81640970769502 L 143.640625 125.7850243030278 L 136.609375 125.06551579059595 L 129.578125 124.63667234608914 L 122.546875 124.50016859398079 L 115.515625 124.65653757850168 L 108.484375 125.10516868211363 L 101.306640625 125.86277928461385 L 94.12890625 126.92004368045366 L 86.8046875 128.30330266264525 L 79.333984375 130.02495454514064 L 71.716796875 132.09563058961362 L 63.88055098076552 134.5480947161671" fill-opacity="0.4"/><g><path fill="none" stroke="#388c46" class="dcg-svg-curve" paint-order="fill stroke markers" d=" M 63.88055098076552 199.50000000000003 L 74.88055098076552 199.50000000000003 M 81.88055098076552 199.50000000000003 L 92.88055098076552 199.50000000000003 M 99.88055098076552 199.50000000000003 L 110.88055098076552 199.50000000000003 M 117.88055098076552 199.50000000000003 L 128.88055098076552 199.50000000000003 M 135.88055098076552 199.50000000000003 L 146.88055098076552 199.50000000000003 M 153.88055098076552 199.50000000000003 L 164.88055098076552 199.50000000000003 M 171.88055098076552 199.50000000000003 L 182.88055098076552 199.50000000000003 M 189.88055098076552 199.50000000000003 L 200.88055098076552 199.50000000000003 M 207.88055098076552 199.50000000000003 L 218.88055098076552 199.50000000000003 M 225.88055098076552 199.50000000000003 L 236.88055098076552 199.50000000000003 M 243.88055098076552 199.50000000000003 L 254.88055098076552 199.50000000000003 M 261.8805509807655 199.50000000000003 L 272.8805509807655 199.50000000000003 M 279.8805509807655 199.50000000000003 L 290.8805509807655 199.50000000000003 M 297.8805509807655 199.50000000000003 L 299.5 199.50000000000003" stroke-linecap="round" stroke-linejoin="round" stroke-miterlimit="10" stroke-width="2.5" stroke-opacity="0.9" stroke-dasharray=""/></g><g><path fill="none" stroke="#388c46" class="dcg-svg-curve" paint-order="fill stroke markers" d=" M 63.88055098076552 134.5480947161671 L 71.716796875 132.09563058961362 M 71.716796875 132.09563058961362 L 74.40807911647565 131.36402543136603 M 81.1809050270367 129.59932467279867 L 86.8046875 128.30330266264525 M 86.8046875 128.30330266264525 L 91.94267109430602 127.33293815009205 M 98.85304888284766 126.22418792073438 L 101.306640625 125.86277928461385 M 101.306640625 125.86277928461385 L 108.484375 125.10516868211363 M 108.484375 125.10516868211363 L 109.78405927724971 125.02224192063457 M 116.77209351418779 124.6285947936987 L 122.546875 124.50016859398079 M 122.546875 124.50016859398079 L 127.7696815057663 124.60156346467562 M 134.75971216451956 124.95270287944308 L 136.609375 125.06551579059595 M 136.609375 125.06551579059595 L 143.640625 125.7850243030278 M 143.640625 125.7850243030278 L 145.69842162860013 126.08071390334288 M 152.61524127500593 127.14939880301937 L 158.142578125 128.1736970038229 M 158.142578125 128.1736970038229 L 163.38817155223873 129.36222875487297 M 170.16991480986428 131.0920841602861 L 173.083984375 131.87209487700892 M 173.083984375 131.87209487700892 L 180.71204771606702 134.2271784379852 M 187.32177351388765 136.5315678475141 L 188.904296875 137.0846152086305 M 188.904296875 137.0846152086305 L 197.25390625 140.34000215829184 M 197.25390625 140.34000215829184 L 197.58637265648113 140.482814130966 M 204.0180996292115 143.24558233482472 L 205.896484375 144.05244830912378 M 205.896484375 144.05244830912378 L 214.0068200845736 147.8506246303726 M 220.26675368535382 150.98228364674415 L 224.646484375 153.19905086578137 M 224.646484375 153.19905086578137 L 230.00062586283616 156.10355751811318 M 236.13530510274236 159.47405257778667 L 245.66325519999268 164.97115790189207 M 251.64914819595683 168.59978617628437 L 258.77734375 172.94056215629365 M 258.77734375 172.94056215629365 L 261.0157140360428 174.3667867645684 M 266.9191846762183 178.12830698923628 L 273.572265625 182.3674571553919 M 273.572265625 182.3674571553919 L 276.16976492453796 184.0798475684353 M 282.0140564747201 187.93267202284136 L 291.19794319643495 193.98711045119376 M 297.0320176180328 197.85534967259122 L 299.5 199.50000000000003" stroke-linecap="round" stroke-linejoin="round" stroke-miterlimit="10" stroke-width="2.5" stroke-opacity="0.9" stroke-dasharray=""/></g></g><g id="sketch-758dd8e4"><title>Expression 3</title><path fill="#6042a6" stroke="none" paint-order="stroke fill markers" d="" fill-opacity="0.4"/><path fill="#6042a6" stroke="none" paint-order="stroke fill markers" d="" fill-opacity="0.4"/><path fill="#6042a6" stroke="none" paint-order="stroke fill markers" d="" fill-opacity="0.4"/><path fill="#6042a6" stroke="none" class="dcg-svg-region" paint-order="stroke fill markers" d=" M 299.5 199.50000000000003 L 328.34837256481615 218.5221665871783 L 343.7244087034237 228.2294407764473 L 356.46455293255576 235.87424008477788 L 367.7403127675347 242.25460331274962 L 378.1374419660217 247.75890961404053 L 387.80237896743216 252.50711536857207 L 396.8815622111814 256.611998361691 L 405.5214301366847 260.1734053044454 L 413.86842118335744 263.27459738317606 L 421.9225353511995 265.93448630495686 L 429.683772640211 268.1757735675626 L 437.2985714898071 270.05729005561835 L 444.7669318999879 271.58879398650095 L 452.0888538707535 272.7820037566398 L 459.26433740210365 273.6503175070293 L 466.29338249403855 274.2085436504672 L 473.32242758597346 274.4752174102508 L 480.3514726779084 274.449298083851 L 487.3805177698432 274.1308868222341 L 494.40956286177817 273.52122623511764 L 501.58504639312844 272.60092755329674 L 508.7605299244786 271.38334390319636 L 516.0824518952442 269.8396094619051 L 523.550812305425 267.9582108340214 L 531.1656111550211 265.72947019553135 L 535.1194490192345 264.45190528383296 L 535.1194490192345 -0.49999999999994316 L 299.5 -0.49999999999994316 L 299.5 199.50000000000003" fill-opacity="0.4"/><path fill="#6042a6" stroke="none" paint-order="stroke fill markers" d="" fill-opacity="0.4"/><g><path fill="none" stroke="#6042a6" class="dcg-svg-curve" paint-order="fill stroke markers" d=" M 299.5 199.50000000000003 L 308.6833016738123 205.55532578543517 M 314.5272209207838 209.40871492162117 L 323.7105225945961 215.4640407070563 M 329.56995790595454 219.2933838076066 L 338.87140262743594 225.16561729182925 M 344.80548925210326 228.87814958869893 L 354.237678617599 234.53799090921572 M 360.2965854853362 238.0425870472863 L 367.7403127675347 242.25460331274962 M 367.7403127675347 242.25460331274962 L 369.9031353253594 243.39961532581003 M 376.08966457157 246.67480324191214 L 378.1374419660217 247.75890961404053 M 378.1374419660217 247.75890961404053 L 385.9307042946927 251.58759603281072 M 392.28059436303676 254.53180742769496 L 396.8815622111814 256.611998361691 M 396.8815622111814 256.611998361691 L 402.38312741870266 258.8797775332043 M 408.901229967978 261.4291163032825 L 413.86842118335744 263.27459738317606 M 413.86842118335744 263.27459738317606 L 419.28190251492884 265.06241150177976 M 425.9759937387242 267.1050425339649 L 429.683772640211 268.1757735675626 M 429.683772640211 268.1757735675626 L 436.61600830320657 269.88863768342907 M 443.46711711593 271.32224666662466 L 444.7669318999879 271.58879398650095 M 444.7669318999879 271.58879398650095 L 452.0888538707535 272.7820037566398 M 452.0888538707535 272.7820037566398 L 454.3271517270627 273.05286282803326 M 461.2847722605412 273.8107745170984 L 466.29338249403855 274.2085436504672 M 466.29338249403855 274.2085436504672 L 472.26470637611277 274.43508870312957 M 479.26390503761365 274.45330844660754 L 480.3514726779084 274.449298083851 M 480.3514726779084 274.449298083851 L 487.3805177698432 274.1308868222341 M 487.3805177698432 274.1308868222341 L 490.2459315523295 273.8823566412332 M 497.20738203049655 273.1623891920536 L 501.58504639312844 272.60092755329674 M 501.58504639312844 272.60092755329674 L 508.07869925815737 271.499041454145 M 514.9332484458861 270.08190444290983 L 516.0824518952442 269.8396094619051 M 516.0824518952442 269.8396094619051 L 523.550812305425 267.9582108340214 M 523.550812305425 267.9582108340214 L 525.5891389667222 267.36162232862813 M 532.2975675747969 265.3637122021229 L 535.1194490192345 264.45190528383296" stroke-linecap="round" stroke-linejoin="round" stroke-miterlimit="10" stroke-width="2.5" stroke-opacity="0.9" stroke-dasharray=""/></g></g></g><g id="labels-758dd8e4"/></g></svg>