<svg version="1.1" xmlns="http://www.w3.org/2000/svg" xmlns:xlink="http://www.w3.org/1999/xlink" width="600" height="400"><defs/><g transform="scale(1,1)"><g id="background-5fa5cf41"><rect fill="white" stroke="none" x="0" y="0" width="600" height="400" class="dcg-svg-background"/></g><g id="background-images-5fa5cf41"/><g id="graphpaper-5fa5cf41"><g id="grid-5fa5cf41"><g><path fill="none" stroke="rgb(0,0,0)" class="dcg-svg-minor-gridline" paint-order="fill stroke markers" d=" M -0.5 0 L -0.5 400" stroke-opacity="0.12" stroke-miterlimit="10" stroke-dasharray=""/><path fill="none" stroke="rgb(0,0,0)" class="dcg-svg-minor-gridline" paint-order="fill stroke markers" d=" M 29.5 0 L 29.5 400" stroke-opacity="0.12" stroke-miterlimit="10" stroke-dasharray=""/><path fill="none" stroke="rgb(0,0,0)" class="dcg-svg-minor-gridline" paint-order="fill stroke markers" d=" M 59.5 0 L 59.5 400" stroke-opacity="0.12" stroke-miterlimit="10" stroke-dasharray=""/><path fill="none" stroke="rgb(0,0,0)" class="dcg-svg-minor-gridline" paint-order="fill stroke markers" d=" M 89.5 0 L 89.5 400" stroke-opacity="0.12" stroke-miterlimit="10" stroke-dasharray=""/><path fill="none" stroke="rgb(0,0,0)" class="dcg-svg-minor-gridline" paint-order="fill stroke markers" d=" M 119.5 0 L 119.5 400" stroke-opacity="0.12" stroke-miterlimit="10" stroke-dasharray=""/><path fill="none" stroke="rgb(0,0,0)" class="dcg-svg-minor-gridline" paint-order="fill stroke markers" d=" M 149.5 0 L 149.5 400" stroke-opacity="0.12" stroke-miterlimit="10" stroke-dasharray=""/><path fill="none" stroke="rgb(0,0,0)" class="dcg-svg-minor-gridline" paint-order="fill stroke markers" d=" M 179.5 0 L 179.5 400" stroke-opacity="0.12" stroke-miterlimit="10" stroke-dasharray=""/><path fill="none" stroke="rgb(0,0,0)" class="dcg-svg-minor-gridline" paint-order="fill stroke markers" d=" M 209.5 0 L 209.5 400" stroke-opacity="0.12" stroke-miterlimit="10" stroke-dasharray=""/><path fill="none" stroke="rgb(0,0,0)" class="dcg-svg-minor-gridline" paint-order="fill stroke markers" d=" M 239.5 0 L 239.5 400" stroke-opacity="0.12" stroke-miterlimit="10" stroke-dasharray=""/><path fill="none" stroke="rgb(0,0,0)" class="dcg-svg-minor-gridline" paint-order="fill stroke markers" d=" M 269.5 0 L 269.5 400" stroke-opacity="0.12" stroke-miterlimit="10" stroke-dasharray=""/><path fill="none" stroke="rgb(0,0,0)" class="dcg-svg-minor-gridline" paint-order="fill stroke markers" d=" M 329.5 0 L 329.5 400" stroke-opacity="0.12" stroke-miterlimit="10" stroke-dasharray=""/><path fill="none" stroke="rgb(0,0,0)" class="dcg-svg-minor-gridline" paint-order="fill stroke markers" d=" M 359.5 0 L 359.5 400" stroke-opacity="0.12" stroke-miterlimit="10" stroke-dasharray=""/><path fill="none" stroke="rgb(0,0,0)" class="dcg-svg-minor-gridline" paint-order="fill stroke markers" d=" M 389.5 0 L 389.5 400" stroke-opacity="0.12" stroke-miterlimit="10" stroke-dasharray=""/><path fill="none" stroke="rgb(0,0,0)" class="dcg-svg-minor-gridline" paint-order="fill stroke markers" d=" M 419.5 0 L 419.5 400" stroke-opacity="0.12" stroke-miterlimit="10" stroke-dasharray=""/><path fill="none" stroke="rgb(0,0,0)" class="dcg-svg-minor-gridline" paint-order="fill stroke markers" d=" M 449.5 0 L 449.5 400" stroke-opacity="0.12" stroke-miterlimit="10" stroke-dasharray=""/><path fill="none" stroke="rgb(0,0,0)" class="dcg-svg-minor-gridline" paint-order="fill stroke markers" d=" M 479.5 0 L 479.5 400" stroke-opacity="0.12" stroke-miterlimit="10" stroke-dasharray=""/><path fill="none" stroke="rgb(0,0,0)" class="dcg-svg-minor-gridline" paint-order="fill stroke markers" d=" M 509.5 0 L 509.5 400" stroke-opacity="0.12" stroke-miterlimit="10" stroke-dasharray=""/><path fill="none" stroke="rgb(0,0,0)" class="dcg-svg-minor-gridline" paint-order="fill stroke markers" d=" M 539.5 0 L 539.5 400" stroke-opacity="0.12" stroke-miterlimit="10" stroke-dasharray=""/><path fill="none" stroke="rgb(0,0,0)" class="dcg-svg-minor-gridline" paint-order="fill stroke markers" d=" M 569.5 0 L 569.5 400" stroke-opacity="0.12" stroke-miterlimit="10" stroke-dasharray=""/><path fill="none" stroke="rgb(0,0,0)" class="dcg-svg-minor-gridline" paint-order="fill stroke markers" d=" M 0 370.5 L 600 370.5" stroke-opacity="0.12" stroke-miterlimit="10" stroke-dasharray=""/><path fill="none" stroke="rgb(0,0,0)" class="dcg-svg-minor-gridline" paint-order="fill stroke markers" d=" M 0 342.5 L 600 342.5" stroke-opacity="0.12" stroke-miterlimit="10" stroke-dasharray=""/><path fill="none" stroke="rgb(0,0,0)" class="dcg-svg-minor-gridline" paint-order="fill stroke markers" d=" M 0 313.5 L 600 313.5" stroke-opacity="0.12" stroke-miterlimit="10" stroke-dasharray=""/><path fill="none" stroke="rgb(0,0,0)" class="dcg-svg-minor-gridline" paint-order="fill stroke markers" d=" M 0 285.5 L 600 285.5" stroke-opacity="0.12" stroke-miterlimit="10" stroke-dasharray=""/><path fill="none" stroke="rgb(0,0,0)" class="dcg-svg-minor-gridline" paint-order="fill stroke markers" d=" M 0 256.5 L 600 256.5" stroke-opacity="0.12" stroke-miterlimit="10" stroke-dasharray=""/><path fill="none" stroke="rgb(0,0,0)" class="dcg-svg-minor-gridline" paint-order="fill stroke markers" d=" M 0 228.5 L 600 228.5" stroke-opacity="0.12" stroke-miterlimit="10" stroke-dasharray=""/><path fill="none" stroke="rgb(0,0,0)" class="dcg-svg-minor-gridline" paint-order="fill stroke markers" d=" M 0 170.5 L 600 170.5" stroke-opacity="0.12" stroke-miterlimit="10" stroke-dasharray=""/><path fill="none" stroke="rgb(0,0,0)" class="dcg-svg-minor-gridline" paint-order="fill stroke markers" d=" M 0 142.5 L 600 142.5" stroke-opacity="0.12" stroke-miterlimit="10" stroke-dasharray=""/><path fill="none" stroke="rgb(0,0,0)" class="dcg-svg-minor-gridline" paint-order="fill stroke markers" d=" M 0 113.5 L 600 113.5" stroke-opacity="0.12" stroke-miterlimit="10" stroke-dasharray=""/><path fill="none" stroke="rgb(0,0,0)" class="dcg-svg-minor-gridline" paint-order="fill stroke markers" d=" M 0 85.5 L 600 85.5" stroke-opacity="0.12" stroke-miterlimit="10" stroke-dasharray=""/><path fill="none" stroke="rgb(0,0,0)" class="dcg-svg-minor-gridline" paint-order="fill stroke markers" d=" M 0 56.5 L 600 56.5" stroke-opacity="0.12" stroke-miterlimit="10" stroke-dasharray=""/><path fill="none" stroke="rgb(0,0,0)" class="dcg-svg-minor-gridline" paint-order="fill stroke markers" d=" M 0 28.5 L 600 28.5" stroke-opacity="0.12" stroke-miterlimit="10" stroke-dasharray=""/><path fill="none" stroke="rgb(0,0,0)" class="dcg-svg-minor-gridline" paint-order="fill stroke markers" d=" M 0 -0.5 L 600 -0.5" stroke-opacity="0.12" stroke-miterlimit="10" stroke-dasharray=""/><path fill="none" stroke="rgb(0,0,0)" class="dcg-svg-major-gridline" paint-order="fill stroke markers" d=" M -0.5 0 L -0.5 400" stroke-opacity="0.31818181818181823" stroke-miterlimit="10" stroke-dasharray=""/><path fill="none" stroke="rgb(0,0,0)" class="dcg-svg-major-gridline" paint-order="fill stroke markers" d=" M 149.5 0 L 149.5 400" stroke-opacity="0.31818181818181823" stroke-miterlimit="10" stroke-dasharray=""/><path fill="none" stroke="rgb(0,0,0)" class="dcg-svg-major-gridline" paint-order="fill stroke markers" d=" M 449.5 0 L 449.5 400" stroke-opacity="0.31818181818181823" stroke-miterlimit="10" stroke-dasharray=""/><path fill="none" stroke="rgb(0,0,0)" class="dcg-svg-major-gridline" paint-order="fill stroke markers" d=" M 0 342.5 L 600 342.5" stroke-opacity="0.31818181818181823" stroke-miterlimit="10" stroke-dasharray=""/><path fill="none" stroke="rgb(0,0,0)" class="dcg-svg-major-gridline" paint-order="fill stroke markers" d=" M 0 56.5 L 600 56.5" stroke-opacity="0.31818181818181823" stroke-miterlimit="10" stroke-dasharray=""/></g></g><g id="axis-5fa5cf41"><g id="yaxis-5fa5cf41"><title>Y axis</title><path fill="none" stroke="rgb(0,0,0)" class="dcg-svg-axis-line" paint-order="fill stroke markers" d=" M 299.75 0 L 299.75 400" stroke-opacity="0.9" stroke-miterlimit="10" stroke-width="1.5" stroke-dasharray=""/></g><g id="xaxis-5fa5cf41"><title>X axis</title><path fill="none" stroke="rgb(0,0,0)" class="dcg-svg-axis-line" paint-order="fill stroke markers" d=" M 0 199.75 L 600 199.75" stroke-opacity="0.9" stroke-miterlimit="10" stroke-width="1.5" stroke-dasharray=""/></g><g><g class="dcg-svg-axis-value"><text fill="none" stroke="#ffffff" font-family="Arial" font-size="14px" font-style="normal" font-weight="normal" text-decoration="normal" x="291.10693359375" y="215.808" text-anchor="middle" stroke-miterlimit="2" stroke-width="3" stroke-dasharray="">0</text><text fill="#000000" stroke="none" font-family="Arial" font-size="14px" font-style="normal" font-weight="normal" text-decoration="normal" x="291.10693359375" y="215.808" text-anchor="middle">0</text></g><g class="dcg-svg-axis-value dcg-svg-offcenter-axis-value"><text fill="none" stroke="#ffffff" font-family="Arial" font-size="14px" font-style="normal" font-weight="normal" text-decoration="normal" x="13.1171875" y="215.808" text-anchor="middle" stroke-miterlimit="2" stroke-width="3" stroke-dasharray="">-10</text><text fill="#000000" stroke="none" font-family="Arial" font-size="14px" font-style="normal" font-weight="normal" text-decoration="normal" x="13.1171875" y="215.808" text-anchor="middle">-10</text></g><g class="dcg-svg-axis-value"><text fill="none" stroke="#ffffff" font-family="Arial" font-size="14px" font-style="normal" font-weight="normal" text-decoration="normal" x="147.6689453125" y="215.808" text-anchor="middle" stroke-miterlimit="2" stroke-width="3" stroke-dasharray="">-5</text><text fill="#000000" stroke="none" font-family="Arial" font-size="14px" font-style="normal" font-weight="normal" text-decoration="normal" x="147.6689453125" y="215.808" text-anchor="middle">-5</text></g><g class="dcg-svg-axis-value"><text fill="none" stroke="#ffffff" font-family="Arial" font-size="14px" font-style="normal" font-weight="normal" text-decoration="normal" x="450" y="215.808" text-anchor="middle" stroke-miterlimit="2" stroke-width="3" stroke-dasharray="">5</text><text fill="#000000" stroke="none" font-family="Arial" font-size="14px" font-style="normal" font-weight="normal" text-decoration="normal" x="450" y="215.808" text-anchor="middle">5</text></g><g class="dcg-svg-axis-value dcg-svg-offcenter-axis-value"><text fill="none" stroke="#ffffff" font-family="Arial" font-size="14px" font-style="normal" font-weight="normal" text-decoration="normal" x="589.2138671875" y="215.808" text-anchor="middle" stroke-miterlimit="2" stroke-width="3" stroke-dasharray="">10</text><text fill="#000000" stroke="none" font-family="Arial" font-size="14px" font-style="normal" font-weight="normal" text-decoration="normal" x="589.2138671875" y="215.808" text-anchor="middle">10</text></g><g class="dcg-svg-axis-value"><text fill="none" stroke="#ffffff" font-family="Arial" font-size="14px" font-style="normal" font-weight="normal" text-decoration="normal" x="288.77587890625" y="346.6651428571428" text-anchor="middle" stroke-miterlimit="2" stroke-width="3" stroke-dasharray="">-5</text><text fill="#000000" stroke="none" font-family="Arial" font-size="14px" font-style="normal" font-weight="normal" text-decoration="normal" x="288.77587890625" y="346.6651428571428" text-anchor="middle">-5</text></g><g class="dcg-svg-axis-value"><text fill="none" stroke="#ffffff" font-family="Arial" font-size="14px" font-style="normal" font-weight="normal" text-decoration="normal" x="291.10693359375" y="60.95085714285717" text-anchor="middle" stroke-miterlimit="2" stroke-width="3" stroke-dasharray="">5</text><text fill="#000000" stroke="none" font-family="Arial" font-size="14px" font-style="normal" font-weight="normal" text-decoration="normal" x="291.10693359375" y="60.95085714285717" text-anchor="middle">5</text></g></g></g></g><g id="expressions-5fa5cf41"><g id="sketch-5fa5cf41"><title>Expression 1</title><path fill="#2d70b3" stroke="none" paint-order="stroke fill markers" d="" fill-opacity="0.4"/><g><path fill="none" stroke="#2d70b3" class="dcg-svg-curve" paint-order="fill stroke markers" d=" M -0.5 282.09186545041496 L -0.5 282.09186545041496 L 1.697265625 292.03517669958995 L 3.748046875 299.98027472899304 L 5.65234375 306.1886496171088 L 7.41015625 310.912934221868 L 9.021484375 314.3923541171073 L 10.486328125 316.84943868539233 L 11.951171875 318.6364258346213 L 13.26953125 319.6750026511844 L 14.294921875 320.11224942902646 L 15.3203125 320.22779911643767 L 16.19921875 320.0728424284291 L 17.224609375 319.59843461185534 L 18.396484375 318.67325885658033 L 19.71484375 317.15093518607847 L 21.1796875 314.87212252031264 L 22.791015625 311.6672423561879 L 24.548828125 307.35992176427237 L 26.453125 301.7712449132481 L 28.50390625 294.7248857251117 L 30.701171875 286.0531680946245 L 33.19140625 274.91194931843603 L 35.828125 261.7160674373482 L 38.7578125 245.53802863229896 L 42.126953125 225.22358872785432 L 46.08203125 199.47491602181384 L 51.0625 164.95747004363645 L 69.8125 32.86679499733515 L 73.767578125 8.146785209092968 L 76.14442757389901 -5.5 L 134.30419378058596 -5.5 L 136.0234375 2.752113919509668 L 141.150390625 28.94551444592787 L 160.6328125 130.1151970704077 L 164.880859375 149.72464545940906 L 168.54296875 165.2868083140786 L 171.912109375 178.34441175417058 L 174.98828125 189.11307408404963 L 177.91796875 198.28075945393306 L 180.5546875 205.5868514722004 L 183.044921875 211.64454133854167 L 185.388671875 216.5885655430475 L 187.732421875 220.7955018022729 L 189.9296875 224.07288501772933 L 191.98046875 226.55609310399464 L 194.03125 228.49279576209446 L 195.935546875 229.81248052756794 L 197.693359375 230.6321810503549 L 199.3046875 231.05722267147024 L 200.77855494653764 231.18104737051794 L 202.234375 231.06294877976055 L 203.845703125 230.6638464708144 L 205.603515625 229.92076638126494 L 207.5078125 228.77257191885323 L 209.55859375 227.1625278834849 L 212.048828125 224.72941544433527 L 214.83203125 221.45595796706183 L 217.908203125 217.25471861889596 L 221.423828125 211.8490333522522 L 225.96484375 204.19182602768083 L 242.517578125 175.59429827719086 L 246.326171875 170.03698043133156 L 249.6953125 165.73074151268216 L 252.771484375 162.37611276041758 L 255.701171875 159.7438654836948 L 258.19140625 157.96510995388886 L 260.53515625 156.69098791288192 L 262.5859375 155.9011486472978 L 264.63671875 155.41764326385766 L 266.541015625 155.24313859481043 L 268.4453125 155.33105280932404 L 270.349609375 155.67763342031773 L 272.400390625 156.3336988776035 L 274.59765625 157.35169109779883 L 276.94140625 158.780852837822 L 279.578125 160.78636847449854 L 282.5078125 163.46695855176878 L 285.876953125 167.06766726613577 L 289.83203125 171.8769057880969 L 294.666015625 178.36823051247 L 311.072265625 200.93624943209062 L 314.880859375 205.3035271530663 L 318.25 208.62434141973603 L 321.1796875 211.0245026627486 L 323.81640625 212.75208859693097 L 326.16015625 213.9169532033697 L 328.357421875 214.6749913029074 L 330.408203125 215.07998187713207 L 332.3125 215.1879504609202 L 334.216796875 215.03372247226568 L 336.12109375 214.61528170999352 L 338.171875 213.86909675057728 L 340.22265625 212.81877914654555 L 342.419921875 211.36167780519506 L 344.91015625 209.30733126569058 L 347.693359375 206.5276182677202 L 350.76953125 202.90233928349562 L 354.138671875 198.3337412930716 L 357.80078125 192.76541170164572 L 362.341796875 185.19710743623276 L 369.51953125 172.46214514093958 L 376.2578125 160.73838167803342 L 380.359375 154.25216262417027 L 383.728515625 149.5377618276307 L 386.658203125 146.01747163065 L 389.294921875 143.39510711732805 L 391.638671875 141.55549748298938 L 393.689453125 140.36233471846634 L 395.447265625 139.6716967122871 L 397.05859375 139.32305199218257 L 398.669921875 139.25890110524654 L 400.134765625 139.45686849488476 L 401.599609375 139.90691422169448 L 403.2109375 140.70151152658542 L 404.96875 141.93577566647696 L 406.873046875 143.7161463140406 L 408.923828125 146.15997703936947 L 410.974609375 149.1589297727975 L 413.171875 152.9950793038197 L 415.515625 157.80091768211412 L 417.859375 163.34221259153145 L 420.349609375 170.02734596487542 L 422.986328125 177.98340149270405 L 425.916015625 187.84761963109395 L 428.9921875 199.30857802738663 L 432.361328125 213.06599650944312 L 436.0234375 229.3041794021078 L 440.271484375 249.5663162885482 L 445.3984375 275.57687527422235 L 453.6015625 319.01995084727866 L 461.365234375 359.59942301311366 L 466.052734375 382.57478546108393 L 469.861328125 399.8372623087836 L 471.23140326896805 405.5 L 517.1604146645823 405.5 L 518.494140625 399.2536543430989 L 521.423828125 384.0639087753725 L 524.646484375 365.7712863252684 L 528.30859375 343.2193197405341 L 532.556640625 315.13183879127143 L 537.9765625 277.17693213530856 L 553.650390625 166.05373815319845 L 557.751953125 139.74624350552773 L 561.267578125 119.05877525152306 L 564.34375 102.67866476073965 L 567.126953125 89.45072985704621 L 569.6171875 79.03684179466228 L 571.814453125 71.05412684769942 L 573.865234375 64.68775975716756 L 575.76953125 59.75982399344798 L 577.52734375 56.0852724479812 L 579.138671875 53.47789185671729 L 580.603515625 51.755312571991055 L 581.921875 50.74312032377463 L 582.947265625 50.31370702761683 L 583.97265625 50.20111129046802 L 584.8515625 50.359031585619846 L 585.876953125 50.84243424487113 L 587.048828125 51.79214559395007 L 588.3671875 53.370331668640574 L 589.83203125 55.76027650089645 L 591.296875 58.822441286969706 L 592.908203125 62.968090954230604 L 594.666015625 68.41761183785184 L 596.5703125 75.40681063519611 L 598.62109375 84.18334364556148 L 599.5 88.33670597815643" stroke-linecap="round" stroke-linejoin="round" stroke-miterlimit="10" stroke-width="2.5" stroke-opacity="0.9" stroke-dasharray=""/></g></g></g><g id="labels-5fa5cf41"/></g></svg>