<svg version="1.1" xmlns="http://www.w3.org/2000/svg" xmlns:xlink="http://www.w3.org/1999/xlink" width="600" height="400"><defs/><g transform="scale(1,1)"><g id="background-81d437d1"><rect fill="white" stroke="none" x="0" y="0" width="600" height="400" class="dcg-svg-background"/></g><g id="background-images-81d437d1"/><g id="graphpaper-81d437d1"><g id="grid-81d437d1"><g><path fill="none" stroke="rgb(0,0,0)" class="dcg-svg-minor-gridline" paint-order="fill stroke markers" d=" M -0.5 0 L -0.5 400" stroke-opacity="0.12" stroke-miterlimit="10" stroke-dasharray=""/><path fill="none" stroke="rgb(0,0,0)" class="dcg-svg-minor-gridline" paint-order="fill stroke markers" d=" M 26.5 0 L 26.5 400" stroke-opacity="0.12" stroke-miterlimit="10" stroke-dasharray=""/><path fill="none" stroke="rgb(0,0,0)" class="dcg-svg-minor-gridline" paint-order="fill stroke markers" d=" M 81.5 0 L 81.5 400" stroke-opacity="0.12" stroke-miterlimit="10" stroke-dasharray=""/><path fill="none" stroke="rgb(0,0,0)" class="dcg-svg-minor-gridline" paint-order="fill stroke markers" d=" M 108.5 0 L 108.5 400" stroke-opacity="0.12" stroke-miterlimit="10" stroke-dasharray=""/><path fill="none" stroke="rgb(0,0,0)" class="dcg-svg-minor-gridline" paint-order="fill stroke markers" d=" M 135.5 0 L 135.5 400" stroke-opacity="0.12" stroke-miterlimit="10" stroke-dasharray=""/><path fill="none" stroke="rgb(0,0,0)" class="dcg-svg-minor-gridline" paint-order="fill stroke markers" d=" M 163.5 0 L 163.5 400" stroke-opacity="0.12" stroke-miterlimit="10" stroke-dasharray=""/><path fill="none" stroke="rgb(0,0,0)" class="dcg-svg-minor-gridline" paint-order="fill stroke markers" d=" M 190.5 0 L 190.5 400" stroke-opacity="0.12" stroke-miterlimit="10" stroke-dasharray=""/><path fill="none" stroke="rgb(0,0,0)" class="dcg-svg-minor-gridline" paint-order="fill stroke markers" d=" M 217.5 0 L 217.5 400" stroke-opacity="0.12" stroke-miterlimit="10" stroke-dasharray=""/><path fill="none" stroke="rgb(0,0,0)" class="dcg-svg-minor-gridline" paint-order="fill stroke markers" d=" M 244.5 0 L 244.5 400" stroke-opacity="0.12" stroke-miterlimit="10" stroke-dasharray=""/><path fill="none" stroke="rgb(0,0,0)" class="dcg-svg-minor-gridline" paint-order="fill stroke markers" d=" M 272.5 0 L 272.5 400" stroke-opacity="0.12" stroke-miterlimit="10" stroke-dasharray=""/><path fill="none" stroke="rgb(0,0,0)" class="dcg-svg-minor-gridline" paint-order="fill stroke markers" d=" M 299.5 0 L 299.5 400" stroke-opacity="0.12" stroke-miterlimit="10" stroke-dasharray=""/><path fill="none" stroke="rgb(0,0,0)" class="dcg-svg-minor-gridline" paint-order="fill stroke markers" d=" M 326.5 0 L 326.5 400" stroke-opacity="0.12" stroke-miterlimit="10" stroke-dasharray=""/><path fill="none" stroke="rgb(0,0,0)" class="dcg-svg-minor-gridline" paint-order="fill stroke markers" d=" M 354.5 0 L 354.5 400" stroke-opacity="0.12" stroke-miterlimit="10" stroke-dasharray=""/><path fill="none" stroke="rgb(0,0,0)" class="dcg-svg-minor-gridline" paint-order="fill stroke markers" d=" M 381.5 0 L 381.5 400" stroke-opacity="0.12" stroke-miterlimit="10" stroke-dasharray=""/><path fill="none" stroke="rgb(0,0,0)" class="dcg-svg-minor-gridline" paint-order="fill stroke markers" d=" M 408.5 0 L 408.5 400" stroke-opacity="0.12" stroke-miterlimit="10" stroke-dasharray=""/><path fill="none" stroke="rgb(0,0,0)" class="dcg-svg-minor-gridline" paint-order="fill stroke markers" d=" M 435.5 0 L 435.5 400" stroke-opacity="0.12" stroke-miterlimit="10" stroke-dasharray=""/><path fill="none" stroke="rgb(0,0,0)" class="dcg-svg-minor-gridline" paint-order="fill stroke markers" d=" M 463.5 0 L 463.5 400" stroke-opacity="0.12" stroke-miterlimit="10" stroke-dasharray=""/><path fill="none" stroke="rgb(0,0,0)" class="dcg-svg-minor-gridline" paint-order="fill stroke markers" d=" M 490.5 0 L 490.5 400" stroke-opacity="0.12" stroke-miterlimit="10" stroke-dasharray=""/><path fill="none" stroke="rgb(0,0,0)" class="dcg-svg-minor-gridline" paint-order="fill stroke markers" d=" M 517.5 0 L 517.5 400" stroke-opacity="0.12" stroke-miterlimit="10" stroke-dasharray=""/><path fill="none" stroke="rgb(0,0,0)" class="dcg-svg-minor-gridline" paint-order="fill stroke markers" d=" M 544.5 0 L 544.5 400" stroke-opacity="0.12" stroke-miterlimit="10" stroke-dasharray=""/><path fill="none" stroke="rgb(0,0,0)" class="dcg-svg-minor-gridline" paint-order="fill stroke markers" d=" M 572.5 0 L 572.5 400" stroke-opacity="0.12" stroke-miterlimit="10" stroke-dasharray=""/><path fill="none" stroke="rgb(0,0,0)" class="dcg-svg-minor-gridline" paint-order="fill stroke markers" d=" M 0 367.5 L 600 367.5" stroke-opacity="0.12" stroke-miterlimit="10" stroke-dasharray=""/><path fill="none" stroke="rgb(0,0,0)" class="dcg-svg-minor-gridline" paint-order="fill stroke markers" d=" M 0 335.5 L 600 335.5" stroke-opacity="0.12" stroke-miterlimit="10" stroke-dasharray=""/><path fill="none" stroke="rgb(0,0,0)" class="dcg-svg-minor-gridline" paint-order="fill stroke markers" d=" M 0 303.5 L 600 303.5" stroke-opacity="0.12" stroke-miterlimit="10" stroke-dasharray=""/><path fill="none" stroke="rgb(0,0,0)" class="dcg-svg-minor-gridline" paint-order="fill stroke markers" d=" M 0 271.5 L 600 271.5" stroke-opacity="0.12" stroke-miterlimit="10" stroke-dasharray=""/><path fill="none" stroke="rgb(0,0,0)" class="dcg-svg-minor-gridline" paint-order="fill stroke markers" d=" M 0 207.5 L 600 207.5" stroke-opacity="0.12" stroke-miterlimit="10" stroke-dasharray=""/><path fill="none" stroke="rgb(0,0,0)" class="dcg-svg-minor-gridline" paint-order="fill stroke markers" d=" M 0 175.5 L 600 175.5" stroke-opacity="0.12" stroke-miterlimit="10" stroke-dasharray=""/><path fill="none" stroke="rgb(0,0,0)" class="dcg-svg-minor-gridline" paint-order="fill stroke markers" d=" M 0 143.5 L 600 143.5" stroke-opacity="0.12" stroke-miterlimit="10" stroke-dasharray=""/><path fill="none" stroke="rgb(0,0,0)" class="dcg-svg-minor-gridline" paint-order="fill stroke markers" d=" M 0 111.5 L 600 111.5" stroke-opacity="0.12" stroke-miterlimit="10" stroke-dasharray=""/><path fill="none" stroke="rgb(0,0,0)" class="dcg-svg-minor-gridline" paint-order="fill stroke markers" d=" M 0 79.5 L 600 79.5" stroke-opacity="0.12" stroke-miterlimit="10" stroke-dasharray=""/><path fill="none" stroke="rgb(0,0,0)" class="dcg-svg-minor-gridline" paint-order="fill stroke markers" d=" M 0 47.5 L 600 47.5" stroke-opacity="0.12" stroke-miterlimit="10" stroke-dasharray=""/><path fill="none" stroke="rgb(0,0,0)" class="dcg-svg-minor-gridline" paint-order="fill stroke markers" d=" M 0 15.5 L 600 15.5" stroke-opacity="0.12" stroke-miterlimit="10" stroke-dasharray=""/><path fill="none" stroke="rgb(0,0,0)" class="dcg-svg-major-gridline" paint-order="fill stroke markers" d=" M 163.5 0 L 163.5 400" stroke-opacity="0.31818181818181823" stroke-miterlimit="10" stroke-dasharray=""/><path fill="none" stroke="rgb(0,0,0)" class="dcg-svg-major-gridline" paint-order="fill stroke markers" d=" M 272.5 0 L 272.5 400" stroke-opacity="0.31818181818181823" stroke-miterlimit="10" stroke-dasharray=""/><path fill="none" stroke="rgb(0,0,0)" class="dcg-svg-major-gridline" paint-order="fill stroke markers" d=" M 381.5 0 L 381.5 400" stroke-opacity="0.31818181818181823" stroke-miterlimit="10" stroke-dasharray=""/><path fill="none" stroke="rgb(0,0,0)" class="dcg-svg-major-gridline" paint-order="fill stroke markers" d=" M 490.5 0 L 490.5 400" stroke-opacity="0.31818181818181823" stroke-miterlimit="10" stroke-dasharray=""/><path fill="none" stroke="rgb(0,0,0)" class="dcg-svg-major-gridline" paint-order="fill stroke markers" d=" M 0 79.5 L 600 79.5" stroke-opacity="0.31818181818181823" stroke-miterlimit="10" stroke-dasharray=""/></g></g><g id="axis-81d437d1"><g id="yaxis-81d437d1"><title>Y axis</title><path fill="none" stroke="rgb(0,0,0)" class="dcg-svg-axis-line" paint-order="fill stroke markers" d=" M 54.75 0 L 54.75 400" stroke-opacity="0.9" stroke-miterlimit="10" stroke-width="1.5" stroke-dasharray=""/></g><g id="xaxis-81d437d1"><title>X axis</title><path fill="none" stroke="rgb(0,0,0)" class="dcg-svg-axis-line" paint-order="fill stroke markers" d=" M 0 239.75 L 600 239.75" stroke-opacity="0.9" stroke-miterlimit="10" stroke-width="1.5" stroke-dasharray=""/></g><g><g class="dcg-svg-axis-value"><text fill="none" stroke="#ffffff" font-family="Arial" font-size="14px" font-style="normal" font-weight="normal" text-decoration="normal" x="45.65238813920455" y="255.808" text-anchor="middle" stroke-miterlimit="2" stroke-width="3" stroke-dasharray="">0</text><text fill="#000000" stroke="none" font-family="Arial" font-size="14px" font-style="normal" font-weight="normal" text-decoration="normal" x="45.65238813920455" y="255.808" text-anchor="middle">0</text></g><g class="dcg-svg-axis-value"><text fill="none" stroke="#ffffff" font-family="Arial" font-size="14px" font-style="normal" font-weight="normal" text-decoration="normal" x="163.63636363636363" y="255.808" text-anchor="middle" stroke-miterlimit="2" stroke-width="3" stroke-dasharray="">2</text><text fill="#000000" stroke="none" font-family="Arial" font-size="14px" font-style="normal" font-weight="normal" text-decoration="normal" x="163.63636363636363" y="255.808" text-anchor="middle">2</text></g><g class="dcg-svg-axis-value"><text fill="none" stroke="#ffffff" font-family="Arial" font-size="14px" font-style="normal" font-weight="normal" text-decoration="normal" x="272.72727272727275" y="255.808" text-anchor="middle" stroke-miterlimit="2" stroke-width="3" stroke-dasharray="">4</text><text fill="#000000" stroke="none" font-family="Arial" font-size="14px" font-style="normal" font-weight="normal" text-decoration="normal" x="272.72727272727275" y="255.808" text-anchor="middle">4</text></g><g class="dcg-svg-axis-value"><text fill="none" stroke="#ffffff" font-family="Arial" font-size="14px" font-style="normal" font-weight="normal" text-decoration="normal" x="381.8181818181818" y="255.808" text-anchor="middle" stroke-miterlimit="2" stroke-width="3" stroke-dasharray="">6</text><text fill="#000000" stroke="none" font-family="Arial" font-size="14px" font-style="normal" font-weight="normal" text-decoration="normal" x="381.8181818181818" y="255.808" text-anchor="middle">6</text></g><g class="dcg-svg-axis-value"><text fill="none" stroke="#ffffff" font-family="Arial" font-size="14px" font-style="normal" font-weight="normal" text-decoration="normal" x="490.90909090909093" y="255.808" text-anchor="middle" stroke-miterlimit="2" stroke-width="3" stroke-dasharray="">8</text><text fill="#000000" stroke="none" font-family="Arial" font-size="14px" font-style="normal" font-weight="normal" text-decoration="normal" x="490.90909090909093" y="255.808" text-anchor="middle">8</text></g><g class="dcg-svg-axis-value dcg-svg-offcenter-axis-value"><text fill="none" stroke="#ffffff" font-family="Arial" font-size="14px" font-style="normal" font-weight="normal" text-decoration="normal" x="589.2138671875" y="255.808" text-anchor="middle" stroke-miterlimit="2" stroke-width="3" stroke-dasharray="">10</text><text fill="#000000" stroke="none" font-family="Arial" font-size="14px" font-style="normal" font-weight="normal" text-decoration="normal" x="589.2138671875" y="255.808" text-anchor="middle">10</text></g><g class="dcg-svg-axis-value dcg-svg-offcenter-axis-value"><text fill="none" stroke="#ffffff" font-family="Arial" font-size="14px" font-style="normal" font-weight="normal" text-decoration="normal" x="43.32133345170455" y="393.808" text-anchor="middle" stroke-miterlimit="2" stroke-width="3" stroke-dasharray="">-1</text><text fill="#000000" stroke="none" font-family="Arial" font-size="14px" font-style="normal" font-weight="normal" text-decoration="normal" x="43.32133345170455" y="393.808" text-anchor="middle">-1</text></g><g class="dcg-svg-axis-value"><text fill="none" stroke="#ffffff" font-family="Arial" font-size="14px" font-style="normal" font-weight="normal" text-decoration="normal" x="45.65238813920455" y="83.808" text-anchor="middle" stroke-miterlimit="2" stroke-width="3" stroke-dasharray="">1</text><text fill="#000000" stroke="none" font-family="Arial" font-size="14px" font-style="normal" font-weight="normal" text-decoration="normal" x="45.65238813920455" y="83.808" text-anchor="middle">1</text></g></g></g></g><g id="expressions-81d437d1"><g id="sketch-81d437d1"><title>Expression 1</title><path fill="#2d70b3" stroke="none" paint-order="stroke fill markers" d="" fill-opacity="0.4"/><g><path fill="none" stroke="#2d70b3" class="dcg-svg-curve" paint-order="fill stroke markers" d=" M -0.5 399.5 L -0.5 399.5 L 1.4630570845170414 405.5" stroke-linecap="round" stroke-linejoin="round" stroke-miterlimit="10" stroke-width="2.5" stroke-opacity="0.9" stroke-dasharray=""/></g><g><path fill="none" stroke="#2d70b3" class="dcg-svg-curve" paint-order="fill stroke markers" d=" M 89.67888476902789 -5.5 L 89.67888476902789 -5.5 L 89.880859375 -4.037718320327031 L 92.078125 10.032212885154024 L 94.275390625 22.565210195299528 L 96.326171875 33.08740157480315 L 98.376953125 42.63607689997002 L 100.427734375 51.34036749928225 L 102.625 59.850877192982466 L 104.822265625 67.62483608707055 L 107.01953125 74.75389643036704 L 109.216796875 81.31510982379916 L 111.4140625 87.37372330547817 L 113.7578125 93.34478144513827 L 116.1015625 98.86480686695279 L 118.591796875 104.29059211883634 L 121.08203125 109.31326976559393 L 123.71875 114.24006116207954 L 126.35546875 118.80755064456724 L 129.138671875 123.28081220074483 L 132.068359375 127.64473459634746 L 135.14453125 131.88752052545158 L 138.3671875 136.0003158559697 L 141.736328125 139.9768413059985 L 145.251953125 143.81303839976638 L 148.9140625 147.50673778775968 L 152.72265625 151.057354925776 L 156.82421875 154.5868100544182 L 161.072265625 157.95713574716933 L 165.61328125 161.276080210074 L 170.447265625 164.52459672806313 L 175.57421875 167.68759587990357 L 180.994140625 170.7535403335781 L 186.70703125 173.71401325035134 L 192.859375 176.62970069071375 L 199.451171875 179.47985163476505 L 206.482421875 182.24831833668208 L 213.953125 184.9230512991339 L 222.009765625 187.5409101720447 L 230.65234375 190.08362237973157 L 240.02734375 192.57460976657597 L 250.134765625 194.99337860780983 L 261.12109375 197.35466237942126 L 272.986328125 199.63867769600387 L 285.876953125 201.85510368200354 L 299.939453125 204.0079880855673 L 315.3203125 206.0973496432212 L 332.166015625 208.12054105817575 L 350.623046875 210.07339140586413 L 370.984375 211.9638655462185 L 393.54296875 213.79355926884756 L 418.591796875 215.55990867579908 L 446.5703125 217.26631836070024 L 477.771484375 218.90350105283005 L 512.78125 220.47538318625172 L 552.33203125 221.98543481746754 L 597.15625 223.4309533150255 L 599.5 223.5" stroke-linecap="round" stroke-linejoin="round" stroke-miterlimit="10" stroke-width="2.5" stroke-opacity="0.9" stroke-dasharray=""/></g></g><g id="sketch-81d437d1"><title>Expression 2</title><path fill="#c64440" stroke="none" paint-order="stroke fill markers" d="" fill-opacity="0.4"/><path fill="#c64440" stroke="none" paint-order="stroke fill markers" d="" fill-opacity="0.4"/><path fill="#c64440" stroke="none" class="dcg-svg-region" paint-order="stroke fill markers" d=" M 108.5909090909091 239.5 L 163.13636363636363 239.5 L 163.13636363636363 79.5 L 108.5909090909091 79.5" fill-opacity="0.4"/><g><path fill="none" stroke="#c64440" class="dcg-svg-curve" paint-order="fill stroke markers" d=" M 108.5909090909091 239.5 L 119.5909090909091 239.5 M 126.5909090909091 239.5 L 137.5909090909091 239.5 M 144.5909090909091 239.5 L 155.5909090909091 239.5 M 162.5909090909091 239.5 L 163.13636363636363 239.5" stroke-linecap="round" stroke-linejoin="round" stroke-miterlimit="10" stroke-width="2.5" stroke-opacity="0.9" stroke-dasharray=""/></g><g><path fill="none" stroke="#c64440" class="dcg-svg-curve" paint-order="fill stroke markers" d=" M 108.5909090909091 79.5 L 119.5909090909091 79.5 M 126.5909090909091 79.5 L 137.5909090909091 79.5 M 144.5909090909091 79.5 L 155.5909090909091 79.5 M 162.5909090909091 79.5 L 163.13636363636363 79.5" stroke-linecap="round" stroke-linejoin="round" stroke-miterlimit="10" stroke-width="2.5" stroke-opacity="0.9" stroke-dasharray=""/></g></g><g id="sketch-81d437d1"><title>Expression 3</title><path fill="#c64440" stroke="none" paint-order="stroke fill markers" d="" fill-opacity="0.4"/><path fill="#c64440" stroke="none" paint-order="stroke fill markers" d="" fill-opacity="0.4"/><path fill="#c64440" stroke="none" class="dcg-svg-region" paint-order="stroke fill markers" d=" M 163.13636363636363 239.5 L 217.6818181818182 239.5 L 217.6818181818182 159.5 L 163.13636363636363 159.5" fill-opacity="0.4"/><g><path fill="none" stroke="#c64440" class="dcg-svg-curve" paint-order="fill stroke markers" d=" M 163.13636363636363 239.5 L 174.13636363636363 239.5 M 181.13636363636363 239.5 L 192.13636363636363 239.5 M 199.13636363636363 239.5 L 210.13636363636363 239.5 M 217.13636363636363 239.5 L 217.6818181818182 239.5" stroke-linecap="round" stroke-linejoin="round" stroke-miterlimit="10" stroke-width="2.5" stroke-opacity="0.9" stroke-dasharray=""/></g><g><path fill="none" stroke="#c64440" class="dcg-svg-curve" paint-order="fill stroke markers" d=" M 163.13636363636363 159.5 L 174.13636363636363 159.5 M 181.13636363636363 159.5 L 192.13636363636363 159.5 M 199.13636363636363 159.5 L 210.13636363636363 159.5 M 217.13636363636363 159.5 L 217.6818181818182 159.5" stroke-linecap="round" stroke-linejoin="round" stroke-miterlimit="10" stroke-width="2.5" stroke-opacity="0.9" stroke-dasharray=""/></g></g><g id="sketch-81d437d1"><title>Expression 4</title><path fill="#c64440" stroke="none" paint-order="stroke fill markers" d="" fill-opacity="0.4"/><path fill="#c64440" stroke="none" paint-order="stroke fill markers" d="" fill-opacity="0.4"/><path fill="#c64440" stroke="none" class="dcg-svg-region" paint-order="stroke fill markers" d=" M 217.6818181818182 239.5 L 272.22727272727275 239.5 L 272.22727272727275 186.16666666666669 L 217.6818181818182 186.16666666666669" fill-opacity="0.4"/><g><path fill="none" stroke="#c64440" class="dcg-svg-curve" paint-order="fill stroke markers" d=" M 217.6818181818182 239.5 L 228.6818181818182 239.5 M 235.6818181818182 239.5 L 246.6818181818182 239.5 M 253.6818181818182 239.5 L 264.6818181818182 239.5 M 271.6818181818182 239.5 L 272.22727272727275 239.5" stroke-linecap="round" stroke-linejoin="round" stroke-miterlimit="10" stroke-width="2.5" stroke-opacity="0.9" stroke-dasharray=""/></g><g><path fill="none" stroke="#c64440" class="dcg-svg-curve" paint-order="fill stroke markers" d=" M 217.6818181818182 186.16666666666669 L 228.6818181818182 186.16666666666669 M 235.6818181818182 186.16666666666669 L 246.6818181818182 186.16666666666669 M 253.6818181818182 186.16666666666669 L 264.6818181818182 186.16666666666669 M 271.6818181818182 186.16666666666669 L 272.22727272727275 186.16666666666669" stroke-linecap="round" stroke-linejoin="round" stroke-miterlimit="10" stroke-width="2.5" stroke-opacity="0.9" stroke-dasharray=""/></g></g><g id="sketch-81d437d1"><title>Expression 5</title><path fill="#c64440" stroke="none" paint-order="stroke fill markers" d="" fill-opacity="0.4"/><path fill="#c64440" stroke="none" paint-order="stroke fill markers" d="" fill-opacity="0.4"/><path fill="#c64440" stroke="none" class="dcg-svg-region" paint-order="stroke fill markers" d=" M 272.22727272727275 239.5 L 326.77272727272725 239.5 L 326.77272727272725 199.5 L 272.22727272727275 199.5" fill-opacity="0.4"/><g><path fill="none" stroke="#c64440" class="dcg-svg-curve" paint-order="fill stroke markers" d=" M 272.22727272727275 239.5 L 283.22727272727275 239.5 M 290.22727272727275 239.5 L 301.22727272727275 239.5 M 308.22727272727275 239.5 L 319.22727272727275 239.5 M 326.22727272727275 239.5 L 326.77272727272725 239.5" stroke-linecap="round" stroke-linejoin="round" stroke-miterlimit="10" stroke-width="2.5" stroke-opacity="0.9" stroke-dasharray=""/></g><g><path fill="none" stroke="#c64440" class="dcg-svg-curve" paint-order="fill stroke markers" d=" M 272.22727272727275 199.5 L 283.22727272727275 199.5 M 290.22727272727275 199.5 L 301.22727272727275 199.5 M 308.22727272727275 199.5 L 319.22727272727275 199.5 M 326.22727272727275 199.5 L 326.77272727272725 199.5" stroke-linecap="round" stroke-linejoin="round" stroke-miterlimit="10" stroke-width="2.5" stroke-opacity="0.9" stroke-dasharray=""/></g></g><g id="sketch-81d437d1"><title>Expression 6</title><path fill="#c64440" stroke="none" paint-order="stroke fill markers" d="" fill-opacity="0.4"/><path fill="#c64440" stroke="none" paint-order="stroke fill markers" d="" fill-opacity="0.4"/><path fill="#c64440" stroke="none" class="dcg-svg-region" paint-order="stroke fill markers" d=" M 326.77272727272725 239.5 L 381.3181818181818 239.5 L 381.3181818181818 207.5 L 326.77272727272725 207.5" fill-opacity="0.4"/><g><path fill="none" stroke="#c64440" class="dcg-svg-curve" paint-order="fill stroke markers" d=" M 326.77272727272725 239.5 L 337.77272727272725 239.5 M 344.77272727272725 239.5 L 355.77272727272725 239.5 M 362.77272727272725 239.5 L 373.77272727272725 239.5 M 380.77272727272725 239.5 L 381.3181818181818 239.5" stroke-linecap="round" stroke-linejoin="round" stroke-miterlimit="10" stroke-width="2.5" stroke-opacity="0.9" stroke-dasharray=""/></g><g><path fill="none" stroke="#c64440" class="dcg-svg-curve" paint-order="fill stroke markers" d=" M 326.77272727272725 207.5 L 337.77272727272725 207.5 M 344.77272727272725 207.5 L 355.77272727272725 207.5 M 362.77272727272725 207.5 L 373.77272727272725 207.5 M 380.77272727272725 207.5 L 381.3181818181818 207.5" stroke-linecap="round" stroke-linejoin="round" stroke-miterlimit="10" stroke-width="2.5" stroke-opacity="0.9" stroke-dasharray=""/></g></g><g id="sketch-81d437d1"><title>Expression 7</title><path fill="#388c46" stroke="none" paint-order="stroke fill markers" d="" fill-opacity="0.4"/><path fill="#388c46" stroke="none" paint-order="stroke fill markers" d="" fill-opacity="0.4"/><path fill="#388c46" stroke="none" class="dcg-svg-region" paint-order="stroke fill markers" d=" M 54.04545454545455 -3 L 54.04545454545455 239.5 L 599.5 239.5 L 599.5 223.5 L 597.15625 223.4309533150255 L 552.33203125 221.98543481746754 L 512.78125 220.47538318625172 L 477.771484375 218.90350105283005 L 446.5703125 217.26631836070024 L 418.591796875 215.55990867579908 L 393.54296875 213.79355926884756 L 370.984375 211.9638655462185 L 350.623046875 210.07339140586413 L 332.166015625 208.12054105817575 L 315.3203125 206.0973496432212 L 299.939453125 204.0079880855673 L 285.876953125 201.85510368200354 L 272.986328125 199.63867769600387 L 261.12109375 197.35466237942126 L 250.134765625 194.99337860780983 L 240.02734375 192.57460976657597 L 230.65234375 190.08362237973157 L 222.009765625 187.5409101720447 L 213.953125 184.9230512991339 L 206.482421875 182.24831833668208 L 199.451171875 179.47985163476505 L 192.859375 176.62970069071375 L 186.70703125 173.71401325035134 L 180.994140625 170.7535403335781 L 175.57421875 167.68759587990357 L 170.447265625 164.52459672806313 L 165.61328125 161.276080210074 L 161.072265625 157.95713574716933 L 156.82421875 154.5868100544182 L 152.72265625 151.057354925776 L 148.9140625 147.50673778775968 L 145.251953125 143.81303839976638 L 141.736328125 139.9768413059985 L 138.3671875 136.0003158559697 L 135.14453125 131.88752052545158 L 132.068359375 127.64473459634746 L 129.138671875 123.28081220074483 L 126.35546875 118.80755064456724 L 123.71875 114.24006116207954 L 121.08203125 109.31326976559393 L 118.591796875 104.29059211883634 L 116.1015625 98.86480686695279 L 113.7578125 93.34478144513827 L 111.4140625 87.37372330547817 L 109.216796875 81.31510982379916 L 107.01953125 74.75389643036704 L 104.822265625 67.62483608707055 L 102.625 59.850877192982466 L 100.427734375 51.34036749928225 L 98.376953125 42.63607689997002 L 96.326171875 33.08740157480315 L 94.275390625 22.565210195299528 L 92.078125 10.032212885154024 L 90.04291722449389 -3" fill-opacity="0.4"/><g><path fill="none" stroke="#388c46" class="dcg-svg-curve" paint-order="fill stroke markers" d=" M 54.04545454545455 239.5 L 65.04545454545455 239.5 M 72.04545454545455 239.5 L 83.04545454545455 239.5 M 90.04545454545455 239.5 L 101.04545454545455 239.5 M 108.04545454545455 239.5 L 119.04545454545455 239.5 M 126.04545454545455 239.5 L 137.04545454545453 239.5 M 144.04545454545453 239.5 L 155.04545454545453 239.5 M 162.04545454545453 239.5 L 173.04545454545453 239.5 M 180.04545454545453 239.5 L 191.04545454545453 239.5 M 198.04545454545453 239.5 L 209.04545454545453 239.5 M 216.04545454545453 239.5 L 227.04545454545453 239.5 M 234.04545454545453 239.5 L 245.04545454545453 239.5 M 252.04545454545453 239.5 L 263.0454545454545 239.5 M 270.0454545454545 239.5 L 281.0454545454545 239.5 M 288.0454545454545 239.5 L 299.0454545454545 239.5 M 306.0454545454545 239.5 L 317.0454545454545 239.5 M 324.0454545454545 239.5 L 335.0454545454545 239.5 M 342.0454545454545 239.5 L 353.0454545454545 239.5 M 360.0454545454545 239.5 L 371.0454545454545 239.5 M 378.0454545454545 239.5 L 389.0454545454545 239.5 M 396.0454545454545 239.5 L 407.0454545454545 239.5 M 414.0454545454545 239.5 L 425.0454545454545 239.5 M 432.0454545454545 239.5 L 443.0454545454545 239.5 M 450.0454545454545 239.5 L 461.0454545454545 239.5 M 468.0454545454545 239.5 L 479.0454545454545 239.5 M 486.0454545454545 239.5 L 497.0454545454545 239.5 M 504.0454545454545 239.5 L 515.0454545454545 239.5 M 522.0454545454545 239.5 L 533.0454545454545 239.5 M 540.0454545454545 239.5 L 551.0454545454545 239.5 M 558.0454545454545 239.5 L 569.0454545454545 239.5 M 576.0454545454545 239.5 L 587.0454545454545 239.5 M 594.0454545454545 239.5 L 599.5 239.5" stroke-linecap="round" stroke-linejoin="round" stroke-miterlimit="10" stroke-width="2.5" stroke-opacity="0.9" stroke-dasharray=""/></g><g><path fill="none" stroke="#388c46" class="dcg-svg-curve" paint-order="fill stroke markers" d=" M 89.67888476902789 -5.5 L 89.880859375 -4.037718320327031 M 89.880859375 -4.037718320327031 L 91.35036135361224 5.372064234020476 M 92.47242749504761 12.281277383132215 L 94.275390625 22.565210195299528 M 94.275390625 22.565210195299528 L 94.38236941742959 23.114099223562455 M 95.72147673675663 29.984819097587646 L 96.326171875 33.08740157480315 M 96.326171875 33.08740157480315 L 97.97223654719384 40.751669579499506 M 99.54024113505041 47.573510812131246 L 100.427734375 51.34036749928225 M 100.427734375 51.34036749928225 L 102.21013052517927 58.24399332472817 M 104.0775354409821 64.98996947291607 L 104.822265625 67.62483608707055 M 104.822265625 67.62483608707055 L 107.01953125 74.75389643036704 M 107.01953125 74.75389643036704 L 107.27418266545736 75.51430621366542 M 109.51769595826188 82.14479159815237 L 111.4140625 87.37372330547817 M 111.4140625 87.37372330547817 L 113.40092580956711 92.43555854259078 M 116.11251485727573 98.88867013828843 L 118.591796875 104.29059211883634 M 118.591796875 104.29059211883634 L 120.83780130171174 108.82067022787524 M 124.14980847390574 114.98676766837706 L 126.35546875 118.80755064456724 M 126.35546875 118.80755064456724 L 129.138671875 123.28081220074483 M 129.138671875 123.28081220074483 L 129.87433709858288 124.37662393659018 M 133.8667233692388 130.12511402903567 L 135.14453125 131.88752052545158 M 135.14453125 131.88752052545158 L 138.3671875 136.0003158559697 M 138.3671875 136.0003158559697 L 140.69312246991132 138.7455677265307 M 145.3806198236117 143.94281500042217 L 148.9140625 147.50673778775968 M 148.9140625 147.50673778775968 L 152.72265625 151.057354925776 M 152.72265625 151.057354925776 L 153.30965624035525 151.56247708994448 M 158.67562823258828 156.05568578262458 L 161.072265625 157.95713574716933 M 161.072265625 157.95713574716933 L 165.61328125 161.276080210074 M 165.61328125 161.276080210074 L 167.53561770145862 162.56792172863413 M 173.41917228703124 166.35807131270815 L 175.57421875 167.68759587990357 M 175.57421875 167.68759587990357 L 180.994140625 170.7535403335781 M 180.994140625 170.7535403335781 L 182.98370037916055 171.78454865408037 M 189.2430821554601 174.9158855893554 L 192.859375 176.62970069071375 M 192.859375 176.62970069071375 L 199.28281024010315 179.40705569130034 M 205.79380668104872 181.97718472105353 L 206.482421875 182.24831833668208 M 206.482421875 182.24831833668208 L 213.953125 184.9230512991339 M 213.953125 184.9230512991339 L 216.16417399261178 185.6414914646029 M 222.82862105270672 187.78182366594044 L 230.65234375 190.08362237973157 M 230.65234375 190.08362237973157 L 233.40164942406918 190.81412752711142 M 240.16778765979967 192.60821886661807 L 250.134765625 194.99337860780983 M 250.134765625 194.99337860780983 L 250.86958802921237 195.15131346997134 M 257.71330124900305 196.62222793562265 L 261.12109375 197.35466237942126 M 261.12109375 197.35466237942126 L 268.5000101440698 198.77507747879326 M 275.38248459893106 200.05067505651527 L 285.876953125 201.85510368200354 M 285.876953125 201.85510368200354 L 286.2244383744643 201.90830158949083 M 293.1438205580607 202.967617499561 L 299.939453125 204.0079880855673 M 299.939453125 204.0079880855673 L 304.0271023397223 204.56326116376061 M 310.9633973026009 205.50549902542022 L 315.3203125 206.0973496432212 M 315.3203125 206.0973496432212 L 321.8762687188192 206.88472872976396 M 328.8263232401692 207.7194395481087 L 332.166015625 208.12054105817575 M 332.166015625 208.12054105817575 L 339.7599353633783 208.9240174461463 M 346.72107968543276 209.66054288869998 L 350.623046875 210.07339140586413 M 350.623046875 210.07339140586413 L 357.6689952982598 210.72758170262028 M 364.63901744713746 211.37472252512742 L 370.984375 211.9638655462185 M 370.984375 211.9638655462185 L 375.5965802271797 212.33795459827422 M 382.57366815101363 212.90385574078095 L 393.5376634598956 213.79312896472007 M 400.52031996587374 214.2855759061429 L 411.4930725627713 215.05933326299152 M 418.4757333062516 215.55172430825883 L 418.591796875 215.55990867579908 M 418.591796875 215.55990867579908 L 429.4552590076385 216.2224712378432 M 436.44227598631227 216.64860940760101 L 446.5703125 217.26631836070024 M 446.5703125 217.26631836070024 L 447.4222843784711 217.3110228871585 M 454.4126677055152 217.67782111641216 L 465.39755579087023 218.2542183338108 M 472.38793911791436 218.62101656306447 L 477.771484375 218.90350105283005 M 477.771484375 218.90350105283005 L 483.37488796221703 219.1550848560306 M 490.36784308238833 219.4690572867791 L 501.3567725569432 219.9624425350982 M 508.3497276771145 220.2764149658467 L 512.78125 220.47538318625172 M 512.78125 220.47538318625172 L 519.3404842341523 220.72581521418564 M 526.3353877930141 220.99288112781426 L 537.327379099797 221.41255613494494 M 544.3222826586588 221.67962204857355 L 552.33203125 221.98543481746754 M 552.33203125 221.98543481746754 L 555.3148961623797 222.08162804797558 M 562.3112590952734 222.3072509883671 L 573.3055437041063 222.661801323268 M 580.301906637 222.8874242636595 L 591.296191245833 223.24197459856043 M 598.2926518605763 223.4644316217014 L 599.5 223.5" stroke-linecap="round" stroke-linejoin="round" stroke-miterlimit="10" stroke-width="2.5" stroke-opacity="0.9" stroke-dasharray=""/></g></g><g id="sketch-81d437d1"><title>"y" equals StartFraction, 1 Over "x" , EndFraction</title><path fill="none" stroke="#3072da" class="dcg-svg-point" paint-order="fill stroke markers" d=" M 490.3090909090909 79.4 L 490.3090909090909 79.6 L 490.50909090909096 79.6 L 490.50909090909096 79.4" stroke-linecap="round" stroke-linejoin="round" stroke-miterlimit="10" stroke-width="9" stroke-opacity="0.9" stroke-dasharray=""/></g><g id="sketch-81d437d1"><title>StartFraction, 1 Over "n" , EndFraction</title><path fill="none" stroke="#c64440" class="dcg-svg-point" paint-order="fill stroke markers" d=" M 490.3090909090909 111.4 L 490.3090909090909 111.6 L 490.50909090909096 111.6 L 490.50909090909096 111.4" stroke-linecap="round" stroke-linejoin="round" stroke-miterlimit="10" stroke-width="9" stroke-opacity="0.9" stroke-dasharray=""/></g></g><g id="labels-81d437d1"><g transform="rotate(0,0,0) translate(490.90909090909093,80)"><g class="dcg-svg-label"><g transform="translate(-56.159090909090935,-40)"><g><text fill="none" stroke="#FFF" font-family="&quot;Times New Roman&quot;, Symbola, serif" font-size="17.71px" font-style="italic" font-weight="normal" text-decoration="normal" x="0" y="15.962119999999999" text-anchor="start" stroke-linecap="round" stroke-linejoin="round" stroke-miterlimit="2" stroke-width="3" stroke-dasharray="">y</text></g></g><g transform="translate(-44.768465909090935,-38)"><g><text fill="none" stroke="#FFF" font-family="Symbola, &quot;Times New Roman&quot;, serif" font-size="17.71px" font-style="normal" font-weight="normal" text-decoration="normal" x="0" y="13.962119999999999" text-anchor="start" stroke-linecap="round" stroke-linejoin="round" stroke-miterlimit="2" stroke-width="3" stroke-dasharray="">=</text></g></g><g transform="translate(-22.549715909090935,-45.5625)"><g><text fill="none" stroke="#FFF" font-family="Symbola, &quot;Times New Roman&quot;, serif" font-size="15.939px" font-style="normal" font-weight="normal" text-decoration="normal" x="0" y="11.365908" text-anchor="start" stroke-linecap="round" stroke-linejoin="round" stroke-miterlimit="2" stroke-width="3" stroke-dasharray="">1</text></g></g><g transform="translate(-24.284090909090935,-29.625)"><g><path fill="none" stroke="#FFF" paint-order="fill stroke markers" d=" M 0 0 L 11.59375 0 L 11.59375 1 L 0 1 Z" stroke-linecap="round" stroke-linejoin="round" stroke-miterlimit="10" stroke-width="3" stroke-dasharray=""/></g></g><g transform="translate(-22.034090909090935,-29.03125)"><g><text fill="none" stroke="#FFF" font-family="&quot;Times New Roman&quot;, Symbola, serif" font-size="15.939px" font-style="italic" font-weight="normal" text-decoration="normal" x="0" y="13.365908" text-anchor="start" stroke-linecap="round" stroke-linejoin="round" stroke-miterlimit="2" stroke-width="3" stroke-dasharray="">x</text></g></g><g transform="translate(-56.159090909090935,-40)"><g><text fill="rgb(48, 114, 218)" stroke="none" font-family="&quot;Times New Roman&quot;, Symbola, serif" font-size="17.71px" font-style="italic" font-weight="normal" text-decoration="normal" x="0" y="15.962119999999999" text-anchor="start">y</text></g></g><g transform="translate(-44.768465909090935,-38)"><g><text fill="rgb(48, 114, 218)" stroke="none" font-family="Symbola, &quot;Times New Roman&quot;, serif" font-size="17.71px" font-style="normal" font-weight="normal" text-decoration="normal" x="0" y="13.962119999999999" text-anchor="start">=</text></g></g><g transform="translate(-22.549715909090935,-45.5625)"><g><text fill="rgb(48, 114, 218)" stroke="none" font-family="Symbola, &quot;Times New Roman&quot;, serif" font-size="15.939px" font-style="normal" font-weight="normal" text-decoration="normal" x="0" y="11.365908" text-anchor="start">1</text></g></g><g transform="translate(-24.284090909090935,-29.625)"><g><path fill="rgb(48, 114, 218)" stroke="none" paint-order="stroke fill markers" d=" M 0 0 L 11.59375 0 L 11.59375 1 L 0 1 Z"/></g></g><g transform="translate(-22.034090909090935,-29.03125)"><g><text fill="rgb(48, 114, 218)" stroke="none" font-family="&quot;Times New Roman&quot;, Symbola, serif" font-size="15.939px" font-style="italic" font-weight="normal" text-decoration="normal" x="0" y="13.365908" text-anchor="start">x</text></g></g></g></g><g transform="rotate(0,0,0) translate(490.90909090909093,112)"><g class="dcg-svg-label"><g transform="translate(19.419034090909065,-18.53125)"><g><text fill="none" stroke="#FFF" font-family="Symbola, &quot;Times New Roman&quot;, serif" font-size="15.939px" font-style="normal" font-weight="normal" text-decoration="normal" x="0" y="11.365908" text-anchor="start" stroke-linecap="round" stroke-linejoin="round" stroke-miterlimit="2" stroke-width="3" stroke-dasharray="">1</text></g></g><g transform="translate(17.684659090909065,-2.59375)"><g><path fill="none" stroke="#FFF" paint-order="fill stroke markers" d=" M 0 0 L 11.59375 0 L 11.59375 1 L 0 1 Z" stroke-linecap="round" stroke-linejoin="round" stroke-miterlimit="10" stroke-width="3" stroke-dasharray=""/></g></g><g transform="translate(19.497159090909065,-2)"><g><text fill="none" stroke="#FFF" font-family="&quot;Times New Roman&quot;, Symbola, serif" font-size="15.939px" font-style="italic" font-weight="normal" text-decoration="normal" x="0" y="13.365908" text-anchor="start" stroke-linecap="round" stroke-linejoin="round" stroke-miterlimit="2" stroke-width="3" stroke-dasharray="">n</text></g></g><g transform="translate(19.419034090909065,-18.53125)"><g><text fill="rgb(198, 68, 64)" stroke="none" font-family="Symbola, &quot;Times New Roman&quot;, serif" font-size="15.939px" font-style="normal" font-weight="normal" text-decoration="normal" x="0" y="11.365908" text-anchor="start">1</text></g></g><g transform="translate(17.684659090909065,-2.59375)"><g><path fill="rgb(198, 68, 64)" stroke="none" paint-order="stroke fill markers" d=" M 0 0 L 11.59375 0 L 11.59375 1 L 0 1 Z"/></g></g><g transform="translate(19.497159090909065,-2)"><g><text fill="rgb(198, 68, 64)" stroke="none" font-family="&quot;Times New Roman&quot;, Symbola, serif" font-size="15.939px" font-style="italic" font-weight="normal" text-decoration="normal" x="0" y="13.365908" text-anchor="start">n</text></g></g></g></g></g></g></svg>