<svg version="1.1" xmlns="http://www.w3.org/2000/svg" xmlns:xlink="http://www.w3.org/1999/xlink" width="600" height="400"><defs/><g transform="scale(1,1)"><g id="background-2d06c6ce"><rect fill="white" stroke="none" x="0" y="0" width="600" height="400" class="dcg-svg-background"/></g><g id="background-images-2d06c6ce"/><g id="graphpaper-2d06c6ce"><g id="grid-2d06c6ce"><g><path fill="none" stroke="rgb(0,0,0)" class="dcg-svg-minor-gridline" paint-order="fill stroke markers" d=" M -0.5 0 L -0.5 400" stroke-opacity="0.12" stroke-miterlimit="10" stroke-dasharray=""/><path fill="none" stroke="rgb(0,0,0)" class="dcg-svg-minor-gridline" paint-order="fill stroke markers" d=" M 29.5 0 L 29.5 400" stroke-opacity="0.12" stroke-miterlimit="10" stroke-dasharray=""/><path fill="none" stroke="rgb(0,0,0)" class="dcg-svg-minor-gridline" paint-order="fill stroke markers" d=" M 59.5 0 L 59.5 400" stroke-opacity="0.12" stroke-miterlimit="10" stroke-dasharray=""/><path fill="none" stroke="rgb(0,0,0)" class="dcg-svg-minor-gridline" paint-order="fill stroke markers" d=" M 89.5 0 L 89.5 400" stroke-opacity="0.12" stroke-miterlimit="10" stroke-dasharray=""/><path fill="none" stroke="rgb(0,0,0)" class="dcg-svg-minor-gridline" paint-order="fill stroke markers" d=" M 119.5 0 L 119.5 400" stroke-opacity="0.12" stroke-miterlimit="10" stroke-dasharray=""/><path fill="none" stroke="rgb(0,0,0)" class="dcg-svg-minor-gridline" paint-order="fill stroke markers" d=" M 149.5 0 L 149.5 400" stroke-opacity="0.12" stroke-miterlimit="10" stroke-dasharray=""/><path fill="none" stroke="rgb(0,0,0)" class="dcg-svg-minor-gridline" paint-order="fill stroke markers" d=" M 179.5 0 L 179.5 400" stroke-opacity="0.12" stroke-miterlimit="10" stroke-dasharray=""/><path fill="none" stroke="rgb(0,0,0)" class="dcg-svg-minor-gridline" paint-order="fill stroke markers" d=" M 209.5 0 L 209.5 400" stroke-opacity="0.12" stroke-miterlimit="10" stroke-dasharray=""/><path fill="none" stroke="rgb(0,0,0)" class="dcg-svg-minor-gridline" paint-order="fill stroke markers" d=" M 239.5 0 L 239.5 400" stroke-opacity="0.12" stroke-miterlimit="10" stroke-dasharray=""/><path fill="none" stroke="rgb(0,0,0)" class="dcg-svg-minor-gridline" paint-order="fill stroke markers" d=" M 269.5 0 L 269.5 400" stroke-opacity="0.12" stroke-miterlimit="10" stroke-dasharray=""/><path fill="none" stroke="rgb(0,0,0)" class="dcg-svg-minor-gridline" paint-order="fill stroke markers" d=" M 329.5 0 L 329.5 400" stroke-opacity="0.12" stroke-miterlimit="10" stroke-dasharray=""/><path fill="none" stroke="rgb(0,0,0)" class="dcg-svg-minor-gridline" paint-order="fill stroke markers" d=" M 359.5 0 L 359.5 400" stroke-opacity="0.12" stroke-miterlimit="10" stroke-dasharray=""/><path fill="none" stroke="rgb(0,0,0)" class="dcg-svg-minor-gridline" paint-order="fill stroke markers" d=" M 389.5 0 L 389.5 400" stroke-opacity="0.12" stroke-miterlimit="10" stroke-dasharray=""/><path fill="none" stroke="rgb(0,0,0)" class="dcg-svg-minor-gridline" paint-order="fill stroke markers" d=" M 419.5 0 L 419.5 400" stroke-opacity="0.12" stroke-miterlimit="10" stroke-dasharray=""/><path fill="none" stroke="rgb(0,0,0)" class="dcg-svg-minor-gridline" paint-order="fill stroke markers" d=" M 449.5 0 L 449.5 400" stroke-opacity="0.12" stroke-miterlimit="10" stroke-dasharray=""/><path fill="none" stroke="rgb(0,0,0)" class="dcg-svg-minor-gridline" paint-order="fill stroke markers" d=" M 479.5 0 L 479.5 400" stroke-opacity="0.12" stroke-miterlimit="10" stroke-dasharray=""/><path fill="none" stroke="rgb(0,0,0)" class="dcg-svg-minor-gridline" paint-order="fill stroke markers" d=" M 509.5 0 L 509.5 400" stroke-opacity="0.12" stroke-miterlimit="10" stroke-dasharray=""/><path fill="none" stroke="rgb(0,0,0)" class="dcg-svg-minor-gridline" paint-order="fill stroke markers" d=" M 539.5 0 L 539.5 400" stroke-opacity="0.12" stroke-miterlimit="10" stroke-dasharray=""/><path fill="none" stroke="rgb(0,0,0)" class="dcg-svg-minor-gridline" paint-order="fill stroke markers" d=" M 569.5 0 L 569.5 400" stroke-opacity="0.12" stroke-miterlimit="10" stroke-dasharray=""/><path fill="none" stroke="rgb(0,0,0)" class="dcg-svg-minor-gridline" paint-order="fill stroke markers" d=" M 0 370.5 L 600 370.5" stroke-opacity="0.12" stroke-miterlimit="10" stroke-dasharray=""/><path fill="none" stroke="rgb(0,0,0)" class="dcg-svg-minor-gridline" paint-order="fill stroke markers" d=" M 0 313.5 L 600 313.5" stroke-opacity="0.12" stroke-miterlimit="10" stroke-dasharray=""/><path fill="none" stroke="rgb(0,0,0)" class="dcg-svg-minor-gridline" paint-order="fill stroke markers" d=" M 0 285.5 L 600 285.5" stroke-opacity="0.12" stroke-miterlimit="10" stroke-dasharray=""/><path fill="none" stroke="rgb(0,0,0)" class="dcg-svg-minor-gridline" paint-order="fill stroke markers" d=" M 0 256.5 L 600 256.5" stroke-opacity="0.12" stroke-miterlimit="10" stroke-dasharray=""/><path fill="none" stroke="rgb(0,0,0)" class="dcg-svg-minor-gridline" paint-order="fill stroke markers" d=" M 0 228.5 L 600 228.5" stroke-opacity="0.12" stroke-miterlimit="10" stroke-dasharray=""/><path fill="none" stroke="rgb(0,0,0)" class="dcg-svg-minor-gridline" paint-order="fill stroke markers" d=" M 0 199.5 L 600 199.5" stroke-opacity="0.12" stroke-miterlimit="10" stroke-dasharray=""/><path fill="none" stroke="rgb(0,0,0)" class="dcg-svg-minor-gridline" paint-order="fill stroke markers" d=" M 0 170.5 L 600 170.5" stroke-opacity="0.12" stroke-miterlimit="10" stroke-dasharray=""/><path fill="none" stroke="rgb(0,0,0)" class="dcg-svg-minor-gridline" paint-order="fill stroke markers" d=" M 0 142.5 L 600 142.5" stroke-opacity="0.12" stroke-miterlimit="10" stroke-dasharray=""/><path fill="none" stroke="rgb(0,0,0)" class="dcg-svg-minor-gridline" paint-order="fill stroke markers" d=" M 0 113.5 L 600 113.5" stroke-opacity="0.12" stroke-miterlimit="10" stroke-dasharray=""/><path fill="none" stroke="rgb(0,0,0)" class="dcg-svg-minor-gridline" paint-order="fill stroke markers" d=" M 0 85.5 L 600 85.5" stroke-opacity="0.12" stroke-miterlimit="10" stroke-dasharray=""/><path fill="none" stroke="rgb(0,0,0)" class="dcg-svg-minor-gridline" paint-order="fill stroke markers" d=" M 0 56.5 L 600 56.5" stroke-opacity="0.12" stroke-miterlimit="10" stroke-dasharray=""/><path fill="none" stroke="rgb(0,0,0)" class="dcg-svg-minor-gridline" paint-order="fill stroke markers" d=" M 0 28.5 L 600 28.5" stroke-opacity="0.12" stroke-miterlimit="10" stroke-dasharray=""/><path fill="none" stroke="rgb(0,0,0)" class="dcg-svg-minor-gridline" paint-order="fill stroke markers" d=" M 0 -0.5 L 600 -0.5" stroke-opacity="0.12" stroke-miterlimit="10" stroke-dasharray=""/><path fill="none" stroke="rgb(0,0,0)" class="dcg-svg-major-gridline" paint-order="fill stroke markers" d=" M -0.5 0 L -0.5 400" stroke-opacity="0.31818181818181823" stroke-miterlimit="10" stroke-dasharray=""/><path fill="none" stroke="rgb(0,0,0)" class="dcg-svg-major-gridline" paint-order="fill stroke markers" d=" M 149.5 0 L 149.5 400" stroke-opacity="0.31818181818181823" stroke-miterlimit="10" stroke-dasharray=""/><path fill="none" stroke="rgb(0,0,0)" class="dcg-svg-major-gridline" paint-order="fill stroke markers" d=" M 449.5 0 L 449.5 400" stroke-opacity="0.31818181818181823" stroke-miterlimit="10" stroke-dasharray=""/><path fill="none" stroke="rgb(0,0,0)" class="dcg-svg-major-gridline" paint-order="fill stroke markers" d=" M 0 199.5 L 600 199.5" stroke-opacity="0.31818181818181823" stroke-miterlimit="10" stroke-dasharray=""/><path fill="none" stroke="rgb(0,0,0)" class="dcg-svg-major-gridline" paint-order="fill stroke markers" d=" M 0 56.5 L 600 56.5" stroke-opacity="0.31818181818181823" stroke-miterlimit="10" stroke-dasharray=""/></g></g><g id="axis-2d06c6ce"><g id="yaxis-2d06c6ce"><title>Y axis</title><path fill="none" stroke="rgb(0,0,0)" class="dcg-svg-axis-line" paint-order="fill stroke markers" d=" M 299.75 0 L 299.75 400" stroke-opacity="0.9" stroke-miterlimit="10" stroke-width="1.5" stroke-dasharray=""/></g><g id="xaxis-2d06c6ce"><title>X axis</title><path fill="none" stroke="rgb(0,0,0)" class="dcg-svg-axis-line" paint-order="fill stroke markers" d=" M 0 342.75 L 600 342.75" stroke-opacity="0.9" stroke-miterlimit="10" stroke-width="1.5" stroke-dasharray=""/></g><g/></g></g><g id="expressions-2d06c6ce"><g id="sketch-2d06c6ce"><title>Expression 1</title><path fill="#2d70b3" stroke="none" paint-order="stroke fill markers" d="" fill-opacity="0.4"/><g><path fill="none" stroke="#2d70b3" class="dcg-svg-curve" paint-order="fill stroke markers" d=" M 31.45467188128379 -5.5 L 31.45467188128379 -5.5 L 39.63671875 10.626844789233019 L 51.6484375 33.58994202710045 L 63.07421875 54.73978272252458 L 74.060546875 74.39862696798343 L 84.75390625 92.86056387046443 L 95.0078125 109.91095548479251 L 104.96875 125.83660372204889 L 114.63671875 140.67076948634974 L 124.158203125 154.66046780747416 L 133.38671875 167.61546894047123 L 142.46875 179.76862806981498 L 151.404296875 191.13467195110817 L 160.193359375 201.72994709274056 L 168.8359375 211.57224526785836 L 177.33203125 220.68063876293672 L 185.681640625 229.0753250219896 L 193.73828125 236.64472339323322 L 201.501953125 243.4393048928438 L 208.97265625 249.5092785048956 L 216.150390625 254.9043098732098 L 223.181640625 259.77039682583853 L 229.919921875 264.0417103544804 L 236.51171875 267.8463501255602 L 242.810546875 271.13439278554074 L 248.962890625 274.0164066805862 L 254.96875 276.51423754912264 L 260.828125 278.6495289261696 L 266.6875 280.4859343957115 L 272.400390625 281.98785086226394 L 277.966796875 283.17656266528576 L 283.533203125 284.0936498845914 L 289.099609375 284.73873239115676 L 294.51953125 285.10522189858904 L 299.939453125 285.2134365782547 L 305.359375 285.0633339381568 L 310.779296875 284.65497291880735 L 316.19921875 283.9885138932269 L 321.765625 283.03566244726653 L 327.33203125 281.8112448358559 L 332.8984375 280.315768887613 L 338.611328125 278.4997382793412 L 344.470703125 276.34206839302976 L 350.4765625 273.8213820071607 L 356.482421875 270.98901773594605 L 362.634765625 267.76583577385725 L 369.080078125 264.0417103544804 L 375.671875 259.8673415972928 L 382.41015625 255.2206205577595 L 389.44140625 249.96579390894308 L 396.619140625 244.17734956964335 L 404.08984375 237.70188724688933 L 411.853515625 230.4905614486898 L 419.91015625 222.4940826271706 L 428.259765625 213.66300623152043 L 436.755859375 204.1175260834593 L 445.3984375 193.8382953901941 L 454.1875 182.80714921299446 L 463.123046875 171.00726197837386 L 472.205078125 158.42331442143998 L 481.43359375 145.04167030238065 L 490.955078125 130.62414695936678 L 500.76953125 115.13329891740028 L 510.73046875 98.77982449619049 L 521.130859375 81.05190138583066 L 531.82421875 62.15881077147088 L 542.810546875 42.07906855757341 L 554.236328125 20.516363678761024 L 566.248046875 -2.8521218823076993 L 567.5705779539596 -5.5" stroke-linecap="round" stroke-linejoin="round" stroke-miterlimit="10" stroke-width="2.5" stroke-opacity="0.9" stroke-dasharray=""/></g></g><g id="sketch-2d06c6ce"><title>Expression 2</title><path fill="#388c46" stroke="none" paint-order="stroke fill markers" d="" fill-opacity="0.4"/><path fill="#388c46" stroke="none" paint-order="stroke fill markers" d="" fill-opacity="0.4"/><path fill="#388c46" stroke="none" class="dcg-svg-region" paint-order="stroke fill markers" d=" M -0.5 -3 L -0.5 342.35714285714283 L 599.5 342.35714285714283 L 599.5 -3 L 566.3219073012935 -3 L 566.248046875 -2.8521218823076993 L 554.236328125 20.516363678761024 L 542.810546875 42.07906855757341 L 531.82421875 62.15881077147088 L 521.130859375 81.05190138583066 L 510.73046875 98.77982449619049 L 500.76953125 115.13329891740028 L 490.955078125 130.62414695936678 L 481.43359375 145.04167030238065 L 472.205078125 158.42331442143998 L 463.123046875 171.00726197837386 L 454.1875 182.80714921299446 L 445.3984375 193.8382953901941 L 436.755859375 204.1175260834593 L 428.259765625 213.66300623152043 L 419.91015625 222.4940826271706 L 411.853515625 230.4905614486898 L 404.08984375 237.70188724688933 L 396.619140625 244.17734956964335 L 389.44140625 249.96579390894308 L 382.41015625 255.2206205577595 L 375.671875 259.8673415972928 L 369.080078125 264.0417103544804 L 362.634765625 267.76583577385725 L 356.482421875 270.98901773594605 L 350.4765625 273.8213820071607 L 344.470703125 276.34206839302976 L 338.611328125 278.4997382793412 L 332.8984375 280.315768887613 L 327.33203125 281.8112448358559 L 321.765625 283.03566244726653 L 316.19921875 283.9885138932269 L 310.779296875 284.65497291880735 L 305.359375 285.0633339381568 L 299.939453125 285.2134365782547 L 294.51953125 285.10522189858904 L 289.099609375 284.73873239115676 L 283.533203125 284.0936498845914 L 277.966796875 283.17656266528576 L 272.400390625 281.98785086226394 L 266.6875 280.4859343957115 L 260.828125 278.6495289261696 L 254.96875 276.51423754912264 L 248.962890625 274.0164066805862 L 242.810546875 271.13439278554074 L 236.51171875 267.8463501255602 L 229.919921875 264.0417103544804 L 223.181640625 259.77039682583853 L 216.150390625 254.9043098732098 L 208.97265625 249.5092785048956 L 201.501953125 243.4393048928438 L 193.73828125 236.64472339323322 L 185.681640625 229.0753250219896 L 177.33203125 220.68063876293672 L 168.8359375 211.57224526785836 L 160.193359375 201.72994709274056 L 151.404296875 191.13467195110817 L 142.46875 179.76862806981498 L 133.38671875 167.61546894047123 L 124.158203125 154.66046780747416 L 114.63671875 140.67076948634974 L 104.96875 125.83660372204889 L 95.0078125 109.91095548479251 L 84.75390625 92.86056387046443 L 74.060546875 74.39862696798343 L 63.07421875 54.73978272252458 L 51.6484375 33.58994202710045 L 39.63671875 10.626844789233019 L 32.72306116878082 -3" fill-opacity="0.4"/><g><path fill="none" stroke="#388c46" class="dcg-svg-curve" paint-order="fill stroke markers" d=" M -0.5 342.35714285714283 L 10.5 342.35714285714283 M 17.5 342.35714285714283 L 28.5 342.35714285714283 M 35.5 342.35714285714283 L 46.5 342.35714285714283 M 53.5 342.35714285714283 L 64.5 342.35714285714283 M 71.5 342.35714285714283 L 82.5 342.35714285714283 M 89.5 342.35714285714283 L 100.5 342.35714285714283 M 107.5 342.35714285714283 L 118.5 342.35714285714283 M 125.5 342.35714285714283 L 136.5 342.35714285714283 M 143.5 342.35714285714283 L 154.5 342.35714285714283 M 161.5 342.35714285714283 L 172.5 342.35714285714283 M 179.5 342.35714285714283 L 190.5 342.35714285714283 M 197.5 342.35714285714283 L 208.5 342.35714285714283 M 215.5 342.35714285714283 L 226.5 342.35714285714283 M 233.5 342.35714285714283 L 244.5 342.35714285714283 M 251.5 342.35714285714283 L 262.5 342.35714285714283 M 269.5 342.35714285714283 L 280.5 342.35714285714283 M 287.5 342.35714285714283 L 298.5 342.35714285714283 M 305.5 342.35714285714283 L 316.5 342.35714285714283 M 323.5 342.35714285714283 L 334.5 342.35714285714283 M 341.5 342.35714285714283 L 352.5 342.35714285714283 M 359.5 342.35714285714283 L 370.5 342.35714285714283 M 377.5 342.35714285714283 L 388.5 342.35714285714283 M 395.5 342.35714285714283 L 406.5 342.35714285714283 M 413.5 342.35714285714283 L 424.5 342.35714285714283 M 431.5 342.35714285714283 L 442.5 342.35714285714283 M 449.5 342.35714285714283 L 460.5 342.35714285714283 M 467.5 342.35714285714283 L 478.5 342.35714285714283 M 485.5 342.35714285714283 L 496.5 342.35714285714283 M 503.5 342.35714285714283 L 514.5 342.35714285714283 M 521.5 342.35714285714283 L 532.5 342.35714285714283 M 539.5 342.35714285714283 L 550.5 342.35714285714283 M 557.5 342.35714285714283 L 568.5 342.35714285714283 M 575.5 342.35714285714283 L 586.5 342.35714285714283 M 593.5 342.35714285714283 L 599.5 342.35714285714283" stroke-linecap="round" stroke-linejoin="round" stroke-miterlimit="10" stroke-width="2.5" stroke-opacity="0.9" stroke-dasharray=""/></g><g><path fill="none" stroke="#388c46" class="dcg-svg-curve" paint-order="fill stroke markers" d=" M 31.45467188128379 -5.5 L 36.43166245011587 4.309666909623205 M 39.59883826664538 10.552182215747065 L 39.63671875 10.626844789233019 M 39.63671875 10.626844789233019 L 44.69646995697002 20.2996952266502 M 47.941006195894985 26.50235470418906 L 51.6484375 33.58994202710045 M 51.6484375 33.58994202710045 L 53.07498015681526 36.23056232926751 M 56.40211985152296 42.38930744916818 L 61.63048222892078 52.06733549472637 M 65.00728294636227 58.1987917308468 L 70.37350525015286 67.80106532548575 M 73.7883739889287 73.91160306752872 L 74.060546875 74.39862696798343 M 74.060546875 74.39862696798343 L 79.29419457258629 83.43444725365985 M 82.80264501087343 89.49173835794755 L 84.75390625 92.86056387046443 M 84.75390625 92.86056387046443 L 88.41657961507055 98.95092726049657 M 92.02417168706023 104.94970042191193 L 95.0078125 109.91095548479251 M 95.0078125 109.91095548479251 L 97.77094764247789 114.32868406818179 M 101.48292500376277 120.2634312463949 L 104.96875 125.83660372204889 M 104.96875 125.83660372204889 L 107.38565291255372 129.54500818302145 M 111.20772789269806 135.40945554369873 L 114.63671875 140.67076948634974 M 114.63671875 140.67076948634974 L 117.29239608335035 144.57269520177368 M 121.23096721882477 150.35954731763147 L 124.158203125 154.66046780747416 M 124.158203125 154.66046780747416 L 127.52184675614998 159.38235470925275 M 131.5832090253703 165.08369985914092 L 133.38671875 167.61546894047123 M 133.38671875 167.61546894047123 L 138.11070613392943 173.93689295031555 M 142.30100323098756 179.54415701029936 L 142.46875 179.76862806981498 M 142.46875 179.76862806981498 L 149.09398817065792 188.19595197344754 M 153.48685094841827 193.64520517409912 L 160.193359375 201.72994709274056 M 160.193359375 201.72994709274056 L 160.52043514351712 202.10242590554867 M 165.13921240840625 207.36235903985212 L 168.8359375 211.57224526785836 M 168.8359375 211.57224526785836 L 172.51751958219236 215.51915302049917 M 177.29222329389822 220.63796191177676 L 177.33203125 220.68063876293672 M 177.33203125 220.68063876293672 L 185.04808221383286 228.43834623056773 M 190.1284874739871 233.25323947326163 L 193.73828125 236.64472339323322 M 193.73828125 236.64472339323322 L 198.2886720242233 240.62711748050734 M 203.62067934817412 245.16077769809988 L 208.97265625 249.5092785048956 M 208.97265625 249.5092785048956 L 212.2533794514704 251.9751825991369 M 217.8976745682213 256.1135451583507 L 223.181640625 259.77039682583853 M 223.181640625 259.77039682583853 L 227.04491511108282 262.2192789613627 M 233.03441924489908 265.8393295446866 L 236.51171875 267.8463501255602 M 236.51171875 267.8463501255602 L 242.7038825446916 271.07871308427053 M 249.0420737058962 274.0493388442249 L 254.96875 276.51423754912264 M 254.96875 276.51423754912264 L 259.27302666108176 278.0828152282833 M 265.92835713077034 280.2480089997065 L 266.6875 280.4859343957115 M 266.6875 280.4859343957115 L 272.400390625 281.98785086226394 M 272.400390625 281.98785086226394 L 276.60305662282747 282.8853345261226 M 283.4977442383696 284.08780789421576 L 283.533203125 284.0936498845914 M 283.533203125 284.0936498845914 L 289.099609375 284.73873239115676 M 289.099609375 284.73873239115676 L 294.44779917100703 285.100371449652 M 301.4459775271335 285.1717139676069 L 305.359375 285.0633339381568 M 305.359375 285.0633339381568 L 310.779296875 284.65497291880735 M 310.779296875 284.65497291880735 L 312.41678174813404 284.45362009525735 M 319.34257210342577 283.4504380407905 L 321.765625 283.03566244726653 M 321.765625 283.03566244726653 L 327.33203125 281.8112448358559 M 327.33203125 281.8112448358559 L 330.07691842480574 281.073800861018 M 336.78521225068613 279.08022940715887 L 338.611328125 278.4997382793412 M 338.611328125 278.4997382793412 L 344.470703125 276.34206839302976 M 344.470703125 276.34206839302976 L 347.08924035639853 275.2430564551957 M 353.48520544085613 272.4025055003289 L 356.482421875 270.98901773594605 M 356.482421875 270.98901773594605 L 362.634765625 267.76583577385725 M 362.634765625 267.76583577385725 L 363.27609029034204 267.39527600840387 M 369.33084133609196 263.8829102376558 L 375.671875 259.8673415972928 M 375.671875 259.8673415972928 L 378.5486126497907 257.88354233653916 M 384.25994333176124 253.8381764046039 L 389.44140625 249.96579390894308 M 389.44140625 249.96579390894308 L 392.96871226150233 247.12121741049071 M 398.3650152767094 242.66405887421158 L 404.08984375 237.70188724688933 M 404.08984375 237.70188724688933 L 406.5985239328462 235.37168699972977 M 411.7273529942069 230.60774824494484 L 411.853515625 230.4905614486898 M 411.853515625 230.4905614486898 L 419.53857252626614 222.86289160296613 M 424.35962189908327 217.78804557775769 L 428.259765625 213.66300623152043 M 428.259765625 213.66300623152043 L 431.7988586434822 209.68678573017962 M 436.45283860706206 204.45797415405667 L 436.755859375 204.1175260834593 M 436.755859375 204.1175260834593 L 443.5415176948656 196.04686172072633 M 447.96238347335014 190.62028859794887 L 454.1875 182.80714921299446 M 454.1875 182.80714921299446 L 454.7973201026438 182.00184780892096 M 459.02319354369695 176.42134660739774 L 463.123046875 171.00726197837386 M 463.123046875 171.00726197837386 L 465.58609238735164 167.59449728900174 M 469.68263615531663 161.9183780903637 L 472.205078125 158.42331442143998 M 472.205078125 158.42331442143998 L 476.0030173542154 152.91618053161955 M 479.97708837817726 147.15364988124495 L 481.43359375 145.04167030238065 M 481.43359375 145.04167030238065 L 486.0816767855581 138.00349820377596 M 489.93924248926146 132.16233506261892 L 490.955078125 130.62414695936678 M 490.955078125 130.62414695936678 L 495.85563868912516 122.88924435680161 M 499.6019792715959 116.97612908309584 L 500.76953125 115.13329891740028 M 500.76953125 115.13329891740028 L 505.3568865860631 107.60195980907758 M 508.99828852583374 101.62364968722585 L 510.73046875 98.77982449619049 M 510.73046875 98.77982449619049 L 514.6116876709009 92.1641161939645 M 518.1537922478658 86.12644320134191 L 521.130859375 81.05190138583066 M 521.130859375 81.05190138583066 L 523.6511575837922 76.59902359840308 M 527.0991392944682 70.50710911091696 L 531.82421875 62.15881077147088 M 531.82421875 62.15881077147088 L 532.4996914584877 60.92424743924228 M 535.8596064631516 54.78332151871252 L 541.1394728990521 45.13329507216576 M 544.4579656429985 38.97006411149503 L 549.6083326172311 29.25030485363609 M 552.8858388735609 23.06500350772586 L 554.236328125 20.516363678761024 M 554.236328125 20.516363678761024 L 557.9464580328661 13.298402703637752 M 561.1465541601403 7.072699146913902 L 566.1752766458571 -2.710549299366434" stroke-linecap="round" stroke-linejoin="round" stroke-miterlimit="10" stroke-width="2.5" stroke-opacity="0.9" stroke-dasharray=""/></g></g></g><g id="labels-2d06c6ce"/></g></svg>