<svg version="1.1" xmlns="http://www.w3.org/2000/svg" xmlns:xlink="http://www.w3.org/1999/xlink" width="600" height="400"><defs/><g transform="scale(1,1)"><g id="background-29bfd3bd"><rect fill="white" stroke="none" x="0" y="0" width="600" height="400" class="dcg-svg-background"/></g><g id="background-images-29bfd3bd"/><g id="graphpaper-29bfd3bd"><g id="grid-29bfd3bd"><g><path fill="none" stroke="rgb(0,0,0)" class="dcg-svg-minor-gridline" paint-order="fill stroke markers" d=" M -0.5 0 L -0.5 400" stroke-opacity="0.12" stroke-miterlimit="10" stroke-dasharray=""/><path fill="none" stroke="rgb(0,0,0)" class="dcg-svg-minor-gridline" paint-order="fill stroke markers" d=" M 32.5 0 L 32.5 400" stroke-opacity="0.12" stroke-miterlimit="10" stroke-dasharray=""/><path fill="none" stroke="rgb(0,0,0)" class="dcg-svg-minor-gridline" paint-order="fill stroke markers" d=" M 99.5 0 L 99.5 400" stroke-opacity="0.12" stroke-miterlimit="10" stroke-dasharray=""/><path fill="none" stroke="rgb(0,0,0)" class="dcg-svg-minor-gridline" paint-order="fill stroke markers" d=" M 132.5 0 L 132.5 400" stroke-opacity="0.12" stroke-miterlimit="10" stroke-dasharray=""/><path fill="none" stroke="rgb(0,0,0)" class="dcg-svg-minor-gridline" paint-order="fill stroke markers" d=" M 166.5 0 L 166.5 400" stroke-opacity="0.12" stroke-miterlimit="10" stroke-dasharray=""/><path fill="none" stroke="rgb(0,0,0)" class="dcg-svg-minor-gridline" paint-order="fill stroke markers" d=" M 199.5 0 L 199.5 400" stroke-opacity="0.12" stroke-miterlimit="10" stroke-dasharray=""/><path fill="none" stroke="rgb(0,0,0)" class="dcg-svg-minor-gridline" paint-order="fill stroke markers" d=" M 232.5 0 L 232.5 400" stroke-opacity="0.12" stroke-miterlimit="10" stroke-dasharray=""/><path fill="none" stroke="rgb(0,0,0)" class="dcg-svg-minor-gridline" paint-order="fill stroke markers" d=" M 266.5 0 L 266.5 400" stroke-opacity="0.12" stroke-miterlimit="10" stroke-dasharray=""/><path fill="none" stroke="rgb(0,0,0)" class="dcg-svg-minor-gridline" paint-order="fill stroke markers" d=" M 299.5 0 L 299.5 400" stroke-opacity="0.12" stroke-miterlimit="10" stroke-dasharray=""/><path fill="none" stroke="rgb(0,0,0)" class="dcg-svg-minor-gridline" paint-order="fill stroke markers" d=" M 332.5 0 L 332.5 400" stroke-opacity="0.12" stroke-miterlimit="10" stroke-dasharray=""/><path fill="none" stroke="rgb(0,0,0)" class="dcg-svg-minor-gridline" paint-order="fill stroke markers" d=" M 366.5 0 L 366.5 400" stroke-opacity="0.12" stroke-miterlimit="10" stroke-dasharray=""/><path fill="none" stroke="rgb(0,0,0)" class="dcg-svg-minor-gridline" paint-order="fill stroke markers" d=" M 399.5 0 L 399.5 400" stroke-opacity="0.12" stroke-miterlimit="10" stroke-dasharray=""/><path fill="none" stroke="rgb(0,0,0)" class="dcg-svg-minor-gridline" paint-order="fill stroke markers" d=" M 432.5 0 L 432.5 400" stroke-opacity="0.12" stroke-miterlimit="10" stroke-dasharray=""/><path fill="none" stroke="rgb(0,0,0)" class="dcg-svg-minor-gridline" paint-order="fill stroke markers" d=" M 466.5 0 L 466.5 400" stroke-opacity="0.12" stroke-miterlimit="10" stroke-dasharray=""/><path fill="none" stroke="rgb(0,0,0)" class="dcg-svg-minor-gridline" paint-order="fill stroke markers" d=" M 499.5 0 L 499.5 400" stroke-opacity="0.12" stroke-miterlimit="10" stroke-dasharray=""/><path fill="none" stroke="rgb(0,0,0)" class="dcg-svg-minor-gridline" paint-order="fill stroke markers" d=" M 532.5 0 L 532.5 400" stroke-opacity="0.12" stroke-miterlimit="10" stroke-dasharray=""/><path fill="none" stroke="rgb(0,0,0)" class="dcg-svg-minor-gridline" paint-order="fill stroke markers" d=" M 566.5 0 L 566.5 400" stroke-opacity="0.12" stroke-miterlimit="10" stroke-dasharray=""/><path fill="none" stroke="rgb(0,0,0)" class="dcg-svg-minor-gridline" paint-order="fill stroke markers" d=" M 0 366.5 L 600 366.5" stroke-opacity="0.12" stroke-miterlimit="10" stroke-dasharray=""/><path fill="none" stroke="rgb(0,0,0)" class="dcg-svg-minor-gridline" paint-order="fill stroke markers" d=" M 0 332.5 L 600 332.5" stroke-opacity="0.12" stroke-miterlimit="10" stroke-dasharray=""/><path fill="none" stroke="rgb(0,0,0)" class="dcg-svg-minor-gridline" paint-order="fill stroke markers" d=" M 0 299.5 L 600 299.5" stroke-opacity="0.12" stroke-miterlimit="10" stroke-dasharray=""/><path fill="none" stroke="rgb(0,0,0)" class="dcg-svg-minor-gridline" paint-order="fill stroke markers" d=" M 0 266.5 L 600 266.5" stroke-opacity="0.12" stroke-miterlimit="10" stroke-dasharray=""/><path fill="none" stroke="rgb(0,0,0)" class="dcg-svg-minor-gridline" paint-order="fill stroke markers" d=" M 0 232.5 L 600 232.5" stroke-opacity="0.12" stroke-miterlimit="10" stroke-dasharray=""/><path fill="none" stroke="rgb(0,0,0)" class="dcg-svg-minor-gridline" paint-order="fill stroke markers" d=" M 0 166.5 L 600 166.5" stroke-opacity="0.12" stroke-miterlimit="10" stroke-dasharray=""/><path fill="none" stroke="rgb(0,0,0)" class="dcg-svg-minor-gridline" paint-order="fill stroke markers" d=" M 0 132.5 L 600 132.5" stroke-opacity="0.12" stroke-miterlimit="10" stroke-dasharray=""/><path fill="none" stroke="rgb(0,0,0)" class="dcg-svg-minor-gridline" paint-order="fill stroke markers" d=" M 0 99.5 L 600 99.5" stroke-opacity="0.12" stroke-miterlimit="10" stroke-dasharray=""/><path fill="none" stroke="rgb(0,0,0)" class="dcg-svg-minor-gridline" paint-order="fill stroke markers" d=" M 0 66.5 L 600 66.5" stroke-opacity="0.12" stroke-miterlimit="10" stroke-dasharray=""/><path fill="none" stroke="rgb(0,0,0)" class="dcg-svg-minor-gridline" paint-order="fill stroke markers" d=" M 0 32.5 L 600 32.5" stroke-opacity="0.12" stroke-miterlimit="10" stroke-dasharray=""/><path fill="none" stroke="rgb(0,0,0)" class="dcg-svg-minor-gridline" paint-order="fill stroke markers" d=" M 0 -0.5 L 600 -0.5" stroke-opacity="0.12" stroke-miterlimit="10" stroke-dasharray=""/><path fill="none" stroke="rgb(0,0,0)" class="dcg-svg-major-gridline" paint-order="fill stroke markers" d=" M 199.5 0 L 199.5 400" stroke-opacity="0.31818181818181823" stroke-miterlimit="10" stroke-dasharray=""/><path fill="none" stroke="rgb(0,0,0)" class="dcg-svg-major-gridline" paint-order="fill stroke markers" d=" M 332.5 0 L 332.5 400" stroke-opacity="0.31818181818181823" stroke-miterlimit="10" stroke-dasharray=""/><path fill="none" stroke="rgb(0,0,0)" class="dcg-svg-major-gridline" paint-order="fill stroke markers" d=" M 466.5 0 L 466.5 400" stroke-opacity="0.31818181818181823" stroke-miterlimit="10" stroke-dasharray=""/><path fill="none" stroke="rgb(0,0,0)" class="dcg-svg-major-gridline" paint-order="fill stroke markers" d=" M 0 332.5 L 600 332.5" stroke-opacity="0.31818181818181823" stroke-miterlimit="10" stroke-dasharray=""/><path fill="none" stroke="rgb(0,0,0)" class="dcg-svg-major-gridline" paint-order="fill stroke markers" d=" M 0 66.5 L 600 66.5" stroke-opacity="0.31818181818181823" stroke-miterlimit="10" stroke-dasharray=""/></g></g><g id="axis-29bfd3bd"><g id="yaxis-29bfd3bd"><title>Y axis</title><path fill="none" stroke="rgb(0,0,0)" class="dcg-svg-axis-line" paint-order="fill stroke markers" d=" M 66.75 0 L 66.75 400" stroke-opacity="0.9" stroke-miterlimit="10" stroke-width="1.5" stroke-dasharray=""/></g><g id="xaxis-29bfd3bd"><title>X axis</title><path fill="none" stroke="rgb(0,0,0)" class="dcg-svg-axis-line" paint-order="fill stroke markers" d=" M 0 199.75 L 600 199.75" stroke-opacity="0.9" stroke-miterlimit="10" stroke-width="1.5" stroke-dasharray=""/></g><g><g class="dcg-svg-axis-value"><text fill="none" stroke="#ffffff" font-family="Arial" font-size="14px" font-style="normal" font-weight="normal" text-decoration="normal" x="57.77360026041667" y="215.808" text-anchor="middle" stroke-miterlimit="2" stroke-width="3" stroke-dasharray="">0</text><text fill="#000000" stroke="none" font-family="Arial" font-size="14px" font-style="normal" font-weight="normal" text-decoration="normal" x="57.77360026041667" y="215.808" text-anchor="middle">0</text></g><g class="dcg-svg-axis-value"><text fill="none" stroke="#ffffff" font-family="Arial" font-size="14px" font-style="normal" font-weight="normal" text-decoration="normal" x="200" y="215.808" text-anchor="middle" stroke-miterlimit="2" stroke-width="3" stroke-dasharray="">2</text><text fill="#000000" stroke="none" font-family="Arial" font-size="14px" font-style="normal" font-weight="normal" text-decoration="normal" x="200" y="215.808" text-anchor="middle">2</text></g><g class="dcg-svg-axis-value"><text fill="none" stroke="#ffffff" font-family="Arial" font-size="14px" font-style="normal" font-weight="normal" text-decoration="normal" x="333.33333333333337" y="215.808" text-anchor="middle" stroke-miterlimit="2" stroke-width="3" stroke-dasharray="">4</text><text fill="#000000" stroke="none" font-family="Arial" font-size="14px" font-style="normal" font-weight="normal" text-decoration="normal" x="333.33333333333337" y="215.808" text-anchor="middle">4</text></g><g class="dcg-svg-axis-value"><text fill="none" stroke="#ffffff" font-family="Arial" font-size="14px" font-style="normal" font-weight="normal" text-decoration="normal" x="466.6666666666667" y="215.808" text-anchor="middle" stroke-miterlimit="2" stroke-width="3" stroke-dasharray="">6</text><text fill="#000000" stroke="none" font-family="Arial" font-size="14px" font-style="normal" font-weight="normal" text-decoration="normal" x="466.6666666666667" y="215.808" text-anchor="middle">6</text></g><g class="dcg-svg-axis-value dcg-svg-offcenter-axis-value"><text fill="none" stroke="#ffffff" font-family="Arial" font-size="14px" font-style="normal" font-weight="normal" text-decoration="normal" x="593.10693359375" y="215.808" text-anchor="middle" stroke-miterlimit="2" stroke-width="3" stroke-dasharray="">8</text><text fill="#000000" stroke="none" font-family="Arial" font-size="14px" font-style="normal" font-weight="normal" text-decoration="normal" x="593.10693359375" y="215.808" text-anchor="middle">8</text></g><g class="dcg-svg-axis-value"><text fill="none" stroke="#ffffff" font-family="Arial" font-size="14px" font-style="normal" font-weight="normal" text-decoration="normal" x="55.44254557291667" y="337.14133333333336" text-anchor="middle" stroke-miterlimit="2" stroke-width="3" stroke-dasharray="">-2</text><text fill="#000000" stroke="none" font-family="Arial" font-size="14px" font-style="normal" font-weight="normal" text-decoration="normal" x="55.44254557291667" y="337.14133333333336" text-anchor="middle">-2</text></g><g class="dcg-svg-axis-value"><text fill="none" stroke="#ffffff" font-family="Arial" font-size="14px" font-style="normal" font-weight="normal" text-decoration="normal" x="57.77360026041667" y="70.47466666666666" text-anchor="middle" stroke-miterlimit="2" stroke-width="3" stroke-dasharray="">2</text><text fill="#000000" stroke="none" font-family="Arial" font-size="14px" font-style="normal" font-weight="normal" text-decoration="normal" x="57.77360026041667" y="70.47466666666666" text-anchor="middle">2</text></g></g></g></g><g id="expressions-29bfd3bd"><g id="sketch-29bfd3bd"><title>Expression 1</title><path fill="#2d70b3" stroke="none" paint-order="stroke fill markers" d="" fill-opacity="0.4"/><g><path fill="none" stroke="#2d70b3" class="dcg-svg-curve" paint-order="fill stroke markers" d=" M 66.16666666666667 199.5 L 66.16666666666667 199.5 L 85.20662214296846 180.71782954390466 L 95.31244466500554 171.27383881418487 L 103.66073283538401 163.95150814501497 L 110.98379263396163 157.9831064720798 L 117.57454645268146 153.0374954229804 L 123.57945548751512 148.92535863175314 L 129.29144213040564 145.39387942328628 L 134.56404518538153 142.48583454964233 L 139.54372584841428 140.06635490165723 L 144.37694531547552 138.03489173134523 L 149.06370358656517 136.37328656516405 L 153.60400066168327 135.06093170726757 L 157.99783654082987 134.07532492403908 L 162.2452112240049 133.3925785912557 L 166.4925859071799 132.97807438105826 L 170.73996059035488 132.83349421488305 L 174.84087407755834 132.95058164621588 L 179.08824876073336 133.33722203415283 L 183.3356234439084 133.9923291633351 L 187.58299812708339 134.91324482500033 L 191.97683400622992 136.14164421660092 L 196.51713108134808 137.6999426901466 L 201.20388935243773 139.608960743899 L 206.03710881949897 141.88741082554344 L 211.1632506785033 144.63440894042287 L 216.43585373347915 147.79797214935817 L 222.14784037636971 151.58925416163183 L 228.2992106071749 156.06441441723547 L 234.88996442589476 161.26823641628258 L 242.21302422447235 167.48581388326178 L 250.5613123948508 175.0400901571665 L 260.6671349168879 184.6856702438473 L 275.89909929792935 199.79292144942747 L 294.646132382288 218.2821704560953 L 304.7519549043251 227.7261611858151 L 313.1002430747036 235.04849185498503 L 320.4233028732811 241.01689352792013 L 327.014056692001 245.96250457701953 L 333.01896572683467 250.0746413682468 L 338.73095236972523 253.6061205767137 L 344.00355542470106 256.5141654503576 L 348.9832360877338 258.9336450983427 L 353.8164555547951 260.9651082686547 L 358.5032138258847 262.6267134348359 L 363.04351090100283 263.9390682927324 L 367.4373467801494 264.92467507596086 L 371.6847214633244 265.60742140874424 L 375.9320961464994 266.02192561894174 L 380.1794708296744 266.1665057851169 L 384.2803843168779 266.04941835378406 L 388.5277590000529 265.6627779658471 L 392.7751336832279 265.00767083666483 L 397.022508366403 264.08675517499967 L 401.4163442455495 262.858355783399 L 405.9566413206676 261.3000573098534 L 410.64339959175726 259.391039256101 L 415.4766190588185 257.1125891744565 L 420.6027609178228 254.3655910595771 L 425.8753639727987 251.2020278506418 L 431.5873506156893 247.41074583836814 L 437.7387208464944 242.9355855827645 L 444.32947466521426 237.73176358371748 L 451.6525344637919 231.5141861167382 L 460.0008226341704 223.95990984283347 L 470.10664515620743 214.31432975615266 L 485.0456871453058 199.5" stroke-linecap="round" stroke-linejoin="round" stroke-miterlimit="10" stroke-width="2.5" stroke-opacity="0.9" stroke-dasharray=""/></g></g><g id="sketch-29bfd3bd"><title>Expression 2</title><path fill="#43835c" stroke="none" paint-order="stroke fill markers" d="" fill-opacity="0.4"/><path fill="#43835c" stroke="none" paint-order="stroke fill markers" d="" fill-opacity="0.4"/><path fill="#43835c" stroke="none" class="dcg-svg-region" paint-order="stroke fill markers" d=" M 66.16666666666667 199.5 L 275.6061769059862 199.5 L 275.6061769059862 199.49999999999994 L 260.681640625 184.6998136264825 L 250.57421875000003 175.05209689329612 L 242.22460937500003 167.49597630484456 L 234.90039062500003 161.2767782559383 L 228.30859375000003 156.07153308368552 L 222.15625000000003 151.5951022621252 L 216.44335937500003 147.80271086508202 L 211.16992187500003 144.63819888666572 L 206.04296875000003 141.8903595753821 L 201.20898437500003 139.61119889996087 L 196.521484375 137.70157556475374 L 191.98046875 136.1427751000557 L 187.5859375 134.91397337794086 L 183.337890625 133.99275011386533 L 179.08984375 133.337417785845 L 174.841796875 132.9506363578751 L 170.740234375 132.83349361396336 L 166.4921875 132.97810062127672 L 162.244140625 133.39271698060423 L 157.99609375 134.07565978307576 L 153.6015625 135.06155675472928 L 149.060546875 136.3743016012296 L 144.373046875 138.0364014901042 L 139.5390625 140.0684675974835 L 134.55859375 142.48866009678676 L 129.28515625 145.3975520316538 L 123.57226562500001 148.93004336419443 L 117.56640625000001 153.0433333675643 L 110.97460937500001 157.9902920146525 L 103.65039062500001 163.96025779276874 L 95.30078125 171.2844056748161 L 85.193359375 180.73055544817495 L 66.16666666666667 199.5" fill-opacity="0.4"/><g><path fill="none" stroke="#43835c" class="dcg-svg-curve" paint-order="fill stroke markers" d=" M 66.16666666666667 199.5 L 77.16666666666667 199.5 M 84.16666666666667 199.5 L 95.16666666666667 199.5 M 102.16666666666667 199.5 L 113.16666666666667 199.5 M 120.16666666666667 199.5 L 131.16666666666669 199.5 M 138.16666666666669 199.5 L 149.16666666666669 199.5 M 156.16666666666669 199.5 L 167.16666666666669 199.5 M 174.16666666666669 199.5 L 185.16666666666669 199.5 M 192.16666666666669 199.5 L 203.16666666666669 199.5 M 210.16666666666669 199.5 L 221.16666666666669 199.5 M 228.16666666666669 199.5 L 239.16666666666669 199.5 M 246.16666666666669 199.5 L 257.1666666666667 199.5 M 264.1666666666667 199.5 L 275.1666666666667 199.5" stroke-linecap="round" stroke-linejoin="round" stroke-miterlimit="10" stroke-width="2.5" stroke-opacity="0.9" stroke-dasharray=""/></g><g><path fill="none" stroke="#43835c" class="dcg-svg-curve" paint-order="fill stroke markers" d=" M 66.16666666666667 199.5 L 73.99759971005918 191.7749441639621 M 78.98092073767259 186.85899954102888 L 85.193359375 180.73055544817495 M 85.193359375 180.73055544817495 L 86.85436637994144 179.17821884470504 M 91.96858308882815 174.39859674096672 L 95.30078125 171.2844056748161 M 95.30078125 171.2844056748161 L 100.14146016842236 167.03823718288777 M 105.45829178511019 162.48663877284605 L 110.97460937500001 157.9902920146525 M 110.97460937500001 157.9902920146525 L 114.0805751283438 155.65935184273408 M 119.74596035436439 151.55060142871736 L 123.57226562500001 148.93004336419443 M 123.57226562500001 148.93004336419443 L 128.98365774395526 145.5839796966114 M 135.11893404588665 142.2163701880985 L 139.5390625 140.0684675974835 M 139.5390625 140.0684675974835 L 144.373046875 138.0364014901042 M 144.373046875 138.0364014901042 L 145.16654283952914 137.75504265181806 M 151.8161615547693 135.5776914883085 L 153.6015625 135.06155675472928 M 153.6015625 135.06155675472928 L 157.99609375 134.07565978307576 M 157.99609375 134.07565978307576 L 162.244140625 133.39271698060423 M 162.244140625 133.39271698060423 L 162.5776891813293 133.3601620931104 M 169.5573130752252 132.87376122731158 L 170.740234375 132.83349361396336 M 170.740234375 132.83349361396336 L 174.841796875 132.9506363578751 M 174.841796875 132.9506363578751 L 179.08984375 133.337417785845 M 179.08984375 133.337417785845 L 180.52046069925913 133.55811439382754 M 187.39288042160976 134.8721073917263 L 187.5859375 134.91397337794086 M 187.5859375 134.91397337794086 L 191.98046875 136.1427751000557 M 191.98046875 136.1427751000557 L 196.521484375 137.70157556475374 M 196.521484375 137.70157556475374 L 197.85344240764718 138.24419703476113 M 204.26322067866565 141.05123153903173 L 206.04296875000003 141.8903595753821 M 206.04296875000003 141.8903595753821 L 211.16992187500003 144.63819888666572 M 211.16992187500003 144.63819888666572 L 213.92704960230623 146.2927105252476 M 219.830398148552 150.0511307193078 L 222.15625000000003 151.5951022621252 M 222.15625000000003 151.5951022621252 L 228.30859375000003 156.07153308368552 M 228.30859375000003 156.07153308368552 L 228.77932107118843 156.4432452529965 M 234.27301602403242 160.78136878340646 L 234.90039062500003 161.2767782559383 M 234.90039062500003 161.2767782559383 L 242.22460937500003 167.49597630484456 M 242.22460937500003 167.49597630484456 L 242.66365874473982 167.89330147696228 M 247.85387968637028 172.59027992880348 L 250.57421875000003 175.05209689329612 M 250.57421875000003 175.05209689329612 L 255.8772870602969 180.11397137595014 M 260.93607691280727 184.95212997379377 L 268.74672224576165 192.69769770526435 M 273.71713291218714 197.62669535256381 L 275.6061769059862 199.49999999999994" stroke-linecap="round" stroke-linejoin="round" stroke-miterlimit="10" stroke-width="2.5" stroke-opacity="0.9" stroke-dasharray=""/></g></g><g id="sketch-29bfd3bd"><title>Expression 3</title><path fill="#43835c" stroke="none" paint-order="stroke fill markers" d="" fill-opacity="0.4"/><path fill="#43835c" stroke="none" paint-order="stroke fill markers" d="" fill-opacity="0.4"/><path fill="#43835c" stroke="none" class="dcg-svg-region" paint-order="stroke fill markers" d=" M 275.6061769059862 199.50000000000003 L 294.666015625 218.30124745212913 L 304.7734375 227.74562179999296 L 312.9765625 234.94380044097355 L 320.30078125 240.9209603234344 L 326.892578125 245.87531134572848 L 332.8984375 249.9960305455631 L 338.611328125 253.5361460477405 L 343.884765625 256.4525088881172 L 348.865234375 258.88009589180774 L 353.69921875 260.91961382223974 L 358.38671875 262.58916086269556 L 362.927734375 263.9092926956699 L 367.322265625 264.9024674453152 L 371.5703125 265.59253607964797 L 375.818359375 266.0143381279918 L 380.06640625 266.16616151509294 L 384.16796875 266.0559879582384 L 388.416015625 265.6763978618053 L 392.6640625 265.0282007882388 L 396.912109375 264.11402773986214 L 401.30664062500006 262.89239940067705 L 405.84765625000006 261.3408505653719 L 410.53515625000006 259.4385060201224 L 415.36914062500006 257.16659394788087 L 420.49609375000006 254.42611466279578 L 425.76953125000006 251.26877595235644 L 431.48242187500006 247.48364975656025 L 437.48828125000006 243.12526704647902 L 444.08007812500006 237.93580672997473 L 451.40429687500006 231.7317057802896 L 459.75390625000006 224.18943821373045 L 469.71484375000006 214.69607718942942 L 484.50976562500006 200.03591574821095 L 485.04568714530575 199.50000000000009 L 485.04568714530575 199.5 L 275.6061769059862 199.5" fill-opacity="0.4"/><g><path fill="none" stroke="#43835c" class="dcg-svg-curve" paint-order="fill stroke markers" d=" M 275.6061769059862 199.50000000000003 L 283.4372937870066 207.22486947435348 M 288.4207318022014 212.1406955034875 L 294.666015625 218.30124745212913 M 294.666015625 218.30124745212913 L 296.2936077827959 219.82206945936053 M 301.4082726526834 224.60121198378255 L 304.7734375 227.74562179999296 M 304.7734375 227.74562179999296 L 309.5797649857204 231.96313693590403 M 314.89862238144696 236.5123580724714 L 320.30078125 240.9209603234344 M 320.30078125 240.9209603234344 L 323.52012582851233 243.34059845945774 M 329.18589050510906 247.44879080401728 L 332.8984375 249.9960305455631 M 332.8984375 249.9960305455631 L 338.42159370020084 253.41857303214854 M 344.559531949075 256.78140442809075 L 348.865234375 258.88009589180774 M 348.865234375 258.88009589180774 L 353.69921875 260.91961382223974 M 353.69921875 260.91961382223974 L 354.60680306769706 261.2428681607091 M 361.25543989937694 263.4231351147043 L 362.927734375 263.9092926956699 M 362.927734375 263.9092926956699 L 367.322265625 264.9024674453152 M 367.322265625 264.9024674453152 L 371.5703125 265.59253607964797 M 371.5703125 265.59253607964797 L 372.01749184574953 265.6369379352688 M 378.99677189748013 266.12793323863133 L 380.06640625 266.16616151509294 M 380.06640625 266.16616151509294 L 384.16796875 266.0559879582384 M 384.16796875 266.0559879582384 L 388.416015625 265.6763978618053 M 388.416015625 265.6763978618053 L 389.95981527211796 265.4408339796542 M 396.8330734317671 264.13103615132337 L 396.912109375 264.11402773986214 M 396.912109375 264.11402773986214 L 401.30664062500006 262.89239940067705 M 401.30664062500006 262.89239940067705 L 405.84765625000006 261.3408505653719 M 405.84765625000006 261.3408505653719 L 407.2924318129159 260.7545122376444 M 413.7031250366733 257.94960039433056 L 415.36914062500006 257.16659394788087 M 415.36914062500006 257.16659394788087 L 420.49609375000006 254.42611466279578 M 420.49609375000006 254.42611466279578 L 423.366650377412 252.70744073137328 M 429.2702315843864 248.94935599333732 L 431.48242187500006 247.48364975656025 M 431.48242187500006 247.48364975656025 L 437.48828125000006 243.12526704647902 M 437.48828125000006 243.12526704647902 L 438.21560716338485 242.5526721931712 M 443.71570198547624 238.22266561719428 L 444.08007812500006 237.93580672997473 M 444.08007812500006 237.93580672997473 L 451.40429687500006 231.7317057802896 M 451.40429687500006 231.7317057802896 L 452.10003139769935 231.10324333494432 M 457.29453794189163 226.41100487528098 L 459.75390625000006 224.18943821373045 M 459.75390625000006 224.18943821373045 L 465.31760898168875 218.88690131257928 M 470.3723091336963 214.04460036863682 L 478.1859880043139 206.30209286093213 M 483.1583291037979 201.3750426287564 L 484.50976562500006 200.03591574821095 M 484.50976562500006 200.03591574821095 L 485.04568714530575 199.50000000000009" stroke-linecap="round" stroke-linejoin="round" stroke-miterlimit="10" stroke-width="2.5" stroke-opacity="0.9" stroke-dasharray=""/></g><g><path fill="none" stroke="#43835c" class="dcg-svg-curve" paint-order="fill stroke markers" d=" M 275.6061769059862 199.5 L 286.6061769059862 199.5 M 293.6061769059862 199.5 L 304.6061769059862 199.5 M 311.6061769059862 199.5 L 322.6061769059862 199.5 M 329.6061769059862 199.5 L 340.6061769059862 199.5 M 347.6061769059862 199.5 L 358.6061769059862 199.5 M 365.6061769059862 199.5 L 376.6061769059862 199.5 M 383.6061769059862 199.5 L 394.6061769059862 199.5 M 401.6061769059862 199.5 L 412.6061769059862 199.5 M 419.6061769059862 199.5 L 430.6061769059862 199.5 M 437.6061769059862 199.5 L 448.6061769059862 199.5 M 455.6061769059862 199.5 L 466.6061769059862 199.5 M 473.6061769059862 199.5 L 484.6061769059862 199.5" stroke-linecap="round" stroke-linejoin="round" stroke-miterlimit="10" stroke-width="2.5" stroke-opacity="0.9" stroke-dasharray=""/></g></g><g id="sketch-29bfd3bd"><title>Expression 4</title><path fill="none" stroke="#388c46" class="dcg-svg-point" paint-order="fill stroke markers" d=" M 66.06666666666668 -10.03951023931956 L 66.06666666666668 -9.83951023931956 L 66.26666666666667 -9.83951023931956 L 66.26666666666667 -10.03951023931956" stroke-linecap="round" stroke-linejoin="round" stroke-miterlimit="10" stroke-width="9" stroke-opacity="0.9" stroke-dasharray=""/></g></g><g id="labels-29bfd3bd"/></g></svg>