<svg version="1.1" xmlns="http://www.w3.org/2000/svg" xmlns:xlink="http://www.w3.org/1999/xlink" width="600" height="400"><defs/><g transform="scale(1,1)"><g id="background-a8f29bcd"><rect fill="white" stroke="none" x="0" y="0" width="600" height="400" class="dcg-svg-background"/></g><g id="background-images-a8f29bcd"/><g id="graphpaper-a8f29bcd"><g id="grid-a8f29bcd"><g><path fill="none" stroke="rgb(0,0,0)" class="dcg-svg-minor-gridline" paint-order="fill stroke markers" d=" M -0.5 0 L -0.5 400" stroke-opacity="0.12" stroke-miterlimit="10" stroke-dasharray=""/><path fill="none" stroke="rgb(0,0,0)" class="dcg-svg-minor-gridline" paint-order="fill stroke markers" d=" M 24.5 0 L 24.5 400" stroke-opacity="0.12" stroke-miterlimit="10" stroke-dasharray=""/><path fill="none" stroke="rgb(0,0,0)" class="dcg-svg-minor-gridline" paint-order="fill stroke markers" d=" M 49.5 0 L 49.5 400" stroke-opacity="0.12" stroke-miterlimit="10" stroke-dasharray=""/><path fill="none" stroke="rgb(0,0,0)" class="dcg-svg-minor-gridline" paint-order="fill stroke markers" d=" M 74.5 0 L 74.5 400" stroke-opacity="0.12" stroke-miterlimit="10" stroke-dasharray=""/><path fill="none" stroke="rgb(0,0,0)" class="dcg-svg-minor-gridline" paint-order="fill stroke markers" d=" M 99.5 0 L 99.5 400" stroke-opacity="0.12" stroke-miterlimit="10" stroke-dasharray=""/><path fill="none" stroke="rgb(0,0,0)" class="dcg-svg-minor-gridline" paint-order="fill stroke markers" d=" M 124.5 0 L 124.5 400" stroke-opacity="0.12" stroke-miterlimit="10" stroke-dasharray=""/><path fill="none" stroke="rgb(0,0,0)" class="dcg-svg-minor-gridline" paint-order="fill stroke markers" d=" M 149.5 0 L 149.5 400" stroke-opacity="0.12" stroke-miterlimit="10" stroke-dasharray=""/><path fill="none" stroke="rgb(0,0,0)" class="dcg-svg-minor-gridline" paint-order="fill stroke markers" d=" M 174.5 0 L 174.5 400" stroke-opacity="0.12" stroke-miterlimit="10" stroke-dasharray=""/><path fill="none" stroke="rgb(0,0,0)" class="dcg-svg-minor-gridline" paint-order="fill stroke markers" d=" M 199.5 0 L 199.5 400" stroke-opacity="0.12" stroke-miterlimit="10" stroke-dasharray=""/><path fill="none" stroke="rgb(0,0,0)" class="dcg-svg-minor-gridline" paint-order="fill stroke markers" d=" M 224.5 0 L 224.5 400" stroke-opacity="0.12" stroke-miterlimit="10" stroke-dasharray=""/><path fill="none" stroke="rgb(0,0,0)" class="dcg-svg-minor-gridline" paint-order="fill stroke markers" d=" M 249.5 0 L 249.5 400" stroke-opacity="0.12" stroke-miterlimit="10" stroke-dasharray=""/><path fill="none" stroke="rgb(0,0,0)" class="dcg-svg-minor-gridline" paint-order="fill stroke markers" d=" M 274.5 0 L 274.5 400" stroke-opacity="0.12" stroke-miterlimit="10" stroke-dasharray=""/><path fill="none" stroke="rgb(0,0,0)" class="dcg-svg-minor-gridline" paint-order="fill stroke markers" d=" M 324.5 0 L 324.5 400" stroke-opacity="0.12" stroke-miterlimit="10" stroke-dasharray=""/><path fill="none" stroke="rgb(0,0,0)" class="dcg-svg-minor-gridline" paint-order="fill stroke markers" d=" M 349.5 0 L 349.5 400" stroke-opacity="0.12" stroke-miterlimit="10" stroke-dasharray=""/><path fill="none" stroke="rgb(0,0,0)" class="dcg-svg-minor-gridline" paint-order="fill stroke markers" d=" M 374.5 0 L 374.5 400" stroke-opacity="0.12" stroke-miterlimit="10" stroke-dasharray=""/><path fill="none" stroke="rgb(0,0,0)" class="dcg-svg-minor-gridline" paint-order="fill stroke markers" d=" M 399.5 0 L 399.5 400" stroke-opacity="0.12" stroke-miterlimit="10" stroke-dasharray=""/><path fill="none" stroke="rgb(0,0,0)" class="dcg-svg-minor-gridline" paint-order="fill stroke markers" d=" M 424.5 0 L 424.5 400" stroke-opacity="0.12" stroke-miterlimit="10" stroke-dasharray=""/><path fill="none" stroke="rgb(0,0,0)" class="dcg-svg-minor-gridline" paint-order="fill stroke markers" d=" M 449.5 0 L 449.5 400" stroke-opacity="0.12" stroke-miterlimit="10" stroke-dasharray=""/><path fill="none" stroke="rgb(0,0,0)" class="dcg-svg-minor-gridline" paint-order="fill stroke markers" d=" M 474.5 0 L 474.5 400" stroke-opacity="0.12" stroke-miterlimit="10" stroke-dasharray=""/><path fill="none" stroke="rgb(0,0,0)" class="dcg-svg-minor-gridline" paint-order="fill stroke markers" d=" M 499.5 0 L 499.5 400" stroke-opacity="0.12" stroke-miterlimit="10" stroke-dasharray=""/><path fill="none" stroke="rgb(0,0,0)" class="dcg-svg-minor-gridline" paint-order="fill stroke markers" d=" M 524.5 0 L 524.5 400" stroke-opacity="0.12" stroke-miterlimit="10" stroke-dasharray=""/><path fill="none" stroke="rgb(0,0,0)" class="dcg-svg-minor-gridline" paint-order="fill stroke markers" d=" M 549.5 0 L 549.5 400" stroke-opacity="0.12" stroke-miterlimit="10" stroke-dasharray=""/><path fill="none" stroke="rgb(0,0,0)" class="dcg-svg-minor-gridline" paint-order="fill stroke markers" d=" M 574.5 0 L 574.5 400" stroke-opacity="0.12" stroke-miterlimit="10" stroke-dasharray=""/><path fill="none" stroke="rgb(0,0,0)" class="dcg-svg-minor-gridline" paint-order="fill stroke markers" d=" M 0 374.5 L 600 374.5" stroke-opacity="0.12" stroke-miterlimit="10" stroke-dasharray=""/><path fill="none" stroke="rgb(0,0,0)" class="dcg-svg-minor-gridline" paint-order="fill stroke markers" d=" M 0 349.5 L 600 349.5" stroke-opacity="0.12" stroke-miterlimit="10" stroke-dasharray=""/><path fill="none" stroke="rgb(0,0,0)" class="dcg-svg-minor-gridline" paint-order="fill stroke markers" d=" M 0 299.5 L 600 299.5" stroke-opacity="0.12" stroke-miterlimit="10" stroke-dasharray=""/><path fill="none" stroke="rgb(0,0,0)" class="dcg-svg-minor-gridline" paint-order="fill stroke markers" d=" M 0 274.5 L 600 274.5" stroke-opacity="0.12" stroke-miterlimit="10" stroke-dasharray=""/><path fill="none" stroke="rgb(0,0,0)" class="dcg-svg-minor-gridline" paint-order="fill stroke markers" d=" M 0 249.5 L 600 249.5" stroke-opacity="0.12" stroke-miterlimit="10" stroke-dasharray=""/><path fill="none" stroke="rgb(0,0,0)" class="dcg-svg-minor-gridline" paint-order="fill stroke markers" d=" M 0 224.5 L 600 224.5" stroke-opacity="0.12" stroke-miterlimit="10" stroke-dasharray=""/><path fill="none" stroke="rgb(0,0,0)" class="dcg-svg-minor-gridline" paint-order="fill stroke markers" d=" M 0 199.5 L 600 199.5" stroke-opacity="0.12" stroke-miterlimit="10" stroke-dasharray=""/><path fill="none" stroke="rgb(0,0,0)" class="dcg-svg-minor-gridline" paint-order="fill stroke markers" d=" M 0 174.5 L 600 174.5" stroke-opacity="0.12" stroke-miterlimit="10" stroke-dasharray=""/><path fill="none" stroke="rgb(0,0,0)" class="dcg-svg-minor-gridline" paint-order="fill stroke markers" d=" M 0 149.5 L 600 149.5" stroke-opacity="0.12" stroke-miterlimit="10" stroke-dasharray=""/><path fill="none" stroke="rgb(0,0,0)" class="dcg-svg-minor-gridline" paint-order="fill stroke markers" d=" M 0 124.5 L 600 124.5" stroke-opacity="0.12" stroke-miterlimit="10" stroke-dasharray=""/><path fill="none" stroke="rgb(0,0,0)" class="dcg-svg-minor-gridline" paint-order="fill stroke markers" d=" M 0 99.5 L 600 99.5" stroke-opacity="0.12" stroke-miterlimit="10" stroke-dasharray=""/><path fill="none" stroke="rgb(0,0,0)" class="dcg-svg-minor-gridline" paint-order="fill stroke markers" d=" M 0 74.5 L 600 74.5" stroke-opacity="0.12" stroke-miterlimit="10" stroke-dasharray=""/><path fill="none" stroke="rgb(0,0,0)" class="dcg-svg-minor-gridline" paint-order="fill stroke markers" d=" M 0 49.5 L 600 49.5" stroke-opacity="0.12" stroke-miterlimit="10" stroke-dasharray=""/><path fill="none" stroke="rgb(0,0,0)" class="dcg-svg-minor-gridline" paint-order="fill stroke markers" d=" M 0 24.5 L 600 24.5" stroke-opacity="0.12" stroke-miterlimit="10" stroke-dasharray=""/><path fill="none" stroke="rgb(0,0,0)" class="dcg-svg-minor-gridline" paint-order="fill stroke markers" d=" M 0 -0.5 L 600 -0.5" stroke-opacity="0.12" stroke-miterlimit="10" stroke-dasharray=""/><path fill="none" stroke="rgb(0,0,0)" class="dcg-svg-major-gridline" paint-order="fill stroke markers" d=" M -0.5 0 L -0.5 400" stroke-opacity="0.31818181818181823" stroke-miterlimit="10" stroke-dasharray=""/><path fill="none" stroke="rgb(0,0,0)" class="dcg-svg-major-gridline" paint-order="fill stroke markers" d=" M 99.5 0 L 99.5 400" stroke-opacity="0.31818181818181823" stroke-miterlimit="10" stroke-dasharray=""/><path fill="none" stroke="rgb(0,0,0)" class="dcg-svg-major-gridline" paint-order="fill stroke markers" d=" M 199.5 0 L 199.5 400" stroke-opacity="0.31818181818181823" stroke-miterlimit="10" stroke-dasharray=""/><path fill="none" stroke="rgb(0,0,0)" class="dcg-svg-major-gridline" paint-order="fill stroke markers" d=" M 399.5 0 L 399.5 400" stroke-opacity="0.31818181818181823" stroke-miterlimit="10" stroke-dasharray=""/><path fill="none" stroke="rgb(0,0,0)" class="dcg-svg-major-gridline" paint-order="fill stroke markers" d=" M 499.5 0 L 499.5 400" stroke-opacity="0.31818181818181823" stroke-miterlimit="10" stroke-dasharray=""/><path fill="none" stroke="rgb(0,0,0)" class="dcg-svg-major-gridline" paint-order="fill stroke markers" d=" M 0 224.5 L 600 224.5" stroke-opacity="0.31818181818181823" stroke-miterlimit="10" stroke-dasharray=""/><path fill="none" stroke="rgb(0,0,0)" class="dcg-svg-major-gridline" paint-order="fill stroke markers" d=" M 0 124.5 L 600 124.5" stroke-opacity="0.31818181818181823" stroke-miterlimit="10" stroke-dasharray=""/><path fill="none" stroke="rgb(0,0,0)" class="dcg-svg-major-gridline" paint-order="fill stroke markers" d=" M 0 24.5 L 600 24.5" stroke-opacity="0.31818181818181823" stroke-miterlimit="10" stroke-dasharray=""/></g></g><g id="axis-a8f29bcd"><g id="yaxis-a8f29bcd"><title>Y axis</title><path fill="none" stroke="rgb(0,0,0)" class="dcg-svg-axis-line" paint-order="fill stroke markers" d=" M 299.75 0 L 299.75 400" stroke-opacity="0.9" stroke-miterlimit="10" stroke-width="1.5" stroke-dasharray=""/></g><g id="xaxis-a8f29bcd"><title>X axis</title><path fill="none" stroke="rgb(0,0,0)" class="dcg-svg-axis-line" paint-order="fill stroke markers" d=" M 0 324.75 L 600 324.75" stroke-opacity="0.9" stroke-miterlimit="10" stroke-width="1.5" stroke-dasharray=""/></g><g/></g></g><g id="expressions-a8f29bcd"><g id="sketch-a8f29bcd"><title>Expression 1</title><path fill="#2d70b3" stroke="none" paint-order="stroke fill markers" d="" fill-opacity="0.4"/><g><path fill="none" stroke="#2d70b3" class="dcg-svg-curve" paint-order="fill stroke markers" d=" M 449.5 64.5 L 449.5 64.5 L 454.041015625 60.537562050705674 L 458.142578125 57.46616897213431 L 461.8046875 55.1698663369753 L 465.173828125 53.458949882589934 L 468.25 52.25634765625006 L 471.1796875 51.4496849016287 L 473.962890625 51.006307725585486 L 476.599609375 50.891210312513124 L 479.08984375 51.067560936237044 L 481.580078125 51.53279971255148 L 484.0703125 52.298841579351574 L 486.560546875 53.37776555225173 L 489.197265625 54.87479519794033 L 491.98046875 56.86671635080711 L 494.91015625 59.43929183008731 L 497.986328125 62.68812730191894 L 501.0625 66.52202796936035 L 504.138671875 70.96583680231743 L 507.21484375 76.04477883028449 L 510.291015625 81.78446114234436 L 513.3671875 88.21087288716808 L 516.58984375 95.70860306444234 L 519.8125 104.01973915100103 L 523.181640625 113.61226380304475 L 526.55078125 124.1641829762666 L 529.919921875 135.71227016782547 L 533.435546875 148.86490097979006 L 536.951171875 163.18589439015525 L 540.61328125 179.39311313853253 L 544.275390625 196.96564588139339 L 548.083984375 216.7441369447279 L 551.892578125 238.1125652840656 L 555.84765625 262.0490003534651 L 559.802734375 287.8308522025709 L 563.904296875 316.589717742283 L 568.005859375 347.4838074258533 L 572.25390625 381.8159229139856 L 574.9882554584797 405.5" stroke-linecap="round" stroke-linejoin="round" stroke-miterlimit="10" stroke-width="2.5" stroke-opacity="0.9" stroke-dasharray=""/></g></g><g id="sketch-a8f29bcd"><title>Expression 2</title><path fill="#388c46" stroke="none" paint-order="stroke fill markers" d="" fill-opacity="0.4"/><path fill="#388c46" stroke="none" paint-order="stroke fill markers" d="" fill-opacity="0.4"/><path fill="#388c46" stroke="none" class="dcg-svg-region" paint-order="stroke fill markers" d=" M 449.5 324.5 L 564.9823667707293 324.5 L 564.9823667707293 324.4999999999999 L 563.904296875 316.589717742283 L 559.802734375 287.8308522025709 L 555.84765625 262.0490003534651 L 551.892578125 238.1125652840656 L 548.083984375 216.7441369447279 L 544.275390625 196.96564588139339 L 540.61328125 179.39311313853253 L 536.951171875 163.18589439015525 L 533.435546875 148.86490097979006 L 529.919921875 135.71227016782547 L 526.55078125 124.1641829762666 L 523.181640625 113.61226380304475 L 519.8125 104.01973915100103 L 516.58984375 95.70860306444234 L 513.3671875 88.21087288716808 L 510.291015625 81.78446114234436 L 507.21484375 76.04477883028449 L 504.138671875 70.96583680231743 L 501.0625 66.52202796936035 L 497.986328125 62.68812730191894 L 494.91015625 59.43929183008731 L 491.98046875 56.86671635080711 L 489.197265625 54.87479519794033 L 486.560546875 53.37776555225173 L 484.0703125 52.298841579351574 L 481.580078125 51.53279971255148 L 479.08984375 51.067560936237044 L 476.599609375 50.891210312513124 L 473.962890625 51.006307725585486 L 471.1796875 51.4496849016287 L 468.25 52.25634765625006 L 465.173828125 53.458949882589934 L 461.8046875 55.1698663369753 L 458.142578125 57.46616897213431 L 454.041015625 60.537562050705674 L 449.5 64.5" fill-opacity="0.4"/><g><path fill="none" stroke="#388c46" class="dcg-svg-curve" paint-order="fill stroke markers" d=" M 449.5 324.5 L 460.5 324.5 M 467.5 324.5 L 478.5 324.5 M 485.5 324.5 L 496.5 324.5 M 503.5 324.5 L 514.5 324.5 M 521.5 324.5 L 532.5 324.5 M 539.5 324.5 L 550.5 324.5 M 557.5 324.5 L 564.9823667707293 324.5" stroke-linecap="round" stroke-linejoin="round" stroke-miterlimit="10" stroke-width="2.5" stroke-opacity="0.9" stroke-dasharray=""/></g><g><path fill="none" stroke="#388c46" class="dcg-svg-curve" paint-order="fill stroke markers" d=" M 449.5 64.5 L 454.041015625 60.537562050705674 M 454.041015625 60.537562050705674 L 458.0218393661606 57.55658236659428 M 464.05750648887886 54.02584015765113 L 465.173828125 53.458949882589934 M 465.173828125 53.458949882589934 L 468.25 52.25634765625006 M 468.25 52.25634765625006 L 471.1796875 51.4496849016287 M 471.1796875 51.4496849016287 L 473.962890625 51.006307725585486 M 473.962890625 51.006307725585486 L 474.5504164632495 50.98066118892105 M 481.50051866613364 51.51793599303222 L 481.580078125 51.53279971255148 M 481.580078125 51.53279971255148 L 484.0703125 52.298841579351574 M 484.0703125 52.298841579351574 L 486.560546875 53.37776555225173 M 486.560546875 53.37776555225173 L 489.197265625 54.87479519794033 M 489.197265625 54.87479519794033 L 491.28529116790526 56.36918208234681 M 496.4545608999912 61.07038294386103 L 497.986328125 62.68812730191894 M 497.986328125 62.68812730191894 L 501.0625 66.52202796936035 M 501.0625 66.52202796936035 L 503.25761148197626 69.69306528109432 M 506.96314153127935 75.62920355388911 L 507.21484375 76.04477883028449 M 507.21484375 76.04477883028449 L 510.291015625 81.78446114234436 M 510.291015625 81.78446114234436 L 512.0189618102885 85.39430289072246 M 514.8983102818788 91.77313475943721 L 516.58984375 95.70860306444234 M 516.58984375 95.70860306444234 L 519.0179917053756 101.97072552799261 M 521.4039021361798 108.55073560432365 L 523.181640625 113.61226380304475 M 523.181640625 113.61226380304475 L 524.895710508434 118.98061403842544 M 526.9873073441241 125.6604225095559 L 529.919921875 135.71227016782547 M 529.919921875 135.71227016782547 L 530.0565492316151 136.2234194457983 M 531.8641509549734 142.98600593394852 L 533.435546875 148.86490097979006 M 533.435546875 148.86490097979006 L 534.6072584395409 153.637899691154 M 536.2761203685011 160.43605384225026 L 536.951171875 163.18589439015525 M 536.951171875 163.18589439015525 L 538.7515052468289 171.1535419367919 M 540.2942993043463 177.98141030811314 L 540.61328125 179.39311313853253 M 540.61328125 179.39311313853253 L 542.5621908943907 188.74490333156362 M 543.990306107806 195.59767553974416 L 544.275390625 196.96564588139339 M 544.275390625 196.96564588139339 L 546.0911401424859 206.3950542043072 M 547.4147602228189 213.2687744403176 L 548.083984375 216.7441369447279 M 548.083984375 216.7441369447279 L 549.3931239830453 224.08917234019475 M 550.621409047086 230.98056666946184 L 551.892578125 238.1125652840656 M 551.892578125 238.1125652840656 L 552.5048246839461 241.81792824821136 M 553.6459796202098 248.72428513237548 L 555.4392230914814 259.5771316646334 M 556.5291823725265 266.4916447126771 L 558.1971309811822 277.3644524199293 M 559.2585528230541 284.2835118699989 L 559.802734375 287.8308522025709 M 559.802734375 287.8308522025709 L 560.8491191247267 295.16777278349514 M 561.8374517348793 302.097650030006 L 563.3905458365477 312.9874571316659 M 564.3582012721795 319.92021784615565 L 564.9823667707293 324.4999999999999" stroke-linecap="round" stroke-linejoin="round" stroke-miterlimit="10" stroke-width="2.5" stroke-opacity="0.9" stroke-dasharray=""/></g></g></g><g id="labels-a8f29bcd"/></g></svg>