<svg version="1.1" xmlns="http://www.w3.org/2000/svg" xmlns:xlink="http://www.w3.org/1999/xlink" width="600" height="400"><defs/><g transform="scale(1,1)"><g id="background-3710c91e"><rect fill="white" stroke="none" x="0" y="0" width="600" height="400" class="dcg-svg-background"/></g><g id="background-images-3710c91e"/><g id="graphpaper-3710c91e"><g id="grid-3710c91e"><g><path fill="none" stroke="rgb(0,0,0)" class="dcg-svg-minor-gridline" paint-order="fill stroke markers" d=" M -0.5 0 L -0.5 400" stroke-opacity="0.12" stroke-miterlimit="10" stroke-dasharray=""/><path fill="none" stroke="rgb(0,0,0)" class="dcg-svg-minor-gridline" paint-order="fill stroke markers" d=" M 29.5 0 L 29.5 400" stroke-opacity="0.12" stroke-miterlimit="10" stroke-dasharray=""/><path fill="none" stroke="rgb(0,0,0)" class="dcg-svg-minor-gridline" paint-order="fill stroke markers" d=" M 59.5 0 L 59.5 400" stroke-opacity="0.12" stroke-miterlimit="10" stroke-dasharray=""/><path fill="none" stroke="rgb(0,0,0)" class="dcg-svg-minor-gridline" paint-order="fill stroke markers" d=" M 89.5 0 L 89.5 400" stroke-opacity="0.12" stroke-miterlimit="10" stroke-dasharray=""/><path fill="none" stroke="rgb(0,0,0)" class="dcg-svg-minor-gridline" paint-order="fill stroke markers" d=" M 119.5 0 L 119.5 400" stroke-opacity="0.12" stroke-miterlimit="10" stroke-dasharray=""/><path fill="none" stroke="rgb(0,0,0)" class="dcg-svg-minor-gridline" paint-order="fill stroke markers" d=" M 149.5 0 L 149.5 400" stroke-opacity="0.12" stroke-miterlimit="10" stroke-dasharray=""/><path fill="none" stroke="rgb(0,0,0)" class="dcg-svg-minor-gridline" paint-order="fill stroke markers" d=" M 179.5 0 L 179.5 400" stroke-opacity="0.12" stroke-miterlimit="10" stroke-dasharray=""/><path fill="none" stroke="rgb(0,0,0)" class="dcg-svg-minor-gridline" paint-order="fill stroke markers" d=" M 209.5 0 L 209.5 400" stroke-opacity="0.12" stroke-miterlimit="10" stroke-dasharray=""/><path fill="none" stroke="rgb(0,0,0)" class="dcg-svg-minor-gridline" paint-order="fill stroke markers" d=" M 239.5 0 L 239.5 400" stroke-opacity="0.12" stroke-miterlimit="10" stroke-dasharray=""/><path fill="none" stroke="rgb(0,0,0)" class="dcg-svg-minor-gridline" paint-order="fill stroke markers" d=" M 269.5 0 L 269.5 400" stroke-opacity="0.12" stroke-miterlimit="10" stroke-dasharray=""/><path fill="none" stroke="rgb(0,0,0)" class="dcg-svg-minor-gridline" paint-order="fill stroke markers" d=" M 329.5 0 L 329.5 400" stroke-opacity="0.12" stroke-miterlimit="10" stroke-dasharray=""/><path fill="none" stroke="rgb(0,0,0)" class="dcg-svg-minor-gridline" paint-order="fill stroke markers" d=" M 359.5 0 L 359.5 400" stroke-opacity="0.12" stroke-miterlimit="10" stroke-dasharray=""/><path fill="none" stroke="rgb(0,0,0)" class="dcg-svg-minor-gridline" paint-order="fill stroke markers" d=" M 389.5 0 L 389.5 400" stroke-opacity="0.12" stroke-miterlimit="10" stroke-dasharray=""/><path fill="none" stroke="rgb(0,0,0)" class="dcg-svg-minor-gridline" paint-order="fill stroke markers" d=" M 419.5 0 L 419.5 400" stroke-opacity="0.12" stroke-miterlimit="10" stroke-dasharray=""/><path fill="none" stroke="rgb(0,0,0)" class="dcg-svg-minor-gridline" paint-order="fill stroke markers" d=" M 449.5 0 L 449.5 400" stroke-opacity="0.12" stroke-miterlimit="10" stroke-dasharray=""/><path fill="none" stroke="rgb(0,0,0)" class="dcg-svg-minor-gridline" paint-order="fill stroke markers" d=" M 479.5 0 L 479.5 400" stroke-opacity="0.12" stroke-miterlimit="10" stroke-dasharray=""/><path fill="none" stroke="rgb(0,0,0)" class="dcg-svg-minor-gridline" paint-order="fill stroke markers" d=" M 509.5 0 L 509.5 400" stroke-opacity="0.12" stroke-miterlimit="10" stroke-dasharray=""/><path fill="none" stroke="rgb(0,0,0)" class="dcg-svg-minor-gridline" paint-order="fill stroke markers" d=" M 539.5 0 L 539.5 400" stroke-opacity="0.12" stroke-miterlimit="10" stroke-dasharray=""/><path fill="none" stroke="rgb(0,0,0)" class="dcg-svg-minor-gridline" paint-order="fill stroke markers" d=" M 569.5 0 L 569.5 400" stroke-opacity="0.12" stroke-miterlimit="10" stroke-dasharray=""/><path fill="none" stroke="rgb(0,0,0)" class="dcg-svg-minor-gridline" paint-order="fill stroke markers" d=" M 0 370.5 L 600 370.5" stroke-opacity="0.12" stroke-miterlimit="10" stroke-dasharray=""/><path fill="none" stroke="rgb(0,0,0)" class="dcg-svg-minor-gridline" paint-order="fill stroke markers" d=" M 0 313.5 L 600 313.5" stroke-opacity="0.12" stroke-miterlimit="10" stroke-dasharray=""/><path fill="none" stroke="rgb(0,0,0)" class="dcg-svg-minor-gridline" paint-order="fill stroke markers" d=" M 0 285.5 L 600 285.5" stroke-opacity="0.12" stroke-miterlimit="10" stroke-dasharray=""/><path fill="none" stroke="rgb(0,0,0)" class="dcg-svg-minor-gridline" paint-order="fill stroke markers" d=" M 0 256.5 L 600 256.5" stroke-opacity="0.12" stroke-miterlimit="10" stroke-dasharray=""/><path fill="none" stroke="rgb(0,0,0)" class="dcg-svg-minor-gridline" paint-order="fill stroke markers" d=" M 0 228.5 L 600 228.5" stroke-opacity="0.12" stroke-miterlimit="10" stroke-dasharray=""/><path fill="none" stroke="rgb(0,0,0)" class="dcg-svg-minor-gridline" paint-order="fill stroke markers" d=" M 0 199.5 L 600 199.5" stroke-opacity="0.12" stroke-miterlimit="10" stroke-dasharray=""/><path fill="none" stroke="rgb(0,0,0)" class="dcg-svg-minor-gridline" paint-order="fill stroke markers" d=" M 0 170.5 L 600 170.5" stroke-opacity="0.12" stroke-miterlimit="10" stroke-dasharray=""/><path fill="none" stroke="rgb(0,0,0)" class="dcg-svg-minor-gridline" paint-order="fill stroke markers" d=" M 0 142.5 L 600 142.5" stroke-opacity="0.12" stroke-miterlimit="10" stroke-dasharray=""/><path fill="none" stroke="rgb(0,0,0)" class="dcg-svg-minor-gridline" paint-order="fill stroke markers" d=" M 0 113.5 L 600 113.5" stroke-opacity="0.12" stroke-miterlimit="10" stroke-dasharray=""/><path fill="none" stroke="rgb(0,0,0)" class="dcg-svg-minor-gridline" paint-order="fill stroke markers" d=" M 0 85.5 L 600 85.5" stroke-opacity="0.12" stroke-miterlimit="10" stroke-dasharray=""/><path fill="none" stroke="rgb(0,0,0)" class="dcg-svg-minor-gridline" paint-order="fill stroke markers" d=" M 0 56.5 L 600 56.5" stroke-opacity="0.12" stroke-miterlimit="10" stroke-dasharray=""/><path fill="none" stroke="rgb(0,0,0)" class="dcg-svg-minor-gridline" paint-order="fill stroke markers" d=" M 0 28.5 L 600 28.5" stroke-opacity="0.12" stroke-miterlimit="10" stroke-dasharray=""/><path fill="none" stroke="rgb(0,0,0)" class="dcg-svg-minor-gridline" paint-order="fill stroke markers" d=" M 0 -0.5 L 600 -0.5" stroke-opacity="0.12" stroke-miterlimit="10" stroke-dasharray=""/><path fill="none" stroke="rgb(0,0,0)" class="dcg-svg-major-gridline" paint-order="fill stroke markers" d=" M -0.5 0 L -0.5 400" stroke-opacity="0.31818181818181823" stroke-miterlimit="10" stroke-dasharray=""/><path fill="none" stroke="rgb(0,0,0)" class="dcg-svg-major-gridline" paint-order="fill stroke markers" d=" M 149.5 0 L 149.5 400" stroke-opacity="0.31818181818181823" stroke-miterlimit="10" stroke-dasharray=""/><path fill="none" stroke="rgb(0,0,0)" class="dcg-svg-major-gridline" paint-order="fill stroke markers" d=" M 449.5 0 L 449.5 400" stroke-opacity="0.31818181818181823" stroke-miterlimit="10" stroke-dasharray=""/><path fill="none" stroke="rgb(0,0,0)" class="dcg-svg-major-gridline" paint-order="fill stroke markers" d=" M 0 199.5 L 600 199.5" stroke-opacity="0.31818181818181823" stroke-miterlimit="10" stroke-dasharray=""/><path fill="none" stroke="rgb(0,0,0)" class="dcg-svg-major-gridline" paint-order="fill stroke markers" d=" M 0 56.5 L 600 56.5" stroke-opacity="0.31818181818181823" stroke-miterlimit="10" stroke-dasharray=""/></g></g><g id="axis-3710c91e"><g id="yaxis-3710c91e"><title>Y axis</title><path fill="none" stroke="rgb(0,0,0)" class="dcg-svg-axis-line" paint-order="fill stroke markers" d=" M 299.75 0 L 299.75 400" stroke-opacity="0.9" stroke-miterlimit="10" stroke-width="1.5" stroke-dasharray=""/></g><g id="xaxis-3710c91e"><title>X axis</title><path fill="none" stroke="rgb(0,0,0)" class="dcg-svg-axis-line" paint-order="fill stroke markers" d=" M 0 342.75 L 600 342.75" stroke-opacity="0.9" stroke-miterlimit="10" stroke-width="1.5" stroke-dasharray=""/></g><g/></g></g><g id="expressions-3710c91e"><g id="sketch-3710c91e"><title>Expression 1</title><path fill="#2d70b3" stroke="none" paint-order="stroke fill markers" d="" fill-opacity="0.4"/><g><path fill="none" stroke="#2d70b3" class="dcg-svg-curve" paint-order="fill stroke markers" d=" M 31.89865543431435 -5.5 L 31.89865543431435 -5.5 L 39.63671875 9.802062011845862 L 51.501953125 32.56312114536587 L 62.927734375 53.78953092721804 L 73.9140625 73.5194935857973 L 84.4609375 91.79909636582562 L 94.71484375 108.92071350043278 L 104.67578125 124.91380273533582 L 114.34375 139.81174455749078 L 123.865234375 153.8626032301191 L 133.09375 166.875292593518 L 142.17578125 179.0836693607576 L 151.111328125 190.50250974635355 L 159.900390625 201.1482109502543 L 168.54296875 211.03861657076803 L 177.0390625 220.1928517557162 L 185.388671875 228.63116775084868 L 193.4453125 236.24131018184903 L 201.208984375 243.07387818438727 L 208.6796875 249.17920730105843 L 215.857421875 254.60708782901858 L 222.888671875 259.50427702836714 L 229.626953125 263.8043859621407 L 236.21875 267.636227506153 L 242.517578125 270.94935966774017 L 248.669921875 273.8550189967198 L 254.67578125 276.37510424373295 L 260.53515625 278.53131161469645 L 266.39453125 280.3878403201836 L 272.107421875 281.90860705014063 L 277.673828125 283.1149484407823 L 283.240234375 284.04893149618135 L 288.806640625 284.71017014779784 L 294.2265625 285.0916742326764 L 299.646484375 285.2141911037407 L 305.06640625 285.0776727861554 L 310.486328125 284.6821727375942 L 315.90625 284.02784584823945 L 321.47265625 283.08669002744284 L 327.0390625 281.8731875550569 L 332.60546875 280.3878403201836 L 338.318359375 278.58138099908626 L 344.177734375 276.43265409825875 L 350.037109375 273.9852127182928 L 356.04296875 271.16775462037606 L 362.1953125 267.9588190316613 L 368.494140625 264.33676677195194 L 375.0859375 260.1835264781746 L 381.82421875 255.55707150066996 L 388.85546875 250.32193376701161 L 396.033203125 244.55202783379139 L 403.50390625 238.09415871707463 L 411.267578125 230.8992462720711 L 419.32421875 222.91775112967713 L 427.673828125 214.09996306099453 L 436.169921875 204.56562288251038 L 444.8125 194.2952162122642 L 453.6015625 183.2704038968787 L 462.537109375 171.4741793311508 L 471.619140625 158.89103520656445 L 480.84765625 145.50714002969133 L 490.369140625 131.08399634586095 L 500.037109375 115.81975668578178 L 509.998046875 99.46225360278908 L 520.251953125 81.97996260108323 L 530.9453125 63.08210869792333 L 541.931640625 42.991709456623994 L 553.357421875 21.411579039761932 L 565.369140625 -1.9823650641081372 L 567.1236699776484 -5.5" stroke-linecap="round" stroke-linejoin="round" stroke-miterlimit="10" stroke-width="2.5" stroke-opacity="0.9" stroke-dasharray=""/></g></g><g id="sketch-3710c91e"><title>Expression 2</title><path fill="#388c46" stroke="none" paint-order="stroke fill markers" d="" fill-opacity="0.4"/><path fill="#388c46" stroke="none" paint-order="stroke fill markers" d="" fill-opacity="0.4"/><path fill="#388c46" stroke="none" class="dcg-svg-region" paint-order="stroke fill markers" d=" M -0.5 -3 L -0.5 342.35714285714283 L 599.5 342.35714285714283 L 599.5 -3 L 565.8767175617323 -3 L 565.369140625 -1.9823650641081372 L 553.357421875 21.411579039761932 L 541.931640625 42.991709456623994 L 530.9453125 63.08210869792333 L 520.251953125 81.97996260108323 L 509.998046875 99.46225360278908 L 500.037109375 115.81975668578178 L 490.369140625 131.08399634586095 L 480.84765625 145.50714002969133 L 471.619140625 158.89103520656445 L 462.537109375 171.4741793311508 L 453.6015625 183.2704038968787 L 444.8125 194.2952162122642 L 436.169921875 204.56562288251038 L 427.673828125 214.09996306099453 L 419.32421875 222.91775112967713 L 411.267578125 230.8992462720711 L 403.50390625 238.09415871707463 L 396.033203125 244.55202783379139 L 388.85546875 250.32193376701161 L 381.82421875 255.55707150066996 L 375.0859375 260.1835264781746 L 368.494140625 264.33676677195194 L 362.1953125 267.9588190316613 L 356.04296875 271.16775462037606 L 350.037109375 273.9852127182928 L 344.177734375 276.43265409825875 L 338.318359375 278.58138099908626 L 332.60546875 280.3878403201836 L 327.0390625 281.8731875550569 L 321.47265625 283.08669002744284 L 315.90625 284.02784584823945 L 310.486328125 284.6821727375942 L 305.06640625 285.0776727861554 L 299.646484375 285.2141911037407 L 294.2265625 285.0916742326764 L 288.806640625 284.71017014779784 L 283.240234375 284.04893149618135 L 277.673828125 283.1149484407823 L 272.107421875 281.90860705014063 L 266.39453125 280.3878403201836 L 260.53515625 278.53131161469645 L 254.67578125 276.37510424373295 L 248.669921875 273.8550189967198 L 242.517578125 270.94935966774017 L 236.21875 267.636227506153 L 229.626953125 263.8043859621407 L 222.888671875 259.50427702836714 L 215.857421875 254.60708782901858 L 208.6796875 249.17920730105843 L 201.208984375 243.07387818438727 L 193.4453125 236.24131018184903 L 185.388671875 228.63116775084868 L 177.0390625 220.1928517557162 L 168.54296875 211.03861657076803 L 159.900390625 201.1482109502543 L 151.111328125 190.50250974635355 L 142.17578125 179.0836693607576 L 133.09375 166.875292593518 L 123.865234375 153.8626032301191 L 114.34375 139.81174455749078 L 104.67578125 124.91380273533582 L 94.71484375 108.92071350043278 L 84.4609375 91.79909636582562 L 73.9140625 73.5194935857973 L 62.927734375 53.78953092721804 L 51.501953125 32.56312114536587 L 39.63671875 9.802062011845862 L 33.16287448363191 -3" fill-opacity="0.4"/><g><path fill="none" stroke="#388c46" class="dcg-svg-curve" paint-order="fill stroke markers" d=" M -0.5 342.35714285714283 L 10.5 342.35714285714283 M 17.5 342.35714285714283 L 28.5 342.35714285714283 M 35.5 342.35714285714283 L 46.5 342.35714285714283 M 53.5 342.35714285714283 L 64.5 342.35714285714283 M 71.5 342.35714285714283 L 82.5 342.35714285714283 M 89.5 342.35714285714283 L 100.5 342.35714285714283 M 107.5 342.35714285714283 L 118.5 342.35714285714283 M 125.5 342.35714285714283 L 136.5 342.35714285714283 M 143.5 342.35714285714283 L 154.5 342.35714285714283 M 161.5 342.35714285714283 L 172.5 342.35714285714283 M 179.5 342.35714285714283 L 190.5 342.35714285714283 M 197.5 342.35714285714283 L 208.5 342.35714285714283 M 215.5 342.35714285714283 L 226.5 342.35714285714283 M 233.5 342.35714285714283 L 244.5 342.35714285714283 M 251.5 342.35714285714283 L 262.5 342.35714285714283 M 269.5 342.35714285714283 L 280.5 342.35714285714283 M 287.5 342.35714285714283 L 298.5 342.35714285714283 M 305.5 342.35714285714283 L 316.5 342.35714285714283 M 323.5 342.35714285714283 L 334.5 342.35714285714283 M 341.5 342.35714285714283 L 352.5 342.35714285714283 M 359.5 342.35714285714283 L 370.5 342.35714285714283 M 377.5 342.35714285714283 L 388.5 342.35714285714283 M 395.5 342.35714285714283 L 406.5 342.35714285714283 M 413.5 342.35714285714283 L 424.5 342.35714285714283 M 431.5 342.35714285714283 L 442.5 342.35714285714283 M 449.5 342.35714285714283 L 460.5 342.35714285714283 M 467.5 342.35714285714283 L 478.5 342.35714285714283 M 485.5 342.35714285714283 L 496.5 342.35714285714283 M 503.5 342.35714285714283 L 514.5 342.35714285714283 M 521.5 342.35714285714283 L 532.5 342.35714285714283 M 539.5 342.35714285714283 L 550.5 342.35714285714283 M 557.5 342.35714285714283 L 568.5 342.35714285714283 M 575.5 342.35714285714283 L 586.5 342.35714285714283 M 593.5 342.35714285714283 L 599.5 342.35714285714283" stroke-linecap="round" stroke-linejoin="round" stroke-miterlimit="10" stroke-width="2.5" stroke-opacity="0.9" stroke-dasharray=""/></g><g><path fill="none" stroke="#388c46" class="dcg-svg-curve" paint-order="fill stroke markers" d=" M 31.89865543431435 -5.5 L 36.86261924003206 4.316265243743391 M 40.03087383896222 10.558169055677181 L 45.11569711181037 20.31237698271574 M 48.351493739986466 26.519600209013007 L 51.501953125 32.56312114536587 M 51.501953125 32.56312114536587 L 53.4853614004387 36.24782645330082 M 56.80319929553377 42.411587618520564 L 62.01694455925461 52.09749802100873 M 65.39836339945448 58.226447232745635 L 70.74982708028834 67.83695379966062 M 74.1618790402505 73.9490035513653 L 79.65919766109498 83.476830584898 M 83.1574913289051 89.53999324260062 L 84.4609375 91.79909636582562 M 84.4609375 91.79909636582562 L 88.77260581943236 98.99857063220443 M 92.3691582087327 105.00396911282319 L 94.71484375 108.92071350043278 M 94.71484375 108.92071350043278 L 98.11662393143541 114.38254618427615 M 101.81732990128718 120.32432835166529 L 104.67578125 124.91380273533582 M 104.67578125 124.91380273533582 L 107.7205080022452 129.60560131187836 M 111.53107710113825 135.4775314155633 L 114.34375 139.81174455749078 M 114.34375 139.81174455749078 L 117.61599539257136 144.64059851999906 M 121.54282588177894 150.43542399701127 L 123.865234375 153.8626032301191 M 123.865234375 153.8626032301191 L 127.83367026085722 159.4583052411047 M 131.88306174774834 165.16815888072577 L 133.09375 166.875292593518 M 133.09375 166.875292593518 L 138.41017437153226 174.0218119123324 M 142.60168532872274 179.62793718930158 L 149.38063539623204 188.290837164611 M 153.77997559775895 193.73489358860482 L 159.900390625 201.1482109502543 M 159.900390625 201.1482109502543 L 160.81280784239271 202.19236423931173 M 165.41885976278795 207.4634443664416 L 168.54296875 211.03861657076803 M 168.54296875 211.03861657076803 L 172.79611571101574 215.62122932233822 M 177.57560487090595 220.7350943765552 L 185.31257194169933 228.55425932848317 M 190.3987656425977 233.36360263763945 L 193.4453125 236.24131018184903 M 193.4453125 236.24131018184903 L 198.55690969894286 240.73986911448824 M 203.89364658547956 245.26788135755814 L 208.6796875 249.17920730105843 M 208.6796875 249.17920730105843 L 212.5234049733079 252.08586811328 M 218.17148415319974 256.21880705325606 L 222.888671875 259.50427702836714 M 222.888671875 259.50427702836714 L 227.31548493887792 262.32929689587814 M 233.30813701174515 265.94427492047254 L 236.21875 267.636227506153 M 236.21875 267.636227506153 L 242.517578125 270.94935966774017 M 242.517578125 270.94935966774017 L 242.9844454600071 271.16985408132996 M 249.32677314537014 274.13063670479204 L 254.67578125 276.37510424373295 M 254.67578125 276.37510424373295 L 259.55507285070223 278.17064805421006 M 266.2126447301845 280.33021001913977 L 266.39453125 280.3878403201836 M 266.39453125 280.3878403201836 L 272.107421875 281.90860705014063 M 272.107421875 281.90860705014063 L 276.89367597141035 282.94587529167944 M 283.79386077298085 284.1146972984708 L 288.806640625 284.71017014779784 M 288.806640625 284.71017014779784 L 294.2265625 285.0916742326764 M 294.2265625 285.0916742326764 L 294.7450735272034 285.10339513015987 M 301.7431564114989 285.1613796157613 L 305.06640625 285.0776727861554 M 305.06640625 285.0776727861554 L 310.486328125 284.6821727375942 M 310.486328125 284.6821727375942 L 312.71153406037996 284.4135319506141 M 319.6354093433221 283.3973277248729 L 321.47265625 283.08669002744284 M 321.47265625 283.08669002744284 L 327.0390625 281.8731875550569 M 327.0390625 281.8731875550569 L 330.3623136258861 280.98640681198333 M 337.0661329028782 278.9773445018339 L 338.318359375 278.58138099908626 M 338.318359375 278.58138099908626 L 344.177734375 276.43265409825875 M 344.177734375 276.43265409825875 L 347.3572385711577 275.10458580813366 M 353.7451123696334 272.24572093002075 L 356.04296875 271.16775462037606 M 356.04296875 271.16775462037606 L 362.1953125 267.9588190316613 M 362.1953125 267.9588190316613 L 363.5155387918252 267.1996415261418 M 369.5576126669771 263.66671351943194 L 375.0859375 260.1835264781746 M 375.0859375 260.1835264781746 L 378.76755315576327 257.65575590227814 M 384.4648777172756 253.59096115026173 L 388.85546875 250.32193376701161 M 388.85546875 250.32193376701161 L 393.16248482018176 246.85968840106818 M 398.54241659293336 242.38299877579135 L 403.50390625 238.09415871707463 M 403.50390625 238.09415871707463 L 406.76177015579987 235.07496291161473 M 411.8762586931375 230.2962429579126 L 419.32421875 222.91775112967713 M 419.32421875 222.91775112967713 L 419.67900368581627 222.54307271857013 M 424.491975249387 217.4602285611855 L 427.673828125 214.09996306099453 M 427.673828125 214.09996306099453 L 431.9132414724233 209.3424815405558 M 436.5573630821796 204.10520717078714 L 443.6398901005102 195.6886870445938 M 448.0407697255396 190.2457436061114 L 453.6015625 183.2704038968787 M 453.6015625 183.2704038968787 L 454.8571131909221 181.612893941309 M 459.08382040478796 176.0330242180758 L 462.537109375 171.4741793311508 M 462.537109375 171.4741793311508 L 465.62772173306536 167.1921393706778 M 469.7244374780547 161.51614429450336 L 471.619140625 158.89103520656445 M 471.619140625 158.89103520656445 L 476.0256262225215 152.50041468511637 M 479.99924423889377 146.73757164890915 L 480.84765625 145.50714002969133 M 480.84765625 145.50714002969133 L 486.08449009944906 137.57438458062825 M 489.9410089259649 131.7325302054552 L 490.369140625 131.08399634586095 M 490.369140625 131.08399634586095 L 495.839170753755 122.44765783544014 M 499.5847059156803 116.53403235264355 L 500.037109375 115.81975668578178 M 500.037109375 115.81975668578178 L 505.3185376426665 107.14677995332468 M 508.95928537325784 101.16807140028467 L 509.998046875 99.46225360278908 M 509.998046875 99.46225360278908 L 514.5528075771924 91.69666163252285 M 518.0943005866404 85.65862989494221 L 520.251953125 81.97996260108323 M 520.251953125 81.97996260108323 L 523.5688958810734 76.11809100290552 M 527.0162193116373 70.02580398035927 L 530.9453125 63.08210869792333 M 530.9453125 63.08210869792333 L 532.3951174373215 60.43088986653651 M 535.7536605274703 54.28921352276738 L 541.0313710977042 44.638007839701615 M 544.3290867180322 38.463599017346034 L 549.4762057278778 28.742119402673897 M 552.7516450977796 22.555723284246174 L 553.357421875 21.411579039761932 M 553.357421875 21.411579039761932 L 557.7904813090148 12.777781765040102 M 560.9878217990075 6.550662544160094 L 565.369140625 -1.9823650641081372 M 565.369140625 -1.9823650641081372 L 565.9975405990727 -3.2422366639619478" stroke-linecap="round" stroke-linejoin="round" stroke-miterlimit="10" stroke-width="2.5" stroke-opacity="0.9" stroke-dasharray=""/></g></g></g><g id="labels-3710c91e"/></g></svg>