<svg version="1.1" xmlns="http://www.w3.org/2000/svg" xmlns:xlink="http://www.w3.org/1999/xlink" width="600" height="400"><defs/><g transform="scale(1,1)"><g id="background-cb82312e"><rect fill="white" stroke="none" x="0" y="0" width="600" height="400" class="dcg-svg-background"/></g><g id="background-images-cb82312e"/><g id="graphpaper-cb82312e"><g id="grid-cb82312e"><g><path fill="none" stroke="rgb(0,0,0)" class="dcg-svg-minor-gridline" paint-order="fill stroke markers" d=" M -0.5 0 L -0.5 400" stroke-opacity="0.12" stroke-miterlimit="10" stroke-dasharray=""/><path fill="none" stroke="rgb(0,0,0)" class="dcg-svg-minor-gridline" paint-order="fill stroke markers" d=" M 24.5 0 L 24.5 400" stroke-opacity="0.12" stroke-miterlimit="10" stroke-dasharray=""/><path fill="none" stroke="rgb(0,0,0)" class="dcg-svg-minor-gridline" paint-order="fill stroke markers" d=" M 49.5 0 L 49.5 400" stroke-opacity="0.12" stroke-miterlimit="10" stroke-dasharray=""/><path fill="none" stroke="rgb(0,0,0)" class="dcg-svg-minor-gridline" paint-order="fill stroke markers" d=" M 74.5 0 L 74.5 400" stroke-opacity="0.12" stroke-miterlimit="10" stroke-dasharray=""/><path fill="none" stroke="rgb(0,0,0)" class="dcg-svg-minor-gridline" paint-order="fill stroke markers" d=" M 99.5 0 L 99.5 400" stroke-opacity="0.12" stroke-miterlimit="10" stroke-dasharray=""/><path fill="none" stroke="rgb(0,0,0)" class="dcg-svg-minor-gridline" paint-order="fill stroke markers" d=" M 124.5 0 L 124.5 400" stroke-opacity="0.12" stroke-miterlimit="10" stroke-dasharray=""/><path fill="none" stroke="rgb(0,0,0)" class="dcg-svg-minor-gridline" paint-order="fill stroke markers" d=" M 149.5 0 L 149.5 400" stroke-opacity="0.12" stroke-miterlimit="10" stroke-dasharray=""/><path fill="none" stroke="rgb(0,0,0)" class="dcg-svg-minor-gridline" paint-order="fill stroke markers" d=" M 174.5 0 L 174.5 400" stroke-opacity="0.12" stroke-miterlimit="10" stroke-dasharray=""/><path fill="none" stroke="rgb(0,0,0)" class="dcg-svg-minor-gridline" paint-order="fill stroke markers" d=" M 199.5 0 L 199.5 400" stroke-opacity="0.12" stroke-miterlimit="10" stroke-dasharray=""/><path fill="none" stroke="rgb(0,0,0)" class="dcg-svg-minor-gridline" paint-order="fill stroke markers" d=" M 224.5 0 L 224.5 400" stroke-opacity="0.12" stroke-miterlimit="10" stroke-dasharray=""/><path fill="none" stroke="rgb(0,0,0)" class="dcg-svg-minor-gridline" paint-order="fill stroke markers" d=" M 249.5 0 L 249.5 400" stroke-opacity="0.12" stroke-miterlimit="10" stroke-dasharray=""/><path fill="none" stroke="rgb(0,0,0)" class="dcg-svg-minor-gridline" paint-order="fill stroke markers" d=" M 274.5 0 L 274.5 400" stroke-opacity="0.12" stroke-miterlimit="10" stroke-dasharray=""/><path fill="none" stroke="rgb(0,0,0)" class="dcg-svg-minor-gridline" paint-order="fill stroke markers" d=" M 324.5 0 L 324.5 400" stroke-opacity="0.12" stroke-miterlimit="10" stroke-dasharray=""/><path fill="none" stroke="rgb(0,0,0)" class="dcg-svg-minor-gridline" paint-order="fill stroke markers" d=" M 349.5 0 L 349.5 400" stroke-opacity="0.12" stroke-miterlimit="10" stroke-dasharray=""/><path fill="none" stroke="rgb(0,0,0)" class="dcg-svg-minor-gridline" paint-order="fill stroke markers" d=" M 374.5 0 L 374.5 400" stroke-opacity="0.12" stroke-miterlimit="10" stroke-dasharray=""/><path fill="none" stroke="rgb(0,0,0)" class="dcg-svg-minor-gridline" paint-order="fill stroke markers" d=" M 399.5 0 L 399.5 400" stroke-opacity="0.12" stroke-miterlimit="10" stroke-dasharray=""/><path fill="none" stroke="rgb(0,0,0)" class="dcg-svg-minor-gridline" paint-order="fill stroke markers" d=" M 424.5 0 L 424.5 400" stroke-opacity="0.12" stroke-miterlimit="10" stroke-dasharray=""/><path fill="none" stroke="rgb(0,0,0)" class="dcg-svg-minor-gridline" paint-order="fill stroke markers" d=" M 449.5 0 L 449.5 400" stroke-opacity="0.12" stroke-miterlimit="10" stroke-dasharray=""/><path fill="none" stroke="rgb(0,0,0)" class="dcg-svg-minor-gridline" paint-order="fill stroke markers" d=" M 474.5 0 L 474.5 400" stroke-opacity="0.12" stroke-miterlimit="10" stroke-dasharray=""/><path fill="none" stroke="rgb(0,0,0)" class="dcg-svg-minor-gridline" paint-order="fill stroke markers" d=" M 499.5 0 L 499.5 400" stroke-opacity="0.12" stroke-miterlimit="10" stroke-dasharray=""/><path fill="none" stroke="rgb(0,0,0)" class="dcg-svg-minor-gridline" paint-order="fill stroke markers" d=" M 524.5 0 L 524.5 400" stroke-opacity="0.12" stroke-miterlimit="10" stroke-dasharray=""/><path fill="none" stroke="rgb(0,0,0)" class="dcg-svg-minor-gridline" paint-order="fill stroke markers" d=" M 549.5 0 L 549.5 400" stroke-opacity="0.12" stroke-miterlimit="10" stroke-dasharray=""/><path fill="none" stroke="rgb(0,0,0)" class="dcg-svg-minor-gridline" paint-order="fill stroke markers" d=" M 574.5 0 L 574.5 400" stroke-opacity="0.12" stroke-miterlimit="10" stroke-dasharray=""/><path fill="none" stroke="rgb(0,0,0)" class="dcg-svg-minor-gridline" paint-order="fill stroke markers" d=" M 0 374.5 L 600 374.5" stroke-opacity="0.12" stroke-miterlimit="10" stroke-dasharray=""/><path fill="none" stroke="rgb(0,0,0)" class="dcg-svg-minor-gridline" paint-order="fill stroke markers" d=" M 0 349.5 L 600 349.5" stroke-opacity="0.12" stroke-miterlimit="10" stroke-dasharray=""/><path fill="none" stroke="rgb(0,0,0)" class="dcg-svg-minor-gridline" paint-order="fill stroke markers" d=" M 0 299.5 L 600 299.5" stroke-opacity="0.12" stroke-miterlimit="10" stroke-dasharray=""/><path fill="none" stroke="rgb(0,0,0)" class="dcg-svg-minor-gridline" paint-order="fill stroke markers" d=" M 0 274.5 L 600 274.5" stroke-opacity="0.12" stroke-miterlimit="10" stroke-dasharray=""/><path fill="none" stroke="rgb(0,0,0)" class="dcg-svg-minor-gridline" paint-order="fill stroke markers" d=" M 0 249.5 L 600 249.5" stroke-opacity="0.12" stroke-miterlimit="10" stroke-dasharray=""/><path fill="none" stroke="rgb(0,0,0)" class="dcg-svg-minor-gridline" paint-order="fill stroke markers" d=" M 0 224.5 L 600 224.5" stroke-opacity="0.12" stroke-miterlimit="10" stroke-dasharray=""/><path fill="none" stroke="rgb(0,0,0)" class="dcg-svg-minor-gridline" paint-order="fill stroke markers" d=" M 0 199.5 L 600 199.5" stroke-opacity="0.12" stroke-miterlimit="10" stroke-dasharray=""/><path fill="none" stroke="rgb(0,0,0)" class="dcg-svg-minor-gridline" paint-order="fill stroke markers" d=" M 0 174.5 L 600 174.5" stroke-opacity="0.12" stroke-miterlimit="10" stroke-dasharray=""/><path fill="none" stroke="rgb(0,0,0)" class="dcg-svg-minor-gridline" paint-order="fill stroke markers" d=" M 0 149.5 L 600 149.5" stroke-opacity="0.12" stroke-miterlimit="10" stroke-dasharray=""/><path fill="none" stroke="rgb(0,0,0)" class="dcg-svg-minor-gridline" paint-order="fill stroke markers" d=" M 0 124.5 L 600 124.5" stroke-opacity="0.12" stroke-miterlimit="10" stroke-dasharray=""/><path fill="none" stroke="rgb(0,0,0)" class="dcg-svg-minor-gridline" paint-order="fill stroke markers" d=" M 0 99.5 L 600 99.5" stroke-opacity="0.12" stroke-miterlimit="10" stroke-dasharray=""/><path fill="none" stroke="rgb(0,0,0)" class="dcg-svg-minor-gridline" paint-order="fill stroke markers" d=" M 0 74.5 L 600 74.5" stroke-opacity="0.12" stroke-miterlimit="10" stroke-dasharray=""/><path fill="none" stroke="rgb(0,0,0)" class="dcg-svg-minor-gridline" paint-order="fill stroke markers" d=" M 0 49.5 L 600 49.5" stroke-opacity="0.12" stroke-miterlimit="10" stroke-dasharray=""/><path fill="none" stroke="rgb(0,0,0)" class="dcg-svg-minor-gridline" paint-order="fill stroke markers" d=" M 0 24.5 L 600 24.5" stroke-opacity="0.12" stroke-miterlimit="10" stroke-dasharray=""/><path fill="none" stroke="rgb(0,0,0)" class="dcg-svg-minor-gridline" paint-order="fill stroke markers" d=" M 0 -0.5 L 600 -0.5" stroke-opacity="0.12" stroke-miterlimit="10" stroke-dasharray=""/><path fill="none" stroke="rgb(0,0,0)" class="dcg-svg-major-gridline" paint-order="fill stroke markers" d=" M -0.5 0 L -0.5 400" stroke-opacity="0.31818181818181823" stroke-miterlimit="10" stroke-dasharray=""/><path fill="none" stroke="rgb(0,0,0)" class="dcg-svg-major-gridline" paint-order="fill stroke markers" d=" M 99.5 0 L 99.5 400" stroke-opacity="0.31818181818181823" stroke-miterlimit="10" stroke-dasharray=""/><path fill="none" stroke="rgb(0,0,0)" class="dcg-svg-major-gridline" paint-order="fill stroke markers" d=" M 199.5 0 L 199.5 400" stroke-opacity="0.31818181818181823" stroke-miterlimit="10" stroke-dasharray=""/><path fill="none" stroke="rgb(0,0,0)" class="dcg-svg-major-gridline" paint-order="fill stroke markers" d=" M 399.5 0 L 399.5 400" stroke-opacity="0.31818181818181823" stroke-miterlimit="10" stroke-dasharray=""/><path fill="none" stroke="rgb(0,0,0)" class="dcg-svg-major-gridline" paint-order="fill stroke markers" d=" M 499.5 0 L 499.5 400" stroke-opacity="0.31818181818181823" stroke-miterlimit="10" stroke-dasharray=""/><path fill="none" stroke="rgb(0,0,0)" class="dcg-svg-major-gridline" paint-order="fill stroke markers" d=" M 0 224.5 L 600 224.5" stroke-opacity="0.31818181818181823" stroke-miterlimit="10" stroke-dasharray=""/><path fill="none" stroke="rgb(0,0,0)" class="dcg-svg-major-gridline" paint-order="fill stroke markers" d=" M 0 124.5 L 600 124.5" stroke-opacity="0.31818181818181823" stroke-miterlimit="10" stroke-dasharray=""/><path fill="none" stroke="rgb(0,0,0)" class="dcg-svg-major-gridline" paint-order="fill stroke markers" d=" M 0 24.5 L 600 24.5" stroke-opacity="0.31818181818181823" stroke-miterlimit="10" stroke-dasharray=""/></g></g><g id="axis-cb82312e"><g id="yaxis-cb82312e"><title>Y axis</title><path fill="none" stroke="rgb(0,0,0)" class="dcg-svg-axis-line" paint-order="fill stroke markers" d=" M 299.75 0 L 299.75 400" stroke-opacity="0.9" stroke-miterlimit="10" stroke-width="1.5" stroke-dasharray=""/></g><g id="xaxis-cb82312e"><title>X axis</title><path fill="none" stroke="rgb(0,0,0)" class="dcg-svg-axis-line" paint-order="fill stroke markers" d=" M 0 324.75 L 600 324.75" stroke-opacity="0.9" stroke-miterlimit="10" stroke-width="1.5" stroke-dasharray=""/></g><g/></g></g><g id="expressions-cb82312e"><g id="sketch-cb82312e"><title>Expression 1</title><path fill="#2d70b3" stroke="none" paint-order="stroke fill markers" d="" fill-opacity="0.4"/><g><path fill="none" stroke="#2d70b3" class="dcg-svg-curve" paint-order="fill stroke markers" d=" M 32.000000000000014 339.7055624999998 L 32.000000000000014 339.7055624999998 L 36.247096774193544 308.30429045265817 L 40.34774193548388 280.1369609266123 L 44.448387096774226 254.0052601399057 L 48.40258064516133 230.66391659216927 L 52.3567741935484 209.0782969939707 L 56.164516129032314 189.89018023805588 L 59.97225806451615 172.2114307684004 L 63.633548387096795 156.58308618768987 L 67.29483870967744 142.24787608574968 L 70.80967741935486 129.65715553281552 L 74.32451612903232 118.1703216105056 L 77.83935483870972 107.74533047768978 L 81.20774193548391 98.71280498019291 L 84.5761290322581 90.58158970127317 L 87.79806451612905 83.61470946495541 L 91.02 77.40970795719608 L 94.24193548387095 71.93660414336699 L 97.31741935483872 67.367902970069 L 100.39290322580649 63.41388890007528 L 103.46838709677421 60.04965862372666 L 106.6903225806452 57.13109334213914 L 109.61935483870967 54.99284480284501 L 112.401935483871 53.39647563027836 L 115.03806451612904 52.259078714525 L 117.67419354838712 51.47170824488575 L 120.16387096774194 51.03657528091367 L 122.72330470336311 50.88888888888886 L 125.28967741935483 51.03313331455422 L 127.92580645161294 51.47278527713274 L 130.70838709677417 52.24253172854213 L 133.63741935483873 53.37504722358506 L 136.71290322580646 54.90060992120698 L 140.08129032258066 56.94312937982079 L 143.7425806451613 59.5742001842159 L 147.84322580645164 62.98954256525781 L 152.38322580645163 67.29561164492299 L 157.50903225806454 72.74778231589931 L 162.9277419354839 79.1040116927004 L 168.93225806451616 86.74642553136619 L 175.8154838709678 96.12813965729572 L 184.16322580645163 108.1529227433254 L 196.46516129032258 126.57859748014505 L 214.0393548387097 152.83267818031743 L 223.11935483870968 165.7285165828426 L 230.73483870967743 175.93460326171726 L 237.61806451612904 184.5583526337032 L 244.06193548387097 192.03057264535212 L 250.06645161290322 198.4096567685442 L 255.92451612903233 204.04295170550049 L 261.34322580645164 208.69974151679455 L 266.32258064516134 212.48494380444217 L 271.0090322580645 215.59785980889242 L 275.40258064516127 218.10788347841466 L 279.6496774193549 220.14943238454808 L 283.6038709677419 221.7037188071995 L 287.5580645161291 222.91906197650425 L 291.3658064516129 223.76561044949577 L 295.0270967741936 224.2777726791757 L 298.6883870967742 224.4926810159757 L 302.34967741935486 224.40978215253205 L 306.0109677419355 224.029289481344 L 309.67225806451614 223.352183094774 L 313.48 222.33523056888038 L 317.2877419354839 221.00220020331258 L 321.241935483871 219.28737271024957 L 325.3425806451613 217.1588574214446 L 329.7361290322581 214.49054860931543 L 334.2761290322581 211.32247129339038 L 339.1090322580645 207.50562761932952 L 344.23483870967743 202.97634888580623 L 349.8 197.5259076281066 L 355.8045161290323 191.06226670723612 L 362.101935483871 183.6859437934814 L 368.83870967741933 175.1887901204292 L 376.16129032258067 165.3407096967666 L 384.50903225806456 153.4892166111931 L 395.2 137.65063361424 L 420.38967741935477 100.08818580361645 L 428.1516129032258 89.29842114754308 L 434.741935483871 80.74697274405503 L 440.4535483870968 73.92037984069708 L 445.72580645161287 68.20047839651767 L 450.5587096774193 63.5264444890916 L 454.9522580645162 59.811820954542725 L 458.90645161290325 56.95124120266564 L 462.4212903225806 54.82712603822432 L 465.6432258064517 53.25270061181368 L 468.7187096774194 52.10459964163948 L 471.50129032258064 51.382058171273 L 474.13741935483876 50.989361916579696 L 476.77354838709675 50.89439016267687 L 479.26322580645166 51.09045973223948 L 481.7529032258064 51.57611213183816 L 484.24258064516124 52.36326570449478 L 486.7322580645161 53.46400272421215 L 489.36838709677426 54.98489643019241 L 492.15096774193546 57.002868102757645 L 495.08 59.603824348537785 L 498.15548387096777 62.88352300383184 L 501.2309677419355 66.74938072084302 L 504.3064516129033 71.22624475667482 L 507.38193548387096 76.33934408633445 L 510.45741935483863 82.11428940273277 L 513.6793548387097 88.90242915588914 L 516.9012903225806 96.47581342852988 L 520.1232258064516 104.86523658179925 L 523.4916129032258 114.54244745651386 L 526.86 125.18198255126123 L 530.3748387096774 137.34990930915842 L 533.8896774193549 150.6481816031454 L 537.4045161290323 165.119899193375 L 541.0658064516128 181.48958609759703 L 544.7270967741935 199.23022269357753 L 548.5348387096774 219.189585166443 L 552.3425806451613 240.74511324131691 L 556.2967741935483 264.8825077216819 L 560.2509677419355 290.8721808719038 L 564.3516129032258 319.85389024640153 L 568.4522580645161 350.97836136654115 L 572.6993548387097 385.55711650651864 L 574.9854281476364 405.5" stroke-linecap="round" stroke-linejoin="round" stroke-miterlimit="10" stroke-width="2.5" stroke-opacity="0.9" stroke-dasharray=""/></g></g><g id="sketch-cb82312e"><title>Expression 2</title><path fill="#388c46" stroke="none" paint-order="stroke fill markers" d="" fill-opacity="0.4"/><path fill="#388c46" stroke="none" paint-order="stroke fill markers" d="" fill-opacity="0.4"/><path fill="#388c46" stroke="none" class="dcg-svg-region" paint-order="stroke fill markers" d=" M 34.01763322927071 324.5 L 564.9823667707293 324.5 L 564.9823667707293 324.4999999999999 L 563.7578125 315.5263108299114 L 559.65625 286.84226763248444 L 555.701171875 261.12997412547156 L 551.74609375 237.26059189243827 L 547.9375 215.95440101623538 L 544.12890625 196.23589445083053 L 540.466796875 178.71894660125872 L 536.8046875 162.56529237190261 L 533.2890625 148.29384862491864 L 529.7734375 135.18896094569942 L 526.404296875 123.68495752871428 L 523.03515625 113.1755118508882 L 519.666015625 103.62387431723806 L 516.443359375 95.35038527301555 L 513.220703125 87.88889349507559 L 510.14453125 81.49577811305068 L 507.068359375 75.78814592179879 L 503.9921875 70.74002596596256 L 500.916015625 66.3258293497729 L 497.83984375 62.52034923704923 L 494.763671875 59.298760851199404 L 491.833984375 56.751060643548044 L 489.05078125 54.781814724585274 L 486.4140625 53.30541982362047 L 483.923828125 52.245237986609936 L 481.43359375 51.49722318342543 L 478.943359375 51.04930605008303 L 476.453125 50.8895813003183 L 473.81640625 51.0215349420032 L 471.033203125 51.481882964255476 L 468.103515625 52.30551246841247 L 465.02734375 53.52495621601702 L 461.658203125 55.25319504504483 L 457.99609375 57.56702171816147 L 453.89453125 60.65646525417111 L 449.353515625 64.63699498035749 L 444.373046875 69.60969691990795 L 438.953125 75.65452442318201 L 432.947265625 83.0102615267624 L 426.0625 92.13543128967285 L 417.712890625 103.94670969599429 L 402.0390625 127.32816725084558 L 388.5625 147.5507755279541 L 379.48046875 160.6982761429681 L 371.716796875 171.38797998614064 L 364.83203125 180.31351490822271 L 358.38671875 188.10830462203012 L 352.234375 194.97579381614923 L 346.521484375 200.80219730789577 L 341.248046875 205.67448618017988 L 336.267578125 209.80428201419454 L 331.580078125 213.25349301023562 L 327.185546875 216.0878954759046 L 322.9375 218.45012855529785 L 318.8359375 220.3706453652121 L 314.880859375 221.8813846338544 L 311.072265625 223.01521788813443 L 307.41015625 223.80546743693412 L 303.748046875 224.29954786912458 L 300.0859375 224.49618532368913 L 296.423828125 224.39487332576573 L 292.76171875 223.99587278664694 L 288.953125 223.26623783260584 L 285.14453125 222.21777796690003 L 281.189453125 220.79469371598134 L 277.087890625 218.96371422826815 L 272.693359375 216.60740112620442 L 268.15234375 213.75305408323766 L 263.318359375 210.25899147116615 L 258.044921875 205.93032962333564 L 252.478515625 200.80219730789577 L 246.619140625 194.81923380717672 L 240.466796875 187.93772781919142 L 233.875 179.94570922851562 L 226.55078125 170.4057817015855 L 218.201171875 158.82742526806578 L 190.076171875 116.94766099663138 L 180.26171875 102.46167761684046 L 172.64453125 91.73432312850491 L 166.19921875 83.19728197940276 L 160.486328125 76.17073279088982 L 155.212890625 70.23298857526424 L 150.37890625 65.33019654630334 L 146.130859375 61.50587413776702 L 142.17578125 58.39789748602203 L 138.66015625 56.03560193153686 L 135.4375 54.2274112701416 L 132.361328125 52.84213330578683 L 129.431640625 51.85133869727184 L 126.6484375 51.2236995161511 L 124.01171875 50.92550964505068 L 121.375 50.92959594726568 L 118.884765625 51.223468050559006 L 116.39453125 51.81111458633677 L 113.7578125 52.766851811204106 L 110.974609375 54.163510025502546 L 108.044921875 56.08258354168538 L 104.96875 58.615081429481506 L 101.892578125 61.701264945260846 L 98.81640625 65.36548583945842 L 95.740234375 69.63247792209768 L 92.6640625 74.52735706279054 L 89.44140625 80.35656088209362 L 86.21875 86.93262827396399 L 82.99609375 94.2857858742646 L 79.626953125 102.83736795081683 L 76.2578125 112.30743649462244 L 72.7421875 123.20761206606409 L 69.2265625 135.18896094569942 L 65.564453125 148.86490097979006 L 61.90234375 163.80860058302645 L 58.09375 180.7480026483536 L 54.28515625 199.16850843178693 L 50.330078125 219.92663269320659 L 46.375 242.40908813476565 L 42.2734375 267.616435802076 L 38.171875 294.8246358409524 L 34.01763322927071 324.4999999999999" fill-opacity="0.4"/><g><path fill="none" stroke="#388c46" class="dcg-svg-curve" paint-order="fill stroke markers" d=" M 34.01763322927071 324.5 L 45.01763322927071 324.5 M 52.01763322927071 324.5 L 63.01763322927071 324.5 M 70.0176332292707 324.5 L 81.0176332292707 324.5 M 88.0176332292707 324.5 L 99.0176332292707 324.5 M 106.0176332292707 324.5 L 117.0176332292707 324.5 M 124.0176332292707 324.5 L 135.0176332292707 324.5 M 142.0176332292707 324.5 L 153.0176332292707 324.5 M 160.0176332292707 324.5 L 171.0176332292707 324.5 M 178.0176332292707 324.5 L 189.0176332292707 324.5 M 196.0176332292707 324.5 L 207.0176332292707 324.5 M 214.0176332292707 324.5 L 225.0176332292707 324.5 M 232.0176332292707 324.5 L 243.0176332292707 324.5 M 250.0176332292707 324.5 L 261.0176332292707 324.5 M 268.0176332292707 324.5 L 279.0176332292707 324.5 M 286.0176332292707 324.5 L 297.0176332292707 324.5 M 304.0176332292707 324.5 L 315.0176332292707 324.5 M 322.0176332292707 324.5 L 333.0176332292707 324.5 M 340.0176332292707 324.5 L 351.0176332292707 324.5 M 358.0176332292707 324.5 L 369.0176332292707 324.5 M 376.0176332292707 324.5 L 387.0176332292707 324.5 M 394.0176332292707 324.5 L 405.0176332292707 324.5 M 412.0176332292707 324.5 L 423.0176332292707 324.5 M 430.0176332292707 324.5 L 441.0176332292707 324.5 M 448.0176332292707 324.5 L 459.0176332292707 324.5 M 466.0176332292707 324.5 L 477.0176332292707 324.5 M 484.0176332292707 324.5 L 495.0176332292707 324.5 M 502.0176332292707 324.5 L 513.0176332292707 324.5 M 520.0176332292707 324.5 L 531.0176332292707 324.5 M 538.0176332292707 324.5 L 549.0176332292707 324.5 M 556.0176332292707 324.5 L 564.9823667707293 324.5" stroke-linecap="round" stroke-linejoin="round" stroke-miterlimit="10" stroke-width="2.5" stroke-opacity="0.9" stroke-dasharray=""/></g><g><path fill="none" stroke="#388c46" class="dcg-svg-curve" paint-order="fill stroke markers" d=" M 34.01763322927071 324.4999999999999 L 35.54264819009744 313.606225201095 M 36.51311225607808 306.67382305633737 L 38.038127216904805 295.7800482574325 M 39.071511238664755 288.8567924291275 L 40.711205303819526 277.97968787999787 M 41.754646981645294 271.05789407600633 L 42.2734375 267.616435802076 M 42.2734375 267.616435802076 L 43.4811011366207 260.1943869722785 M 44.60530720666308 253.2852509400325 L 46.37191674530111 242.42803717507454 M 47.58447918616634 235.53386062949912 L 49.49031629680528 224.70021927916306 M 50.7330643844109 217.81156983373495 L 52.791875087027016 207.0059556220951 M 54.10202735232818 200.12965566923336 L 54.28515625 199.16850843178693 M 54.28515625 199.16850843178693 L 56.314280481702475 189.35452009412816 M 57.73161134333091 182.4995092824171 L 58.09375 180.7480026483536 M 58.09375 180.7480026483536 L 60.11437538756291 171.76090974474957 M 61.649897101038874 164.9314022173034 L 61.90234375 163.80860058302645 M 61.90234375 163.80860058302645 L 64.2466191807386 154.24248875049676 M 65.94295453754472 147.45140889347567 L 68.78826211122865 136.82576892163695 M 70.72035617006328 130.0980701040371 L 72.7421875 123.20761206606409 M 72.7421875 123.20761206606409 L 73.91447347581465 119.57294598071127 M 76.06318255631498 112.91088554212506 L 76.2578125 112.30743649462244 M 76.2578125 112.30743649462244 L 79.626953125 102.83736795081683 M 79.626953125 102.83736795081683 L 79.74220124664475 102.54484416475088 M 82.30809410315948 96.03207256973185 L 82.99609375 94.2857858742646 M 82.99609375 94.2857858742646 L 86.21875 86.93262827396399 M 86.21875 86.93262827396399 L 86.70048933603793 85.94960368389165 M 89.81466034519418 79.6814115554236 L 92.6640625 74.52735706279054 M 92.6640625 74.52735706279054 L 95.38346738990785 70.20017418367782 M 99.50392174374977 64.54654309514818 L 101.892578125 61.701264945260846 M 101.892578125 61.701264945260846 L 104.96875 58.615081429481506 M 104.96875 58.615081429481506 L 107.22890432466917 56.75438043945052 M 113.15609737206562 53.06880259896675 L 113.7578125 52.766851811204106 M 113.7578125 52.766851811204106 L 116.39453125 51.81111458633677 M 116.39453125 51.81111458633677 L 118.884765625 51.223468050559006 M 118.884765625 51.223468050559006 L 121.375 50.92959594726568 M 121.375 50.92959594726568 L 123.83103455638961 50.92578966362322 M 130.67514753763422 52.271881825059054 L 132.361328125 52.84213330578683 M 132.361328125 52.84213330578683 L 135.4375 54.2274112701416 M 135.4375 54.2274112701416 L 138.66015625 56.03560193153686 M 138.66015625 56.03560193153686 L 140.4455621691224 57.235290881778816 M 146.0406994679399 61.43502474435176 L 146.130859375 61.50587413776702 M 146.130859375 61.50587413776702 L 150.37890625 65.33019654630334 M 150.37890625 65.33019654630334 L 154.0083358546773 69.01128799283634 M 158.72191771532374 74.18405565590061 L 160.486328125 76.17073279088982 M 160.486328125 76.17073279088982 L 165.74943638839432 82.64407378841838 M 169.98740892894315 88.21487196255134 L 172.64453125 91.73432312850491 M 172.64453125 91.73432312850491 L 176.4599647221964 97.1076328156974 M 180.50486079686465 102.82055157598523 L 186.6747797004104 111.92725793578781 M 190.59791990275914 117.72457422015631 L 196.73055708359072 126.85642842443937 M 200.63314438048354 132.6676083726195 L 206.76578156131512 141.79946257690256 M 210.66836885820797 147.61064252508268 L 216.80100603903955 156.7424967293657 M 220.8265829149721 162.46806801433735 L 226.55078125 170.4057817015855 M 226.55078125 170.4057817015855 L 227.28982280122418 171.3683967024098 M 231.5526087578497 176.92075258869772 L 233.875 179.94570922851562 M 233.875 179.94570922851562 L 238.44760781059946 185.48962499582 M 243.0172645807349 190.79047134301968 L 246.619140625 194.81923380717672 M 246.619140625 194.81923380717672 L 250.53452228980993 198.8172004148682 M 255.58338939091266 203.66260719880844 L 258.044921875 205.93032962333564 M 258.044921875 205.93032962333564 L 263.318359375 210.25899147116615 M 263.318359375 210.25899147116615 L 263.9915278894747 210.7455658486536 M 269.73221641388824 214.74611493984577 L 272.693359375 216.60740112620442 M 272.693359375 216.60740112620442 L 277.087890625 218.96371422826815 M 277.087890625 218.96371422826815 L 279.38542648495434 219.98935775603638 M 285.9361525240348 222.43570174379653 L 288.953125 223.26623783260584 M 288.953125 223.26623783260584 L 292.76171875 223.99587278664694 M 292.76171875 223.99587278664694 L 296.423828125 224.39487332576573 M 296.423828125 224.39487332576573 L 296.73287082219326 224.40342297021655 M 303.7263437624513 224.30071322066675 L 303.748046875 224.29954786912458 M 303.748046875 224.29954786912458 L 307.41015625 223.80546743693412 M 307.41015625 223.80546743693412 L 311.072265625 223.01521788813443 M 311.072265625 223.01521788813443 L 314.4618228326456 222.00613345130964 M 320.945163167953 219.38302092910845 L 322.9375 218.45012855529785 M 322.9375 218.45012855529785 L 327.185546875 216.0878954759046 M 327.185546875 216.0878954759046 L 330.49608402991026 213.95265188773658 M 336.17923815142285 209.8692853652884 L 336.267578125 209.80428201419454 M 336.267578125 209.80428201419454 L 341.248046875 205.67448618017988 M 341.248046875 205.67448618017988 L 344.4947680422037 202.6747420067871 M 349.49043695938695 197.774252815347 L 352.234375 194.97579381614923 M 352.234375 194.97579381614923 L 356.9590823346466 189.70188879969743 M 361.4840048144775 184.36252913696126 L 364.83203125 180.31351490822271 M 364.83203125 180.31351490822271 L 368.34154290228577 175.76372040277352 M 372.5828368688549 170.1955402231385 L 379.0469200383282 161.2952240052656 M 383.03966726603556 155.545842354708 L 388.5625 147.5507755279541 M 388.5625 147.5507755279541 L 389.27391449985845 146.4832438964054 M 393.15578356300057 140.65820376121147 L 399.2558635193668 131.50456926304958 M 403.1422208802336 125.68252901633099 L 409.2672209426665 116.54555061889583 M 413.1649482551238 110.731109820528 L 417.712890625 103.94670969599429 M 417.712890625 103.94670969599429 L 419.3478101017211 101.63396807609418 M 423.38854388600856 95.91798430385357 L 426.0625 92.13543128967285 M 426.0625 92.13543128967285 L 429.897711174076 87.05218591194009 M 434.17213758287954 81.5100871894787 L 438.953125 75.65452442318201 M 438.953125 75.65452442318201 L 441.24993841153935 73.09289324100529 M 446.01601936005954 67.96928657437898 L 449.353515625 64.63699498035749 M 449.353515625 64.63699498035749 L 453.89453125 60.65646525417111 M 453.89453125 60.65646525417111 L 454.09029418094826 60.50900961461707 M 459.780006834944 56.43989381022858 L 461.658203125 55.25319504504483 M 461.658203125 55.25319504504483 L 465.02734375 53.52495621601702 M 465.02734375 53.52495621601702 L 468.103515625 52.30551246841247 M 468.103515625 52.30551246841247 L 469.72343053396753 51.85010221962333 M 476.63117555995524 50.901001543095376 L 478.943359375 51.04930605008303 M 478.943359375 51.04930605008303 L 481.43359375 51.49722318342543 M 481.43359375 51.49722318342543 L 483.923828125 52.245237986609936 M 483.923828125 52.245237986609936 L 486.4140625 53.30541982362047 M 486.4140625 53.30541982362047 L 487.15239264026985 53.7188377713341 M 492.90161149021833 57.679485201845125 L 494.763671875 59.298760851199404 M 494.763671875 59.298760851199404 L 497.83984375 62.52034923704923 M 497.83984375 62.52034923704923 L 500.4034510296595 65.69174437230245 M 504.4107313452721 71.42687300298337 L 507.068359375 75.78814592179879 M 507.068359375 75.78814592179879 L 509.8641204351171 80.9754945077008 M 512.9233763614567 87.2709682351301 L 513.220703125 87.88889349507559 M 513.220703125 87.88889349507559 L 516.443359375 95.35038527301555 M 516.443359375 95.35038527301555 L 517.2369837876821 97.38784827688154 M 519.768336421913 103.91395753816822 L 523.03515625 113.1755118508882 M 523.03515625 113.1755118508882 L 523.3951346893376 114.29840171346477 M 525.5320845089766 120.9642434058803 L 526.404296875 123.68495752871428 M 526.404296875 123.68495752871428 L 528.6929498503072 131.49961253386917 M 530.5910965212648 138.23687693036123 L 533.2890625 148.29384862491864 M 533.2890625 148.29384862491864 L 533.4295684877661 148.86422325262177 M 535.1038936590027 155.6610339179974 L 536.8046875 162.56529237190261 M 536.8046875 162.56529237190261 L 537.6645984702766 166.3583807424209 M 539.2122586560756 173.18514776270897 L 540.466796875 178.71894660125872 M 540.466796875 178.71894660125872 L 541.5566469092146 183.93202034054048 M 542.989104344146 190.78388619570066 L 544.12890625 196.23589445083053 M 544.12890625 196.23589445083053 L 545.1586916169732 201.5674763554691 M 546.4861936037131 208.44044794534213 L 547.9375 215.95440101623538 M 547.9375 215.95440101623538 L 548.5264884458855 219.24934426186653 M 549.7582505101574 226.14011796421815 L 551.6938766111559 236.96847663934216 M 552.8418604543095 243.87367853112372 L 554.640007000273 254.72571377799053 M 555.7784680766775 261.6324831939895 L 557.4508247561325 272.50461376424494 M 558.5150517339675 279.4232423089529 L 559.65625 286.84226763248444 M 559.65625 286.84226763248444 L 560.1507903105048 290.30080706212624 M 561.1416493965445 297.2303235150696 L 562.6987136746069 308.11956365540914 M 563.6895727606466 315.0490801083525 L 563.7578125 315.5263108299114 M 563.7578125 315.5263108299114 L 564.9823667707293 324.4999999999999" stroke-linecap="round" stroke-linejoin="round" stroke-miterlimit="10" stroke-width="2.5" stroke-opacity="0.9" stroke-dasharray=""/></g></g></g><g id="labels-cb82312e"/></g></svg>