<svg version="1.1" xmlns="http://www.w3.org/2000/svg" xmlns:xlink="http://www.w3.org/1999/xlink" width="600" height="400"><defs/><g transform="scale(1,1)"><g id="background-5d819e67"><rect fill="white" stroke="none" x="0" y="0" width="600" height="400" class="dcg-svg-background"/></g><g id="background-images-5d819e67"/><g id="graphpaper-5d819e67"><g id="grid-5d819e67"><g><path fill="none" stroke="rgb(0,0,0)" class="dcg-svg-minor-gridline" paint-order="fill stroke markers" d=" M -0.5 0 L -0.5 400" stroke-opacity="0.12" stroke-miterlimit="10" stroke-dasharray=""/><path fill="none" stroke="rgb(0,0,0)" class="dcg-svg-minor-gridline" paint-order="fill stroke markers" d=" M 29.5 0 L 29.5 400" stroke-opacity="0.12" stroke-miterlimit="10" stroke-dasharray=""/><path fill="none" stroke="rgb(0,0,0)" class="dcg-svg-minor-gridline" paint-order="fill stroke markers" d=" M 59.5 0 L 59.5 400" stroke-opacity="0.12" stroke-miterlimit="10" stroke-dasharray=""/><path fill="none" stroke="rgb(0,0,0)" class="dcg-svg-minor-gridline" paint-order="fill stroke markers" d=" M 89.5 0 L 89.5 400" stroke-opacity="0.12" stroke-miterlimit="10" stroke-dasharray=""/><path fill="none" stroke="rgb(0,0,0)" class="dcg-svg-minor-gridline" paint-order="fill stroke markers" d=" M 119.5 0 L 119.5 400" stroke-opacity="0.12" stroke-miterlimit="10" stroke-dasharray=""/><path fill="none" stroke="rgb(0,0,0)" class="dcg-svg-minor-gridline" paint-order="fill stroke markers" d=" M 149.5 0 L 149.5 400" stroke-opacity="0.12" stroke-miterlimit="10" stroke-dasharray=""/><path fill="none" stroke="rgb(0,0,0)" class="dcg-svg-minor-gridline" paint-order="fill stroke markers" d=" M 179.5 0 L 179.5 400" stroke-opacity="0.12" stroke-miterlimit="10" stroke-dasharray=""/><path fill="none" stroke="rgb(0,0,0)" class="dcg-svg-minor-gridline" paint-order="fill stroke markers" d=" M 209.5 0 L 209.5 400" stroke-opacity="0.12" stroke-miterlimit="10" stroke-dasharray=""/><path fill="none" stroke="rgb(0,0,0)" class="dcg-svg-minor-gridline" paint-order="fill stroke markers" d=" M 239.5 0 L 239.5 400" stroke-opacity="0.12" stroke-miterlimit="10" stroke-dasharray=""/><path fill="none" stroke="rgb(0,0,0)" class="dcg-svg-minor-gridline" paint-order="fill stroke markers" d=" M 269.5 0 L 269.5 400" stroke-opacity="0.12" stroke-miterlimit="10" stroke-dasharray=""/><path fill="none" stroke="rgb(0,0,0)" class="dcg-svg-minor-gridline" paint-order="fill stroke markers" d=" M 329.5 0 L 329.5 400" stroke-opacity="0.12" stroke-miterlimit="10" stroke-dasharray=""/><path fill="none" stroke="rgb(0,0,0)" class="dcg-svg-minor-gridline" paint-order="fill stroke markers" d=" M 359.5 0 L 359.5 400" stroke-opacity="0.12" stroke-miterlimit="10" stroke-dasharray=""/><path fill="none" stroke="rgb(0,0,0)" class="dcg-svg-minor-gridline" paint-order="fill stroke markers" d=" M 389.5 0 L 389.5 400" stroke-opacity="0.12" stroke-miterlimit="10" stroke-dasharray=""/><path fill="none" stroke="rgb(0,0,0)" class="dcg-svg-minor-gridline" paint-order="fill stroke markers" d=" M 419.5 0 L 419.5 400" stroke-opacity="0.12" stroke-miterlimit="10" stroke-dasharray=""/><path fill="none" stroke="rgb(0,0,0)" class="dcg-svg-minor-gridline" paint-order="fill stroke markers" d=" M 449.5 0 L 449.5 400" stroke-opacity="0.12" stroke-miterlimit="10" stroke-dasharray=""/><path fill="none" stroke="rgb(0,0,0)" class="dcg-svg-minor-gridline" paint-order="fill stroke markers" d=" M 479.5 0 L 479.5 400" stroke-opacity="0.12" stroke-miterlimit="10" stroke-dasharray=""/><path fill="none" stroke="rgb(0,0,0)" class="dcg-svg-minor-gridline" paint-order="fill stroke markers" d=" M 509.5 0 L 509.5 400" stroke-opacity="0.12" stroke-miterlimit="10" stroke-dasharray=""/><path fill="none" stroke="rgb(0,0,0)" class="dcg-svg-minor-gridline" paint-order="fill stroke markers" d=" M 539.5 0 L 539.5 400" stroke-opacity="0.12" stroke-miterlimit="10" stroke-dasharray=""/><path fill="none" stroke="rgb(0,0,0)" class="dcg-svg-minor-gridline" paint-order="fill stroke markers" d=" M 569.5 0 L 569.5 400" stroke-opacity="0.12" stroke-miterlimit="10" stroke-dasharray=""/><path fill="none" stroke="rgb(0,0,0)" class="dcg-svg-minor-gridline" paint-order="fill stroke markers" d=" M 0 370.5 L 600 370.5" stroke-opacity="0.12" stroke-miterlimit="10" stroke-dasharray=""/><path fill="none" stroke="rgb(0,0,0)" class="dcg-svg-minor-gridline" paint-order="fill stroke markers" d=" M 0 342.5 L 600 342.5" stroke-opacity="0.12" stroke-miterlimit="10" stroke-dasharray=""/><path fill="none" stroke="rgb(0,0,0)" class="dcg-svg-minor-gridline" paint-order="fill stroke markers" d=" M 0 313.5 L 600 313.5" stroke-opacity="0.12" stroke-miterlimit="10" stroke-dasharray=""/><path fill="none" stroke="rgb(0,0,0)" class="dcg-svg-minor-gridline" paint-order="fill stroke markers" d=" M 0 285.5 L 600 285.5" stroke-opacity="0.12" stroke-miterlimit="10" stroke-dasharray=""/><path fill="none" stroke="rgb(0,0,0)" class="dcg-svg-minor-gridline" paint-order="fill stroke markers" d=" M 0 256.5 L 600 256.5" stroke-opacity="0.12" stroke-miterlimit="10" stroke-dasharray=""/><path fill="none" stroke="rgb(0,0,0)" class="dcg-svg-minor-gridline" paint-order="fill stroke markers" d=" M 0 228.5 L 600 228.5" stroke-opacity="0.12" stroke-miterlimit="10" stroke-dasharray=""/><path fill="none" stroke="rgb(0,0,0)" class="dcg-svg-minor-gridline" paint-order="fill stroke markers" d=" M 0 170.5 L 600 170.5" stroke-opacity="0.12" stroke-miterlimit="10" stroke-dasharray=""/><path fill="none" stroke="rgb(0,0,0)" class="dcg-svg-minor-gridline" paint-order="fill stroke markers" d=" M 0 142.5 L 600 142.5" stroke-opacity="0.12" stroke-miterlimit="10" stroke-dasharray=""/><path fill="none" stroke="rgb(0,0,0)" class="dcg-svg-minor-gridline" paint-order="fill stroke markers" d=" M 0 113.5 L 600 113.5" stroke-opacity="0.12" stroke-miterlimit="10" stroke-dasharray=""/><path fill="none" stroke="rgb(0,0,0)" class="dcg-svg-minor-gridline" paint-order="fill stroke markers" d=" M 0 85.5 L 600 85.5" stroke-opacity="0.12" stroke-miterlimit="10" stroke-dasharray=""/><path fill="none" stroke="rgb(0,0,0)" class="dcg-svg-minor-gridline" paint-order="fill stroke markers" d=" M 0 56.5 L 600 56.5" stroke-opacity="0.12" stroke-miterlimit="10" stroke-dasharray=""/><path fill="none" stroke="rgb(0,0,0)" class="dcg-svg-minor-gridline" paint-order="fill stroke markers" d=" M 0 28.5 L 600 28.5" stroke-opacity="0.12" stroke-miterlimit="10" stroke-dasharray=""/><path fill="none" stroke="rgb(0,0,0)" class="dcg-svg-minor-gridline" paint-order="fill stroke markers" d=" M 0 -0.5 L 600 -0.5" stroke-opacity="0.12" stroke-miterlimit="10" stroke-dasharray=""/><path fill="none" stroke="rgb(0,0,0)" class="dcg-svg-major-gridline" paint-order="fill stroke markers" d=" M -0.5 0 L -0.5 400" stroke-opacity="0.31818181818181823" stroke-miterlimit="10" stroke-dasharray=""/><path fill="none" stroke="rgb(0,0,0)" class="dcg-svg-major-gridline" paint-order="fill stroke markers" d=" M 149.5 0 L 149.5 400" stroke-opacity="0.31818181818181823" stroke-miterlimit="10" stroke-dasharray=""/><path fill="none" stroke="rgb(0,0,0)" class="dcg-svg-major-gridline" paint-order="fill stroke markers" d=" M 449.5 0 L 449.5 400" stroke-opacity="0.31818181818181823" stroke-miterlimit="10" stroke-dasharray=""/><path fill="none" stroke="rgb(0,0,0)" class="dcg-svg-major-gridline" paint-order="fill stroke markers" d=" M 0 342.5 L 600 342.5" stroke-opacity="0.31818181818181823" stroke-miterlimit="10" stroke-dasharray=""/><path fill="none" stroke="rgb(0,0,0)" class="dcg-svg-major-gridline" paint-order="fill stroke markers" d=" M 0 56.5 L 600 56.5" stroke-opacity="0.31818181818181823" stroke-miterlimit="10" stroke-dasharray=""/></g></g><g id="axis-5d819e67"><g id="yaxis-5d819e67"><title>Y axis</title><path fill="none" stroke="rgb(0,0,0)" class="dcg-svg-axis-line" paint-order="fill stroke markers" d=" M 299.75 0 L 299.75 400" stroke-opacity="0.9" stroke-miterlimit="10" stroke-width="1.5" stroke-dasharray=""/></g><g id="xaxis-5d819e67"><title>X axis</title><path fill="none" stroke="rgb(0,0,0)" class="dcg-svg-axis-line" paint-order="fill stroke markers" d=" M 0 199.75 L 600 199.75" stroke-opacity="0.9" stroke-miterlimit="10" stroke-width="1.5" stroke-dasharray=""/></g><g><g class="dcg-svg-axis-value"><text fill="none" stroke="#ffffff" font-family="Arial" font-size="14px" font-style="normal" font-weight="normal" text-decoration="normal" x="291.10693359375" y="215.808" text-anchor="middle" stroke-miterlimit="2" stroke-width="3" stroke-dasharray="">0</text><text fill="#000000" stroke="none" font-family="Arial" font-size="14px" font-style="normal" font-weight="normal" text-decoration="normal" x="291.10693359375" y="215.808" text-anchor="middle">0</text></g><g class="dcg-svg-axis-value dcg-svg-offcenter-axis-value"><text fill="none" stroke="#ffffff" font-family="Arial" font-size="14px" font-style="normal" font-weight="normal" text-decoration="normal" x="13.1171875" y="215.808" text-anchor="middle" stroke-miterlimit="2" stroke-width="3" stroke-dasharray="">-10</text><text fill="#000000" stroke="none" font-family="Arial" font-size="14px" font-style="normal" font-weight="normal" text-decoration="normal" x="13.1171875" y="215.808" text-anchor="middle">-10</text></g><g class="dcg-svg-axis-value"><text fill="none" stroke="#ffffff" font-family="Arial" font-size="14px" font-style="normal" font-weight="normal" text-decoration="normal" x="147.6689453125" y="215.808" text-anchor="middle" stroke-miterlimit="2" stroke-width="3" stroke-dasharray="">-5</text><text fill="#000000" stroke="none" font-family="Arial" font-size="14px" font-style="normal" font-weight="normal" text-decoration="normal" x="147.6689453125" y="215.808" text-anchor="middle">-5</text></g><g class="dcg-svg-axis-value"><text fill="none" stroke="#ffffff" font-family="Arial" font-size="14px" font-style="normal" font-weight="normal" text-decoration="normal" x="450" y="215.808" text-anchor="middle" stroke-miterlimit="2" stroke-width="3" stroke-dasharray="">5</text><text fill="#000000" stroke="none" font-family="Arial" font-size="14px" font-style="normal" font-weight="normal" text-decoration="normal" x="450" y="215.808" text-anchor="middle">5</text></g><g class="dcg-svg-axis-value dcg-svg-offcenter-axis-value"><text fill="none" stroke="#ffffff" font-family="Arial" font-size="14px" font-style="normal" font-weight="normal" text-decoration="normal" x="589.2138671875" y="215.808" text-anchor="middle" stroke-miterlimit="2" stroke-width="3" stroke-dasharray="">10</text><text fill="#000000" stroke="none" font-family="Arial" font-size="14px" font-style="normal" font-weight="normal" text-decoration="normal" x="589.2138671875" y="215.808" text-anchor="middle">10</text></g><g class="dcg-svg-axis-value"><text fill="none" stroke="#ffffff" font-family="Arial" font-size="14px" font-style="normal" font-weight="normal" text-decoration="normal" x="288.77587890625" y="346.6651428571428" text-anchor="middle" stroke-miterlimit="2" stroke-width="3" stroke-dasharray="">-5</text><text fill="#000000" stroke="none" font-family="Arial" font-size="14px" font-style="normal" font-weight="normal" text-decoration="normal" x="288.77587890625" y="346.6651428571428" text-anchor="middle">-5</text></g><g class="dcg-svg-axis-value"><text fill="none" stroke="#ffffff" font-family="Arial" font-size="14px" font-style="normal" font-weight="normal" text-decoration="normal" x="291.10693359375" y="60.95085714285717" text-anchor="middle" stroke-miterlimit="2" stroke-width="3" stroke-dasharray="">5</text><text fill="#000000" stroke="none" font-family="Arial" font-size="14px" font-style="normal" font-weight="normal" text-decoration="normal" x="291.10693359375" y="60.95085714285717" text-anchor="middle">5</text></g></g></g></g><g id="expressions-5d819e67"><g id="sketch-5d819e67"><title>Expression 1</title><path fill="#2d70b3" stroke="none" paint-order="stroke fill markers" d="" fill-opacity="0.4"/><g><path fill="none" stroke="#2d70b3" class="dcg-svg-curve" paint-order="fill stroke markers" d=" M -0.5 267.8061511647006 L -0.5 267.8061511647006 L 1.697265625 277.7494624138757 L 3.748046875 285.69456044327876 L 5.65234375 291.90293533139453 L 7.41015625 296.6272199361537 L 9.021484375 300.106639831393 L 10.486328125 302.563724399678 L 11.951171875 304.35071154890704 L 13.26953125 305.3892883654701 L 14.294921875 305.8265351433122 L 15.3203125 305.9420848307234 L 16.19921875 305.78712814271483 L 17.224609375 305.31272032614106 L 18.396484375 304.387544570866 L 19.71484375 302.8652209003642 L 21.1796875 300.58640823459837 L 22.791015625 297.3815280704736 L 24.548828125 293.0742074785581 L 26.453125 287.48553062753376 L 28.50390625 280.4391714393974 L 30.701171875 271.7674538089102 L 33.19140625 260.62623503272175 L 35.828125 247.43035315163388 L 38.7578125 231.25231434658468 L 42.126953125 210.93787444214004 L 46.08203125 185.18920173609956 L 51.0625 150.67175575792217 L 69.8125 18.58108071162087 L 73.66535266327816 -5.5 L 137.20442147423864 -5.5 L 141.150390625 14.659800160213592 L 160.6328125 115.82948278469343 L 164.880859375 135.43893117369475 L 168.54296875 151.0010940283643 L 171.912109375 164.05869746845627 L 174.98828125 174.82735979833535 L 177.91796875 183.99504516821878 L 180.5546875 191.30113718648613 L 183.044921875 197.3588270528274 L 185.388671875 202.30285125733323 L 187.732421875 206.50978751655862 L 189.9296875 209.78717073201503 L 191.98046875 212.27037881828036 L 194.03125 214.20708147638018 L 195.935546875 215.52676624185364 L 197.693359375 216.3464667646406 L 199.3046875 216.77150838575596 L 200.77855494653764 216.89533308480367 L 202.234375 216.77723449404627 L 203.845703125 216.37813218510013 L 205.603515625 215.63505209555063 L 207.5078125 214.48685763313895 L 209.55859375 212.87681359777062 L 212.048828125 210.44370115862097 L 214.83203125 207.17024368134756 L 217.908203125 202.96900433318166 L 221.423828125 197.56331906653793 L 225.96484375 189.90611174196655 L 242.517578125 161.3085839914766 L 246.326171875 155.75126614561728 L 249.6953125 151.44502722696788 L 252.771484375 148.0903984747033 L 255.701171875 145.45815119798053 L 258.19140625 143.67939566817455 L 260.53515625 142.40527362716762 L 262.5859375 141.61543436158348 L 264.63671875 141.13192897814338 L 266.541015625 140.95742430909615 L 268.4453125 141.04533852360976 L 270.349609375 141.39191913460343 L 272.400390625 142.0479845918892 L 274.59765625 143.06597681208456 L 276.94140625 144.49513855210773 L 279.578125 146.50065418878427 L 282.5078125 149.1812442660545 L 285.876953125 152.7819529804215 L 289.83203125 157.59119150238263 L 294.666015625 164.08251622675567 L 311.072265625 186.65053514637634 L 314.880859375 191.01781286735203 L 318.25 194.33862713402172 L 321.1796875 196.7387883770343 L 323.81640625 198.4663743112167 L 326.16015625 199.63123891765542 L 328.357421875 200.3892770171931 L 330.408203125 200.79426759141776 L 332.3125 200.90223617520593 L 334.216796875 200.7480081865514 L 336.12109375 200.32956742427925 L 338.171875 199.583382464863 L 340.22265625 198.53306486083127 L 342.419921875 197.07596351948078 L 344.91015625 195.0216169799763 L 347.693359375 192.2419039820059 L 350.76953125 188.61662499778134 L 354.138671875 184.04802700735732 L 357.80078125 178.47969741593144 L 362.341796875 170.91139315051848 L 369.51953125 158.1764308552253 L 376.2578125 146.45266739231914 L 380.359375 139.96644833845596 L 383.728515625 135.2520475419164 L 386.658203125 131.73175734493572 L 389.294921875 129.10939283161377 L 391.638671875 127.2697831972751 L 393.689453125 126.07662043275207 L 395.447265625 125.38598242657281 L 397.05859375 125.03733770646829 L 398.669921875 124.97318681953226 L 400.134765625 125.17115420917048 L 401.599609375 125.6211999359802 L 403.2109375 126.41579724087109 L 404.96875 127.65006138076268 L 406.873046875 129.43043202832632 L 408.923828125 131.87426275365516 L 410.974609375 134.8732154870832 L 413.171875 138.70936501810542 L 415.515625 143.51520339639984 L 417.859375 149.05649830581714 L 420.349609375 155.74163167916115 L 422.986328125 163.69768720698974 L 425.916015625 173.56190534537964 L 428.9921875 185.02286374167235 L 432.361328125 198.78028222372885 L 436.0234375 215.01846511639351 L 440.271484375 235.28060200283392 L 445.3984375 261.29116098850807 L 453.6015625 304.7342365615644 L 461.365234375 345.3137087273994 L 466.052734375 368.2890711753696 L 469.861328125 385.5515480230693 L 473.23046875 399.47674014716 L 474.8494949443659 405.5 L 513.9206147696793 405.5 L 515.7109375 398.00273826036255 L 518.494140625 384.9679400573846 L 521.423828125 369.77819448965823 L 524.646484375 351.48557203955414 L 528.30859375 328.9336054548198 L 532.556640625 300.8461245055571 L 537.9765625 262.8912178495943 L 553.650390625 151.76802386748417 L 557.751953125 125.46052921981345 L 561.267578125 104.77306096580878 L 564.34375 88.39295047502537 L 567.126953125 75.16501557133194 L 569.6171875 64.751127508948 L 571.814453125 56.768412561985144 L 573.865234375 50.40204547145328 L 575.76953125 45.4741097077337 L 577.52734375 41.79955816226692 L 579.138671875 39.192177571003015 L 580.603515625 37.46959828627678 L 581.921875 36.457406038060356 L 582.947265625 36.02799274190255 L 583.97265625 35.91539700475374 L 584.8515625 36.07331729990557 L 585.876953125 36.55671995915685 L 587.048828125 37.50643130823573 L 588.3671875 39.0846173829263 L 589.83203125 41.474562215182175 L 591.296875 44.53672700125543 L 592.908203125 48.682376668516326 L 594.666015625 54.13189755213756 L 596.5703125 61.12109634948183 L 598.62109375 69.8976293598472 L 599.5 74.05099169244215" stroke-linecap="round" stroke-linejoin="round" stroke-miterlimit="10" stroke-width="2.5" stroke-opacity="0.9" stroke-dasharray=""/></g></g></g><g id="labels-5d819e67"/></g></svg>