<svg version="1.1" xmlns="http://www.w3.org/2000/svg" xmlns:xlink="http://www.w3.org/1999/xlink" width="600" height="400"><defs/><g transform="scale(1,1)"><g id="background-90479e12"><rect fill="white" stroke="none" x="0" y="0" width="600" height="400" class="dcg-svg-background"/></g><g id="background-images-90479e12"/><g id="graphpaper-90479e12"><g id="grid-90479e12"><g><path fill="none" stroke="rgb(0,0,0)" class="dcg-svg-minor-gridline" paint-order="fill stroke markers" d=" M 8.5 0 L 8.5 400" stroke-opacity="0.12" stroke-miterlimit="10" stroke-dasharray=""/><path fill="none" stroke="rgb(0,0,0)" class="dcg-svg-minor-gridline" paint-order="fill stroke markers" d=" M 25.5 0 L 25.5 400" stroke-opacity="0.12" stroke-miterlimit="10" stroke-dasharray=""/><path fill="none" stroke="rgb(0,0,0)" class="dcg-svg-minor-gridline" paint-order="fill stroke markers" d=" M 59.5 0 L 59.5 400" stroke-opacity="0.12" stroke-miterlimit="10" stroke-dasharray=""/><path fill="none" stroke="rgb(0,0,0)" class="dcg-svg-minor-gridline" paint-order="fill stroke markers" d=" M 76.5 0 L 76.5 400" stroke-opacity="0.12" stroke-miterlimit="10" stroke-dasharray=""/><path fill="none" stroke="rgb(0,0,0)" class="dcg-svg-minor-gridline" paint-order="fill stroke markers" d=" M 93.5 0 L 93.5 400" stroke-opacity="0.12" stroke-miterlimit="10" stroke-dasharray=""/><path fill="none" stroke="rgb(0,0,0)" class="dcg-svg-minor-gridline" paint-order="fill stroke markers" d=" M 110.5 0 L 110.5 400" stroke-opacity="0.12" stroke-miterlimit="10" stroke-dasharray=""/><path fill="none" stroke="rgb(0,0,0)" class="dcg-svg-minor-gridline" paint-order="fill stroke markers" d=" M 128.5 0 L 128.5 400" stroke-opacity="0.12" stroke-miterlimit="10" stroke-dasharray=""/><path fill="none" stroke="rgb(0,0,0)" class="dcg-svg-minor-gridline" paint-order="fill stroke markers" d=" M 145.5 0 L 145.5 400" stroke-opacity="0.12" stroke-miterlimit="10" stroke-dasharray=""/><path fill="none" stroke="rgb(0,0,0)" class="dcg-svg-minor-gridline" paint-order="fill stroke markers" d=" M 162.5 0 L 162.5 400" stroke-opacity="0.12" stroke-miterlimit="10" stroke-dasharray=""/><path fill="none" stroke="rgb(0,0,0)" class="dcg-svg-minor-gridline" paint-order="fill stroke markers" d=" M 179.5 0 L 179.5 400" stroke-opacity="0.12" stroke-miterlimit="10" stroke-dasharray=""/><path fill="none" stroke="rgb(0,0,0)" class="dcg-svg-minor-gridline" paint-order="fill stroke markers" d=" M 196.5 0 L 196.5 400" stroke-opacity="0.12" stroke-miterlimit="10" stroke-dasharray=""/><path fill="none" stroke="rgb(0,0,0)" class="dcg-svg-minor-gridline" paint-order="fill stroke markers" d=" M 213.5 0 L 213.5 400" stroke-opacity="0.12" stroke-miterlimit="10" stroke-dasharray=""/><path fill="none" stroke="rgb(0,0,0)" class="dcg-svg-minor-gridline" paint-order="fill stroke markers" d=" M 230.5 0 L 230.5 400" stroke-opacity="0.12" stroke-miterlimit="10" stroke-dasharray=""/><path fill="none" stroke="rgb(0,0,0)" class="dcg-svg-minor-gridline" paint-order="fill stroke markers" d=" M 248.5 0 L 248.5 400" stroke-opacity="0.12" stroke-miterlimit="10" stroke-dasharray=""/><path fill="none" stroke="rgb(0,0,0)" class="dcg-svg-minor-gridline" paint-order="fill stroke markers" d=" M 265.5 0 L 265.5 400" stroke-opacity="0.12" stroke-miterlimit="10" stroke-dasharray=""/><path fill="none" stroke="rgb(0,0,0)" class="dcg-svg-minor-gridline" paint-order="fill stroke markers" d=" M 282.5 0 L 282.5 400" stroke-opacity="0.12" stroke-miterlimit="10" stroke-dasharray=""/><path fill="none" stroke="rgb(0,0,0)" class="dcg-svg-minor-gridline" paint-order="fill stroke markers" d=" M 299.5 0 L 299.5 400" stroke-opacity="0.12" stroke-miterlimit="10" stroke-dasharray=""/><path fill="none" stroke="rgb(0,0,0)" class="dcg-svg-minor-gridline" paint-order="fill stroke markers" d=" M 316.5 0 L 316.5 400" stroke-opacity="0.12" stroke-miterlimit="10" stroke-dasharray=""/><path fill="none" stroke="rgb(0,0,0)" class="dcg-svg-minor-gridline" paint-order="fill stroke markers" d=" M 333.5 0 L 333.5 400" stroke-opacity="0.12" stroke-miterlimit="10" stroke-dasharray=""/><path fill="none" stroke="rgb(0,0,0)" class="dcg-svg-minor-gridline" paint-order="fill stroke markers" d=" M 350.5 0 L 350.5 400" stroke-opacity="0.12" stroke-miterlimit="10" stroke-dasharray=""/><path fill="none" stroke="rgb(0,0,0)" class="dcg-svg-minor-gridline" paint-order="fill stroke markers" d=" M 368.5 0 L 368.5 400" stroke-opacity="0.12" stroke-miterlimit="10" stroke-dasharray=""/><path fill="none" stroke="rgb(0,0,0)" class="dcg-svg-minor-gridline" paint-order="fill stroke markers" d=" M 385.5 0 L 385.5 400" stroke-opacity="0.12" stroke-miterlimit="10" stroke-dasharray=""/><path fill="none" stroke="rgb(0,0,0)" class="dcg-svg-minor-gridline" paint-order="fill stroke markers" d=" M 402.5 0 L 402.5 400" stroke-opacity="0.12" stroke-miterlimit="10" stroke-dasharray=""/><path fill="none" stroke="rgb(0,0,0)" class="dcg-svg-minor-gridline" paint-order="fill stroke markers" d=" M 419.5 0 L 419.5 400" stroke-opacity="0.12" stroke-miterlimit="10" stroke-dasharray=""/><path fill="none" stroke="rgb(0,0,0)" class="dcg-svg-minor-gridline" paint-order="fill stroke markers" d=" M 436.5 0 L 436.5 400" stroke-opacity="0.12" stroke-miterlimit="10" stroke-dasharray=""/><path fill="none" stroke="rgb(0,0,0)" class="dcg-svg-minor-gridline" paint-order="fill stroke markers" d=" M 453.5 0 L 453.5 400" stroke-opacity="0.12" stroke-miterlimit="10" stroke-dasharray=""/><path fill="none" stroke="rgb(0,0,0)" class="dcg-svg-minor-gridline" paint-order="fill stroke markers" d=" M 470.5 0 L 470.5 400" stroke-opacity="0.12" stroke-miterlimit="10" stroke-dasharray=""/><path fill="none" stroke="rgb(0,0,0)" class="dcg-svg-minor-gridline" paint-order="fill stroke markers" d=" M 488.5 0 L 488.5 400" stroke-opacity="0.12" stroke-miterlimit="10" stroke-dasharray=""/><path fill="none" stroke="rgb(0,0,0)" class="dcg-svg-minor-gridline" paint-order="fill stroke markers" d=" M 505.5 0 L 505.5 400" stroke-opacity="0.12" stroke-miterlimit="10" stroke-dasharray=""/><path fill="none" stroke="rgb(0,0,0)" class="dcg-svg-minor-gridline" paint-order="fill stroke markers" d=" M 522.5 0 L 522.5 400" stroke-opacity="0.12" stroke-miterlimit="10" stroke-dasharray=""/><path fill="none" stroke="rgb(0,0,0)" class="dcg-svg-minor-gridline" paint-order="fill stroke markers" d=" M 539.5 0 L 539.5 400" stroke-opacity="0.12" stroke-miterlimit="10" stroke-dasharray=""/><path fill="none" stroke="rgb(0,0,0)" class="dcg-svg-minor-gridline" paint-order="fill stroke markers" d=" M 556.5 0 L 556.5 400" stroke-opacity="0.12" stroke-miterlimit="10" stroke-dasharray=""/><path fill="none" stroke="rgb(0,0,0)" class="dcg-svg-minor-gridline" paint-order="fill stroke markers" d=" M 573.5 0 L 573.5 400" stroke-opacity="0.12" stroke-miterlimit="10" stroke-dasharray=""/><path fill="none" stroke="rgb(0,0,0)" class="dcg-svg-minor-gridline" paint-order="fill stroke markers" d=" M 590.5 0 L 590.5 400" stroke-opacity="0.12" stroke-miterlimit="10" stroke-dasharray=""/><path fill="none" stroke="rgb(0,0,0)" class="dcg-svg-minor-gridline" paint-order="fill stroke markers" d=" M 0 395.5 L 600 395.5" stroke-opacity="0.12" stroke-miterlimit="10" stroke-dasharray=""/><path fill="none" stroke="rgb(0,0,0)" class="dcg-svg-minor-gridline" paint-order="fill stroke markers" d=" M 0 377.5 L 600 377.5" stroke-opacity="0.12" stroke-miterlimit="10" stroke-dasharray=""/><path fill="none" stroke="rgb(0,0,0)" class="dcg-svg-minor-gridline" paint-order="fill stroke markers" d=" M 0 359.5 L 600 359.5" stroke-opacity="0.12" stroke-miterlimit="10" stroke-dasharray=""/><path fill="none" stroke="rgb(0,0,0)" class="dcg-svg-minor-gridline" paint-order="fill stroke markers" d=" M 0 341.5 L 600 341.5" stroke-opacity="0.12" stroke-miterlimit="10" stroke-dasharray=""/><path fill="none" stroke="rgb(0,0,0)" class="dcg-svg-minor-gridline" paint-order="fill stroke markers" d=" M 0 323.5 L 600 323.5" stroke-opacity="0.12" stroke-miterlimit="10" stroke-dasharray=""/><path fill="none" stroke="rgb(0,0,0)" class="dcg-svg-minor-gridline" paint-order="fill stroke markers" d=" M 0 306.5 L 600 306.5" stroke-opacity="0.12" stroke-miterlimit="10" stroke-dasharray=""/><path fill="none" stroke="rgb(0,0,0)" class="dcg-svg-minor-gridline" paint-order="fill stroke markers" d=" M 0 288.5 L 600 288.5" stroke-opacity="0.12" stroke-miterlimit="10" stroke-dasharray=""/><path fill="none" stroke="rgb(0,0,0)" class="dcg-svg-minor-gridline" paint-order="fill stroke markers" d=" M 0 270.5 L 600 270.5" stroke-opacity="0.12" stroke-miterlimit="10" stroke-dasharray=""/><path fill="none" stroke="rgb(0,0,0)" class="dcg-svg-minor-gridline" paint-order="fill stroke markers" d=" M 0 252.5 L 600 252.5" stroke-opacity="0.12" stroke-miterlimit="10" stroke-dasharray=""/><path fill="none" stroke="rgb(0,0,0)" class="dcg-svg-minor-gridline" paint-order="fill stroke markers" d=" M 0 235.5 L 600 235.5" stroke-opacity="0.12" stroke-miterlimit="10" stroke-dasharray=""/><path fill="none" stroke="rgb(0,0,0)" class="dcg-svg-minor-gridline" paint-order="fill stroke markers" d=" M 0 217.5 L 600 217.5" stroke-opacity="0.12" stroke-miterlimit="10" stroke-dasharray=""/><path fill="none" stroke="rgb(0,0,0)" class="dcg-svg-minor-gridline" paint-order="fill stroke markers" d=" M 0 181.5 L 600 181.5" stroke-opacity="0.12" stroke-miterlimit="10" stroke-dasharray=""/><path fill="none" stroke="rgb(0,0,0)" class="dcg-svg-minor-gridline" paint-order="fill stroke markers" d=" M 0 163.5 L 600 163.5" stroke-opacity="0.12" stroke-miterlimit="10" stroke-dasharray=""/><path fill="none" stroke="rgb(0,0,0)" class="dcg-svg-minor-gridline" paint-order="fill stroke markers" d=" M 0 146.5 L 600 146.5" stroke-opacity="0.12" stroke-miterlimit="10" stroke-dasharray=""/><path fill="none" stroke="rgb(0,0,0)" class="dcg-svg-minor-gridline" paint-order="fill stroke markers" d=" M 0 128.5 L 600 128.5" stroke-opacity="0.12" stroke-miterlimit="10" stroke-dasharray=""/><path fill="none" stroke="rgb(0,0,0)" class="dcg-svg-minor-gridline" paint-order="fill stroke markers" d=" M 0 110.5 L 600 110.5" stroke-opacity="0.12" stroke-miterlimit="10" stroke-dasharray=""/><path fill="none" stroke="rgb(0,0,0)" class="dcg-svg-minor-gridline" paint-order="fill stroke markers" d=" M 0 92.5 L 600 92.5" stroke-opacity="0.12" stroke-miterlimit="10" stroke-dasharray=""/><path fill="none" stroke="rgb(0,0,0)" class="dcg-svg-minor-gridline" paint-order="fill stroke markers" d=" M 0 75.5 L 600 75.5" stroke-opacity="0.12" stroke-miterlimit="10" stroke-dasharray=""/><path fill="none" stroke="rgb(0,0,0)" class="dcg-svg-minor-gridline" paint-order="fill stroke markers" d=" M 0 57.5 L 600 57.5" stroke-opacity="0.12" stroke-miterlimit="10" stroke-dasharray=""/><path fill="none" stroke="rgb(0,0,0)" class="dcg-svg-minor-gridline" paint-order="fill stroke markers" d=" M 0 39.5 L 600 39.5" stroke-opacity="0.12" stroke-miterlimit="10" stroke-dasharray=""/><path fill="none" stroke="rgb(0,0,0)" class="dcg-svg-minor-gridline" paint-order="fill stroke markers" d=" M 0 21.5 L 600 21.5" stroke-opacity="0.12" stroke-miterlimit="10" stroke-dasharray=""/><path fill="none" stroke="rgb(0,0,0)" class="dcg-svg-minor-gridline" paint-order="fill stroke markers" d=" M 0 3.5 L 600 3.5" stroke-opacity="0.12" stroke-miterlimit="10" stroke-dasharray=""/><path fill="none" stroke="rgb(0,0,0)" class="dcg-svg-major-gridline" paint-order="fill stroke markers" d=" M 128.5 0 L 128.5 400" stroke-opacity="0.31818181818181823" stroke-miterlimit="10" stroke-dasharray=""/><path fill="none" stroke="rgb(0,0,0)" class="dcg-svg-major-gridline" paint-order="fill stroke markers" d=" M 213.5 0 L 213.5 400" stroke-opacity="0.31818181818181823" stroke-miterlimit="10" stroke-dasharray=""/><path fill="none" stroke="rgb(0,0,0)" class="dcg-svg-major-gridline" paint-order="fill stroke markers" d=" M 299.5 0 L 299.5 400" stroke-opacity="0.31818181818181823" stroke-miterlimit="10" stroke-dasharray=""/><path fill="none" stroke="rgb(0,0,0)" class="dcg-svg-major-gridline" paint-order="fill stroke markers" d=" M 385.5 0 L 385.5 400" stroke-opacity="0.31818181818181823" stroke-miterlimit="10" stroke-dasharray=""/><path fill="none" stroke="rgb(0,0,0)" class="dcg-svg-major-gridline" paint-order="fill stroke markers" d=" M 470.5 0 L 470.5 400" stroke-opacity="0.31818181818181823" stroke-miterlimit="10" stroke-dasharray=""/><path fill="none" stroke="rgb(0,0,0)" class="dcg-svg-major-gridline" paint-order="fill stroke markers" d=" M 556.5 0 L 556.5 400" stroke-opacity="0.31818181818181823" stroke-miterlimit="10" stroke-dasharray=""/><path fill="none" stroke="rgb(0,0,0)" class="dcg-svg-major-gridline" paint-order="fill stroke markers" d=" M 0 377.5 L 600 377.5" stroke-opacity="0.31818181818181823" stroke-miterlimit="10" stroke-dasharray=""/><path fill="none" stroke="rgb(0,0,0)" class="dcg-svg-major-gridline" paint-order="fill stroke markers" d=" M 0 288.5 L 600 288.5" stroke-opacity="0.31818181818181823" stroke-miterlimit="10" stroke-dasharray=""/><path fill="none" stroke="rgb(0,0,0)" class="dcg-svg-major-gridline" paint-order="fill stroke markers" d=" M 0 110.5 L 600 110.5" stroke-opacity="0.31818181818181823" stroke-miterlimit="10" stroke-dasharray=""/><path fill="none" stroke="rgb(0,0,0)" class="dcg-svg-major-gridline" paint-order="fill stroke markers" d=" M 0 21.5 L 600 21.5" stroke-opacity="0.31818181818181823" stroke-miterlimit="10" stroke-dasharray=""/></g></g><g id="axis-90479e12"><g id="yaxis-90479e12"><title>Y axis</title><path fill="none" stroke="rgb(0,0,0)" class="dcg-svg-axis-line" paint-order="fill stroke markers" d=" M 42.75 0 L 42.75 400" stroke-opacity="0.9" stroke-miterlimit="10" stroke-width="1.5" stroke-dasharray=""/></g><g id="xaxis-90479e12"><title>X axis</title><path fill="none" stroke="rgb(0,0,0)" class="dcg-svg-axis-line" paint-order="fill stroke markers" d=" M 0 199.75 L 600 199.75" stroke-opacity="0.9" stroke-miterlimit="10" stroke-width="1.5" stroke-dasharray=""/></g><g><g class="dcg-svg-axis-value"><text fill="none" stroke="#ffffff" font-family="Arial" font-size="14px" font-style="normal" font-weight="normal" text-decoration="normal" x="33.964076450892854" y="215.808" text-anchor="middle" stroke-miterlimit="2" stroke-width="3" stroke-dasharray="">0</text><text fill="#000000" stroke="none" font-family="Arial" font-size="14px" font-style="normal" font-weight="normal" text-decoration="normal" x="33.964076450892854" y="215.808" text-anchor="middle">0</text></g><g class="dcg-svg-axis-value"><text fill="none" stroke="#ffffff" font-family="Arial" font-size="14px" font-style="normal" font-weight="normal" text-decoration="normal" x="128.57142857142856" y="215.808" text-anchor="middle" stroke-miterlimit="2" stroke-width="3" stroke-dasharray="">1</text><text fill="#000000" stroke="none" font-family="Arial" font-size="14px" font-style="normal" font-weight="normal" text-decoration="normal" x="128.57142857142856" y="215.808" text-anchor="middle">1</text></g><g class="dcg-svg-axis-value"><text fill="none" stroke="#ffffff" font-family="Arial" font-size="14px" font-style="normal" font-weight="normal" text-decoration="normal" x="214.28571428571428" y="215.808" text-anchor="middle" stroke-miterlimit="2" stroke-width="3" stroke-dasharray="">2</text><text fill="#000000" stroke="none" font-family="Arial" font-size="14px" font-style="normal" font-weight="normal" text-decoration="normal" x="214.28571428571428" y="215.808" text-anchor="middle">2</text></g><g class="dcg-svg-axis-value"><text fill="none" stroke="#ffffff" font-family="Arial" font-size="14px" font-style="normal" font-weight="normal" text-decoration="normal" x="299.99999999999994" y="215.808" text-anchor="middle" stroke-miterlimit="2" stroke-width="3" stroke-dasharray="">3</text><text fill="#000000" stroke="none" font-family="Arial" font-size="14px" font-style="normal" font-weight="normal" text-decoration="normal" x="299.99999999999994" y="215.808" text-anchor="middle">3</text></g><g class="dcg-svg-axis-value"><text fill="none" stroke="#ffffff" font-family="Arial" font-size="14px" font-style="normal" font-weight="normal" text-decoration="normal" x="385.71428571428567" y="215.808" text-anchor="middle" stroke-miterlimit="2" stroke-width="3" stroke-dasharray="">4</text><text fill="#000000" stroke="none" font-family="Arial" font-size="14px" font-style="normal" font-weight="normal" text-decoration="normal" x="385.71428571428567" y="215.808" text-anchor="middle">4</text></g><g class="dcg-svg-axis-value"><text fill="none" stroke="#ffffff" font-family="Arial" font-size="14px" font-style="normal" font-weight="normal" text-decoration="normal" x="471.4285714285714" y="215.808" text-anchor="middle" stroke-miterlimit="2" stroke-width="3" stroke-dasharray="">5</text><text fill="#000000" stroke="none" font-family="Arial" font-size="14px" font-style="normal" font-weight="normal" text-decoration="normal" x="471.4285714285714" y="215.808" text-anchor="middle">5</text></g><g class="dcg-svg-axis-value"><text fill="none" stroke="#ffffff" font-family="Arial" font-size="14px" font-style="normal" font-weight="normal" text-decoration="normal" x="557.1428571428571" y="215.808" text-anchor="middle" stroke-miterlimit="2" stroke-width="3" stroke-dasharray="">6</text><text fill="#000000" stroke="none" font-family="Arial" font-size="14px" font-style="normal" font-weight="normal" text-decoration="normal" x="557.1428571428571" y="215.808" text-anchor="middle">6</text></g><g class="dcg-svg-axis-value"><text fill="none" stroke="#ffffff" font-family="Arial" font-size="14px" font-style="normal" font-weight="normal" text-decoration="normal" x="31.633021763392854" y="381.58577777777776" text-anchor="middle" stroke-miterlimit="2" stroke-width="3" stroke-dasharray="">-2</text><text fill="#000000" stroke="none" font-family="Arial" font-size="14px" font-style="normal" font-weight="normal" text-decoration="normal" x="31.633021763392854" y="381.58577777777776" text-anchor="middle">-2</text></g><g class="dcg-svg-axis-value"><text fill="none" stroke="#ffffff" font-family="Arial" font-size="14px" font-style="normal" font-weight="normal" text-decoration="normal" x="31.633021763392854" y="292.6968888888889" text-anchor="middle" stroke-miterlimit="2" stroke-width="3" stroke-dasharray="">-1</text><text fill="#000000" stroke="none" font-family="Arial" font-size="14px" font-style="normal" font-weight="normal" text-decoration="normal" x="31.633021763392854" y="292.6968888888889" text-anchor="middle">-1</text></g><g class="dcg-svg-axis-value"><text fill="none" stroke="#ffffff" font-family="Arial" font-size="14px" font-style="normal" font-weight="normal" text-decoration="normal" x="33.964076450892854" y="114.91911111111112" text-anchor="middle" stroke-miterlimit="2" stroke-width="3" stroke-dasharray="">1</text><text fill="#000000" stroke="none" font-family="Arial" font-size="14px" font-style="normal" font-weight="normal" text-decoration="normal" x="33.964076450892854" y="114.91911111111112" text-anchor="middle">1</text></g><g class="dcg-svg-axis-value"><text fill="none" stroke="#ffffff" font-family="Arial" font-size="14px" font-style="normal" font-weight="normal" text-decoration="normal" x="33.964076450892854" y="26.03022222222223" text-anchor="middle" stroke-miterlimit="2" stroke-width="3" stroke-dasharray="">2</text><text fill="#000000" stroke="none" font-family="Arial" font-size="14px" font-style="normal" font-weight="normal" text-decoration="normal" x="33.964076450892854" y="26.03022222222223" text-anchor="middle">2</text></g></g></g></g><g id="expressions-90479e12"><g id="sketch-90479e12"><title>Expression 1</title><path fill="#2d70b3" stroke="none" paint-order="stroke fill markers" d="" fill-opacity="0.4"/><g><path fill="none" stroke="#2d70b3" class="dcg-svg-curve" paint-order="fill stroke markers" d=" M 128.07142857142856 101.8065313372179 L 128.07142857142856 101.8065313372179 L 131.88002232142856 107.8079857851788 L 135.68861607142856 113.16342764972933 L 139.49720982142856 117.8920786052467 L 143.30580357142856 122.0133057311927 L 146.82142857142856 125.29529057468733 L 150.19056919642856 127.98489175810954 L 153.41322544642856 130.1532718933894 L 156.48939732142856 131.86586365438063 L 159.56556919642856 133.240671914134 L 162.49525669642856 134.246232880303 L 165.42494419642856 134.96553364301235 L 168.35463169642856 135.40882980284357 L 171.28431919642856 135.58674740433725 L 174.21400669642856 135.5103578156245 L 177.29017857142856 135.16915717985 L 180.51283482142856 134.54019753684088 L 183.88197544642856 133.60424937094774 L 187.39760044642856 132.34714556880243 L 191.20619419642856 130.6926808140517 L 195.45424107142856 128.53354642752834 L 200.43470982142856 125.65855077724689 L 206.88002232142856 121.56339743128507 L 219.91713169642856 113.19754170156989 L 224.31166294642856 110.79755923607809 L 227.82728794642856 109.19775975147081 L 230.90345982142856 108.10170249106847 L 233.68666294642856 107.40296483126951 L 236.17689732142856 107.04755610452975 L 238.52064732142856 106.9708211720411 L 240.86439732142856 107.16463779711825 L 243.06166294642856 107.60743232348528 L 245.25892857142856 108.31447153805607 L 247.60267857142856 109.36870276591566 L 249.94642857142856 110.73714243585204 L 252.43666294642856 112.53421905969395 L 255.21986607142856 114.95033015481437 L 258.29603794642856 118.09333857194486 L 261.81166294642856 122.23165844027898 L 265.91322544642856 127.67031783846414 L 271.18666294642856 135.33792273665898 L 287.59291294642856 159.67695575335696 L 292.42689732142856 165.95494707589614 L 296.96791294642856 171.24357137997362 L 301.21595982142856 175.6259874807434 L 305.31752232142856 179.3424571918627 L 309.27260044642856 182.46854512118753 L 313.22767857142856 185.17684282082234 L 317.18275669642856 187.50460586443015 L 321.13783482142856 189.49164620223738 L 325.23939732142856 191.2350030528625 L 329.63392857142856 192.79211067125573 L 334.32142857142856 194.15174451946405 L 339.30189732142856 195.31267886625884 L 344.86830357142856 196.32934542952907 L 351.02064732142856 197.18106358402505 L 358.19838169642856 197.90146362109138 L 366.69447544642856 198.48100948424783 L 377.24135044642856 198.9265241700397 L 391.30385044642856 199.24179918341588 L 412.39760044642856 199.428887986868 L 428.07142857142856 199.47581862227247" stroke-linecap="round" stroke-linejoin="round" stroke-miterlimit="10" stroke-width="2.5" stroke-opacity="0.9" stroke-dasharray=""/></g></g><g id="sketch-90479e12"><title>Expression 6</title><path fill="#2d70b3" stroke="none" class="dcg-svg-region" paint-order="stroke fill markers" d=" M 128.07142857142856 101.8065313372179 L 131.88002232142856 107.8079857851788 L 135.68861607142856 113.16342764972933 L 139.49720982142856 117.8920786052467 L 143.30580357142856 122.0133057311927 L 146.82142857142856 125.29529057468733 L 150.19056919642856 127.98489175810954 L 153.41322544642856 130.1532718933894 L 156.48939732142856 131.86586365438063 L 159.56556919642856 133.240671914134 L 162.49525669642856 134.246232880303 L 165.42494419642856 134.96553364301235 L 168.35463169642856 135.40882980284357 L 171.28431919642856 135.58674740433725 L 174.21400669642856 135.5103578156245 L 177.29017857142856 135.16915717985 L 180.51283482142856 134.54019753684088 L 183.88197544642856 133.60424937094774 L 187.39760044642856 132.34714556880243 L 191.20619419642856 130.6926808140517 L 195.45424107142856 128.53354642752834 L 200.43470982142856 125.65855077724689 L 206.88002232142856 121.56339743128507 L 219.91713169642856 113.19754170156989 L 224.31166294642856 110.79755923607809 L 227.82728794642856 109.19775975147081 L 230.90345982142856 108.10170249106847 L 233.68666294642856 107.40296483126951 L 236.17689732142856 107.04755610452975 L 238.52064732142856 106.9708211720411 L 240.86439732142856 107.16463779711825 L 243.06166294642856 107.60743232348528 L 245.25892857142856 108.31447153805607 L 247.60267857142856 109.36870276591566 L 249.94642857142856 110.73714243585204 L 252.43666294642856 112.53421905969395 L 255.21986607142856 114.95033015481437 L 258.29603794642856 118.09333857194486 L 261.81166294642856 122.23165844027898 L 265.91322544642856 127.67031783846414 L 271.18666294642856 135.33792273665898 L 287.59291294642856 159.67695575335696 L 292.42689732142856 165.95494707589614 L 296.96791294642856 171.24357137997362 L 301.21595982142856 175.6259874807434 L 305.31752232142856 179.3424571918627 L 309.27260044642856 182.46854512118753 L 313.22767857142856 185.17684282082234 L 317.18275669642856 187.50460586443015 L 321.13783482142856 189.49164620223738 L 325.23939732142856 191.2350030528625 L 329.63392857142856 192.79211067125573 L 334.32142857142856 194.15174451946405 L 339.30189732142856 195.31267886625884 L 344.86830357142856 196.32934542952907 L 351.02064732142856 197.18106358402505 L 358.19838169642856 197.90146362109138 L 366.69447544642856 198.48100948424783 L 377.24135044642856 198.9265241700397 L 391.30385044642856 199.24179918341588 L 412.39760044642856 199.428887986868 L 428.07142857142856 199.47581862227247 L 428.07142857142856 399.5 L 128.07142857142856 399.5 L 128.07142857142856 101.8065313372179" fill-opacity="0.4"/><path fill="#2d70b3" stroke="none" paint-order="stroke fill markers" d="" fill-opacity="0.4"/><path fill="#2d70b3" stroke="none" paint-order="stroke fill markers" d="" fill-opacity="0.4"/><path fill="#2d70b3" stroke="none" paint-order="stroke fill markers" d="" fill-opacity="0.4"/><path fill="#2d70b3" stroke="none" paint-order="stroke fill markers" d="" fill-opacity="0.4"/><g><path fill="none" stroke="#2d70b3" class="dcg-svg-curve" paint-order="fill stroke markers" d=" M 128.07142857142856 101.8065313372179 L 131.88002232142856 107.8079857851788 M 131.88002232142856 107.8079857851788 L 134.13567236646722 110.97976084860618 M 138.39869874882464 116.5281958248596 L 139.49720982142856 117.8920786052467 M 139.49720982142856 117.8920786052467 L 143.30580357142856 122.0133057311927 M 143.30580357142856 122.0133057311927 L 145.96448865048853 124.49530086238562 M 151.4488864431523 128.83155671707803 L 153.41322544642856 130.1532718933894 M 153.41322544642856 130.1532718933894 L 156.48939732142856 131.86586365438063 M 156.48939732142856 131.86586365438063 L 159.56556919642856 133.240671914134 M 159.56556919642856 133.240671914134 L 161.21342132308087 133.80626663254003 M 168.0234299711456 135.35871508823752 L 168.35463169642856 135.40882980284357 M 168.35463169642856 135.40882980284357 L 171.28431919642856 135.58674740433725 M 171.28431919642856 135.58674740433725 L 174.21400669642856 135.5103578156245 M 174.21400669642856 135.5103578156245 L 177.29017857142856 135.16915717985 M 177.29017857142856 135.16915717985 L 178.9628434409222 134.84270638349508 M 185.69367231396023 132.9564297028919 L 187.39760044642856 132.34714556880243 M 187.39760044642856 132.34714556880243 L 191.20619419642856 130.6926808140517 M 191.20619419642856 130.6926808140517 L 195.45424107142856 128.53354642752834 M 195.45424107142856 128.53354642752834 L 195.6904357328822 128.3972021076691 M 201.71935137949632 124.84232903859841 L 206.88002232142856 121.56339743128507 M 206.88002232142856 121.56339743128507 L 210.99199060255944 118.9247654757174 M 216.88335066882846 115.14430563998698 L 219.91713169642856 113.19754170156989 M 219.91713169642856 113.19754170156989 L 224.31166294642856 110.79755923607809 M 224.31166294642856 110.79755923607809 L 226.4853317647652 109.80842238124237 M 233.0954647977824 107.55138820976887 L 233.68666294642856 107.40296483126951 M 233.68666294642856 107.40296483126951 L 236.17689732142856 107.04755610452975 M 236.17689732142856 107.04755610452975 L 238.52064732142856 106.9708211720411 M 238.52064732142856 106.9708211720411 L 240.86439732142856 107.16463779711825 M 240.86439732142856 107.16463779711825 L 243.06166294642856 107.60743232348528 M 243.06166294642856 107.60743232348528 L 243.9534247941117 107.89438470156661 M 250.2258955274104 110.93881965096605 L 252.43666294642856 112.53421905969395 M 252.43666294642856 112.53421905969395 L 255.21986607142856 114.95033015481437 M 255.21986607142856 114.95033015481437 L 258.29603794642856 118.09333857194486 M 258.29603794642856 118.09333857194486 L 258.41917098002784 118.2382811865275 M 262.8714792992868 123.63697170024341 L 265.91322544642856 127.67031783846414 M 265.91322544642856 127.67031783846414 L 269.28393513952045 132.5713468452826 M 273.22249031905073 138.3581174574848 L 279.3708726773479 147.47937802695546 M 283.2834796326279 153.28381657116407 L 287.59291294642856 159.67695575335696 M 287.59291294642856 159.67695575335696 L 289.6001288691146 162.28376685730996 M 293.9686224164662 167.75049359701654 L 296.96791294642856 171.24357137997362 M 296.96791294642856 171.24357137997362 L 301.21595982142856 175.6259874807434 M 301.21595982142856 175.6259874807434 L 301.43274689486856 175.82242056988977 M 306.69645820614033 180.4323660857636 L 309.27260044642856 182.46854512118753 M 309.27260044642856 182.46854512118753 L 313.22767857142856 185.17684282082234 M 313.22767857142856 185.17684282082234 L 315.7466238512908 186.65936922005335 M 321.97295372036666 189.84661098786486 L 325.23939732142856 191.2350030528625 M 325.23939732142856 191.2350030528625 L 329.63392857142856 192.79211067125573 M 329.63392857142856 192.79211067125573 L 332.31203953494713 193.56891073851068 M 339.1010868728281 195.265870471572 L 339.30189732142856 195.31267886625884 M 339.30189732142856 195.31267886625884 L 344.86830357142856 196.32934542952907 M 344.86830357142856 196.32934542952907 L 349.9551083853705 197.0335525064519 M 356.9153311461699 197.7726890502207 L 358.19838169642856 197.90146362109138 M 358.19838169642856 197.90146362109138 L 366.69447544642856 198.48100948424783 M 366.69447544642856 198.48100948424783 L 367.88807722741245 198.53142888548427 M 374.8818403992959 198.82685518019474 L 377.24135044642856 198.9265241700397 M 377.24135044642856 198.9265241700397 L 385.8775660930476 199.12014429473356 M 392.87614069823354 199.25574444691287 L 403.8757080598244 199.35330395606468 M 410.8754327444731 199.41538728007038 L 412.39760044642856 199.428887986868 M 412.39760044642856 199.428887986868 L 421.87533038905525 199.4572662416793" stroke-linecap="round" stroke-linejoin="round" stroke-miterlimit="10" stroke-width="2.5" stroke-opacity="0.9" stroke-dasharray=""/></g></g></g><g id="labels-90479e12"/></g></svg>