<svg version="1.1" xmlns="http://www.w3.org/2000/svg" xmlns:xlink="http://www.w3.org/1999/xlink" width="600" height="400"><defs/><g transform="scale(1,1)"><g id="background-fc4aba7b"><rect fill="white" stroke="none" x="0" y="0" width="600" height="400" class="dcg-svg-background"/></g><g id="background-images-fc4aba7b"/><g id="graphpaper-fc4aba7b"><g id="grid-fc4aba7b"><g><path fill="none" stroke="rgb(0,0,0)" class="dcg-svg-minor-gridline" paint-order="fill stroke markers" d=" M -0.5 0 L -0.5 400" stroke-opacity="0.12" stroke-miterlimit="10" stroke-dasharray=""/><path fill="none" stroke="rgb(0,0,0)" class="dcg-svg-minor-gridline" paint-order="fill stroke markers" d=" M 32.5 0 L 32.5 400" stroke-opacity="0.12" stroke-miterlimit="10" stroke-dasharray=""/><path fill="none" stroke="rgb(0,0,0)" class="dcg-svg-minor-gridline" paint-order="fill stroke markers" d=" M 66.5 0 L 66.5 400" stroke-opacity="0.12" stroke-miterlimit="10" stroke-dasharray=""/><path fill="none" stroke="rgb(0,0,0)" class="dcg-svg-minor-gridline" paint-order="fill stroke markers" d=" M 132.5 0 L 132.5 400" stroke-opacity="0.12" stroke-miterlimit="10" stroke-dasharray=""/><path fill="none" stroke="rgb(0,0,0)" class="dcg-svg-minor-gridline" paint-order="fill stroke markers" d=" M 166.5 0 L 166.5 400" stroke-opacity="0.12" stroke-miterlimit="10" stroke-dasharray=""/><path fill="none" stroke="rgb(0,0,0)" class="dcg-svg-minor-gridline" paint-order="fill stroke markers" d=" M 199.5 0 L 199.5 400" stroke-opacity="0.12" stroke-miterlimit="10" stroke-dasharray=""/><path fill="none" stroke="rgb(0,0,0)" class="dcg-svg-minor-gridline" paint-order="fill stroke markers" d=" M 232.5 0 L 232.5 400" stroke-opacity="0.12" stroke-miterlimit="10" stroke-dasharray=""/><path fill="none" stroke="rgb(0,0,0)" class="dcg-svg-minor-gridline" paint-order="fill stroke markers" d=" M 266.5 0 L 266.5 400" stroke-opacity="0.12" stroke-miterlimit="10" stroke-dasharray=""/><path fill="none" stroke="rgb(0,0,0)" class="dcg-svg-minor-gridline" paint-order="fill stroke markers" d=" M 299.5 0 L 299.5 400" stroke-opacity="0.12" stroke-miterlimit="10" stroke-dasharray=""/><path fill="none" stroke="rgb(0,0,0)" class="dcg-svg-minor-gridline" paint-order="fill stroke markers" d=" M 332.5 0 L 332.5 400" stroke-opacity="0.12" stroke-miterlimit="10" stroke-dasharray=""/><path fill="none" stroke="rgb(0,0,0)" class="dcg-svg-minor-gridline" paint-order="fill stroke markers" d=" M 366.5 0 L 366.5 400" stroke-opacity="0.12" stroke-miterlimit="10" stroke-dasharray=""/><path fill="none" stroke="rgb(0,0,0)" class="dcg-svg-minor-gridline" paint-order="fill stroke markers" d=" M 399.5 0 L 399.5 400" stroke-opacity="0.12" stroke-miterlimit="10" stroke-dasharray=""/><path fill="none" stroke="rgb(0,0,0)" class="dcg-svg-minor-gridline" paint-order="fill stroke markers" d=" M 432.5 0 L 432.5 400" stroke-opacity="0.12" stroke-miterlimit="10" stroke-dasharray=""/><path fill="none" stroke="rgb(0,0,0)" class="dcg-svg-minor-gridline" paint-order="fill stroke markers" d=" M 466.5 0 L 466.5 400" stroke-opacity="0.12" stroke-miterlimit="10" stroke-dasharray=""/><path fill="none" stroke="rgb(0,0,0)" class="dcg-svg-minor-gridline" paint-order="fill stroke markers" d=" M 499.5 0 L 499.5 400" stroke-opacity="0.12" stroke-miterlimit="10" stroke-dasharray=""/><path fill="none" stroke="rgb(0,0,0)" class="dcg-svg-minor-gridline" paint-order="fill stroke markers" d=" M 532.5 0 L 532.5 400" stroke-opacity="0.12" stroke-miterlimit="10" stroke-dasharray=""/><path fill="none" stroke="rgb(0,0,0)" class="dcg-svg-minor-gridline" paint-order="fill stroke markers" d=" M 566.5 0 L 566.5 400" stroke-opacity="0.12" stroke-miterlimit="10" stroke-dasharray=""/><path fill="none" stroke="rgb(0,0,0)" class="dcg-svg-minor-gridline" paint-order="fill stroke markers" d=" M 0 374.5 L 600 374.5" stroke-opacity="0.12" stroke-miterlimit="10" stroke-dasharray=""/><path fill="none" stroke="rgb(0,0,0)" class="dcg-svg-minor-gridline" paint-order="fill stroke markers" d=" M 0 349.5 L 600 349.5" stroke-opacity="0.12" stroke-miterlimit="10" stroke-dasharray=""/><path fill="none" stroke="rgb(0,0,0)" class="dcg-svg-minor-gridline" paint-order="fill stroke markers" d=" M 0 324.5 L 600 324.5" stroke-opacity="0.12" stroke-miterlimit="10" stroke-dasharray=""/><path fill="none" stroke="rgb(0,0,0)" class="dcg-svg-minor-gridline" paint-order="fill stroke markers" d=" M 0 299.5 L 600 299.5" stroke-opacity="0.12" stroke-miterlimit="10" stroke-dasharray=""/><path fill="none" stroke="rgb(0,0,0)" class="dcg-svg-minor-gridline" paint-order="fill stroke markers" d=" M 0 274.5 L 600 274.5" stroke-opacity="0.12" stroke-miterlimit="10" stroke-dasharray=""/><path fill="none" stroke="rgb(0,0,0)" class="dcg-svg-minor-gridline" paint-order="fill stroke markers" d=" M 0 249.5 L 600 249.5" stroke-opacity="0.12" stroke-miterlimit="10" stroke-dasharray=""/><path fill="none" stroke="rgb(0,0,0)" class="dcg-svg-minor-gridline" paint-order="fill stroke markers" d=" M 0 224.5 L 600 224.5" stroke-opacity="0.12" stroke-miterlimit="10" stroke-dasharray=""/><path fill="none" stroke="rgb(0,0,0)" class="dcg-svg-minor-gridline" paint-order="fill stroke markers" d=" M 0 174.5 L 600 174.5" stroke-opacity="0.12" stroke-miterlimit="10" stroke-dasharray=""/><path fill="none" stroke="rgb(0,0,0)" class="dcg-svg-minor-gridline" paint-order="fill stroke markers" d=" M 0 149.5 L 600 149.5" stroke-opacity="0.12" stroke-miterlimit="10" stroke-dasharray=""/><path fill="none" stroke="rgb(0,0,0)" class="dcg-svg-minor-gridline" paint-order="fill stroke markers" d=" M 0 124.5 L 600 124.5" stroke-opacity="0.12" stroke-miterlimit="10" stroke-dasharray=""/><path fill="none" stroke="rgb(0,0,0)" class="dcg-svg-minor-gridline" paint-order="fill stroke markers" d=" M 0 99.5 L 600 99.5" stroke-opacity="0.12" stroke-miterlimit="10" stroke-dasharray=""/><path fill="none" stroke="rgb(0,0,0)" class="dcg-svg-minor-gridline" paint-order="fill stroke markers" d=" M 0 74.5 L 600 74.5" stroke-opacity="0.12" stroke-miterlimit="10" stroke-dasharray=""/><path fill="none" stroke="rgb(0,0,0)" class="dcg-svg-minor-gridline" paint-order="fill stroke markers" d=" M 0 49.5 L 600 49.5" stroke-opacity="0.12" stroke-miterlimit="10" stroke-dasharray=""/><path fill="none" stroke="rgb(0,0,0)" class="dcg-svg-minor-gridline" paint-order="fill stroke markers" d=" M 0 24.5 L 600 24.5" stroke-opacity="0.12" stroke-miterlimit="10" stroke-dasharray=""/><path fill="none" stroke="rgb(0,0,0)" class="dcg-svg-minor-gridline" paint-order="fill stroke markers" d=" M 0 -0.5 L 600 -0.5" stroke-opacity="0.12" stroke-miterlimit="10" stroke-dasharray=""/><path fill="none" stroke="rgb(0,0,0)" class="dcg-svg-major-gridline" paint-order="fill stroke markers" d=" M 232.5 0 L 232.5 400" stroke-opacity="0.31818181818181823" stroke-miterlimit="10" stroke-dasharray=""/><path fill="none" stroke="rgb(0,0,0)" class="dcg-svg-major-gridline" paint-order="fill stroke markers" d=" M 366.5 0 L 366.5 400" stroke-opacity="0.31818181818181823" stroke-miterlimit="10" stroke-dasharray=""/><path fill="none" stroke="rgb(0,0,0)" class="dcg-svg-major-gridline" paint-order="fill stroke markers" d=" M 499.5 0 L 499.5 400" stroke-opacity="0.31818181818181823" stroke-miterlimit="10" stroke-dasharray=""/><path fill="none" stroke="rgb(0,0,0)" class="dcg-svg-major-gridline" paint-order="fill stroke markers" d=" M 0 299.5 L 600 299.5" stroke-opacity="0.31818181818181823" stroke-miterlimit="10" stroke-dasharray=""/><path fill="none" stroke="rgb(0,0,0)" class="dcg-svg-major-gridline" paint-order="fill stroke markers" d=" M 0 99.5 L 600 99.5" stroke-opacity="0.31818181818181823" stroke-miterlimit="10" stroke-dasharray=""/><path fill="none" stroke="rgb(0,0,0)" class="dcg-svg-major-gridline" paint-order="fill stroke markers" d=" M 0 -0.5 L 600 -0.5" stroke-opacity="0.31818181818181823" stroke-miterlimit="10" stroke-dasharray=""/></g></g><g id="axis-fc4aba7b"><g id="yaxis-fc4aba7b"><title>Y axis</title><path fill="none" stroke="rgb(0,0,0)" class="dcg-svg-axis-line" paint-order="fill stroke markers" d=" M 99.75 0 L 99.75 400" stroke-opacity="0.9" stroke-miterlimit="10" stroke-width="1.5" stroke-dasharray=""/></g><g id="xaxis-fc4aba7b"><title>X axis</title><path fill="none" stroke="rgb(0,0,0)" class="dcg-svg-axis-line" paint-order="fill stroke markers" d=" M 0 199.75 L 600 199.75" stroke-opacity="0.9" stroke-miterlimit="10" stroke-width="1.5" stroke-dasharray=""/></g><g><g class="dcg-svg-axis-value"><text fill="none" stroke="#ffffff" font-family="Arial" font-size="14px" font-style="normal" font-weight="normal" text-decoration="normal" x="91.10693359375" y="215.808" text-anchor="middle" stroke-miterlimit="2" stroke-width="3" stroke-dasharray="">0</text><text fill="#000000" stroke="none" font-family="Arial" font-size="14px" font-style="normal" font-weight="normal" text-decoration="normal" x="91.10693359375" y="215.808" text-anchor="middle">0</text></g><g class="dcg-svg-axis-value"><text fill="none" stroke="#ffffff" font-family="Arial" font-size="14px" font-style="normal" font-weight="normal" text-decoration="normal" x="233.33333333333334" y="215.808" text-anchor="middle" stroke-miterlimit="2" stroke-width="3" stroke-dasharray="">2</text><text fill="#000000" stroke="none" font-family="Arial" font-size="14px" font-style="normal" font-weight="normal" text-decoration="normal" x="233.33333333333334" y="215.808" text-anchor="middle">2</text></g><g class="dcg-svg-axis-value"><text fill="none" stroke="#ffffff" font-family="Arial" font-size="14px" font-style="normal" font-weight="normal" text-decoration="normal" x="366.6666666666667" y="215.808" text-anchor="middle" stroke-miterlimit="2" stroke-width="3" stroke-dasharray="">4</text><text fill="#000000" stroke="none" font-family="Arial" font-size="14px" font-style="normal" font-weight="normal" text-decoration="normal" x="366.6666666666667" y="215.808" text-anchor="middle">4</text></g><g class="dcg-svg-axis-value"><text fill="none" stroke="#ffffff" font-family="Arial" font-size="14px" font-style="normal" font-weight="normal" text-decoration="normal" x="500" y="215.808" text-anchor="middle" stroke-miterlimit="2" stroke-width="3" stroke-dasharray="">6</text><text fill="#000000" stroke="none" font-family="Arial" font-size="14px" font-style="normal" font-weight="normal" text-decoration="normal" x="500" y="215.808" text-anchor="middle">6</text></g><g class="dcg-svg-axis-value dcg-svg-offcenter-axis-value"><text fill="none" stroke="#ffffff" font-family="Arial" font-size="14px" font-style="normal" font-weight="normal" text-decoration="normal" x="88.77587890625" y="393.808" text-anchor="middle" stroke-miterlimit="2" stroke-width="3" stroke-dasharray="">-4</text><text fill="#000000" stroke="none" font-family="Arial" font-size="14px" font-style="normal" font-weight="normal" text-decoration="normal" x="88.77587890625" y="393.808" text-anchor="middle">-4</text></g><g class="dcg-svg-axis-value"><text fill="none" stroke="#ffffff" font-family="Arial" font-size="14px" font-style="normal" font-weight="normal" text-decoration="normal" x="88.77587890625" y="303.808" text-anchor="middle" stroke-miterlimit="2" stroke-width="3" stroke-dasharray="">-2</text><text fill="#000000" stroke="none" font-family="Arial" font-size="14px" font-style="normal" font-weight="normal" text-decoration="normal" x="88.77587890625" y="303.808" text-anchor="middle">-2</text></g><g class="dcg-svg-axis-value"><text fill="none" stroke="#ffffff" font-family="Arial" font-size="14px" font-style="normal" font-weight="normal" text-decoration="normal" x="91.10693359375" y="103.808" text-anchor="middle" stroke-miterlimit="2" stroke-width="3" stroke-dasharray="">2</text><text fill="#000000" stroke="none" font-family="Arial" font-size="14px" font-style="normal" font-weight="normal" text-decoration="normal" x="91.10693359375" y="103.808" text-anchor="middle">2</text></g><g class="dcg-svg-axis-value dcg-svg-offcenter-axis-value"><text fill="none" stroke="#ffffff" font-family="Arial" font-size="14px" font-style="normal" font-weight="normal" text-decoration="normal" x="91.10693359375" y="13.808" text-anchor="middle" stroke-miterlimit="2" stroke-width="3" stroke-dasharray="">4</text><text fill="#000000" stroke="none" font-family="Arial" font-size="14px" font-style="normal" font-weight="normal" text-decoration="normal" x="91.10693359375" y="13.808" text-anchor="middle">4</text></g></g></g></g><g id="expressions-fc4aba7b"><g id="sketch-fc4aba7b"><title>Expression 1</title><path fill="#2d70b3" stroke="none" paint-order="stroke fill markers" d="" fill-opacity="0.4"/><g><path fill="none" stroke="#2d70b3" class="dcg-svg-curve" paint-order="fill stroke markers" d=" M 99.5 179.07354924039484 L 99.5 179.07354924039484 L 109.45785924989465 172.7050961452957 L 116.48693636746735 168.6365602150665 L 122.34450063211126 165.64843726532226 L 127.46986936367469 163.40474970015907 L 132.0094816687737 161.74980604610283 L 136.25621576064054 160.51395073925434 L 140.21007163927518 159.65584984098282 L 144.01748841129373 159.112176011517 L 147.67846607669617 158.86322613248785 L 151.19300463548254 158.88609109401813 L 154.70754319426888 159.17281966275658 L 158.22208175305522 159.72916106509163 L 161.73662031184156 160.55935491190664 L 165.397597977244 161.7182530936836 L 169.20501474926255 163.24319962135863 L 173.1588706278972 165.1710914306542 L 177.40560471976403 167.62890969253203 L 181.94521702486304 170.69171052769232 L 186.4848293299621 174.19205740912025 L 191.17088074167722 178.2464508412347 L 196.00337126000846 182.87283318570937 L 201.12873999157188 188.2404513132263 L 206.5469869363675 194.38526835757904 L 212.4045512010114 201.50860094512598 L 218.99431099873578 210.02233947016865 L 226.9020227560051 220.76763781643203 L 238.91002949852512 237.67992457415718 L 252.38242730720611 256.5179228678079 L 259.85082174462707 266.434213065623 L 266.1477033291193 274.2893140381877 L 271.712389380531 280.7328626529718 L 276.69131900547836 286.0261919776456 L 281.37737041719345 290.54436510505303 L 285.7705436156764 294.3279741216528 L 290.0172777075432 297.5335572339577 L 294.11757269279394 300.1771116862441 L 297.9249894648125 302.21137327924464 L 301.4395280235988 303.7126024762834 L 304.66118836915297 304.7589928457006 L 307.7364096080911 305.4544615975209 L 310.665191740413 305.8343526311904 L 313.44753476611885 305.9346793433018 L 316.2298777918247 305.7767518828263 L 319.0122208175306 305.35691843905664 L 321.7945638432364 304.67217405386805 L 324.72334597555835 303.6626324995911 L 327.7985672144965 302.2818208385853 L 331.0202275600506 300.4815055414746 L 334.53476611883696 298.1045313697206 L 338.0493046776233 295.2980955936169 L 341.7102823430257 291.9216455866827 L 345.3712600084282 288.0886808090751 L 349.1786767804468 283.6267904369641 L 353.13253265908133 278.4922761387707 L 357.23282764433213 272.64515847973536 L 361.47956173619895 266.05055607688416 L 366.0191740412979 258.42532386813366 L 370.8516645596292 249.69584090300793 L 375.97703329119264 239.8035349647476 L 381.5417193426044 228.40300016733576 L 387.83860092709654 214.79252687959124 L 395.1605562579014 198.21631896389772 L 404.82553729456384 175.53337466744912 L 424.5948166877371 128.96111060249888 L 431.7703329119259 112.9394740297908 L 437.77433628318585 100.25162052598563 L 443.0461441213654 89.80060083322826 L 447.7321955330805 81.1525749510264 L 452.12536873156347 73.66919777851348 L 456.07922461019814 67.50587440664117 L 459.8866413822166 62.12746742172885 L 463.401179941003 57.68241322668689 L 466.76927939317324 53.91932710360567 L 469.9909397387274 50.79856401640899 L 473.06616097766545 48.27610000456576 L 475.9949431099874 46.30457706298273 L 478.92372524230933 44.76798650512552 L 481.55962916139913 43.768140508104295 L 483.9026548672567 43.191887930661096 L 486.09924146649814 42.92447241503953 L 488.2958280657396 42.925939962759344 L 490.4924146649811 43.20074035875797 L 492.6890012642225 43.75301262592825 L 495.0320269700801 44.65223655877395 L 497.52149178255377 45.963053174812046 L 500.15739570164357 47.75499999598753 L 502.79329962073325 49.96710353814825 L 505.4292035398231 52.60332184184148 L 508.2115465655289 55.849649010184464 L 510.9938895912348 59.574961102791406 L 513.9226717235567 64.01588703563863 L 516.9978929624948 69.25346484124663 L 520.219553308049 75.37152057078504 L 523.4412136536031 82.13333854068111 L 526.8093131057733 89.88668124358213 L 530.3238516645597 98.71581594217497 L 533.984829329962 108.70446238045719 L 537.9386852085968 120.3832631694059 L 542.0389801938475 133.44906936555503 L 546.2857142857143 147.97528721980163 L 550.8253265908133 164.57932333337453 L 555.6578171091446 183.41827755228442 L 560.7831858407079 204.63142736651557 L 562.8333333333334 213.45119257625214" stroke-linecap="round" stroke-linejoin="round" stroke-miterlimit="10" stroke-width="2.5" stroke-opacity="0.9" stroke-dasharray=""/></g></g><g id="sketch-fc4aba7b"><title>Expression 2</title><path fill="#388c46" stroke="none" paint-order="stroke fill markers" d="" fill-opacity="0.4"/><path fill="#388c46" stroke="none" paint-order="stroke fill markers" d="" fill-opacity="0.4"/><path fill="#388c46" stroke="none" class="dcg-svg-region" paint-order="stroke fill markers" d=" M 99.5 199.5 L 210.79037034673212 199.5 L 210.79037034673212 199.5 L 206.62890625000003 194.4816109961295 L 201.20898437500003 188.3280514756384 L 196.08203125 182.95172004571785 L 191.248046875 178.31684481830712 L 186.560546875 174.2540606756392 L 182.01953125 170.7455293066928 L 177.478515625 167.6745725163144 L 173.23046875 165.20922063498364 L 169.275390625 163.27445393949057 L 165.466796875 161.7430591763182 L 161.8046875 160.57815731769088 L 158.2890625 159.74241220245727 L 154.7734375 159.18075484480622 L 151.2578125 158.88897045636475 L 147.7421875 158.86133237615468 L 144.080078125 159.10563265421192 L 140.271484375 159.6448411285146 L 136.31640625 160.4987248087203 L 132.068359375 161.73054681024252 L 127.52734375 163.38176567019724 L 122.40039062500001 165.62199266820969 L 116.54101562500001 168.60713799551584 L 109.50976562500001 172.67346836960894 L 99.5 179.07354924039484 M 394.6036633592348 199.5 L 559.5699039289872 199.5 L 559.5699039289872 199.49999999999974 L 556.7265625 187.7398687589772 L 551.892578125 168.6389126777852 L 547.3515625 151.77558302497255 L 542.95703125 136.5048239761707 L 538.85546875 123.22121792573677 L 534.900390625 111.32718716958402 L 531.091796875 100.74454920038357 L 527.4296875 91.39058065178801 L 523.9140625 83.17975397939415 L 520.544921875 76.02524808118983 L 517.322265625 69.84024402075477 L 514.24609375 64.53901956473658 L 511.31640625000006 60.03785800718151 L 508.53320312500006 56.25578784042477 L 505.75000000000006 52.9532685474378 L 502.96679687500006 50.12754334628863 L 500.33007812500006 47.887010689695046 L 497.69335937500006 46.0671764611692 L 495.20312500000006 44.730557741114126 L 492.85937500000006 43.80755660905987 L 490.66210937500006 43.233464743769275 L 488.46484375000006 42.937323079287694 L 486.26757812500006 42.91501308664493 L 484.07031250000006 43.162104435264894 L 481.72656250000006 43.71726987211264 L 479.08984375000006 44.6941487939506 L 476.16015625000006 46.20619159962877 L 473.23046875000006 48.154222747658025 L 470.15429687500006 50.65319118029822 L 466.93164062500006 53.750660730449226 L 463.56250000000006 57.49087389096036 L 460.04687500000006 61.91370562133841 L 456.23828125000006 67.26996581925533 L 452.28320312500006 73.4124394491655 L 448.03515625000006 80.61631271411562 L 443.34765625000006 89.22500028789324 L 438.22070312500006 99.33985262843112 L 432.36132812500006 111.65812054144163 L 425.33007812500006 127.28454654404823 L 403.94335937500006 177.6266756138165 L 394.6036633592348 199.49999999999986" fill-opacity="0.4"/><g><path fill="none" stroke="#388c46" class="dcg-svg-curve" paint-order="fill stroke markers" d=" M 99.5 199.5 L 110.5 199.5 M 117.5 199.5 L 128.5 199.5 M 135.5 199.5 L 146.5 199.5 M 153.5 199.5 L 164.5 199.5 M 171.5 199.5 L 182.5 199.5 M 189.5 199.5 L 200.5 199.5 M 207.5 199.5 L 210.79037034673212 199.5" stroke-linecap="round" stroke-linejoin="round" stroke-miterlimit="10" stroke-width="2.5" stroke-opacity="0.9" stroke-dasharray=""/></g><g><path fill="none" stroke="#388c46" class="dcg-svg-curve" paint-order="fill stroke markers" d=" M 394.6036633592348 199.5 L 405.6036633592348 199.5 M 412.6036633592348 199.5 L 423.6036633592348 199.5 M 430.6036633592348 199.5 L 441.6036633592348 199.5 M 448.6036633592348 199.5 L 459.6036633592348 199.5 M 466.6036633592348 199.5 L 477.6036633592348 199.5 M 484.6036633592348 199.5 L 495.6036633592348 199.5 M 502.6036633592348 199.5 L 513.6036633592348 199.5 M 520.6036633592348 199.5 L 531.6036633592348 199.5 M 538.6036633592348 199.5 L 549.6036633592348 199.5 M 556.6036633592348 199.5 L 559.5699039289872 199.5" stroke-linecap="round" stroke-linejoin="round" stroke-miterlimit="10" stroke-width="2.5" stroke-opacity="0.9" stroke-dasharray=""/></g><g><path fill="none" stroke="#388c46" class="dcg-svg-curve" paint-order="fill stroke markers" d=" M 99.5 179.07354924039484 L 108.76757780641258 173.1480111549473 M 114.80680618779634 169.61007040576155 L 116.54101562500001 168.60713799551584 M 116.54101562500001 168.60713799551584 L 122.40039062500001 165.62199266820969 M 122.40039062500001 165.62199266820969 L 124.61857496984508 164.6527549290036 M 131.1227015719154 162.07440997400704 L 132.068359375 161.73054681024252 M 132.068359375 161.73054681024252 L 136.31640625 160.4987248087203 M 136.31640625 160.4987248087203 L 140.271484375 159.6448411285146 M 140.271484375 159.6448411285146 L 141.78095197454414 159.4311355524448 M 148.74985370656276 158.86925414239596 L 151.2578125 158.88897045636475 M 151.2578125 158.88897045636475 L 154.7734375 159.18075484480622 M 154.7734375 159.18075484480622 L 158.2890625 159.74241220245727 M 158.2890625 159.74241220245727 L 159.65503907211587 160.0671363262388 M 166.34591660963193 162.09654380770397 L 169.275390625 163.27445393949057 M 169.275390625 163.27445393949057 L 173.23046875 165.20922063498364 M 173.23046875 165.20922063498364 L 176.2054064533606 166.93572424467413 M 182.05600598563734 170.77371083362988 L 186.560546875 174.2540606756392 M 186.560546875 174.2540606756392 L 190.57130161855972 177.73029124038896 M 195.6543293726328 182.54163497254748 L 196.08203125 182.95172004571785 M 196.08203125 182.95172004571785 L 201.20898437500003 188.3280514756384 M 201.20898437500003 188.3280514756384 L 203.17759681099616 190.56313420876012 M 207.7640478305245 195.85049989992027 L 210.79037034673212 199.5" stroke-linecap="round" stroke-linejoin="round" stroke-miterlimit="10" stroke-width="2.5" stroke-opacity="0.9" stroke-dasharray=""/></g><g><path fill="none" stroke="#388c46" class="dcg-svg-curve" paint-order="fill stroke markers" d=" M 394.6036633592348 199.49999999999986 L 398.9232579892437 189.3836220794001 M 401.672090935613 182.94592703901844 L 403.94335937500006 177.6266756138165 M 403.94335937500006 177.6266756138165 L 405.98290006048404 172.8258072977417 M 408.719942948178 166.38309077201097 L 413.0210103431257 156.25882194586268 M 415.7580532308196 149.81610542013195 L 420.05912062576726 139.69183659398362 M 422.7961635134612 133.2491200682529 L 425.33007812500006 127.28454654404823 M 425.33007812500006 127.28454654404823 L 427.18458115758466 123.16305258347326 M 430.0569159003404 116.779503952378 L 432.36132812500006 111.65812054144163 M 432.36132812500006 111.65812054144163 L 434.6740315423317 106.79608315724514 M 437.68086117201926 100.47477193424454 L 438.22070312500006 99.33985262843112 M 438.22070312500006 99.33985262843112 L 442.6257319811184 90.64926869892702 M 445.93153622412484 84.47965299714535 L 448.03515625000006 80.61631271411562 M 448.03515625000006 80.61631271411562 L 451.38817007854084 74.93024394246792 M 455.1188834076959 69.00845783140285 L 456.23828125000006 67.26996581925533 M 456.23828125000006 67.26996581925533 L 460.04687500000006 61.91370562133841 M 460.04687500000006 61.91370562133841 L 461.5153884655622 60.06624238166531 M 466.04565232774627 54.73423056569394 L 466.93164062500006 53.750660730449226 M 466.93164062500006 53.750660730449226 L 470.15429687500006 50.65319118029822 M 470.15429687500006 50.65319118029822 L 473.23046875000006 48.154222747658025 M 473.23046875000006 48.154222747658025 L 474.26558018541704 47.4659482071572 M 480.4288591091962 44.198056489674315 L 481.72656250000006 43.71726987211264 M 481.72656250000006 43.71726987211264 L 484.07031250000006 43.162104435264894 M 484.07031250000006 43.162104435264894 L 486.26757812500006 42.91501308664493 M 486.26757812500006 42.91501308664493 L 488.46484375000006 42.937323079287694 M 488.46484375000006 42.937323079287694 L 490.66210937500006 43.233464743769275 M 490.66210937500006 43.233464743769275 L 491.2250768828542 43.380554409672534 M 497.6630673085474 46.05091737186568 L 497.69335937500006 46.0671764611692 M 497.69335937500006 46.0671764611692 L 500.33007812500006 47.887010689695046 M 500.33007812500006 47.887010689695046 L 502.96679687500006 50.12754334628863 M 502.96679687500006 50.12754334628863 L 505.75000000000006 52.9532685474378 M 505.75000000000006 52.9532685474378 L 505.9662285033209 53.209842994878066 M 510.32117926226965 58.68545283573129 L 511.31640625000006 60.03785800718151 M 511.31640625000006 60.03785800718151 L 514.24609375 64.53901956473658 M 514.24609375 64.53901956473658 L 516.2287123150262 67.95570317376689 M 519.5500312408054 74.11582860395501 L 520.544921875 76.02524808118983 M 520.544921875 76.02524808118983 L 523.9140625 83.17975397939415 M 523.9140625 83.17975397939415 L 524.2835940472884 84.04280378839434 M 527.038843559186 90.4777552355451 L 527.4296875 91.39058065178801 M 527.4296875 91.39058065178801 L 531.077846598617 100.70891660911755 M 533.4492382792256 107.29498501794036 L 534.900390625 111.32718716958402 M 534.900390625 111.32718716958402 L 537.0191109385645 117.69877422217134 M 539.203669697786 124.34892577287474 L 542.4489478475726 134.85930967311918 M 544.4166198984115 141.57681579788257 L 547.3515625 151.77558302497255 M 547.3515625 151.77558302497255 L 547.452276685364 152.14959109910436 M 549.2724230261529 158.90881200821164 L 551.892578125 168.6389126777852 M 551.892578125 168.6389126777852 L 552.1190989385888 169.5339846879909 M 553.836484178136 176.3200430386821 L 556.5352324117102 186.9838490183396 M 558.1883385983257 193.78581124975398 L 559.5699039289872 199.49999999999974" stroke-linecap="round" stroke-linejoin="round" stroke-miterlimit="10" stroke-width="2.5" stroke-opacity="0.9" stroke-dasharray=""/></g></g><g id="sketch-fc4aba7b"><title>Expression 3</title><path fill="#6042a6" stroke="none" paint-order="stroke fill markers" d="" fill-opacity="0.4"/><path fill="#6042a6" stroke="none" paint-order="stroke fill markers" d="" fill-opacity="0.4"/><path fill="#6042a6" stroke="none" class="dcg-svg-region" paint-order="stroke fill markers" d=" M 210.79037034673217 199.50000000000003 L 217.17578125000003 207.62646519341823 L 224.64648437500003 217.65597739781109 L 234.75390625000003 231.78846050790466 L 253.06445312500003 257.4450369180762 L 260.388671875 267.1254548009537 L 266.541015625 274.76128121480804 L 271.9609375 281.0082486415229 L 276.94140625 286.27914397514843 L 281.62890625 290.7731991772953 L 286.0234375 294.53164045191215 L 290.125 297.6088057377521 L 294.2265625 300.24107641166916 L 298.03515625 302.264000618715 L 301.55078125 303.7540584615466 L 304.7734375 304.78963895605347 L 307.849609375 305.4743054850916 L 310.779296875 305.8434925459976 L 313.5625 305.9332961159805 L 316.345703125 305.76452225697653 L 319.12890625 305.33354230877364 L 321.912109375 304.63737591447557 L 324.841796875 303.61554217172943 L 327.91796875 302.2215612143709 L 331.287109375 300.3161186739174 L 334.802734375 297.9056460584339 L 338.318359375 295.0656349482151 L 341.98046875 291.6542832333349 L 345.642578125 287.7866539145941 L 349.451171875 283.28914479642583 L 353.40625 278.1183113742218 L 357.5078125 272.23447894292747 L 361.755859375 265.603125723086 L 366.296875 257.94034467793483 L 371.130859375 249.17322170160352 L 376.2578125 239.2440469403223 L 381.82421875 227.80755913907174 L 388.123046875 214.1622066491124 L 394.6036633592347 199.50000000000014 L 394.6036633592347 199.5 L 210.79037034673217 199.5 M 559.5699039289872 199.50000000000026 L 562.8333333333334 213.45119257625214 L 562.8333333333334 199.5 L 559.5699039289872 199.5" fill-opacity="0.4"/><g><path fill="none" stroke="#6042a6" class="dcg-svg-curve" paint-order="fill stroke markers" d=" M 210.79037034673217 199.50000000000003 L 217.17578125000003 207.62646519341823 M 217.17578125000003 207.62646519341823 L 217.57300905500566 208.1597484803549 M 221.75456243392173 213.77353609116415 L 224.64648437500003 217.65597739781109 M 224.64648437500003 217.65597739781109 L 228.2292550795321 222.66550871997504 M 232.30133400734644 228.35920463788725 L 234.75390625000003 231.78846050790466 M 234.75390625000003 231.78846050790466 L 238.69478833564557 237.31038964765574 M 242.76116442188624 243.00815987163372 L 249.15118398597872 251.96179879502768 M 253.22347788478498 257.6552198988129 L 259.8604812648163 266.4273454185175 M 264.2312860764634 271.8946185879716 L 266.541015625 274.76128121480804 M 266.541015625 274.76128121480804 L 271.3371716899712 280.2893001424455 M 276.1148150989492 285.4043517297619 L 276.94140625 286.27914397514843 M 276.94140625 286.27914397514843 L 281.62890625 290.7731991772953 M 281.62890625 290.7731991772953 L 284.13882625016106 292.9198187796913 M 289.6391253885295 297.24428209884917 L 290.125 297.6088057377521 M 290.125 297.6088057377521 L 294.2265625 300.24107641166916 M 294.2265625 300.24107641166916 L 298.03515625 302.264000618715 M 298.03515625 302.264000618715 L 299.1460212296363 302.7348281601149 M 305.7526793090255 305.00758974609977 L 307.849609375 305.4743054850916 M 307.849609375 305.4743054850916 L 310.779296875 305.8434925459976 M 310.779296875 305.8434925459976 L 313.5625 305.9332961159805 M 313.5625 305.9332961159805 L 316.345703125 305.76452225697653 M 316.345703125 305.76452225697653 L 316.66779851016133 305.7146456773024 M 323.4611995238808 304.09707508557074 L 324.841796875 303.61554217172943 M 324.841796875 303.61554217172943 L 327.91796875 302.2215612143709 M 327.91796875 302.2215612143709 L 331.287109375 300.3161186739174 M 331.287109375 300.3161186739174 L 333.1757339957054 299.02119161851806 M 338.6899673892369 294.71947225703923 L 341.98046875 291.6542832333349 M 341.98046875 291.6542832333349 L 345.642578125 287.7866539145941 M 345.642578125 287.7866539145941 L 346.40301678622046 286.8886637278889 M 350.83833045674373 281.47558619412195 L 353.40625 278.1183113742218 M 353.40625 278.1183113742218 L 357.2795896030138 272.56187253569885 M 361.0684245711722 266.6762360568307 L 361.755859375 265.603125723086 M 361.755859375 265.603125723086 L 366.296875 257.94034467793483 M 366.296875 257.94034467793483 L 366.692005043196 257.22371975497106 M 370.07191197343286 251.09377447438848 L 371.130859375 249.17322170160352 M 371.130859375 249.17322170160352 L 375.17144038304446 241.34798242442807 M 378.2850139453288 235.0790500717987 L 381.82421875 227.80755913907174 M 381.82421875 227.80755913907174 L 383.0450652658996 225.16280034981855 M 385.9788461586314 218.80725712571555 L 388.123046875 214.1622066491124 M 388.123046875 214.1622066491124 L 390.5017259298977 208.7805143456612 M 393.3315914816164 202.37802569208313 L 394.6036633592347 199.50000000000014" stroke-linecap="round" stroke-linejoin="round" stroke-miterlimit="10" stroke-width="2.5" stroke-opacity="0.9" stroke-dasharray=""/></g><g><path fill="none" stroke="#6042a6" class="dcg-svg-curve" paint-order="fill stroke markers" d=" M 559.5699039289872 199.50000000000026 L 562.0753641398165 210.21086687117136" stroke-linecap="round" stroke-linejoin="round" stroke-miterlimit="10" stroke-width="2.5" stroke-opacity="0.9" stroke-dasharray=""/></g><g><path fill="none" stroke="#6042a6" class="dcg-svg-curve" paint-order="fill stroke markers" d=" M 210.79037034673217 199.5 L 221.79037034673217 199.5 M 228.79037034673217 199.5 L 239.79037034673217 199.5 M 246.79037034673217 199.5 L 257.7903703467322 199.5 M 264.7903703467322 199.5 L 275.7903703467322 199.5 M 282.7903703467322 199.5 L 293.7903703467322 199.5 M 300.7903703467322 199.5 L 311.7903703467322 199.5 M 318.7903703467322 199.5 L 329.7903703467322 199.5 M 336.7903703467322 199.5 L 347.7903703467322 199.5 M 354.7903703467322 199.5 L 365.7903703467322 199.5 M 372.7903703467322 199.5 L 383.7903703467322 199.5 M 390.7903703467322 199.5 L 394.6036633592347 199.5" stroke-linecap="round" stroke-linejoin="round" stroke-miterlimit="10" stroke-width="2.5" stroke-opacity="0.9" stroke-dasharray=""/></g><g><path fill="none" stroke="#6042a6" class="dcg-svg-curve" paint-order="fill stroke markers" d=" M 559.5699039289872 199.5 L 562.8333333333334 199.5" stroke-linecap="round" stroke-linejoin="round" stroke-miterlimit="10" stroke-width="2.5" stroke-opacity="0.9" stroke-dasharray=""/></g></g></g><g id="labels-fc4aba7b"/></g></svg>