<svg version="1.1" xmlns="http://www.w3.org/2000/svg" xmlns:xlink="http://www.w3.org/1999/xlink" width="600" height="400"><defs/><g transform="scale(1,1)"><g id="background-35e7cf8e"><rect fill="white" stroke="none" x="0" y="0" width="600" height="400" class="dcg-svg-background"/></g><g id="background-images-35e7cf8e"/><g id="graphpaper-35e7cf8e"><g id="grid-35e7cf8e"><g><path fill="none" stroke="rgb(0,0,0)" class="dcg-svg-minor-gridline" paint-order="fill stroke markers" d=" M -0.5 0 L -0.5 400" stroke-opacity="0.12" stroke-miterlimit="10" stroke-dasharray=""/><path fill="none" stroke="rgb(0,0,0)" class="dcg-svg-minor-gridline" paint-order="fill stroke markers" d=" M 32.5 0 L 32.5 400" stroke-opacity="0.12" stroke-miterlimit="10" stroke-dasharray=""/><path fill="none" stroke="rgb(0,0,0)" class="dcg-svg-minor-gridline" paint-order="fill stroke markers" d=" M 66.5 0 L 66.5 400" stroke-opacity="0.12" stroke-miterlimit="10" stroke-dasharray=""/><path fill="none" stroke="rgb(0,0,0)" class="dcg-svg-minor-gridline" paint-order="fill stroke markers" d=" M 99.5 0 L 99.5 400" stroke-opacity="0.12" stroke-miterlimit="10" stroke-dasharray=""/><path fill="none" stroke="rgb(0,0,0)" class="dcg-svg-minor-gridline" paint-order="fill stroke markers" d=" M 132.5 0 L 132.5 400" stroke-opacity="0.12" stroke-miterlimit="10" stroke-dasharray=""/><path fill="none" stroke="rgb(0,0,0)" class="dcg-svg-minor-gridline" paint-order="fill stroke markers" d=" M 166.5 0 L 166.5 400" stroke-opacity="0.12" stroke-miterlimit="10" stroke-dasharray=""/><path fill="none" stroke="rgb(0,0,0)" class="dcg-svg-minor-gridline" paint-order="fill stroke markers" d=" M 232.5 0 L 232.5 400" stroke-opacity="0.12" stroke-miterlimit="10" stroke-dasharray=""/><path fill="none" stroke="rgb(0,0,0)" class="dcg-svg-minor-gridline" paint-order="fill stroke markers" d=" M 266.5 0 L 266.5 400" stroke-opacity="0.12" stroke-miterlimit="10" stroke-dasharray=""/><path fill="none" stroke="rgb(0,0,0)" class="dcg-svg-minor-gridline" paint-order="fill stroke markers" d=" M 299.5 0 L 299.5 400" stroke-opacity="0.12" stroke-miterlimit="10" stroke-dasharray=""/><path fill="none" stroke="rgb(0,0,0)" class="dcg-svg-minor-gridline" paint-order="fill stroke markers" d=" M 332.5 0 L 332.5 400" stroke-opacity="0.12" stroke-miterlimit="10" stroke-dasharray=""/><path fill="none" stroke="rgb(0,0,0)" class="dcg-svg-minor-gridline" paint-order="fill stroke markers" d=" M 366.5 0 L 366.5 400" stroke-opacity="0.12" stroke-miterlimit="10" stroke-dasharray=""/><path fill="none" stroke="rgb(0,0,0)" class="dcg-svg-minor-gridline" paint-order="fill stroke markers" d=" M 399.5 0 L 399.5 400" stroke-opacity="0.12" stroke-miterlimit="10" stroke-dasharray=""/><path fill="none" stroke="rgb(0,0,0)" class="dcg-svg-minor-gridline" paint-order="fill stroke markers" d=" M 432.5 0 L 432.5 400" stroke-opacity="0.12" stroke-miterlimit="10" stroke-dasharray=""/><path fill="none" stroke="rgb(0,0,0)" class="dcg-svg-minor-gridline" paint-order="fill stroke markers" d=" M 466.5 0 L 466.5 400" stroke-opacity="0.12" stroke-miterlimit="10" stroke-dasharray=""/><path fill="none" stroke="rgb(0,0,0)" class="dcg-svg-minor-gridline" paint-order="fill stroke markers" d=" M 499.5 0 L 499.5 400" stroke-opacity="0.12" stroke-miterlimit="10" stroke-dasharray=""/><path fill="none" stroke="rgb(0,0,0)" class="dcg-svg-minor-gridline" paint-order="fill stroke markers" d=" M 532.5 0 L 532.5 400" stroke-opacity="0.12" stroke-miterlimit="10" stroke-dasharray=""/><path fill="none" stroke="rgb(0,0,0)" class="dcg-svg-minor-gridline" paint-order="fill stroke markers" d=" M 566.5 0 L 566.5 400" stroke-opacity="0.12" stroke-miterlimit="10" stroke-dasharray=""/><path fill="none" stroke="rgb(0,0,0)" class="dcg-svg-minor-gridline" paint-order="fill stroke markers" d=" M 0 349.5 L 600 349.5" stroke-opacity="0.12" stroke-miterlimit="10" stroke-dasharray=""/><path fill="none" stroke="rgb(0,0,0)" class="dcg-svg-minor-gridline" paint-order="fill stroke markers" d=" M 0 299.5 L 600 299.5" stroke-opacity="0.12" stroke-miterlimit="10" stroke-dasharray=""/><path fill="none" stroke="rgb(0,0,0)" class="dcg-svg-minor-gridline" paint-order="fill stroke markers" d=" M 0 249.5 L 600 249.5" stroke-opacity="0.12" stroke-miterlimit="10" stroke-dasharray=""/><path fill="none" stroke="rgb(0,0,0)" class="dcg-svg-minor-gridline" paint-order="fill stroke markers" d=" M 0 149.5 L 600 149.5" stroke-opacity="0.12" stroke-miterlimit="10" stroke-dasharray=""/><path fill="none" stroke="rgb(0,0,0)" class="dcg-svg-minor-gridline" paint-order="fill stroke markers" d=" M 0 99.5 L 600 99.5" stroke-opacity="0.12" stroke-miterlimit="10" stroke-dasharray=""/><path fill="none" stroke="rgb(0,0,0)" class="dcg-svg-minor-gridline" paint-order="fill stroke markers" d=" M 0 49.5 L 600 49.5" stroke-opacity="0.12" stroke-miterlimit="10" stroke-dasharray=""/><path fill="none" stroke="rgb(0,0,0)" class="dcg-svg-minor-gridline" paint-order="fill stroke markers" d=" M 0 -0.5 L 600 -0.5" stroke-opacity="0.12" stroke-miterlimit="10" stroke-dasharray=""/><path fill="none" stroke="rgb(0,0,0)" class="dcg-svg-major-gridline" paint-order="fill stroke markers" d=" M 66.5 0 L 66.5 400" stroke-opacity="0.31818181818181823" stroke-miterlimit="10" stroke-dasharray=""/><path fill="none" stroke="rgb(0,0,0)" class="dcg-svg-major-gridline" paint-order="fill stroke markers" d=" M 332.5 0 L 332.5 400" stroke-opacity="0.31818181818181823" stroke-miterlimit="10" stroke-dasharray=""/><path fill="none" stroke="rgb(0,0,0)" class="dcg-svg-major-gridline" paint-order="fill stroke markers" d=" M 466.5 0 L 466.5 400" stroke-opacity="0.31818181818181823" stroke-miterlimit="10" stroke-dasharray=""/><path fill="none" stroke="rgb(0,0,0)" class="dcg-svg-major-gridline" paint-order="fill stroke markers" d=" M 0 -0.5 L 600 -0.5" stroke-opacity="0.31818181818181823" stroke-miterlimit="10" stroke-dasharray=""/></g></g><g id="axis-35e7cf8e"><g id="yaxis-35e7cf8e"><title>Y axis</title><path fill="none" stroke="rgb(0,0,0)" class="dcg-svg-axis-line" paint-order="fill stroke markers" d=" M 199.75 0 L 199.75 400" stroke-opacity="0.9" stroke-miterlimit="10" stroke-width="1.5" stroke-dasharray=""/></g><g id="xaxis-35e7cf8e"><title>X axis</title><path fill="none" stroke="rgb(0,0,0)" class="dcg-svg-axis-line" paint-order="fill stroke markers" d=" M 0 199.75 L 600 199.75" stroke-opacity="0.9" stroke-miterlimit="10" stroke-width="1.5" stroke-dasharray=""/></g><g><g class="dcg-svg-axis-value"><text fill="none" stroke="#ffffff" font-family="Arial" font-size="14px" font-style="normal" font-weight="normal" text-decoration="normal" x="191.10693359375" y="215.808" text-anchor="middle" stroke-miterlimit="2" stroke-width="3" stroke-dasharray="">0</text><text fill="#000000" stroke="none" font-family="Arial" font-size="14px" font-style="normal" font-weight="normal" text-decoration="normal" x="191.10693359375" y="215.808" text-anchor="middle">0</text></g><g class="dcg-svg-axis-value"><text fill="none" stroke="#ffffff" font-family="Arial" font-size="14px" font-style="normal" font-weight="normal" text-decoration="normal" x="64.33561197916666" y="215.808" text-anchor="middle" stroke-miterlimit="2" stroke-width="3" stroke-dasharray="">-2</text><text fill="#000000" stroke="none" font-family="Arial" font-size="14px" font-style="normal" font-weight="normal" text-decoration="normal" x="64.33561197916666" y="215.808" text-anchor="middle">-2</text></g><g class="dcg-svg-axis-value"><text fill="none" stroke="#ffffff" font-family="Arial" font-size="14px" font-style="normal" font-weight="normal" text-decoration="normal" x="333.33333333333337" y="215.808" text-anchor="middle" stroke-miterlimit="2" stroke-width="3" stroke-dasharray="">2</text><text fill="#000000" stroke="none" font-family="Arial" font-size="14px" font-style="normal" font-weight="normal" text-decoration="normal" x="333.33333333333337" y="215.808" text-anchor="middle">2</text></g><g class="dcg-svg-axis-value"><text fill="none" stroke="#ffffff" font-family="Arial" font-size="14px" font-style="normal" font-weight="normal" text-decoration="normal" x="466.6666666666667" y="215.808" text-anchor="middle" stroke-miterlimit="2" stroke-width="3" stroke-dasharray="">4</text><text fill="#000000" stroke="none" font-family="Arial" font-size="14px" font-style="normal" font-weight="normal" text-decoration="normal" x="466.6666666666667" y="215.808" text-anchor="middle">4</text></g><g class="dcg-svg-axis-value dcg-svg-offcenter-axis-value"><text fill="none" stroke="#ffffff" font-family="Arial" font-size="14px" font-style="normal" font-weight="normal" text-decoration="normal" x="593.10693359375" y="215.808" text-anchor="middle" stroke-miterlimit="2" stroke-width="3" stroke-dasharray="">6</text><text fill="#000000" stroke="none" font-family="Arial" font-size="14px" font-style="normal" font-weight="normal" text-decoration="normal" x="593.10693359375" y="215.808" text-anchor="middle">6</text></g><g class="dcg-svg-axis-value dcg-svg-offcenter-axis-value"><text fill="none" stroke="#ffffff" font-family="Arial" font-size="14px" font-style="normal" font-weight="normal" text-decoration="normal" x="188.77587890625" y="393.808" text-anchor="middle" stroke-miterlimit="2" stroke-width="3" stroke-dasharray="">-2</text><text fill="#000000" stroke="none" font-family="Arial" font-size="14px" font-style="normal" font-weight="normal" text-decoration="normal" x="188.77587890625" y="393.808" text-anchor="middle">-2</text></g><g class="dcg-svg-axis-value dcg-svg-offcenter-axis-value"><text fill="none" stroke="#ffffff" font-family="Arial" font-size="14px" font-style="normal" font-weight="normal" text-decoration="normal" x="191.10693359375" y="13.808" text-anchor="middle" stroke-miterlimit="2" stroke-width="3" stroke-dasharray="">2</text><text fill="#000000" stroke="none" font-family="Arial" font-size="14px" font-style="normal" font-weight="normal" text-decoration="normal" x="191.10693359375" y="13.808" text-anchor="middle">2</text></g></g></g></g><g id="expressions-35e7cf8e"><g id="sketch-35e7cf8e"><title>Expression 1</title><path fill="#2d70b3" stroke="none" paint-order="stroke fill markers" d="" fill-opacity="0.4"/><g><path fill="none" stroke="#2d70b3" class="dcg-svg-curve" paint-order="fill stroke markers" d=" M -0.5 213.61200080598672 L -0.5 213.61200080598672 L 10.33984375 229.45207563659923 L 18.396484375 240.7357149365755 L 25.281250000000004 249.90756882471916 L 31.433593750000004 257.65205843197725 L 37 264.23425173671444 L 42.2734375 270.0546639017778 L 47.107421875 275.0032694949205 L 51.79492187500001 279.4232104370496 L 56.18945312500001 283.208582704903 L 60.43750000000001 286.5223180902621 L 64.5390625 289.3867622917311 L 68.494140625 291.8268944762156 L 72.302734375 293.86970865054457 L 75.96484375 295.54364928893716 L 79.626953125 296.92785251016335 L 83.142578125 297.9802182543948 L 86.658203125 298.75878241114776 L 90.02734375 299.2459693475466 L 93.396484375 299.4784593505955 L 96.765625 299.4556587673259 L 100.13476562500001 299.1776258180215 L 103.50390625000001 298.6450704475556 L 107.01953125000001 297.8194766674317 L 110.53515625000001 296.72052820482673 L 114.05078125000001 295.3512804330833 L 117.71289062500001 293.6416657034872 L 121.37500000000001 291.6480513209144 L 125.18359375000001 289.2798995033288 L 129.138671875 286.5107268110221 L 133.240234375 283.3157588147032 L 137.48828125 279.67250165032885 L 142.029296875 275.41853310864457 L 146.716796875 270.65825410939635 L 151.697265625 265.2157207163832 L 156.970703125 259.0541418822886 L 162.68359375 251.96007588597786 L 168.982421875 243.6943131106037 L 176.16015625 233.79895414367303 L 184.65625 221.58210777553384 L 196.521484375 203.96628723211677 L 216.73632812500003 173.93258926811973 L 225.37890625000003 161.64922217336922 L 232.55664062500003 151.92208906008946 L 239.00195312500003 143.65390632802456 L 244.86132812500003 136.58805116360344 L 250.13476562500003 130.64254791065656 L 255.11523437500003 125.42215119215882 L 259.802734375 120.88584359040016 L 264.34375 116.86156216042053 L 268.591796875 113.44354886200773 L 272.693359375 110.47469782883451 L 276.6484375 107.93079590365869 L 280.45703125 105.78553126920349 L 284.119140625 104.0110602951438 L 287.78125 102.5246533311763 L 291.296875 101.37288381306973 L 294.8125 100.49393416338842 L 298.328125 99.89024809939536 L 301.697265625 99.57157468421428 L 305.06640625 99.50806409565064 L 308.435546875 99.69987850519112 L 311.8046875 100.14652812320105 L 315.173828125 100.84687244958076 L 318.689453125 101.84620450785133 L 322.205078125 103.11704047526206 L 325.8671875 104.72571878787159 L 329.529296875 106.6203051813954 L 333.337890625 108.88781341013612 L 337.29296875 111.55535025790829 L 341.39453125 114.64839354954518 L 345.642578125 118.19022260520933 L 350.037109375 122.20129695080618 L 354.724609375 126.84939853849625 L 359.55859375 132.01851802003063 L 364.83203125 138.061033186719 L 370.544921875 145.03943677311193 L 376.697265625 153.00008339658564 L 383.58203125 162.37432066703894 L 391.638671875 173.8390520814056 L 402.03906250000006 189.1678007216534 L 428.99218750000006 229.12749819677387 L 437.04882812500006 240.42571584732966 L 443.93359375000006 249.61362075022208 L 450.08593750000006 257.3751097634794 L 455.79882812500006 264.14252110055156 L 461.07226562500006 269.9693687887618 L 465.90625000000006 274.9243432469814 L 470.59375000000006 279.35085651964243 L 474.98828125000006 283.1427157235125 L 479.23632812500006 286.4629940753357 L 483.33789062500006 289.33398440326755 L 487.29296875000006 291.7806183467819 L 491.10156250000006 293.82984763755474 L 494.76367187500006 295.51007956638966 L 498.42578125000006 296.900675348728 L 501.94140625000006 297.9592553284293 L 505.45703125000006 298.7440920032445 L 508.82617187500006 299.23732865731006 L 512.1953125 299.47589044164715 L 515.564453125 299.4591681992615 L 518.93359375 299.1872046296614 L 522.302734375 298.66069417982663 L 525.818359375 297.841365371542 L 529.333984375 296.74862102427096 L 532.849609375 295.38549926224084 L 536.51171875 293.6821643778229 L 540.173828125 291.69470766700624 L 543.982421875 289.33281026275927 L 547.9375 286.5699495407895 L 552.0390625 283.38130691059246 L 556.287109375 279.74433925112567 L 560.681640625 275.63940099296923 L 565.369140625 270.8967377760423 L 570.349609375 265.47162793366226 L 575.623046875 259.32693959252697 L 581.3359375 252.24924337685363 L 587.634765625 243.99906524006636 L 594.8125 234.1181447758709 L 599.5 227.4415498198926" stroke-linecap="round" stroke-linejoin="round" stroke-miterlimit="10" stroke-width="2.5" stroke-opacity="0.9" stroke-dasharray=""/></g></g></g><g id="labels-35e7cf8e"/></g></svg>