<svg version="1.1" xmlns="http://www.w3.org/2000/svg" xmlns:xlink="http://www.w3.org/1999/xlink" width="600" height="400"><defs/><g transform="scale(1,1)"><g id="background-2c421cc9"><rect fill="white" stroke="none" x="0" y="0" width="600" height="400" class="dcg-svg-background"/></g><g id="background-images-2c421cc9"/><g id="graphpaper-2c421cc9"><g id="grid-2c421cc9"><g><path fill="none" stroke="rgb(0,0,0)" class="dcg-svg-minor-gridline" paint-order="fill stroke markers" d=" M -0.5 0 L -0.5 400" stroke-opacity="0.12" stroke-miterlimit="10" stroke-dasharray=""/><path fill="none" stroke="rgb(0,0,0)" class="dcg-svg-minor-gridline" paint-order="fill stroke markers" d=" M 24.5 0 L 24.5 400" stroke-opacity="0.12" stroke-miterlimit="10" stroke-dasharray=""/><path fill="none" stroke="rgb(0,0,0)" class="dcg-svg-minor-gridline" paint-order="fill stroke markers" d=" M 49.5 0 L 49.5 400" stroke-opacity="0.12" stroke-miterlimit="10" stroke-dasharray=""/><path fill="none" stroke="rgb(0,0,0)" class="dcg-svg-minor-gridline" paint-order="fill stroke markers" d=" M 74.5 0 L 74.5 400" stroke-opacity="0.12" stroke-miterlimit="10" stroke-dasharray=""/><path fill="none" stroke="rgb(0,0,0)" class="dcg-svg-minor-gridline" paint-order="fill stroke markers" d=" M 99.5 0 L 99.5 400" stroke-opacity="0.12" stroke-miterlimit="10" stroke-dasharray=""/><path fill="none" stroke="rgb(0,0,0)" class="dcg-svg-minor-gridline" paint-order="fill stroke markers" d=" M 124.5 0 L 124.5 400" stroke-opacity="0.12" stroke-miterlimit="10" stroke-dasharray=""/><path fill="none" stroke="rgb(0,0,0)" class="dcg-svg-minor-gridline" paint-order="fill stroke markers" d=" M 149.5 0 L 149.5 400" stroke-opacity="0.12" stroke-miterlimit="10" stroke-dasharray=""/><path fill="none" stroke="rgb(0,0,0)" class="dcg-svg-minor-gridline" paint-order="fill stroke markers" d=" M 174.5 0 L 174.5 400" stroke-opacity="0.12" stroke-miterlimit="10" stroke-dasharray=""/><path fill="none" stroke="rgb(0,0,0)" class="dcg-svg-minor-gridline" paint-order="fill stroke markers" d=" M 199.5 0 L 199.5 400" stroke-opacity="0.12" stroke-miterlimit="10" stroke-dasharray=""/><path fill="none" stroke="rgb(0,0,0)" class="dcg-svg-minor-gridline" paint-order="fill stroke markers" d=" M 224.5 0 L 224.5 400" stroke-opacity="0.12" stroke-miterlimit="10" stroke-dasharray=""/><path fill="none" stroke="rgb(0,0,0)" class="dcg-svg-minor-gridline" paint-order="fill stroke markers" d=" M 249.5 0 L 249.5 400" stroke-opacity="0.12" stroke-miterlimit="10" stroke-dasharray=""/><path fill="none" stroke="rgb(0,0,0)" class="dcg-svg-minor-gridline" paint-order="fill stroke markers" d=" M 274.5 0 L 274.5 400" stroke-opacity="0.12" stroke-miterlimit="10" stroke-dasharray=""/><path fill="none" stroke="rgb(0,0,0)" class="dcg-svg-minor-gridline" paint-order="fill stroke markers" d=" M 324.5 0 L 324.5 400" stroke-opacity="0.12" stroke-miterlimit="10" stroke-dasharray=""/><path fill="none" stroke="rgb(0,0,0)" class="dcg-svg-minor-gridline" paint-order="fill stroke markers" d=" M 349.5 0 L 349.5 400" stroke-opacity="0.12" stroke-miterlimit="10" stroke-dasharray=""/><path fill="none" stroke="rgb(0,0,0)" class="dcg-svg-minor-gridline" paint-order="fill stroke markers" d=" M 374.5 0 L 374.5 400" stroke-opacity="0.12" stroke-miterlimit="10" stroke-dasharray=""/><path fill="none" stroke="rgb(0,0,0)" class="dcg-svg-minor-gridline" paint-order="fill stroke markers" d=" M 399.5 0 L 399.5 400" stroke-opacity="0.12" stroke-miterlimit="10" stroke-dasharray=""/><path fill="none" stroke="rgb(0,0,0)" class="dcg-svg-minor-gridline" paint-order="fill stroke markers" d=" M 424.5 0 L 424.5 400" stroke-opacity="0.12" stroke-miterlimit="10" stroke-dasharray=""/><path fill="none" stroke="rgb(0,0,0)" class="dcg-svg-minor-gridline" paint-order="fill stroke markers" d=" M 449.5 0 L 449.5 400" stroke-opacity="0.12" stroke-miterlimit="10" stroke-dasharray=""/><path fill="none" stroke="rgb(0,0,0)" class="dcg-svg-minor-gridline" paint-order="fill stroke markers" d=" M 474.5 0 L 474.5 400" stroke-opacity="0.12" stroke-miterlimit="10" stroke-dasharray=""/><path fill="none" stroke="rgb(0,0,0)" class="dcg-svg-minor-gridline" paint-order="fill stroke markers" d=" M 499.5 0 L 499.5 400" stroke-opacity="0.12" stroke-miterlimit="10" stroke-dasharray=""/><path fill="none" stroke="rgb(0,0,0)" class="dcg-svg-minor-gridline" paint-order="fill stroke markers" d=" M 524.5 0 L 524.5 400" stroke-opacity="0.12" stroke-miterlimit="10" stroke-dasharray=""/><path fill="none" stroke="rgb(0,0,0)" class="dcg-svg-minor-gridline" paint-order="fill stroke markers" d=" M 549.5 0 L 549.5 400" stroke-opacity="0.12" stroke-miterlimit="10" stroke-dasharray=""/><path fill="none" stroke="rgb(0,0,0)" class="dcg-svg-minor-gridline" paint-order="fill stroke markers" d=" M 574.5 0 L 574.5 400" stroke-opacity="0.12" stroke-miterlimit="10" stroke-dasharray=""/><path fill="none" stroke="rgb(0,0,0)" class="dcg-svg-minor-gridline" paint-order="fill stroke markers" d=" M 0 374.5 L 600 374.5" stroke-opacity="0.12" stroke-miterlimit="10" stroke-dasharray=""/><path fill="none" stroke="rgb(0,0,0)" class="dcg-svg-minor-gridline" paint-order="fill stroke markers" d=" M 0 349.5 L 600 349.5" stroke-opacity="0.12" stroke-miterlimit="10" stroke-dasharray=""/><path fill="none" stroke="rgb(0,0,0)" class="dcg-svg-minor-gridline" paint-order="fill stroke markers" d=" M 0 299.5 L 600 299.5" stroke-opacity="0.12" stroke-miterlimit="10" stroke-dasharray=""/><path fill="none" stroke="rgb(0,0,0)" class="dcg-svg-minor-gridline" paint-order="fill stroke markers" d=" M 0 274.5 L 600 274.5" stroke-opacity="0.12" stroke-miterlimit="10" stroke-dasharray=""/><path fill="none" stroke="rgb(0,0,0)" class="dcg-svg-minor-gridline" paint-order="fill stroke markers" d=" M 0 249.5 L 600 249.5" stroke-opacity="0.12" stroke-miterlimit="10" stroke-dasharray=""/><path fill="none" stroke="rgb(0,0,0)" class="dcg-svg-minor-gridline" paint-order="fill stroke markers" d=" M 0 224.5 L 600 224.5" stroke-opacity="0.12" stroke-miterlimit="10" stroke-dasharray=""/><path fill="none" stroke="rgb(0,0,0)" class="dcg-svg-minor-gridline" paint-order="fill stroke markers" d=" M 0 199.5 L 600 199.5" stroke-opacity="0.12" stroke-miterlimit="10" stroke-dasharray=""/><path fill="none" stroke="rgb(0,0,0)" class="dcg-svg-minor-gridline" paint-order="fill stroke markers" d=" M 0 174.5 L 600 174.5" stroke-opacity="0.12" stroke-miterlimit="10" stroke-dasharray=""/><path fill="none" stroke="rgb(0,0,0)" class="dcg-svg-minor-gridline" paint-order="fill stroke markers" d=" M 0 149.5 L 600 149.5" stroke-opacity="0.12" stroke-miterlimit="10" stroke-dasharray=""/><path fill="none" stroke="rgb(0,0,0)" class="dcg-svg-minor-gridline" paint-order="fill stroke markers" d=" M 0 124.5 L 600 124.5" stroke-opacity="0.12" stroke-miterlimit="10" stroke-dasharray=""/><path fill="none" stroke="rgb(0,0,0)" class="dcg-svg-minor-gridline" paint-order="fill stroke markers" d=" M 0 99.5 L 600 99.5" stroke-opacity="0.12" stroke-miterlimit="10" stroke-dasharray=""/><path fill="none" stroke="rgb(0,0,0)" class="dcg-svg-minor-gridline" paint-order="fill stroke markers" d=" M 0 74.5 L 600 74.5" stroke-opacity="0.12" stroke-miterlimit="10" stroke-dasharray=""/><path fill="none" stroke="rgb(0,0,0)" class="dcg-svg-minor-gridline" paint-order="fill stroke markers" d=" M 0 49.5 L 600 49.5" stroke-opacity="0.12" stroke-miterlimit="10" stroke-dasharray=""/><path fill="none" stroke="rgb(0,0,0)" class="dcg-svg-minor-gridline" paint-order="fill stroke markers" d=" M 0 24.5 L 600 24.5" stroke-opacity="0.12" stroke-miterlimit="10" stroke-dasharray=""/><path fill="none" stroke="rgb(0,0,0)" class="dcg-svg-minor-gridline" paint-order="fill stroke markers" d=" M 0 -0.5 L 600 -0.5" stroke-opacity="0.12" stroke-miterlimit="10" stroke-dasharray=""/><path fill="none" stroke="rgb(0,0,0)" class="dcg-svg-major-gridline" paint-order="fill stroke markers" d=" M -0.5 0 L -0.5 400" stroke-opacity="0.31818181818181823" stroke-miterlimit="10" stroke-dasharray=""/><path fill="none" stroke="rgb(0,0,0)" class="dcg-svg-major-gridline" paint-order="fill stroke markers" d=" M 99.5 0 L 99.5 400" stroke-opacity="0.31818181818181823" stroke-miterlimit="10" stroke-dasharray=""/><path fill="none" stroke="rgb(0,0,0)" class="dcg-svg-major-gridline" paint-order="fill stroke markers" d=" M 199.5 0 L 199.5 400" stroke-opacity="0.31818181818181823" stroke-miterlimit="10" stroke-dasharray=""/><path fill="none" stroke="rgb(0,0,0)" class="dcg-svg-major-gridline" paint-order="fill stroke markers" d=" M 399.5 0 L 399.5 400" stroke-opacity="0.31818181818181823" stroke-miterlimit="10" stroke-dasharray=""/><path fill="none" stroke="rgb(0,0,0)" class="dcg-svg-major-gridline" paint-order="fill stroke markers" d=" M 499.5 0 L 499.5 400" stroke-opacity="0.31818181818181823" stroke-miterlimit="10" stroke-dasharray=""/><path fill="none" stroke="rgb(0,0,0)" class="dcg-svg-major-gridline" paint-order="fill stroke markers" d=" M 0 224.5 L 600 224.5" stroke-opacity="0.31818181818181823" stroke-miterlimit="10" stroke-dasharray=""/><path fill="none" stroke="rgb(0,0,0)" class="dcg-svg-major-gridline" paint-order="fill stroke markers" d=" M 0 124.5 L 600 124.5" stroke-opacity="0.31818181818181823" stroke-miterlimit="10" stroke-dasharray=""/><path fill="none" stroke="rgb(0,0,0)" class="dcg-svg-major-gridline" paint-order="fill stroke markers" d=" M 0 24.5 L 600 24.5" stroke-opacity="0.31818181818181823" stroke-miterlimit="10" stroke-dasharray=""/></g></g><g id="axis-2c421cc9"><g id="yaxis-2c421cc9"><title>Y axis</title><path fill="none" stroke="rgb(0,0,0)" class="dcg-svg-axis-line" paint-order="fill stroke markers" d=" M 299.75 0 L 299.75 400" stroke-opacity="0.9" stroke-miterlimit="10" stroke-width="1.5" stroke-dasharray=""/></g><g id="xaxis-2c421cc9"><title>X axis</title><path fill="none" stroke="rgb(0,0,0)" class="dcg-svg-axis-line" paint-order="fill stroke markers" d=" M 0 324.75 L 600 324.75" stroke-opacity="0.9" stroke-miterlimit="10" stroke-width="1.5" stroke-dasharray=""/></g><g/></g></g><g id="expressions-2c421cc9"><g id="sketch-2c421cc9"><title>Expression 1</title><path fill="#2d70b3" stroke="none" paint-order="stroke fill markers" d="" fill-opacity="0.4"/><g><path fill="none" stroke="#2d70b3" class="dcg-svg-curve" paint-order="fill stroke markers" d=" M 24.014974447194383 405.5 L 24.014974447194383 405.5 L 26.74609375 381.8159229139856 L 30.994140625 347.4838074258533 L 35.2421875 315.5263108299114 L 39.34375 286.84226763248444 L 43.4453125 260.21347577730194 L 47.400390625 236.41105432671068 L 51.35546875 214.3819714332058 L 55.1640625 194.7831760258414 L 58.97265625 176.70952107469205 L 62.78125 160.10386240482333 L 66.443359375 145.4689018448353 L 70.10546875 132.08995800410054 L 73.62109375 120.38284875630058 L 77.13671875 109.74642328397027 L 80.505859375 100.51942298738322 L 83.875 92.20156860351568 L 87.09765625 85.06336865658523 L 90.3203125 78.69396965065971 L 93.54296875 73.06327045839862 L 96.619140625 68.35037274137176 L 99.6953125 64.25814713397995 L 102.771484375 60.76158692649369 L 105.84765625 57.836067468771944 L 108.77734375 55.55857315371395 L 111.560546875 53.835551855265294 L 114.197265625 52.583147946244935 L 116.833984375 51.68553820749554 L 119.32421875 51.150600243738154 L 121.814453125 50.90733918605298 L 124.451171875 50.9545869972153 L 127.087890625 51.3018262621718 L 129.87109375 51.978799143718845 L 132.80078125 53.01885964759282 L 135.876953125 54.45297655078508 L 139.24609375 56.40182374222792 L 142.908203125 58.93858918407392 L 146.86328125 62.13063366190181 L 151.2578125 66.1798727796413 L 156.23828125 71.34200727046118 L 161.658203125 77.56509448354518 L 167.517578125 84.89539760903608 L 174.109375 93.74998495727777 L 182.01953125 105.01236444283859 L 192.712890625 120.91272693851533 L 215.564453125 155.0441783923834 L 224.353515625 167.42469518267353 L 231.82421875 177.3401410918741 L 238.5625 185.6916446685791 L 244.861328125 192.9135095791953 L 250.8671875 199.21502816537395 L 256.580078125 204.63527539668758 L 261.853515625 209.10977920339246 L 266.833984375 212.84610654165772 L 271.521484375 215.9111890016011 L 275.916015625 218.3749499212372 L 280.1640625 220.3706453652121 L 284.119140625 221.8813846338544 L 287.927734375 223.01521788813443 L 291.736328125 223.83092808286347 L 295.3984375 224.31313014635816 L 299.060546875 224.4978542394183 L 302.72265625 224.38462458262802 L 306.384765625 223.97373278272607 L 310.046875 223.26623783260584 L 313.85546875 222.21777796690003 L 317.6640625 220.85342808673158 L 321.619140625 219.10637296587265 L 325.720703125 216.94486426258845 L 330.115234375 214.24181891252556 L 334.65625 211.03866350650787 L 339.490234375 207.18556854754024 L 344.763671875 202.48179234313466 L 350.330078125 196.9790109751575 L 356.3359375 190.46262308070436 L 362.634765625 183.03569256441006 L 369.373046875 174.4904224191505 L 376.84375 164.39449083805084 L 385.33984375 152.28036551448167 L 396.47265625 135.73528814772726 L 419.32421875 101.61688082330511 L 427.234375 90.53728864341974 L 433.826171875 81.89530703803212 L 439.685546875 74.80246981849814 L 444.958984375 68.99414812851501 L 449.939453125 64.09234189905146 L 454.48046875 60.184559355868316 L 458.435546875 57.266491323354785 L 462.09765625 55.005398222157964 L 465.466796875 53.32927831168678 L 468.54296875 52.160500445781565 L 471.47265625 51.38790819505817 L 474.109375 50.99199698120361 L 476.74609375 50.893798230128596 L 479.236328125 51.086815388227535 L 481.7265625 51.56941703567287 L 484.216796875 52.353527761990335 L 486.70703125 53.45123623442487 L 489.34375 54.96894609928131 L 492.126953125 56.98359117737891 L 495.056640625 59.58109394847452 L 498.1328125 62.85723197320476 L 501.208984375 66.71960952862901 L 504.28515625 71.19308777796687 L 507.361328125 76.3029099440264 L 510.4375 82.0747013092041 L 513.513671875 88.53446921548499 L 516.736328125 96.06850136751933 L 519.958984375 104.41734902266217 L 523.328125 114.050829268992 L 526.697265625 124.64529145272724 L 530.06640625 136.23753297320224 L 533.58203125 149.43798164781768 L 537.09765625 163.80860058302645 L 540.759765625 180.06946407604303 L 544.421875 197.69766316562894 L 548.23046875 217.53622474093575 L 552.0390625 238.96697788545865 L 555.994140625 262.97055789819024 L 559.94921875 288.8220616284816 L 564.05078125 317.655848026654 L 568.15234375 348.62763935411937 L 572.400390625 383.04320907827974 L 574.9869656328625 405.5" stroke-linecap="round" stroke-linejoin="round" stroke-miterlimit="10" stroke-width="2.5" stroke-opacity="0.9" stroke-dasharray=""/></g></g><g id="sketch-2c421cc9"><title>Expression 2</title><path fill="#388c46" stroke="none" paint-order="stroke fill markers" d="" fill-opacity="0.4"/><path fill="#388c46" stroke="none" paint-order="stroke fill markers" d="" fill-opacity="0.4"/><path fill="#388c46" stroke="none" class="dcg-svg-region" paint-order="stroke fill markers" d=" M 34.01763322927071 324.5 L 564.9823667707293 324.5 L 564.9823667707293 324.4999999999999 L 563.7578125 315.5263108299114 L 559.65625 286.84226763248444 L 555.701171875 261.12997412547156 L 551.74609375 237.26059189243827 L 547.9375 215.95440101623538 L 544.12890625 196.23589445083053 L 540.466796875 178.71894660125872 L 536.8046875 162.56529237190261 L 533.2890625 148.29384862491864 L 529.7734375 135.18896094569942 L 526.404296875 123.68495752871428 L 523.03515625 113.1755118508882 L 519.666015625 103.62387431723806 L 516.443359375 95.35038527301555 L 513.220703125 87.88889349507559 L 510.14453125 81.49577811305068 L 507.068359375 75.78814592179879 L 503.9921875 70.74002596596256 L 500.916015625 66.3258293497729 L 497.83984375 62.52034923704923 L 494.763671875 59.298760851199404 L 491.833984375 56.751060643548044 L 489.05078125 54.781814724585274 L 486.4140625 53.30541982362047 L 483.923828125 52.245237986609936 L 481.43359375 51.49722318342543 L 478.943359375 51.04930605008303 L 476.453125 50.8895813003183 L 473.81640625 51.0215349420032 L 471.033203125 51.481882964255476 L 468.103515625 52.30551246841247 L 465.02734375 53.52495621601702 L 461.658203125 55.25319504504483 L 457.99609375 57.56702171816147 L 453.89453125 60.65646525417111 L 449.353515625 64.63699498035749 L 444.373046875 69.60969691990795 L 438.953125 75.65452442318201 L 432.947265625 83.0102615267624 L 426.0625 92.13543128967285 L 417.712890625 103.94670969599429 L 402.0390625 127.32816725084558 L 388.5625 147.5507755279541 L 379.48046875 160.6982761429681 L 371.716796875 171.38797998614064 L 364.83203125 180.31351490822271 L 358.38671875 188.10830462203012 L 352.234375 194.97579381614923 L 346.521484375 200.80219730789577 L 341.248046875 205.67448618017988 L 336.267578125 209.80428201419454 L 331.580078125 213.25349301023562 L 327.185546875 216.0878954759046 L 322.9375 218.45012855529785 L 318.8359375 220.3706453652121 L 314.880859375 221.8813846338544 L 311.072265625 223.01521788813443 L 307.41015625 223.80546743693412 L 303.748046875 224.29954786912458 L 300.0859375 224.49618532368913 L 296.423828125 224.39487332576573 L 292.76171875 223.99587278664694 L 288.953125 223.26623783260584 L 285.14453125 222.21777796690003 L 281.189453125 220.79469371598134 L 277.087890625 218.96371422826815 L 272.693359375 216.60740112620442 L 268.15234375 213.75305408323766 L 263.318359375 210.25899147116615 L 258.044921875 205.93032962333564 L 252.478515625 200.80219730789577 L 246.619140625 194.81923380717672 L 240.466796875 187.93772781919142 L 233.875 179.94570922851562 L 226.55078125 170.4057817015855 L 218.201171875 158.82742526806578 L 190.076171875 116.94766099663138 L 180.26171875 102.46167761684046 L 172.64453125 91.73432312850491 L 166.19921875 83.19728197940276 L 160.486328125 76.17073279088982 L 155.212890625 70.23298857526424 L 150.37890625 65.33019654630334 L 146.130859375 61.50587413776702 L 142.17578125 58.39789748602203 L 138.66015625 56.03560193153686 L 135.4375 54.2274112701416 L 132.361328125 52.84213330578683 L 129.431640625 51.85133869727184 L 126.6484375 51.2236995161511 L 124.01171875 50.92550964505068 L 121.375 50.92959594726568 L 118.884765625 51.223468050559006 L 116.39453125 51.81111458633677 L 113.7578125 52.766851811204106 L 110.974609375 54.163510025502546 L 108.044921875 56.08258354168538 L 104.96875 58.615081429481506 L 101.892578125 61.701264945260846 L 98.81640625 65.36548583945842 L 95.740234375 69.63247792209768 L 92.6640625 74.52735706279054 L 89.44140625 80.35656088209362 L 86.21875 86.93262827396399 L 82.99609375 94.2857858742646 L 79.626953125 102.83736795081683 L 76.2578125 112.30743649462244 L 72.7421875 123.20761206606409 L 69.2265625 135.18896094569942 L 65.564453125 148.86490097979006 L 61.90234375 163.80860058302645 L 58.09375 180.7480026483536 L 54.28515625 199.16850843178693 L 50.330078125 219.92663269320659 L 46.375 242.40908813476565 L 42.2734375 267.616435802076 L 38.171875 294.8246358409524 L 34.01763322927071 324.4999999999999" fill-opacity="0.4"/><g><path fill="none" stroke="#388c46" class="dcg-svg-curve" paint-order="fill stroke markers" d=" M 34.01763322927071 324.5 L 45.01763322927071 324.5 M 52.01763322927071 324.5 L 63.01763322927071 324.5 M 70.0176332292707 324.5 L 81.0176332292707 324.5 M 88.0176332292707 324.5 L 99.0176332292707 324.5 M 106.0176332292707 324.5 L 117.0176332292707 324.5 M 124.0176332292707 324.5 L 135.0176332292707 324.5 M 142.0176332292707 324.5 L 153.0176332292707 324.5 M 160.0176332292707 324.5 L 171.0176332292707 324.5 M 178.0176332292707 324.5 L 189.0176332292707 324.5 M 196.0176332292707 324.5 L 207.0176332292707 324.5 M 214.0176332292707 324.5 L 225.0176332292707 324.5 M 232.0176332292707 324.5 L 243.0176332292707 324.5 M 250.0176332292707 324.5 L 261.0176332292707 324.5 M 268.0176332292707 324.5 L 279.0176332292707 324.5 M 286.0176332292707 324.5 L 297.0176332292707 324.5 M 304.0176332292707 324.5 L 315.0176332292707 324.5 M 322.0176332292707 324.5 L 333.0176332292707 324.5 M 340.0176332292707 324.5 L 351.0176332292707 324.5 M 358.0176332292707 324.5 L 369.0176332292707 324.5 M 376.0176332292707 324.5 L 387.0176332292707 324.5 M 394.0176332292707 324.5 L 405.0176332292707 324.5 M 412.0176332292707 324.5 L 423.0176332292707 324.5 M 430.0176332292707 324.5 L 441.0176332292707 324.5 M 448.0176332292707 324.5 L 459.0176332292707 324.5 M 466.0176332292707 324.5 L 477.0176332292707 324.5 M 484.0176332292707 324.5 L 495.0176332292707 324.5 M 502.0176332292707 324.5 L 513.0176332292707 324.5 M 520.0176332292707 324.5 L 531.0176332292707 324.5 M 538.0176332292707 324.5 L 549.0176332292707 324.5 M 556.0176332292707 324.5 L 564.9823667707293 324.5" stroke-linecap="round" stroke-linejoin="round" stroke-miterlimit="10" stroke-width="2.5" stroke-opacity="0.9" stroke-dasharray=""/></g><g><path fill="none" stroke="#388c46" class="dcg-svg-curve" paint-order="fill stroke markers" d=" M 34.01763322927071 324.4999999999999 L 35.54264819009744 313.606225201095 M 36.51311225607808 306.67382305633737 L 38.038127216904805 295.7800482574325 M 39.071511238664755 288.8567924291275 L 40.711205303819526 277.97968787999787 M 41.754646981645294 271.05789407600633 L 42.2734375 267.616435802076 M 42.2734375 267.616435802076 L 43.4811011366207 260.1943869722785 M 44.60530720666308 253.2852509400325 L 46.37191674530111 242.42803717507454 M 47.58447918616634 235.53386062949912 L 49.49031629680528 224.70021927916306 M 50.7330643844109 217.81156983373495 L 52.791875087027016 207.0059556220951 M 54.10202735232818 200.12965566923336 L 54.28515625 199.16850843178693 M 54.28515625 199.16850843178693 L 56.314280481702475 189.35452009412816 M 57.73161134333091 182.4995092824171 L 58.09375 180.7480026483536 M 58.09375 180.7480026483536 L 60.11437538756291 171.76090974474957 M 61.649897101038874 164.9314022173034 L 61.90234375 163.80860058302645 M 61.90234375 163.80860058302645 L 64.2466191807386 154.24248875049676 M 65.94295453754472 147.45140889347567 L 68.78826211122865 136.82576892163695 M 70.72035617006328 130.0980701040371 L 72.7421875 123.20761206606409 M 72.7421875 123.20761206606409 L 73.91447347581465 119.57294598071127 M 76.06318255631498 112.91088554212506 L 76.2578125 112.30743649462244 M 76.2578125 112.30743649462244 L 79.626953125 102.83736795081683 M 79.626953125 102.83736795081683 L 79.74220124664475 102.54484416475088 M 82.30809410315948 96.03207256973185 L 82.99609375 94.2857858742646 M 82.99609375 94.2857858742646 L 86.21875 86.93262827396399 M 86.21875 86.93262827396399 L 86.70048933603793 85.94960368389165 M 89.81466034519418 79.6814115554236 L 92.6640625 74.52735706279054 M 92.6640625 74.52735706279054 L 95.38346738990785 70.20017418367782 M 99.50392174374977 64.54654309514818 L 101.892578125 61.701264945260846 M 101.892578125 61.701264945260846 L 104.96875 58.615081429481506 M 104.96875 58.615081429481506 L 107.22890432466917 56.75438043945052 M 113.15609737206562 53.06880259896675 L 113.7578125 52.766851811204106 M 113.7578125 52.766851811204106 L 116.39453125 51.81111458633677 M 116.39453125 51.81111458633677 L 118.884765625 51.223468050559006 M 118.884765625 51.223468050559006 L 121.375 50.92959594726568 M 121.375 50.92959594726568 L 123.83103455638961 50.92578966362322 M 130.67514753763422 52.271881825059054 L 132.361328125 52.84213330578683 M 132.361328125 52.84213330578683 L 135.4375 54.2274112701416 M 135.4375 54.2274112701416 L 138.66015625 56.03560193153686 M 138.66015625 56.03560193153686 L 140.4455621691224 57.235290881778816 M 146.0406994679399 61.43502474435176 L 146.130859375 61.50587413776702 M 146.130859375 61.50587413776702 L 150.37890625 65.33019654630334 M 150.37890625 65.33019654630334 L 154.0083358546773 69.01128799283634 M 158.72191771532374 74.18405565590061 L 160.486328125 76.17073279088982 M 160.486328125 76.17073279088982 L 165.74943638839432 82.64407378841838 M 169.98740892894315 88.21487196255134 L 172.64453125 91.73432312850491 M 172.64453125 91.73432312850491 L 176.4599647221964 97.1076328156974 M 180.50486079686465 102.82055157598523 L 186.6747797004104 111.92725793578781 M 190.59791990275914 117.72457422015631 L 196.73055708359072 126.85642842443937 M 200.63314438048354 132.6676083726195 L 206.76578156131512 141.79946257690256 M 210.66836885820797 147.61064252508268 L 216.80100603903955 156.7424967293657 M 220.8265829149721 162.46806801433735 L 226.55078125 170.4057817015855 M 226.55078125 170.4057817015855 L 227.28982280122418 171.3683967024098 M 231.5526087578497 176.92075258869772 L 233.875 179.94570922851562 M 233.875 179.94570922851562 L 238.44760781059946 185.48962499582 M 243.0172645807349 190.79047134301968 L 246.619140625 194.81923380717672 M 246.619140625 194.81923380717672 L 250.53452228980993 198.8172004148682 M 255.58338939091266 203.66260719880844 L 258.044921875 205.93032962333564 M 258.044921875 205.93032962333564 L 263.318359375 210.25899147116615 M 263.318359375 210.25899147116615 L 263.9915278894747 210.7455658486536 M 269.73221641388824 214.74611493984577 L 272.693359375 216.60740112620442 M 272.693359375 216.60740112620442 L 277.087890625 218.96371422826815 M 277.087890625 218.96371422826815 L 279.38542648495434 219.98935775603638 M 285.9361525240348 222.43570174379653 L 288.953125 223.26623783260584 M 288.953125 223.26623783260584 L 292.76171875 223.99587278664694 M 292.76171875 223.99587278664694 L 296.423828125 224.39487332576573 M 296.423828125 224.39487332576573 L 296.73287082219326 224.40342297021655 M 303.7263437624513 224.30071322066675 L 303.748046875 224.29954786912458 M 303.748046875 224.29954786912458 L 307.41015625 223.80546743693412 M 307.41015625 223.80546743693412 L 311.072265625 223.01521788813443 M 311.072265625 223.01521788813443 L 314.4618228326456 222.00613345130964 M 320.945163167953 219.38302092910845 L 322.9375 218.45012855529785 M 322.9375 218.45012855529785 L 327.185546875 216.0878954759046 M 327.185546875 216.0878954759046 L 330.49608402991026 213.95265188773658 M 336.17923815142285 209.8692853652884 L 336.267578125 209.80428201419454 M 336.267578125 209.80428201419454 L 341.248046875 205.67448618017988 M 341.248046875 205.67448618017988 L 344.4947680422037 202.6747420067871 M 349.49043695938695 197.774252815347 L 352.234375 194.97579381614923 M 352.234375 194.97579381614923 L 356.9590823346466 189.70188879969743 M 361.4840048144775 184.36252913696126 L 364.83203125 180.31351490822271 M 364.83203125 180.31351490822271 L 368.34154290228577 175.76372040277352 M 372.5828368688549 170.1955402231385 L 379.0469200383282 161.2952240052656 M 383.03966726603556 155.545842354708 L 388.5625 147.5507755279541 M 388.5625 147.5507755279541 L 389.27391449985845 146.4832438964054 M 393.15578356300057 140.65820376121147 L 399.2558635193668 131.50456926304958 M 403.1422208802336 125.68252901633099 L 409.2672209426665 116.54555061889583 M 413.1649482551238 110.731109820528 L 417.712890625 103.94670969599429 M 417.712890625 103.94670969599429 L 419.3478101017211 101.63396807609418 M 423.38854388600856 95.91798430385357 L 426.0625 92.13543128967285 M 426.0625 92.13543128967285 L 429.897711174076 87.05218591194009 M 434.17213758287954 81.5100871894787 L 438.953125 75.65452442318201 M 438.953125 75.65452442318201 L 441.24993841153935 73.09289324100529 M 446.01601936005954 67.96928657437898 L 449.353515625 64.63699498035749 M 449.353515625 64.63699498035749 L 453.89453125 60.65646525417111 M 453.89453125 60.65646525417111 L 454.09029418094826 60.50900961461707 M 459.780006834944 56.43989381022858 L 461.658203125 55.25319504504483 M 461.658203125 55.25319504504483 L 465.02734375 53.52495621601702 M 465.02734375 53.52495621601702 L 468.103515625 52.30551246841247 M 468.103515625 52.30551246841247 L 469.72343053396753 51.85010221962333 M 476.63117555995524 50.901001543095376 L 478.943359375 51.04930605008303 M 478.943359375 51.04930605008303 L 481.43359375 51.49722318342543 M 481.43359375 51.49722318342543 L 483.923828125 52.245237986609936 M 483.923828125 52.245237986609936 L 486.4140625 53.30541982362047 M 486.4140625 53.30541982362047 L 487.15239264026985 53.7188377713341 M 492.90161149021833 57.679485201845125 L 494.763671875 59.298760851199404 M 494.763671875 59.298760851199404 L 497.83984375 62.52034923704923 M 497.83984375 62.52034923704923 L 500.4034510296595 65.69174437230245 M 504.4107313452721 71.42687300298337 L 507.068359375 75.78814592179879 M 507.068359375 75.78814592179879 L 509.8641204351171 80.9754945077008 M 512.9233763614567 87.2709682351301 L 513.220703125 87.88889349507559 M 513.220703125 87.88889349507559 L 516.443359375 95.35038527301555 M 516.443359375 95.35038527301555 L 517.2369837876821 97.38784827688154 M 519.768336421913 103.91395753816822 L 523.03515625 113.1755118508882 M 523.03515625 113.1755118508882 L 523.3951346893376 114.29840171346477 M 525.5320845089766 120.9642434058803 L 526.404296875 123.68495752871428 M 526.404296875 123.68495752871428 L 528.6929498503072 131.49961253386917 M 530.5910965212648 138.23687693036123 L 533.2890625 148.29384862491864 M 533.2890625 148.29384862491864 L 533.4295684877661 148.86422325262177 M 535.1038936590027 155.6610339179974 L 536.8046875 162.56529237190261 M 536.8046875 162.56529237190261 L 537.6645984702766 166.3583807424209 M 539.2122586560756 173.18514776270897 L 540.466796875 178.71894660125872 M 540.466796875 178.71894660125872 L 541.5566469092146 183.93202034054048 M 542.989104344146 190.78388619570066 L 544.12890625 196.23589445083053 M 544.12890625 196.23589445083053 L 545.1586916169732 201.5674763554691 M 546.4861936037131 208.44044794534213 L 547.9375 215.95440101623538 M 547.9375 215.95440101623538 L 548.5264884458855 219.24934426186653 M 549.7582505101574 226.14011796421815 L 551.6938766111559 236.96847663934216 M 552.8418604543095 243.87367853112372 L 554.640007000273 254.72571377799053 M 555.7784680766775 261.6324831939895 L 557.4508247561325 272.50461376424494 M 558.5150517339675 279.4232423089529 L 559.65625 286.84226763248444 M 559.65625 286.84226763248444 L 560.1507903105048 290.30080706212624 M 561.1416493965445 297.2303235150696 L 562.6987136746069 308.11956365540914 M 563.6895727606466 315.0490801083525 L 563.7578125 315.5263108299114 M 563.7578125 315.5263108299114 L 564.9823667707293 324.4999999999999" stroke-linecap="round" stroke-linejoin="round" stroke-miterlimit="10" stroke-width="2.5" stroke-opacity="0.9" stroke-dasharray=""/></g></g></g><g id="labels-2c421cc9"/></g></svg>