<svg version="1.1" xmlns="http://www.w3.org/2000/svg" xmlns:xlink="http://www.w3.org/1999/xlink" width="600" height="400"><defs/><g transform="scale(1,1)"><g id="background-72894bb5"><rect fill="white" stroke="none" x="0" y="0" width="600" height="400" class="dcg-svg-background"/></g><g id="background-images-72894bb5"/><g id="graphpaper-72894bb5"><g id="grid-72894bb5"><g><path fill="none" stroke="rgb(0,0,0)" class="dcg-svg-minor-gridline" paint-order="fill stroke markers" d=" M -0.5 0 L -0.5 400" stroke-opacity="0.12" stroke-miterlimit="10" stroke-dasharray=""/><path fill="none" stroke="rgb(0,0,0)" class="dcg-svg-minor-gridline" paint-order="fill stroke markers" d=" M 19.5 0 L 19.5 400" stroke-opacity="0.12" stroke-miterlimit="10" stroke-dasharray=""/><path fill="none" stroke="rgb(0,0,0)" class="dcg-svg-minor-gridline" paint-order="fill stroke markers" d=" M 39.5 0 L 39.5 400" stroke-opacity="0.12" stroke-miterlimit="10" stroke-dasharray=""/><path fill="none" stroke="rgb(0,0,0)" class="dcg-svg-minor-gridline" paint-order="fill stroke markers" d=" M 59.5 0 L 59.5 400" stroke-opacity="0.12" stroke-miterlimit="10" stroke-dasharray=""/><path fill="none" stroke="rgb(0,0,0)" class="dcg-svg-minor-gridline" paint-order="fill stroke markers" d=" M 79.5 0 L 79.5 400" stroke-opacity="0.12" stroke-miterlimit="10" stroke-dasharray=""/><path fill="none" stroke="rgb(0,0,0)" class="dcg-svg-minor-gridline" paint-order="fill stroke markers" d=" M 119.5 0 L 119.5 400" stroke-opacity="0.12" stroke-miterlimit="10" stroke-dasharray=""/><path fill="none" stroke="rgb(0,0,0)" class="dcg-svg-minor-gridline" paint-order="fill stroke markers" d=" M 139.5 0 L 139.5 400" stroke-opacity="0.12" stroke-miterlimit="10" stroke-dasharray=""/><path fill="none" stroke="rgb(0,0,0)" class="dcg-svg-minor-gridline" paint-order="fill stroke markers" d=" M 159.5 0 L 159.5 400" stroke-opacity="0.12" stroke-miterlimit="10" stroke-dasharray=""/><path fill="none" stroke="rgb(0,0,0)" class="dcg-svg-minor-gridline" paint-order="fill stroke markers" d=" M 179.5 0 L 179.5 400" stroke-opacity="0.12" stroke-miterlimit="10" stroke-dasharray=""/><path fill="none" stroke="rgb(0,0,0)" class="dcg-svg-minor-gridline" paint-order="fill stroke markers" d=" M 199.5 0 L 199.5 400" stroke-opacity="0.12" stroke-miterlimit="10" stroke-dasharray=""/><path fill="none" stroke="rgb(0,0,0)" class="dcg-svg-minor-gridline" paint-order="fill stroke markers" d=" M 219.5 0 L 219.5 400" stroke-opacity="0.12" stroke-miterlimit="10" stroke-dasharray=""/><path fill="none" stroke="rgb(0,0,0)" class="dcg-svg-minor-gridline" paint-order="fill stroke markers" d=" M 239.5 0 L 239.5 400" stroke-opacity="0.12" stroke-miterlimit="10" stroke-dasharray=""/><path fill="none" stroke="rgb(0,0,0)" class="dcg-svg-minor-gridline" paint-order="fill stroke markers" d=" M 259.5 0 L 259.5 400" stroke-opacity="0.12" stroke-miterlimit="10" stroke-dasharray=""/><path fill="none" stroke="rgb(0,0,0)" class="dcg-svg-minor-gridline" paint-order="fill stroke markers" d=" M 279.5 0 L 279.5 400" stroke-opacity="0.12" stroke-miterlimit="10" stroke-dasharray=""/><path fill="none" stroke="rgb(0,0,0)" class="dcg-svg-minor-gridline" paint-order="fill stroke markers" d=" M 299.5 0 L 299.5 400" stroke-opacity="0.12" stroke-miterlimit="10" stroke-dasharray=""/><path fill="none" stroke="rgb(0,0,0)" class="dcg-svg-minor-gridline" paint-order="fill stroke markers" d=" M 319.5 0 L 319.5 400" stroke-opacity="0.12" stroke-miterlimit="10" stroke-dasharray=""/><path fill="none" stroke="rgb(0,0,0)" class="dcg-svg-minor-gridline" paint-order="fill stroke markers" d=" M 339.5 0 L 339.5 400" stroke-opacity="0.12" stroke-miterlimit="10" stroke-dasharray=""/><path fill="none" stroke="rgb(0,0,0)" class="dcg-svg-minor-gridline" paint-order="fill stroke markers" d=" M 359.5 0 L 359.5 400" stroke-opacity="0.12" stroke-miterlimit="10" stroke-dasharray=""/><path fill="none" stroke="rgb(0,0,0)" class="dcg-svg-minor-gridline" paint-order="fill stroke markers" d=" M 379.5 0 L 379.5 400" stroke-opacity="0.12" stroke-miterlimit="10" stroke-dasharray=""/><path fill="none" stroke="rgb(0,0,0)" class="dcg-svg-minor-gridline" paint-order="fill stroke markers" d=" M 399.5 0 L 399.5 400" stroke-opacity="0.12" stroke-miterlimit="10" stroke-dasharray=""/><path fill="none" stroke="rgb(0,0,0)" class="dcg-svg-minor-gridline" paint-order="fill stroke markers" d=" M 419.5 0 L 419.5 400" stroke-opacity="0.12" stroke-miterlimit="10" stroke-dasharray=""/><path fill="none" stroke="rgb(0,0,0)" class="dcg-svg-minor-gridline" paint-order="fill stroke markers" d=" M 439.5 0 L 439.5 400" stroke-opacity="0.12" stroke-miterlimit="10" stroke-dasharray=""/><path fill="none" stroke="rgb(0,0,0)" class="dcg-svg-minor-gridline" paint-order="fill stroke markers" d=" M 459.5 0 L 459.5 400" stroke-opacity="0.12" stroke-miterlimit="10" stroke-dasharray=""/><path fill="none" stroke="rgb(0,0,0)" class="dcg-svg-minor-gridline" paint-order="fill stroke markers" d=" M 479.5 0 L 479.5 400" stroke-opacity="0.12" stroke-miterlimit="10" stroke-dasharray=""/><path fill="none" stroke="rgb(0,0,0)" class="dcg-svg-minor-gridline" paint-order="fill stroke markers" d=" M 499.5 0 L 499.5 400" stroke-opacity="0.12" stroke-miterlimit="10" stroke-dasharray=""/><path fill="none" stroke="rgb(0,0,0)" class="dcg-svg-minor-gridline" paint-order="fill stroke markers" d=" M 519.5 0 L 519.5 400" stroke-opacity="0.12" stroke-miterlimit="10" stroke-dasharray=""/><path fill="none" stroke="rgb(0,0,0)" class="dcg-svg-minor-gridline" paint-order="fill stroke markers" d=" M 539.5 0 L 539.5 400" stroke-opacity="0.12" stroke-miterlimit="10" stroke-dasharray=""/><path fill="none" stroke="rgb(0,0,0)" class="dcg-svg-minor-gridline" paint-order="fill stroke markers" d=" M 559.5 0 L 559.5 400" stroke-opacity="0.12" stroke-miterlimit="10" stroke-dasharray=""/><path fill="none" stroke="rgb(0,0,0)" class="dcg-svg-minor-gridline" paint-order="fill stroke markers" d=" M 579.5 0 L 579.5 400" stroke-opacity="0.12" stroke-miterlimit="10" stroke-dasharray=""/><path fill="none" stroke="rgb(0,0,0)" class="dcg-svg-minor-gridline" paint-order="fill stroke markers" d=" M 0 379.5 L 600 379.5" stroke-opacity="0.12" stroke-miterlimit="10" stroke-dasharray=""/><path fill="none" stroke="rgb(0,0,0)" class="dcg-svg-minor-gridline" paint-order="fill stroke markers" d=" M 0 359.5 L 600 359.5" stroke-opacity="0.12" stroke-miterlimit="10" stroke-dasharray=""/><path fill="none" stroke="rgb(0,0,0)" class="dcg-svg-minor-gridline" paint-order="fill stroke markers" d=" M 0 339.5 L 600 339.5" stroke-opacity="0.12" stroke-miterlimit="10" stroke-dasharray=""/><path fill="none" stroke="rgb(0,0,0)" class="dcg-svg-minor-gridline" paint-order="fill stroke markers" d=" M 0 319.5 L 600 319.5" stroke-opacity="0.12" stroke-miterlimit="10" stroke-dasharray=""/><path fill="none" stroke="rgb(0,0,0)" class="dcg-svg-minor-gridline" paint-order="fill stroke markers" d=" M 0 299.5 L 600 299.5" stroke-opacity="0.12" stroke-miterlimit="10" stroke-dasharray=""/><path fill="none" stroke="rgb(0,0,0)" class="dcg-svg-minor-gridline" paint-order="fill stroke markers" d=" M 0 279.5 L 600 279.5" stroke-opacity="0.12" stroke-miterlimit="10" stroke-dasharray=""/><path fill="none" stroke="rgb(0,0,0)" class="dcg-svg-minor-gridline" paint-order="fill stroke markers" d=" M 0 259.5 L 600 259.5" stroke-opacity="0.12" stroke-miterlimit="10" stroke-dasharray=""/><path fill="none" stroke="rgb(0,0,0)" class="dcg-svg-minor-gridline" paint-order="fill stroke markers" d=" M 0 239.5 L 600 239.5" stroke-opacity="0.12" stroke-miterlimit="10" stroke-dasharray=""/><path fill="none" stroke="rgb(0,0,0)" class="dcg-svg-minor-gridline" paint-order="fill stroke markers" d=" M 0 219.5 L 600 219.5" stroke-opacity="0.12" stroke-miterlimit="10" stroke-dasharray=""/><path fill="none" stroke="rgb(0,0,0)" class="dcg-svg-minor-gridline" paint-order="fill stroke markers" d=" M 0 179.5 L 600 179.5" stroke-opacity="0.12" stroke-miterlimit="10" stroke-dasharray=""/><path fill="none" stroke="rgb(0,0,0)" class="dcg-svg-minor-gridline" paint-order="fill stroke markers" d=" M 0 159.5 L 600 159.5" stroke-opacity="0.12" stroke-miterlimit="10" stroke-dasharray=""/><path fill="none" stroke="rgb(0,0,0)" class="dcg-svg-minor-gridline" paint-order="fill stroke markers" d=" M 0 139.5 L 600 139.5" stroke-opacity="0.12" stroke-miterlimit="10" stroke-dasharray=""/><path fill="none" stroke="rgb(0,0,0)" class="dcg-svg-minor-gridline" paint-order="fill stroke markers" d=" M 0 119.5 L 600 119.5" stroke-opacity="0.12" stroke-miterlimit="10" stroke-dasharray=""/><path fill="none" stroke="rgb(0,0,0)" class="dcg-svg-minor-gridline" paint-order="fill stroke markers" d=" M 0 99.5 L 600 99.5" stroke-opacity="0.12" stroke-miterlimit="10" stroke-dasharray=""/><path fill="none" stroke="rgb(0,0,0)" class="dcg-svg-minor-gridline" paint-order="fill stroke markers" d=" M 0 79.5 L 600 79.5" stroke-opacity="0.12" stroke-miterlimit="10" stroke-dasharray=""/><path fill="none" stroke="rgb(0,0,0)" class="dcg-svg-minor-gridline" paint-order="fill stroke markers" d=" M 0 59.5 L 600 59.5" stroke-opacity="0.12" stroke-miterlimit="10" stroke-dasharray=""/><path fill="none" stroke="rgb(0,0,0)" class="dcg-svg-minor-gridline" paint-order="fill stroke markers" d=" M 0 39.5 L 600 39.5" stroke-opacity="0.12" stroke-miterlimit="10" stroke-dasharray=""/><path fill="none" stroke="rgb(0,0,0)" class="dcg-svg-minor-gridline" paint-order="fill stroke markers" d=" M 0 19.5 L 600 19.5" stroke-opacity="0.12" stroke-miterlimit="10" stroke-dasharray=""/><path fill="none" stroke="rgb(0,0,0)" class="dcg-svg-minor-gridline" paint-order="fill stroke markers" d=" M 0 -0.5 L 600 -0.5" stroke-opacity="0.12" stroke-miterlimit="10" stroke-dasharray=""/><path fill="none" stroke="rgb(0,0,0)" class="dcg-svg-major-gridline" paint-order="fill stroke markers" d=" M -0.5 0 L -0.5 400" stroke-opacity="0.31818181818181823" stroke-miterlimit="10" stroke-dasharray=""/><path fill="none" stroke="rgb(0,0,0)" class="dcg-svg-major-gridline" paint-order="fill stroke markers" d=" M 199.5 0 L 199.5 400" stroke-opacity="0.31818181818181823" stroke-miterlimit="10" stroke-dasharray=""/><path fill="none" stroke="rgb(0,0,0)" class="dcg-svg-major-gridline" paint-order="fill stroke markers" d=" M 299.5 0 L 299.5 400" stroke-opacity="0.31818181818181823" stroke-miterlimit="10" stroke-dasharray=""/><path fill="none" stroke="rgb(0,0,0)" class="dcg-svg-major-gridline" paint-order="fill stroke markers" d=" M 399.5 0 L 399.5 400" stroke-opacity="0.31818181818181823" stroke-miterlimit="10" stroke-dasharray=""/><path fill="none" stroke="rgb(0,0,0)" class="dcg-svg-major-gridline" paint-order="fill stroke markers" d=" M 499.5 0 L 499.5 400" stroke-opacity="0.31818181818181823" stroke-miterlimit="10" stroke-dasharray=""/><path fill="none" stroke="rgb(0,0,0)" class="dcg-svg-major-gridline" paint-order="fill stroke markers" d=" M 0 359.5 L 600 359.5" stroke-opacity="0.31818181818181823" stroke-miterlimit="10" stroke-dasharray=""/><path fill="none" stroke="rgb(0,0,0)" class="dcg-svg-major-gridline" paint-order="fill stroke markers" d=" M 0 279.5 L 600 279.5" stroke-opacity="0.31818181818181823" stroke-miterlimit="10" stroke-dasharray=""/><path fill="none" stroke="rgb(0,0,0)" class="dcg-svg-major-gridline" paint-order="fill stroke markers" d=" M 0 119.5 L 600 119.5" stroke-opacity="0.31818181818181823" stroke-miterlimit="10" stroke-dasharray=""/><path fill="none" stroke="rgb(0,0,0)" class="dcg-svg-major-gridline" paint-order="fill stroke markers" d=" M 0 39.5 L 600 39.5" stroke-opacity="0.31818181818181823" stroke-miterlimit="10" stroke-dasharray=""/></g></g><g id="axis-72894bb5"><g id="yaxis-72894bb5"><title>Y axis</title><path fill="none" stroke="rgb(0,0,0)" class="dcg-svg-axis-line" paint-order="fill stroke markers" d=" M 99.75 0 L 99.75 400" stroke-opacity="0.9" stroke-miterlimit="10" stroke-width="1.5" stroke-dasharray=""/></g><g id="xaxis-72894bb5"><title>X axis</title><path fill="none" stroke="rgb(0,0,0)" class="dcg-svg-axis-line" paint-order="fill stroke markers" d=" M 0 199.75 L 600 199.75" stroke-opacity="0.9" stroke-miterlimit="10" stroke-width="1.5" stroke-dasharray=""/></g><g><g class="dcg-svg-axis-value"><text fill="none" stroke="#ffffff" font-family="Arial" font-size="14px" font-style="normal" font-weight="normal" text-decoration="normal" x="91.10693359375" y="215.808" text-anchor="middle" stroke-miterlimit="2" stroke-width="3" stroke-dasharray="">0</text><text fill="#000000" stroke="none" font-family="Arial" font-size="14px" font-style="normal" font-weight="normal" text-decoration="normal" x="91.10693359375" y="215.808" text-anchor="middle">0</text></g><g class="dcg-svg-axis-value dcg-svg-offcenter-axis-value"><text fill="none" stroke="#ffffff" font-family="Arial" font-size="14px" font-style="normal" font-weight="normal" text-decoration="normal" x="9.22412109375" y="215.808" text-anchor="middle" stroke-miterlimit="2" stroke-width="3" stroke-dasharray="">-1</text><text fill="#000000" stroke="none" font-family="Arial" font-size="14px" font-style="normal" font-weight="normal" text-decoration="normal" x="9.22412109375" y="215.808" text-anchor="middle">-1</text></g><g class="dcg-svg-axis-value"><text fill="none" stroke="#ffffff" font-family="Arial" font-size="14px" font-style="normal" font-weight="normal" text-decoration="normal" x="200" y="215.808" text-anchor="middle" stroke-miterlimit="2" stroke-width="3" stroke-dasharray="">1</text><text fill="#000000" stroke="none" font-family="Arial" font-size="14px" font-style="normal" font-weight="normal" text-decoration="normal" x="200" y="215.808" text-anchor="middle">1</text></g><g class="dcg-svg-axis-value"><text fill="none" stroke="#ffffff" font-family="Arial" font-size="14px" font-style="normal" font-weight="normal" text-decoration="normal" x="300" y="215.808" text-anchor="middle" stroke-miterlimit="2" stroke-width="3" stroke-dasharray="">2</text><text fill="#000000" stroke="none" font-family="Arial" font-size="14px" font-style="normal" font-weight="normal" text-decoration="normal" x="300" y="215.808" text-anchor="middle">2</text></g><g class="dcg-svg-axis-value"><text fill="none" stroke="#ffffff" font-family="Arial" font-size="14px" font-style="normal" font-weight="normal" text-decoration="normal" x="400" y="215.808" text-anchor="middle" stroke-miterlimit="2" stroke-width="3" stroke-dasharray="">3</text><text fill="#000000" stroke="none" font-family="Arial" font-size="14px" font-style="normal" font-weight="normal" text-decoration="normal" x="400" y="215.808" text-anchor="middle">3</text></g><g class="dcg-svg-axis-value"><text fill="none" stroke="#ffffff" font-family="Arial" font-size="14px" font-style="normal" font-weight="normal" text-decoration="normal" x="500" y="215.808" text-anchor="middle" stroke-miterlimit="2" stroke-width="3" stroke-dasharray="">4</text><text fill="#000000" stroke="none" font-family="Arial" font-size="14px" font-style="normal" font-weight="normal" text-decoration="normal" x="500" y="215.808" text-anchor="middle">4</text></g><g class="dcg-svg-axis-value dcg-svg-offcenter-axis-value"><text fill="none" stroke="#ffffff" font-family="Arial" font-size="14px" font-style="normal" font-weight="normal" text-decoration="normal" x="593.10693359375" y="215.808" text-anchor="middle" stroke-miterlimit="2" stroke-width="3" stroke-dasharray="">5</text><text fill="#000000" stroke="none" font-family="Arial" font-size="14px" font-style="normal" font-weight="normal" text-decoration="normal" x="593.10693359375" y="215.808" text-anchor="middle">5</text></g><g class="dcg-svg-axis-value"><text fill="none" stroke="#ffffff" font-family="Arial" font-size="14px" font-style="normal" font-weight="normal" text-decoration="normal" x="88.77587890625" y="363.808" text-anchor="middle" stroke-miterlimit="2" stroke-width="3" stroke-dasharray="">-4</text><text fill="#000000" stroke="none" font-family="Arial" font-size="14px" font-style="normal" font-weight="normal" text-decoration="normal" x="88.77587890625" y="363.808" text-anchor="middle">-4</text></g><g class="dcg-svg-axis-value"><text fill="none" stroke="#ffffff" font-family="Arial" font-size="14px" font-style="normal" font-weight="normal" text-decoration="normal" x="88.77587890625" y="283.808" text-anchor="middle" stroke-miterlimit="2" stroke-width="3" stroke-dasharray="">-2</text><text fill="#000000" stroke="none" font-family="Arial" font-size="14px" font-style="normal" font-weight="normal" text-decoration="normal" x="88.77587890625" y="283.808" text-anchor="middle">-2</text></g><g class="dcg-svg-axis-value"><text fill="none" stroke="#ffffff" font-family="Arial" font-size="14px" font-style="normal" font-weight="normal" text-decoration="normal" x="91.10693359375" y="123.808" text-anchor="middle" stroke-miterlimit="2" stroke-width="3" stroke-dasharray="">2</text><text fill="#000000" stroke="none" font-family="Arial" font-size="14px" font-style="normal" font-weight="normal" text-decoration="normal" x="91.10693359375" y="123.808" text-anchor="middle">2</text></g><g class="dcg-svg-axis-value"><text fill="none" stroke="#ffffff" font-family="Arial" font-size="14px" font-style="normal" font-weight="normal" text-decoration="normal" x="91.10693359375" y="43.808" text-anchor="middle" stroke-miterlimit="2" stroke-width="3" stroke-dasharray="">4</text><text fill="#000000" stroke="none" font-family="Arial" font-size="14px" font-style="normal" font-weight="normal" text-decoration="normal" x="91.10693359375" y="43.808" text-anchor="middle">4</text></g></g></g></g><g id="expressions-72894bb5"><g id="sketch-72894bb5"><title>Expression 1</title><path fill="#2d70b3" stroke="none" paint-order="stroke fill markers" d="" fill-opacity="0.4"/><g><path fill="none" stroke="#2d70b3" class="dcg-svg-curve" paint-order="fill stroke markers" d=" M -0.5 239.5 L -0.5 239.5 L 4.7734375 241.72680412371133 L 9.607421875 243.9975556762629 L 14.1484375 246.3649885583524 L 18.396484375 248.819686935581 L 22.3515625 251.34810126582278 L 26.16015625 254.0406125166445 L 29.822265625 256.9071478626489 L 33.337890625 259.95756457564573 L 36.70703125 263.201399688958 L 39.9296875 266.6475409836065 L 43.005859375 270.30380293863436 L 45.935546875 274.1763901549681 L 48.71875 278.2692307692308 L 51.501953125 282.83672431332656 L 54.138671875 287.6808396124865 L 56.62890625 292.80296127562644 L 59.119140625 298.5568319226119 L 61.462890625 304.6604621309371 L 63.806640625 311.5656634746922 L 66.00390625 318.91690962099125 L 68.201171875 327.3003120124805 L 70.251953125 336.2612687813022 L 72.302734375 346.57360861759423 L 74.20703125 357.6467181467182 L 76.111328125 370.52296450939457 L 77.869140625 384.42099322799095 L 79.626953125 400.7776412776413 L 80.05540800094604 405.5" stroke-linecap="round" stroke-linejoin="round" stroke-miterlimit="10" stroke-width="2.5" stroke-opacity="0.9" stroke-dasharray=""/></g><g><path fill="none" stroke="#2d70b3" class="dcg-svg-curve" paint-order="fill stroke markers" d=" M 119.04101026058197 -5.5 L 119.04101026058197 -5.5 L 120.349609375 7.649882903981279 L 122.107421875 22.566954643628492 L 124.01171875 36.312749003984095 L 125.916015625 48.076709796672844 L 127.966796875 58.98542024013716 L 130.1640625 69.05414012738856 L 132.361328125 77.77637444279344 L 134.705078125 85.88002773925103 L 137.048828125 92.97204161248374 L 139.5390625 99.59756097560972 L 142.029296875 105.447187141217 L 144.666015625 110.93783783783783 L 147.302734375 115.8227783452503 L 150.0859375 120.42664092664097 L 153.015625 124.75547445255478 L 155.9453125 128.6349480968858 L 159.021484375 132.2973748974569 L 162.244140625 135.74902723735408 L 165.61328125 138.9977843426883 L 169.12890625 142.05259467040673 L 172.791015625 144.9230512991339 L 176.599609375 147.61906269791007 L 180.5546875 150.15060240963857 L 184.802734375 152.6081854607899 L 189.34375 154.97826086956522 L 194.177734375 157.2514182568334 L 199.3046875 159.42172211350294 L 204.87109375 161.5389249304912 L 210.876953125 163.58592722490135 L 217.46875 165.59271523178808 L 224.79296875 167.57482462977396 L 232.99609375 169.53657644476957 L 242.37109375 171.50273410799727 L 253.2109375 173.47712833545108 L 265.515625 175.40588235294118 L 278.9921875 177.21490750816105 L 293.93359375 178.92742340532394 L 310.6328125 180.554579093432 L 329.3828125 182.0998300764656 L 350.4765625 183.56225680933852 L 374.5 184.95454545454547 L 402.0390625 186.27856681730148 L 433.826171875 187.53563604498322 L 470.740234375 188.72530580034197 L 513.953125 189.8487276154571 L 565.076171875 190.90849501835345 L 599.5 191.5" stroke-linecap="round" stroke-linejoin="round" stroke-miterlimit="10" stroke-width="2.5" stroke-opacity="0.9" stroke-dasharray=""/></g></g><g id="sketch-72894bb5"><title>α = -1</title><path fill="none" stroke="#285680" class="dcg-svg-point" paint-order="fill stroke markers" d=" M 599.4 191.4 L 599.4 191.6 L 599.6 191.6 L 599.6 191.4" stroke-linecap="round" stroke-linejoin="round" stroke-miterlimit="10" stroke-width="9" stroke-opacity="0.9" stroke-dasharray=""/></g><g id="sketch-72894bb5"><title>Expression 3</title><path fill="#388c46" stroke="none" paint-order="stroke fill markers" d="" fill-opacity="0.4"/><g><path fill="none" stroke="#388c46" class="dcg-svg-curve" paint-order="fill stroke markers" d=" M -0.5 159.5 L -0.5 159.5 L 1.2578125 153.40266710152574 L 3.015625 146.2396412106268 L 4.7734375 137.7999138655805 L 6.53125 127.82560143607685 L 8.2890625 116.00035393721203 L 9.900390625 103.20337615374899 L 11.51171875 88.15741072618312 L 13.123046875 70.41465301782938 L 14.734375 49.42724923388016 L 16.345703125 24.522411836043943 L 17.95703125 -5.129310350583751 L 17.97389212369539 -5.5" stroke-linecap="round" stroke-linejoin="round" stroke-miterlimit="10" stroke-width="2.5" stroke-opacity="0.9" stroke-dasharray=""/></g><g><path fill="none" stroke="#388c46" class="dcg-svg-curve" paint-order="fill stroke markers" d=" M 181.04781820823325 -5.5 L 181.04781820823325 -5.5 L 182.3125 18.66069620590781 L 184.0703125 46.632026523447166 L 185.828125 69.82939881637742 L 187.5859375 89.14110480186503 L 189.34375 105.27697875965737 L 191.1015625 118.80680017465846 L 192.859375 130.1899030651524 L 194.6171875 139.79812244304395 L 196.375 147.933664817257 L 198.279296875 155.37014021112674 L 200.18359375 161.6217137109208 L 202.087890625 166.89447551879582 L 203.9921875 171.3557666496214 L 205.896484375 175.14199205521692 L 207.80078125 178.36475554931917 L 209.8515625 181.31002523445216 L 211.90234375 183.80153983103324 L 213.953125 185.91565349158182 L 216.150390625 187.83269874319285 L 218.34765625 189.45071834325847 L 220.69140625 190.9042180047545 L 223.181640625 192.19503580775805 L 225.96484375 193.3863369798919 L 229.041015625 194.45569184160829 L 232.556640625 195.42837701976646 L 236.8046875 196.33351759628553 L 242.224609375 197.1768936768515 L 248.5234375 197.85553976762827 L 256.287109375 198.40458882981454 L 266.39453125 198.83545691586966 L 280.45703125 199.15209850908843 L 302.576171875 199.36171080554362 L 346.66796875 199.47128409663446 L 517.615234375 199.49957175524005 L 599.5 199.4998976" stroke-linecap="round" stroke-linejoin="round" stroke-miterlimit="10" stroke-width="2.5" stroke-opacity="0.9" stroke-dasharray=""/></g></g><g id="sketch-72894bb5"><title>α &lt; -1</title><path fill="none" stroke="#28803C" class="dcg-svg-point" paint-order="fill stroke markers" d=" M 179.4 -0.6 L 179.4 -0.4 L 179.6 -0.4 L 179.6 -0.6" stroke-linecap="round" stroke-linejoin="round" stroke-miterlimit="10" stroke-width="9" stroke-opacity="0.9" stroke-dasharray=""/></g><g id="sketch-72894bb5"><title>Expression 5</title><path fill="#6042a6" stroke="none" paint-order="stroke fill markers" d="" fill-opacity="0.4"/><g><path fill="none" stroke="#6042a6" class="dcg-svg-curve" paint-order="fill stroke markers" d=" M -0.5 239.5 L -0.5 239.5 L 15.3203125 240.90173387947794 L 28.50390625 242.3364133346325 L 39.63671875 243.8228713911383 L 49.01171875 245.35871423672788 L 56.921875 246.94852155259176 L 63.220703125 248.49234406844732 L 68.201171875 249.9608283959427 L 72.302734375 251.39851636569028 L 75.818359375 252.85530834422678 L 78.89453125 254.36097119677606 L 81.53125 255.8840695439735 L 83.875 257.48237309421563 L 85.92578125 259.13716947590376 L 87.830078125 260.96762054485004 L 89.587890625 263.0077569758108 L 91.052734375 265.0717479995541 L 92.37109375 267.33524699222124 L 93.689453125 270.1669893822558 L 94.861328125 273.42328549858587 L 95.88671875 277.2104882910626 L 96.765625 281.6652869671482 L 97.498046875 286.9518921359226 L 98.083984375 293.2230432979709 L 98.5234375 300.45317511683095 L 98.962890625 313.27515733767177 L 99.255859375 332.7085131842997 L 99.40234375 359.5 L 99.40234375 405.5" stroke-linecap="round" stroke-linejoin="round" stroke-miterlimit="10" stroke-width="2.5" stroke-opacity="0.9" stroke-dasharray=""/></g><g><path fill="none" stroke="#6042a6" class="dcg-svg-curve" paint-order="fill stroke markers" d=" M 99.548828125 -5.5 L 99.548828125 -5.5 L 99.548828125 15.708263200474448 L 99.841796875 74.96071335181267 L 100.28125 93.93936713816845 L 100.8671875 105.1168700229776 L 101.599609375 112.87718546080032 L 102.478515625 118.728152845149 L 103.50390625 123.3687060397607 L 104.67578125 127.17893569926537 L 105.84765625 130.07157531484114 L 107.166015625 132.64312835406872 L 108.630859375 134.94087129502793 L 110.2421875 137.0055506701941 L 112 138.8713373395841 L 114.05078125 140.6857275586744 L 116.248046875 142.3169708082093 L 118.73828125 143.88054392309596 L 121.521484375 145.3634378209577 L 124.744140625 146.82217039399157 L 128.40625 148.23019797495925 L 132.654296875 149.61706173095206 L 137.634765625 150.99396508799515 L 143.640625 152.39225714829934 L 151.111328125 153.8426202120347 L 160.33984375 155.32033958895562 L 171.1796875 156.74560447006397 L 183.77734375 158.1078654106522 L 198.71875 159.43720534222348 L 216.443359375 160.73276041512946 L 237.537109375 161.9974481570261 L 262.732421875 163.23407939235366 L 293.0546875 164.44909363820915 L 329.529296875 165.63872078225472 L 373.62109375 166.80574089469346 L 427.087890625 167.950358884067 L 492.126953125 169.07266126320457 L 571.66796875 170.17481996984696 L 599.5 170.50881345289218" stroke-linecap="round" stroke-linejoin="round" stroke-miterlimit="10" stroke-width="2.5" stroke-opacity="0.9" stroke-dasharray=""/></g></g><g id="sketch-72894bb5"><title>-1 &lt; α &lt; 0</title><path fill="none" stroke="#583064" class="dcg-svg-point" paint-order="fill stroke markers" d=" M 399.4 167.4 L 399.4 167.6 L 399.6 167.6 L 399.6 167.4" stroke-linecap="round" stroke-linejoin="round" stroke-miterlimit="10" stroke-width="9" stroke-opacity="0.9" stroke-dasharray=""/></g><g id="sketch-72894bb5"><title>(1,1)</title><path fill="white" stroke="#000000" class="dcg-svg-point" paint-order="fill stroke markers" d=" M 203.28 159.5 L 203.28 159.5 A 3.78 3.78 0 1 0 203.27999811000015 159.50377999937 Z" fill-opacity="0.9" stroke-linecap="round" stroke-linejoin="round" stroke-miterlimit="10" stroke-width="2.25" stroke-opacity="0.9" stroke-dasharray=""/></g></g><g id="labels-72894bb5"><g transform="rotate(0,0,0) translate(600,192)"><g class="dcg-svg-label"><g transform="translate(-46.5,-26.5)"><g><text fill="none" stroke="#FFF" font-family="arial, sans-serif" font-size="15.399999618530273px" font-style="normal" font-weight="normal" text-decoration="normal" x="0" y="14.488800086975097" text-anchor="start" stroke-linecap="round" stroke-linejoin="round" stroke-miterlimit="2" stroke-width="3" stroke-dasharray="">α = -1</text></g></g><g transform="translate(-46.5,-26.5)"><g><text fill="rgb(40, 86, 128)" stroke="none" font-family="arial, sans-serif" font-size="15.399999618530273px" font-style="normal" font-weight="normal" text-decoration="normal" x="0" y="14.488800086975097" text-anchor="start">α = -1</text></g></g></g></g><g transform="rotate(0,0,0) translate(180,0)"><g class="dcg-svg-label"><g transform="translate(-46.5,6.5)"><g><text fill="none" stroke="#FFF" font-family="arial, sans-serif" font-size="15.399999618530273px" font-style="normal" font-weight="normal" text-decoration="normal" x="0" y="14.488800086975097" text-anchor="start" stroke-linecap="round" stroke-linejoin="round" stroke-miterlimit="2" stroke-width="3" stroke-dasharray="">α &lt; -1</text></g></g><g transform="translate(-46.5,6.5)"><g><text fill="rgb(40, 128, 60)" stroke="none" font-family="arial, sans-serif" font-size="15.399999618530273px" font-style="normal" font-weight="normal" text-decoration="normal" x="0" y="14.488800086975097" text-anchor="start">α &lt; -1</text></g></g></g></g><g transform="rotate(0,0,0) translate(400,168)"><g class="dcg-svg-label"><g transform="translate(-72,-26.5)"><g><text fill="none" stroke="#FFF" font-family="arial, sans-serif" font-size="15.399999618530273px" font-style="normal" font-weight="normal" text-decoration="normal" x="0" y="14.488800086975097" text-anchor="start" stroke-linecap="round" stroke-linejoin="round" stroke-miterlimit="2" stroke-width="3" stroke-dasharray="">-1 &lt; α &lt; 0</text></g></g><g transform="translate(-72,-26.5)"><g><text fill="rgb(88, 48, 100)" stroke="none" font-family="arial, sans-serif" font-size="15.399999618530273px" font-style="normal" font-weight="normal" text-decoration="normal" x="0" y="14.488800086975097" text-anchor="start">-1 &lt; α &lt; 0</text></g></g></g></g><g transform="rotate(0,0,0) translate(200,160)"><g class="dcg-svg-label"><g transform="translate(6.5,-26.5)"><g><text fill="none" stroke="#FFF" font-family="arial, sans-serif" font-size="15.399999618530273px" font-style="normal" font-weight="normal" text-decoration="normal" x="0" y="14.488800086975097" text-anchor="start" stroke-linecap="round" stroke-linejoin="round" stroke-miterlimit="2" stroke-width="3" stroke-dasharray="">(1,1)</text></g></g><g transform="translate(6.5,-26.5)"><g><text fill="rgb(0, 0, 0)" stroke="none" font-family="arial, sans-serif" font-size="15.399999618530273px" font-style="normal" font-weight="normal" text-decoration="normal" x="0" y="14.488800086975097" text-anchor="start">(1,1)</text></g></g></g></g></g></g></svg>