<svg version="1.1" xmlns="http://www.w3.org/2000/svg" xmlns:xlink="http://www.w3.org/1999/xlink" width="600" height="400"><defs/><g transform="scale(1,1)"><g id="background-bdb22a60"><rect fill="white" stroke="none" x="0" y="0" width="600" height="400" class="dcg-svg-background"/></g><g id="background-images-bdb22a60"/><g id="graphpaper-bdb22a60"><g id="grid-bdb22a60"><g><path fill="none" stroke="rgb(0,0,0)" class="dcg-svg-minor-gridline" paint-order="fill stroke markers" d=" M -0.5 0 L -0.5 400" stroke-opacity="0.12" stroke-miterlimit="10" stroke-dasharray=""/><path fill="none" stroke="rgb(0,0,0)" class="dcg-svg-minor-gridline" paint-order="fill stroke markers" d=" M 29.5 0 L 29.5 400" stroke-opacity="0.12" stroke-miterlimit="10" stroke-dasharray=""/><path fill="none" stroke="rgb(0,0,0)" class="dcg-svg-minor-gridline" paint-order="fill stroke markers" d=" M 59.5 0 L 59.5 400" stroke-opacity="0.12" stroke-miterlimit="10" stroke-dasharray=""/><path fill="none" stroke="rgb(0,0,0)" class="dcg-svg-minor-gridline" paint-order="fill stroke markers" d=" M 89.5 0 L 89.5 400" stroke-opacity="0.12" stroke-miterlimit="10" stroke-dasharray=""/><path fill="none" stroke="rgb(0,0,0)" class="dcg-svg-minor-gridline" paint-order="fill stroke markers" d=" M 119.5 0 L 119.5 400" stroke-opacity="0.12" stroke-miterlimit="10" stroke-dasharray=""/><path fill="none" stroke="rgb(0,0,0)" class="dcg-svg-minor-gridline" paint-order="fill stroke markers" d=" M 149.5 0 L 149.5 400" stroke-opacity="0.12" stroke-miterlimit="10" stroke-dasharray=""/><path fill="none" stroke="rgb(0,0,0)" class="dcg-svg-minor-gridline" paint-order="fill stroke markers" d=" M 179.5 0 L 179.5 400" stroke-opacity="0.12" stroke-miterlimit="10" stroke-dasharray=""/><path fill="none" stroke="rgb(0,0,0)" class="dcg-svg-minor-gridline" paint-order="fill stroke markers" d=" M 209.5 0 L 209.5 400" stroke-opacity="0.12" stroke-miterlimit="10" stroke-dasharray=""/><path fill="none" stroke="rgb(0,0,0)" class="dcg-svg-minor-gridline" paint-order="fill stroke markers" d=" M 239.5 0 L 239.5 400" stroke-opacity="0.12" stroke-miterlimit="10" stroke-dasharray=""/><path fill="none" stroke="rgb(0,0,0)" class="dcg-svg-minor-gridline" paint-order="fill stroke markers" d=" M 269.5 0 L 269.5 400" stroke-opacity="0.12" stroke-miterlimit="10" stroke-dasharray=""/><path fill="none" stroke="rgb(0,0,0)" class="dcg-svg-minor-gridline" paint-order="fill stroke markers" d=" M 329.5 0 L 329.5 400" stroke-opacity="0.12" stroke-miterlimit="10" stroke-dasharray=""/><path fill="none" stroke="rgb(0,0,0)" class="dcg-svg-minor-gridline" paint-order="fill stroke markers" d=" M 359.5 0 L 359.5 400" stroke-opacity="0.12" stroke-miterlimit="10" stroke-dasharray=""/><path fill="none" stroke="rgb(0,0,0)" class="dcg-svg-minor-gridline" paint-order="fill stroke markers" d=" M 389.5 0 L 389.5 400" stroke-opacity="0.12" stroke-miterlimit="10" stroke-dasharray=""/><path fill="none" stroke="rgb(0,0,0)" class="dcg-svg-minor-gridline" paint-order="fill stroke markers" d=" M 419.5 0 L 419.5 400" stroke-opacity="0.12" stroke-miterlimit="10" stroke-dasharray=""/><path fill="none" stroke="rgb(0,0,0)" class="dcg-svg-minor-gridline" paint-order="fill stroke markers" d=" M 449.5 0 L 449.5 400" stroke-opacity="0.12" stroke-miterlimit="10" stroke-dasharray=""/><path fill="none" stroke="rgb(0,0,0)" class="dcg-svg-minor-gridline" paint-order="fill stroke markers" d=" M 479.5 0 L 479.5 400" stroke-opacity="0.12" stroke-miterlimit="10" stroke-dasharray=""/><path fill="none" stroke="rgb(0,0,0)" class="dcg-svg-minor-gridline" paint-order="fill stroke markers" d=" M 509.5 0 L 509.5 400" stroke-opacity="0.12" stroke-miterlimit="10" stroke-dasharray=""/><path fill="none" stroke="rgb(0,0,0)" class="dcg-svg-minor-gridline" paint-order="fill stroke markers" d=" M 539.5 0 L 539.5 400" stroke-opacity="0.12" stroke-miterlimit="10" stroke-dasharray=""/><path fill="none" stroke="rgb(0,0,0)" class="dcg-svg-minor-gridline" paint-order="fill stroke markers" d=" M 569.5 0 L 569.5 400" stroke-opacity="0.12" stroke-miterlimit="10" stroke-dasharray=""/><path fill="none" stroke="rgb(0,0,0)" class="dcg-svg-minor-gridline" paint-order="fill stroke markers" d=" M 0 370.5 L 600 370.5" stroke-opacity="0.12" stroke-miterlimit="10" stroke-dasharray=""/><path fill="none" stroke="rgb(0,0,0)" class="dcg-svg-minor-gridline" paint-order="fill stroke markers" d=" M 0 342.5 L 600 342.5" stroke-opacity="0.12" stroke-miterlimit="10" stroke-dasharray=""/><path fill="none" stroke="rgb(0,0,0)" class="dcg-svg-minor-gridline" paint-order="fill stroke markers" d=" M 0 313.5 L 600 313.5" stroke-opacity="0.12" stroke-miterlimit="10" stroke-dasharray=""/><path fill="none" stroke="rgb(0,0,0)" class="dcg-svg-minor-gridline" paint-order="fill stroke markers" d=" M 0 285.5 L 600 285.5" stroke-opacity="0.12" stroke-miterlimit="10" stroke-dasharray=""/><path fill="none" stroke="rgb(0,0,0)" class="dcg-svg-minor-gridline" paint-order="fill stroke markers" d=" M 0 256.5 L 600 256.5" stroke-opacity="0.12" stroke-miterlimit="10" stroke-dasharray=""/><path fill="none" stroke="rgb(0,0,0)" class="dcg-svg-minor-gridline" paint-order="fill stroke markers" d=" M 0 228.5 L 600 228.5" stroke-opacity="0.12" stroke-miterlimit="10" stroke-dasharray=""/><path fill="none" stroke="rgb(0,0,0)" class="dcg-svg-minor-gridline" paint-order="fill stroke markers" d=" M 0 170.5 L 600 170.5" stroke-opacity="0.12" stroke-miterlimit="10" stroke-dasharray=""/><path fill="none" stroke="rgb(0,0,0)" class="dcg-svg-minor-gridline" paint-order="fill stroke markers" d=" M 0 142.5 L 600 142.5" stroke-opacity="0.12" stroke-miterlimit="10" stroke-dasharray=""/><path fill="none" stroke="rgb(0,0,0)" class="dcg-svg-minor-gridline" paint-order="fill stroke markers" d=" M 0 113.5 L 600 113.5" stroke-opacity="0.12" stroke-miterlimit="10" stroke-dasharray=""/><path fill="none" stroke="rgb(0,0,0)" class="dcg-svg-minor-gridline" paint-order="fill stroke markers" d=" M 0 85.5 L 600 85.5" stroke-opacity="0.12" stroke-miterlimit="10" stroke-dasharray=""/><path fill="none" stroke="rgb(0,0,0)" class="dcg-svg-minor-gridline" paint-order="fill stroke markers" d=" M 0 56.5 L 600 56.5" stroke-opacity="0.12" stroke-miterlimit="10" stroke-dasharray=""/><path fill="none" stroke="rgb(0,0,0)" class="dcg-svg-minor-gridline" paint-order="fill stroke markers" d=" M 0 28.5 L 600 28.5" stroke-opacity="0.12" stroke-miterlimit="10" stroke-dasharray=""/><path fill="none" stroke="rgb(0,0,0)" class="dcg-svg-minor-gridline" paint-order="fill stroke markers" d=" M 0 -0.5 L 600 -0.5" stroke-opacity="0.12" stroke-miterlimit="10" stroke-dasharray=""/><path fill="none" stroke="rgb(0,0,0)" class="dcg-svg-major-gridline" paint-order="fill stroke markers" d=" M -0.5 0 L -0.5 400" stroke-opacity="0.31818181818181823" stroke-miterlimit="10" stroke-dasharray=""/><path fill="none" stroke="rgb(0,0,0)" class="dcg-svg-major-gridline" paint-order="fill stroke markers" d=" M 149.5 0 L 149.5 400" stroke-opacity="0.31818181818181823" stroke-miterlimit="10" stroke-dasharray=""/><path fill="none" stroke="rgb(0,0,0)" class="dcg-svg-major-gridline" paint-order="fill stroke markers" d=" M 449.5 0 L 449.5 400" stroke-opacity="0.31818181818181823" stroke-miterlimit="10" stroke-dasharray=""/><path fill="none" stroke="rgb(0,0,0)" class="dcg-svg-major-gridline" paint-order="fill stroke markers" d=" M 0 342.5 L 600 342.5" stroke-opacity="0.31818181818181823" stroke-miterlimit="10" stroke-dasharray=""/><path fill="none" stroke="rgb(0,0,0)" class="dcg-svg-major-gridline" paint-order="fill stroke markers" d=" M 0 56.5 L 600 56.5" stroke-opacity="0.31818181818181823" stroke-miterlimit="10" stroke-dasharray=""/></g></g><g id="axis-bdb22a60"><g id="yaxis-bdb22a60"><title>Y axis</title><path fill="none" stroke="rgb(0,0,0)" class="dcg-svg-axis-line" paint-order="fill stroke markers" d=" M 299.75 0 L 299.75 400" stroke-opacity="0.9" stroke-miterlimit="10" stroke-width="1.5" stroke-dasharray=""/></g><g id="xaxis-bdb22a60"><title>X axis</title><path fill="none" stroke="rgb(0,0,0)" class="dcg-svg-axis-line" paint-order="fill stroke markers" d=" M 0 199.75 L 600 199.75" stroke-opacity="0.9" stroke-miterlimit="10" stroke-width="1.5" stroke-dasharray=""/></g><g><g class="dcg-svg-axis-value"><text fill="none" stroke="#ffffff" font-family="Arial" font-size="14px" font-style="normal" font-weight="normal" text-decoration="normal" x="291.10693359375" y="215.808" text-anchor="middle" stroke-miterlimit="2" stroke-width="3" stroke-dasharray="">0</text><text fill="#000000" stroke="none" font-family="Arial" font-size="14px" font-style="normal" font-weight="normal" text-decoration="normal" x="291.10693359375" y="215.808" text-anchor="middle">0</text></g><g class="dcg-svg-axis-value dcg-svg-offcenter-axis-value"><text fill="none" stroke="#ffffff" font-family="Arial" font-size="14px" font-style="normal" font-weight="normal" text-decoration="normal" x="13.1171875" y="215.808" text-anchor="middle" stroke-miterlimit="2" stroke-width="3" stroke-dasharray="">-10</text><text fill="#000000" stroke="none" font-family="Arial" font-size="14px" font-style="normal" font-weight="normal" text-decoration="normal" x="13.1171875" y="215.808" text-anchor="middle">-10</text></g><g class="dcg-svg-axis-value"><text fill="none" stroke="#ffffff" font-family="Arial" font-size="14px" font-style="normal" font-weight="normal" text-decoration="normal" x="147.6689453125" y="215.808" text-anchor="middle" stroke-miterlimit="2" stroke-width="3" stroke-dasharray="">-5</text><text fill="#000000" stroke="none" font-family="Arial" font-size="14px" font-style="normal" font-weight="normal" text-decoration="normal" x="147.6689453125" y="215.808" text-anchor="middle">-5</text></g><g class="dcg-svg-axis-value"><text fill="none" stroke="#ffffff" font-family="Arial" font-size="14px" font-style="normal" font-weight="normal" text-decoration="normal" x="450" y="215.808" text-anchor="middle" stroke-miterlimit="2" stroke-width="3" stroke-dasharray="">5</text><text fill="#000000" stroke="none" font-family="Arial" font-size="14px" font-style="normal" font-weight="normal" text-decoration="normal" x="450" y="215.808" text-anchor="middle">5</text></g><g class="dcg-svg-axis-value dcg-svg-offcenter-axis-value"><text fill="none" stroke="#ffffff" font-family="Arial" font-size="14px" font-style="normal" font-weight="normal" text-decoration="normal" x="589.2138671875" y="215.808" text-anchor="middle" stroke-miterlimit="2" stroke-width="3" stroke-dasharray="">10</text><text fill="#000000" stroke="none" font-family="Arial" font-size="14px" font-style="normal" font-weight="normal" text-decoration="normal" x="589.2138671875" y="215.808" text-anchor="middle">10</text></g><g class="dcg-svg-axis-value"><text fill="none" stroke="#ffffff" font-family="Arial" font-size="14px" font-style="normal" font-weight="normal" text-decoration="normal" x="288.77587890625" y="346.6651428571428" text-anchor="middle" stroke-miterlimit="2" stroke-width="3" stroke-dasharray="">-5</text><text fill="#000000" stroke="none" font-family="Arial" font-size="14px" font-style="normal" font-weight="normal" text-decoration="normal" x="288.77587890625" y="346.6651428571428" text-anchor="middle">-5</text></g><g class="dcg-svg-axis-value"><text fill="none" stroke="#ffffff" font-family="Arial" font-size="14px" font-style="normal" font-weight="normal" text-decoration="normal" x="291.10693359375" y="60.95085714285717" text-anchor="middle" stroke-miterlimit="2" stroke-width="3" stroke-dasharray="">5</text><text fill="#000000" stroke="none" font-family="Arial" font-size="14px" font-style="normal" font-weight="normal" text-decoration="normal" x="291.10693359375" y="60.95085714285717" text-anchor="middle">5</text></g></g></g></g><g id="expressions-bdb22a60"><g id="sketch-bdb22a60"><title>Expression 1</title><path fill="#2d70b3" stroke="none" paint-order="stroke fill markers" d="" fill-opacity="0.4"/><g><path fill="none" stroke="#2d70b3" class="dcg-svg-curve" paint-order="fill stroke markers" d=" M -0.5 243.59062717707292 L -0.5 243.59062717707292 L 1.84375 248.90450772432118 L 4.041015625 253.09018794258697 L 6.091796875 256.29263065022866 L 7.99609375 258.6533675234791 L 9.900390625 260.4227910501111 L 11.51171875 261.45921152925416 L 12.9765625 262.03688017959394 L 14.294921875 262.2621755066652 L 15.61328125 262.2109605209946 L 16.931640625 261.88629154087386 L 18.25 261.291757111926 L 19.71484375 260.3196693324751 L 21.47265625 258.72911814847834 L 23.376953125 256.497736267136 L 25.427734375 253.52350085601518 L 27.625 249.70702047482118 L 29.96875 244.95509192386686 L 32.458984375 239.18478468282828 L 35.2421875 231.92597150293807 L 38.318359375 223.00978863070227 L 41.833984375 211.82659029692758 L 45.935546875 197.69213814752123 L 51.0625 178.85038442269095 L 69.958984375 108.26603625127154 L 74.060546875 94.69002384496349 L 77.72265625 83.58911574127842 L 80.9453125 74.7448934408344 L 84.021484375 67.19751290425137 L 86.8046875 61.17865928938795 L 89.44140625 56.224341240932574 L 91.931640625 52.23846585436087 L 94.275390625 49.11805642606362 L 96.47265625 46.75741790696719 L 98.5234375 45.05148334335212 L 100.427734375 43.898415361035404 L 102.185546875 43.20155043943498 L 103.796875 42.8707798377643 L 105.26171875 42.82346139209676 L 106.873046875 43.046855523963416 L 108.484375 43.55454585285878 L 110.2421875 44.426458507072084 L 112.146484375 45.736586593086145 L 114.197265625 47.55969214184955 L 116.541015625 50.14608880947401 L 119.03125 53.45239383640984 L 121.66796875 57.54039220714111 L 124.59765625 62.73440715712303 L 127.8203125 69.15906627034826 L 131.3359375 76.9034985801984 L 135.4375 86.73088435657485 L 140.564453125 99.88526120100715 L 149.646484375 124.2502261575209 L 156.970703125 143.50042853610017 L 161.951171875 155.74362623129866 L 166.19921875 165.36979657087164 L 170.0078125 173.21895906861607 L 173.5234375 179.7216907296207 L 176.74609375 185.0030455770066 L 179.822265625 189.4048123955912 L 182.751953125 192.99673800940863 L 185.53515625 195.85710878143692 L 188.171875 198.06848684664928 L 190.662109375 199.7142683662973 L 193.005859375 200.87600873675447 L 195.203125 201.63143739953097 L 197.25390625 202.0530725930305 L 199.3046875 202.20997900345026 L 201.35546875 202.11231195553586 L 203.552734375 201.738228870325 L 205.896484375 201.0492996513043 L 208.38671875 200.01229740577506 L 211.0234375 198.60131262132302 L 214.099609375 196.5934441401482 L 217.615234375 193.89267809247502 L 221.86328125 190.17534355729072 L 227.72265625 184.52028340417334 L 241.4921875 171.06907709620313 L 246.1796875 167.10182883445384 L 250.134765625 164.19674445352524 L 253.650390625 162.01711531774873 L 256.873046875 160.3873186106832 L 259.802734375 159.23045392370673 L 262.5859375 158.42792765373767 L 265.22265625 157.93810174650517 L 267.859375 157.71123473079984 L 270.49609375 157.74344547528565 L 273.1328125 158.0273136436617 L 275.916015625 158.5879641082022 L 278.845703125 159.44966624149032 L 282.068359375 160.69105556267763 L 285.583984375 162.35297835311854 L 289.685546875 164.62469665632526 L 294.958984375 167.91829221478474 L 311.072265625 178.24433854397284 L 315.173828125 180.37210894576455 L 318.689453125 181.87933336326935 L 321.912109375 182.9567238792004 L 324.841796875 183.65369180535336 L 327.625 184.04657068878808 L 330.26171875 184.16366283708405 L 332.8984375 184.02376354165955 L 335.53515625 183.62179878243072 L 338.171875 182.9563053103002 L 340.955078125 181.97045536238838 L 343.884765625 180.62610221333182 L 346.9609375 178.89106863263373 L 350.330078125 176.6371612214583 L 354.138671875 173.69181556168294 L 358.6796875 169.72310933847578 L 364.685546875 163.944683802726 L 378.748046875 150.22255470651882 L 383.142578125 146.56503883269602 L 386.658203125 144.07161873008084 L 389.734375 142.28098936598332 L 392.37109375 141.08134308168133 L 394.861328125 140.2638356681113 L 397.05859375 139.8179200716492 L 399.255859375 139.64703308759124 L 401.306640625 139.74848683595832 L 403.357421875 140.11260872522217 L 405.408203125 140.74845556651547 L 407.60546875 141.73983605707673 L 409.802734375 143.0591784797627 L 412.146484375 144.83379284378918 L 414.783203125 147.28759805508244 L 417.56640625 150.403448408518 L 420.49609375 154.2607171164755 L 423.572265625 158.93346154920866 L 426.794921875 164.48605933900197 L 430.1640625 170.96803014626778 L 433.826171875 178.73196849593447 L 437.927734375 188.20615239990943 L 442.615234375 199.85213054388993 L 448.767578125 216.03406976221456 L 462.68359375 252.92958624985837 L 467.224609375 263.9380963462506 L 471.033203125 272.3898670446629 L 474.40234375 279.1227357000198 L 477.478515625 284.55894324043106 L 480.26171875 288.8224623005732 L 482.8984375 292.23572422813766 L 485.388671875 294.86107762585505 L 487.5859375 296.66877261182975 L 489.490234375 297.83385853684075 L 491.248046875 298.5682940540873 L 492.859375 298.9473567276396 L 494.470703125 299.04002573351505 L 495.935546875 298.87237981999954 L 497.546875 298.4079907797913 L 499.158203125 297.64811725016557 L 500.916015625 296.4806245681467 L 502.8203125 294.81675870473583 L 505.017578125 292.38288997995437 L 507.21484375 289.4032006553141 L 509.55859375 285.63280161621026 L 512.048828125 280.9731084450112 L 514.685546875 275.3302649886025 L 517.46875 268.6195206862801 L 520.544921875 260.3579520705992 L 523.9140625 250.38011391895083 L 527.576171875 238.56439553100216 L 531.82421875 223.8105508564685 L 537.244140625 203.80582191881814 L 554.67578125 138.49118698814226 L 558.77734375 124.78469751927713 L 562.29296875 114.0669880766921 L 565.369140625 105.62904652861721 L 568.15234375 98.85652200188457 L 570.642578125 93.56150770160002 L 572.986328125 89.2889273923027 L 575.18359375 85.94763328140647 L 577.234375 83.43730181291232 L 579.138671875 81.65248814049295 L 580.896484375 80.48612300231588 L 582.361328125 79.8752463738395 L 583.6796875 79.61105338802383 L 584.998046875 79.62103996871355 L 586.31640625 79.9081426631729 L 587.634765625 80.47475278415101 L 589.099609375 81.4343518070317 L 590.7109375 82.89307806532031 L 592.615234375 85.16284402284856 L 594.51953125 88.02325897818179 L 596.5703125 91.76060403030198 L 598.767578125 96.51269520969902 L 599.5 98.26651568006992" stroke-linecap="round" stroke-linejoin="round" stroke-miterlimit="10" stroke-width="2.5" stroke-opacity="0.9" stroke-dasharray=""/></g></g></g><g id="labels-bdb22a60"/></g></svg>