<svg version="1.1" xmlns="http://www.w3.org/2000/svg" xmlns:xlink="http://www.w3.org/1999/xlink" width="600" height="400"><defs/><g transform="scale(1,1)"><g id="background-79de47bd"><rect fill="white" stroke="none" x="0" y="0" width="600" height="400" class="dcg-svg-background"/></g><g id="background-images-79de47bd"/><g id="graphpaper-79de47bd"><g id="grid-79de47bd"><g><path fill="none" stroke="rgb(0,0,0)" class="dcg-svg-minor-gridline" paint-order="fill stroke markers" d=" M 8.5 0 L 8.5 400" stroke-opacity="0.12" stroke-miterlimit="10" stroke-dasharray=""/><path fill="none" stroke="rgb(0,0,0)" class="dcg-svg-minor-gridline" paint-order="fill stroke markers" d=" M 25.5 0 L 25.5 400" stroke-opacity="0.12" stroke-miterlimit="10" stroke-dasharray=""/><path fill="none" stroke="rgb(0,0,0)" class="dcg-svg-minor-gridline" paint-order="fill stroke markers" d=" M 59.5 0 L 59.5 400" stroke-opacity="0.12" stroke-miterlimit="10" stroke-dasharray=""/><path fill="none" stroke="rgb(0,0,0)" class="dcg-svg-minor-gridline" paint-order="fill stroke markers" d=" M 76.5 0 L 76.5 400" stroke-opacity="0.12" stroke-miterlimit="10" stroke-dasharray=""/><path fill="none" stroke="rgb(0,0,0)" class="dcg-svg-minor-gridline" paint-order="fill stroke markers" d=" M 93.5 0 L 93.5 400" stroke-opacity="0.12" stroke-miterlimit="10" stroke-dasharray=""/><path fill="none" stroke="rgb(0,0,0)" class="dcg-svg-minor-gridline" paint-order="fill stroke markers" d=" M 110.5 0 L 110.5 400" stroke-opacity="0.12" stroke-miterlimit="10" stroke-dasharray=""/><path fill="none" stroke="rgb(0,0,0)" class="dcg-svg-minor-gridline" paint-order="fill stroke markers" d=" M 128.5 0 L 128.5 400" stroke-opacity="0.12" stroke-miterlimit="10" stroke-dasharray=""/><path fill="none" stroke="rgb(0,0,0)" class="dcg-svg-minor-gridline" paint-order="fill stroke markers" d=" M 145.5 0 L 145.5 400" stroke-opacity="0.12" stroke-miterlimit="10" stroke-dasharray=""/><path fill="none" stroke="rgb(0,0,0)" class="dcg-svg-minor-gridline" paint-order="fill stroke markers" d=" M 162.5 0 L 162.5 400" stroke-opacity="0.12" stroke-miterlimit="10" stroke-dasharray=""/><path fill="none" stroke="rgb(0,0,0)" class="dcg-svg-minor-gridline" paint-order="fill stroke markers" d=" M 179.5 0 L 179.5 400" stroke-opacity="0.12" stroke-miterlimit="10" stroke-dasharray=""/><path fill="none" stroke="rgb(0,0,0)" class="dcg-svg-minor-gridline" paint-order="fill stroke markers" d=" M 196.5 0 L 196.5 400" stroke-opacity="0.12" stroke-miterlimit="10" stroke-dasharray=""/><path fill="none" stroke="rgb(0,0,0)" class="dcg-svg-minor-gridline" paint-order="fill stroke markers" d=" M 213.5 0 L 213.5 400" stroke-opacity="0.12" stroke-miterlimit="10" stroke-dasharray=""/><path fill="none" stroke="rgb(0,0,0)" class="dcg-svg-minor-gridline" paint-order="fill stroke markers" d=" M 230.5 0 L 230.5 400" stroke-opacity="0.12" stroke-miterlimit="10" stroke-dasharray=""/><path fill="none" stroke="rgb(0,0,0)" class="dcg-svg-minor-gridline" paint-order="fill stroke markers" d=" M 248.5 0 L 248.5 400" stroke-opacity="0.12" stroke-miterlimit="10" stroke-dasharray=""/><path fill="none" stroke="rgb(0,0,0)" class="dcg-svg-minor-gridline" paint-order="fill stroke markers" d=" M 265.5 0 L 265.5 400" stroke-opacity="0.12" stroke-miterlimit="10" stroke-dasharray=""/><path fill="none" stroke="rgb(0,0,0)" class="dcg-svg-minor-gridline" paint-order="fill stroke markers" d=" M 282.5 0 L 282.5 400" stroke-opacity="0.12" stroke-miterlimit="10" stroke-dasharray=""/><path fill="none" stroke="rgb(0,0,0)" class="dcg-svg-minor-gridline" paint-order="fill stroke markers" d=" M 299.5 0 L 299.5 400" stroke-opacity="0.12" stroke-miterlimit="10" stroke-dasharray=""/><path fill="none" stroke="rgb(0,0,0)" class="dcg-svg-minor-gridline" paint-order="fill stroke markers" d=" M 316.5 0 L 316.5 400" stroke-opacity="0.12" stroke-miterlimit="10" stroke-dasharray=""/><path fill="none" stroke="rgb(0,0,0)" class="dcg-svg-minor-gridline" paint-order="fill stroke markers" d=" M 333.5 0 L 333.5 400" stroke-opacity="0.12" stroke-miterlimit="10" stroke-dasharray=""/><path fill="none" stroke="rgb(0,0,0)" class="dcg-svg-minor-gridline" paint-order="fill stroke markers" d=" M 350.5 0 L 350.5 400" stroke-opacity="0.12" stroke-miterlimit="10" stroke-dasharray=""/><path fill="none" stroke="rgb(0,0,0)" class="dcg-svg-minor-gridline" paint-order="fill stroke markers" d=" M 368.5 0 L 368.5 400" stroke-opacity="0.12" stroke-miterlimit="10" stroke-dasharray=""/><path fill="none" stroke="rgb(0,0,0)" class="dcg-svg-minor-gridline" paint-order="fill stroke markers" d=" M 385.5 0 L 385.5 400" stroke-opacity="0.12" stroke-miterlimit="10" stroke-dasharray=""/><path fill="none" stroke="rgb(0,0,0)" class="dcg-svg-minor-gridline" paint-order="fill stroke markers" d=" M 402.5 0 L 402.5 400" stroke-opacity="0.12" stroke-miterlimit="10" stroke-dasharray=""/><path fill="none" stroke="rgb(0,0,0)" class="dcg-svg-minor-gridline" paint-order="fill stroke markers" d=" M 419.5 0 L 419.5 400" stroke-opacity="0.12" stroke-miterlimit="10" stroke-dasharray=""/><path fill="none" stroke="rgb(0,0,0)" class="dcg-svg-minor-gridline" paint-order="fill stroke markers" d=" M 436.5 0 L 436.5 400" stroke-opacity="0.12" stroke-miterlimit="10" stroke-dasharray=""/><path fill="none" stroke="rgb(0,0,0)" class="dcg-svg-minor-gridline" paint-order="fill stroke markers" d=" M 453.5 0 L 453.5 400" stroke-opacity="0.12" stroke-miterlimit="10" stroke-dasharray=""/><path fill="none" stroke="rgb(0,0,0)" class="dcg-svg-minor-gridline" paint-order="fill stroke markers" d=" M 470.5 0 L 470.5 400" stroke-opacity="0.12" stroke-miterlimit="10" stroke-dasharray=""/><path fill="none" stroke="rgb(0,0,0)" class="dcg-svg-minor-gridline" paint-order="fill stroke markers" d=" M 488.5 0 L 488.5 400" stroke-opacity="0.12" stroke-miterlimit="10" stroke-dasharray=""/><path fill="none" stroke="rgb(0,0,0)" class="dcg-svg-minor-gridline" paint-order="fill stroke markers" d=" M 505.5 0 L 505.5 400" stroke-opacity="0.12" stroke-miterlimit="10" stroke-dasharray=""/><path fill="none" stroke="rgb(0,0,0)" class="dcg-svg-minor-gridline" paint-order="fill stroke markers" d=" M 522.5 0 L 522.5 400" stroke-opacity="0.12" stroke-miterlimit="10" stroke-dasharray=""/><path fill="none" stroke="rgb(0,0,0)" class="dcg-svg-minor-gridline" paint-order="fill stroke markers" d=" M 539.5 0 L 539.5 400" stroke-opacity="0.12" stroke-miterlimit="10" stroke-dasharray=""/><path fill="none" stroke="rgb(0,0,0)" class="dcg-svg-minor-gridline" paint-order="fill stroke markers" d=" M 556.5 0 L 556.5 400" stroke-opacity="0.12" stroke-miterlimit="10" stroke-dasharray=""/><path fill="none" stroke="rgb(0,0,0)" class="dcg-svg-minor-gridline" paint-order="fill stroke markers" d=" M 573.5 0 L 573.5 400" stroke-opacity="0.12" stroke-miterlimit="10" stroke-dasharray=""/><path fill="none" stroke="rgb(0,0,0)" class="dcg-svg-minor-gridline" paint-order="fill stroke markers" d=" M 590.5 0 L 590.5 400" stroke-opacity="0.12" stroke-miterlimit="10" stroke-dasharray=""/><path fill="none" stroke="rgb(0,0,0)" class="dcg-svg-minor-gridline" paint-order="fill stroke markers" d=" M 0 395.5 L 600 395.5" stroke-opacity="0.12" stroke-miterlimit="10" stroke-dasharray=""/><path fill="none" stroke="rgb(0,0,0)" class="dcg-svg-minor-gridline" paint-order="fill stroke markers" d=" M 0 377.5 L 600 377.5" stroke-opacity="0.12" stroke-miterlimit="10" stroke-dasharray=""/><path fill="none" stroke="rgb(0,0,0)" class="dcg-svg-minor-gridline" paint-order="fill stroke markers" d=" M 0 359.5 L 600 359.5" stroke-opacity="0.12" stroke-miterlimit="10" stroke-dasharray=""/><path fill="none" stroke="rgb(0,0,0)" class="dcg-svg-minor-gridline" paint-order="fill stroke markers" d=" M 0 341.5 L 600 341.5" stroke-opacity="0.12" stroke-miterlimit="10" stroke-dasharray=""/><path fill="none" stroke="rgb(0,0,0)" class="dcg-svg-minor-gridline" paint-order="fill stroke markers" d=" M 0 323.5 L 600 323.5" stroke-opacity="0.12" stroke-miterlimit="10" stroke-dasharray=""/><path fill="none" stroke="rgb(0,0,0)" class="dcg-svg-minor-gridline" paint-order="fill stroke markers" d=" M 0 306.5 L 600 306.5" stroke-opacity="0.12" stroke-miterlimit="10" stroke-dasharray=""/><path fill="none" stroke="rgb(0,0,0)" class="dcg-svg-minor-gridline" paint-order="fill stroke markers" d=" M 0 288.5 L 600 288.5" stroke-opacity="0.12" stroke-miterlimit="10" stroke-dasharray=""/><path fill="none" stroke="rgb(0,0,0)" class="dcg-svg-minor-gridline" paint-order="fill stroke markers" d=" M 0 270.5 L 600 270.5" stroke-opacity="0.12" stroke-miterlimit="10" stroke-dasharray=""/><path fill="none" stroke="rgb(0,0,0)" class="dcg-svg-minor-gridline" paint-order="fill stroke markers" d=" M 0 252.5 L 600 252.5" stroke-opacity="0.12" stroke-miterlimit="10" stroke-dasharray=""/><path fill="none" stroke="rgb(0,0,0)" class="dcg-svg-minor-gridline" paint-order="fill stroke markers" d=" M 0 235.5 L 600 235.5" stroke-opacity="0.12" stroke-miterlimit="10" stroke-dasharray=""/><path fill="none" stroke="rgb(0,0,0)" class="dcg-svg-minor-gridline" paint-order="fill stroke markers" d=" M 0 217.5 L 600 217.5" stroke-opacity="0.12" stroke-miterlimit="10" stroke-dasharray=""/><path fill="none" stroke="rgb(0,0,0)" class="dcg-svg-minor-gridline" paint-order="fill stroke markers" d=" M 0 181.5 L 600 181.5" stroke-opacity="0.12" stroke-miterlimit="10" stroke-dasharray=""/><path fill="none" stroke="rgb(0,0,0)" class="dcg-svg-minor-gridline" paint-order="fill stroke markers" d=" M 0 163.5 L 600 163.5" stroke-opacity="0.12" stroke-miterlimit="10" stroke-dasharray=""/><path fill="none" stroke="rgb(0,0,0)" class="dcg-svg-minor-gridline" paint-order="fill stroke markers" d=" M 0 146.5 L 600 146.5" stroke-opacity="0.12" stroke-miterlimit="10" stroke-dasharray=""/><path fill="none" stroke="rgb(0,0,0)" class="dcg-svg-minor-gridline" paint-order="fill stroke markers" d=" M 0 128.5 L 600 128.5" stroke-opacity="0.12" stroke-miterlimit="10" stroke-dasharray=""/><path fill="none" stroke="rgb(0,0,0)" class="dcg-svg-minor-gridline" paint-order="fill stroke markers" d=" M 0 110.5 L 600 110.5" stroke-opacity="0.12" stroke-miterlimit="10" stroke-dasharray=""/><path fill="none" stroke="rgb(0,0,0)" class="dcg-svg-minor-gridline" paint-order="fill stroke markers" d=" M 0 92.5 L 600 92.5" stroke-opacity="0.12" stroke-miterlimit="10" stroke-dasharray=""/><path fill="none" stroke="rgb(0,0,0)" class="dcg-svg-minor-gridline" paint-order="fill stroke markers" d=" M 0 75.5 L 600 75.5" stroke-opacity="0.12" stroke-miterlimit="10" stroke-dasharray=""/><path fill="none" stroke="rgb(0,0,0)" class="dcg-svg-minor-gridline" paint-order="fill stroke markers" d=" M 0 57.5 L 600 57.5" stroke-opacity="0.12" stroke-miterlimit="10" stroke-dasharray=""/><path fill="none" stroke="rgb(0,0,0)" class="dcg-svg-minor-gridline" paint-order="fill stroke markers" d=" M 0 39.5 L 600 39.5" stroke-opacity="0.12" stroke-miterlimit="10" stroke-dasharray=""/><path fill="none" stroke="rgb(0,0,0)" class="dcg-svg-minor-gridline" paint-order="fill stroke markers" d=" M 0 21.5 L 600 21.5" stroke-opacity="0.12" stroke-miterlimit="10" stroke-dasharray=""/><path fill="none" stroke="rgb(0,0,0)" class="dcg-svg-minor-gridline" paint-order="fill stroke markers" d=" M 0 3.5 L 600 3.5" stroke-opacity="0.12" stroke-miterlimit="10" stroke-dasharray=""/><path fill="none" stroke="rgb(0,0,0)" class="dcg-svg-major-gridline" paint-order="fill stroke markers" d=" M 128.5 0 L 128.5 400" stroke-opacity="0.31818181818181823" stroke-miterlimit="10" stroke-dasharray=""/><path fill="none" stroke="rgb(0,0,0)" class="dcg-svg-major-gridline" paint-order="fill stroke markers" d=" M 213.5 0 L 213.5 400" stroke-opacity="0.31818181818181823" stroke-miterlimit="10" stroke-dasharray=""/><path fill="none" stroke="rgb(0,0,0)" class="dcg-svg-major-gridline" paint-order="fill stroke markers" d=" M 299.5 0 L 299.5 400" stroke-opacity="0.31818181818181823" stroke-miterlimit="10" stroke-dasharray=""/><path fill="none" stroke="rgb(0,0,0)" class="dcg-svg-major-gridline" paint-order="fill stroke markers" d=" M 385.5 0 L 385.5 400" stroke-opacity="0.31818181818181823" stroke-miterlimit="10" stroke-dasharray=""/><path fill="none" stroke="rgb(0,0,0)" class="dcg-svg-major-gridline" paint-order="fill stroke markers" d=" M 470.5 0 L 470.5 400" stroke-opacity="0.31818181818181823" stroke-miterlimit="10" stroke-dasharray=""/><path fill="none" stroke="rgb(0,0,0)" class="dcg-svg-major-gridline" paint-order="fill stroke markers" d=" M 556.5 0 L 556.5 400" stroke-opacity="0.31818181818181823" stroke-miterlimit="10" stroke-dasharray=""/><path fill="none" stroke="rgb(0,0,0)" class="dcg-svg-major-gridline" paint-order="fill stroke markers" d=" M 0 377.5 L 600 377.5" stroke-opacity="0.31818181818181823" stroke-miterlimit="10" stroke-dasharray=""/><path fill="none" stroke="rgb(0,0,0)" class="dcg-svg-major-gridline" paint-order="fill stroke markers" d=" M 0 288.5 L 600 288.5" stroke-opacity="0.31818181818181823" stroke-miterlimit="10" stroke-dasharray=""/><path fill="none" stroke="rgb(0,0,0)" class="dcg-svg-major-gridline" paint-order="fill stroke markers" d=" M 0 110.5 L 600 110.5" stroke-opacity="0.31818181818181823" stroke-miterlimit="10" stroke-dasharray=""/><path fill="none" stroke="rgb(0,0,0)" class="dcg-svg-major-gridline" paint-order="fill stroke markers" d=" M 0 21.5 L 600 21.5" stroke-opacity="0.31818181818181823" stroke-miterlimit="10" stroke-dasharray=""/></g></g><g id="axis-79de47bd"><g id="yaxis-79de47bd"><title>Y axis</title><path fill="none" stroke="rgb(0,0,0)" class="dcg-svg-axis-line" paint-order="fill stroke markers" d=" M 42.75 0 L 42.75 400" stroke-opacity="0.9" stroke-miterlimit="10" stroke-width="1.5" stroke-dasharray=""/></g><g id="xaxis-79de47bd"><title>X axis</title><path fill="none" stroke="rgb(0,0,0)" class="dcg-svg-axis-line" paint-order="fill stroke markers" d=" M 0 199.75 L 600 199.75" stroke-opacity="0.9" stroke-miterlimit="10" stroke-width="1.5" stroke-dasharray=""/></g><g><g class="dcg-svg-axis-value"><text fill="none" stroke="#ffffff" font-family="Arial" font-size="14px" font-style="normal" font-weight="normal" text-decoration="normal" x="33.964076450892854" y="215.808" text-anchor="middle" stroke-miterlimit="2" stroke-width="3" stroke-dasharray="">0</text><text fill="#000000" stroke="none" font-family="Arial" font-size="14px" font-style="normal" font-weight="normal" text-decoration="normal" x="33.964076450892854" y="215.808" text-anchor="middle">0</text></g><g class="dcg-svg-axis-value"><text fill="none" stroke="#ffffff" font-family="Arial" font-size="14px" font-style="normal" font-weight="normal" text-decoration="normal" x="128.57142857142856" y="215.808" text-anchor="middle" stroke-miterlimit="2" stroke-width="3" stroke-dasharray="">1</text><text fill="#000000" stroke="none" font-family="Arial" font-size="14px" font-style="normal" font-weight="normal" text-decoration="normal" x="128.57142857142856" y="215.808" text-anchor="middle">1</text></g><g class="dcg-svg-axis-value"><text fill="none" stroke="#ffffff" font-family="Arial" font-size="14px" font-style="normal" font-weight="normal" text-decoration="normal" x="214.28571428571428" y="215.808" text-anchor="middle" stroke-miterlimit="2" stroke-width="3" stroke-dasharray="">2</text><text fill="#000000" stroke="none" font-family="Arial" font-size="14px" font-style="normal" font-weight="normal" text-decoration="normal" x="214.28571428571428" y="215.808" text-anchor="middle">2</text></g><g class="dcg-svg-axis-value"><text fill="none" stroke="#ffffff" font-family="Arial" font-size="14px" font-style="normal" font-weight="normal" text-decoration="normal" x="299.99999999999994" y="215.808" text-anchor="middle" stroke-miterlimit="2" stroke-width="3" stroke-dasharray="">3</text><text fill="#000000" stroke="none" font-family="Arial" font-size="14px" font-style="normal" font-weight="normal" text-decoration="normal" x="299.99999999999994" y="215.808" text-anchor="middle">3</text></g><g class="dcg-svg-axis-value"><text fill="none" stroke="#ffffff" font-family="Arial" font-size="14px" font-style="normal" font-weight="normal" text-decoration="normal" x="385.71428571428567" y="215.808" text-anchor="middle" stroke-miterlimit="2" stroke-width="3" stroke-dasharray="">4</text><text fill="#000000" stroke="none" font-family="Arial" font-size="14px" font-style="normal" font-weight="normal" text-decoration="normal" x="385.71428571428567" y="215.808" text-anchor="middle">4</text></g><g class="dcg-svg-axis-value"><text fill="none" stroke="#ffffff" font-family="Arial" font-size="14px" font-style="normal" font-weight="normal" text-decoration="normal" x="471.4285714285714" y="215.808" text-anchor="middle" stroke-miterlimit="2" stroke-width="3" stroke-dasharray="">5</text><text fill="#000000" stroke="none" font-family="Arial" font-size="14px" font-style="normal" font-weight="normal" text-decoration="normal" x="471.4285714285714" y="215.808" text-anchor="middle">5</text></g><g class="dcg-svg-axis-value"><text fill="none" stroke="#ffffff" font-family="Arial" font-size="14px" font-style="normal" font-weight="normal" text-decoration="normal" x="557.1428571428571" y="215.808" text-anchor="middle" stroke-miterlimit="2" stroke-width="3" stroke-dasharray="">6</text><text fill="#000000" stroke="none" font-family="Arial" font-size="14px" font-style="normal" font-weight="normal" text-decoration="normal" x="557.1428571428571" y="215.808" text-anchor="middle">6</text></g><g class="dcg-svg-axis-value"><text fill="none" stroke="#ffffff" font-family="Arial" font-size="14px" font-style="normal" font-weight="normal" text-decoration="normal" x="31.633021763392854" y="381.58577777777776" text-anchor="middle" stroke-miterlimit="2" stroke-width="3" stroke-dasharray="">-2</text><text fill="#000000" stroke="none" font-family="Arial" font-size="14px" font-style="normal" font-weight="normal" text-decoration="normal" x="31.633021763392854" y="381.58577777777776" text-anchor="middle">-2</text></g><g class="dcg-svg-axis-value"><text fill="none" stroke="#ffffff" font-family="Arial" font-size="14px" font-style="normal" font-weight="normal" text-decoration="normal" x="31.633021763392854" y="292.6968888888889" text-anchor="middle" stroke-miterlimit="2" stroke-width="3" stroke-dasharray="">-1</text><text fill="#000000" stroke="none" font-family="Arial" font-size="14px" font-style="normal" font-weight="normal" text-decoration="normal" x="31.633021763392854" y="292.6968888888889" text-anchor="middle">-1</text></g><g class="dcg-svg-axis-value"><text fill="none" stroke="#ffffff" font-family="Arial" font-size="14px" font-style="normal" font-weight="normal" text-decoration="normal" x="33.964076450892854" y="114.91911111111112" text-anchor="middle" stroke-miterlimit="2" stroke-width="3" stroke-dasharray="">1</text><text fill="#000000" stroke="none" font-family="Arial" font-size="14px" font-style="normal" font-weight="normal" text-decoration="normal" x="33.964076450892854" y="114.91911111111112" text-anchor="middle">1</text></g><g class="dcg-svg-axis-value"><text fill="none" stroke="#ffffff" font-family="Arial" font-size="14px" font-style="normal" font-weight="normal" text-decoration="normal" x="33.964076450892854" y="26.03022222222223" text-anchor="middle" stroke-miterlimit="2" stroke-width="3" stroke-dasharray="">2</text><text fill="#000000" stroke="none" font-family="Arial" font-size="14px" font-style="normal" font-weight="normal" text-decoration="normal" x="33.964076450892854" y="26.03022222222223" text-anchor="middle">2</text></g></g></g></g><g id="expressions-79de47bd"><g id="sketch-79de47bd"><title>Expression 1</title><path fill="#2d70b3" stroke="none" paint-order="stroke fill markers" d="" fill-opacity="0.4"/><g><path fill="none" stroke="#2d70b3" class="dcg-svg-curve" paint-order="fill stroke markers" d=" M 128.07142857142856 101.8065313372179 L 128.07142857142856 101.8065313372179 L 131.87878294825902 107.80613893846947 L 135.68613732508948 113.16014809494243 L 139.49349170191994 117.88776165739421 L 143.3008460787504 122.00832766643651 L 146.81532704197852 125.29001950624388 L 150.18337129840546 127.97961094495264 L 153.40497884803122 130.14821691455575 L 156.48014969085582 131.8612269866673 L 159.55532053368043 133.2366400584997 L 162.48405466970385 134.2429396054426 L 165.4127888057273 134.96312664680016 L 168.34152294175072 135.40744542750946 L 171.27025707777412 135.58650986856122 L 174.19899121379757 135.51137827041623 L 177.27416205662217 135.17160257043645 L 180.49576960624793 134.54423053053637 L 183.8638138626749 133.61002086158908 L 187.37829482590303 132.35478460329972 L 191.18564920273346 130.7023591368058 L 195.43231369996744 128.54544817298972 L 200.41116173120724 125.67286179275436 L 206.85437683045882 121.58020325885951 L 219.8872437357631 113.21506496134714 L 224.28034493979823 110.81324048369385 L 227.79482590302632 109.21095014945536 L 230.86999674585093 108.11188710121269 L 233.6522941750732 107.40972423699804 L 236.14171819069315 107.05066883347223 L 238.48470549951185 106.9700034313733 L 240.82769280833062 107.15942495574035 L 243.02424341034816 107.59770729001889 L 245.22079401236576 108.29989760695929 L 247.56378132118448 109.34864796000107 L 249.90676863000326 110.7113698521191 L 252.39619264562313 112.50222208383838 L 255.1784900748454 114.91135581213882 L 258.25366091767 118.0468606115399 L 261.76814188089816 122.17721410066133 L 265.8683696713309 127.60788559848237 L 271.1400911161731 135.26800567500908 L 287.68743898470547 159.8056057450589 L 292.51985030914415 166.06932115974215 L 297.0593882199804 171.34372965507458 L 301.3060527172144 175.71299834607038 L 305.40628050764724 179.4174358204172 L 309.3600715912789 182.5328308335992 L 313.31386267491047 185.23148015959998 L 317.26765375854217 187.55069278292893 L 321.22144484217375 189.53026635296624 L 325.3216726326066 191.26696137059213 L 329.71477383664165 192.81804602173312 L 334.40074845427915 194.17237791839804 L 339.379596485519 195.32876571937402 L 344.94419134396355 196.34144792604351 L 351.24096973641394 197.2071350877826 L 358.41636836967126 197.91961045808614 L 366.9096973641393 198.49271108462924 L 377.4531402538235 198.9332153982226 L 385.21428571428567 199.1334384191295" stroke-linecap="round" stroke-linejoin="round" stroke-miterlimit="10" stroke-width="2.5" stroke-opacity="0.9" stroke-dasharray=""/></g></g><g id="sketch-79de47bd"><title>Expression 6</title><path fill="#2d70b3" stroke="none" class="dcg-svg-region" paint-order="stroke fill markers" d=" M 128.07142857142856 101.8065313372179 L 131.87878294825902 107.80613893846947 L 135.68613732508948 113.16014809494243 L 139.49349170191994 117.88776165739421 L 143.3008460787504 122.00832766643651 L 146.81532704197852 125.29001950624388 L 150.18337129840546 127.97961094495264 L 153.40497884803122 130.14821691455575 L 156.48014969085582 131.8612269866673 L 159.55532053368043 133.2366400584997 L 162.48405466970385 134.2429396054426 L 165.4127888057273 134.96312664680016 L 168.34152294175072 135.40744542750946 L 171.27025707777412 135.58650986856122 L 174.19899121379757 135.51137827041623 L 177.27416205662217 135.17160257043645 L 180.49576960624793 134.54423053053637 L 183.8638138626749 133.61002086158908 L 187.37829482590303 132.35478460329972 L 191.18564920273346 130.7023591368058 L 195.43231369996744 128.54544817298972 L 200.41116173120724 125.67286179275436 L 206.85437683045882 121.58020325885951 L 219.8872437357631 113.21506496134714 L 224.28034493979823 110.81324048369385 L 227.79482590302632 109.21095014945536 L 230.86999674585093 108.11188710121269 L 233.6522941750732 107.40972423699804 L 236.14171819069315 107.05066883347223 L 238.48470549951185 106.9700034313733 L 240.82769280833062 107.15942495574035 L 243.02424341034816 107.59770729001889 L 245.22079401236576 108.29989760695929 L 247.56378132118448 109.34864796000107 L 249.90676863000326 110.7113698521191 L 252.39619264562313 112.50222208383838 L 255.1784900748454 114.91135581213882 L 258.25366091767 118.0468606115399 L 261.76814188089816 122.17721410066133 L 265.8683696713309 127.60788559848237 L 271.1400911161731 135.26800567500908 L 287.68743898470547 159.8056057450589 L 292.51985030914415 166.06932115974215 L 297.0593882199804 171.34372965507458 L 301.3060527172144 175.71299834607038 L 305.40628050764724 179.4174358204172 L 309.3600715912789 182.5328308335992 L 313.31386267491047 185.23148015959998 L 317.26765375854217 187.55069278292893 L 321.22144484217375 189.53026635296624 L 325.3216726326066 191.26696137059213 L 329.71477383664165 192.81804602173312 L 334.40074845427915 194.17237791839804 L 339.379596485519 195.32876571937402 L 344.94419134396355 196.34144792604351 L 351.24096973641394 197.2071350877826 L 358.41636836967126 197.91961045808614 L 366.9096973641393 198.49271108462924 L 377.4531402538235 198.9332153982226 L 385.21428571428567 199.1334384191295 L 385.21428571428567 399.5 L 128.07142857142856 399.5 L 128.07142857142856 101.8065313372179" fill-opacity="0.4"/><path fill="#2d70b3" stroke="none" paint-order="stroke fill markers" d="" fill-opacity="0.4"/><path fill="#2d70b3" stroke="none" paint-order="stroke fill markers" d="" fill-opacity="0.4"/><path fill="#2d70b3" stroke="none" paint-order="stroke fill markers" d="" fill-opacity="0.4"/><path fill="#2d70b3" stroke="none" paint-order="stroke fill markers" d="" fill-opacity="0.4"/><g><path fill="none" stroke="#2d70b3" class="dcg-svg-curve" paint-order="fill stroke markers" d=" M 128.07142857142856 101.8065313372179 L 131.87878294825902 107.80613893846947 M 131.87878294825902 107.80613893846947 L 134.1356347910553 110.97978768119386 M 138.39862312495714 116.52825712452206 L 139.49349170191994 117.88776165739421 M 139.49349170191994 117.88776165739421 L 143.3008460787504 122.00832766643651 M 143.3008460787504 122.00832766643651 L 145.9643705737965 124.4954279500844 M 151.44891999988758 128.83150752967987 L 153.40497884803122 130.14821691455575 M 153.40497884803122 130.14821691455575 L 156.48014969085582 131.8612269866673 M 156.48014969085582 131.8612269866673 L 159.55532053368043 133.2366400584997 M 159.55532053368043 133.2366400584997 L 161.21339367674358 133.8063463463255 M 168.0233596390008 135.3591768158231 L 168.34152294175072 135.40744542750946 M 168.34152294175072 135.40744542750946 L 171.27025707777412 135.58650986856122 M 171.27025707777412 135.58650986856122 L 174.19899121379757 135.51137827041623 M 174.19899121379757 135.51137827041623 L 177.27416205662217 135.17160257043645 M 177.27416205662217 135.17160257043645 L 178.9628503237434 134.84274941666786 M 185.6936811127371 132.95646326825826 L 187.37829482590303 132.35478460329972 M 187.37829482590303 132.35478460329972 L 191.18564920273346 130.7023591368058 M 191.18564920273346 130.7023591368058 L 195.43231369996744 128.54544817298972 M 195.43231369996744 128.54544817298972 L 195.69013745541997 128.39669468548277 M 201.71915828383953 124.84203693730954 L 206.85437683045882 121.58020325885951 M 206.85437683045882 121.58020325885951 L 210.99185326011846 118.92456633812073 M 216.88280137305327 115.14346460308242 L 219.8872437357631 113.21506496134714 M 219.8872437357631 113.21506496134714 L 224.28034493979823 110.81324048369385 M 224.28034493979823 110.81324048369385 L 226.48514100499793 109.80804982789024 M 233.09518185711602 107.55032156378184 L 233.6522941750732 107.40972423699804 M 233.6522941750732 107.40972423699804 L 236.14171819069315 107.05066883347223 M 236.14171819069315 107.05066883347223 L 238.48470549951185 106.9700034313733 M 238.48470549951185 106.9700034313733 L 240.82769280833062 107.15942495574035 M 240.82769280833062 107.15942495574035 L 243.02424341034816 107.59770729001889 M 243.02424341034816 107.59770729001889 L 243.95330462537353 107.89470831901247 M 250.22487226223637 110.94020856988203 L 252.39619264562313 112.50222208383838 M 252.39619264562313 112.50222208383838 L 255.1784900748454 114.91135581213882 M 255.1784900748454 114.91135581213882 L 258.25366091767 118.0468606115399 M 258.25366091767 118.0468606115399 L 258.41762946130393 118.2395627639745 M 262.8706977638872 123.63752779895749 L 265.8683696713309 127.60788559848237 M 265.8683696713309 127.60788559848237 L 269.2841246755113 132.57117771430885 M 273.22347862123314 138.35740282772852 L 279.3737135036477 147.47741438973497 M 283.2874993379115 153.28105811101182 L 287.68743898470547 159.8056057450589 M 287.68743898470547 159.8056057450589 L 289.59965276748926 162.2841950337685 M 293.9675956291985 167.75143074119202 L 297.0593882199804 171.34372965507458 M 297.0593882199804 171.34372965507458 L 301.3060527172144 175.71299834607038 M 301.3060527172144 175.71299834607038 L 301.4302655620448 175.82522106653937 M 306.6956797485316 180.43341969009657 L 309.3600715912789 182.5328308335992 M 309.3600715912789 182.5328308335992 L 313.31386267491047 185.23148015959998 M 313.31386267491047 185.23148015959998 L 315.7470480889778 186.65873673634897 M 321.97229493470127 189.84829688232344 L 325.3216726326066 191.26696137059213 M 325.3216726326066 191.26696137059213 L 329.71477383664165 192.81804602173312 M 329.71477383664165 192.81804602173312 L 332.31214792227996 193.56873437555188 M 339.10153906826247 195.2641840725214 L 339.379596485519 195.32876571937402 M 339.379596485519 195.32876571937402 L 344.94419134396355 196.34144792604351 M 344.94419134396355 196.34144792604351 L 349.95560226506274 197.0304215290841 M 356.9156062940335 197.7705935086136 L 358.41636836967126 197.91961045808614 M 358.41636836967126 197.91961045808614 L 366.9096973641393 198.49271108462924 M 366.9096973641393 198.49271108462924 L 367.8880591876734 198.53358697384598 M 374.8819577052606 198.82579156944783 L 377.4531402538235 198.9332153982226 M 377.4531402538235 198.9332153982226 L 385.21428571428567 199.1334384191295" stroke-linecap="round" stroke-linejoin="round" stroke-miterlimit="10" stroke-width="2.5" stroke-opacity="0.9" stroke-dasharray=""/></g></g></g><g id="labels-79de47bd"/></g></svg>