<svg version="1.1" xmlns="http://www.w3.org/2000/svg" xmlns:xlink="http://www.w3.org/1999/xlink" width="600" height="400"><defs/><g transform="scale(1,1)"><g id="background-d7bbf56c"><rect fill="white" stroke="none" x="0" y="0" width="600" height="400" class="dcg-svg-background"/></g><g id="background-images-d7bbf56c"/><g id="graphpaper-d7bbf56c"><g id="grid-d7bbf56c"><g><path fill="none" stroke="rgb(0,0,0)" class="dcg-svg-minor-gridline" paint-order="fill stroke markers" d=" M -0.5 0 L -0.5 400" stroke-opacity="0.12" stroke-miterlimit="10" stroke-dasharray=""/><path fill="none" stroke="rgb(0,0,0)" class="dcg-svg-minor-gridline" paint-order="fill stroke markers" d=" M 29.5 0 L 29.5 400" stroke-opacity="0.12" stroke-miterlimit="10" stroke-dasharray=""/><path fill="none" stroke="rgb(0,0,0)" class="dcg-svg-minor-gridline" paint-order="fill stroke markers" d=" M 59.5 0 L 59.5 400" stroke-opacity="0.12" stroke-miterlimit="10" stroke-dasharray=""/><path fill="none" stroke="rgb(0,0,0)" class="dcg-svg-minor-gridline" paint-order="fill stroke markers" d=" M 89.5 0 L 89.5 400" stroke-opacity="0.12" stroke-miterlimit="10" stroke-dasharray=""/><path fill="none" stroke="rgb(0,0,0)" class="dcg-svg-minor-gridline" paint-order="fill stroke markers" d=" M 119.5 0 L 119.5 400" stroke-opacity="0.12" stroke-miterlimit="10" stroke-dasharray=""/><path fill="none" stroke="rgb(0,0,0)" class="dcg-svg-minor-gridline" paint-order="fill stroke markers" d=" M 149.5 0 L 149.5 400" stroke-opacity="0.12" stroke-miterlimit="10" stroke-dasharray=""/><path fill="none" stroke="rgb(0,0,0)" class="dcg-svg-minor-gridline" paint-order="fill stroke markers" d=" M 179.5 0 L 179.5 400" stroke-opacity="0.12" stroke-miterlimit="10" stroke-dasharray=""/><path fill="none" stroke="rgb(0,0,0)" class="dcg-svg-minor-gridline" paint-order="fill stroke markers" d=" M 209.5 0 L 209.5 400" stroke-opacity="0.12" stroke-miterlimit="10" stroke-dasharray=""/><path fill="none" stroke="rgb(0,0,0)" class="dcg-svg-minor-gridline" paint-order="fill stroke markers" d=" M 239.5 0 L 239.5 400" stroke-opacity="0.12" stroke-miterlimit="10" stroke-dasharray=""/><path fill="none" stroke="rgb(0,0,0)" class="dcg-svg-minor-gridline" paint-order="fill stroke markers" d=" M 269.5 0 L 269.5 400" stroke-opacity="0.12" stroke-miterlimit="10" stroke-dasharray=""/><path fill="none" stroke="rgb(0,0,0)" class="dcg-svg-minor-gridline" paint-order="fill stroke markers" d=" M 329.5 0 L 329.5 400" stroke-opacity="0.12" stroke-miterlimit="10" stroke-dasharray=""/><path fill="none" stroke="rgb(0,0,0)" class="dcg-svg-minor-gridline" paint-order="fill stroke markers" d=" M 359.5 0 L 359.5 400" stroke-opacity="0.12" stroke-miterlimit="10" stroke-dasharray=""/><path fill="none" stroke="rgb(0,0,0)" class="dcg-svg-minor-gridline" paint-order="fill stroke markers" d=" M 389.5 0 L 389.5 400" stroke-opacity="0.12" stroke-miterlimit="10" stroke-dasharray=""/><path fill="none" stroke="rgb(0,0,0)" class="dcg-svg-minor-gridline" paint-order="fill stroke markers" d=" M 419.5 0 L 419.5 400" stroke-opacity="0.12" stroke-miterlimit="10" stroke-dasharray=""/><path fill="none" stroke="rgb(0,0,0)" class="dcg-svg-minor-gridline" paint-order="fill stroke markers" d=" M 449.5 0 L 449.5 400" stroke-opacity="0.12" stroke-miterlimit="10" stroke-dasharray=""/><path fill="none" stroke="rgb(0,0,0)" class="dcg-svg-minor-gridline" paint-order="fill stroke markers" d=" M 479.5 0 L 479.5 400" stroke-opacity="0.12" stroke-miterlimit="10" stroke-dasharray=""/><path fill="none" stroke="rgb(0,0,0)" class="dcg-svg-minor-gridline" paint-order="fill stroke markers" d=" M 509.5 0 L 509.5 400" stroke-opacity="0.12" stroke-miterlimit="10" stroke-dasharray=""/><path fill="none" stroke="rgb(0,0,0)" class="dcg-svg-minor-gridline" paint-order="fill stroke markers" d=" M 539.5 0 L 539.5 400" stroke-opacity="0.12" stroke-miterlimit="10" stroke-dasharray=""/><path fill="none" stroke="rgb(0,0,0)" class="dcg-svg-minor-gridline" paint-order="fill stroke markers" d=" M 569.5 0 L 569.5 400" stroke-opacity="0.12" stroke-miterlimit="10" stroke-dasharray=""/><path fill="none" stroke="rgb(0,0,0)" class="dcg-svg-minor-gridline" paint-order="fill stroke markers" d=" M 0 370.5 L 600 370.5" stroke-opacity="0.12" stroke-miterlimit="10" stroke-dasharray=""/><path fill="none" stroke="rgb(0,0,0)" class="dcg-svg-minor-gridline" paint-order="fill stroke markers" d=" M 0 342.5 L 600 342.5" stroke-opacity="0.12" stroke-miterlimit="10" stroke-dasharray=""/><path fill="none" stroke="rgb(0,0,0)" class="dcg-svg-minor-gridline" paint-order="fill stroke markers" d=" M 0 313.5 L 600 313.5" stroke-opacity="0.12" stroke-miterlimit="10" stroke-dasharray=""/><path fill="none" stroke="rgb(0,0,0)" class="dcg-svg-minor-gridline" paint-order="fill stroke markers" d=" M 0 285.5 L 600 285.5" stroke-opacity="0.12" stroke-miterlimit="10" stroke-dasharray=""/><path fill="none" stroke="rgb(0,0,0)" class="dcg-svg-minor-gridline" paint-order="fill stroke markers" d=" M 0 256.5 L 600 256.5" stroke-opacity="0.12" stroke-miterlimit="10" stroke-dasharray=""/><path fill="none" stroke="rgb(0,0,0)" class="dcg-svg-minor-gridline" paint-order="fill stroke markers" d=" M 0 228.5 L 600 228.5" stroke-opacity="0.12" stroke-miterlimit="10" stroke-dasharray=""/><path fill="none" stroke="rgb(0,0,0)" class="dcg-svg-minor-gridline" paint-order="fill stroke markers" d=" M 0 170.5 L 600 170.5" stroke-opacity="0.12" stroke-miterlimit="10" stroke-dasharray=""/><path fill="none" stroke="rgb(0,0,0)" class="dcg-svg-minor-gridline" paint-order="fill stroke markers" d=" M 0 142.5 L 600 142.5" stroke-opacity="0.12" stroke-miterlimit="10" stroke-dasharray=""/><path fill="none" stroke="rgb(0,0,0)" class="dcg-svg-minor-gridline" paint-order="fill stroke markers" d=" M 0 113.5 L 600 113.5" stroke-opacity="0.12" stroke-miterlimit="10" stroke-dasharray=""/><path fill="none" stroke="rgb(0,0,0)" class="dcg-svg-minor-gridline" paint-order="fill stroke markers" d=" M 0 85.5 L 600 85.5" stroke-opacity="0.12" stroke-miterlimit="10" stroke-dasharray=""/><path fill="none" stroke="rgb(0,0,0)" class="dcg-svg-minor-gridline" paint-order="fill stroke markers" d=" M 0 56.5 L 600 56.5" stroke-opacity="0.12" stroke-miterlimit="10" stroke-dasharray=""/><path fill="none" stroke="rgb(0,0,0)" class="dcg-svg-minor-gridline" paint-order="fill stroke markers" d=" M 0 28.5 L 600 28.5" stroke-opacity="0.12" stroke-miterlimit="10" stroke-dasharray=""/><path fill="none" stroke="rgb(0,0,0)" class="dcg-svg-minor-gridline" paint-order="fill stroke markers" d=" M 0 -0.5 L 600 -0.5" stroke-opacity="0.12" stroke-miterlimit="10" stroke-dasharray=""/><path fill="none" stroke="rgb(0,0,0)" class="dcg-svg-major-gridline" paint-order="fill stroke markers" d=" M -0.5 0 L -0.5 400" stroke-opacity="0.31818181818181823" stroke-miterlimit="10" stroke-dasharray=""/><path fill="none" stroke="rgb(0,0,0)" class="dcg-svg-major-gridline" paint-order="fill stroke markers" d=" M 149.5 0 L 149.5 400" stroke-opacity="0.31818181818181823" stroke-miterlimit="10" stroke-dasharray=""/><path fill="none" stroke="rgb(0,0,0)" class="dcg-svg-major-gridline" paint-order="fill stroke markers" d=" M 449.5 0 L 449.5 400" stroke-opacity="0.31818181818181823" stroke-miterlimit="10" stroke-dasharray=""/><path fill="none" stroke="rgb(0,0,0)" class="dcg-svg-major-gridline" paint-order="fill stroke markers" d=" M 0 342.5 L 600 342.5" stroke-opacity="0.31818181818181823" stroke-miterlimit="10" stroke-dasharray=""/><path fill="none" stroke="rgb(0,0,0)" class="dcg-svg-major-gridline" paint-order="fill stroke markers" d=" M 0 56.5 L 600 56.5" stroke-opacity="0.31818181818181823" stroke-miterlimit="10" stroke-dasharray=""/></g></g><g id="axis-d7bbf56c"><g id="yaxis-d7bbf56c"><title>Y axis</title><path fill="none" stroke="rgb(0,0,0)" class="dcg-svg-axis-line" paint-order="fill stroke markers" d=" M 299.75 0 L 299.75 400" stroke-opacity="0.9" stroke-miterlimit="10" stroke-width="1.5" stroke-dasharray=""/></g><g id="xaxis-d7bbf56c"><title>X axis</title><path fill="none" stroke="rgb(0,0,0)" class="dcg-svg-axis-line" paint-order="fill stroke markers" d=" M 0 199.75 L 600 199.75" stroke-opacity="0.9" stroke-miterlimit="10" stroke-width="1.5" stroke-dasharray=""/></g><g><g class="dcg-svg-axis-value"><text fill="none" stroke="#ffffff" font-family="Arial" font-size="14px" font-style="normal" font-weight="normal" text-decoration="normal" x="291.10693359375" y="215.808" text-anchor="middle" stroke-miterlimit="2" stroke-width="3" stroke-dasharray="">0</text><text fill="#000000" stroke="none" font-family="Arial" font-size="14px" font-style="normal" font-weight="normal" text-decoration="normal" x="291.10693359375" y="215.808" text-anchor="middle">0</text></g><g class="dcg-svg-axis-value dcg-svg-offcenter-axis-value"><text fill="none" stroke="#ffffff" font-family="Arial" font-size="14px" font-style="normal" font-weight="normal" text-decoration="normal" x="13.1171875" y="215.808" text-anchor="middle" stroke-miterlimit="2" stroke-width="3" stroke-dasharray="">-10</text><text fill="#000000" stroke="none" font-family="Arial" font-size="14px" font-style="normal" font-weight="normal" text-decoration="normal" x="13.1171875" y="215.808" text-anchor="middle">-10</text></g><g class="dcg-svg-axis-value"><text fill="none" stroke="#ffffff" font-family="Arial" font-size="14px" font-style="normal" font-weight="normal" text-decoration="normal" x="147.6689453125" y="215.808" text-anchor="middle" stroke-miterlimit="2" stroke-width="3" stroke-dasharray="">-5</text><text fill="#000000" stroke="none" font-family="Arial" font-size="14px" font-style="normal" font-weight="normal" text-decoration="normal" x="147.6689453125" y="215.808" text-anchor="middle">-5</text></g><g class="dcg-svg-axis-value"><text fill="none" stroke="#ffffff" font-family="Arial" font-size="14px" font-style="normal" font-weight="normal" text-decoration="normal" x="450" y="215.808" text-anchor="middle" stroke-miterlimit="2" stroke-width="3" stroke-dasharray="">5</text><text fill="#000000" stroke="none" font-family="Arial" font-size="14px" font-style="normal" font-weight="normal" text-decoration="normal" x="450" y="215.808" text-anchor="middle">5</text></g><g class="dcg-svg-axis-value dcg-svg-offcenter-axis-value"><text fill="none" stroke="#ffffff" font-family="Arial" font-size="14px" font-style="normal" font-weight="normal" text-decoration="normal" x="589.2138671875" y="215.808" text-anchor="middle" stroke-miterlimit="2" stroke-width="3" stroke-dasharray="">10</text><text fill="#000000" stroke="none" font-family="Arial" font-size="14px" font-style="normal" font-weight="normal" text-decoration="normal" x="589.2138671875" y="215.808" text-anchor="middle">10</text></g><g class="dcg-svg-axis-value"><text fill="none" stroke="#ffffff" font-family="Arial" font-size="14px" font-style="normal" font-weight="normal" text-decoration="normal" x="288.77587890625" y="346.6651428571428" text-anchor="middle" stroke-miterlimit="2" stroke-width="3" stroke-dasharray="">-5</text><text fill="#000000" stroke="none" font-family="Arial" font-size="14px" font-style="normal" font-weight="normal" text-decoration="normal" x="288.77587890625" y="346.6651428571428" text-anchor="middle">-5</text></g><g class="dcg-svg-axis-value"><text fill="none" stroke="#ffffff" font-family="Arial" font-size="14px" font-style="normal" font-weight="normal" text-decoration="normal" x="291.10693359375" y="60.95085714285717" text-anchor="middle" stroke-miterlimit="2" stroke-width="3" stroke-dasharray="">5</text><text fill="#000000" stroke="none" font-family="Arial" font-size="14px" font-style="normal" font-weight="normal" text-decoration="normal" x="291.10693359375" y="60.95085714285717" text-anchor="middle">5</text></g></g></g></g><g id="expressions-d7bbf56c"><g id="sketch-d7bbf56c"><title>Expression 1</title><path fill="#2d70b3" stroke="none" paint-order="stroke fill markers" d="" fill-opacity="0.4"/><g><path fill="none" stroke="#2d70b3" class="dcg-svg-curve" paint-order="fill stroke markers" d=" M 39.45946590370815 -5.5 L 39.45946590370815 -5.5 L 51.794921875 111.46846397845451 L 56.3359375 151.08772219951967 L 60.291015625 183.0901469207246 L 63.806640625 209.17314981374116 L 67.029296875 230.8680487995062 L 69.958984375 248.58533992456267 L 72.595703125 262.794123760998 L 75.0859375 274.6350427338851 L 77.4296875 284.3347388110991 L 79.626953125 292.12862082092744 L 81.53125 297.85255938518696 L 83.435546875 302.61266067059154 L 85.193359375 306.14935901741126 L 86.8046875 308.66972374587203 L 88.26953125 310.3649451194209 L 89.734375 311.4967524380941 L 90.90625 312.00020729066335 L 91.99213491947518 312.15099354089716 L 92.95703125 312.0327740651006 L 93.982421875 311.64993449153553 L 95.154296875 310.89205330909147 L 96.47265625 309.63749747154395 L 98.083984375 307.5382241660543 L 99.6953125 304.8325311171457 L 101.453125 301.21131352007666 L 103.357421875 296.5299182719477 L 105.408203125 290.64729812180326 L 107.751953125 282.91809521569036 L 110.2421875 273.61459918137007 L 113.025390625 262.0080643639575 L 116.1015625 247.86952337236826 L 119.6171875 230.29014103283575 L 123.865234375 207.47703306462134 L 129.724609375 174.23271802054197 L 141.736328125 105.72656186523466 L 146.27734375 81.73846103856874 L 150.0859375 63.12577529182278 L 153.455078125 48.06626355382991 L 156.53125 35.63081487746837 L 159.314453125 25.563728775207267 L 161.951171875 17.1336967873616 L 164.294921875 10.587292047090102 L 166.4921875 5.286161724163378 L 168.54296875 1.0846523176753067 L 170.59375 -2.385970822030231 L 172.498046875 -4.949013726441592 L 173.03594615731615 -5.5 L 185.66427056428842 -5.5 L 187.439453125 -3.4079705742581154 L 189.490234375 -0.3765736510601414 L 191.6875 3.547602589207429 L 194.03125 8.462698599729322 L 196.521484375 14.454888980141732 L 199.3046875 22.01230261374576 L 202.380859375 31.308765755330057 L 205.896484375 42.9738523208195 L 209.998046875 57.708406134108145 L 215.271484375 77.88851120376268 L 232.703125 145.5825146183437 L 237.09765625 160.90888630508184 L 240.90625 173.1204855801817 L 244.421875 183.36902763194735 L 247.64453125 191.81567703972368 L 250.57421875 198.65940889256427 L 253.357421875 204.39728855177867 L 255.994140625 209.13376572923428 L 258.630859375 213.1860490872159 L 261.12109375 216.38883548822466 L 263.611328125 218.9951855879512 L 265.955078125 220.9175083551004 L 268.15234375 222.26829465323343 L 270.203125 223.1509957423097 L 272.107421875 223.65892144875758 L 274.01171875 223.88222626246477 L 275.916015625 223.8375676043106 L 277.966796875 223.51046261510228 L 280.1640625 222.86563212449906 L 282.5078125 221.87680087220602 L 285.14453125 220.44191315057722 L 288.220703125 218.4130957411639 L 292.17578125 215.39374532507034 L 299.353515625 209.3794088472658 L 305.212890625 204.68103809284943 L 309.021484375 202.0515435080049 L 312.09765625 200.2970154730958 L 314.880859375 199.05788960310983 L 317.37109375 198.26830863641663 L 319.568359375 197.84511084148252 L 321.83395629477644 197.69492319139704 L 323.81640625 197.81290278013438 L 325.8671875 198.18802886353717 L 327.91796875 198.8260696591938 L 330.115234375 199.80498420412138 L 332.458984375 201.18654491120012 L 334.94921875 203.03235719193916 L 337.732421875 205.54481624972564 L 340.80859375 208.84939848297682 L 344.03125 212.86398024291964 L 347.546875 217.82069543060464 L 351.501953125 224.0038519547619 L 356.3359375 232.21213330647132 L 366.150390625 249.7520573712137 L 371.716796875 259.2730445086255 L 375.818359375 265.6531836480967 L 379.333984375 270.49788113464047 L 382.41015625 274.15154933210766 L 385.193359375 276.91265478395474 L 387.68359375 278.89634717191336 L 389.880859375 280.23445230969946 L 391.78515625 281.06346322767416 L 393.54296875 281.5445327165097 L 395.30078125 281.7438678156717 L 396.912109375 281.67280657225774 L 398.5234375 281.35420143844266 L 400.28125 280.72008550215554 L 402.0390625 279.78380312473286 L 403.943359375 278.4264975467167 L 406.140625 276.4170223929571 L 408.484375 273.7537577863667 L 410.974609375 270.3459976068327 L 413.611328125 266.1073060119868 L 416.39453125 260.9602014195275 L 419.32421875 254.8418380619596 L 422.546875 247.35440336261587 L 426.208984375 238.00416080955617 L 430.45703125 226.2505254607362 L 436.0234375 209.8616827093505 L 448.03515625 174.21284046895525 L 452.13671875 163.14621016525834 L 455.505859375 154.8973447575561 L 458.435546875 148.50258595811883 L 461.072265625 143.47231820289767 L 463.416015625 139.6488415100614 L 465.61328125 136.67039212244163 L 467.6640625 134.4590076357312 L 469.568359375 132.9266463746796 L 471.1796875 132.04059418650957 L 472.64453125 131.57391524615042 L 473.95921700954995 131.43788998865557 L 475.28125 131.57746257398065 L 476.599609375 131.99838223175317 L 477.91796875 132.7058280254547 L 479.3828125 133.83348332645443 L 481.140625 135.6685903939033 L 482.8984375 138.0364365992982 L 484.802734375 141.20905363244145 L 486.70703125 145.0173892330185 L 488.7578125 149.83088364716383 L 490.955078125 155.80487742529306 L 493.298828125 163.09894608549197 L 495.7890625 171.8726058492189 L 498.42578125 182.27980174894486 L 501.35546875 195.1360930352257 L 504.431640625 210.01538153977089 L 507.80078125 227.8034687598326 L 511.609375 249.57682963999184 L 516.00390625 276.5279470709224 L 521.423828125 311.7346918841029 L 535.6522914228555 405.5" stroke-linecap="round" stroke-linejoin="round" stroke-miterlimit="10" stroke-width="2.5" stroke-opacity="0.9" stroke-dasharray=""/></g></g></g><g id="labels-d7bbf56c"/></g></svg>