<svg version="1.1" xmlns="http://www.w3.org/2000/svg" xmlns:xlink="http://www.w3.org/1999/xlink" width="600" height="400"><defs/><g transform="scale(1,1)"><g id="background-db184552"><rect fill="white" stroke="none" x="0" y="0" width="600" height="400" class="dcg-svg-background"/></g><g id="background-images-db184552"/><g id="graphpaper-db184552"><g id="grid-db184552"><g><path fill="none" stroke="rgb(0,0,0)" class="dcg-svg-minor-gridline" paint-order="fill stroke markers" d=" M -0.5 0 L -0.5 400" stroke-opacity="0.12" stroke-miterlimit="10" stroke-dasharray=""/><path fill="none" stroke="rgb(0,0,0)" class="dcg-svg-minor-gridline" paint-order="fill stroke markers" d=" M 29.5 0 L 29.5 400" stroke-opacity="0.12" stroke-miterlimit="10" stroke-dasharray=""/><path fill="none" stroke="rgb(0,0,0)" class="dcg-svg-minor-gridline" paint-order="fill stroke markers" d=" M 59.5 0 L 59.5 400" stroke-opacity="0.12" stroke-miterlimit="10" stroke-dasharray=""/><path fill="none" stroke="rgb(0,0,0)" class="dcg-svg-minor-gridline" paint-order="fill stroke markers" d=" M 89.5 0 L 89.5 400" stroke-opacity="0.12" stroke-miterlimit="10" stroke-dasharray=""/><path fill="none" stroke="rgb(0,0,0)" class="dcg-svg-minor-gridline" paint-order="fill stroke markers" d=" M 119.5 0 L 119.5 400" stroke-opacity="0.12" stroke-miterlimit="10" stroke-dasharray=""/><path fill="none" stroke="rgb(0,0,0)" class="dcg-svg-minor-gridline" paint-order="fill stroke markers" d=" M 149.5 0 L 149.5 400" stroke-opacity="0.12" stroke-miterlimit="10" stroke-dasharray=""/><path fill="none" stroke="rgb(0,0,0)" class="dcg-svg-minor-gridline" paint-order="fill stroke markers" d=" M 179.5 0 L 179.5 400" stroke-opacity="0.12" stroke-miterlimit="10" stroke-dasharray=""/><path fill="none" stroke="rgb(0,0,0)" class="dcg-svg-minor-gridline" paint-order="fill stroke markers" d=" M 209.5 0 L 209.5 400" stroke-opacity="0.12" stroke-miterlimit="10" stroke-dasharray=""/><path fill="none" stroke="rgb(0,0,0)" class="dcg-svg-minor-gridline" paint-order="fill stroke markers" d=" M 239.5 0 L 239.5 400" stroke-opacity="0.12" stroke-miterlimit="10" stroke-dasharray=""/><path fill="none" stroke="rgb(0,0,0)" class="dcg-svg-minor-gridline" paint-order="fill stroke markers" d=" M 269.5 0 L 269.5 400" stroke-opacity="0.12" stroke-miterlimit="10" stroke-dasharray=""/><path fill="none" stroke="rgb(0,0,0)" class="dcg-svg-minor-gridline" paint-order="fill stroke markers" d=" M 329.5 0 L 329.5 400" stroke-opacity="0.12" stroke-miterlimit="10" stroke-dasharray=""/><path fill="none" stroke="rgb(0,0,0)" class="dcg-svg-minor-gridline" paint-order="fill stroke markers" d=" M 359.5 0 L 359.5 400" stroke-opacity="0.12" stroke-miterlimit="10" stroke-dasharray=""/><path fill="none" stroke="rgb(0,0,0)" class="dcg-svg-minor-gridline" paint-order="fill stroke markers" d=" M 389.5 0 L 389.5 400" stroke-opacity="0.12" stroke-miterlimit="10" stroke-dasharray=""/><path fill="none" stroke="rgb(0,0,0)" class="dcg-svg-minor-gridline" paint-order="fill stroke markers" d=" M 419.5 0 L 419.5 400" stroke-opacity="0.12" stroke-miterlimit="10" stroke-dasharray=""/><path fill="none" stroke="rgb(0,0,0)" class="dcg-svg-minor-gridline" paint-order="fill stroke markers" d=" M 449.5 0 L 449.5 400" stroke-opacity="0.12" stroke-miterlimit="10" stroke-dasharray=""/><path fill="none" stroke="rgb(0,0,0)" class="dcg-svg-minor-gridline" paint-order="fill stroke markers" d=" M 479.5 0 L 479.5 400" stroke-opacity="0.12" stroke-miterlimit="10" stroke-dasharray=""/><path fill="none" stroke="rgb(0,0,0)" class="dcg-svg-minor-gridline" paint-order="fill stroke markers" d=" M 509.5 0 L 509.5 400" stroke-opacity="0.12" stroke-miterlimit="10" stroke-dasharray=""/><path fill="none" stroke="rgb(0,0,0)" class="dcg-svg-minor-gridline" paint-order="fill stroke markers" d=" M 539.5 0 L 539.5 400" stroke-opacity="0.12" stroke-miterlimit="10" stroke-dasharray=""/><path fill="none" stroke="rgb(0,0,0)" class="dcg-svg-minor-gridline" paint-order="fill stroke markers" d=" M 569.5 0 L 569.5 400" stroke-opacity="0.12" stroke-miterlimit="10" stroke-dasharray=""/><path fill="none" stroke="rgb(0,0,0)" class="dcg-svg-minor-gridline" paint-order="fill stroke markers" d=" M 0 370.5 L 600 370.5" stroke-opacity="0.12" stroke-miterlimit="10" stroke-dasharray=""/><path fill="none" stroke="rgb(0,0,0)" class="dcg-svg-minor-gridline" paint-order="fill stroke markers" d=" M 0 342.5 L 600 342.5" stroke-opacity="0.12" stroke-miterlimit="10" stroke-dasharray=""/><path fill="none" stroke="rgb(0,0,0)" class="dcg-svg-minor-gridline" paint-order="fill stroke markers" d=" M 0 313.5 L 600 313.5" stroke-opacity="0.12" stroke-miterlimit="10" stroke-dasharray=""/><path fill="none" stroke="rgb(0,0,0)" class="dcg-svg-minor-gridline" paint-order="fill stroke markers" d=" M 0 285.5 L 600 285.5" stroke-opacity="0.12" stroke-miterlimit="10" stroke-dasharray=""/><path fill="none" stroke="rgb(0,0,0)" class="dcg-svg-minor-gridline" paint-order="fill stroke markers" d=" M 0 256.5 L 600 256.5" stroke-opacity="0.12" stroke-miterlimit="10" stroke-dasharray=""/><path fill="none" stroke="rgb(0,0,0)" class="dcg-svg-minor-gridline" paint-order="fill stroke markers" d=" M 0 228.5 L 600 228.5" stroke-opacity="0.12" stroke-miterlimit="10" stroke-dasharray=""/><path fill="none" stroke="rgb(0,0,0)" class="dcg-svg-minor-gridline" paint-order="fill stroke markers" d=" M 0 170.5 L 600 170.5" stroke-opacity="0.12" stroke-miterlimit="10" stroke-dasharray=""/><path fill="none" stroke="rgb(0,0,0)" class="dcg-svg-minor-gridline" paint-order="fill stroke markers" d=" M 0 142.5 L 600 142.5" stroke-opacity="0.12" stroke-miterlimit="10" stroke-dasharray=""/><path fill="none" stroke="rgb(0,0,0)" class="dcg-svg-minor-gridline" paint-order="fill stroke markers" d=" M 0 113.5 L 600 113.5" stroke-opacity="0.12" stroke-miterlimit="10" stroke-dasharray=""/><path fill="none" stroke="rgb(0,0,0)" class="dcg-svg-minor-gridline" paint-order="fill stroke markers" d=" M 0 85.5 L 600 85.5" stroke-opacity="0.12" stroke-miterlimit="10" stroke-dasharray=""/><path fill="none" stroke="rgb(0,0,0)" class="dcg-svg-minor-gridline" paint-order="fill stroke markers" d=" M 0 56.5 L 600 56.5" stroke-opacity="0.12" stroke-miterlimit="10" stroke-dasharray=""/><path fill="none" stroke="rgb(0,0,0)" class="dcg-svg-minor-gridline" paint-order="fill stroke markers" d=" M 0 28.5 L 600 28.5" stroke-opacity="0.12" stroke-miterlimit="10" stroke-dasharray=""/><path fill="none" stroke="rgb(0,0,0)" class="dcg-svg-minor-gridline" paint-order="fill stroke markers" d=" M 0 -0.5 L 600 -0.5" stroke-opacity="0.12" stroke-miterlimit="10" stroke-dasharray=""/><path fill="none" stroke="rgb(0,0,0)" class="dcg-svg-major-gridline" paint-order="fill stroke markers" d=" M -0.5 0 L -0.5 400" stroke-opacity="0.31818181818181823" stroke-miterlimit="10" stroke-dasharray=""/><path fill="none" stroke="rgb(0,0,0)" class="dcg-svg-major-gridline" paint-order="fill stroke markers" d=" M 149.5 0 L 149.5 400" stroke-opacity="0.31818181818181823" stroke-miterlimit="10" stroke-dasharray=""/><path fill="none" stroke="rgb(0,0,0)" class="dcg-svg-major-gridline" paint-order="fill stroke markers" d=" M 449.5 0 L 449.5 400" stroke-opacity="0.31818181818181823" stroke-miterlimit="10" stroke-dasharray=""/><path fill="none" stroke="rgb(0,0,0)" class="dcg-svg-major-gridline" paint-order="fill stroke markers" d=" M 0 342.5 L 600 342.5" stroke-opacity="0.31818181818181823" stroke-miterlimit="10" stroke-dasharray=""/><path fill="none" stroke="rgb(0,0,0)" class="dcg-svg-major-gridline" paint-order="fill stroke markers" d=" M 0 56.5 L 600 56.5" stroke-opacity="0.31818181818181823" stroke-miterlimit="10" stroke-dasharray=""/></g></g><g id="axis-db184552"><g id="yaxis-db184552"><title>Y axis</title><path fill="none" stroke="rgb(0,0,0)" class="dcg-svg-axis-line" paint-order="fill stroke markers" d=" M 299.75 0 L 299.75 400" stroke-opacity="0.9" stroke-miterlimit="10" stroke-width="1.5" stroke-dasharray=""/></g><g id="xaxis-db184552"><title>X axis</title><path fill="none" stroke="rgb(0,0,0)" class="dcg-svg-axis-line" paint-order="fill stroke markers" d=" M 0 199.75 L 600 199.75" stroke-opacity="0.9" stroke-miterlimit="10" stroke-width="1.5" stroke-dasharray=""/></g><g><g class="dcg-svg-axis-value"><text fill="none" stroke="#ffffff" font-family="Arial" font-size="14px" font-style="normal" font-weight="normal" text-decoration="normal" x="291.10693359375" y="215.808" text-anchor="middle" stroke-miterlimit="2" stroke-width="3" stroke-dasharray="">0</text><text fill="#000000" stroke="none" font-family="Arial" font-size="14px" font-style="normal" font-weight="normal" text-decoration="normal" x="291.10693359375" y="215.808" text-anchor="middle">0</text></g><g class="dcg-svg-axis-value dcg-svg-offcenter-axis-value"><text fill="none" stroke="#ffffff" font-family="Arial" font-size="14px" font-style="normal" font-weight="normal" text-decoration="normal" x="13.1171875" y="215.808" text-anchor="middle" stroke-miterlimit="2" stroke-width="3" stroke-dasharray="">-10</text><text fill="#000000" stroke="none" font-family="Arial" font-size="14px" font-style="normal" font-weight="normal" text-decoration="normal" x="13.1171875" y="215.808" text-anchor="middle">-10</text></g><g class="dcg-svg-axis-value"><text fill="none" stroke="#ffffff" font-family="Arial" font-size="14px" font-style="normal" font-weight="normal" text-decoration="normal" x="147.6689453125" y="215.808" text-anchor="middle" stroke-miterlimit="2" stroke-width="3" stroke-dasharray="">-5</text><text fill="#000000" stroke="none" font-family="Arial" font-size="14px" font-style="normal" font-weight="normal" text-decoration="normal" x="147.6689453125" y="215.808" text-anchor="middle">-5</text></g><g class="dcg-svg-axis-value"><text fill="none" stroke="#ffffff" font-family="Arial" font-size="14px" font-style="normal" font-weight="normal" text-decoration="normal" x="450" y="215.808" text-anchor="middle" stroke-miterlimit="2" stroke-width="3" stroke-dasharray="">5</text><text fill="#000000" stroke="none" font-family="Arial" font-size="14px" font-style="normal" font-weight="normal" text-decoration="normal" x="450" y="215.808" text-anchor="middle">5</text></g><g class="dcg-svg-axis-value dcg-svg-offcenter-axis-value"><text fill="none" stroke="#ffffff" font-family="Arial" font-size="14px" font-style="normal" font-weight="normal" text-decoration="normal" x="589.2138671875" y="215.808" text-anchor="middle" stroke-miterlimit="2" stroke-width="3" stroke-dasharray="">10</text><text fill="#000000" stroke="none" font-family="Arial" font-size="14px" font-style="normal" font-weight="normal" text-decoration="normal" x="589.2138671875" y="215.808" text-anchor="middle">10</text></g><g class="dcg-svg-axis-value"><text fill="none" stroke="#ffffff" font-family="Arial" font-size="14px" font-style="normal" font-weight="normal" text-decoration="normal" x="288.77587890625" y="346.6651428571428" text-anchor="middle" stroke-miterlimit="2" stroke-width="3" stroke-dasharray="">-5</text><text fill="#000000" stroke="none" font-family="Arial" font-size="14px" font-style="normal" font-weight="normal" text-decoration="normal" x="288.77587890625" y="346.6651428571428" text-anchor="middle">-5</text></g><g class="dcg-svg-axis-value"><text fill="none" stroke="#ffffff" font-family="Arial" font-size="14px" font-style="normal" font-weight="normal" text-decoration="normal" x="291.10693359375" y="60.95085714285717" text-anchor="middle" stroke-miterlimit="2" stroke-width="3" stroke-dasharray="">5</text><text fill="#000000" stroke="none" font-family="Arial" font-size="14px" font-style="normal" font-weight="normal" text-decoration="normal" x="291.10693359375" y="60.95085714285717" text-anchor="middle">5</text></g></g></g></g><g id="expressions-db184552"><g id="sketch-db184552"><title>Expression 1</title><path fill="#2d70b3" stroke="none" paint-order="stroke fill markers" d="" fill-opacity="0.4"/><g><path fill="none" stroke="#2d70b3" class="dcg-svg-curve" paint-order="fill stroke markers" d=" M 10.89618443860444 -5.5 L 10.89618443860444 -5.5 L 14.734375 31.3436214135333 L 21.326171875 92.94766567282346 L 26.013671875 134.0837120562058 L 29.96875 166.29678825583053 L 33.484375 192.59765413735448 L 36.70703125 214.51415998741408 L 39.63671875 232.4483416768182 L 42.2734375 246.86276108817876 L 44.763671875 258.90521721563186 L 47.107421875 268.79962922500806 L 49.3046875 276.77926374725354 L 51.35546875 283.0787963439378 L 53.259765625 287.9280138884986 L 55.017578125 291.5469855659474 L 56.62890625 294.1425108562181 L 58.09375 295.9056469063771 L 59.55859375 297.1047995425111 L 60.73046875 297.66160839969154 L 61.755859375 297.85816047409935 L 62.78125 297.78615938664063 L 63.806640625 297.4485375166385 L 64.978515625 296.7416114618512 L 66.296875 295.5433669788215 L 67.76171875 293.72144875409595 L 69.373046875 291.1355929834665 L 71.130859375 287.64067155585866 L 73.03515625 283.0904163301917 L 75.0859375 277.34187567767293 L 77.283203125 270.260630774423 L 79.7734375 261.16160358155014 L 82.556640625 249.76054434945655 L 85.6328125 235.81921984920083 L 89.1484375 218.4250065728383 L 93.25 196.58121587500608 L 98.81640625 165.18103598966348 L 112.439453125 87.61936374312234 L 116.833984375 64.63774783949356 L 120.642578125 46.25518230302288 L 124.01171875 31.43331487082372 L 127.087890625 19.23890867632889 L 129.87109375 9.406651920478737 L 132.5078125 1.2112032556748318 L 134.8515625 -5.11874577761256 L 135.01604691783552 -5.5 L 164.1574039009808 -5.5 L 164.44140625 -4.889041058755879 L 166.931640625 1.2279029885526143 L 169.71484375 8.911576864150334 L 172.791015625 18.33040101536551 L 176.306640625 30.112085301975014 L 180.408203125 44.950155541806964 L 185.828125 65.78625571357054 L 201.94140625 128.52469774302455 L 206.3359375 144.05493948563492 L 210.291015625 156.93684298780403 L 213.806640625 167.36548895290642 L 217.029296875 175.99040482208233 L 220.10546875 183.3335374161986 L 222.888671875 189.1980461553421 L 225.525390625 194.05602004531843 L 228.162109375 198.22984086357303 L 230.65234375 201.54619662058505 L 233.142578125 204.26377942130054 L 235.486328125 206.28768521574182 L 237.68359375 207.73018930016386 L 239.734375 208.69482183760064 L 241.638671875 209.27519806426272 L 243.54296875 209.56707205541335 L 245.447265625 209.58675362138783 L 247.3515625 209.35191789655758 L 249.40234375 208.83609805373965 L 251.599609375 208.00871506111827 L 254.08984375 206.7676257064997 L 257.01953125 204.95942453481723 L 260.681640625 202.2914399627152 L 265.955078125 197.97090961784804 L 274.890625 190.63676199905657 L 278.69921875 187.97037912955182 L 281.921875 186.10124014448425 L 284.705078125 184.8396963850349 L 287.1953125 184.0277930179564 L 289.392578125 183.5833928090063 L 291.58984375 183.41097555789705 L 293.640625 183.50710436882204 L 295.69140625 183.85992213881417 L 297.7421875 184.47526823907742 L 299.939453125 185.42967965135463 L 302.283203125 186.7851796652119 L 304.7734375 188.60373695196006 L 307.556640625 191.08671895441304 L 310.6328125 194.36052679768693 L 313.85546875 198.34560258813553 L 317.37109375 203.2741477054804 L 321.326171875 209.43164546470567 L 326.16015625 217.61869317433073 L 334.94921875 233.3316954324056 L 341.1015625 243.97572050105637 L 345.349609375 250.67434197896586 L 348.865234375 255.60489719327677 L 351.94140625 259.34806500978596 L 354.87109375 262.33569891149455 L 357.361328125 264.381224849977 L 359.55859375 265.777621588214 L 361.609375 266.7144689270285 L 363.3671875 267.22325680457334 L 365.125 267.45111779292927 L 366.736328125 267.40679913026304 L 368.34765625 267.1153930491565 L 370.10546875 266.51133788906816 L 371.86328125 265.6053769841145 L 373.767578125 264.2810362722689 L 375.818359375 262.45567416868005 L 378.162109375 259.8657931796589 L 380.65234375 256.53431955436594 L 383.2890625 252.37359858087805 L 386.072265625 247.30459748037822 L 389.001953125 241.2625592529151 L 392.224609375 233.8505978775394 L 395.740234375 224.96000448500646 L 399.841796875 213.71710995557888 L 405.115234375 198.29922890524762 L 418.884765625 157.55800939280886 L 422.83984375 147.06866135182824 L 426.208984375 139.00562422965118 L 429.138671875 132.8044172558811 L 431.775390625 127.97265714848623 L 434.119140625 124.34395950843708 L 436.31640625 121.56284768686174 L 438.3671875 119.54765087363256 L 440.125 118.29147964514863 L 441.736328125 117.53896197852254 L 443.0546875 117.21671907541406 L 444.373046875 117.16578549911151 L 445.69140625 117.39229762358127 L 447.009765625 117.90183130382638 L 448.474609375 118.80597422903958 L 450.0859375 120.21831806476115 L 451.84375 122.26573410345435 L 453.748046875 125.08785065546016 L 455.65234375 128.54376135202153 L 457.703125 132.9774691499693 L 459.900390625 138.5465970405981 L 462.244140625 145.41403974793423 L 464.734375 153.7438461061843 L 467.37109375 163.6958798976602 L 470.154296875 175.41913083094963 L 473.23046875 189.7578899666219 L 476.453125 206.22529650966732 L 480.115234375 226.5550260990581 L 484.216796875 251.07445444203105 L 489.197265625 282.7812205332949 L 496.375 330.6574667510034 L 506.04296875 394.8939655567095 L 507.74858744358175 405.5 L 571.4854436842571 405.5 L 572.107421875 401.08626487444235 L 576.0625 370.79390990566435 L 580.75 332.47073383064605 L 587.48828125 274.6436640270783 L 597.302734375 190.55712736221176 L 599.5 172.63682546018006" stroke-linecap="round" stroke-linejoin="round" stroke-miterlimit="10" stroke-width="2.5" stroke-opacity="0.9" stroke-dasharray=""/></g></g></g><g id="labels-db184552"/></g></svg>