<svg version="1.1" xmlns="http://www.w3.org/2000/svg" xmlns:xlink="http://www.w3.org/1999/xlink" width="600" height="400"><defs/><g transform="scale(1,1)"><g id="background-d7e7fe03"><rect fill="white" stroke="none" x="0" y="0" width="600" height="400" class="dcg-svg-background"/></g><g id="background-images-d7e7fe03"/><g id="graphpaper-d7e7fe03"><g id="grid-d7e7fe03"><g><path fill="none" stroke="rgb(0,0,0)" class="dcg-svg-minor-gridline" paint-order="fill stroke markers" d=" M -0.5 0 L -0.5 400" stroke-opacity="0.12" stroke-miterlimit="10" stroke-dasharray=""/><path fill="none" stroke="rgb(0,0,0)" class="dcg-svg-minor-gridline" paint-order="fill stroke markers" d=" M 29.5 0 L 29.5 400" stroke-opacity="0.12" stroke-miterlimit="10" stroke-dasharray=""/><path fill="none" stroke="rgb(0,0,0)" class="dcg-svg-minor-gridline" paint-order="fill stroke markers" d=" M 59.5 0 L 59.5 400" stroke-opacity="0.12" stroke-miterlimit="10" stroke-dasharray=""/><path fill="none" stroke="rgb(0,0,0)" class="dcg-svg-minor-gridline" paint-order="fill stroke markers" d=" M 89.5 0 L 89.5 400" stroke-opacity="0.12" stroke-miterlimit="10" stroke-dasharray=""/><path fill="none" stroke="rgb(0,0,0)" class="dcg-svg-minor-gridline" paint-order="fill stroke markers" d=" M 119.5 0 L 119.5 400" stroke-opacity="0.12" stroke-miterlimit="10" stroke-dasharray=""/><path fill="none" stroke="rgb(0,0,0)" class="dcg-svg-minor-gridline" paint-order="fill stroke markers" d=" M 149.5 0 L 149.5 400" stroke-opacity="0.12" stroke-miterlimit="10" stroke-dasharray=""/><path fill="none" stroke="rgb(0,0,0)" class="dcg-svg-minor-gridline" paint-order="fill stroke markers" d=" M 179.5 0 L 179.5 400" stroke-opacity="0.12" stroke-miterlimit="10" stroke-dasharray=""/><path fill="none" stroke="rgb(0,0,0)" class="dcg-svg-minor-gridline" paint-order="fill stroke markers" d=" M 209.5 0 L 209.5 400" stroke-opacity="0.12" stroke-miterlimit="10" stroke-dasharray=""/><path fill="none" stroke="rgb(0,0,0)" class="dcg-svg-minor-gridline" paint-order="fill stroke markers" d=" M 239.5 0 L 239.5 400" stroke-opacity="0.12" stroke-miterlimit="10" stroke-dasharray=""/><path fill="none" stroke="rgb(0,0,0)" class="dcg-svg-minor-gridline" paint-order="fill stroke markers" d=" M 269.5 0 L 269.5 400" stroke-opacity="0.12" stroke-miterlimit="10" stroke-dasharray=""/><path fill="none" stroke="rgb(0,0,0)" class="dcg-svg-minor-gridline" paint-order="fill stroke markers" d=" M 329.5 0 L 329.5 400" stroke-opacity="0.12" stroke-miterlimit="10" stroke-dasharray=""/><path fill="none" stroke="rgb(0,0,0)" class="dcg-svg-minor-gridline" paint-order="fill stroke markers" d=" M 359.5 0 L 359.5 400" stroke-opacity="0.12" stroke-miterlimit="10" stroke-dasharray=""/><path fill="none" stroke="rgb(0,0,0)" class="dcg-svg-minor-gridline" paint-order="fill stroke markers" d=" M 389.5 0 L 389.5 400" stroke-opacity="0.12" stroke-miterlimit="10" stroke-dasharray=""/><path fill="none" stroke="rgb(0,0,0)" class="dcg-svg-minor-gridline" paint-order="fill stroke markers" d=" M 419.5 0 L 419.5 400" stroke-opacity="0.12" stroke-miterlimit="10" stroke-dasharray=""/><path fill="none" stroke="rgb(0,0,0)" class="dcg-svg-minor-gridline" paint-order="fill stroke markers" d=" M 449.5 0 L 449.5 400" stroke-opacity="0.12" stroke-miterlimit="10" stroke-dasharray=""/><path fill="none" stroke="rgb(0,0,0)" class="dcg-svg-minor-gridline" paint-order="fill stroke markers" d=" M 479.5 0 L 479.5 400" stroke-opacity="0.12" stroke-miterlimit="10" stroke-dasharray=""/><path fill="none" stroke="rgb(0,0,0)" class="dcg-svg-minor-gridline" paint-order="fill stroke markers" d=" M 509.5 0 L 509.5 400" stroke-opacity="0.12" stroke-miterlimit="10" stroke-dasharray=""/><path fill="none" stroke="rgb(0,0,0)" class="dcg-svg-minor-gridline" paint-order="fill stroke markers" d=" M 539.5 0 L 539.5 400" stroke-opacity="0.12" stroke-miterlimit="10" stroke-dasharray=""/><path fill="none" stroke="rgb(0,0,0)" class="dcg-svg-minor-gridline" paint-order="fill stroke markers" d=" M 569.5 0 L 569.5 400" stroke-opacity="0.12" stroke-miterlimit="10" stroke-dasharray=""/><path fill="none" stroke="rgb(0,0,0)" class="dcg-svg-minor-gridline" paint-order="fill stroke markers" d=" M 0 370.5 L 600 370.5" stroke-opacity="0.12" stroke-miterlimit="10" stroke-dasharray=""/><path fill="none" stroke="rgb(0,0,0)" class="dcg-svg-minor-gridline" paint-order="fill stroke markers" d=" M 0 342.5 L 600 342.5" stroke-opacity="0.12" stroke-miterlimit="10" stroke-dasharray=""/><path fill="none" stroke="rgb(0,0,0)" class="dcg-svg-minor-gridline" paint-order="fill stroke markers" d=" M 0 313.5 L 600 313.5" stroke-opacity="0.12" stroke-miterlimit="10" stroke-dasharray=""/><path fill="none" stroke="rgb(0,0,0)" class="dcg-svg-minor-gridline" paint-order="fill stroke markers" d=" M 0 285.5 L 600 285.5" stroke-opacity="0.12" stroke-miterlimit="10" stroke-dasharray=""/><path fill="none" stroke="rgb(0,0,0)" class="dcg-svg-minor-gridline" paint-order="fill stroke markers" d=" M 0 256.5 L 600 256.5" stroke-opacity="0.12" stroke-miterlimit="10" stroke-dasharray=""/><path fill="none" stroke="rgb(0,0,0)" class="dcg-svg-minor-gridline" paint-order="fill stroke markers" d=" M 0 228.5 L 600 228.5" stroke-opacity="0.12" stroke-miterlimit="10" stroke-dasharray=""/><path fill="none" stroke="rgb(0,0,0)" class="dcg-svg-minor-gridline" paint-order="fill stroke markers" d=" M 0 170.5 L 600 170.5" stroke-opacity="0.12" stroke-miterlimit="10" stroke-dasharray=""/><path fill="none" stroke="rgb(0,0,0)" class="dcg-svg-minor-gridline" paint-order="fill stroke markers" d=" M 0 142.5 L 600 142.5" stroke-opacity="0.12" stroke-miterlimit="10" stroke-dasharray=""/><path fill="none" stroke="rgb(0,0,0)" class="dcg-svg-minor-gridline" paint-order="fill stroke markers" d=" M 0 113.5 L 600 113.5" stroke-opacity="0.12" stroke-miterlimit="10" stroke-dasharray=""/><path fill="none" stroke="rgb(0,0,0)" class="dcg-svg-minor-gridline" paint-order="fill stroke markers" d=" M 0 85.5 L 600 85.5" stroke-opacity="0.12" stroke-miterlimit="10" stroke-dasharray=""/><path fill="none" stroke="rgb(0,0,0)" class="dcg-svg-minor-gridline" paint-order="fill stroke markers" d=" M 0 56.5 L 600 56.5" stroke-opacity="0.12" stroke-miterlimit="10" stroke-dasharray=""/><path fill="none" stroke="rgb(0,0,0)" class="dcg-svg-minor-gridline" paint-order="fill stroke markers" d=" M 0 28.5 L 600 28.5" stroke-opacity="0.12" stroke-miterlimit="10" stroke-dasharray=""/><path fill="none" stroke="rgb(0,0,0)" class="dcg-svg-minor-gridline" paint-order="fill stroke markers" d=" M 0 -0.5 L 600 -0.5" stroke-opacity="0.12" stroke-miterlimit="10" stroke-dasharray=""/><path fill="none" stroke="rgb(0,0,0)" class="dcg-svg-major-gridline" paint-order="fill stroke markers" d=" M -0.5 0 L -0.5 400" stroke-opacity="0.31818181818181823" stroke-miterlimit="10" stroke-dasharray=""/><path fill="none" stroke="rgb(0,0,0)" class="dcg-svg-major-gridline" paint-order="fill stroke markers" d=" M 149.5 0 L 149.5 400" stroke-opacity="0.31818181818181823" stroke-miterlimit="10" stroke-dasharray=""/><path fill="none" stroke="rgb(0,0,0)" class="dcg-svg-major-gridline" paint-order="fill stroke markers" d=" M 449.5 0 L 449.5 400" stroke-opacity="0.31818181818181823" stroke-miterlimit="10" stroke-dasharray=""/><path fill="none" stroke="rgb(0,0,0)" class="dcg-svg-major-gridline" paint-order="fill stroke markers" d=" M 0 342.5 L 600 342.5" stroke-opacity="0.31818181818181823" stroke-miterlimit="10" stroke-dasharray=""/><path fill="none" stroke="rgb(0,0,0)" class="dcg-svg-major-gridline" paint-order="fill stroke markers" d=" M 0 56.5 L 600 56.5" stroke-opacity="0.31818181818181823" stroke-miterlimit="10" stroke-dasharray=""/></g></g><g id="axis-d7e7fe03"><g id="yaxis-d7e7fe03"><title>Y axis</title><path fill="none" stroke="rgb(0,0,0)" class="dcg-svg-axis-line" paint-order="fill stroke markers" d=" M 299.75 0 L 299.75 400" stroke-opacity="0.9" stroke-miterlimit="10" stroke-width="1.5" stroke-dasharray=""/></g><g id="xaxis-d7e7fe03"><title>X axis</title><path fill="none" stroke="rgb(0,0,0)" class="dcg-svg-axis-line" paint-order="fill stroke markers" d=" M 0 199.75 L 600 199.75" stroke-opacity="0.9" stroke-miterlimit="10" stroke-width="1.5" stroke-dasharray=""/></g><g><g class="dcg-svg-axis-value"><text fill="none" stroke="#ffffff" font-family="Arial" font-size="14px" font-style="normal" font-weight="normal" text-decoration="normal" x="291.10693359375" y="215.808" text-anchor="middle" stroke-miterlimit="2" stroke-width="3" stroke-dasharray="">0</text><text fill="#000000" stroke="none" font-family="Arial" font-size="14px" font-style="normal" font-weight="normal" text-decoration="normal" x="291.10693359375" y="215.808" text-anchor="middle">0</text></g><g class="dcg-svg-axis-value dcg-svg-offcenter-axis-value"><text fill="none" stroke="#ffffff" font-family="Arial" font-size="14px" font-style="normal" font-weight="normal" text-decoration="normal" x="13.1171875" y="215.808" text-anchor="middle" stroke-miterlimit="2" stroke-width="3" stroke-dasharray="">-10</text><text fill="#000000" stroke="none" font-family="Arial" font-size="14px" font-style="normal" font-weight="normal" text-decoration="normal" x="13.1171875" y="215.808" text-anchor="middle">-10</text></g><g class="dcg-svg-axis-value"><text fill="none" stroke="#ffffff" font-family="Arial" font-size="14px" font-style="normal" font-weight="normal" text-decoration="normal" x="147.6689453125" y="215.808" text-anchor="middle" stroke-miterlimit="2" stroke-width="3" stroke-dasharray="">-5</text><text fill="#000000" stroke="none" font-family="Arial" font-size="14px" font-style="normal" font-weight="normal" text-decoration="normal" x="147.6689453125" y="215.808" text-anchor="middle">-5</text></g><g class="dcg-svg-axis-value"><text fill="none" stroke="#ffffff" font-family="Arial" font-size="14px" font-style="normal" font-weight="normal" text-decoration="normal" x="450" y="215.808" text-anchor="middle" stroke-miterlimit="2" stroke-width="3" stroke-dasharray="">5</text><text fill="#000000" stroke="none" font-family="Arial" font-size="14px" font-style="normal" font-weight="normal" text-decoration="normal" x="450" y="215.808" text-anchor="middle">5</text></g><g class="dcg-svg-axis-value dcg-svg-offcenter-axis-value"><text fill="none" stroke="#ffffff" font-family="Arial" font-size="14px" font-style="normal" font-weight="normal" text-decoration="normal" x="589.2138671875" y="215.808" text-anchor="middle" stroke-miterlimit="2" stroke-width="3" stroke-dasharray="">10</text><text fill="#000000" stroke="none" font-family="Arial" font-size="14px" font-style="normal" font-weight="normal" text-decoration="normal" x="589.2138671875" y="215.808" text-anchor="middle">10</text></g><g class="dcg-svg-axis-value"><text fill="none" stroke="#ffffff" font-family="Arial" font-size="14px" font-style="normal" font-weight="normal" text-decoration="normal" x="288.77587890625" y="346.6651428571428" text-anchor="middle" stroke-miterlimit="2" stroke-width="3" stroke-dasharray="">-5</text><text fill="#000000" stroke="none" font-family="Arial" font-size="14px" font-style="normal" font-weight="normal" text-decoration="normal" x="288.77587890625" y="346.6651428571428" text-anchor="middle">-5</text></g><g class="dcg-svg-axis-value"><text fill="none" stroke="#ffffff" font-family="Arial" font-size="14px" font-style="normal" font-weight="normal" text-decoration="normal" x="291.10693359375" y="60.95085714285717" text-anchor="middle" stroke-miterlimit="2" stroke-width="3" stroke-dasharray="">5</text><text fill="#000000" stroke="none" font-family="Arial" font-size="14px" font-style="normal" font-weight="normal" text-decoration="normal" x="291.10693359375" y="60.95085714285717" text-anchor="middle">5</text></g></g></g></g><g id="expressions-d7e7fe03"><g id="sketch-d7e7fe03"><title>Expression 1</title><path fill="#2d70b3" stroke="none" paint-order="stroke fill markers" d="" fill-opacity="0.4"/><g><path fill="none" stroke="#2d70b3" class="dcg-svg-curve" paint-order="fill stroke markers" d=" M -0.5 245.95970358915105 L -0.5 245.95970358915105 L 1.990234375 240.3252203883568 L 4.7734375 233.20493063213905 L 7.849609375 224.42439665529423 L 11.21875 213.85222125954365 L 15.173828125 200.3921208591981 L 20.0078125 182.80489360463653 L 27.91796875 152.67700881171015 L 35.974609375 122.38474900920932 L 40.80859375 105.36567796357781 L 44.763671875 92.47840568012651 L 48.279296875 81.99660788766505 L 51.501953125 73.3122230782418 L 54.431640625 66.2610292281077 L 57.21484375 60.359394107791786 L 59.8515625 55.52096521163014 L 62.341796875 51.647870230911394 L 64.685546875 48.63572064343231 L 66.8828125 46.3777395045156 L 68.93359375 44.76806706187364 L 70.837890625 43.70432047746027 L 72.44921875 43.127326944765684 L 74.060546875 42.844527893878535 L 75.525390625 42.84036850438952 L 77.13671875 43.11060641053848 L 78.748046875 43.66434209452734 L 80.505859375 44.58541447897488 L 82.41015625 45.947344085648126 L 84.607421875 47.97424939165887 L 87.09765625 50.8364032795165 L 89.587890625 54.266579992702475 L 92.37109375 58.72673645257606 L 95.30078125 64.07571404841252 L 98.5234375 70.65052447244994 L 102.185546875 78.87560245277427 L 106.43359375 89.22253937234376 L 111.853515625 103.29640490963874 L 129.724609375 150.38235817276023 L 134.265625 161.0937216826467 L 138.220703125 169.63496106868328 L 141.736328125 176.5095571670652 L 145.10546875 182.39815006351708 L 148.181640625 187.1364709964982 L 151.111328125 191.05821097693115 L 154.041015625 194.3887039449979 L 156.82421875 196.9987506001143 L 159.4609375 198.9737945369264 L 161.8046875 200.32706835180997 L 164.001953125 201.25798052216933 L 166.052734375 201.8388273893049 L 168.103515625 202.14964540311797 L 170.154296875 202.19977610907253 L 172.205078125 201.99993175253653 L 174.40234375 201.52206276784196 L 176.74609375 200.72955630834892 L 179.236328125 199.59125620330235 L 182.01953125 197.9913548751493 L 185.2421875 195.75930743752556 L 189.05078125 192.68498021609906 L 193.73828125 188.41590974310574 L 201.208984375 181.02286930329035 L 210.291015625 172.16097887883387 L 215.271484375 167.82974612204177 L 219.373046875 164.72076403630217 L 222.888671875 162.45489964886048 L 226.111328125 160.73939762471826 L 229.041015625 159.5007560096065 L 231.82421875 158.61851609556268 L 234.607421875 158.02880568695832 L 237.244140625 157.74079624271909 L 239.880859375 157.71309106802028 L 242.517578125 157.93908454570192 L 245.30078125 158.44171926905904 L 248.23046875 159.24669215920892 L 251.453125 160.4319035154612 L 254.96875 162.04122569499933 L 259.0703125 164.26459336966963 L 264.197265625 167.42423233003962 L 282.068359375 178.7931279366387 L 286.0234375 180.76552887354518 L 289.5390625 182.19324111393138 L 292.615234375 183.14947865632746 L 295.544921875 183.77836530741882 L 298.328125 184.10250031736794 L 300.96484375 184.15175751348744 L 303.6015625 183.9423228710365 L 306.23828125 183.47007573778473 L 308.875 182.73452988290325 L 311.658203125 181.67607898877966 L 314.587890625 180.2580533209254 L 317.810546875 178.35627847454535 L 321.326171875 175.90522214860323 L 325.28125 172.73552381033699 L 330.115234375 168.38579256419686 L 337 161.62962461183983 L 347.546875 151.30532350668958 L 352.234375 147.27654307284493 L 355.896484375 144.57406610782945 L 358.97265625 142.6870210239603 L 361.755859375 141.33164556188655 L 364.24609375 140.43582558446644 L 366.58984375 139.89049311012639 L 368.787109375 139.65966168839776 L 370.837890625 139.7024952871028 L 372.888671875 140.0057287230983 L 374.939453125 140.57874393761972 L 376.990234375 141.42946823540558 L 379.1875 142.6563624893804 L 381.53125 144.3310160557295 L 384.021484375 146.528871723698 L 386.8046875 149.4972142604389 L 389.734375 153.20146351665565 L 392.6640625 157.48878945810182 L 395.740234375 162.59693284562778 L 399.109375 168.86762957476998 L 402.625 176.10791425052284 L 406.580078125 185.01072581752078 L 411.12109375 196.0593431434823 L 416.6875 210.48380859176322 L 434.998046875 258.650104849649 L 439.099609375 268.2005149618317 L 442.615234375 275.64611358179883 L 445.837890625 281.7495222833844 L 448.767578125 286.61469311623864 L 451.404296875 290.3790083621377 L 453.89453125 293.3575669837331 L 456.23828125 295.61784049924574 L 458.435546875 297.23541688872564 L 460.33984375 298.23022844823527 L 462.09765625 298.80357953588117 L 463.708984375 299.0321843929428 L 465.173828125 298.98966571946704 L 466.638671875 298.70595076931005 L 468.25 298.1128469351337 L 469.861328125 297.2235616891776 L 471.619140625 295.91458078785956 L 473.669921875 293.9407807178094 L 475.8671875 291.29507909081275 L 478.2109375 287.8747463562768 L 480.5546875 283.84863190440524 L 483.044921875 278.92547539306645 L 485.828125 272.6666308550102 L 488.7578125 265.26160699386134 L 491.98046875 256.2193473049714 L 495.49609375 245.39080523287777 L 499.451171875 232.17586960302822 L 504.138671875 215.39754035114493 L 510.583984375 191.08877140989603 L 521.716796875 149.01346745726073 L 526.404296875 132.57536719206303 L 530.212890625 120.28095319578773 L 533.58203125 110.41644540759705 L 536.51171875 102.74444765559707 L 539.1484375 96.64840988024912 L 541.638671875 91.65878940709257 L 543.982421875 87.69251271442357 L 546.033203125 84.83496241130877 L 548.083984375 82.57495590610472 L 549.98828125 81.03031171657324 L 551.599609375 80.1515251777322 L 553.064453125 79.70042217148085 L 554.3828125 79.5820600617563 L 555.701171875 79.73951091279696 L 557.01953125 80.17542172242383 L 558.484375 80.98888709181193 L 560.095703125 82.28617570733354 L 561.853515625 84.18396996863726 L 563.7578125 86.80835844888657 L 565.662109375 90.02182241880547 L 567.712890625 94.13585503376208 L 569.91015625 99.28535890883967 L 572.25390625 105.60636432660715 L 574.744140625 113.23198145443502 L 577.380859375 122.28739880707138 L 580.310546875 133.46982023836006 L 583.533203125 147.0351210940382 L 587.048828125 163.19570706841503 L 591.00390625 182.84141079456884 L 595.69140625 207.7245306211009 L 599.5 228.85185692833286" stroke-linecap="round" stroke-linejoin="round" stroke-miterlimit="10" stroke-width="2.5" stroke-opacity="0.9" stroke-dasharray=""/></g></g></g><g id="labels-d7e7fe03"/></g></svg>