<svg version="1.1" xmlns="http://www.w3.org/2000/svg" xmlns:xlink="http://www.w3.org/1999/xlink" width="600" height="400"><defs/><g transform="scale(1,1)"><g id="background-6306cda6"><rect fill="white" stroke="none" x="0" y="0" width="600" height="400" class="dcg-svg-background"/></g><g id="background-images-6306cda6"/><g id="graphpaper-6306cda6"><g id="grid-6306cda6"><g><path fill="none" stroke="rgb(0,0,0)" class="dcg-svg-minor-gridline" paint-order="fill stroke markers" d=" M -0.5 0 L -0.5 400" stroke-opacity="0.12" stroke-miterlimit="10" stroke-dasharray=""/><path fill="none" stroke="rgb(0,0,0)" class="dcg-svg-minor-gridline" paint-order="fill stroke markers" d=" M 29.5 0 L 29.5 400" stroke-opacity="0.12" stroke-miterlimit="10" stroke-dasharray=""/><path fill="none" stroke="rgb(0,0,0)" class="dcg-svg-minor-gridline" paint-order="fill stroke markers" d=" M 59.5 0 L 59.5 400" stroke-opacity="0.12" stroke-miterlimit="10" stroke-dasharray=""/><path fill="none" stroke="rgb(0,0,0)" class="dcg-svg-minor-gridline" paint-order="fill stroke markers" d=" M 89.5 0 L 89.5 400" stroke-opacity="0.12" stroke-miterlimit="10" stroke-dasharray=""/><path fill="none" stroke="rgb(0,0,0)" class="dcg-svg-minor-gridline" paint-order="fill stroke markers" d=" M 119.5 0 L 119.5 400" stroke-opacity="0.12" stroke-miterlimit="10" stroke-dasharray=""/><path fill="none" stroke="rgb(0,0,0)" class="dcg-svg-minor-gridline" paint-order="fill stroke markers" d=" M 149.5 0 L 149.5 400" stroke-opacity="0.12" stroke-miterlimit="10" stroke-dasharray=""/><path fill="none" stroke="rgb(0,0,0)" class="dcg-svg-minor-gridline" paint-order="fill stroke markers" d=" M 179.5 0 L 179.5 400" stroke-opacity="0.12" stroke-miterlimit="10" stroke-dasharray=""/><path fill="none" stroke="rgb(0,0,0)" class="dcg-svg-minor-gridline" paint-order="fill stroke markers" d=" M 209.5 0 L 209.5 400" stroke-opacity="0.12" stroke-miterlimit="10" stroke-dasharray=""/><path fill="none" stroke="rgb(0,0,0)" class="dcg-svg-minor-gridline" paint-order="fill stroke markers" d=" M 239.5 0 L 239.5 400" stroke-opacity="0.12" stroke-miterlimit="10" stroke-dasharray=""/><path fill="none" stroke="rgb(0,0,0)" class="dcg-svg-minor-gridline" paint-order="fill stroke markers" d=" M 269.5 0 L 269.5 400" stroke-opacity="0.12" stroke-miterlimit="10" stroke-dasharray=""/><path fill="none" stroke="rgb(0,0,0)" class="dcg-svg-minor-gridline" paint-order="fill stroke markers" d=" M 329.5 0 L 329.5 400" stroke-opacity="0.12" stroke-miterlimit="10" stroke-dasharray=""/><path fill="none" stroke="rgb(0,0,0)" class="dcg-svg-minor-gridline" paint-order="fill stroke markers" d=" M 359.5 0 L 359.5 400" stroke-opacity="0.12" stroke-miterlimit="10" stroke-dasharray=""/><path fill="none" stroke="rgb(0,0,0)" class="dcg-svg-minor-gridline" paint-order="fill stroke markers" d=" M 389.5 0 L 389.5 400" stroke-opacity="0.12" stroke-miterlimit="10" stroke-dasharray=""/><path fill="none" stroke="rgb(0,0,0)" class="dcg-svg-minor-gridline" paint-order="fill stroke markers" d=" M 419.5 0 L 419.5 400" stroke-opacity="0.12" stroke-miterlimit="10" stroke-dasharray=""/><path fill="none" stroke="rgb(0,0,0)" class="dcg-svg-minor-gridline" paint-order="fill stroke markers" d=" M 449.5 0 L 449.5 400" stroke-opacity="0.12" stroke-miterlimit="10" stroke-dasharray=""/><path fill="none" stroke="rgb(0,0,0)" class="dcg-svg-minor-gridline" paint-order="fill stroke markers" d=" M 479.5 0 L 479.5 400" stroke-opacity="0.12" stroke-miterlimit="10" stroke-dasharray=""/><path fill="none" stroke="rgb(0,0,0)" class="dcg-svg-minor-gridline" paint-order="fill stroke markers" d=" M 509.5 0 L 509.5 400" stroke-opacity="0.12" stroke-miterlimit="10" stroke-dasharray=""/><path fill="none" stroke="rgb(0,0,0)" class="dcg-svg-minor-gridline" paint-order="fill stroke markers" d=" M 539.5 0 L 539.5 400" stroke-opacity="0.12" stroke-miterlimit="10" stroke-dasharray=""/><path fill="none" stroke="rgb(0,0,0)" class="dcg-svg-minor-gridline" paint-order="fill stroke markers" d=" M 569.5 0 L 569.5 400" stroke-opacity="0.12" stroke-miterlimit="10" stroke-dasharray=""/><path fill="none" stroke="rgb(0,0,0)" class="dcg-svg-minor-gridline" paint-order="fill stroke markers" d=" M 0 370.5 L 600 370.5" stroke-opacity="0.12" stroke-miterlimit="10" stroke-dasharray=""/><path fill="none" stroke="rgb(0,0,0)" class="dcg-svg-minor-gridline" paint-order="fill stroke markers" d=" M 0 342.5 L 600 342.5" stroke-opacity="0.12" stroke-miterlimit="10" stroke-dasharray=""/><path fill="none" stroke="rgb(0,0,0)" class="dcg-svg-minor-gridline" paint-order="fill stroke markers" d=" M 0 313.5 L 600 313.5" stroke-opacity="0.12" stroke-miterlimit="10" stroke-dasharray=""/><path fill="none" stroke="rgb(0,0,0)" class="dcg-svg-minor-gridline" paint-order="fill stroke markers" d=" M 0 285.5 L 600 285.5" stroke-opacity="0.12" stroke-miterlimit="10" stroke-dasharray=""/><path fill="none" stroke="rgb(0,0,0)" class="dcg-svg-minor-gridline" paint-order="fill stroke markers" d=" M 0 256.5 L 600 256.5" stroke-opacity="0.12" stroke-miterlimit="10" stroke-dasharray=""/><path fill="none" stroke="rgb(0,0,0)" class="dcg-svg-minor-gridline" paint-order="fill stroke markers" d=" M 0 228.5 L 600 228.5" stroke-opacity="0.12" stroke-miterlimit="10" stroke-dasharray=""/><path fill="none" stroke="rgb(0,0,0)" class="dcg-svg-minor-gridline" paint-order="fill stroke markers" d=" M 0 170.5 L 600 170.5" stroke-opacity="0.12" stroke-miterlimit="10" stroke-dasharray=""/><path fill="none" stroke="rgb(0,0,0)" class="dcg-svg-minor-gridline" paint-order="fill stroke markers" d=" M 0 142.5 L 600 142.5" stroke-opacity="0.12" stroke-miterlimit="10" stroke-dasharray=""/><path fill="none" stroke="rgb(0,0,0)" class="dcg-svg-minor-gridline" paint-order="fill stroke markers" d=" M 0 113.5 L 600 113.5" stroke-opacity="0.12" stroke-miterlimit="10" stroke-dasharray=""/><path fill="none" stroke="rgb(0,0,0)" class="dcg-svg-minor-gridline" paint-order="fill stroke markers" d=" M 0 85.5 L 600 85.5" stroke-opacity="0.12" stroke-miterlimit="10" stroke-dasharray=""/><path fill="none" stroke="rgb(0,0,0)" class="dcg-svg-minor-gridline" paint-order="fill stroke markers" d=" M 0 56.5 L 600 56.5" stroke-opacity="0.12" stroke-miterlimit="10" stroke-dasharray=""/><path fill="none" stroke="rgb(0,0,0)" class="dcg-svg-minor-gridline" paint-order="fill stroke markers" d=" M 0 28.5 L 600 28.5" stroke-opacity="0.12" stroke-miterlimit="10" stroke-dasharray=""/><path fill="none" stroke="rgb(0,0,0)" class="dcg-svg-minor-gridline" paint-order="fill stroke markers" d=" M 0 -0.5 L 600 -0.5" stroke-opacity="0.12" stroke-miterlimit="10" stroke-dasharray=""/><path fill="none" stroke="rgb(0,0,0)" class="dcg-svg-major-gridline" paint-order="fill stroke markers" d=" M -0.5 0 L -0.5 400" stroke-opacity="0.31818181818181823" stroke-miterlimit="10" stroke-dasharray=""/><path fill="none" stroke="rgb(0,0,0)" class="dcg-svg-major-gridline" paint-order="fill stroke markers" d=" M 149.5 0 L 149.5 400" stroke-opacity="0.31818181818181823" stroke-miterlimit="10" stroke-dasharray=""/><path fill="none" stroke="rgb(0,0,0)" class="dcg-svg-major-gridline" paint-order="fill stroke markers" d=" M 449.5 0 L 449.5 400" stroke-opacity="0.31818181818181823" stroke-miterlimit="10" stroke-dasharray=""/><path fill="none" stroke="rgb(0,0,0)" class="dcg-svg-major-gridline" paint-order="fill stroke markers" d=" M 0 342.5 L 600 342.5" stroke-opacity="0.31818181818181823" stroke-miterlimit="10" stroke-dasharray=""/><path fill="none" stroke="rgb(0,0,0)" class="dcg-svg-major-gridline" paint-order="fill stroke markers" d=" M 0 56.5 L 600 56.5" stroke-opacity="0.31818181818181823" stroke-miterlimit="10" stroke-dasharray=""/></g></g><g id="axis-6306cda6"><g id="yaxis-6306cda6"><title>Y axis</title><path fill="none" stroke="rgb(0,0,0)" class="dcg-svg-axis-line" paint-order="fill stroke markers" d=" M 299.75 0 L 299.75 400" stroke-opacity="0.9" stroke-miterlimit="10" stroke-width="1.5" stroke-dasharray=""/></g><g id="xaxis-6306cda6"><title>X axis</title><path fill="none" stroke="rgb(0,0,0)" class="dcg-svg-axis-line" paint-order="fill stroke markers" d=" M 0 199.75 L 600 199.75" stroke-opacity="0.9" stroke-miterlimit="10" stroke-width="1.5" stroke-dasharray=""/></g><g><g class="dcg-svg-axis-value"><text fill="none" stroke="#ffffff" font-family="Arial" font-size="14px" font-style="normal" font-weight="normal" text-decoration="normal" x="291.10693359375" y="215.808" text-anchor="middle" stroke-miterlimit="2" stroke-width="3" stroke-dasharray="">0</text><text fill="#000000" stroke="none" font-family="Arial" font-size="14px" font-style="normal" font-weight="normal" text-decoration="normal" x="291.10693359375" y="215.808" text-anchor="middle">0</text></g><g class="dcg-svg-axis-value dcg-svg-offcenter-axis-value"><text fill="none" stroke="#ffffff" font-family="Arial" font-size="14px" font-style="normal" font-weight="normal" text-decoration="normal" x="13.1171875" y="215.808" text-anchor="middle" stroke-miterlimit="2" stroke-width="3" stroke-dasharray="">-10</text><text fill="#000000" stroke="none" font-family="Arial" font-size="14px" font-style="normal" font-weight="normal" text-decoration="normal" x="13.1171875" y="215.808" text-anchor="middle">-10</text></g><g class="dcg-svg-axis-value"><text fill="none" stroke="#ffffff" font-family="Arial" font-size="14px" font-style="normal" font-weight="normal" text-decoration="normal" x="147.6689453125" y="215.808" text-anchor="middle" stroke-miterlimit="2" stroke-width="3" stroke-dasharray="">-5</text><text fill="#000000" stroke="none" font-family="Arial" font-size="14px" font-style="normal" font-weight="normal" text-decoration="normal" x="147.6689453125" y="215.808" text-anchor="middle">-5</text></g><g class="dcg-svg-axis-value"><text fill="none" stroke="#ffffff" font-family="Arial" font-size="14px" font-style="normal" font-weight="normal" text-decoration="normal" x="450" y="215.808" text-anchor="middle" stroke-miterlimit="2" stroke-width="3" stroke-dasharray="">5</text><text fill="#000000" stroke="none" font-family="Arial" font-size="14px" font-style="normal" font-weight="normal" text-decoration="normal" x="450" y="215.808" text-anchor="middle">5</text></g><g class="dcg-svg-axis-value dcg-svg-offcenter-axis-value"><text fill="none" stroke="#ffffff" font-family="Arial" font-size="14px" font-style="normal" font-weight="normal" text-decoration="normal" x="589.2138671875" y="215.808" text-anchor="middle" stroke-miterlimit="2" stroke-width="3" stroke-dasharray="">10</text><text fill="#000000" stroke="none" font-family="Arial" font-size="14px" font-style="normal" font-weight="normal" text-decoration="normal" x="589.2138671875" y="215.808" text-anchor="middle">10</text></g><g class="dcg-svg-axis-value"><text fill="none" stroke="#ffffff" font-family="Arial" font-size="14px" font-style="normal" font-weight="normal" text-decoration="normal" x="288.77587890625" y="346.6651428571428" text-anchor="middle" stroke-miterlimit="2" stroke-width="3" stroke-dasharray="">-5</text><text fill="#000000" stroke="none" font-family="Arial" font-size="14px" font-style="normal" font-weight="normal" text-decoration="normal" x="288.77587890625" y="346.6651428571428" text-anchor="middle">-5</text></g><g class="dcg-svg-axis-value"><text fill="none" stroke="#ffffff" font-family="Arial" font-size="14px" font-style="normal" font-weight="normal" text-decoration="normal" x="291.10693359375" y="60.95085714285717" text-anchor="middle" stroke-miterlimit="2" stroke-width="3" stroke-dasharray="">5</text><text fill="#000000" stroke="none" font-family="Arial" font-size="14px" font-style="normal" font-weight="normal" text-decoration="normal" x="291.10693359375" y="60.95085714285717" text-anchor="middle">5</text></g></g></g></g><g id="expressions-6306cda6"><g id="sketch-6306cda6"><title>Expression 1</title><path fill="#2d70b3" stroke="none" paint-order="stroke fill markers" d="" fill-opacity="0.4"/><g><path fill="none" stroke="#2d70b3" class="dcg-svg-curve" paint-order="fill stroke markers" d=" M -0.5 28.399154383433824 L -0.5 28.399154383433824 L 1.697265625 18.577149900346797 L 3.748046875 10.77197803535563 L 5.65234375 4.7169189084061145 L 7.41015625 0.15428700440884313 L 9.021484375 -3.1599277619494615 L 10.486328125 -5.452705360885943 L 10.528485700358944 -5.5 L 18.901781900825476 -5.5 L 19.275390625 -5.054399187825936 L 20.740234375 -2.7044760703150814 L 22.3515625 0.5976205345473886 L 23.962890625 4.631595305051121 L 25.720703125 9.841053492097558 L 27.771484375 16.944602066330674 L 29.96875 25.72270430318423 L 32.3125 36.337153595217785 L 34.94921875 49.70678738371015 L 37.87890625 66.16677008956344 L 41.248046875 86.92016949170971 L 45.056640625 112.32534250119824 L 49.744140625 145.70385059101008 L 57.068359375 200.33686505644985 L 65.564453125 263.21561317026 L 70.3984375 296.79671189554773 L 74.353515625 322.28965289998814 L 77.869140625 343.075299970384 L 80.9453125 359.59655517374784 L 83.875 373.7369991040532 L 86.51171875 385.0381842728774 L 89.001953125 394.40727078728105 L 91.19921875 401.58363815020704 L 92.59546677746613 405.5 L 117.4593305659419 405.5 L 118.15234375 403.7762474856679 L 120.49609375 397.0484554729004 L 122.986328125 388.91822534235536 L 125.76953125 378.7326923608175 L 128.845703125 366.26727270899937 L 132.361328125 350.6849342622355 L 136.462890625 331.05329468270514 L 141.58984375 304.96513448226534 L 159.900390625 210.38673195252352 L 164.1484375 190.73982756694397 L 167.810546875 175.12882128867753 L 171.1796875 162.02186496657632 L 174.255859375 151.211115489674 L 177.185546875 142.01127096824797 L 179.822265625 134.68671414710957 L 182.3125 128.62365985728508 L 184.65625 123.68757984522438 L 186.853515625 119.74265958919091 L 189.05078125 116.45736280035965 L 191.1015625 113.98136754932767 L 193.15234375 112.06720777321578 L 195.056640625 110.78313539163099 L 196.66796875 110.05917541543766 L 198.279296875 109.65904917401707 L 199.744140625 109.56863083664871 L 201.208984375 109.73068624902226 L 202.8203125 110.19066557351277 L 204.431640625 110.93423837479435 L 206.3359375 112.16116394361791 L 208.38671875 113.87972431944127 L 210.876953125 116.47819387862955 L 213.513671875 119.7816184220203 L 216.443359375 124.03329245033564 L 219.8125 129.55137193182952 L 223.9140625 136.95574764037627 L 229.7734375 148.2958810548608 L 239.1484375 166.42753323882326 L 243.54296875 174.17907966180553 L 247.205078125 179.99572464323245 L 250.427734375 184.51933551248888 L 253.50390625 188.24658410565888 L 256.43359375 191.21220231322508 L 259.0703125 193.36584641312393 L 261.4140625 194.85608396180152 L 263.611328125 195.88419589550486 L 265.662109375 196.51974704379225 L 267.56640625 196.83073625463084 L 269.470703125 196.87588317451343 L 271.375 196.66003151591946 L 273.279296875 196.18987222963483 L 275.330078125 195.40890539456916 L 277.52734375 194.2704022007075 L 280.017578125 192.62581121606772 L 282.80078125 190.37943140000195 L 286.0234375 187.30326711851595 L 289.83203125 183.1239377925697 L 294.51953125 177.39358058679562 L 311.21875 156.4178048359779 L 315.02734375 152.54123269786731 L 318.25 149.78245746615497 L 321.033203125 147.8503616755027 L 323.5234375 146.51460472820014 L 325.720703125 145.66727062750803 L 327.771484375 145.17138230722063 L 329.67578125 144.97539310969782 L 331.580078125 145.040841372989 L 333.484375 145.37242649467137 L 335.388671875 145.972946961638 L 337.439453125 146.92136548437588 L 339.63671875 148.28298150304244 L 341.98046875 150.12338985259188 L 344.6171875 152.6592467265843 L 347.546875 156.02839106367963 L 350.623046875 160.1474019873696 L 353.9921875 165.27233160003934 L 357.80078125 171.72167961789273 L 362.341796875 180.1030408168283 L 369.8125 194.71547271633995 L 376.404296875 207.34777045017492 L 380.505859375 214.53585466972544 L 383.875 219.80682352903142 L 386.8046875 223.79402763725363 L 389.44140625 226.82152620901175 L 391.931640625 229.12806588532078 L 394.12890625 230.67254837889828 L 396.033203125 231.61041306330557 L 397.64453125 232.09667784684783 L 399.255859375 232.28851202049412 L 400.720703125 232.1980936831258 L 402.185546875 231.84759414950128 L 403.650390625 231.23010220284215 L 405.26171875 230.23512803821473 L 407.01953125 228.7643466625031 L 409.0703125 226.5303025395125 L 411.12109375 223.7294732161727 L 413.318359375 220.09278633145283 L 415.515625 215.79534074995786 L 417.859375 210.48473779949506 L 420.349609375 204.02876448189846 L 422.986328125 196.297795432799 L 425.76953125 187.17029510791588 L 428.845703125 175.98164270228904 L 432.068359375 163.10519548060546 L 435.73046875 147.17860070204213 L 439.83203125 127.93893926774268 L 444.8125 103.03258891692883 L 452.13671875 64.65357663720687 L 461.072265625 18.114596138077843 L 465.759765625 -4.739406438813319 L 465.92851529464986 -5.5 L 520.3480584405514 -5.5 L 520.69140625 -3.677873302906562 L 523.9140625 15.081315005134911 L 527.576171875 38.25830107380341 L 531.677734375 66.16958489829727 L 536.8046875 103.18779642023583 L 555.26171875 238.53042822940202 L 559.216796875 264.1805886219121 L 562.5859375 284.1195597156421 L 565.515625 299.7569530372996 L 568.15234375 312.3006683809187 L 570.49609375 322.1173856717568 L 572.693359375 330.09720543498275 L 574.744140625 336.4151564646915 L 576.501953125 340.9227233581739 L 578.11328125 344.29221239186137 L 579.578125 346.7049109578044 L 581.04296875 348.48394110908396 L 582.361328125 349.53317057439176 L 583.38671875 349.9824884944784 L 584.412109375 350.10730245968637 L 585.291015625 349.9538164304659 L 586.31640625 349.46864323762236 L 587.48828125 348.5079039337568 L 588.806640625 346.90607148345606 L 590.125 344.7500962465694 L 591.58984375 341.702855852734 L 593.201171875 337.55815225450914 L 594.958984375 332.09174228298656 L 596.86328125 325.0639490482358 L 598.9140625 316.22336729727135 L 599.5 313.45798847370895" stroke-linecap="round" stroke-linejoin="round" stroke-miterlimit="10" stroke-width="2.5" stroke-opacity="0.9" stroke-dasharray=""/></g></g></g><g id="labels-6306cda6"/></g></svg>