<svg version="1.1" xmlns="http://www.w3.org/2000/svg" xmlns:xlink="http://www.w3.org/1999/xlink" width="600" height="400"><defs/><g transform="scale(1,1)"><g id="background-bde3aff7"><rect fill="white" stroke="none" x="0" y="0" width="600" height="400" class="dcg-svg-background"/></g><g id="background-images-bde3aff7"/><g id="graphpaper-bde3aff7"><g id="grid-bde3aff7"><g><path fill="none" stroke="rgb(0,0,0)" class="dcg-svg-minor-gridline" paint-order="fill stroke markers" d=" M -0.5 0 L -0.5 400" stroke-opacity="0.12" stroke-miterlimit="10" stroke-dasharray=""/><path fill="none" stroke="rgb(0,0,0)" class="dcg-svg-minor-gridline" paint-order="fill stroke markers" d=" M 26.5 0 L 26.5 400" stroke-opacity="0.12" stroke-miterlimit="10" stroke-dasharray=""/><path fill="none" stroke="rgb(0,0,0)" class="dcg-svg-minor-gridline" paint-order="fill stroke markers" d=" M 54.5 0 L 54.5 400" stroke-opacity="0.12" stroke-miterlimit="10" stroke-dasharray=""/><path fill="none" stroke="rgb(0,0,0)" class="dcg-svg-minor-gridline" paint-order="fill stroke markers" d=" M 81.5 0 L 81.5 400" stroke-opacity="0.12" stroke-miterlimit="10" stroke-dasharray=""/><path fill="none" stroke="rgb(0,0,0)" class="dcg-svg-minor-gridline" paint-order="fill stroke markers" d=" M 108.5 0 L 108.5 400" stroke-opacity="0.12" stroke-miterlimit="10" stroke-dasharray=""/><path fill="none" stroke="rgb(0,0,0)" class="dcg-svg-minor-gridline" paint-order="fill stroke markers" d=" M 135.5 0 L 135.5 400" stroke-opacity="0.12" stroke-miterlimit="10" stroke-dasharray=""/><path fill="none" stroke="rgb(0,0,0)" class="dcg-svg-minor-gridline" paint-order="fill stroke markers" d=" M 190.5 0 L 190.5 400" stroke-opacity="0.12" stroke-miterlimit="10" stroke-dasharray=""/><path fill="none" stroke="rgb(0,0,0)" class="dcg-svg-minor-gridline" paint-order="fill stroke markers" d=" M 217.5 0 L 217.5 400" stroke-opacity="0.12" stroke-miterlimit="10" stroke-dasharray=""/><path fill="none" stroke="rgb(0,0,0)" class="dcg-svg-minor-gridline" paint-order="fill stroke markers" d=" M 244.5 0 L 244.5 400" stroke-opacity="0.12" stroke-miterlimit="10" stroke-dasharray=""/><path fill="none" stroke="rgb(0,0,0)" class="dcg-svg-minor-gridline" paint-order="fill stroke markers" d=" M 272.5 0 L 272.5 400" stroke-opacity="0.12" stroke-miterlimit="10" stroke-dasharray=""/><path fill="none" stroke="rgb(0,0,0)" class="dcg-svg-minor-gridline" paint-order="fill stroke markers" d=" M 299.5 0 L 299.5 400" stroke-opacity="0.12" stroke-miterlimit="10" stroke-dasharray=""/><path fill="none" stroke="rgb(0,0,0)" class="dcg-svg-minor-gridline" paint-order="fill stroke markers" d=" M 326.5 0 L 326.5 400" stroke-opacity="0.12" stroke-miterlimit="10" stroke-dasharray=""/><path fill="none" stroke="rgb(0,0,0)" class="dcg-svg-minor-gridline" paint-order="fill stroke markers" d=" M 354.5 0 L 354.5 400" stroke-opacity="0.12" stroke-miterlimit="10" stroke-dasharray=""/><path fill="none" stroke="rgb(0,0,0)" class="dcg-svg-minor-gridline" paint-order="fill stroke markers" d=" M 381.5 0 L 381.5 400" stroke-opacity="0.12" stroke-miterlimit="10" stroke-dasharray=""/><path fill="none" stroke="rgb(0,0,0)" class="dcg-svg-minor-gridline" paint-order="fill stroke markers" d=" M 408.5 0 L 408.5 400" stroke-opacity="0.12" stroke-miterlimit="10" stroke-dasharray=""/><path fill="none" stroke="rgb(0,0,0)" class="dcg-svg-minor-gridline" paint-order="fill stroke markers" d=" M 435.5 0 L 435.5 400" stroke-opacity="0.12" stroke-miterlimit="10" stroke-dasharray=""/><path fill="none" stroke="rgb(0,0,0)" class="dcg-svg-minor-gridline" paint-order="fill stroke markers" d=" M 463.5 0 L 463.5 400" stroke-opacity="0.12" stroke-miterlimit="10" stroke-dasharray=""/><path fill="none" stroke="rgb(0,0,0)" class="dcg-svg-minor-gridline" paint-order="fill stroke markers" d=" M 490.5 0 L 490.5 400" stroke-opacity="0.12" stroke-miterlimit="10" stroke-dasharray=""/><path fill="none" stroke="rgb(0,0,0)" class="dcg-svg-minor-gridline" paint-order="fill stroke markers" d=" M 517.5 0 L 517.5 400" stroke-opacity="0.12" stroke-miterlimit="10" stroke-dasharray=""/><path fill="none" stroke="rgb(0,0,0)" class="dcg-svg-minor-gridline" paint-order="fill stroke markers" d=" M 544.5 0 L 544.5 400" stroke-opacity="0.12" stroke-miterlimit="10" stroke-dasharray=""/><path fill="none" stroke="rgb(0,0,0)" class="dcg-svg-minor-gridline" paint-order="fill stroke markers" d=" M 572.5 0 L 572.5 400" stroke-opacity="0.12" stroke-miterlimit="10" stroke-dasharray=""/><path fill="none" stroke="rgb(0,0,0)" class="dcg-svg-minor-gridline" paint-order="fill stroke markers" d=" M 0 349.5 L 600 349.5" stroke-opacity="0.12" stroke-miterlimit="10" stroke-dasharray=""/><path fill="none" stroke="rgb(0,0,0)" class="dcg-svg-minor-gridline" paint-order="fill stroke markers" d=" M 0 299.5 L 600 299.5" stroke-opacity="0.12" stroke-miterlimit="10" stroke-dasharray=""/><path fill="none" stroke="rgb(0,0,0)" class="dcg-svg-minor-gridline" paint-order="fill stroke markers" d=" M 0 249.5 L 600 249.5" stroke-opacity="0.12" stroke-miterlimit="10" stroke-dasharray=""/><path fill="none" stroke="rgb(0,0,0)" class="dcg-svg-minor-gridline" paint-order="fill stroke markers" d=" M 0 149.5 L 600 149.5" stroke-opacity="0.12" stroke-miterlimit="10" stroke-dasharray=""/><path fill="none" stroke="rgb(0,0,0)" class="dcg-svg-minor-gridline" paint-order="fill stroke markers" d=" M 0 99.5 L 600 99.5" stroke-opacity="0.12" stroke-miterlimit="10" stroke-dasharray=""/><path fill="none" stroke="rgb(0,0,0)" class="dcg-svg-minor-gridline" paint-order="fill stroke markers" d=" M 0 49.5 L 600 49.5" stroke-opacity="0.12" stroke-miterlimit="10" stroke-dasharray=""/><path fill="none" stroke="rgb(0,0,0)" class="dcg-svg-minor-gridline" paint-order="fill stroke markers" d=" M 0 -0.5 L 600 -0.5" stroke-opacity="0.12" stroke-miterlimit="10" stroke-dasharray=""/><path fill="none" stroke="rgb(0,0,0)" class="dcg-svg-major-gridline" paint-order="fill stroke markers" d=" M 54.5 0 L 54.5 400" stroke-opacity="0.31818181818181823" stroke-miterlimit="10" stroke-dasharray=""/><path fill="none" stroke="rgb(0,0,0)" class="dcg-svg-major-gridline" paint-order="fill stroke markers" d=" M 272.5 0 L 272.5 400" stroke-opacity="0.31818181818181823" stroke-miterlimit="10" stroke-dasharray=""/><path fill="none" stroke="rgb(0,0,0)" class="dcg-svg-major-gridline" paint-order="fill stroke markers" d=" M 381.5 0 L 381.5 400" stroke-opacity="0.31818181818181823" stroke-miterlimit="10" stroke-dasharray=""/><path fill="none" stroke="rgb(0,0,0)" class="dcg-svg-major-gridline" paint-order="fill stroke markers" d=" M 490.5 0 L 490.5 400" stroke-opacity="0.31818181818181823" stroke-miterlimit="10" stroke-dasharray=""/><path fill="none" stroke="rgb(0,0,0)" class="dcg-svg-major-gridline" paint-order="fill stroke markers" d=" M 0 -0.5 L 600 -0.5" stroke-opacity="0.31818181818181823" stroke-miterlimit="10" stroke-dasharray=""/></g></g><g id="axis-bde3aff7"><g id="yaxis-bde3aff7"><title>Y axis</title><path fill="none" stroke="rgb(0,0,0)" class="dcg-svg-axis-line" paint-order="fill stroke markers" d=" M 163.75 0 L 163.75 400" stroke-opacity="0.9" stroke-miterlimit="10" stroke-width="1.5" stroke-dasharray=""/></g><g id="xaxis-bde3aff7"><title>X axis</title><path fill="none" stroke="rgb(0,0,0)" class="dcg-svg-axis-line" paint-order="fill stroke markers" d=" M 0 199.75 L 600 199.75" stroke-opacity="0.9" stroke-miterlimit="10" stroke-width="1.5" stroke-dasharray=""/></g><g><g class="dcg-svg-axis-value"><text fill="none" stroke="#ffffff" font-family="Arial" font-size="14px" font-style="normal" font-weight="normal" text-decoration="normal" x="154.74329723011363" y="215.808" text-anchor="middle" stroke-miterlimit="2" stroke-width="3" stroke-dasharray="">0</text><text fill="#000000" stroke="none" font-family="Arial" font-size="14px" font-style="normal" font-weight="normal" text-decoration="normal" x="154.74329723011363" y="215.808" text-anchor="middle">0</text></g><g class="dcg-svg-axis-value"><text fill="none" stroke="#ffffff" font-family="Arial" font-size="14px" font-style="normal" font-weight="normal" text-decoration="normal" x="52.21439985795453" y="215.808" text-anchor="middle" stroke-miterlimit="2" stroke-width="3" stroke-dasharray="">-2</text><text fill="#000000" stroke="none" font-family="Arial" font-size="14px" font-style="normal" font-weight="normal" text-decoration="normal" x="52.21439985795453" y="215.808" text-anchor="middle">-2</text></g><g class="dcg-svg-axis-value"><text fill="none" stroke="#ffffff" font-family="Arial" font-size="14px" font-style="normal" font-weight="normal" text-decoration="normal" x="272.72727272727275" y="215.808" text-anchor="middle" stroke-miterlimit="2" stroke-width="3" stroke-dasharray="">2</text><text fill="#000000" stroke="none" font-family="Arial" font-size="14px" font-style="normal" font-weight="normal" text-decoration="normal" x="272.72727272727275" y="215.808" text-anchor="middle">2</text></g><g class="dcg-svg-axis-value"><text fill="none" stroke="#ffffff" font-family="Arial" font-size="14px" font-style="normal" font-weight="normal" text-decoration="normal" x="381.8181818181818" y="215.808" text-anchor="middle" stroke-miterlimit="2" stroke-width="3" stroke-dasharray="">4</text><text fill="#000000" stroke="none" font-family="Arial" font-size="14px" font-style="normal" font-weight="normal" text-decoration="normal" x="381.8181818181818" y="215.808" text-anchor="middle">4</text></g><g class="dcg-svg-axis-value"><text fill="none" stroke="#ffffff" font-family="Arial" font-size="14px" font-style="normal" font-weight="normal" text-decoration="normal" x="490.9090909090909" y="215.808" text-anchor="middle" stroke-miterlimit="2" stroke-width="3" stroke-dasharray="">6</text><text fill="#000000" stroke="none" font-family="Arial" font-size="14px" font-style="normal" font-weight="normal" text-decoration="normal" x="490.9090909090909" y="215.808" text-anchor="middle">6</text></g><g class="dcg-svg-axis-value dcg-svg-offcenter-axis-value"><text fill="none" stroke="#ffffff" font-family="Arial" font-size="14px" font-style="normal" font-weight="normal" text-decoration="normal" x="593.10693359375" y="215.808" text-anchor="middle" stroke-miterlimit="2" stroke-width="3" stroke-dasharray="">8</text><text fill="#000000" stroke="none" font-family="Arial" font-size="14px" font-style="normal" font-weight="normal" text-decoration="normal" x="593.10693359375" y="215.808" text-anchor="middle">8</text></g><g class="dcg-svg-axis-value dcg-svg-offcenter-axis-value"><text fill="none" stroke="#ffffff" font-family="Arial" font-size="14px" font-style="normal" font-weight="normal" text-decoration="normal" x="152.41224254261363" y="393.808" text-anchor="middle" stroke-miterlimit="2" stroke-width="3" stroke-dasharray="">-2</text><text fill="#000000" stroke="none" font-family="Arial" font-size="14px" font-style="normal" font-weight="normal" text-decoration="normal" x="152.41224254261363" y="393.808" text-anchor="middle">-2</text></g><g class="dcg-svg-axis-value dcg-svg-offcenter-axis-value"><text fill="none" stroke="#ffffff" font-family="Arial" font-size="14px" font-style="normal" font-weight="normal" text-decoration="normal" x="154.74329723011363" y="13.808" text-anchor="middle" stroke-miterlimit="2" stroke-width="3" stroke-dasharray="">2</text><text fill="#000000" stroke="none" font-family="Arial" font-size="14px" font-style="normal" font-weight="normal" text-decoration="normal" x="154.74329723011363" y="13.808" text-anchor="middle">2</text></g></g></g></g><g id="expressions-bde3aff7"><g id="sketch-bde3aff7"><title>Expression 1</title><path fill="#2d70b3" stroke="none" paint-order="stroke fill markers" d="" fill-opacity="0.4"/><g><path fill="none" stroke="#2d70b3" class="dcg-svg-curve" paint-order="fill stroke markers" d=" M -0.5 213.61200080598672 L -0.5 213.61200080598672 L 8.2890625 229.31228430574876 L 14.880859375 240.60222021495807 L 20.59375 249.90756882471916 L 25.57421875 257.57258426148064 L 30.26171875 264.34583252221574 L 34.509765625 270.07196315361693 L 38.46484375 275.0192752314795 L 42.2734375 279.4085346544631 L 45.935546875 283.2619677404387 L 49.3046875 286.47416549832224 L 52.673828125 289.3546419746278 L 55.896484375 291.7893353978985 L 58.97265625 293.81303581380564 L 62.048828125 295.5368471324917 L 64.978515625 296.8947381511238 L 67.908203125 297.97172605763143 L 70.69140625 298.731839571115 L 73.474609375 299.2336500611791 L 76.2578125 299.47585130224803 L 79.041015625 299.45781283827955 L 81.82421875 299.1795816238579 L 84.607421875 298.64188190197024 L 87.390625 297.84611331878295 L 90.3203125 296.7319487470942 L 93.25 295.33735057581396 L 96.1796875 293.6663410650141 L 99.255859375 291.6195775406189 L 102.33203125 289.2798995033288 L 105.5546875 286.52275699113534 L 108.923828125 283.3157588147032 L 112.439453125 279.6287038028936 L 116.1015625 275.43442133700427 L 119.91015625 270.7096951634485 L 124.01171875 265.2341209438518 L 128.40625 258.9560354499758 L 133.09375 251.83531041342903 L 138.3671875 243.36551051571524 L 144.2265625 233.47769120932986 L 151.2578125 221.1056187266483 L 161.072265625 203.28327659360866 L 177.0390625 174.28679911398575 L 184.216796875 161.80746064117315 L 190.076171875 152.09396969868723 L 195.349609375 143.81603048133175 L 200.037109375 136.89216654520436 L 204.431640625 130.81979532561837 L 208.533203125 125.55349345206434 L 212.341796875 121.03696798071502 L 216.00390625 117.05451251778686 L 219.51953125 113.58064506026034 L 222.888671875 110.58616086331034 L 226.111328125 108.0390529218505 L 229.1875 105.90534539657966 L 232.263671875 104.06924271703912 L 235.193359375 102.60261048220781 L 238.123046875 101.4154469208284 L 241.052734375 100.51117601601669 L 243.8359375 99.91653280503334 L 246.619140625 99.58110791319262 L 249.40234375 99.50577446009072 L 252.185546875 99.69072854063813 L 254.96875 100.13548871461967 L 257.751953125 100.83889725989553 L 260.53515625 101.79912318598207 L 263.46484375 103.08457820593776 L 266.39453125 104.64811182185133 L 269.470703125 106.58415914068826 L 272.546875 108.81565286725026 L 275.76953125 111.46254974748854 L 279.138671875 114.55808324202718 L 282.5078125 117.97758697905357 L 286.169921875 122.04663933203574 L 289.978515625 126.64839417162818 L 293.93359375 131.8026007701663 L 298.181640625 137.73409633134185 L 302.72265625 144.48777507570728 L 307.703125 152.33138627596963 L 313.26953125 161.55967407478514 L 319.71484375 172.73172734171783 L 328.064453125 187.7362016775374 L 351.6484375 230.43049302105143 L 358.09375 241.42563939283895 L 363.66015625 250.45630408054376 L 368.640625 258.0896169670386 L 373.181640625 264.62552733899065 L 377.4296875 270.33220433671033 L 381.384765625 275.25998360586624 L 385.193359375 279.62923680208615 L 388.85546875 283.4624175831016 L 392.224609375 286.6551832857931 L 395.59375 289.51553730128893 L 398.81640625 291.9304078715047 L 401.892578125 293.9347262374946 L 404.96875 295.63876856472365 L 407.8984375 296.9775297327011 L 410.828125 298.03514900344754 L 413.611328125 298.77669201208926 L 416.39453125 299.2598152452573 L 419.177734375 299.48326112078496 L 421.9609375 299.4464480033275 L 424.744140625 299.1494717183738 L 427.52734375 298.59310530281016 L 430.310546875 297.77879699268556 L 433.240234375 296.6453071298322 L 436.169921875 295.23163355665645 L 439.099609375 293.5418535499575 L 442.17578125 291.4757683825699 L 445.251953125 289.11722597522123 L 448.474609375 286.34087657966734 L 451.84375 283.1144781724707 L 455.359375 279.40799903192595 L 459.021484375 275.1944588625384 L 462.830078125 270.4508528419152 L 466.931640625 264.9563597210329 L 471.326171875 258.6597486372085 L 476.013671875 251.52138431070438 L 481.287109375 243.0345155724958 L 487.146484375 233.13136254710597 L 494.177734375 220.74617217317615 L 504.138671875 202.6471125487579 L 519.666015625 174.45048806954708 L 526.84375 161.96415769118556 L 532.703125 152.24294334562302 L 537.9765625 143.95658171691232 L 542.6640625 137.02412644452102 L 547.05859375 130.94281499458504 L 551.16015625 125.66744761834332 L 554.96875 121.14192635904038 L 558.630859375 117.1503381705312 L 562.146484375 113.6672965416825 L 565.515625 110.66368225369303 L 568.73828125 108.10756403289986 L 571.814453125 105.9650323058388 L 574.890625 104.1199156368167 L 577.8203125 102.64454842191009 L 580.75 101.44852892425183 L 583.6796875 100.53530666899525 L 586.462890625 99.93209480990794 L 589.24609375 99.58806076166536 L 592.029296875 99.50410005371873 L 594.8125 99.68043123794422 L 597.595703125 100.1165953197468 L 599.5 100.56417533766182" stroke-linecap="round" stroke-linejoin="round" stroke-miterlimit="10" stroke-width="2.5" stroke-opacity="0.9" stroke-dasharray=""/></g></g></g><g id="labels-bde3aff7"/></g></svg>