<svg version="1.1" xmlns="http://www.w3.org/2000/svg" xmlns:xlink="http://www.w3.org/1999/xlink" width="600" height="400"><defs/><g transform="scale(1,1)"><g id="background-514087f7"><rect fill="white" stroke="none" x="0" y="0" width="600" height="400" class="dcg-svg-background"/></g><g id="background-images-514087f7"/><g id="graphpaper-514087f7"><g id="grid-514087f7"><g><path fill="none" stroke="rgb(0,0,0)" class="dcg-svg-minor-gridline" paint-order="fill stroke markers" d=" M -0.5 0 L -0.5 400" stroke-opacity="0.12" stroke-miterlimit="10" stroke-dasharray=""/><path fill="none" stroke="rgb(0,0,0)" class="dcg-svg-minor-gridline" paint-order="fill stroke markers" d=" M 37.5 0 L 37.5 400" stroke-opacity="0.12" stroke-miterlimit="10" stroke-dasharray=""/><path fill="none" stroke="rgb(0,0,0)" class="dcg-svg-minor-gridline" paint-order="fill stroke markers" d=" M 74.5 0 L 74.5 400" stroke-opacity="0.12" stroke-miterlimit="10" stroke-dasharray=""/><path fill="none" stroke="rgb(0,0,0)" class="dcg-svg-minor-gridline" paint-order="fill stroke markers" d=" M 112.5 0 L 112.5 400" stroke-opacity="0.12" stroke-miterlimit="10" stroke-dasharray=""/><path fill="none" stroke="rgb(0,0,0)" class="dcg-svg-minor-gridline" paint-order="fill stroke markers" d=" M 149.5 0 L 149.5 400" stroke-opacity="0.12" stroke-miterlimit="10" stroke-dasharray=""/><path fill="none" stroke="rgb(0,0,0)" class="dcg-svg-minor-gridline" paint-order="fill stroke markers" d=" M 187.5 0 L 187.5 400" stroke-opacity="0.12" stroke-miterlimit="10" stroke-dasharray=""/><path fill="none" stroke="rgb(0,0,0)" class="dcg-svg-minor-gridline" paint-order="fill stroke markers" d=" M 262.5 0 L 262.5 400" stroke-opacity="0.12" stroke-miterlimit="10" stroke-dasharray=""/><path fill="none" stroke="rgb(0,0,0)" class="dcg-svg-minor-gridline" paint-order="fill stroke markers" d=" M 299.5 0 L 299.5 400" stroke-opacity="0.12" stroke-miterlimit="10" stroke-dasharray=""/><path fill="none" stroke="rgb(0,0,0)" class="dcg-svg-minor-gridline" paint-order="fill stroke markers" d=" M 337.5 0 L 337.5 400" stroke-opacity="0.12" stroke-miterlimit="10" stroke-dasharray=""/><path fill="none" stroke="rgb(0,0,0)" class="dcg-svg-minor-gridline" paint-order="fill stroke markers" d=" M 374.5 0 L 374.5 400" stroke-opacity="0.12" stroke-miterlimit="10" stroke-dasharray=""/><path fill="none" stroke="rgb(0,0,0)" class="dcg-svg-minor-gridline" paint-order="fill stroke markers" d=" M 412.5 0 L 412.5 400" stroke-opacity="0.12" stroke-miterlimit="10" stroke-dasharray=""/><path fill="none" stroke="rgb(0,0,0)" class="dcg-svg-minor-gridline" paint-order="fill stroke markers" d=" M 449.5 0 L 449.5 400" stroke-opacity="0.12" stroke-miterlimit="10" stroke-dasharray=""/><path fill="none" stroke="rgb(0,0,0)" class="dcg-svg-minor-gridline" paint-order="fill stroke markers" d=" M 487.5 0 L 487.5 400" stroke-opacity="0.12" stroke-miterlimit="10" stroke-dasharray=""/><path fill="none" stroke="rgb(0,0,0)" class="dcg-svg-minor-gridline" paint-order="fill stroke markers" d=" M 524.5 0 L 524.5 400" stroke-opacity="0.12" stroke-miterlimit="10" stroke-dasharray=""/><path fill="none" stroke="rgb(0,0,0)" class="dcg-svg-minor-gridline" paint-order="fill stroke markers" d=" M 562.5 0 L 562.5 400" stroke-opacity="0.12" stroke-miterlimit="10" stroke-dasharray=""/><path fill="none" stroke="rgb(0,0,0)" class="dcg-svg-minor-gridline" paint-order="fill stroke markers" d=" M 0 355.5 L 600 355.5" stroke-opacity="0.12" stroke-miterlimit="10" stroke-dasharray=""/><path fill="none" stroke="rgb(0,0,0)" class="dcg-svg-minor-gridline" paint-order="fill stroke markers" d=" M 0 266.5 L 600 266.5" stroke-opacity="0.12" stroke-miterlimit="10" stroke-dasharray=""/><path fill="none" stroke="rgb(0,0,0)" class="dcg-svg-minor-gridline" paint-order="fill stroke markers" d=" M 0 221.5 L 600 221.5" stroke-opacity="0.12" stroke-miterlimit="10" stroke-dasharray=""/><path fill="none" stroke="rgb(0,0,0)" class="dcg-svg-minor-gridline" paint-order="fill stroke markers" d=" M 0 177.5 L 600 177.5" stroke-opacity="0.12" stroke-miterlimit="10" stroke-dasharray=""/><path fill="none" stroke="rgb(0,0,0)" class="dcg-svg-minor-gridline" paint-order="fill stroke markers" d=" M 0 132.5 L 600 132.5" stroke-opacity="0.12" stroke-miterlimit="10" stroke-dasharray=""/><path fill="none" stroke="rgb(0,0,0)" class="dcg-svg-minor-gridline" paint-order="fill stroke markers" d=" M 0 88.5 L 600 88.5" stroke-opacity="0.12" stroke-miterlimit="10" stroke-dasharray=""/><path fill="none" stroke="rgb(0,0,0)" class="dcg-svg-minor-gridline" paint-order="fill stroke markers" d=" M 0 43.5 L 600 43.5" stroke-opacity="0.12" stroke-miterlimit="10" stroke-dasharray=""/><path fill="none" stroke="rgb(0,0,0)" class="dcg-svg-minor-gridline" paint-order="fill stroke markers" d=" M 0 -0.5 L 600 -0.5" stroke-opacity="0.12" stroke-miterlimit="10" stroke-dasharray=""/><path fill="none" stroke="rgb(0,0,0)" class="dcg-svg-major-gridline" paint-order="fill stroke markers" d=" M 37.5 0 L 37.5 400" stroke-opacity="0.31818181818181823" stroke-miterlimit="10" stroke-dasharray=""/><path fill="none" stroke="rgb(0,0,0)" class="dcg-svg-major-gridline" paint-order="fill stroke markers" d=" M 412.5 0 L 412.5 400" stroke-opacity="0.31818181818181823" stroke-miterlimit="10" stroke-dasharray=""/><path fill="none" stroke="rgb(0,0,0)" class="dcg-svg-major-gridline" paint-order="fill stroke markers" d=" M 0 88.5 L 600 88.5" stroke-opacity="0.31818181818181823" stroke-miterlimit="10" stroke-dasharray=""/></g></g><g id="axis-514087f7"><g id="yaxis-514087f7"><title>Y axis</title><path fill="none" stroke="rgb(0,0,0)" class="dcg-svg-axis-line" paint-order="fill stroke markers" d=" M 224.75 0 L 224.75 400" stroke-opacity="0.9" stroke-miterlimit="10" stroke-width="1.5" stroke-dasharray=""/></g><g id="xaxis-514087f7"><title>X axis</title><path fill="none" stroke="rgb(0,0,0)" class="dcg-svg-axis-line" paint-order="fill stroke markers" d=" M 0 310.75 L 600 310.75" stroke-opacity="0.9" stroke-miterlimit="10" stroke-width="1.5" stroke-dasharray=""/></g><g/></g></g><g id="expressions-514087f7"><g id="sketch-514087f7"><title>Expression 1</title><path fill="#2d70b3" stroke="none" paint-order="stroke fill markers" d="" fill-opacity="0.4"/><g><path fill="none" stroke="#2d70b3" class="dcg-svg-curve" paint-order="fill stroke markers" d=" M 15.715923335627526 405.5 L 15.715923335627526 405.5 L 19.12890625 369.6193494598071 L 22.9375 332.7371238425927 L 26.599609375 300.12564122111166 L 30.26171875 270.19126000007 L 33.77734375 243.8657083312671 L 37.29296875 219.80073566569226 L 40.662109375 198.76863693183776 L 44.03125 179.63721607349535 L 47.25390625 163.0390969890136 L 50.4765625 148.0318125618829 L 53.552734375 135.1259430634479 L 56.62890625 123.54518157243734 L 59.55859375 113.6937506088504 L 62.48828125 104.94045354481096 L 65.271484375 97.59707918307845 L 68.0546875 91.15878772735596 L 70.837890625 85.58479098796295 L 73.474609375 81.06509925576825 L 76.111328125 77.25167637056222 L 78.6015625 74.26896127065021 L 80.9453125 71.98597233383742 L 83.142578125 70.28709292949901 L 85.193359375 69.07053494329256 L 87.09765625 68.24694324202011 L 89.001953125 67.70633598706792 L 90.90625 67.43741861979169 L 92.810546875 67.4290542082378 L 94.71484375 67.67026344714338 L 96.765625 68.1967270462601 L 98.962890625 69.05294826171468 L 101.306640625 70.28163421471362 L 103.796875 71.92281030725547 L 106.43359375 74.0129235033636 L 109.36328125 76.72907890876132 L 112.5859375 80.15509566554317 L 116.248046875 84.54955991205793 L 120.349609375 90.02766248790755 L 125.037109375 96.89952481110339 L 130.603515625 105.74054390730129 L 137.634765625 117.67056345373942 L 148.474609375 136.92226314420503 L 161.658203125 160.17176065718135 L 169.12890625 172.58396263255014 L 175.427734375 182.33647800692253 L 180.994140625 190.27782914249434 L 185.974609375 196.762285337266 L 190.515625 202.1096683078342 L 194.6171875 206.44122791290283 L 198.42578125 210.015798760785 L 201.94140625 212.91631530611602 L 205.310546875 215.32436210234408 L 208.533203125 217.27839419673438 L 211.609375 218.81838141547308 L 214.5390625 219.9849997273198 L 217.46875 220.85538736979166 L 220.251953125 221.4055295176804 L 223.03515625 221.6845484994076 L 225.818359375 221.6917061528398 L 228.6015625 221.42698355074282 L 231.384765625 220.89108100078172 L 234.16796875 220.08541804552078 L 237.09765625 218.94828239855943 L 240.02734375 217.51797578732172 L 243.103515625 215.7052784439314 L 246.326171875 213.47111031399282 L 249.6953125 210.77740842324715 L 253.2109375 207.58796829647488 L 257.01953125 203.7125148574511 L 261.12109375 199.07297460900412 L 265.515625 193.59766020598238 L 270.349609375 187.01850212820702 L 275.76953125 179.0198749060984 L 281.921875 169.25760848433885 L 289.24609375 156.89359708847823 L 299.353515625 139.02158939714235 L 314.44140625 112.36787486738626 L 321.326171875 101.00639626369986 L 326.892578125 92.53445718561608 L 331.580078125 86.0583290842672 L 335.681640625 80.99322024857003 L 339.197265625 77.17017469017043 L 342.419921875 74.13915347708047 L 345.203125 71.92281030725547 L 347.83984375 70.19565661527491 L 350.18359375 68.98677728573483 L 352.380859375 68.15022465793629 L 354.431640625 67.64309553622644 L 356.482421875 67.41382356581312 L 358.38671875 67.46155447209321 L 360.291015625 67.77154144851704 L 362.1953125 68.35494567729808 L 364.099609375 69.22308596734098 L 366.00390625 70.38743875424069 L 368.0546875 71.98597233383742 L 370.10546875 73.95627259987373 L 372.302734375 76.4968417693895 L 374.646484375 79.717120323882 L 377.283203125 83.99769838747602 L 379.919921875 89.00679690404621 L 382.556640625 94.77827608019663 L 385.33984375 101.7355453504457 L 388.123046875 109.62184047795557 L 390.90625 118.47908528645837 L 393.8359375 128.89833658712882 L 396.765625 140.49128723144537 L 399.841796875 153.9834209999277 L 402.91796875 168.88696732123697 L 406.140625 186.081293741862 L 409.36328125 204.96462035841415 L 412.5859375 225.61046314239505 L 415.955078125 249.16047639855083 L 419.32421875 274.8056428498692 L 422.83984375 303.89537042820893 L 426.35546875 335.4652001217561 L 430.017578125 371.10008209378094 L 433.28468462379874 405.5" stroke-linecap="round" stroke-linejoin="round" stroke-miterlimit="10" stroke-width="2.5" stroke-opacity="0.9" stroke-dasharray=""/></g></g><g id="sketch-514087f7"><title>Expression 2</title><path fill="#388c46" stroke="none" paint-order="stroke fill markers" d="" fill-opacity="0.4"/><path fill="#388c46" stroke="none" paint-order="stroke fill markers" d="" fill-opacity="0.4"/><path fill="#388c46" stroke="none" class="dcg-svg-region" paint-order="stroke fill markers" d=" M 25.38822492195303 310.6111111111111 L 423.61177507804695 310.6111111111111 L 423.61177507804695 310.61111111111103 L 421.521484375 292.7016248469827 L 418.005859375 264.51544070119667 L 414.63671875 239.70057549079263 L 411.267578125 216.9466393577556 L 408.044921875 197.03079449344017 L 404.822265625 178.84723481742876 L 401.74609375 163.0390969890136 L 398.669921875 148.68045061261012 L 395.740234375 136.29704408609757 L 392.810546875 125.12069894745952 L 389.880859375 115.10024350536645 L 387.09765625 106.60564007361734 L 384.314453125 99.06645702529283 L 381.677734375 92.76762674790291 L 379.041015625 87.25407246624434 L 376.404296875 82.49154773561492 L 373.9140625 78.6528622309367 L 371.5703125 75.59951354839183 L 369.373046875 73.20898151494288 L 367.322265625 71.3731599239012 L 365.271484375 69.9038181424969 L 363.3671875 68.85476144154865 L 361.462890625 68.09748456972068 L 359.55859375 67.620571717068 L 357.654296875 67.41276470033665 L 355.75 67.46296296296293 L 353.69921875 67.79301281107803 L 351.501953125 68.44931397711241 L 349.158203125 69.47654550260415 L 346.66796875 70.91676773627603 L 344.03125 72.80851236979169 L 341.1015625 75.32125257562711 L 337.87890625 78.54366417063608 L 334.216796875 82.73166041117577 L 329.96875 88.20781792534723 L 324.98828125 95.34660294983121 L 319.12890625 104.54163136084873 L 293.34765625 149.7170173658265 L 285.14453125 163.9023553861512 L 278.40625 174.91716399016204 L 272.693359375 183.6355118120986 L 267.56640625 190.87462009986243 L 262.87890625 196.9434467046349 L 258.630859375 201.94603528675657 L 254.67578125 206.14813371720135 L 251.013671875 209.625988630095 L 247.498046875 212.57517468584356 L 244.275390625 214.93214723674788 L 241.19921875 216.86468503872553 L 238.26953125 218.4111226907483 L 235.33984375 219.6659788356887 L 232.556640625 220.5846267882045 L 229.7734375 221.23432721032037 L 226.990234375 221.61335772372504 L 224.20703125 221.72071518500647 L 221.423828125 221.5561156856517 L 218.640625 221.11999455204713 L 215.857421875 220.41350634547848 L 212.927734375 219.37981847797832 L 209.8515625 217.97761560369423 L 206.775390625 216.25536893791073 L 203.552734375 214.11401125554133 L 200.037109375 211.39361542118368 L 196.375 208.14583333333334 L 192.419921875 204.18138358866176 L 188.171875 199.41982636628327 L 183.484375 193.59766020598238 L 178.2109375 186.39339726059524 L 172.205078125 177.4397438156108 L 165.3203125 166.3548349097923 L 141.736328125 124.8845336226126 L 133.6796875 110.87469168062563 L 127.52734375 100.7741957218559 L 122.400390625 92.96076378874756 L 118.005859375 86.83014813934761 L 114.197265625 82.02651742969948 L 110.828125 78.23203701443146 L 107.751953125 75.18586978302511 L 104.96875 72.80851236979169 L 102.478515625 71.01220139185034 L 100.134765625 69.62775393202907 L 97.9375 68.61675347222229 L 95.88671875 67.93805254609492 L 93.8359375 67.52861725842513 L 91.91747852752233 67.40123456790121 L 90.02734375 67.52848739756485 L 88.123046875 67.92140667623391 L 86.21875 68.59120912905098 L 84.16796875 69.63522725414344 L 82.1171875 71.02795208825006 L 79.919921875 72.92372240498662 L 77.576171875 75.42615431864505 L 75.0859375 78.6528622309367 L 72.44921875 82.73700457811356 L 69.666015625 87.82898036956237 L 66.8828125 93.76196539843528 L 64.099609375 100.57633145526052 L 61.169921875 108.74671402339033 L 58.240234375 117.98802097072752 L 55.310546875 128.34992283458513 L 52.234375 140.49128723144537 L 49.158203125 153.9834209999277 L 45.935546875 169.6329116654341 L 42.712890625 186.90243422419383 L 39.34375 206.76756908275465 L 35.974609375 228.566476078911 L 32.458984375 253.46753402426842 L 28.943359375 280.66655023768544 L 25.38822492195303 310.61111111111103" fill-opacity="0.4"/><g><path fill="none" stroke="#388c46" class="dcg-svg-curve" paint-order="fill stroke markers" d=" M 25.38822492195303 310.6111111111111 L 36.388224921953025 310.6111111111111 M 43.388224921953025 310.6111111111111 L 54.388224921953025 310.6111111111111 M 61.388224921953025 310.6111111111111 L 72.38822492195303 310.6111111111111 M 79.38822492195303 310.6111111111111 L 90.38822492195303 310.6111111111111 M 97.38822492195303 310.6111111111111 L 108.38822492195303 310.6111111111111 M 115.38822492195303 310.6111111111111 L 126.38822492195303 310.6111111111111 M 133.38822492195303 310.6111111111111 L 144.38822492195303 310.6111111111111 M 151.38822492195303 310.6111111111111 L 162.38822492195303 310.6111111111111 M 169.38822492195303 310.6111111111111 L 180.38822492195303 310.6111111111111 M 187.38822492195303 310.6111111111111 L 198.38822492195303 310.6111111111111 M 205.38822492195303 310.6111111111111 L 216.38822492195303 310.6111111111111 M 223.38822492195303 310.6111111111111 L 234.38822492195303 310.6111111111111 M 241.38822492195303 310.6111111111111 L 252.38822492195303 310.6111111111111 M 259.38822492195305 310.6111111111111 L 270.38822492195305 310.6111111111111 M 277.38822492195305 310.6111111111111 L 288.38822492195305 310.6111111111111 M 295.38822492195305 310.6111111111111 L 306.38822492195305 310.6111111111111 M 313.38822492195305 310.6111111111111 L 324.38822492195305 310.6111111111111 M 331.38822492195305 310.6111111111111 L 342.38822492195305 310.6111111111111 M 349.38822492195305 310.6111111111111 L 360.38822492195305 310.6111111111111 M 367.38822492195305 310.6111111111111 L 378.38822492195305 310.6111111111111 M 385.38822492195305 310.6111111111111 L 396.38822492195305 310.6111111111111 M 403.38822492195305 310.6111111111111 L 414.38822492195305 310.6111111111111 M 421.38822492195305 310.6111111111111 L 423.61177507804695 310.6111111111111" stroke-linecap="round" stroke-linejoin="round" stroke-miterlimit="10" stroke-width="2.5" stroke-opacity="0.9" stroke-dasharray=""/></g><g><path fill="none" stroke="#388c46" class="dcg-svg-curve" paint-order="fill stroke markers" d=" M 25.38822492195303 310.61111111111103 L 26.68507976690931 299.68782554718325 M 27.51035103188149 292.7366438246837 L 28.807205876837777 281.81335826075593 M 29.69264293325306 274.8696362751975 L 31.102724140801644 263.9603892348139 M 32.00004854560529 257.01814111820613 L 32.458984375 253.46753402426842 M 32.458984375 253.46753402426842 L 33.49626058350381 246.120540254087 M 34.47484206830191 239.18927930981354 L 35.974609375 228.566476078911 M 35.974609375 228.566476078911 L 36.016131931242484 228.29781815022255 M 37.08532555750941 221.37995540298985 L 38.765486970214575 210.50902822876702 M 39.88119179466862 203.59870351196267 L 41.72053318314378 192.75357450135877 M 42.90831295244188 185.85520795169177 L 44.92618340986526 175.04187364551876 M 46.23761866018662 168.16602558889682 L 48.45626461777172 157.392093617936 M 49.94063055884236 150.55168310279493 L 52.234375 140.49128723144537 M 52.234375 140.49128723144537 L 52.40173666792738 139.83072628786263 M 54.12095482300725 133.04513206662867 L 55.310546875 128.34992283458513 M 55.310546875 128.34992283458513 L 56.985533516740404 122.4257253886164 M 58.961984512856986 115.71135679981532 L 61.169921875 108.74671402339033 M 61.169921875 108.74671402339033 L 62.416678090776905 105.26973047067655 M 64.86112080453562 98.71185466206491 L 66.8828125 93.76196539843528 M 66.8828125 93.76196539843528 L 69.28370406147984 88.64395817781349 M 72.61021920199912 82.48762312098081 L 75.0859375 78.6528622309367 M 75.0859375 78.6528622309367 L 77.576171875 75.42615431864505 M 77.576171875 75.42615431864505 L 79.18917483476424 73.70394414975351 M 84.65808105161723 69.38571935259657 L 86.21875 68.59120912905098 M 86.21875 68.59120912905098 L 88.123046875 67.92140667623391 M 88.123046875 67.92140667623391 L 90.02734375 67.52848739756485 M 90.02734375 67.52848739756485 L 91.91747852752233 67.40123456790121 M 91.91747852752233 67.40123456790121 L 93.8359375 67.52861725842513 M 93.8359375 67.52861725842513 L 95.27608394463083 67.81614025671861 M 101.68323866904552 70.5424332162661 L 102.478515625 71.01220139185034 M 102.478515625 71.01220139185034 L 104.96875 72.80851236979169 M 104.96875 72.80851236979169 L 107.751953125 75.18586978302511 M 107.751953125 75.18586978302511 L 110.12914446187703 77.53987425593118 M 114.78246773658435 82.76461002215765 L 118.005859375 86.83014813934761 M 118.005859375 86.83014813934761 L 121.39173242895568 91.55362947344035 M 125.29085285511104 97.36580306637762 L 127.52734375 100.7741957218559 M 127.52734375 100.7741957218559 L 131.12892175794616 106.68701945093542 M 134.72489437254814 112.69222131396184 L 140.20857879313223 122.22790194910493 M 143.68178677583123 128.30544652303175 L 149.119604788736 137.86735717198306 M 152.58003443331177 143.95220940313388 L 158.01785244621655 153.5141200520852 M 161.4782820907923 159.598972283236 L 165.3203125 166.3548349097923 M 165.3203125 166.3548349097923 L 167.0234768578827 169.0970374461011 M 170.7167505867598 175.04344217194898 L 172.205078125 177.4397438156108 M 172.205078125 177.4397438156108 L 176.76132282027768 184.23228314509936 M 180.80849219294922 189.9420250812588 L 183.484375 193.59766020598238 M 183.484375 193.59766020598238 L 187.54162775488962 198.6370201405543 M 192.16290061041735 203.8932932039062 L 192.419921875 204.18138358866176 M 192.419921875 204.18138358866176 L 196.375 208.14583333333334 M 196.375 208.14583333333334 L 200.037109375 211.39361542118368 M 200.037109375 211.39361542118368 L 200.1313496655588 211.46653869766078 M 205.7798243254525 215.59384522006334 L 206.775390625 216.25536893791073 M 206.775390625 216.25536893791073 L 209.8515625 217.97761560369423 M 209.8515625 217.97761560369423 L 212.927734375 219.37981847797832 M 212.927734375 219.37981847797832 L 215.66111811693617 220.34424407328896 M 222.52510309983862 221.62124543054244 L 224.20703125 221.72071518500647 M 224.20703125 221.72071518500647 L 226.990234375 221.61335772372504 M 226.990234375 221.61335772372504 L 229.7734375 221.23432721032037 M 229.7734375 221.23432721032037 L 232.556640625 220.5846267882045 M 232.556640625 220.5846267882045 L 233.37609395136326 220.31415097791097 M 239.8126694642053 217.59657607554712 L 241.19921875 216.86468503872553 M 241.19921875 216.86468503872553 L 244.275390625 214.93214723674788 M 244.275390625 214.93214723674788 L 247.498046875 212.57517468584356 M 247.498046875 212.57517468584356 L 248.88221083138183 211.4140277947414 M 254.072109193239 206.72143276793844 L 254.67578125 206.14813371720135 M 254.67578125 206.14813371720135 L 258.630859375 201.94603528675657 M 258.630859375 201.94603528675657 L 261.4768498897011 198.5945375108121 M 265.8337918133386 193.11780657218742 L 267.56640625 190.87462009986243 M 267.56640625 190.87462009986243 L 272.2858042592229 184.2109677494576 M 276.1434643970792 178.3703636447124 L 278.40625 174.91716399016204 M 278.40625 174.91716399016204 L 281.99209186760044 169.05552652053768 M 285.62463751288385 163.07212670809471 L 291.1312901083491 153.54969124268695 M 294.6227944853239 147.48264696134797 L 300.07502012955104 137.92894424855479 M 303.5446182667865 131.84931524950457 L 308.9968439110136 122.29561253671137 M 312.46644204824906 116.21598353766116 L 317.91866769247616 106.66228082486796 M 321.5785312826036 100.69747191190925 L 324.98828125 95.34660294983121 M 324.98828125 95.34660294983121 L 327.65179567604554 91.52883842773659 M 331.7772883386839 85.87643103050488 L 334.216796875 82.73166041117577 M 334.216796875 82.73166041117577 L 337.87890625 78.54366417063608 M 337.87890625 78.54366417063608 L 338.90895045017635 77.51369816851596 M 344.0634592342884 72.78540347882074 L 346.66796875 70.91676773627603 M 346.66796875 70.91676773627603 L 349.158203125 69.47654550260415 M 349.158203125 69.47654550260415 L 351.501953125 68.44931397711241 M 351.501953125 68.44931397711241 L 353.69921875 67.79301281107803 M 353.69921875 67.79301281107803 L 353.76399572681584 67.7825876955961 M 360.6914862474961 67.90429375632706 L 361.462890625 68.09748456972068 M 361.462890625 68.09748456972068 L 363.3671875 68.85476144154865 M 363.3671875 68.85476144154865 L 365.271484375 69.9038181424969 M 365.271484375 69.9038181424969 L 367.322265625 71.3731599239012 M 367.322265625 71.3731599239012 L 369.373046875 73.20898151494288 M 369.373046875 73.20898151494288 L 369.8508228205879 73.72878152898956 M 374.24599561610154 79.16453569191432 L 376.404296875 82.49154773561492 M 376.404296875 82.49154773561492 L 379.041015625 87.25407246624434 M 379.041015625 87.25407246624434 L 379.72721736448375 88.68896594466797 M 382.6349469485369 95.05430201051576 L 384.314453125 99.06645702529283 M 384.314453125 99.06645702529283 L 386.6176541568587 105.30540308722378 M 388.8456144902083 111.94057661937417 L 389.880859375 115.10024350536645 M 389.880859375 115.10024350536645 L 392.03465540413873 122.46690535627773 M 393.88442575617927 129.21739561328266 L 395.740234375 136.29704408609757 M 395.740234375 136.29704408609757 L 396.5877342649882 139.87931546108177 M 398.1993193204837 146.69127506232013 L 398.669921875 148.68045061261012 M 398.669921875 148.68045061261012 L 400.5460493917016 157.43765036087132 M 401.9889546346525 164.2871346454651 L 404.0900788959188 175.08460086855274 M 405.3749006566172 181.96543027388387 L 407.2945064835329 192.79664043107644 M 408.47618698097386 199.6959899966739 L 410.2332825532577 210.5547475291847 M 411.34447089348043 217.4659448239962 L 412.95565782789265 228.34730855573403 M 413.98095860433676 235.2718127486581 L 414.63671875 239.70057549079263 M 414.63671875 239.70057549079263 L 415.5142952549628 246.16422456524168 M 416.4560522608613 253.10058483139287 L 417.93595612727336 264.00057953534474 M 418.80793788484107 270.9460277455367 L 420.1694037003566 281.8614485268526 M 421.03579103750286 288.80762538768994 L 421.521484375 292.7016248469827 M 421.521484375 292.7016248469827 L 422.3417655437712 299.72974505218514 M 423.15325623954067 306.68254900819306 L 423.61177507804695 310.61111111111103" stroke-linecap="round" stroke-linejoin="round" stroke-miterlimit="10" stroke-width="2.5" stroke-opacity="0.9" stroke-dasharray=""/></g></g></g><g id="labels-514087f7"/></g></svg>