<svg version="1.1" xmlns="http://www.w3.org/2000/svg" xmlns:xlink="http://www.w3.org/1999/xlink" width="600" height="400"><defs/><g transform="scale(1,1)"><g id="background-17bb8099"><rect fill="white" stroke="none" x="0" y="0" width="600" height="400" class="dcg-svg-background"/></g><g id="background-images-17bb8099"/><g id="graphpaper-17bb8099"><g id="grid-17bb8099"><g><path fill="none" stroke="rgb(0,0,0)" class="dcg-svg-minor-gridline" paint-order="fill stroke markers" d=" M -0.5 0 L -0.5 400" stroke-opacity="0.12" stroke-miterlimit="10" stroke-dasharray=""/><path fill="none" stroke="rgb(0,0,0)" class="dcg-svg-minor-gridline" paint-order="fill stroke markers" d=" M 26.5 0 L 26.5 400" stroke-opacity="0.12" stroke-miterlimit="10" stroke-dasharray=""/><path fill="none" stroke="rgb(0,0,0)" class="dcg-svg-minor-gridline" paint-order="fill stroke markers" d=" M 81.5 0 L 81.5 400" stroke-opacity="0.12" stroke-miterlimit="10" stroke-dasharray=""/><path fill="none" stroke="rgb(0,0,0)" class="dcg-svg-minor-gridline" paint-order="fill stroke markers" d=" M 108.5 0 L 108.5 400" stroke-opacity="0.12" stroke-miterlimit="10" stroke-dasharray=""/><path fill="none" stroke="rgb(0,0,0)" class="dcg-svg-minor-gridline" paint-order="fill stroke markers" d=" M 135.5 0 L 135.5 400" stroke-opacity="0.12" stroke-miterlimit="10" stroke-dasharray=""/><path fill="none" stroke="rgb(0,0,0)" class="dcg-svg-minor-gridline" paint-order="fill stroke markers" d=" M 163.5 0 L 163.5 400" stroke-opacity="0.12" stroke-miterlimit="10" stroke-dasharray=""/><path fill="none" stroke="rgb(0,0,0)" class="dcg-svg-minor-gridline" paint-order="fill stroke markers" d=" M 190.5 0 L 190.5 400" stroke-opacity="0.12" stroke-miterlimit="10" stroke-dasharray=""/><path fill="none" stroke="rgb(0,0,0)" class="dcg-svg-minor-gridline" paint-order="fill stroke markers" d=" M 217.5 0 L 217.5 400" stroke-opacity="0.12" stroke-miterlimit="10" stroke-dasharray=""/><path fill="none" stroke="rgb(0,0,0)" class="dcg-svg-minor-gridline" paint-order="fill stroke markers" d=" M 244.5 0 L 244.5 400" stroke-opacity="0.12" stroke-miterlimit="10" stroke-dasharray=""/><path fill="none" stroke="rgb(0,0,0)" class="dcg-svg-minor-gridline" paint-order="fill stroke markers" d=" M 272.5 0 L 272.5 400" stroke-opacity="0.12" stroke-miterlimit="10" stroke-dasharray=""/><path fill="none" stroke="rgb(0,0,0)" class="dcg-svg-minor-gridline" paint-order="fill stroke markers" d=" M 299.5 0 L 299.5 400" stroke-opacity="0.12" stroke-miterlimit="10" stroke-dasharray=""/><path fill="none" stroke="rgb(0,0,0)" class="dcg-svg-minor-gridline" paint-order="fill stroke markers" d=" M 326.5 0 L 326.5 400" stroke-opacity="0.12" stroke-miterlimit="10" stroke-dasharray=""/><path fill="none" stroke="rgb(0,0,0)" class="dcg-svg-minor-gridline" paint-order="fill stroke markers" d=" M 354.5 0 L 354.5 400" stroke-opacity="0.12" stroke-miterlimit="10" stroke-dasharray=""/><path fill="none" stroke="rgb(0,0,0)" class="dcg-svg-minor-gridline" paint-order="fill stroke markers" d=" M 381.5 0 L 381.5 400" stroke-opacity="0.12" stroke-miterlimit="10" stroke-dasharray=""/><path fill="none" stroke="rgb(0,0,0)" class="dcg-svg-minor-gridline" paint-order="fill stroke markers" d=" M 408.5 0 L 408.5 400" stroke-opacity="0.12" stroke-miterlimit="10" stroke-dasharray=""/><path fill="none" stroke="rgb(0,0,0)" class="dcg-svg-minor-gridline" paint-order="fill stroke markers" d=" M 435.5 0 L 435.5 400" stroke-opacity="0.12" stroke-miterlimit="10" stroke-dasharray=""/><path fill="none" stroke="rgb(0,0,0)" class="dcg-svg-minor-gridline" paint-order="fill stroke markers" d=" M 463.5 0 L 463.5 400" stroke-opacity="0.12" stroke-miterlimit="10" stroke-dasharray=""/><path fill="none" stroke="rgb(0,0,0)" class="dcg-svg-minor-gridline" paint-order="fill stroke markers" d=" M 490.5 0 L 490.5 400" stroke-opacity="0.12" stroke-miterlimit="10" stroke-dasharray=""/><path fill="none" stroke="rgb(0,0,0)" class="dcg-svg-minor-gridline" paint-order="fill stroke markers" d=" M 517.5 0 L 517.5 400" stroke-opacity="0.12" stroke-miterlimit="10" stroke-dasharray=""/><path fill="none" stroke="rgb(0,0,0)" class="dcg-svg-minor-gridline" paint-order="fill stroke markers" d=" M 544.5 0 L 544.5 400" stroke-opacity="0.12" stroke-miterlimit="10" stroke-dasharray=""/><path fill="none" stroke="rgb(0,0,0)" class="dcg-svg-minor-gridline" paint-order="fill stroke markers" d=" M 572.5 0 L 572.5 400" stroke-opacity="0.12" stroke-miterlimit="10" stroke-dasharray=""/><path fill="none" stroke="rgb(0,0,0)" class="dcg-svg-minor-gridline" paint-order="fill stroke markers" d=" M 0 367.5 L 600 367.5" stroke-opacity="0.12" stroke-miterlimit="10" stroke-dasharray=""/><path fill="none" stroke="rgb(0,0,0)" class="dcg-svg-minor-gridline" paint-order="fill stroke markers" d=" M 0 335.5 L 600 335.5" stroke-opacity="0.12" stroke-miterlimit="10" stroke-dasharray=""/><path fill="none" stroke="rgb(0,0,0)" class="dcg-svg-minor-gridline" paint-order="fill stroke markers" d=" M 0 303.5 L 600 303.5" stroke-opacity="0.12" stroke-miterlimit="10" stroke-dasharray=""/><path fill="none" stroke="rgb(0,0,0)" class="dcg-svg-minor-gridline" paint-order="fill stroke markers" d=" M 0 271.5 L 600 271.5" stroke-opacity="0.12" stroke-miterlimit="10" stroke-dasharray=""/><path fill="none" stroke="rgb(0,0,0)" class="dcg-svg-minor-gridline" paint-order="fill stroke markers" d=" M 0 207.5 L 600 207.5" stroke-opacity="0.12" stroke-miterlimit="10" stroke-dasharray=""/><path fill="none" stroke="rgb(0,0,0)" class="dcg-svg-minor-gridline" paint-order="fill stroke markers" d=" M 0 175.5 L 600 175.5" stroke-opacity="0.12" stroke-miterlimit="10" stroke-dasharray=""/><path fill="none" stroke="rgb(0,0,0)" class="dcg-svg-minor-gridline" paint-order="fill stroke markers" d=" M 0 143.5 L 600 143.5" stroke-opacity="0.12" stroke-miterlimit="10" stroke-dasharray=""/><path fill="none" stroke="rgb(0,0,0)" class="dcg-svg-minor-gridline" paint-order="fill stroke markers" d=" M 0 111.5 L 600 111.5" stroke-opacity="0.12" stroke-miterlimit="10" stroke-dasharray=""/><path fill="none" stroke="rgb(0,0,0)" class="dcg-svg-minor-gridline" paint-order="fill stroke markers" d=" M 0 79.5 L 600 79.5" stroke-opacity="0.12" stroke-miterlimit="10" stroke-dasharray=""/><path fill="none" stroke="rgb(0,0,0)" class="dcg-svg-minor-gridline" paint-order="fill stroke markers" d=" M 0 47.5 L 600 47.5" stroke-opacity="0.12" stroke-miterlimit="10" stroke-dasharray=""/><path fill="none" stroke="rgb(0,0,0)" class="dcg-svg-minor-gridline" paint-order="fill stroke markers" d=" M 0 15.5 L 600 15.5" stroke-opacity="0.12" stroke-miterlimit="10" stroke-dasharray=""/><path fill="none" stroke="rgb(0,0,0)" class="dcg-svg-major-gridline" paint-order="fill stroke markers" d=" M 163.5 0 L 163.5 400" stroke-opacity="0.31818181818181823" stroke-miterlimit="10" stroke-dasharray=""/><path fill="none" stroke="rgb(0,0,0)" class="dcg-svg-major-gridline" paint-order="fill stroke markers" d=" M 272.5 0 L 272.5 400" stroke-opacity="0.31818181818181823" stroke-miterlimit="10" stroke-dasharray=""/><path fill="none" stroke="rgb(0,0,0)" class="dcg-svg-major-gridline" paint-order="fill stroke markers" d=" M 381.5 0 L 381.5 400" stroke-opacity="0.31818181818181823" stroke-miterlimit="10" stroke-dasharray=""/><path fill="none" stroke="rgb(0,0,0)" class="dcg-svg-major-gridline" paint-order="fill stroke markers" d=" M 490.5 0 L 490.5 400" stroke-opacity="0.31818181818181823" stroke-miterlimit="10" stroke-dasharray=""/><path fill="none" stroke="rgb(0,0,0)" class="dcg-svg-major-gridline" paint-order="fill stroke markers" d=" M 0 79.5 L 600 79.5" stroke-opacity="0.31818181818181823" stroke-miterlimit="10" stroke-dasharray=""/></g></g><g id="axis-17bb8099"><g id="yaxis-17bb8099"><title>Y axis</title><path fill="none" stroke="rgb(0,0,0)" class="dcg-svg-axis-line" paint-order="fill stroke markers" d=" M 54.75 0 L 54.75 400" stroke-opacity="0.9" stroke-miterlimit="10" stroke-width="1.5" stroke-dasharray=""/></g><g id="xaxis-17bb8099"><title>X axis</title><path fill="none" stroke="rgb(0,0,0)" class="dcg-svg-axis-line" paint-order="fill stroke markers" d=" M 0 239.75 L 600 239.75" stroke-opacity="0.9" stroke-miterlimit="10" stroke-width="1.5" stroke-dasharray=""/></g><g><g class="dcg-svg-axis-value"><text fill="none" stroke="#ffffff" font-family="Arial" font-size="14px" font-style="normal" font-weight="normal" text-decoration="normal" x="45.65238813920455" y="255.808" text-anchor="middle" stroke-miterlimit="2" stroke-width="3" stroke-dasharray="">0</text><text fill="#000000" stroke="none" font-family="Arial" font-size="14px" font-style="normal" font-weight="normal" text-decoration="normal" x="45.65238813920455" y="255.808" text-anchor="middle">0</text></g><g class="dcg-svg-axis-value"><text fill="none" stroke="#ffffff" font-family="Arial" font-size="14px" font-style="normal" font-weight="normal" text-decoration="normal" x="163.63636363636363" y="255.808" text-anchor="middle" stroke-miterlimit="2" stroke-width="3" stroke-dasharray="">2</text><text fill="#000000" stroke="none" font-family="Arial" font-size="14px" font-style="normal" font-weight="normal" text-decoration="normal" x="163.63636363636363" y="255.808" text-anchor="middle">2</text></g><g class="dcg-svg-axis-value"><text fill="none" stroke="#ffffff" font-family="Arial" font-size="14px" font-style="normal" font-weight="normal" text-decoration="normal" x="272.72727272727275" y="255.808" text-anchor="middle" stroke-miterlimit="2" stroke-width="3" stroke-dasharray="">4</text><text fill="#000000" stroke="none" font-family="Arial" font-size="14px" font-style="normal" font-weight="normal" text-decoration="normal" x="272.72727272727275" y="255.808" text-anchor="middle">4</text></g><g class="dcg-svg-axis-value"><text fill="none" stroke="#ffffff" font-family="Arial" font-size="14px" font-style="normal" font-weight="normal" text-decoration="normal" x="381.8181818181818" y="255.808" text-anchor="middle" stroke-miterlimit="2" stroke-width="3" stroke-dasharray="">6</text><text fill="#000000" stroke="none" font-family="Arial" font-size="14px" font-style="normal" font-weight="normal" text-decoration="normal" x="381.8181818181818" y="255.808" text-anchor="middle">6</text></g><g class="dcg-svg-axis-value"><text fill="none" stroke="#ffffff" font-family="Arial" font-size="14px" font-style="normal" font-weight="normal" text-decoration="normal" x="490.90909090909093" y="255.808" text-anchor="middle" stroke-miterlimit="2" stroke-width="3" stroke-dasharray="">8</text><text fill="#000000" stroke="none" font-family="Arial" font-size="14px" font-style="normal" font-weight="normal" text-decoration="normal" x="490.90909090909093" y="255.808" text-anchor="middle">8</text></g><g class="dcg-svg-axis-value dcg-svg-offcenter-axis-value"><text fill="none" stroke="#ffffff" font-family="Arial" font-size="14px" font-style="normal" font-weight="normal" text-decoration="normal" x="589.2138671875" y="255.808" text-anchor="middle" stroke-miterlimit="2" stroke-width="3" stroke-dasharray="">10</text><text fill="#000000" stroke="none" font-family="Arial" font-size="14px" font-style="normal" font-weight="normal" text-decoration="normal" x="589.2138671875" y="255.808" text-anchor="middle">10</text></g><g class="dcg-svg-axis-value dcg-svg-offcenter-axis-value"><text fill="none" stroke="#ffffff" font-family="Arial" font-size="14px" font-style="normal" font-weight="normal" text-decoration="normal" x="43.32133345170455" y="393.808" text-anchor="middle" stroke-miterlimit="2" stroke-width="3" stroke-dasharray="">-1</text><text fill="#000000" stroke="none" font-family="Arial" font-size="14px" font-style="normal" font-weight="normal" text-decoration="normal" x="43.32133345170455" y="393.808" text-anchor="middle">-1</text></g><g class="dcg-svg-axis-value"><text fill="none" stroke="#ffffff" font-family="Arial" font-size="14px" font-style="normal" font-weight="normal" text-decoration="normal" x="45.65238813920455" y="83.808" text-anchor="middle" stroke-miterlimit="2" stroke-width="3" stroke-dasharray="">1</text><text fill="#000000" stroke="none" font-family="Arial" font-size="14px" font-style="normal" font-weight="normal" text-decoration="normal" x="45.65238813920455" y="83.808" text-anchor="middle">1</text></g></g></g></g><g id="expressions-17bb8099"><g id="sketch-17bb8099"><title>Expression 1</title><path fill="#2d70b3" stroke="none" paint-order="stroke fill markers" d="" fill-opacity="0.4"/><g><path fill="none" stroke="#2d70b3" class="dcg-svg-curve" paint-order="fill stroke markers" d=" M -0.5 399.5 L -0.5 399.5 L 1.4630570845170414 405.5" stroke-linecap="round" stroke-linejoin="round" stroke-miterlimit="10" stroke-width="2.5" stroke-opacity="0.9" stroke-dasharray=""/></g><g><path fill="none" stroke="#2d70b3" class="dcg-svg-curve" paint-order="fill stroke markers" d=" M 89.67888476902789 -5.5 L 89.67888476902789 -5.5 L 89.880859375 -4.037718320327031 L 92.078125 10.032212885154024 L 94.275390625 22.565210195299528 L 96.326171875 33.08740157480315 L 98.376953125 42.63607689997002 L 100.427734375 51.34036749928225 L 102.625 59.850877192982466 L 104.822265625 67.62483608707055 L 107.01953125 74.75389643036704 L 109.216796875 81.31510982379916 L 111.4140625 87.37372330547817 L 113.7578125 93.34478144513827 L 116.1015625 98.86480686695279 L 118.591796875 104.29059211883634 L 121.08203125 109.31326976559393 L 123.71875 114.24006116207954 L 126.35546875 118.80755064456724 L 129.138671875 123.28081220074483 L 132.068359375 127.64473459634746 L 135.14453125 131.88752052545158 L 138.3671875 136.0003158559697 L 141.736328125 139.9768413059985 L 145.251953125 143.81303839976638 L 148.9140625 147.50673778775968 L 152.72265625 151.057354925776 L 156.82421875 154.5868100544182 L 161.072265625 157.95713574716933 L 165.61328125 161.276080210074 L 170.447265625 164.52459672806313 L 175.57421875 167.68759587990357 L 180.994140625 170.7535403335781 L 186.70703125 173.71401325035134 L 192.859375 176.62970069071375 L 199.451171875 179.47985163476505 L 206.482421875 182.24831833668208 L 213.953125 184.9230512991339 L 222.009765625 187.5409101720447 L 230.65234375 190.08362237973157 L 240.02734375 192.57460976657597 L 250.134765625 194.99337860780983 L 261.12109375 197.35466237942126 L 272.986328125 199.63867769600387 L 285.876953125 201.85510368200354 L 299.939453125 204.0079880855673 L 315.3203125 206.0973496432212 L 332.166015625 208.12054105817575 L 350.623046875 210.07339140586413 L 370.984375 211.9638655462185 L 393.54296875 213.79355926884756 L 418.591796875 215.55990867579908 L 446.5703125 217.26631836070024 L 477.771484375 218.90350105283005 L 512.78125 220.47538318625172 L 552.33203125 221.98543481746754 L 597.15625 223.4309533150255 L 599.5 223.5" stroke-linecap="round" stroke-linejoin="round" stroke-miterlimit="10" stroke-width="2.5" stroke-opacity="0.9" stroke-dasharray=""/></g></g><g id="sketch-17bb8099"><title>Expression 2</title><path fill="#c64440" stroke="none" paint-order="stroke fill markers" d="" fill-opacity="0.4"/><path fill="#c64440" stroke="none" paint-order="stroke fill markers" d="" fill-opacity="0.4"/><path fill="#c64440" stroke="none" class="dcg-svg-region" paint-order="stroke fill markers" d=" M 108.5909090909091 239.5 L 163.13636363636363 239.5 L 163.13636363636363 79.5 L 108.5909090909091 79.5" fill-opacity="0.4"/><g><path fill="none" stroke="#c64440" class="dcg-svg-curve" paint-order="fill stroke markers" d=" M 108.5909090909091 239.5 L 119.5909090909091 239.5 M 126.5909090909091 239.5 L 137.5909090909091 239.5 M 144.5909090909091 239.5 L 155.5909090909091 239.5 M 162.5909090909091 239.5 L 163.13636363636363 239.5" stroke-linecap="round" stroke-linejoin="round" stroke-miterlimit="10" stroke-width="2.5" stroke-opacity="0.9" stroke-dasharray=""/></g><g><path fill="none" stroke="#c64440" class="dcg-svg-curve" paint-order="fill stroke markers" d=" M 108.5909090909091 79.5 L 119.5909090909091 79.5 M 126.5909090909091 79.5 L 137.5909090909091 79.5 M 144.5909090909091 79.5 L 155.5909090909091 79.5 M 162.5909090909091 79.5 L 163.13636363636363 79.5" stroke-linecap="round" stroke-linejoin="round" stroke-miterlimit="10" stroke-width="2.5" stroke-opacity="0.9" stroke-dasharray=""/></g></g><g id="sketch-17bb8099"><title>Expression 3</title><path fill="#c64440" stroke="none" paint-order="stroke fill markers" d="" fill-opacity="0.4"/><path fill="#c64440" stroke="none" paint-order="stroke fill markers" d="" fill-opacity="0.4"/><path fill="#c64440" stroke="none" class="dcg-svg-region" paint-order="stroke fill markers" d=" M 163.13636363636363 239.5 L 217.6818181818182 239.5 L 217.6818181818182 159.5 L 163.13636363636363 159.5" fill-opacity="0.4"/><g><path fill="none" stroke="#c64440" class="dcg-svg-curve" paint-order="fill stroke markers" d=" M 163.13636363636363 239.5 L 174.13636363636363 239.5 M 181.13636363636363 239.5 L 192.13636363636363 239.5 M 199.13636363636363 239.5 L 210.13636363636363 239.5 M 217.13636363636363 239.5 L 217.6818181818182 239.5" stroke-linecap="round" stroke-linejoin="round" stroke-miterlimit="10" stroke-width="2.5" stroke-opacity="0.9" stroke-dasharray=""/></g><g><path fill="none" stroke="#c64440" class="dcg-svg-curve" paint-order="fill stroke markers" d=" M 163.13636363636363 159.5 L 174.13636363636363 159.5 M 181.13636363636363 159.5 L 192.13636363636363 159.5 M 199.13636363636363 159.5 L 210.13636363636363 159.5 M 217.13636363636363 159.5 L 217.6818181818182 159.5" stroke-linecap="round" stroke-linejoin="round" stroke-miterlimit="10" stroke-width="2.5" stroke-opacity="0.9" stroke-dasharray=""/></g></g><g id="sketch-17bb8099"><title>Expression 4</title><path fill="#c64440" stroke="none" paint-order="stroke fill markers" d="" fill-opacity="0.4"/><path fill="#c64440" stroke="none" paint-order="stroke fill markers" d="" fill-opacity="0.4"/><path fill="#c64440" stroke="none" class="dcg-svg-region" paint-order="stroke fill markers" d=" M 217.6818181818182 239.5 L 272.22727272727275 239.5 L 272.22727272727275 186.16666666666669 L 217.6818181818182 186.16666666666669" fill-opacity="0.4"/><g><path fill="none" stroke="#c64440" class="dcg-svg-curve" paint-order="fill stroke markers" d=" M 217.6818181818182 239.5 L 228.6818181818182 239.5 M 235.6818181818182 239.5 L 246.6818181818182 239.5 M 253.6818181818182 239.5 L 264.6818181818182 239.5 M 271.6818181818182 239.5 L 272.22727272727275 239.5" stroke-linecap="round" stroke-linejoin="round" stroke-miterlimit="10" stroke-width="2.5" stroke-opacity="0.9" stroke-dasharray=""/></g><g><path fill="none" stroke="#c64440" class="dcg-svg-curve" paint-order="fill stroke markers" d=" M 217.6818181818182 186.16666666666669 L 228.6818181818182 186.16666666666669 M 235.6818181818182 186.16666666666669 L 246.6818181818182 186.16666666666669 M 253.6818181818182 186.16666666666669 L 264.6818181818182 186.16666666666669 M 271.6818181818182 186.16666666666669 L 272.22727272727275 186.16666666666669" stroke-linecap="round" stroke-linejoin="round" stroke-miterlimit="10" stroke-width="2.5" stroke-opacity="0.9" stroke-dasharray=""/></g></g><g id="sketch-17bb8099"><title>Expression 5</title><path fill="#c64440" stroke="none" paint-order="stroke fill markers" d="" fill-opacity="0.4"/><path fill="#c64440" stroke="none" paint-order="stroke fill markers" d="" fill-opacity="0.4"/><path fill="#c64440" stroke="none" class="dcg-svg-region" paint-order="stroke fill markers" d=" M 272.22727272727275 239.5 L 326.77272727272725 239.5 L 326.77272727272725 199.5 L 272.22727272727275 199.5" fill-opacity="0.4"/><g><path fill="none" stroke="#c64440" class="dcg-svg-curve" paint-order="fill stroke markers" d=" M 272.22727272727275 239.5 L 283.22727272727275 239.5 M 290.22727272727275 239.5 L 301.22727272727275 239.5 M 308.22727272727275 239.5 L 319.22727272727275 239.5 M 326.22727272727275 239.5 L 326.77272727272725 239.5" stroke-linecap="round" stroke-linejoin="round" stroke-miterlimit="10" stroke-width="2.5" stroke-opacity="0.9" stroke-dasharray=""/></g><g><path fill="none" stroke="#c64440" class="dcg-svg-curve" paint-order="fill stroke markers" d=" M 272.22727272727275 199.5 L 283.22727272727275 199.5 M 290.22727272727275 199.5 L 301.22727272727275 199.5 M 308.22727272727275 199.5 L 319.22727272727275 199.5 M 326.22727272727275 199.5 L 326.77272727272725 199.5" stroke-linecap="round" stroke-linejoin="round" stroke-miterlimit="10" stroke-width="2.5" stroke-opacity="0.9" stroke-dasharray=""/></g></g><g id="sketch-17bb8099"><title>Expression 6</title><path fill="#c64440" stroke="none" paint-order="stroke fill markers" d="" fill-opacity="0.4"/><path fill="#c64440" stroke="none" paint-order="stroke fill markers" d="" fill-opacity="0.4"/><path fill="#c64440" stroke="none" class="dcg-svg-region" paint-order="stroke fill markers" d=" M 326.77272727272725 239.5 L 381.3181818181818 239.5 L 381.3181818181818 207.5 L 326.77272727272725 207.5" fill-opacity="0.4"/><g><path fill="none" stroke="#c64440" class="dcg-svg-curve" paint-order="fill stroke markers" d=" M 326.77272727272725 239.5 L 337.77272727272725 239.5 M 344.77272727272725 239.5 L 355.77272727272725 239.5 M 362.77272727272725 239.5 L 373.77272727272725 239.5 M 380.77272727272725 239.5 L 381.3181818181818 239.5" stroke-linecap="round" stroke-linejoin="round" stroke-miterlimit="10" stroke-width="2.5" stroke-opacity="0.9" stroke-dasharray=""/></g><g><path fill="none" stroke="#c64440" class="dcg-svg-curve" paint-order="fill stroke markers" d=" M 326.77272727272725 207.5 L 337.77272727272725 207.5 M 344.77272727272725 207.5 L 355.77272727272725 207.5 M 362.77272727272725 207.5 L 373.77272727272725 207.5 M 380.77272727272725 207.5 L 381.3181818181818 207.5" stroke-linecap="round" stroke-linejoin="round" stroke-miterlimit="10" stroke-width="2.5" stroke-opacity="0.9" stroke-dasharray=""/></g></g><g id="sketch-17bb8099"><title>Expression 7</title><path fill="#388c46" stroke="none" paint-order="stroke fill markers" d="" fill-opacity="0.4"/><path fill="#388c46" stroke="none" paint-order="stroke fill markers" d="" fill-opacity="0.4"/><path fill="#388c46" stroke="none" class="dcg-svg-region" paint-order="stroke fill markers" d=" M 108.5909090909091 239.5 L 381.3181818181818 239.5 L 381.3181818181818 212.83333333333331 L 363.806640625 211.32580284596537 L 344.03125 209.40448199853049 L 326.16015625 207.4279631985906 L 309.900390625 205.38976214021756 L 294.958984375 203.27425239069152 L 281.3359375 201.10299976564332 L 268.73828125 198.84995658106936 L 257.166015625 196.53402609322757 L 246.47265625 194.1463667820069 L 236.658203125 191.70885291329395 L 227.576171875 189.2076202900775 L 219.080078125 186.61853465666104 L 211.169921875 183.95630985676752 L 203.845703125 181.24059916437017 L 196.9609375 178.4340290719344 L 190.515625 175.54996096799374 L 184.509765625 172.60605287332857 L 178.943359375 169.62474677470948 L 173.669921875 166.54441723255036 L 168.689453125 163.3750145196887 L 164.001953125 160.12976868111903 L 159.607421875 156.82559606408478 L 155.359375 153.35909568874868 L 151.404296875 149.85973191081928 L 147.595703125 146.21032028469753 L 144.080078125 142.56759355124984 L 140.7109375 138.79932390903502 L 137.48828125 134.91015001595918 L 134.412109375 130.90679370339683 L 131.482421875 126.79836629406702 L 128.552734375 122.36684539767646 L 125.76953125 117.8215744522837 L 123.1328125 113.17771781033156 L 120.49609375 108.16533066132263 L 118.005859375 103.05194669997917 L 115.515625 97.52426343154247 L 113.171875 91.89639639639643 L 110.828125 85.80393996247653 L 108.5909090909091 79.5" fill-opacity="0.4"/><g><path fill="none" stroke="#388c46" class="dcg-svg-curve" paint-order="fill stroke markers" d=" M 108.5909090909091 239.5 L 119.5909090909091 239.5 M 126.5909090909091 239.5 L 137.5909090909091 239.5 M 144.5909090909091 239.5 L 155.5909090909091 239.5 M 162.5909090909091 239.5 L 173.5909090909091 239.5 M 180.5909090909091 239.5 L 191.5909090909091 239.5 M 198.5909090909091 239.5 L 209.5909090909091 239.5 M 216.5909090909091 239.5 L 227.5909090909091 239.5 M 234.5909090909091 239.5 L 245.5909090909091 239.5 M 252.5909090909091 239.5 L 263.59090909090907 239.5 M 270.59090909090907 239.5 L 281.59090909090907 239.5 M 288.59090909090907 239.5 L 299.59090909090907 239.5 M 306.59090909090907 239.5 L 317.59090909090907 239.5 M 324.59090909090907 239.5 L 335.59090909090907 239.5 M 342.59090909090907 239.5 L 353.59090909090907 239.5 M 360.59090909090907 239.5 L 371.59090909090907 239.5 M 378.59090909090907 239.5 L 381.3181818181818 239.5" stroke-linecap="round" stroke-linejoin="round" stroke-miterlimit="10" stroke-width="2.5" stroke-opacity="0.9" stroke-dasharray=""/></g><g><path fill="none" stroke="#388c46" class="dcg-svg-curve" paint-order="fill stroke markers" d=" M 108.5909090909091 79.5 L 110.828125 85.80393996247653 M 110.828125 85.80393996247653 L 112.37591440026856 89.8273381448847 M 115.01073803633844 96.31191710652237 L 115.515625 97.52426343154247 M 115.515625 97.52426343154247 L 118.005859375 103.05194669997917 M 118.005859375 103.05194669997917 L 119.59259888818065 106.31011727981779 M 122.79429935696388 112.53420627618522 L 123.1328125 113.17771781033156 M 123.1328125 113.17771781033156 L 125.76953125 117.8215744522837 M 125.76953125 117.8215744522837 L 128.3454118877594 122.02826541078412 M 132.23173793160527 127.84916458747136 L 134.412109375 130.90679370339683 M 134.412109375 130.90679370339683 L 137.48828125 134.91015001595918 M 137.48828125 134.91015001595918 L 138.88932791909403 136.60096458186933 M 143.47367518807079 141.8893524112914 L 144.080078125 142.56759355124984 M 144.080078125 142.56759355124984 L 147.595703125 146.21032028469753 M 147.595703125 146.21032028469753 L 151.22586486630746 149.68875755919808 M 156.49980691119447 154.28971339719874 L 159.607421875 156.82559606408478 M 159.607421875 156.82559606408478 L 164.001953125 160.12976868111903 M 164.001953125 160.12976868111903 L 165.22774145177115 160.97840536728893 M 171.04295687575993 164.8727051080271 L 173.669921875 166.54441723255036 M 173.669921875 166.54441723255036 L 178.943359375 169.62474677470948 M 178.943359375 169.62474677470948 L 180.51164303420825 170.46470229135224 M 186.72275069417853 173.69079766200053 L 190.515625 175.54996096799374 M 190.515625 175.54996096799374 L 196.70063049724556 178.31755013877537 M 203.17895615402435 180.96880020854698 L 203.845703125 181.24059916437017 M 203.845703125 181.24059916437017 L 211.169921875 183.95630985676752 M 211.169921875 183.95630985676752 L 213.50947259095483 184.74370390307647 M 220.15369503372352 186.94570690734025 L 227.576171875 189.2076202900775 M 227.576171875 189.2076202900775 L 230.7003825488671 190.0680420882603 M 237.45438062988424 191.90659125748851 L 246.47265625 194.1463667820069 M 246.47265625 194.1463667820069 L 248.13936506341508 194.51851670027747 M 254.97113444259276 196.04394357487044 L 257.166015625 196.53402609322757 M 257.166015625 196.53402609322757 L 265.7469354322636 198.2513055300593 M 272.62593440237094 199.54524864691984 L 281.3359375 201.10299976564332 M 281.3359375 201.10299976564332 L 283.46091158336117 201.44167991546533 M 290.37366247138084 202.54343994386699 L 294.958984375 203.27425239069152 M 294.958984375 203.27425239069152 L 301.2530141184752 204.16540554343635 M 308.1838875962581 205.1467275267658 L 309.900390625 205.38976214021756 M 309.900390625 205.38976214021756 L 319.09481222105734 206.54230518791059 M 326.0404556695614 207.4129584405046 L 326.16015625 207.4279631985906 M 326.16015625 207.4279631985906 L 336.97358465171584 208.62391375577434 M 343.931161238749 209.39341231689585 L 344.03125 209.40448199853049 M 344.03125 209.40448199853049 L 354.87947024950006 210.4584642999764 M 361.84666402375836 211.13537708013047 L 363.806640625 211.32580284596537 M 363.806640625 211.32580284596537 L 372.8041558797393 212.10037936138704 M 379.77836027470585 212.70077344632577 L 381.3181818181818 212.83333333333331" stroke-linecap="round" stroke-linejoin="round" stroke-miterlimit="10" stroke-width="2.5" stroke-opacity="0.9" stroke-dasharray=""/></g></g><g id="sketch-17bb8099"><title>"y" equals StartFraction, 1 Over "x" , EndFraction</title><path fill="none" stroke="#3072da" class="dcg-svg-point" paint-order="fill stroke markers" d=" M 490.3090909090909 79.4 L 490.3090909090909 79.6 L 490.50909090909096 79.6 L 490.50909090909096 79.4" stroke-linecap="round" stroke-linejoin="round" stroke-miterlimit="10" stroke-width="9" stroke-opacity="0.9" stroke-dasharray=""/></g><g id="sketch-17bb8099"><title>StartFraction, 1 Over "n" , EndFraction</title><path fill="none" stroke="#c64440" class="dcg-svg-point" paint-order="fill stroke markers" d=" M 490.3090909090909 111.4 L 490.3090909090909 111.6 L 490.50909090909096 111.6 L 490.50909090909096 111.4" stroke-linecap="round" stroke-linejoin="round" stroke-miterlimit="10" stroke-width="9" stroke-opacity="0.9" stroke-dasharray=""/></g></g><g id="labels-17bb8099"><g transform="rotate(0,0,0) translate(490.90909090909093,80)"><g class="dcg-svg-label"><g transform="translate(-56.159090909090935,-40)"><g><text fill="none" stroke="#FFF" font-family="&quot;Times New Roman&quot;, Symbola, serif" font-size="17.71px" font-style="italic" font-weight="normal" text-decoration="normal" x="0" y="15.962119999999999" text-anchor="start" stroke-linecap="round" stroke-linejoin="round" stroke-miterlimit="2" stroke-width="3" stroke-dasharray="">y</text></g></g><g transform="translate(-44.768465909090935,-38)"><g><text fill="none" stroke="#FFF" font-family="Symbola, &quot;Times New Roman&quot;, serif" font-size="17.71px" font-style="normal" font-weight="normal" text-decoration="normal" x="0" y="13.962119999999999" text-anchor="start" stroke-linecap="round" stroke-linejoin="round" stroke-miterlimit="2" stroke-width="3" stroke-dasharray="">=</text></g></g><g transform="translate(-22.549715909090935,-45.5625)"><g><text fill="none" stroke="#FFF" font-family="Symbola, &quot;Times New Roman&quot;, serif" font-size="15.939px" font-style="normal" font-weight="normal" text-decoration="normal" x="0" y="11.365908" text-anchor="start" stroke-linecap="round" stroke-linejoin="round" stroke-miterlimit="2" stroke-width="3" stroke-dasharray="">1</text></g></g><g transform="translate(-24.284090909090935,-29.625)"><g><path fill="none" stroke="#FFF" paint-order="fill stroke markers" d=" M 0 0 L 11.59375 0 L 11.59375 1 L 0 1 Z" stroke-linecap="round" stroke-linejoin="round" stroke-miterlimit="10" stroke-width="3" stroke-dasharray=""/></g></g><g transform="translate(-22.034090909090935,-29.03125)"><g><text fill="none" stroke="#FFF" font-family="&quot;Times New Roman&quot;, Symbola, serif" font-size="15.939px" font-style="italic" font-weight="normal" text-decoration="normal" x="0" y="13.365908" text-anchor="start" stroke-linecap="round" stroke-linejoin="round" stroke-miterlimit="2" stroke-width="3" stroke-dasharray="">x</text></g></g><g transform="translate(-56.159090909090935,-40)"><g><text fill="rgb(48, 114, 218)" stroke="none" font-family="&quot;Times New Roman&quot;, Symbola, serif" font-size="17.71px" font-style="italic" font-weight="normal" text-decoration="normal" x="0" y="15.962119999999999" text-anchor="start">y</text></g></g><g transform="translate(-44.768465909090935,-38)"><g><text fill="rgb(48, 114, 218)" stroke="none" font-family="Symbola, &quot;Times New Roman&quot;, serif" font-size="17.71px" font-style="normal" font-weight="normal" text-decoration="normal" x="0" y="13.962119999999999" text-anchor="start">=</text></g></g><g transform="translate(-22.549715909090935,-45.5625)"><g><text fill="rgb(48, 114, 218)" stroke="none" font-family="Symbola, &quot;Times New Roman&quot;, serif" font-size="15.939px" font-style="normal" font-weight="normal" text-decoration="normal" x="0" y="11.365908" text-anchor="start">1</text></g></g><g transform="translate(-24.284090909090935,-29.625)"><g><path fill="rgb(48, 114, 218)" stroke="none" paint-order="stroke fill markers" d=" M 0 0 L 11.59375 0 L 11.59375 1 L 0 1 Z"/></g></g><g transform="translate(-22.034090909090935,-29.03125)"><g><text fill="rgb(48, 114, 218)" stroke="none" font-family="&quot;Times New Roman&quot;, Symbola, serif" font-size="15.939px" font-style="italic" font-weight="normal" text-decoration="normal" x="0" y="13.365908" text-anchor="start">x</text></g></g></g></g><g transform="rotate(0,0,0) translate(490.90909090909093,112)"><g class="dcg-svg-label"><g transform="translate(19.419034090909065,-18.53125)"><g><text fill="none" stroke="#FFF" font-family="Symbola, &quot;Times New Roman&quot;, serif" font-size="15.939px" font-style="normal" font-weight="normal" text-decoration="normal" x="0" y="11.365908" text-anchor="start" stroke-linecap="round" stroke-linejoin="round" stroke-miterlimit="2" stroke-width="3" stroke-dasharray="">1</text></g></g><g transform="translate(17.684659090909065,-2.59375)"><g><path fill="none" stroke="#FFF" paint-order="fill stroke markers" d=" M 0 0 L 11.59375 0 L 11.59375 1 L 0 1 Z" stroke-linecap="round" stroke-linejoin="round" stroke-miterlimit="10" stroke-width="3" stroke-dasharray=""/></g></g><g transform="translate(19.497159090909065,-2)"><g><text fill="none" stroke="#FFF" font-family="&quot;Times New Roman&quot;, Symbola, serif" font-size="15.939px" font-style="italic" font-weight="normal" text-decoration="normal" x="0" y="13.365908" text-anchor="start" stroke-linecap="round" stroke-linejoin="round" stroke-miterlimit="2" stroke-width="3" stroke-dasharray="">n</text></g></g><g transform="translate(19.419034090909065,-18.53125)"><g><text fill="rgb(198, 68, 64)" stroke="none" font-family="Symbola, &quot;Times New Roman&quot;, serif" font-size="15.939px" font-style="normal" font-weight="normal" text-decoration="normal" x="0" y="11.365908" text-anchor="start">1</text></g></g><g transform="translate(17.684659090909065,-2.59375)"><g><path fill="rgb(198, 68, 64)" stroke="none" paint-order="stroke fill markers" d=" M 0 0 L 11.59375 0 L 11.59375 1 L 0 1 Z"/></g></g><g transform="translate(19.497159090909065,-2)"><g><text fill="rgb(198, 68, 64)" stroke="none" font-family="&quot;Times New Roman&quot;, Symbola, serif" font-size="15.939px" font-style="italic" font-weight="normal" text-decoration="normal" x="0" y="13.365908" text-anchor="start">n</text></g></g></g></g></g></g></svg>