<svg version="1.1" xmlns="http://www.w3.org/2000/svg" xmlns:xlink="http://www.w3.org/1999/xlink" width="600" height="400"><defs/><g transform="scale(1,1)"><g id="background-086fdc2e"><rect fill="white" stroke="none" x="0" y="0" width="600" height="400" class="dcg-svg-background"/></g><g id="background-images-086fdc2e"/><g id="graphpaper-086fdc2e"><g id="grid-086fdc2e"><g><path fill="none" stroke="rgb(0,0,0)" class="dcg-svg-minor-gridline" paint-order="fill stroke markers" d=" M -0.5 0 L -0.5 400" stroke-opacity="0.12" stroke-miterlimit="10" stroke-dasharray=""/><path fill="none" stroke="rgb(0,0,0)" class="dcg-svg-minor-gridline" paint-order="fill stroke markers" d=" M 29.5 0 L 29.5 400" stroke-opacity="0.12" stroke-miterlimit="10" stroke-dasharray=""/><path fill="none" stroke="rgb(0,0,0)" class="dcg-svg-minor-gridline" paint-order="fill stroke markers" d=" M 59.5 0 L 59.5 400" stroke-opacity="0.12" stroke-miterlimit="10" stroke-dasharray=""/><path fill="none" stroke="rgb(0,0,0)" class="dcg-svg-minor-gridline" paint-order="fill stroke markers" d=" M 89.5 0 L 89.5 400" stroke-opacity="0.12" stroke-miterlimit="10" stroke-dasharray=""/><path fill="none" stroke="rgb(0,0,0)" class="dcg-svg-minor-gridline" paint-order="fill stroke markers" d=" M 119.5 0 L 119.5 400" stroke-opacity="0.12" stroke-miterlimit="10" stroke-dasharray=""/><path fill="none" stroke="rgb(0,0,0)" class="dcg-svg-minor-gridline" paint-order="fill stroke markers" d=" M 149.5 0 L 149.5 400" stroke-opacity="0.12" stroke-miterlimit="10" stroke-dasharray=""/><path fill="none" stroke="rgb(0,0,0)" class="dcg-svg-minor-gridline" paint-order="fill stroke markers" d=" M 179.5 0 L 179.5 400" stroke-opacity="0.12" stroke-miterlimit="10" stroke-dasharray=""/><path fill="none" stroke="rgb(0,0,0)" class="dcg-svg-minor-gridline" paint-order="fill stroke markers" d=" M 209.5 0 L 209.5 400" stroke-opacity="0.12" stroke-miterlimit="10" stroke-dasharray=""/><path fill="none" stroke="rgb(0,0,0)" class="dcg-svg-minor-gridline" paint-order="fill stroke markers" d=" M 239.5 0 L 239.5 400" stroke-opacity="0.12" stroke-miterlimit="10" stroke-dasharray=""/><path fill="none" stroke="rgb(0,0,0)" class="dcg-svg-minor-gridline" paint-order="fill stroke markers" d=" M 269.5 0 L 269.5 400" stroke-opacity="0.12" stroke-miterlimit="10" stroke-dasharray=""/><path fill="none" stroke="rgb(0,0,0)" class="dcg-svg-minor-gridline" paint-order="fill stroke markers" d=" M 329.5 0 L 329.5 400" stroke-opacity="0.12" stroke-miterlimit="10" stroke-dasharray=""/><path fill="none" stroke="rgb(0,0,0)" class="dcg-svg-minor-gridline" paint-order="fill stroke markers" d=" M 359.5 0 L 359.5 400" stroke-opacity="0.12" stroke-miterlimit="10" stroke-dasharray=""/><path fill="none" stroke="rgb(0,0,0)" class="dcg-svg-minor-gridline" paint-order="fill stroke markers" d=" M 389.5 0 L 389.5 400" stroke-opacity="0.12" stroke-miterlimit="10" stroke-dasharray=""/><path fill="none" stroke="rgb(0,0,0)" class="dcg-svg-minor-gridline" paint-order="fill stroke markers" d=" M 419.5 0 L 419.5 400" stroke-opacity="0.12" stroke-miterlimit="10" stroke-dasharray=""/><path fill="none" stroke="rgb(0,0,0)" class="dcg-svg-minor-gridline" paint-order="fill stroke markers" d=" M 449.5 0 L 449.5 400" stroke-opacity="0.12" stroke-miterlimit="10" stroke-dasharray=""/><path fill="none" stroke="rgb(0,0,0)" class="dcg-svg-minor-gridline" paint-order="fill stroke markers" d=" M 479.5 0 L 479.5 400" stroke-opacity="0.12" stroke-miterlimit="10" stroke-dasharray=""/><path fill="none" stroke="rgb(0,0,0)" class="dcg-svg-minor-gridline" paint-order="fill stroke markers" d=" M 509.5 0 L 509.5 400" stroke-opacity="0.12" stroke-miterlimit="10" stroke-dasharray=""/><path fill="none" stroke="rgb(0,0,0)" class="dcg-svg-minor-gridline" paint-order="fill stroke markers" d=" M 539.5 0 L 539.5 400" stroke-opacity="0.12" stroke-miterlimit="10" stroke-dasharray=""/><path fill="none" stroke="rgb(0,0,0)" class="dcg-svg-minor-gridline" paint-order="fill stroke markers" d=" M 569.5 0 L 569.5 400" stroke-opacity="0.12" stroke-miterlimit="10" stroke-dasharray=""/><path fill="none" stroke="rgb(0,0,0)" class="dcg-svg-minor-gridline" paint-order="fill stroke markers" d=" M 0 370.5 L 600 370.5" stroke-opacity="0.12" stroke-miterlimit="10" stroke-dasharray=""/><path fill="none" stroke="rgb(0,0,0)" class="dcg-svg-minor-gridline" paint-order="fill stroke markers" d=" M 0 342.5 L 600 342.5" stroke-opacity="0.12" stroke-miterlimit="10" stroke-dasharray=""/><path fill="none" stroke="rgb(0,0,0)" class="dcg-svg-minor-gridline" paint-order="fill stroke markers" d=" M 0 313.5 L 600 313.5" stroke-opacity="0.12" stroke-miterlimit="10" stroke-dasharray=""/><path fill="none" stroke="rgb(0,0,0)" class="dcg-svg-minor-gridline" paint-order="fill stroke markers" d=" M 0 285.5 L 600 285.5" stroke-opacity="0.12" stroke-miterlimit="10" stroke-dasharray=""/><path fill="none" stroke="rgb(0,0,0)" class="dcg-svg-minor-gridline" paint-order="fill stroke markers" d=" M 0 256.5 L 600 256.5" stroke-opacity="0.12" stroke-miterlimit="10" stroke-dasharray=""/><path fill="none" stroke="rgb(0,0,0)" class="dcg-svg-minor-gridline" paint-order="fill stroke markers" d=" M 0 228.5 L 600 228.5" stroke-opacity="0.12" stroke-miterlimit="10" stroke-dasharray=""/><path fill="none" stroke="rgb(0,0,0)" class="dcg-svg-minor-gridline" paint-order="fill stroke markers" d=" M 0 170.5 L 600 170.5" stroke-opacity="0.12" stroke-miterlimit="10" stroke-dasharray=""/><path fill="none" stroke="rgb(0,0,0)" class="dcg-svg-minor-gridline" paint-order="fill stroke markers" d=" M 0 142.5 L 600 142.5" stroke-opacity="0.12" stroke-miterlimit="10" stroke-dasharray=""/><path fill="none" stroke="rgb(0,0,0)" class="dcg-svg-minor-gridline" paint-order="fill stroke markers" d=" M 0 113.5 L 600 113.5" stroke-opacity="0.12" stroke-miterlimit="10" stroke-dasharray=""/><path fill="none" stroke="rgb(0,0,0)" class="dcg-svg-minor-gridline" paint-order="fill stroke markers" d=" M 0 85.5 L 600 85.5" stroke-opacity="0.12" stroke-miterlimit="10" stroke-dasharray=""/><path fill="none" stroke="rgb(0,0,0)" class="dcg-svg-minor-gridline" paint-order="fill stroke markers" d=" M 0 56.5 L 600 56.5" stroke-opacity="0.12" stroke-miterlimit="10" stroke-dasharray=""/><path fill="none" stroke="rgb(0,0,0)" class="dcg-svg-minor-gridline" paint-order="fill stroke markers" d=" M 0 28.5 L 600 28.5" stroke-opacity="0.12" stroke-miterlimit="10" stroke-dasharray=""/><path fill="none" stroke="rgb(0,0,0)" class="dcg-svg-minor-gridline" paint-order="fill stroke markers" d=" M 0 -0.5 L 600 -0.5" stroke-opacity="0.12" stroke-miterlimit="10" stroke-dasharray=""/><path fill="none" stroke="rgb(0,0,0)" class="dcg-svg-major-gridline" paint-order="fill stroke markers" d=" M -0.5 0 L -0.5 400" stroke-opacity="0.31818181818181823" stroke-miterlimit="10" stroke-dasharray=""/><path fill="none" stroke="rgb(0,0,0)" class="dcg-svg-major-gridline" paint-order="fill stroke markers" d=" M 149.5 0 L 149.5 400" stroke-opacity="0.31818181818181823" stroke-miterlimit="10" stroke-dasharray=""/><path fill="none" stroke="rgb(0,0,0)" class="dcg-svg-major-gridline" paint-order="fill stroke markers" d=" M 449.5 0 L 449.5 400" stroke-opacity="0.31818181818181823" stroke-miterlimit="10" stroke-dasharray=""/><path fill="none" stroke="rgb(0,0,0)" class="dcg-svg-major-gridline" paint-order="fill stroke markers" d=" M 0 342.5 L 600 342.5" stroke-opacity="0.31818181818181823" stroke-miterlimit="10" stroke-dasharray=""/><path fill="none" stroke="rgb(0,0,0)" class="dcg-svg-major-gridline" paint-order="fill stroke markers" d=" M 0 56.5 L 600 56.5" stroke-opacity="0.31818181818181823" stroke-miterlimit="10" stroke-dasharray=""/></g></g><g id="axis-086fdc2e"><g id="yaxis-086fdc2e"><title>Y axis</title><path fill="none" stroke="rgb(0,0,0)" class="dcg-svg-axis-line" paint-order="fill stroke markers" d=" M 299.75 0 L 299.75 400" stroke-opacity="0.9" stroke-miterlimit="10" stroke-width="1.5" stroke-dasharray=""/></g><g id="xaxis-086fdc2e"><title>X axis</title><path fill="none" stroke="rgb(0,0,0)" class="dcg-svg-axis-line" paint-order="fill stroke markers" d=" M 0 199.75 L 600 199.75" stroke-opacity="0.9" stroke-miterlimit="10" stroke-width="1.5" stroke-dasharray=""/></g><g><g class="dcg-svg-axis-value"><text fill="none" stroke="#ffffff" font-family="Arial" font-size="14px" font-style="normal" font-weight="normal" text-decoration="normal" x="291.10693359375" y="215.808" text-anchor="middle" stroke-miterlimit="2" stroke-width="3" stroke-dasharray="">0</text><text fill="#000000" stroke="none" font-family="Arial" font-size="14px" font-style="normal" font-weight="normal" text-decoration="normal" x="291.10693359375" y="215.808" text-anchor="middle">0</text></g><g class="dcg-svg-axis-value dcg-svg-offcenter-axis-value"><text fill="none" stroke="#ffffff" font-family="Arial" font-size="14px" font-style="normal" font-weight="normal" text-decoration="normal" x="13.1171875" y="215.808" text-anchor="middle" stroke-miterlimit="2" stroke-width="3" stroke-dasharray="">-10</text><text fill="#000000" stroke="none" font-family="Arial" font-size="14px" font-style="normal" font-weight="normal" text-decoration="normal" x="13.1171875" y="215.808" text-anchor="middle">-10</text></g><g class="dcg-svg-axis-value"><text fill="none" stroke="#ffffff" font-family="Arial" font-size="14px" font-style="normal" font-weight="normal" text-decoration="normal" x="147.6689453125" y="215.808" text-anchor="middle" stroke-miterlimit="2" stroke-width="3" stroke-dasharray="">-5</text><text fill="#000000" stroke="none" font-family="Arial" font-size="14px" font-style="normal" font-weight="normal" text-decoration="normal" x="147.6689453125" y="215.808" text-anchor="middle">-5</text></g><g class="dcg-svg-axis-value"><text fill="none" stroke="#ffffff" font-family="Arial" font-size="14px" font-style="normal" font-weight="normal" text-decoration="normal" x="450" y="215.808" text-anchor="middle" stroke-miterlimit="2" stroke-width="3" stroke-dasharray="">5</text><text fill="#000000" stroke="none" font-family="Arial" font-size="14px" font-style="normal" font-weight="normal" text-decoration="normal" x="450" y="215.808" text-anchor="middle">5</text></g><g class="dcg-svg-axis-value dcg-svg-offcenter-axis-value"><text fill="none" stroke="#ffffff" font-family="Arial" font-size="14px" font-style="normal" font-weight="normal" text-decoration="normal" x="589.2138671875" y="215.808" text-anchor="middle" stroke-miterlimit="2" stroke-width="3" stroke-dasharray="">10</text><text fill="#000000" stroke="none" font-family="Arial" font-size="14px" font-style="normal" font-weight="normal" text-decoration="normal" x="589.2138671875" y="215.808" text-anchor="middle">10</text></g><g class="dcg-svg-axis-value"><text fill="none" stroke="#ffffff" font-family="Arial" font-size="14px" font-style="normal" font-weight="normal" text-decoration="normal" x="288.77587890625" y="346.6651428571428" text-anchor="middle" stroke-miterlimit="2" stroke-width="3" stroke-dasharray="">-5</text><text fill="#000000" stroke="none" font-family="Arial" font-size="14px" font-style="normal" font-weight="normal" text-decoration="normal" x="288.77587890625" y="346.6651428571428" text-anchor="middle">-5</text></g><g class="dcg-svg-axis-value"><text fill="none" stroke="#ffffff" font-family="Arial" font-size="14px" font-style="normal" font-weight="normal" text-decoration="normal" x="291.10693359375" y="60.95085714285717" text-anchor="middle" stroke-miterlimit="2" stroke-width="3" stroke-dasharray="">5</text><text fill="#000000" stroke="none" font-family="Arial" font-size="14px" font-style="normal" font-weight="normal" text-decoration="normal" x="291.10693359375" y="60.95085714285717" text-anchor="middle">5</text></g></g></g></g><g id="expressions-086fdc2e"><g id="sketch-086fdc2e"><title>Expression 1</title><path fill="#2d70b3" stroke="none" paint-order="stroke fill markers" d="" fill-opacity="0.4"/><g><path fill="none" stroke="#2d70b3" class="dcg-svg-curve" paint-order="fill stroke markers" d=" M 8.412561679945147 -5.5 L 8.412561679945147 -5.5 L 14.587890625 54.067396020762885 L 21.1796875 116.0169488162727 L 25.8671875 157.38208225999043 L 29.822265625 189.75970332370127 L 33.337890625 216.17448731724335 L 36.560546875 238.16182713460037 L 39.490234375 256.1278539147778 L 42.126953125 270.5413249989339 L 44.6171875 282.55493031443234 L 46.9609375 292.3957936039359 L 49.158203125 300.3008422316097 L 51.0625 306.10296972898163 L 52.8203125 310.58731538032384 L 54.578125 314.2323781838327 L 56.189453125 316.8368469666763 L 57.654296875 318.59522814378636 L 59.119140625 319.7769848814942 L 60.291015625 320.3105589749489 L 61.31640625 320.47985926555725 L 62.341796875 320.37405279010494 L 63.3671875 319.99599176677583 L 64.5390625 319.23463564716917 L 65.857421875 317.96457596767857 L 67.322265625 316.04959831156725 L 68.93359375 313.34512305656153 L 70.69140625 309.7012709930569 L 72.595703125 304.9666259275274 L 74.646484375 298.9927501441506 L 76.84375 291.6394838086452 L 79.333984375 282.19441060799295 L 82.1171875 270.36014774345267 L 85.193359375 255.8848628302826 L 88.708984375 237.81294154163723 L 92.810546875 215.09401170366522 L 98.23046875 183.25577517388288 L 113.171875 94.51120691385864 L 117.56640625 70.72092867555881 L 121.228515625 52.432634445916904 L 124.59765625 37.08388512040506 L 127.673828125 24.4602961346676 L 130.45703125 14.281099061521218 L 133.09375 5.791798580335069 L 135.4375 -0.772200631969838 L 137.401106750063 -5.5 L 163.37360883545205 -5.5 L 165.02734375 -1.9837175105645883 L 167.517578125 4.071331936171816 L 170.30078125 11.683346013961227 L 173.376953125 21.016212697582944 L 176.892578125 32.685917390423015 L 181.140625 47.90903624718226 L 186.70703125 69.07779288256461 L 200.76953125 123.08238433588127 L 205.310546875 139.0820497713899 L 209.265625 151.9406028593997 L 212.78125 162.36474329667587 L 216.00390625 170.99074602798575 L 218.93359375 178.0037969478565 L 221.716796875 183.9008704559194 L 224.353515625 188.78081792100124 L 226.84375 192.75006814836323 L 229.333984375 196.09727628252364 L 231.677734375 198.68441927720488 L 234.021484375 200.73536573370538 L 236.21875 202.18392459456211 L 238.123046875 203.08021248642012 L 240.02734375 203.6555860525909 L 241.78515625 203.91372464196232 L 243.54296875 203.9221523358073 L 245.447265625 203.6647442741727 L 247.498046875 203.09775052578377 L 249.6953125 202.1836339523546 L 252.0390625 200.89385366187818 L 254.822265625 198.9951721706147 L 258.19140625 196.2604404296995 L 262.439453125 192.323069982006 L 278.552734375 176.88816203056095 L 281.921875 174.39464887594536 L 284.8515625 172.62347736973337 L 287.48828125 171.3927232777103 L 289.83203125 170.61598012726364 L 292.029296875 170.17713815895453 L 294.080078125 170.03184032135138 L 296.130859375 170.14985117711868 L 298.181640625 170.53659153670895 L 300.232421875 171.19496363699645 L 302.4296875 172.20215157823756 L 304.7734375 173.61739651242783 L 307.263671875 175.49825633400934 L 310.046875 178.04271445510884 L 313.26953125 181.53633742265455 L 316.638671875 185.75811250525612 L 320.447265625 191.13230265556098 L 324.98828125 198.18993871911306 L 331.43359375 208.91477675116772 L 340.076171875 223.2062083155156 L 344.32421875 229.58446223733165 L 347.83984375 234.28425643441233 L 351.0625 238.00187201725626 L 353.9921875 240.80255350037623 L 356.482421875 242.6949003027143 L 358.6796875 243.9586625839926 L 360.583984375 244.72640409466317 L 362.341796875 245.15232355126054 L 364.10440491659955 245.29676981327123 L 365.7109375 245.17469963487437 L 367.322265625 244.80355990220488 L 369.080078125 244.1093998525078 L 370.837890625 243.10915308263017 L 372.7421875 241.67685897611554 L 374.939453125 239.57174247079237 L 377.283203125 236.7934485809194 L 379.7734375 233.24605361266288 L 382.263671875 229.09906205047005 L 384.900390625 224.0776839795094 L 387.830078125 217.7771275152591 L 390.90625 210.4045467030063 L 394.421875 201.13024275087986 L 398.376953125 189.78411898557457 L 403.2109375 174.93496184163098 L 412.439453125 145.30853935496415 L 418.298828125 127.07117823836808 L 422.400390625 115.24986167149837 L 425.76953125 106.41516757282386 L 428.69921875 99.53881476396123 L 431.3359375 94.09894789808777 L 433.826171875 89.69318641674442 L 436.0234375 86.45186464220092 L 438.07421875 84.01368222475259 L 439.978515625 82.2868969897429 L 441.58984375 81.24853382330207 L 443.0546875 80.65308470692236 L 444.373046875 80.40902866445094 L 445.69140625 80.44796723676717 L 447.009765625 80.77558779597433 L 448.328125 81.3969855475753 L 449.79296875 82.43741339262255 L 451.404296875 84.01338682309057 L 453.162109375 86.25449200612155 L 455.06640625 89.30267783596975 L 456.970703125 92.99964224488485 L 459.021484375 97.70734142405354 L 461.21875 103.58360100549766 L 463.5625 110.7902993680301 L 466.052734375 119.4889431900126 L 468.689453125 129.83500230634291 L 471.47265625 141.97088534011357 L 474.548828125 156.75239915285488 L 477.91796875 174.45779103195918 L 481.7265625 196.1629533817958 L 486.12109375 223.0597759984086 L 491.541015625 258.21854804893434 L 509.412109375 375.81690148549393 L 513.513671875 399.96647415481 L 514.5392927662839 405.5 L 564.3223980276971 405.5 L 565.076171875 400.92915530687463 L 568.15234375 380.3932272006983 L 571.521484375 355.8596241550405 L 575.330078125 325.9125121865217 L 579.87109375 287.7691670338299 L 586.0234375 233.36788599806812 L 598.03515625 126.72629651129967 L 599.5 114.38527625509795" stroke-linecap="round" stroke-linejoin="round" stroke-miterlimit="10" stroke-width="2.5" stroke-opacity="0.9" stroke-dasharray=""/></g></g></g><g id="labels-086fdc2e"/></g></svg>