<svg version="1.1" xmlns="http://www.w3.org/2000/svg" xmlns:xlink="http://www.w3.org/1999/xlink" width="600" height="400"><defs/><g transform="scale(1,1)"><g id="background-fe8f6404"><rect fill="white" stroke="none" x="0" y="0" width="600" height="400" class="dcg-svg-background"/></g><g id="background-images-fe8f6404"/><g id="graphpaper-fe8f6404"><g id="grid-fe8f6404"><g><path fill="none" stroke="rgb(0,0,0)" class="dcg-svg-minor-gridline" paint-order="fill stroke markers" d=" M -0.5 0 L -0.5 400" stroke-opacity="0.12" stroke-miterlimit="10" stroke-dasharray=""/><path fill="none" stroke="rgb(0,0,0)" class="dcg-svg-minor-gridline" paint-order="fill stroke markers" d=" M 29.5 0 L 29.5 400" stroke-opacity="0.12" stroke-miterlimit="10" stroke-dasharray=""/><path fill="none" stroke="rgb(0,0,0)" class="dcg-svg-minor-gridline" paint-order="fill stroke markers" d=" M 59.5 0 L 59.5 400" stroke-opacity="0.12" stroke-miterlimit="10" stroke-dasharray=""/><path fill="none" stroke="rgb(0,0,0)" class="dcg-svg-minor-gridline" paint-order="fill stroke markers" d=" M 89.5 0 L 89.5 400" stroke-opacity="0.12" stroke-miterlimit="10" stroke-dasharray=""/><path fill="none" stroke="rgb(0,0,0)" class="dcg-svg-minor-gridline" paint-order="fill stroke markers" d=" M 119.5 0 L 119.5 400" stroke-opacity="0.12" stroke-miterlimit="10" stroke-dasharray=""/><path fill="none" stroke="rgb(0,0,0)" class="dcg-svg-minor-gridline" paint-order="fill stroke markers" d=" M 149.5 0 L 149.5 400" stroke-opacity="0.12" stroke-miterlimit="10" stroke-dasharray=""/><path fill="none" stroke="rgb(0,0,0)" class="dcg-svg-minor-gridline" paint-order="fill stroke markers" d=" M 179.5 0 L 179.5 400" stroke-opacity="0.12" stroke-miterlimit="10" stroke-dasharray=""/><path fill="none" stroke="rgb(0,0,0)" class="dcg-svg-minor-gridline" paint-order="fill stroke markers" d=" M 209.5 0 L 209.5 400" stroke-opacity="0.12" stroke-miterlimit="10" stroke-dasharray=""/><path fill="none" stroke="rgb(0,0,0)" class="dcg-svg-minor-gridline" paint-order="fill stroke markers" d=" M 239.5 0 L 239.5 400" stroke-opacity="0.12" stroke-miterlimit="10" stroke-dasharray=""/><path fill="none" stroke="rgb(0,0,0)" class="dcg-svg-minor-gridline" paint-order="fill stroke markers" d=" M 269.5 0 L 269.5 400" stroke-opacity="0.12" stroke-miterlimit="10" stroke-dasharray=""/><path fill="none" stroke="rgb(0,0,0)" class="dcg-svg-minor-gridline" paint-order="fill stroke markers" d=" M 329.5 0 L 329.5 400" stroke-opacity="0.12" stroke-miterlimit="10" stroke-dasharray=""/><path fill="none" stroke="rgb(0,0,0)" class="dcg-svg-minor-gridline" paint-order="fill stroke markers" d=" M 359.5 0 L 359.5 400" stroke-opacity="0.12" stroke-miterlimit="10" stroke-dasharray=""/><path fill="none" stroke="rgb(0,0,0)" class="dcg-svg-minor-gridline" paint-order="fill stroke markers" d=" M 389.5 0 L 389.5 400" stroke-opacity="0.12" stroke-miterlimit="10" stroke-dasharray=""/><path fill="none" stroke="rgb(0,0,0)" class="dcg-svg-minor-gridline" paint-order="fill stroke markers" d=" M 419.5 0 L 419.5 400" stroke-opacity="0.12" stroke-miterlimit="10" stroke-dasharray=""/><path fill="none" stroke="rgb(0,0,0)" class="dcg-svg-minor-gridline" paint-order="fill stroke markers" d=" M 449.5 0 L 449.5 400" stroke-opacity="0.12" stroke-miterlimit="10" stroke-dasharray=""/><path fill="none" stroke="rgb(0,0,0)" class="dcg-svg-minor-gridline" paint-order="fill stroke markers" d=" M 479.5 0 L 479.5 400" stroke-opacity="0.12" stroke-miterlimit="10" stroke-dasharray=""/><path fill="none" stroke="rgb(0,0,0)" class="dcg-svg-minor-gridline" paint-order="fill stroke markers" d=" M 509.5 0 L 509.5 400" stroke-opacity="0.12" stroke-miterlimit="10" stroke-dasharray=""/><path fill="none" stroke="rgb(0,0,0)" class="dcg-svg-minor-gridline" paint-order="fill stroke markers" d=" M 539.5 0 L 539.5 400" stroke-opacity="0.12" stroke-miterlimit="10" stroke-dasharray=""/><path fill="none" stroke="rgb(0,0,0)" class="dcg-svg-minor-gridline" paint-order="fill stroke markers" d=" M 569.5 0 L 569.5 400" stroke-opacity="0.12" stroke-miterlimit="10" stroke-dasharray=""/><path fill="none" stroke="rgb(0,0,0)" class="dcg-svg-minor-gridline" paint-order="fill stroke markers" d=" M 0 370.5 L 600 370.5" stroke-opacity="0.12" stroke-miterlimit="10" stroke-dasharray=""/><path fill="none" stroke="rgb(0,0,0)" class="dcg-svg-minor-gridline" paint-order="fill stroke markers" d=" M 0 313.5 L 600 313.5" stroke-opacity="0.12" stroke-miterlimit="10" stroke-dasharray=""/><path fill="none" stroke="rgb(0,0,0)" class="dcg-svg-minor-gridline" paint-order="fill stroke markers" d=" M 0 285.5 L 600 285.5" stroke-opacity="0.12" stroke-miterlimit="10" stroke-dasharray=""/><path fill="none" stroke="rgb(0,0,0)" class="dcg-svg-minor-gridline" paint-order="fill stroke markers" d=" M 0 256.5 L 600 256.5" stroke-opacity="0.12" stroke-miterlimit="10" stroke-dasharray=""/><path fill="none" stroke="rgb(0,0,0)" class="dcg-svg-minor-gridline" paint-order="fill stroke markers" d=" M 0 228.5 L 600 228.5" stroke-opacity="0.12" stroke-miterlimit="10" stroke-dasharray=""/><path fill="none" stroke="rgb(0,0,0)" class="dcg-svg-minor-gridline" paint-order="fill stroke markers" d=" M 0 199.5 L 600 199.5" stroke-opacity="0.12" stroke-miterlimit="10" stroke-dasharray=""/><path fill="none" stroke="rgb(0,0,0)" class="dcg-svg-minor-gridline" paint-order="fill stroke markers" d=" M 0 170.5 L 600 170.5" stroke-opacity="0.12" stroke-miterlimit="10" stroke-dasharray=""/><path fill="none" stroke="rgb(0,0,0)" class="dcg-svg-minor-gridline" paint-order="fill stroke markers" d=" M 0 142.5 L 600 142.5" stroke-opacity="0.12" stroke-miterlimit="10" stroke-dasharray=""/><path fill="none" stroke="rgb(0,0,0)" class="dcg-svg-minor-gridline" paint-order="fill stroke markers" d=" M 0 113.5 L 600 113.5" stroke-opacity="0.12" stroke-miterlimit="10" stroke-dasharray=""/><path fill="none" stroke="rgb(0,0,0)" class="dcg-svg-minor-gridline" paint-order="fill stroke markers" d=" M 0 85.5 L 600 85.5" stroke-opacity="0.12" stroke-miterlimit="10" stroke-dasharray=""/><path fill="none" stroke="rgb(0,0,0)" class="dcg-svg-minor-gridline" paint-order="fill stroke markers" d=" M 0 56.5 L 600 56.5" stroke-opacity="0.12" stroke-miterlimit="10" stroke-dasharray=""/><path fill="none" stroke="rgb(0,0,0)" class="dcg-svg-minor-gridline" paint-order="fill stroke markers" d=" M 0 28.5 L 600 28.5" stroke-opacity="0.12" stroke-miterlimit="10" stroke-dasharray=""/><path fill="none" stroke="rgb(0,0,0)" class="dcg-svg-minor-gridline" paint-order="fill stroke markers" d=" M 0 -0.5 L 600 -0.5" stroke-opacity="0.12" stroke-miterlimit="10" stroke-dasharray=""/><path fill="none" stroke="rgb(0,0,0)" class="dcg-svg-major-gridline" paint-order="fill stroke markers" d=" M -0.5 0 L -0.5 400" stroke-opacity="0.31818181818181823" stroke-miterlimit="10" stroke-dasharray=""/><path fill="none" stroke="rgb(0,0,0)" class="dcg-svg-major-gridline" paint-order="fill stroke markers" d=" M 149.5 0 L 149.5 400" stroke-opacity="0.31818181818181823" stroke-miterlimit="10" stroke-dasharray=""/><path fill="none" stroke="rgb(0,0,0)" class="dcg-svg-major-gridline" paint-order="fill stroke markers" d=" M 449.5 0 L 449.5 400" stroke-opacity="0.31818181818181823" stroke-miterlimit="10" stroke-dasharray=""/><path fill="none" stroke="rgb(0,0,0)" class="dcg-svg-major-gridline" paint-order="fill stroke markers" d=" M 0 199.5 L 600 199.5" stroke-opacity="0.31818181818181823" stroke-miterlimit="10" stroke-dasharray=""/><path fill="none" stroke="rgb(0,0,0)" class="dcg-svg-major-gridline" paint-order="fill stroke markers" d=" M 0 56.5 L 600 56.5" stroke-opacity="0.31818181818181823" stroke-miterlimit="10" stroke-dasharray=""/></g></g><g id="axis-fe8f6404"><g id="yaxis-fe8f6404"><title>Y axis</title><path fill="none" stroke="rgb(0,0,0)" class="dcg-svg-axis-line" paint-order="fill stroke markers" d=" M 299.75 0 L 299.75 400" stroke-opacity="0.9" stroke-miterlimit="10" stroke-width="1.5" stroke-dasharray=""/></g><g id="xaxis-fe8f6404"><title>X axis</title><path fill="none" stroke="rgb(0,0,0)" class="dcg-svg-axis-line" paint-order="fill stroke markers" d=" M 0 342.75 L 600 342.75" stroke-opacity="0.9" stroke-miterlimit="10" stroke-width="1.5" stroke-dasharray=""/></g><g/></g></g><g id="expressions-fe8f6404"><g id="sketch-fe8f6404"><title>Expression 1</title><path fill="#2d70b3" stroke="none" paint-order="stroke fill markers" d="" fill-opacity="0.4"/><g><path fill="none" stroke="#2d70b3" class="dcg-svg-curve" paint-order="fill stroke markers" d=" M 132.25042755504063 405.5 L 132.25042755504063 405.5 L 134.412109375 386.7748487443199 L 137.78125 360.10007129396706 L 141.00390625 336.8250766411989 L 144.2265625 315.6379540937819 L 147.44921875 296.43992379595454 L 150.525390625 279.8811506415253 L 153.6015625 264.9641606246254 L 156.53125 252.20998761767433 L 159.4609375 240.80339125570438 L 162.244140625 231.1543330956673 L 165.02734375 222.60480728421157 L 167.6640625 215.46955458101414 L 170.30078125 209.22575563480075 L 172.791015625 204.1068016616984 L 175.28125 199.70567519324163 L 177.771484375 195.9859272807838 L 180.115234375 193.07541915793433 L 182.458984375 190.70763372185525 L 184.802734375 188.85393945568126 L 187 187.55803571428567 L 189.05078125 186.71391949345286 L 190.955078125 186.22978567039013 L 192.859375 186.01964604145002 L 194.763671875 186.0695230026609 L 196.814453125 186.3982810841598 L 198.865234375 186.99584905591678 L 201.0625 187.915663582938 L 203.552734375 189.28321430261397 L 206.3359375 191.18704804698268 L 209.412109375 193.70774751480553 L 212.927734375 197.06170775729382 L 217.029296875 201.52029537882652 L 221.716796875 207.20146383867018 L 227.283203125 214.554295479084 L 234.900390625 225.2651410578286 L 251.16015625 248.2820458752269 L 257.458984375 256.4910338991013 L 262.87890625 262.9714559140515 L 267.712890625 268.1940952173591 L 272.25390625 272.5536675766675 L 276.35546875 275.99177485797 L 280.1640625 278.7298799447183 L 283.6796875 280.84923750933785 L 286.90234375 282.4350693881722 L 289.978515625 283.6218099452557 L 292.908203125 284.4494202404717 L 295.69140625 284.9586237219683 L 298.474609375 285.19574291356855 L 301.2578125 285.15979752290457 L 304.041015625 284.850936079123 L 306.82421875 284.2704359328851 L 309.607421875 283.42070325636655 L 312.537109375 282.2392894744099 L 315.61328125 280.6879761471313 L 318.8359375 278.7298799447183 L 322.3515625 276.2182626162788 L 326.16015625 273.07475752484913 L 330.26171875 269.22688771326955 L 334.94921875 264.28902761854914 L 339.9296875 258.48035938319344 L 345.49609375 251.40987333951935 L 352.087890625 242.435115608123 L 362.48828125 227.57914002208102 L 372.44921875 213.5572704062963 L 378.30859375 205.91277098703927 L 382.99609375 200.35614460861373 L 387.09765625 196.03531620930323 L 390.759765625 192.69895667610706 L 393.982421875 190.238125271959 L 396.765625 188.51779023664335 L 399.255859375 187.3301388747526 L 401.453125 186.58170365009985 L 403.50390625 186.15502755001873 L 405.56601717798213 186.00793650793645 L 407.458984375 186.1365983062115 L 409.36328125 186.53492262076384 L 411.267578125 187.2170628536727 L 413.171875 188.19741527097563 L 415.22265625 189.60348498496955 L 417.419921875 191.5337827622504 L 419.763671875 194.1017034602586 L 422.107421875 197.223230014552 L 424.451171875 200.92777447901085 L 426.794921875 205.24531657079896 L 429.28515625 210.53854655008206 L 431.775390625 216.59562801294976 L 434.265625 223.45462702427588 L 436.90234375 231.63427899879335 L 439.5390625 240.80339125570438 L 442.322265625 251.60821489924584 L 445.10546875 263.6261659827294 L 448.03515625 277.6515360963697 L 450.96484375 293.15548473946365 L 454.041015625 311.10361117105947 L 457.1171875 330.84390168734603 L 460.33984375 353.5395644647235 L 463.5625 378.3962137131463 L 466.7832390392879 405.5" stroke-linecap="round" stroke-linejoin="round" stroke-miterlimit="10" stroke-width="2.5" stroke-opacity="0.9" stroke-dasharray=""/></g></g><g id="sketch-fe8f6404"><title>Expression 2</title><path fill="#388c46" stroke="none" paint-order="stroke fill markers" d="" fill-opacity="0.4"/><path fill="#388c46" stroke="none" paint-order="stroke fill markers" d="" fill-opacity="0.4"/><path fill="#388c46" stroke="none" class="dcg-svg-region" paint-order="stroke fill markers" d=" M 140.21057993756241 342.35714285714283 L 458.78942006243756 342.35714285714283 L 458.78942006243756 342.3571428571428 L 457.1171875 330.84390168734603 L 454.041015625 311.10361117105947 L 450.96484375 293.15548473946365 L 448.03515625 277.6515360963697 L 445.10546875 263.6261659827294 L 442.322265625 251.60821489924584 L 439.5390625 240.80339125570438 L 436.90234375 231.63427899879335 L 434.265625 223.45462702427588 L 431.775390625 216.59562801294976 L 429.28515625 210.53854655008206 L 426.794921875 205.24531657079896 L 424.451171875 200.92777447901085 L 422.107421875 197.223230014552 L 419.763671875 194.1017034602586 L 417.419921875 191.5337827622504 L 415.22265625 189.60348498496955 L 413.171875 188.19741527097563 L 411.267578125 187.2170628536727 L 409.36328125 186.53492262076384 L 407.458984375 186.1365983062115 L 405.56601717798213 186.00793650793645 L 403.50390625 186.15502755001873 L 401.453125 186.58170365009985 L 399.255859375 187.3301388747526 L 396.765625 188.51779023664335 L 393.982421875 190.238125271959 L 390.759765625 192.69895667610706 L 387.09765625 196.03531620930323 L 382.99609375 200.35614460861373 L 378.30859375 205.91277098703927 L 372.44921875 213.5572704062963 L 358.6796875 233.06092972902667 L 350.18359375 245.08124263490924 L 343.884765625 253.51196338823084 L 338.46484375 260.24409715684374 L 333.484375 265.8905796195779 L 328.943359375 270.5139358346818 L 324.841796875 274.2111733147643 L 321.1796875 277.0980475735629 L 317.810546875 279.38923944884016 L 314.587890625 281.24001333618867 L 311.51171875 282.6859579884968 L 308.58203125 283.76488687580866 L 305.798828125 284.51577998823836 L 303.015625 284.99642275486667 L 300.232421875 285.2048248851286 L 297.44921875 285.14012490997334 L 294.666015625 284.80259018186496 L 291.8828125 284.19361687478204 L 288.953125 283.26214046563416 L 285.876953125 281.9681372108638 L 282.654296875 280.2725112528974 L 279.138671875 278.0371324808217 L 275.330078125 275.17870427667776 L 271.08203125 271.4824539762201 L 266.39453125 266.82650078996636 L 261.4140625 261.2808685394092 L 255.84765625 254.45330080420462 L 231.091796875 219.84612994160676 L 224.646484375 211.00347469262795 L 219.51953125 204.46987541680153 L 215.125 199.38359723772317 L 211.31640625 195.4661145804039 L 207.947265625 192.45589215553693 L 205.017578125 190.238125271959 L 202.380859375 188.59830336230823 L 200.037109375 187.45164494159025 L 197.83984375 186.66450257523405 L 195.7890625 186.19925686637202 L 193.884765625 186.0150738069479 L 191.98046875 186.0834834052726 L 190.076171875 186.4183300546605 L 188.171875 187.03370553964655 L 186.12109375 188.02659787392307 L 183.923828125 189.49062352993076 L 181.580078125 191.5337827622504 L 179.236328125 194.1017034602586 L 176.892578125 197.223230014552 L 174.40234375 201.1793478389791 L 171.912109375 205.8296259461172 L 169.421875 211.21076861875395 L 166.78515625 217.74667283674765 L 164.1484375 225.18923610794752 L 161.365234375 234.0799760765398 L 158.58203125 244.0878842755475 L 155.65234375 255.89166199765714 L 152.72265625 269.0633682576174 L 149.646484375 284.44112684412744 L 146.5703125 301.4840462199811 L 143.34765625 321.2148757338734 L 140.21057993756241 342.3571428571428" fill-opacity="0.4"/><g><path fill="none" stroke="#388c46" class="dcg-svg-curve" paint-order="fill stroke markers" d=" M 140.21057993756241 342.35714285714283 L 151.21057993756241 342.35714285714283 M 158.21057993756241 342.35714285714283 L 169.21057993756241 342.35714285714283 M 176.21057993756241 342.35714285714283 L 187.21057993756241 342.35714285714283 M 194.21057993756241 342.35714285714283 L 205.21057993756241 342.35714285714283 M 212.21057993756241 342.35714285714283 L 223.21057993756241 342.35714285714283 M 230.21057993756241 342.35714285714283 L 241.21057993756241 342.35714285714283 M 248.21057993756241 342.35714285714283 L 259.21057993756244 342.35714285714283 M 266.21057993756244 342.35714285714283 L 277.21057993756244 342.35714285714283 M 284.21057993756244 342.35714285714283 L 295.21057993756244 342.35714285714283 M 302.21057993756244 342.35714285714283 L 313.21057993756244 342.35714285714283 M 320.21057993756244 342.35714285714283 L 331.21057993756244 342.35714285714283 M 338.21057993756244 342.35714285714283 L 349.21057993756244 342.35714285714283 M 356.21057993756244 342.35714285714283 L 367.21057993756244 342.35714285714283 M 374.21057993756244 342.35714285714283 L 385.21057993756244 342.35714285714283 M 392.21057993756244 342.35714285714283 L 403.21057993756244 342.35714285714283 M 410.21057993756244 342.35714285714283 L 421.21057993756244 342.35714285714283 M 428.21057993756244 342.35714285714283 L 439.21057993756244 342.35714285714283 M 446.21057993756244 342.35714285714283 L 457.21057993756244 342.35714285714283" stroke-linecap="round" stroke-linejoin="round" stroke-miterlimit="10" stroke-width="2.5" stroke-opacity="0.9" stroke-dasharray=""/></g><g><path fill="none" stroke="#388c46" class="dcg-svg-curve" paint-order="fill stroke markers" d=" M 140.21057993756241 342.3571428571428 L 141.825077049542 331.4762697728995 M 142.8524843026199 324.55207781019925 L 143.34765625 321.2148757338734 M 143.34765625 321.2148757338734 L 144.5769718683055 313.6883463736444 M 145.70533726427237 306.77988840292585 L 146.5703125 301.4840462199811 M 146.5703125 301.4840462199811 L 147.57105110203028 295.9396527323101 M 148.8144288048461 289.0509654924842 L 149.646484375 284.44112684412744 M 149.646484375 284.44112684412744 L 150.885329702967 278.2481489632987 M 152.25840881462835 271.3841374719681 L 152.72265625 269.0633682576174 M 152.72265625 269.0633682576174 L 154.5970821664839 260.63605729766607 M 156.16776802865598 253.81500582943647 L 158.58203125 244.0878842755475 M 158.58203125 244.0878842755475 L 158.84400127717598 243.14588620170278 M 160.71952807328168 236.40182220162913 L 161.365234375 234.0799760765398 M 161.365234375 234.0799760765398 L 163.93149973851934 225.8822280097488 M 166.2435155450281 219.27554094868066 L 166.78515625 217.74667283674765 M 166.78515625 217.74667283674765 L 169.421875 211.21076861875395 M 169.421875 211.21076861875395 L 170.400555542856 209.09593971553406 M 173.51758796816586 202.83154591468318 L 174.40234375 201.1793478389791 M 174.40234375 201.1793478389791 L 176.892578125 197.223230014552 M 176.892578125 197.223230014552 L 179.236328125 194.1017034602586 M 179.236328125 194.1017034602586 L 179.60556476110273 193.69715075612586 M 184.72418460318306 188.9573505361333 L 186.12109375 188.02659787392307 M 186.12109375 188.02659787392307 L 188.171875 187.03370553964655 M 188.171875 187.03370553964655 L 190.076171875 186.4183300546605 M 190.076171875 186.4183300546605 L 191.98046875 186.0834834052726 M 191.98046875 186.0834834052726 L 193.884765625 186.0150738069479 M 193.884765625 186.0150738069479 L 195.08180211049455 186.13085083994895 M 201.70117448651487 188.26577369796 L 202.380859375 188.59830336230823 M 202.380859375 188.59830336230823 L 205.017578125 190.238125271959 M 205.017578125 190.238125271959 L 207.947265625 192.45589215553693 M 207.947265625 192.45589215553693 L 210.53028912871653 194.7637433675492 M 215.44019322317902 199.74840529620468 L 219.51953125 204.46987541680153 M 219.51953125 204.46987541680153 L 222.45823998869557 208.21485704992426 M 226.68175236515023 213.79576337935654 L 231.091796875 219.84612994160676 M 231.091796875 219.84612994160676 L 233.1356688638392 222.70333744418554 M 237.20830603902706 228.39663406734488 L 243.60816445717947 237.34324304659526 M 247.68080163236735 243.0365396697546 L 254.08066005051975 251.98314864900502 M 258.3517839526682 257.524780092582 L 261.4140625 261.2808685394092 M 261.4140625 261.2808685394092 L 265.5258936681588 265.8592937197675 M 270.43861961308977 270.8433724912185 L 271.08203125 271.4824539762201 M 271.08203125 271.4824539762201 L 275.330078125 275.17870427667776 M 275.330078125 275.17870427667776 L 278.89889372362927 277.8571740301165 M 284.8969004634203 281.45247478700196 L 285.876953125 281.9681372108638 M 285.876953125 281.9681372108638 L 288.953125 283.26214046563416 M 288.953125 283.26214046563416 L 291.8828125 284.19361687478204 M 291.8828125 284.19361687478204 L 294.666015625 284.80259018186496 M 294.666015625 284.80259018186496 L 295.293478984985 284.8786861996899 M 302.27122427086846 285.05216237959115 L 303.015625 284.99642275486667 M 303.015625 284.99642275486667 L 305.798828125 284.51577998823836 M 305.798828125 284.51577998823836 L 308.58203125 283.76488687580866 M 308.58203125 283.76488687580866 L 311.51171875 282.6859579884968 M 311.51171875 282.6859579884968 L 312.8007695967727 282.0800438022343 M 318.8929656189852 278.6531380782223 L 321.1796875 277.0980475735629 M 321.1796875 277.0980475735629 L 324.841796875 274.2111733147643 M 324.841796875 274.2111733147643 L 327.4945535866295 271.8199208250663 M 332.4816383022944 266.91149857830754 L 333.484375 265.8905796195779 M 333.484375 265.8905796195779 L 338.46484375 260.24409715684374 M 338.46484375 260.24409715684374 L 339.7440579502831 258.65517367904636 M 344.1224503112276 253.19383227286147 L 350.18359375 245.08124263490924 M 350.18359375 245.08124263490924 L 350.68761003254616 244.36815805696838 M 354.7279360450794 238.65188604520694 L 358.6796875 233.06092972902667 M 358.6796875 233.06092972902667 L 361.07517751995164 229.667871504177 M 365.1123986948855 223.9494062218949 L 371.456603398353 214.96324649259446 M 375.660605216726 209.36749897506056 L 378.30859375 205.91277098703927 M 378.30859375 205.91277098703927 L 382.5946883011289 200.83197609781715 M 387.4080720249279 195.7525123594223 L 390.759765625 192.69895667610706 M 390.759765625 192.69895667610706 L 393.982421875 190.238125271959 M 393.982421875 190.238125271959 L 396.0333750462824 188.97040371593752 M 402.48990033587705 186.36599694955717 L 403.50390625 186.15502755001873 M 403.50390625 186.15502755001873 L 405.56601717798213 186.00793650793645 M 405.56601717798213 186.00793650793645 L 407.458984375 186.1365983062115 M 407.458984375 186.1365983062115 L 409.36328125 186.53492262076384 M 409.36328125 186.53492262076384 L 411.267578125 187.2170628536727 M 411.267578125 187.2170628536727 L 413.07360213070297 188.14682334582182 M 418.4164456774308 192.62562024420018 L 419.763671875 194.1017034602586 M 419.763671875 194.1017034602586 L 422.107421875 197.223230014552 M 422.107421875 197.223230014552 L 424.451171875 200.92777447901085 M 424.451171875 200.92777447901085 L 424.79198547499306 201.55560469273837 M 427.9876037179545 207.7804752491356 L 429.28515625 210.53854655008206 M 429.28515625 210.53854655008206 L 431.775390625 216.59562801294976 M 431.775390625 216.59562801294976 L 432.25416658576273 217.91434880264174 M 434.60491434208063 224.50717338967138 L 436.90234375 231.63427899879335 M 436.90234375 231.63427899879335 L 437.87287131244983 235.0092601827095 M 439.7812891090389 241.74375229832083 L 442.322265625 251.60821489924584 M 442.322265625 251.60821489924584 L 442.5058108545695 252.40076847564828 M 444.0851227602837 259.2202826742162 L 445.10546875 263.6261659827294 M 445.10546875 263.6261659827294 L 446.4299359195598 269.96682253959494 M 447.861237430382 276.81892995156085 L 448.03515625 277.6515360963697 M 448.03515625 277.6515360963697 L 449.91968083436467 287.62446746623004 M 451.19646247144567 294.5068793511291 L 453.0546831190331 305.34878951608067 M 454.21982008442717 312.2510281939459 L 455.91353230260955 323.1198523677919 M 456.99134916872566 330.03637684205756 L 457.1171875 330.84390168734603 M 457.1171875 330.84390168734603 L 458.5808131048347 340.92089393667084" stroke-linecap="round" stroke-linejoin="round" stroke-miterlimit="10" stroke-width="2.5" stroke-opacity="0.9" stroke-dasharray=""/></g></g></g><g id="labels-fe8f6404"/></g></svg>