<svg version="1.1" xmlns="http://www.w3.org/2000/svg" xmlns:xlink="http://www.w3.org/1999/xlink" width="600" height="400"><defs/><g transform="scale(1,1)"><g id="background-a985befa"><rect fill="white" stroke="none" x="0" y="0" width="600" height="400" class="dcg-svg-background"/></g><g id="background-images-a985befa"/><g id="graphpaper-a985befa"><g id="grid-a985befa"><g><path fill="none" stroke="rgb(0,0,0)" class="dcg-svg-minor-gridline" paint-order="fill stroke markers" d=" M -0.5 0 L -0.5 400" stroke-opacity="0.12" stroke-miterlimit="10" stroke-dasharray=""/><path fill="none" stroke="rgb(0,0,0)" class="dcg-svg-minor-gridline" paint-order="fill stroke markers" d=" M 29.5 0 L 29.5 400" stroke-opacity="0.12" stroke-miterlimit="10" stroke-dasharray=""/><path fill="none" stroke="rgb(0,0,0)" class="dcg-svg-minor-gridline" paint-order="fill stroke markers" d=" M 59.5 0 L 59.5 400" stroke-opacity="0.12" stroke-miterlimit="10" stroke-dasharray=""/><path fill="none" stroke="rgb(0,0,0)" class="dcg-svg-minor-gridline" paint-order="fill stroke markers" d=" M 89.5 0 L 89.5 400" stroke-opacity="0.12" stroke-miterlimit="10" stroke-dasharray=""/><path fill="none" stroke="rgb(0,0,0)" class="dcg-svg-minor-gridline" paint-order="fill stroke markers" d=" M 119.5 0 L 119.5 400" stroke-opacity="0.12" stroke-miterlimit="10" stroke-dasharray=""/><path fill="none" stroke="rgb(0,0,0)" class="dcg-svg-minor-gridline" paint-order="fill stroke markers" d=" M 149.5 0 L 149.5 400" stroke-opacity="0.12" stroke-miterlimit="10" stroke-dasharray=""/><path fill="none" stroke="rgb(0,0,0)" class="dcg-svg-minor-gridline" paint-order="fill stroke markers" d=" M 179.5 0 L 179.5 400" stroke-opacity="0.12" stroke-miterlimit="10" stroke-dasharray=""/><path fill="none" stroke="rgb(0,0,0)" class="dcg-svg-minor-gridline" paint-order="fill stroke markers" d=" M 209.5 0 L 209.5 400" stroke-opacity="0.12" stroke-miterlimit="10" stroke-dasharray=""/><path fill="none" stroke="rgb(0,0,0)" class="dcg-svg-minor-gridline" paint-order="fill stroke markers" d=" M 239.5 0 L 239.5 400" stroke-opacity="0.12" stroke-miterlimit="10" stroke-dasharray=""/><path fill="none" stroke="rgb(0,0,0)" class="dcg-svg-minor-gridline" paint-order="fill stroke markers" d=" M 269.5 0 L 269.5 400" stroke-opacity="0.12" stroke-miterlimit="10" stroke-dasharray=""/><path fill="none" stroke="rgb(0,0,0)" class="dcg-svg-minor-gridline" paint-order="fill stroke markers" d=" M 329.5 0 L 329.5 400" stroke-opacity="0.12" stroke-miterlimit="10" stroke-dasharray=""/><path fill="none" stroke="rgb(0,0,0)" class="dcg-svg-minor-gridline" paint-order="fill stroke markers" d=" M 359.5 0 L 359.5 400" stroke-opacity="0.12" stroke-miterlimit="10" stroke-dasharray=""/><path fill="none" stroke="rgb(0,0,0)" class="dcg-svg-minor-gridline" paint-order="fill stroke markers" d=" M 389.5 0 L 389.5 400" stroke-opacity="0.12" stroke-miterlimit="10" stroke-dasharray=""/><path fill="none" stroke="rgb(0,0,0)" class="dcg-svg-minor-gridline" paint-order="fill stroke markers" d=" M 419.5 0 L 419.5 400" stroke-opacity="0.12" stroke-miterlimit="10" stroke-dasharray=""/><path fill="none" stroke="rgb(0,0,0)" class="dcg-svg-minor-gridline" paint-order="fill stroke markers" d=" M 449.5 0 L 449.5 400" stroke-opacity="0.12" stroke-miterlimit="10" stroke-dasharray=""/><path fill="none" stroke="rgb(0,0,0)" class="dcg-svg-minor-gridline" paint-order="fill stroke markers" d=" M 479.5 0 L 479.5 400" stroke-opacity="0.12" stroke-miterlimit="10" stroke-dasharray=""/><path fill="none" stroke="rgb(0,0,0)" class="dcg-svg-minor-gridline" paint-order="fill stroke markers" d=" M 509.5 0 L 509.5 400" stroke-opacity="0.12" stroke-miterlimit="10" stroke-dasharray=""/><path fill="none" stroke="rgb(0,0,0)" class="dcg-svg-minor-gridline" paint-order="fill stroke markers" d=" M 539.5 0 L 539.5 400" stroke-opacity="0.12" stroke-miterlimit="10" stroke-dasharray=""/><path fill="none" stroke="rgb(0,0,0)" class="dcg-svg-minor-gridline" paint-order="fill stroke markers" d=" M 569.5 0 L 569.5 400" stroke-opacity="0.12" stroke-miterlimit="10" stroke-dasharray=""/><path fill="none" stroke="rgb(0,0,0)" class="dcg-svg-minor-gridline" paint-order="fill stroke markers" d=" M 0 394.5 L 600 394.5" stroke-opacity="0.12" stroke-miterlimit="10" stroke-dasharray=""/><path fill="none" stroke="rgb(0,0,0)" class="dcg-svg-minor-gridline" paint-order="fill stroke markers" d=" M 0 364.5 L 600 364.5" stroke-opacity="0.12" stroke-miterlimit="10" stroke-dasharray=""/><path fill="none" stroke="rgb(0,0,0)" class="dcg-svg-minor-gridline" paint-order="fill stroke markers" d=" M 0 334.5 L 600 334.5" stroke-opacity="0.12" stroke-miterlimit="10" stroke-dasharray=""/><path fill="none" stroke="rgb(0,0,0)" class="dcg-svg-minor-gridline" paint-order="fill stroke markers" d=" M 0 304.5 L 600 304.5" stroke-opacity="0.12" stroke-miterlimit="10" stroke-dasharray=""/><path fill="none" stroke="rgb(0,0,0)" class="dcg-svg-minor-gridline" paint-order="fill stroke markers" d=" M 0 274.5 L 600 274.5" stroke-opacity="0.12" stroke-miterlimit="10" stroke-dasharray=""/><path fill="none" stroke="rgb(0,0,0)" class="dcg-svg-minor-gridline" paint-order="fill stroke markers" d=" M 0 244.5 L 600 244.5" stroke-opacity="0.12" stroke-miterlimit="10" stroke-dasharray=""/><path fill="none" stroke="rgb(0,0,0)" class="dcg-svg-minor-gridline" paint-order="fill stroke markers" d=" M 0 214.5 L 600 214.5" stroke-opacity="0.12" stroke-miterlimit="10" stroke-dasharray=""/><path fill="none" stroke="rgb(0,0,0)" class="dcg-svg-minor-gridline" paint-order="fill stroke markers" d=" M 0 154.5 L 600 154.5" stroke-opacity="0.12" stroke-miterlimit="10" stroke-dasharray=""/><path fill="none" stroke="rgb(0,0,0)" class="dcg-svg-minor-gridline" paint-order="fill stroke markers" d=" M 0 124.5 L 600 124.5" stroke-opacity="0.12" stroke-miterlimit="10" stroke-dasharray=""/><path fill="none" stroke="rgb(0,0,0)" class="dcg-svg-minor-gridline" paint-order="fill stroke markers" d=" M 0 94.5 L 600 94.5" stroke-opacity="0.12" stroke-miterlimit="10" stroke-dasharray=""/><path fill="none" stroke="rgb(0,0,0)" class="dcg-svg-minor-gridline" paint-order="fill stroke markers" d=" M 0 64.5 L 600 64.5" stroke-opacity="0.12" stroke-miterlimit="10" stroke-dasharray=""/><path fill="none" stroke="rgb(0,0,0)" class="dcg-svg-minor-gridline" paint-order="fill stroke markers" d=" M 0 34.5 L 600 34.5" stroke-opacity="0.12" stroke-miterlimit="10" stroke-dasharray=""/><path fill="none" stroke="rgb(0,0,0)" class="dcg-svg-minor-gridline" paint-order="fill stroke markers" d=" M 0 4.5 L 600 4.5" stroke-opacity="0.12" stroke-miterlimit="10" stroke-dasharray=""/><path fill="none" stroke="rgb(0,0,0)" class="dcg-svg-major-gridline" paint-order="fill stroke markers" d=" M -0.5 0 L -0.5 400" stroke-opacity="0.31818181818181823" stroke-miterlimit="10" stroke-dasharray=""/><path fill="none" stroke="rgb(0,0,0)" class="dcg-svg-major-gridline" paint-order="fill stroke markers" d=" M 149.5 0 L 149.5 400" stroke-opacity="0.31818181818181823" stroke-miterlimit="10" stroke-dasharray=""/><path fill="none" stroke="rgb(0,0,0)" class="dcg-svg-major-gridline" paint-order="fill stroke markers" d=" M 449.5 0 L 449.5 400" stroke-opacity="0.31818181818181823" stroke-miterlimit="10" stroke-dasharray=""/><path fill="none" stroke="rgb(0,0,0)" class="dcg-svg-major-gridline" paint-order="fill stroke markers" d=" M 0 334.5 L 600 334.5" stroke-opacity="0.31818181818181823" stroke-miterlimit="10" stroke-dasharray=""/><path fill="none" stroke="rgb(0,0,0)" class="dcg-svg-major-gridline" paint-order="fill stroke markers" d=" M 0 34.5 L 600 34.5" stroke-opacity="0.31818181818181823" stroke-miterlimit="10" stroke-dasharray=""/></g></g><g id="axis-a985befa"><g id="yaxis-a985befa"><title>Y axis</title><path fill="none" stroke="rgb(0,0,0)" class="dcg-svg-axis-line" paint-order="fill stroke markers" d=" M 299.75 0 L 299.75 400" stroke-opacity="0.9" stroke-miterlimit="10" stroke-width="1.5" stroke-dasharray=""/></g><g id="xaxis-a985befa"><title>X axis</title><path fill="none" stroke="rgb(0,0,0)" class="dcg-svg-axis-line" paint-order="fill stroke markers" d=" M 0 184.75 L 600 184.75" stroke-opacity="0.9" stroke-miterlimit="10" stroke-width="1.5" stroke-dasharray=""/></g><g><g class="dcg-svg-axis-value"><text fill="none" stroke="#ffffff" font-family="Arial" font-size="14px" font-style="normal" font-weight="normal" text-decoration="normal" x="291.10693359375" y="200.808" text-anchor="middle" stroke-miterlimit="2" stroke-width="3" stroke-dasharray="">0</text><text fill="#000000" stroke="none" font-family="Arial" font-size="14px" font-style="normal" font-weight="normal" text-decoration="normal" x="291.10693359375" y="200.808" text-anchor="middle">0</text></g><g class="dcg-svg-axis-value dcg-svg-offcenter-axis-value"><text fill="none" stroke="#ffffff" font-family="Arial" font-size="14px" font-style="normal" font-weight="normal" text-decoration="normal" x="13.1171875" y="200.808" text-anchor="middle" stroke-miterlimit="2" stroke-width="3" stroke-dasharray="">-10</text><text fill="#000000" stroke="none" font-family="Arial" font-size="14px" font-style="normal" font-weight="normal" text-decoration="normal" x="13.1171875" y="200.808" text-anchor="middle">-10</text></g><g class="dcg-svg-axis-value"><text fill="none" stroke="#ffffff" font-family="Arial" font-size="14px" font-style="normal" font-weight="normal" text-decoration="normal" x="147.6689453125" y="200.808" text-anchor="middle" stroke-miterlimit="2" stroke-width="3" stroke-dasharray="">-5</text><text fill="#000000" stroke="none" font-family="Arial" font-size="14px" font-style="normal" font-weight="normal" text-decoration="normal" x="147.6689453125" y="200.808" text-anchor="middle">-5</text></g><g class="dcg-svg-axis-value"><text fill="none" stroke="#ffffff" font-family="Arial" font-size="14px" font-style="normal" font-weight="normal" text-decoration="normal" x="450" y="200.808" text-anchor="middle" stroke-miterlimit="2" stroke-width="3" stroke-dasharray="">5</text><text fill="#000000" stroke="none" font-family="Arial" font-size="14px" font-style="normal" font-weight="normal" text-decoration="normal" x="450" y="200.808" text-anchor="middle">5</text></g><g class="dcg-svg-axis-value dcg-svg-offcenter-axis-value"><text fill="none" stroke="#ffffff" font-family="Arial" font-size="14px" font-style="normal" font-weight="normal" text-decoration="normal" x="589.2138671875" y="200.808" text-anchor="middle" stroke-miterlimit="2" stroke-width="3" stroke-dasharray="">10</text><text fill="#000000" stroke="none" font-family="Arial" font-size="14px" font-style="normal" font-weight="normal" text-decoration="normal" x="589.2138671875" y="200.808" text-anchor="middle">10</text></g><g class="dcg-svg-axis-value"><text fill="none" stroke="#ffffff" font-family="Arial" font-size="14px" font-style="normal" font-weight="normal" text-decoration="normal" x="288.77587890625" y="338.808" text-anchor="middle" stroke-miterlimit="2" stroke-width="3" stroke-dasharray="">-5</text><text fill="#000000" stroke="none" font-family="Arial" font-size="14px" font-style="normal" font-weight="normal" text-decoration="normal" x="288.77587890625" y="338.808" text-anchor="middle">-5</text></g><g class="dcg-svg-axis-value"><text fill="none" stroke="#ffffff" font-family="Arial" font-size="14px" font-style="normal" font-weight="normal" text-decoration="normal" x="291.10693359375" y="38.808" text-anchor="middle" stroke-miterlimit="2" stroke-width="3" stroke-dasharray="">5</text><text fill="#000000" stroke="none" font-family="Arial" font-size="14px" font-style="normal" font-weight="normal" text-decoration="normal" x="291.10693359375" y="38.808" text-anchor="middle">5</text></g></g></g></g><g id="expressions-a985befa"><g id="sketch-a985befa"><title>Expression 1</title><path fill="#2d70b3" stroke="none" paint-order="stroke fill markers" d="" fill-opacity="0.4"/><g><path fill="none" stroke="#2d70b3" class="dcg-svg-curve" paint-order="fill stroke markers" d=" M -0.5 184.5 L -0.5 184.5 L 4.041015625 172.35764323052658 L 8.435546875 161.48356497686228 L 12.830078125 151.44063456708076 L 17.224609375 142.1985862912437 L 21.47265625 133.99786886877519 L 25.720703125 126.49116355694906 L 29.96875 119.65235837548965 L 34.216796875 113.45574338682246 L 38.46484375 107.87601069607439 L 42.712890625 102.88825445107375 L 47.107421875 98.32537596074081 L 51.501953125 94.34310908253008 L 55.75 91.02084350585938 L 59.8515625 88.28287291605369 L 63.806640625 86.06024642679705 L 67.615234375 84.29024955424336 L 71.423828125 82.86742354292193 L 75.232421875 81.77608283793359 L 79.041015625 81.00080164516055 L 82.849609375 80.52641393126697 L 86.8046875 80.3362789380771 L 90.759765625 80.43815832300544 L 94.861328125 80.83504198955904 L 99.109375 81.54014587914565 L 103.650390625 82.60331922477354 L 108.337890625 84.0124310621207 L 113.318359375 85.82927451746525 L 118.73828125 88.1476636081261 L 124.59765625 91.01358973423152 L 131.04296875 94.54621833212695 L 138.07421875 98.78953953231934 L 146.130859375 104.06278170697198 L 155.65234375 110.72796598311652 L 168.396484375 120.12242861422357 L 202.673828125 145.6172176670237 L 213.3671875 152.98466971641753 L 222.595703125 158.91842700673928 L 230.9453125 163.8781141306681 L 238.5625 168.0177510976791 L 245.740234375 171.549518193416 L 252.625 174.57582664489746 L 259.216796875 177.12278769229795 L 265.515625 179.2216812870465 L 271.66796875 180.944653419303 L 277.673828125 182.30620264992592 L 283.533203125 183.3230719892357 L 289.24609375 184.01379740537047 L 294.958984375 184.404555100656 L 300.525390625 184.49513234421042 L 306.091796875 184.29893144619325 L 311.8046875 183.80022857370204 L 317.517578125 183.0024900066577 L 323.23046875 181.90920565614033 L 329.08984375 180.4859211173807 L 335.095703125 178.716592528673 L 341.248046875 176.58728141830704 L 347.693359375 174.02471606649794 L 354.431640625 170.99853671928156 L 361.462890625 167.48328228507614 L 368.93359375 163.37603483263774 L 376.990234375 158.55507105973751 L 385.779296875 152.8870546660813 L 395.740234375 146.03248891310736 L 407.751953125 137.31168811935402 L 428.69921875 121.55339811072002 L 444.2265625 110.09699594494305 L 454.333984375 103.07567205748575 L 462.68359375 97.69433417970686 L 470.0078125 93.3823078454879 L 476.453125 89.97068737214431 L 482.3125 87.23080766201014 L 487.732421875 85.04306849707189 L 492.859375 83.31403598701576 L 497.546875 82.05034766858444 L 502.087890625 81.13924507645726 L 506.3359375 80.586599528644 L 510.4375 80.34647119045252 L 514.392578125 80.4048156844886 L 518.201171875 80.7453727695987 L 522.009765625 81.37991123751942 L 525.818359375 82.32347723199501 L 529.626953125 83.59137665755162 L 533.435546875 85.19917517949699 L 537.244140625 87.1626982239207 L 541.052734375 89.4980309776941 L 545.0078125 92.33424398614437 L 549.109375 95.73752522980789 L 553.357421875 99.78051527858162 L 557.751953125 104.54283586730651 L 562 109.73193359375 L 566.248046875 115.52155057577812 L 570.49609375 121.93673130097699 L 574.744140625 129.0029222996339 L 578.9921875 136.74597214473755 L 583.240234375 145.192131451978 L 587.48828125 154.36805287974673 L 591.736328125 164.30079112913643 L 596.130859375 175.40167910331678 L 599.5 184.5" stroke-linecap="round" stroke-linejoin="round" stroke-miterlimit="10" stroke-width="2.5" stroke-opacity="0.9" stroke-dasharray=""/></g></g><g id="sketch-a985befa"><title>Expression 2</title><path fill="#388c46" stroke="none" class="dcg-svg-region" paint-order="stroke fill markers" d=" M -0.5 184.5 L 4.041015625 172.35764323052658 L 8.435546875 161.48356497686228 L 12.830078125 151.44063456708076 L 17.224609375 142.1985862912437 L 21.47265625 133.99786886877519 L 25.720703125 126.49116355694906 L 29.96875 119.65235837548965 L 34.216796875 113.45574338682246 L 38.46484375 107.87601069607439 L 42.712890625 102.88825445107375 L 47.107421875 98.32537596074081 L 51.501953125 94.34310908253008 L 55.75 91.02084350585938 L 59.8515625 88.28287291605369 L 63.806640625 86.06024642679705 L 67.615234375 84.29024955424336 L 71.423828125 82.86742354292193 L 75.232421875 81.77608283793359 L 79.041015625 81.00080164516055 L 82.849609375 80.52641393126697 L 86.8046875 80.3362789380771 L 90.759765625 80.43815832300544 L 94.861328125 80.83504198955904 L 99.109375 81.54014587914565 L 103.650390625 82.60331922477354 L 108.337890625 84.0124310621207 L 113.318359375 85.82927451746525 L 118.73828125 88.1476636081261 L 124.59765625 91.01358973423152 L 131.04296875 94.54621833212695 L 138.07421875 98.78953953231934 L 146.130859375 104.06278170697198 L 155.65234375 110.72796598311652 L 168.396484375 120.12242861422357 L 202.673828125 145.6172176670237 L 213.3671875 152.98466971641753 L 222.595703125 158.91842700673928 L 230.9453125 163.8781141306681 L 238.5625 168.0177510976791 L 245.740234375 171.549518193416 L 252.625 174.57582664489746 L 259.216796875 177.12278769229795 L 265.515625 179.2216812870465 L 271.66796875 180.944653419303 L 277.673828125 182.30620264992592 L 283.533203125 183.3230719892357 L 289.24609375 184.01379740537047 L 294.958984375 184.404555100656 L 300.525390625 184.49513234421042 L 306.091796875 184.29893144619325 L 311.8046875 183.80022857370204 L 317.517578125 183.0024900066577 L 323.23046875 181.90920565614033 L 329.08984375 180.4859211173807 L 335.095703125 178.716592528673 L 341.248046875 176.58728141830704 L 347.693359375 174.02471606649794 L 354.431640625 170.99853671928156 L 361.462890625 167.48328228507614 L 368.93359375 163.37603483263774 L 376.990234375 158.55507105973751 L 385.779296875 152.8870546660813 L 395.740234375 146.03248891310736 L 407.751953125 137.31168811935402 L 428.69921875 121.55339811072002 L 444.2265625 110.09699594494305 L 454.333984375 103.07567205748575 L 462.68359375 97.69433417970686 L 470.0078125 93.3823078454879 L 476.453125 89.97068737214431 L 482.3125 87.23080766201014 L 487.732421875 85.04306849707189 L 492.859375 83.31403598701576 L 497.546875 82.05034766858444 L 502.087890625 81.13924507645726 L 506.3359375 80.586599528644 L 510.4375 80.34647119045252 L 514.392578125 80.4048156844886 L 518.201171875 80.7453727695987 L 522.009765625 81.37991123751942 L 525.818359375 82.32347723199501 L 529.626953125 83.59137665755162 L 533.435546875 85.19917517949699 L 537.244140625 87.1626982239207 L 541.052734375 89.4980309776941 L 545.0078125 92.33424398614437 L 549.109375 95.73752522980789 L 553.357421875 99.78051527858162 L 557.751953125 104.54283586730651 L 562 109.73193359375 L 566.248046875 115.52155057577812 L 570.49609375 121.93673130097699 L 574.744140625 129.0029222996339 L 578.9921875 136.74597214473755 L 583.240234375 145.192131451978 L 587.48828125 154.36805287974673 L 591.736328125 164.30079112913643 L 596.130859375 175.40167910331678 L 599.5 184.5 L 599.5 399.5 L -0.5 399.5 L -0.5 184.5" fill-opacity="0.4"/><path fill="#388c46" stroke="none" paint-order="stroke fill markers" d="" fill-opacity="0.4"/><path fill="#388c46" stroke="none" paint-order="stroke fill markers" d="" fill-opacity="0.4"/><path fill="#388c46" stroke="none" paint-order="stroke fill markers" d="" fill-opacity="0.4"/><path fill="#388c46" stroke="none" paint-order="stroke fill markers" d="" fill-opacity="0.4"/><g><path fill="none" stroke="#388c46" class="dcg-svg-curve" paint-order="fill stroke markers" d=" M -0.5 184.5 L 3.353155510353884 174.19693285409488 M 5.928057755680717 167.68823877539077 L 8.435546875 161.48356497686228 M 8.435546875 161.48356497686228 L 10.162443217122378 157.53704626935706 M 12.978438244240024 151.12862145209263 L 17.224609375 142.1985862912437 M 17.224609375 142.1985862912437 L 17.736016978527516 141.21133041398107 M 20.955741832971572 134.9957554718156 L 21.47265625 133.99786886877519 M 21.47265625 133.99786886877519 L 25.720703125 126.49116355694906 M 25.720703125 126.49116355694906 L 26.380713826823875 125.42863182406846 M 30.081863968362452 119.4873593224172 L 34.216796875 113.45574338682246 M 34.216796875 113.45574338682246 L 36.450299917507536 110.522077561592 M 40.84727154001447 105.07873245561059 L 42.712890625 102.88825445107375 M 42.712890625 102.88825445107375 L 47.107421875 98.32537596074081 M 47.107421875 98.32537596074081 L 48.432169039682265 97.12490736561641 M 53.752679431652126 92.58288591383034 L 55.75 91.02084350585938 M 55.75 91.02084350585938 L 59.8515625 88.28287291605369 M 59.8515625 88.28287291605369 L 62.93148698010643 86.55205458123393 M 69.2979715468898 83.66160749485273 L 71.423828125 82.86742354292193 M 71.423828125 82.86742354292193 L 75.232421875 81.77608283793359 M 75.232421875 81.77608283793359 L 79.041015625 81.00080164516055 M 79.041015625 81.00080164516055 L 79.9163209462092 80.89177607889025 M 86.8890586932959 80.33845226689817 L 90.759765625 80.43815832300544 M 90.759765625 80.43815832300544 L 94.861328125 80.83504198955904 M 94.861328125 80.83504198955904 L 97.82802824779104 81.3274640031031 M 104.64378483120854 82.9019439789326 L 108.337890625 84.0124310621207 M 108.337890625 84.0124310621207 L 113.318359375 85.82927451746525 M 113.318359375 85.82927451746525 L 115.01108314030012 86.55334257628282 M 121.38479864019797 89.4421230567466 L 124.59765625 91.01358973423152 M 124.59765625 91.01358973423152 L 131.04296875 94.54621833212695 M 131.04296875 94.54621833212695 L 131.10588151983103 94.58418584714731 M 137.09907240878945 98.20104400976662 L 138.07421875 98.78953953231934 M 138.07421875 98.78953953231934 L 146.130859375 104.06278170697198 M 146.130859375 104.06278170697198 L 146.3209966812451 104.19588072115728 M 152.05557903645214 108.21017582881291 L 155.65234375 110.72796598311652 M 155.65234375 110.72796598311652 L 160.97260056288764 114.64984312550449 M 166.60713761202277 118.80339488778256 L 168.396484375 120.12242861422357 M 168.396484375 120.12242861422357 L 175.4390772011893 125.36056549548233 M 181.05580293132743 129.53817151716558 L 189.8820862215445 136.1029809798107 M 195.49881195168265 140.28058700149396 L 202.673828125 145.6172176670237 M 202.673828125 145.6172176670237 L 204.3684874065706 146.78479471733974 M 210.1328100247585 150.75626607609928 L 213.3671875 152.98466971641753 M 213.3671875 152.98466971641753 L 219.3159033172135 156.80957908242868 M 225.26158303590384 160.5019657897198 L 230.9453125 163.8781141306681 M 230.9453125 163.8781141306681 L 234.80176868619952 165.97394393531056 M 241.0028647248905 169.21851994571344 L 245.740234375 171.549518193416 M 245.740234375 171.549518193416 L 250.97686253770863 173.85136155733892 M 257.4752053789156 176.44986560669273 L 259.216796875 177.12278769229795 M 259.216796875 177.12278769229795 L 265.515625 179.2216812870465 M 265.515625 179.2216812870465 L 267.91684445718613 179.89414602183376 M 274.6956934199799 181.63104914347014 L 277.673828125 182.30620264992592 M 277.673828125 182.30620264992592 L 283.533203125 183.3230719892357 M 283.533203125 183.3230719892357 L 285.518085084769 183.563057052426 M 292.48337132865737 184.23522491180654 L 294.958984375 184.404555100656 M 294.958984375 184.404555100656 L 300.525390625 184.49513234421042 M 300.525390625 184.49513234421042 L 303.47501845908505 184.39116587035417 M 310.45679373215484 183.91789203655495 L 311.8046875 183.80022857370204 M 311.8046875 183.80022857370204 L 317.517578125 183.0024900066577 M 317.517578125 183.0024900066577 L 321.32710821336354 182.27345458451833 M 328.14952611590127 180.71433106727056 L 329.08984375 180.4859211173807 M 329.08984375 180.4859211173807 L 335.095703125 178.716592528673 M 335.095703125 178.716592528673 L 338.6595711421812 177.48314653260658 M 345.2074616364941 175.01307394873186 L 347.693359375 174.02471606649794 M 347.693359375 174.02471606649794 L 354.431640625 170.99853671928156 M 354.431640625 170.99853671928156 L 355.27081566481775 170.57899342615534 M 361.53053696663596 167.44609164054077 L 368.93359375 163.37603483263774 M 368.93359375 163.37603483263774 L 371.12337862469366 162.06570289123468 M 377.1272216452296 158.4667287486681 L 385.779296875 152.8870546660813 M 385.779296875 152.8870546660813 L 386.3599058106413 152.4875117389103 M 392.1264633045356 148.51928610651345 L 395.740234375 146.03248891310736 M 395.740234375 146.03248891310736 L 401.0917910854387 142.14712820998486 M 406.75630539230275 138.03455265841964 L 407.751953125 137.31168811935402 M 407.751953125 137.31168811935402 L 415.55907808364356 131.4385139574185 M 421.1529398064735 127.23034202344793 L 428.69921875 121.55339811072002 M 428.69921875 121.55339811072002 L 429.95194407790154 120.62911090546672 M 435.58470028432953 116.47314440909705 L 444.2265625 110.09699594494305 M 444.2265625 110.09699594494305 L 444.44049943007684 109.94838035373347 M 450.1894813024532 105.95473447169937 L 454.333984375 103.07567205748575 M 454.333984375 103.07567205748575 L 459.33829805858954 99.85038311661387 M 465.28615818848925 96.16211254920634 L 470.0078125 93.3823078454879 M 470.0078125 93.3823078454879 L 474.8872419480222 90.79953759142988 M 481.189200103694 87.75606958743471 L 482.3125 87.23080766201014 M 482.3125 87.23080766201014 L 487.732421875 85.04306849707189 M 487.732421875 85.04306849707189 L 491.44228684235236 83.79194000416793 M 498.18382776357095 81.92255041751197 L 502.087890625 81.13924507645726 M 502.087890625 81.13924507645726 L 506.3359375 80.586599528644 M 506.3359375 80.586599528644 L 509.06555135303114 80.42679271394039 M 516.0561344931067 80.55356767664811 L 518.201171875 80.7453727695987 M 518.201171875 80.7453727695987 L 522.009765625 81.37991123751942 M 522.009765625 81.37991123751942 L 525.818359375 82.32347723199501 M 525.818359375 82.32347723199501 L 526.8255893117228 82.6587889879874 M 533.3557909590885 85.16550620555641 L 533.435546875 85.19917517949699 M 533.435546875 85.19917517949699 L 537.244140625 87.1626982239207 M 537.244140625 87.1626982239207 L 541.052734375 89.4980309776941 M 541.052734375 89.4980309776941 L 542.808792247392 90.75731183735344 M 548.312371413 95.07620960709835 L 549.109375 95.73752522980789 M 549.109375 95.73752522980789 L 553.357421875 99.78051527858162 M 553.357421875 99.78051527858162 L 556.1378165061625 102.79360810771222 M 560.6783997769858 108.11756517590847 L 562 109.73193359375 M 562 109.73193359375 L 566.248046875 115.52155057577812 M 566.248046875 115.52155057577812 L 567.2047145968485 116.96626070026855 M 571.0312005341347 122.8268266442334 L 574.744140625 129.0029222996339 M 574.744140625 129.0029222996339 L 576.5689115639374 132.32899019668096 M 579.8737385773778 138.49871194636765 L 583.240234375 145.192131451978 M 583.240234375 145.192131451978 L 584.7138664720567 148.37522540878132 M 587.6440428527684 154.73225301103733 L 591.736328125 164.30079112913643 M 591.736328125 164.30079112913643 L 591.954633415306 164.85224529659914 M 594.531190411438 171.36080535591202 L 596.130859375 175.40167910331678 M 596.130859375 175.40167910331678 L 598.4415270732196 181.64160748386698" stroke-linecap="round" stroke-linejoin="round" stroke-miterlimit="10" stroke-width="2.5" stroke-opacity="0.9" stroke-dasharray=""/></g></g></g><g id="labels-a985befa"/></g></svg>