<svg version="1.1" xmlns="http://www.w3.org/2000/svg" xmlns:xlink="http://www.w3.org/1999/xlink" width="600" height="400"><defs/><g transform="scale(1,1)"><g id="background-dcd890ec"><rect fill="white" stroke="none" x="0" y="0" width="600" height="400" class="dcg-svg-background"/></g><g id="background-images-dcd890ec"/><g id="graphpaper-dcd890ec"><g id="grid-dcd890ec"><g><path fill="none" stroke="rgb(0,0,0)" class="dcg-svg-minor-gridline" paint-order="fill stroke markers" d=" M -0.5 0 L -0.5 400" stroke-opacity="0.12" stroke-miterlimit="10" stroke-dasharray=""/><path fill="none" stroke="rgb(0,0,0)" class="dcg-svg-minor-gridline" paint-order="fill stroke markers" d=" M 29.5 0 L 29.5 400" stroke-opacity="0.12" stroke-miterlimit="10" stroke-dasharray=""/><path fill="none" stroke="rgb(0,0,0)" class="dcg-svg-minor-gridline" paint-order="fill stroke markers" d=" M 59.5 0 L 59.5 400" stroke-opacity="0.12" stroke-miterlimit="10" stroke-dasharray=""/><path fill="none" stroke="rgb(0,0,0)" class="dcg-svg-minor-gridline" paint-order="fill stroke markers" d=" M 89.5 0 L 89.5 400" stroke-opacity="0.12" stroke-miterlimit="10" stroke-dasharray=""/><path fill="none" stroke="rgb(0,0,0)" class="dcg-svg-minor-gridline" paint-order="fill stroke markers" d=" M 119.5 0 L 119.5 400" stroke-opacity="0.12" stroke-miterlimit="10" stroke-dasharray=""/><path fill="none" stroke="rgb(0,0,0)" class="dcg-svg-minor-gridline" paint-order="fill stroke markers" d=" M 149.5 0 L 149.5 400" stroke-opacity="0.12" stroke-miterlimit="10" stroke-dasharray=""/><path fill="none" stroke="rgb(0,0,0)" class="dcg-svg-minor-gridline" paint-order="fill stroke markers" d=" M 179.5 0 L 179.5 400" stroke-opacity="0.12" stroke-miterlimit="10" stroke-dasharray=""/><path fill="none" stroke="rgb(0,0,0)" class="dcg-svg-minor-gridline" paint-order="fill stroke markers" d=" M 209.5 0 L 209.5 400" stroke-opacity="0.12" stroke-miterlimit="10" stroke-dasharray=""/><path fill="none" stroke="rgb(0,0,0)" class="dcg-svg-minor-gridline" paint-order="fill stroke markers" d=" M 239.5 0 L 239.5 400" stroke-opacity="0.12" stroke-miterlimit="10" stroke-dasharray=""/><path fill="none" stroke="rgb(0,0,0)" class="dcg-svg-minor-gridline" paint-order="fill stroke markers" d=" M 269.5 0 L 269.5 400" stroke-opacity="0.12" stroke-miterlimit="10" stroke-dasharray=""/><path fill="none" stroke="rgb(0,0,0)" class="dcg-svg-minor-gridline" paint-order="fill stroke markers" d=" M 329.5 0 L 329.5 400" stroke-opacity="0.12" stroke-miterlimit="10" stroke-dasharray=""/><path fill="none" stroke="rgb(0,0,0)" class="dcg-svg-minor-gridline" paint-order="fill stroke markers" d=" M 359.5 0 L 359.5 400" stroke-opacity="0.12" stroke-miterlimit="10" stroke-dasharray=""/><path fill="none" stroke="rgb(0,0,0)" class="dcg-svg-minor-gridline" paint-order="fill stroke markers" d=" M 389.5 0 L 389.5 400" stroke-opacity="0.12" stroke-miterlimit="10" stroke-dasharray=""/><path fill="none" stroke="rgb(0,0,0)" class="dcg-svg-minor-gridline" paint-order="fill stroke markers" d=" M 419.5 0 L 419.5 400" stroke-opacity="0.12" stroke-miterlimit="10" stroke-dasharray=""/><path fill="none" stroke="rgb(0,0,0)" class="dcg-svg-minor-gridline" paint-order="fill stroke markers" d=" M 449.5 0 L 449.5 400" stroke-opacity="0.12" stroke-miterlimit="10" stroke-dasharray=""/><path fill="none" stroke="rgb(0,0,0)" class="dcg-svg-minor-gridline" paint-order="fill stroke markers" d=" M 479.5 0 L 479.5 400" stroke-opacity="0.12" stroke-miterlimit="10" stroke-dasharray=""/><path fill="none" stroke="rgb(0,0,0)" class="dcg-svg-minor-gridline" paint-order="fill stroke markers" d=" M 509.5 0 L 509.5 400" stroke-opacity="0.12" stroke-miterlimit="10" stroke-dasharray=""/><path fill="none" stroke="rgb(0,0,0)" class="dcg-svg-minor-gridline" paint-order="fill stroke markers" d=" M 539.5 0 L 539.5 400" stroke-opacity="0.12" stroke-miterlimit="10" stroke-dasharray=""/><path fill="none" stroke="rgb(0,0,0)" class="dcg-svg-minor-gridline" paint-order="fill stroke markers" d=" M 569.5 0 L 569.5 400" stroke-opacity="0.12" stroke-miterlimit="10" stroke-dasharray=""/><path fill="none" stroke="rgb(0,0,0)" class="dcg-svg-minor-gridline" paint-order="fill stroke markers" d=" M 0 355.5 L 600 355.5" stroke-opacity="0.12" stroke-miterlimit="10" stroke-dasharray=""/><path fill="none" stroke="rgb(0,0,0)" class="dcg-svg-minor-gridline" paint-order="fill stroke markers" d=" M 0 310.5 L 600 310.5" stroke-opacity="0.12" stroke-miterlimit="10" stroke-dasharray=""/><path fill="none" stroke="rgb(0,0,0)" class="dcg-svg-minor-gridline" paint-order="fill stroke markers" d=" M 0 266.5 L 600 266.5" stroke-opacity="0.12" stroke-miterlimit="10" stroke-dasharray=""/><path fill="none" stroke="rgb(0,0,0)" class="dcg-svg-minor-gridline" paint-order="fill stroke markers" d=" M 0 221.5 L 600 221.5" stroke-opacity="0.12" stroke-miterlimit="10" stroke-dasharray=""/><path fill="none" stroke="rgb(0,0,0)" class="dcg-svg-minor-gridline" paint-order="fill stroke markers" d=" M 0 177.5 L 600 177.5" stroke-opacity="0.12" stroke-miterlimit="10" stroke-dasharray=""/><path fill="none" stroke="rgb(0,0,0)" class="dcg-svg-minor-gridline" paint-order="fill stroke markers" d=" M 0 132.5 L 600 132.5" stroke-opacity="0.12" stroke-miterlimit="10" stroke-dasharray=""/><path fill="none" stroke="rgb(0,0,0)" class="dcg-svg-minor-gridline" paint-order="fill stroke markers" d=" M 0 43.5 L 600 43.5" stroke-opacity="0.12" stroke-miterlimit="10" stroke-dasharray=""/><path fill="none" stroke="rgb(0,0,0)" class="dcg-svg-minor-gridline" paint-order="fill stroke markers" d=" M 0 -0.5 L 600 -0.5" stroke-opacity="0.12" stroke-miterlimit="10" stroke-dasharray=""/><path fill="none" stroke="rgb(0,0,0)" class="dcg-svg-major-gridline" paint-order="fill stroke markers" d=" M -0.5 0 L -0.5 400" stroke-opacity="0.31818181818181823" stroke-miterlimit="10" stroke-dasharray=""/><path fill="none" stroke="rgb(0,0,0)" class="dcg-svg-major-gridline" paint-order="fill stroke markers" d=" M 149.5 0 L 149.5 400" stroke-opacity="0.31818181818181823" stroke-miterlimit="10" stroke-dasharray=""/><path fill="none" stroke="rgb(0,0,0)" class="dcg-svg-major-gridline" paint-order="fill stroke markers" d=" M 449.5 0 L 449.5 400" stroke-opacity="0.31818181818181823" stroke-miterlimit="10" stroke-dasharray=""/><path fill="none" stroke="rgb(0,0,0)" class="dcg-svg-major-gridline" paint-order="fill stroke markers" d=" M 0 310.5 L 600 310.5" stroke-opacity="0.31818181818181823" stroke-miterlimit="10" stroke-dasharray=""/></g></g><g id="axis-dcd890ec"><g id="yaxis-dcd890ec"><title>Y axis</title><path fill="none" stroke="rgb(0,0,0)" class="dcg-svg-axis-line" paint-order="fill stroke markers" d=" M 299.75 0 L 299.75 400" stroke-opacity="0.9" stroke-miterlimit="10" stroke-width="1.5" stroke-dasharray=""/></g><g id="xaxis-dcd890ec"><title>X axis</title><path fill="none" stroke="rgb(0,0,0)" class="dcg-svg-axis-line" paint-order="fill stroke markers" d=" M 0 88.75 L 600 88.75" stroke-opacity="0.9" stroke-miterlimit="10" stroke-width="1.5" stroke-dasharray=""/></g><g><g class="dcg-svg-axis-value"><text fill="none" stroke="#ffffff" font-family="Arial" font-size="14px" font-style="normal" font-weight="normal" text-decoration="normal" x="291.10693359375" y="104.69688888888892" text-anchor="middle" stroke-miterlimit="2" stroke-width="3" stroke-dasharray="">0</text><text fill="#000000" stroke="none" font-family="Arial" font-size="14px" font-style="normal" font-weight="normal" text-decoration="normal" x="291.10693359375" y="104.69688888888892" text-anchor="middle">0</text></g><g class="dcg-svg-axis-value dcg-svg-offcenter-axis-value"><text fill="none" stroke="#ffffff" font-family="Arial" font-size="14px" font-style="normal" font-weight="normal" text-decoration="normal" x="13.1171875" y="104.69688888888892" text-anchor="middle" stroke-miterlimit="2" stroke-width="3" stroke-dasharray="">-10</text><text fill="#000000" stroke="none" font-family="Arial" font-size="14px" font-style="normal" font-weight="normal" text-decoration="normal" x="13.1171875" y="104.69688888888892" text-anchor="middle">-10</text></g><g class="dcg-svg-axis-value"><text fill="none" stroke="#ffffff" font-family="Arial" font-size="14px" font-style="normal" font-weight="normal" text-decoration="normal" x="147.6689453125" y="104.69688888888892" text-anchor="middle" stroke-miterlimit="2" stroke-width="3" stroke-dasharray="">-5</text><text fill="#000000" stroke="none" font-family="Arial" font-size="14px" font-style="normal" font-weight="normal" text-decoration="normal" x="147.6689453125" y="104.69688888888892" text-anchor="middle">-5</text></g><g class="dcg-svg-axis-value"><text fill="none" stroke="#ffffff" font-family="Arial" font-size="14px" font-style="normal" font-weight="normal" text-decoration="normal" x="450" y="104.69688888888892" text-anchor="middle" stroke-miterlimit="2" stroke-width="3" stroke-dasharray="">5</text><text fill="#000000" stroke="none" font-family="Arial" font-size="14px" font-style="normal" font-weight="normal" text-decoration="normal" x="450" y="104.69688888888892" text-anchor="middle">5</text></g><g class="dcg-svg-axis-value dcg-svg-offcenter-axis-value"><text fill="none" stroke="#ffffff" font-family="Arial" font-size="14px" font-style="normal" font-weight="normal" text-decoration="normal" x="589.2138671875" y="104.69688888888892" text-anchor="middle" stroke-miterlimit="2" stroke-width="3" stroke-dasharray="">10</text><text fill="#000000" stroke="none" font-family="Arial" font-size="14px" font-style="normal" font-weight="normal" text-decoration="normal" x="589.2138671875" y="104.69688888888892" text-anchor="middle">10</text></g><g class="dcg-svg-axis-value"><text fill="none" stroke="#ffffff" font-family="Arial" font-size="14px" font-style="normal" font-weight="normal" text-decoration="normal" x="288.77587890625" y="314.91911111111114" text-anchor="middle" stroke-miterlimit="2" stroke-width="3" stroke-dasharray="">-5</text><text fill="#000000" stroke="none" font-family="Arial" font-size="14px" font-style="normal" font-weight="normal" text-decoration="normal" x="288.77587890625" y="314.91911111111114" text-anchor="middle">-5</text></g></g></g></g><g id="expressions-dcd890ec"><g id="sketch-dcd890ec"><title>Expression 1</title><path fill="#2d70b3" stroke="none" paint-order="stroke fill markers" d="" fill-opacity="0.4"/><g><path fill="none" stroke="#2d70b3" class="dcg-svg-curve" paint-order="fill stroke markers" d=" M -0.5 71.75994530794583 L -0.5 71.75994530794583 L 6.677734375 78.51741317569736 L 17.6640625 89.28502699442993 L 29.96875 101.25119697859111 L 37 107.71476620555899 L 42.859375 112.74775024437866 L 47.986328125 116.81606117897212 L 52.673828125 120.21432996652243 L 57.068359375 123.087508531872 L 61.169921875 125.47132641821656 L 65.125 127.4786542214751 L 68.93359375 129.12659035981835 L 72.595703125 130.43624161497428 L 76.2578125 131.46757790793833 L 79.7734375 132.18946784340892 L 83.2890625 132.64415620807853 L 86.8046875 132.8288692156603 L 90.3203125 132.74248004073434 L 93.8359375 132.38551569284675 L 97.3515625 131.7601538015349 L 100.8671875 130.8702093318896 L 104.529296875 129.66770625716157 L 108.19140625 128.19197522037808 L 112 126.37789365505955 L 115.955078125 124.20638645861527 L 120.203125 121.56654880287579 L 124.59765625 118.52508875605184 L 129.28515625 114.96509870714698 L 134.412109375 110.7429379897415 L 140.271484375 105.56605786355072 L 147.302734375 98.97800398186683 L 157.41015625 89.09816676734835 L 171.326171875 75.5400509263489 L 178.357421875 69.07568421492067 L 184.216796875 64.04179869116331 L 189.34375 59.972534871902894 L 194.03125 56.573271777396485 L 198.42578125 53.699064104822355 L 202.52734375 51.31420989658892 L 206.482421875 49.305821680870224 L 210.291015625 47.65681543460602 L 213.953125 46.34609713856781 L 217.615234375 45.313663615239534 L 221.130859375 44.59069867645951 L 224.646484375 44.134920736169875 L 228.162109375 43.949110227517565 L 231.677734375 44.03440067113104 L 235.193359375 44.39027176017754 L 238.708984375 45.01455253444914 L 242.224609375 45.90343462411403 L 245.88671875 47.10485796313441 L 249.548828125 48.57954377318549 L 253.357421875 50.39258234390718 L 257.3125 52.56306185508032 L 261.560546875 55.201867531408425 L 265.955078125 58.242347842349886 L 270.642578125 61.80140166706576 L 275.76953125 66.0226787029693 L 281.62890625 71.19874256915813 L 288.66015625 77.78610791237003 L 298.767578125 87.66554119719609 L 312.68359375 101.22425543625917 L 319.71484375 107.68941898413948 L 325.57421875 112.72420548822237 L 330.701171875 116.79442178423398 L 335.388671875 120.19467884494384 L 339.783203125 123.06991533662301 L 343.884765625 125.45580562768015 L 347.83984375 127.4652540545319 L 351.6484375 129.11533024341554 L 355.310546875 130.42711544894553 L 358.97265625 131.46064609914367 L 362.48828125 132.1846859687609 L 366.00390625 132.64155343898193 L 369.51953125 132.82846143007862 L 373.03515625 132.74426972632745 L 376.55078125 132.3894919317956 L 380.06640625 131.76629233714414 L 383.58203125 130.87847271656398 L 387.244140625 129.67812923368564 L 390.90625 128.20448879819406 L 394.71484375 126.39249340381383 L 398.669921875 124.22304179548735 L 402.91796875 121.58526836309278 L 407.3125 118.54576809282099 L 412 114.98765084906472 L 417.126953125 110.767257917817 L 422.986328125 105.59201083049487 L 430.017578125 99.00533468609297 L 440.125 89.12630632130436 L 454.041015625 75.5669950433454 L 461.072265625 69.10103530710103 L 466.931640625 64.06534832739544 L 472.05859375 59.994179962643614 L 476.74609375 56.59292927658271 L 481.140625 53.71666425402111 L 485.2421875 51.32973811930947 L 489.197265625 49.319229682757964 L 493.005859375 47.668083716663546 L 496.66796875 46.35523173313925 L 500.330078125 45.32060405967553 L 503.845703125 44.595489331801105 L 507.361328125 44.13753237744646 L 510.876953125 43.94952692264178 L 514.392578125 44.03261987809094 L 517.908203125 44.38630434254418 L 521.423828125 45.008422695104 L 524.939453125 45.89517975760168 L 528.6015625 47.09444326401177 L 532.263671875 48.567038177221605 L 536.072265625 50.37799021362025 L 540.02734375 52.54641370162744 L 544.275390625 55.18315462566994 L 548.669921875 58.22167455058309 L 553.357421875 61.77885485670299 L 558.484375 65.9983632602295 L 564.34375 71.17279304990211 L 571.375 77.75877933522514 L 581.482421875 87.63740178967174 L 595.3984375 101.19730874729919 L 599.5 105.017832469832" stroke-linecap="round" stroke-linejoin="round" stroke-miterlimit="10" stroke-width="2.5" stroke-opacity="0.9" stroke-dasharray=""/></g></g></g><g id="labels-dcd890ec"/></g></svg>