<svg version="1.1" xmlns="http://www.w3.org/2000/svg" xmlns:xlink="http://www.w3.org/1999/xlink" width="600" height="400"><defs/><g transform="scale(1,1)"><g id="background-8656b905"><rect fill="white" stroke="none" x="0" y="0" width="600" height="400" class="dcg-svg-background"/></g><g id="background-images-8656b905"/><g id="graphpaper-8656b905"><g id="grid-8656b905"><g><path fill="none" stroke="rgb(0,0,0)" class="dcg-svg-minor-gridline" paint-order="fill stroke markers" d=" M -0.5 0 L -0.5 400" stroke-opacity="0.12" stroke-miterlimit="10" stroke-dasharray=""/><path fill="none" stroke="rgb(0,0,0)" class="dcg-svg-minor-gridline" paint-order="fill stroke markers" d=" M 29.5 0 L 29.5 400" stroke-opacity="0.12" stroke-miterlimit="10" stroke-dasharray=""/><path fill="none" stroke="rgb(0,0,0)" class="dcg-svg-minor-gridline" paint-order="fill stroke markers" d=" M 59.5 0 L 59.5 400" stroke-opacity="0.12" stroke-miterlimit="10" stroke-dasharray=""/><path fill="none" stroke="rgb(0,0,0)" class="dcg-svg-minor-gridline" paint-order="fill stroke markers" d=" M 89.5 0 L 89.5 400" stroke-opacity="0.12" stroke-miterlimit="10" stroke-dasharray=""/><path fill="none" stroke="rgb(0,0,0)" class="dcg-svg-minor-gridline" paint-order="fill stroke markers" d=" M 119.5 0 L 119.5 400" stroke-opacity="0.12" stroke-miterlimit="10" stroke-dasharray=""/><path fill="none" stroke="rgb(0,0,0)" class="dcg-svg-minor-gridline" paint-order="fill stroke markers" d=" M 149.5 0 L 149.5 400" stroke-opacity="0.12" stroke-miterlimit="10" stroke-dasharray=""/><path fill="none" stroke="rgb(0,0,0)" class="dcg-svg-minor-gridline" paint-order="fill stroke markers" d=" M 179.5 0 L 179.5 400" stroke-opacity="0.12" stroke-miterlimit="10" stroke-dasharray=""/><path fill="none" stroke="rgb(0,0,0)" class="dcg-svg-minor-gridline" paint-order="fill stroke markers" d=" M 209.5 0 L 209.5 400" stroke-opacity="0.12" stroke-miterlimit="10" stroke-dasharray=""/><path fill="none" stroke="rgb(0,0,0)" class="dcg-svg-minor-gridline" paint-order="fill stroke markers" d=" M 239.5 0 L 239.5 400" stroke-opacity="0.12" stroke-miterlimit="10" stroke-dasharray=""/><path fill="none" stroke="rgb(0,0,0)" class="dcg-svg-minor-gridline" paint-order="fill stroke markers" d=" M 269.5 0 L 269.5 400" stroke-opacity="0.12" stroke-miterlimit="10" stroke-dasharray=""/><path fill="none" stroke="rgb(0,0,0)" class="dcg-svg-minor-gridline" paint-order="fill stroke markers" d=" M 329.5 0 L 329.5 400" stroke-opacity="0.12" stroke-miterlimit="10" stroke-dasharray=""/><path fill="none" stroke="rgb(0,0,0)" class="dcg-svg-minor-gridline" paint-order="fill stroke markers" d=" M 359.5 0 L 359.5 400" stroke-opacity="0.12" stroke-miterlimit="10" stroke-dasharray=""/><path fill="none" stroke="rgb(0,0,0)" class="dcg-svg-minor-gridline" paint-order="fill stroke markers" d=" M 389.5 0 L 389.5 400" stroke-opacity="0.12" stroke-miterlimit="10" stroke-dasharray=""/><path fill="none" stroke="rgb(0,0,0)" class="dcg-svg-minor-gridline" paint-order="fill stroke markers" d=" M 419.5 0 L 419.5 400" stroke-opacity="0.12" stroke-miterlimit="10" stroke-dasharray=""/><path fill="none" stroke="rgb(0,0,0)" class="dcg-svg-minor-gridline" paint-order="fill stroke markers" d=" M 449.5 0 L 449.5 400" stroke-opacity="0.12" stroke-miterlimit="10" stroke-dasharray=""/><path fill="none" stroke="rgb(0,0,0)" class="dcg-svg-minor-gridline" paint-order="fill stroke markers" d=" M 479.5 0 L 479.5 400" stroke-opacity="0.12" stroke-miterlimit="10" stroke-dasharray=""/><path fill="none" stroke="rgb(0,0,0)" class="dcg-svg-minor-gridline" paint-order="fill stroke markers" d=" M 509.5 0 L 509.5 400" stroke-opacity="0.12" stroke-miterlimit="10" stroke-dasharray=""/><path fill="none" stroke="rgb(0,0,0)" class="dcg-svg-minor-gridline" paint-order="fill stroke markers" d=" M 539.5 0 L 539.5 400" stroke-opacity="0.12" stroke-miterlimit="10" stroke-dasharray=""/><path fill="none" stroke="rgb(0,0,0)" class="dcg-svg-minor-gridline" paint-order="fill stroke markers" d=" M 569.5 0 L 569.5 400" stroke-opacity="0.12" stroke-miterlimit="10" stroke-dasharray=""/><path fill="none" stroke="rgb(0,0,0)" class="dcg-svg-minor-gridline" paint-order="fill stroke markers" d=" M 0 370.5 L 600 370.5" stroke-opacity="0.12" stroke-miterlimit="10" stroke-dasharray=""/><path fill="none" stroke="rgb(0,0,0)" class="dcg-svg-minor-gridline" paint-order="fill stroke markers" d=" M 0 342.5 L 600 342.5" stroke-opacity="0.12" stroke-miterlimit="10" stroke-dasharray=""/><path fill="none" stroke="rgb(0,0,0)" class="dcg-svg-minor-gridline" paint-order="fill stroke markers" d=" M 0 313.5 L 600 313.5" stroke-opacity="0.12" stroke-miterlimit="10" stroke-dasharray=""/><path fill="none" stroke="rgb(0,0,0)" class="dcg-svg-minor-gridline" paint-order="fill stroke markers" d=" M 0 285.5 L 600 285.5" stroke-opacity="0.12" stroke-miterlimit="10" stroke-dasharray=""/><path fill="none" stroke="rgb(0,0,0)" class="dcg-svg-minor-gridline" paint-order="fill stroke markers" d=" M 0 256.5 L 600 256.5" stroke-opacity="0.12" stroke-miterlimit="10" stroke-dasharray=""/><path fill="none" stroke="rgb(0,0,0)" class="dcg-svg-minor-gridline" paint-order="fill stroke markers" d=" M 0 228.5 L 600 228.5" stroke-opacity="0.12" stroke-miterlimit="10" stroke-dasharray=""/><path fill="none" stroke="rgb(0,0,0)" class="dcg-svg-minor-gridline" paint-order="fill stroke markers" d=" M 0 170.5 L 600 170.5" stroke-opacity="0.12" stroke-miterlimit="10" stroke-dasharray=""/><path fill="none" stroke="rgb(0,0,0)" class="dcg-svg-minor-gridline" paint-order="fill stroke markers" d=" M 0 142.5 L 600 142.5" stroke-opacity="0.12" stroke-miterlimit="10" stroke-dasharray=""/><path fill="none" stroke="rgb(0,0,0)" class="dcg-svg-minor-gridline" paint-order="fill stroke markers" d=" M 0 113.5 L 600 113.5" stroke-opacity="0.12" stroke-miterlimit="10" stroke-dasharray=""/><path fill="none" stroke="rgb(0,0,0)" class="dcg-svg-minor-gridline" paint-order="fill stroke markers" d=" M 0 85.5 L 600 85.5" stroke-opacity="0.12" stroke-miterlimit="10" stroke-dasharray=""/><path fill="none" stroke="rgb(0,0,0)" class="dcg-svg-minor-gridline" paint-order="fill stroke markers" d=" M 0 56.5 L 600 56.5" stroke-opacity="0.12" stroke-miterlimit="10" stroke-dasharray=""/><path fill="none" stroke="rgb(0,0,0)" class="dcg-svg-minor-gridline" paint-order="fill stroke markers" d=" M 0 28.5 L 600 28.5" stroke-opacity="0.12" stroke-miterlimit="10" stroke-dasharray=""/><path fill="none" stroke="rgb(0,0,0)" class="dcg-svg-minor-gridline" paint-order="fill stroke markers" d=" M 0 -0.5 L 600 -0.5" stroke-opacity="0.12" stroke-miterlimit="10" stroke-dasharray=""/><path fill="none" stroke="rgb(0,0,0)" class="dcg-svg-major-gridline" paint-order="fill stroke markers" d=" M -0.5 0 L -0.5 400" stroke-opacity="0.31818181818181823" stroke-miterlimit="10" stroke-dasharray=""/><path fill="none" stroke="rgb(0,0,0)" class="dcg-svg-major-gridline" paint-order="fill stroke markers" d=" M 149.5 0 L 149.5 400" stroke-opacity="0.31818181818181823" stroke-miterlimit="10" stroke-dasharray=""/><path fill="none" stroke="rgb(0,0,0)" class="dcg-svg-major-gridline" paint-order="fill stroke markers" d=" M 449.5 0 L 449.5 400" stroke-opacity="0.31818181818181823" stroke-miterlimit="10" stroke-dasharray=""/><path fill="none" stroke="rgb(0,0,0)" class="dcg-svg-major-gridline" paint-order="fill stroke markers" d=" M 0 342.5 L 600 342.5" stroke-opacity="0.31818181818181823" stroke-miterlimit="10" stroke-dasharray=""/><path fill="none" stroke="rgb(0,0,0)" class="dcg-svg-major-gridline" paint-order="fill stroke markers" d=" M 0 56.5 L 600 56.5" stroke-opacity="0.31818181818181823" stroke-miterlimit="10" stroke-dasharray=""/></g></g><g id="axis-8656b905"><g id="yaxis-8656b905"><title>Y axis</title><path fill="none" stroke="rgb(0,0,0)" class="dcg-svg-axis-line" paint-order="fill stroke markers" d=" M 299.75 0 L 299.75 400" stroke-opacity="0.9" stroke-miterlimit="10" stroke-width="1.5" stroke-dasharray=""/></g><g id="xaxis-8656b905"><title>X axis</title><path fill="none" stroke="rgb(0,0,0)" class="dcg-svg-axis-line" paint-order="fill stroke markers" d=" M 0 199.75 L 600 199.75" stroke-opacity="0.9" stroke-miterlimit="10" stroke-width="1.5" stroke-dasharray=""/></g><g><g class="dcg-svg-axis-value"><text fill="none" stroke="#ffffff" font-family="Arial" font-size="14px" font-style="normal" font-weight="normal" text-decoration="normal" x="291.10693359375" y="215.808" text-anchor="middle" stroke-miterlimit="2" stroke-width="3" stroke-dasharray="">0</text><text fill="#000000" stroke="none" font-family="Arial" font-size="14px" font-style="normal" font-weight="normal" text-decoration="normal" x="291.10693359375" y="215.808" text-anchor="middle">0</text></g><g class="dcg-svg-axis-value dcg-svg-offcenter-axis-value"><text fill="none" stroke="#ffffff" font-family="Arial" font-size="14px" font-style="normal" font-weight="normal" text-decoration="normal" x="13.1171875" y="215.808" text-anchor="middle" stroke-miterlimit="2" stroke-width="3" stroke-dasharray="">-10</text><text fill="#000000" stroke="none" font-family="Arial" font-size="14px" font-style="normal" font-weight="normal" text-decoration="normal" x="13.1171875" y="215.808" text-anchor="middle">-10</text></g><g class="dcg-svg-axis-value"><text fill="none" stroke="#ffffff" font-family="Arial" font-size="14px" font-style="normal" font-weight="normal" text-decoration="normal" x="147.6689453125" y="215.808" text-anchor="middle" stroke-miterlimit="2" stroke-width="3" stroke-dasharray="">-5</text><text fill="#000000" stroke="none" font-family="Arial" font-size="14px" font-style="normal" font-weight="normal" text-decoration="normal" x="147.6689453125" y="215.808" text-anchor="middle">-5</text></g><g class="dcg-svg-axis-value"><text fill="none" stroke="#ffffff" font-family="Arial" font-size="14px" font-style="normal" font-weight="normal" text-decoration="normal" x="450" y="215.808" text-anchor="middle" stroke-miterlimit="2" stroke-width="3" stroke-dasharray="">5</text><text fill="#000000" stroke="none" font-family="Arial" font-size="14px" font-style="normal" font-weight="normal" text-decoration="normal" x="450" y="215.808" text-anchor="middle">5</text></g><g class="dcg-svg-axis-value dcg-svg-offcenter-axis-value"><text fill="none" stroke="#ffffff" font-family="Arial" font-size="14px" font-style="normal" font-weight="normal" text-decoration="normal" x="589.2138671875" y="215.808" text-anchor="middle" stroke-miterlimit="2" stroke-width="3" stroke-dasharray="">10</text><text fill="#000000" stroke="none" font-family="Arial" font-size="14px" font-style="normal" font-weight="normal" text-decoration="normal" x="589.2138671875" y="215.808" text-anchor="middle">10</text></g><g class="dcg-svg-axis-value"><text fill="none" stroke="#ffffff" font-family="Arial" font-size="14px" font-style="normal" font-weight="normal" text-decoration="normal" x="288.77587890625" y="346.6651428571428" text-anchor="middle" stroke-miterlimit="2" stroke-width="3" stroke-dasharray="">-5</text><text fill="#000000" stroke="none" font-family="Arial" font-size="14px" font-style="normal" font-weight="normal" text-decoration="normal" x="288.77587890625" y="346.6651428571428" text-anchor="middle">-5</text></g><g class="dcg-svg-axis-value"><text fill="none" stroke="#ffffff" font-family="Arial" font-size="14px" font-style="normal" font-weight="normal" text-decoration="normal" x="291.10693359375" y="60.95085714285717" text-anchor="middle" stroke-miterlimit="2" stroke-width="3" stroke-dasharray="">5</text><text fill="#000000" stroke="none" font-family="Arial" font-size="14px" font-style="normal" font-weight="normal" text-decoration="normal" x="291.10693359375" y="60.95085714285717" text-anchor="middle">5</text></g></g></g></g><g id="expressions-8656b905"><g id="sketch-8656b905"><title>Expression 1</title><path fill="#2d70b3" stroke="none" paint-order="stroke fill markers" d="" fill-opacity="0.4"/><g><path fill="none" stroke="#2d70b3" class="dcg-svg-curve" paint-order="fill stroke markers" d=" M -0.5 175.41389629891816 L -0.5 175.41389629891816 L 5.505859375 205.43420895083088 L 10.046875 226.66758825364278 L 14.001953125 243.74696450719185 L 17.517578125 257.60277411935664 L 20.59375 268.5727591474962 L 23.5234375 277.93181179760734 L 26.16015625 285.39142700959803 L 28.650390625 291.56160662147323 L 30.994140625 296.56845875366866 L 33.19140625 300.5427224084257 L 35.2421875 303.61546691041275 L 37.29296875 306.0694137658894 L 39.197265625 307.79317292585523 L 40.955078125 308.9114665589042 L 42.419921875 309.4987846460698 L 43.884765625 309.7755824060765 L 45.203125 309.7619818785438 L 46.521484375 309.50256784342037 L 47.986328125 308.9302566020007 L 49.59765625 307.9616489570486 L 51.35546875 306.5092614189217 L 53.40625 304.30855438335004 L 55.603515625 301.3688174963879 L 57.947265625 297.6018312193872 L 60.4375 292.92807800264313 L 63.07421875 287.2808780634504 L 66.00390625 280.24117727196864 L 69.2265625 271.67724321921406 L 73.03515625 260.6260981854378 L 77.576171875 246.4384561060815 L 83.875 225.6548186419383 L 95.154296875 188.3560375345635 L 99.98828125 173.51210186076904 L 103.943359375 162.29555703966352 L 107.458984375 153.19272126819172 L 110.681640625 145.6687902614501 L 113.611328125 139.57566829793086 L 116.39453125 134.4906837716536 L 119.03125 130.33582370965922 L 121.521484375 127.02331373474937 L 123.865234375 124.4600624643785 L 126.208984375 122.44113443728486 L 128.259765625 121.12322770548434 L 130.1640625 120.27388762102942 L 131.921875 119.80795396230707 L 133.533203125 119.64649454299223 L 135.14453125 119.73589867635673 L 136.755859375 120.07222573119088 L 138.513671875 120.71519915852787 L 140.41796875 121.7287813853365 L 142.46875 123.17744190124466 L 144.8125 125.26812653797333 L 147.44921875 128.145533541722 L 150.232421875 131.74510237455576 L 153.30859375 136.3364423479419 L 156.677734375 142.01987371264477 L 160.486328125 149.1442980964048 L 164.880859375 158.09241926985183 L 170.59375 170.50302496496454 L 186.267578125 204.96852409191743 L 190.955078125 214.31459895288944 L 195.056640625 221.80741766091194 L 198.865234375 228.08663273816177 L 202.380859375 233.2377017383414 L 205.75 237.5516565871479 L 208.97265625 241.083646228262 L 212.048828125 243.90123728490633 L 214.83203125 245.982145444699 L 217.46875 247.54662602016217 L 219.958984375 248.66757973637039 L 222.302734375 249.4149265740338 L 224.646484375 249.87464150839324 L 226.990234375 250.05947268462867 L 229.333984375 249.9842277986731 L 231.82421875 249.63801798600844 L 234.4609375 248.99660898793275 L 237.390625 247.98662431304822 L 240.61328125 246.56293080493685 L 244.275390625 244.62072612086067 L 248.962890625 241.77096241460566 L 258.044921875 235.77030255513944 L 264.34375 231.82400181858824 L 268.73828125 229.428778653453 L 272.546875 227.6951501384978 L 275.916015625 226.47920866078266 L 278.9921875 225.65991215410392 L 281.921875 225.15635785547153 L 284.705078125 224.9387343306481 L 287.48828125 224.98061041801256 L 290.271484375 225.28284537989836 L 293.0546875 225.84189454377142 L 295.984375 226.69909473934106 L 299.060546875 227.88036370963576 L 302.4296875 229.4784643328868 L 306.23828125 231.62254629728258 L 310.6328125 234.4596392026905 L 316.4921875 238.65319377636047 L 329.96875 248.44012236936607 L 334.36328125 251.15365315177448 L 338.025390625 253.06317318199018 L 341.248046875 254.4178443918386 L 344.177734375 255.34589155177287 L 346.814453125 255.90906394149636 L 349.451171875 256.1955650298364 L 351.94140625 256.19849043843715 L 354.431640625 255.93121290238798 L 356.921875 255.38659527907697 L 359.412109375 254.5604505096503 L 362.048828125 253.3776459550595 L 364.83203125 251.78818171937345 L 367.76171875 249.74527588918414 L 370.984375 247.07789049640527 L 374.5 243.6988103476575 L 378.6015625 239.20178405063817 L 383.142578125 233.63935116730568 L 388.708984375 226.21458508501135 L 405.701171875 203.1174053872796 L 409.802734375 198.36052360645263 L 413.46484375 194.66875102543406 L 416.6875 191.94799778194903 L 419.470703125 190.0550904258427 L 421.814453125 188.82356538396024 L 424.01171875 187.9928998660944 L 426.0625 187.51683539658643 L 427.966796875 187.34546987031212 L 429.87109375 187.44460831008507 L 431.775390625 187.82266187309486 L 433.6796875 188.48682058359253 L 435.583984375 189.4429946328271 L 437.634765625 190.80451391437896 L 439.83203125 192.64939118995892 L 442.322265625 195.22589806435357 L 444.958984375 198.51559047346927 L 447.595703125 202.37699740626795 L 450.37890625 207.0603104917812 L 453.30859375 212.64184731551035 L 456.53125 219.51566737505752 L 459.900390625 227.46677693095242 L 463.708984375 237.3020040583272 L 467.95703125 249.17813917036403 L 473.083984375 264.49299312815356 L 480.701171875 288.3589372924355 L 489.783203125 316.6014663562462 L 494.6171875 330.6359110277818 L 498.572265625 341.2140300802638 L 502.087890625 349.7384737212382 L 505.1640625 356.3971745885986 L 507.947265625 361.6966642304825 L 510.583984375 366.02214338194995 L 512.927734375 369.2585778891259 L 515.271484375 371.88985258130356 L 517.46875 373.7824641533345 L 519.373046875 374.9574997784593 L 520.984375 375.60564778265564 L 522.44921875 375.9144447321705 L 523.9140625 375.95246945590094 L 525.37890625 375.7168306058559 L 526.84375 375.20532225615074 L 528.455078125 374.3222560864167 L 530.212890625 372.97498652564286 L 532.1171875 371.06356354496864 L 534.16796875 368.4820359591955 L 536.365234375 365.12029216938964 L 538.708984375 360.8665337743108 L 541.19921875 355.6104736861324 L 543.8359375 349.2473398171929 L 546.619140625 341.68274618399846 L 549.6953125 332.37377351237535 L 553.064453125 321.1356707938778 L 556.7265625 307.8328375329829 L 560.974609375 291.22764196373987 L 566.248046875 269.3391935448559 L 584.265625 193.413332502121 L 588.3671875 178.049438577885 L 591.8828125 166.0395772999841 L 594.958984375 156.58277206077796 L 597.7421875 148.98751146531765 L 599.5 144.70350394856226" stroke-linecap="round" stroke-linejoin="round" stroke-miterlimit="10" stroke-width="2.5" stroke-opacity="0.9" stroke-dasharray=""/></g></g></g><g id="labels-8656b905"/></g></svg>