<svg version="1.1" xmlns="http://www.w3.org/2000/svg" xmlns:xlink="http://www.w3.org/1999/xlink" width="600" height="400"><defs/><g transform="scale(1,1)"><g id="background-d51a9bd9"><rect fill="white" stroke="none" x="0" y="0" width="600" height="400" class="dcg-svg-background"/></g><g id="background-images-d51a9bd9"/><g id="graphpaper-d51a9bd9"><g id="grid-d51a9bd9"><g><path fill="none" stroke="rgb(0,0,0)" class="dcg-svg-minor-gridline" paint-order="fill stroke markers" d=" M -0.5 0 L -0.5 400" stroke-opacity="0.12" stroke-miterlimit="10" stroke-dasharray=""/><path fill="none" stroke="rgb(0,0,0)" class="dcg-svg-minor-gridline" paint-order="fill stroke markers" d=" M 29.5 0 L 29.5 400" stroke-opacity="0.12" stroke-miterlimit="10" stroke-dasharray=""/><path fill="none" stroke="rgb(0,0,0)" class="dcg-svg-minor-gridline" paint-order="fill stroke markers" d=" M 59.5 0 L 59.5 400" stroke-opacity="0.12" stroke-miterlimit="10" stroke-dasharray=""/><path fill="none" stroke="rgb(0,0,0)" class="dcg-svg-minor-gridline" paint-order="fill stroke markers" d=" M 89.5 0 L 89.5 400" stroke-opacity="0.12" stroke-miterlimit="10" stroke-dasharray=""/><path fill="none" stroke="rgb(0,0,0)" class="dcg-svg-minor-gridline" paint-order="fill stroke markers" d=" M 119.5 0 L 119.5 400" stroke-opacity="0.12" stroke-miterlimit="10" stroke-dasharray=""/><path fill="none" stroke="rgb(0,0,0)" class="dcg-svg-minor-gridline" paint-order="fill stroke markers" d=" M 149.5 0 L 149.5 400" stroke-opacity="0.12" stroke-miterlimit="10" stroke-dasharray=""/><path fill="none" stroke="rgb(0,0,0)" class="dcg-svg-minor-gridline" paint-order="fill stroke markers" d=" M 179.5 0 L 179.5 400" stroke-opacity="0.12" stroke-miterlimit="10" stroke-dasharray=""/><path fill="none" stroke="rgb(0,0,0)" class="dcg-svg-minor-gridline" paint-order="fill stroke markers" d=" M 209.5 0 L 209.5 400" stroke-opacity="0.12" stroke-miterlimit="10" stroke-dasharray=""/><path fill="none" stroke="rgb(0,0,0)" class="dcg-svg-minor-gridline" paint-order="fill stroke markers" d=" M 239.5 0 L 239.5 400" stroke-opacity="0.12" stroke-miterlimit="10" stroke-dasharray=""/><path fill="none" stroke="rgb(0,0,0)" class="dcg-svg-minor-gridline" paint-order="fill stroke markers" d=" M 269.5 0 L 269.5 400" stroke-opacity="0.12" stroke-miterlimit="10" stroke-dasharray=""/><path fill="none" stroke="rgb(0,0,0)" class="dcg-svg-minor-gridline" paint-order="fill stroke markers" d=" M 329.5 0 L 329.5 400" stroke-opacity="0.12" stroke-miterlimit="10" stroke-dasharray=""/><path fill="none" stroke="rgb(0,0,0)" class="dcg-svg-minor-gridline" paint-order="fill stroke markers" d=" M 359.5 0 L 359.5 400" stroke-opacity="0.12" stroke-miterlimit="10" stroke-dasharray=""/><path fill="none" stroke="rgb(0,0,0)" class="dcg-svg-minor-gridline" paint-order="fill stroke markers" d=" M 389.5 0 L 389.5 400" stroke-opacity="0.12" stroke-miterlimit="10" stroke-dasharray=""/><path fill="none" stroke="rgb(0,0,0)" class="dcg-svg-minor-gridline" paint-order="fill stroke markers" d=" M 419.5 0 L 419.5 400" stroke-opacity="0.12" stroke-miterlimit="10" stroke-dasharray=""/><path fill="none" stroke="rgb(0,0,0)" class="dcg-svg-minor-gridline" paint-order="fill stroke markers" d=" M 449.5 0 L 449.5 400" stroke-opacity="0.12" stroke-miterlimit="10" stroke-dasharray=""/><path fill="none" stroke="rgb(0,0,0)" class="dcg-svg-minor-gridline" paint-order="fill stroke markers" d=" M 479.5 0 L 479.5 400" stroke-opacity="0.12" stroke-miterlimit="10" stroke-dasharray=""/><path fill="none" stroke="rgb(0,0,0)" class="dcg-svg-minor-gridline" paint-order="fill stroke markers" d=" M 509.5 0 L 509.5 400" stroke-opacity="0.12" stroke-miterlimit="10" stroke-dasharray=""/><path fill="none" stroke="rgb(0,0,0)" class="dcg-svg-minor-gridline" paint-order="fill stroke markers" d=" M 539.5 0 L 539.5 400" stroke-opacity="0.12" stroke-miterlimit="10" stroke-dasharray=""/><path fill="none" stroke="rgb(0,0,0)" class="dcg-svg-minor-gridline" paint-order="fill stroke markers" d=" M 569.5 0 L 569.5 400" stroke-opacity="0.12" stroke-miterlimit="10" stroke-dasharray=""/><path fill="none" stroke="rgb(0,0,0)" class="dcg-svg-minor-gridline" paint-order="fill stroke markers" d=" M 0 370.5 L 600 370.5" stroke-opacity="0.12" stroke-miterlimit="10" stroke-dasharray=""/><path fill="none" stroke="rgb(0,0,0)" class="dcg-svg-minor-gridline" paint-order="fill stroke markers" d=" M 0 313.5 L 600 313.5" stroke-opacity="0.12" stroke-miterlimit="10" stroke-dasharray=""/><path fill="none" stroke="rgb(0,0,0)" class="dcg-svg-minor-gridline" paint-order="fill stroke markers" d=" M 0 285.5 L 600 285.5" stroke-opacity="0.12" stroke-miterlimit="10" stroke-dasharray=""/><path fill="none" stroke="rgb(0,0,0)" class="dcg-svg-minor-gridline" paint-order="fill stroke markers" d=" M 0 256.5 L 600 256.5" stroke-opacity="0.12" stroke-miterlimit="10" stroke-dasharray=""/><path fill="none" stroke="rgb(0,0,0)" class="dcg-svg-minor-gridline" paint-order="fill stroke markers" d=" M 0 228.5 L 600 228.5" stroke-opacity="0.12" stroke-miterlimit="10" stroke-dasharray=""/><path fill="none" stroke="rgb(0,0,0)" class="dcg-svg-minor-gridline" paint-order="fill stroke markers" d=" M 0 199.5 L 600 199.5" stroke-opacity="0.12" stroke-miterlimit="10" stroke-dasharray=""/><path fill="none" stroke="rgb(0,0,0)" class="dcg-svg-minor-gridline" paint-order="fill stroke markers" d=" M 0 170.5 L 600 170.5" stroke-opacity="0.12" stroke-miterlimit="10" stroke-dasharray=""/><path fill="none" stroke="rgb(0,0,0)" class="dcg-svg-minor-gridline" paint-order="fill stroke markers" d=" M 0 142.5 L 600 142.5" stroke-opacity="0.12" stroke-miterlimit="10" stroke-dasharray=""/><path fill="none" stroke="rgb(0,0,0)" class="dcg-svg-minor-gridline" paint-order="fill stroke markers" d=" M 0 113.5 L 600 113.5" stroke-opacity="0.12" stroke-miterlimit="10" stroke-dasharray=""/><path fill="none" stroke="rgb(0,0,0)" class="dcg-svg-minor-gridline" paint-order="fill stroke markers" d=" M 0 85.5 L 600 85.5" stroke-opacity="0.12" stroke-miterlimit="10" stroke-dasharray=""/><path fill="none" stroke="rgb(0,0,0)" class="dcg-svg-minor-gridline" paint-order="fill stroke markers" d=" M 0 56.5 L 600 56.5" stroke-opacity="0.12" stroke-miterlimit="10" stroke-dasharray=""/><path fill="none" stroke="rgb(0,0,0)" class="dcg-svg-minor-gridline" paint-order="fill stroke markers" d=" M 0 28.5 L 600 28.5" stroke-opacity="0.12" stroke-miterlimit="10" stroke-dasharray=""/><path fill="none" stroke="rgb(0,0,0)" class="dcg-svg-minor-gridline" paint-order="fill stroke markers" d=" M 0 -0.5 L 600 -0.5" stroke-opacity="0.12" stroke-miterlimit="10" stroke-dasharray=""/><path fill="none" stroke="rgb(0,0,0)" class="dcg-svg-major-gridline" paint-order="fill stroke markers" d=" M -0.5 0 L -0.5 400" stroke-opacity="0.31818181818181823" stroke-miterlimit="10" stroke-dasharray=""/><path fill="none" stroke="rgb(0,0,0)" class="dcg-svg-major-gridline" paint-order="fill stroke markers" d=" M 149.5 0 L 149.5 400" stroke-opacity="0.31818181818181823" stroke-miterlimit="10" stroke-dasharray=""/><path fill="none" stroke="rgb(0,0,0)" class="dcg-svg-major-gridline" paint-order="fill stroke markers" d=" M 449.5 0 L 449.5 400" stroke-opacity="0.31818181818181823" stroke-miterlimit="10" stroke-dasharray=""/><path fill="none" stroke="rgb(0,0,0)" class="dcg-svg-major-gridline" paint-order="fill stroke markers" d=" M 0 199.5 L 600 199.5" stroke-opacity="0.31818181818181823" stroke-miterlimit="10" stroke-dasharray=""/><path fill="none" stroke="rgb(0,0,0)" class="dcg-svg-major-gridline" paint-order="fill stroke markers" d=" M 0 56.5 L 600 56.5" stroke-opacity="0.31818181818181823" stroke-miterlimit="10" stroke-dasharray=""/></g></g><g id="axis-d51a9bd9"><g id="yaxis-d51a9bd9"><title>Y axis</title><path fill="none" stroke="rgb(0,0,0)" class="dcg-svg-axis-line" paint-order="fill stroke markers" d=" M 299.75 0 L 299.75 400" stroke-opacity="0.9" stroke-miterlimit="10" stroke-width="1.5" stroke-dasharray=""/></g><g id="xaxis-d51a9bd9"><title>X axis</title><path fill="none" stroke="rgb(0,0,0)" class="dcg-svg-axis-line" paint-order="fill stroke markers" d=" M 0 342.75 L 600 342.75" stroke-opacity="0.9" stroke-miterlimit="10" stroke-width="1.5" stroke-dasharray=""/></g><g/></g></g><g id="expressions-d51a9bd9"><g id="sketch-d51a9bd9"><title>Expression 1</title><path fill="#2d70b3" stroke="none" paint-order="stroke fill markers" d="" fill-opacity="0.4"/><g><path fill="none" stroke="#2d70b3" class="dcg-svg-curve" paint-order="fill stroke markers" d=" M -0.5 285.21428571428567 L -0.5 285.21428571428567 L 4.041015625 273.6501364100253 L 8.435546875 263.29387140653546 L 12.830078125 253.7291757781721 L 17.224609375 244.92722503927973 L 21.47265625 237.11701797026208 L 25.720703125 229.967774816142 L 29.96875 223.45462702427588 L 34.216796875 217.5530889398309 L 38.46484375 212.23905780578514 L 42.712890625 207.48881376292732 L 47.107421875 203.14321520070555 L 51.35546875 199.46835727055262 L 55.45703125 196.38934905653215 L 59.412109375 193.8378943808051 L 63.220703125 191.7517906720491 L 67.029296875 190.0138701614776 L 70.69140625 188.6569708117718 L 74.353515625 187.59459100309644 L 78.015625 186.81362375962942 L 81.677734375 186.3011735766009 L 85.486328125 186.03943593121926 L 89.294921875 186.04038366367683 L 93.25 186.30463518415175 L 97.3515625 186.84600099144566 L 101.599609375 187.67618588067688 L 105.994140625 188.80459112818284 L 110.681640625 190.28866027715114 L 115.662109375 192.15732532417292 L 121.08203125 194.50150096025334 L 126.94140625 197.36184196168287 L 133.38671875 200.851263367152 L 140.564453125 205.09707730900197 L 148.767578125 210.32631200261756 L 158.58203125 216.97631314874954 L 172.3515625 226.7368086456221 L 198.865234375 245.5856993874277 L 209.8515625 252.94282891143976 L 219.080078125 258.74769987614934 L 227.4296875 263.6342000258321 L 235.046875 267.74313848988993 L 242.224609375 271.27734432904435 L 248.962890625 274.2728279884102 L 255.408203125 276.8276348652952 L 261.560546875 278.96921855316356 L 267.56640625 280.76895954219 L 273.42578125 282.2392894744099 L 279.138671875 283.3947358494497 L 284.705078125 284.25151080299435 L 290.271484375 284.8391317903596 L 295.69140625 285.1503392923038 L 301.111328125 285.20283816832267 L 306.53125 284.99642275486667 L 311.951171875 284.53190199523124 L 317.517578125 283.7880857206263 L 323.083984375 282.7770416683545 L 328.796875 281.46595488337886 L 334.65625 279.8395566131387 L 340.662109375 277.88438101983473 L 346.814453125 275.58918354799187 L 353.259765625 272.88049351753904 L 359.998046875 269.73292520547534 L 367.17578125 266.04788756747746 L 374.79296875 261.79301936191837 L 382.99609375 256.85642679098544 L 392.224609375 250.9264301798984 L 402.91796875 243.66098720614949 L 417.419921875 233.37675436243526 L 443.0546875 215.15609376730637 L 453.162109375 208.4185120493003 L 461.365234375 203.32258896691627 L 468.54296875 199.22385703030812 L 474.98828125 195.8918150211265 L 480.84765625 193.19613153906224 L 486.267578125 191.02318876046232 L 491.248046875 189.32839150158622 L 495.935546875 188.02280730971768 L 500.330078125 187.07512737544496 L 504.578125 186.43224716532438 L 508.6796875 186.0837342525732 L 512.634765625 186.01684504754124 L 516.443359375 186.21672716028195 L 520.10546875 186.66662860463524 L 523.767578125 187.3819836551748 L 527.4296875 188.37563706361797 L 531.091796875 189.66064505273428 L 534.75390625 191.25027531634566 L 538.416015625 193.15800701932633 L 542.224609375 195.49420893745 L 546.033203125 198.20492145674586 L 549.98828125 201.43332292975742 L 554.08984375 205.24531657079896 L 558.337890625 209.7131279689355 L 562.5859375 214.73260781084116 L 566.833984375 220.32727790513525 L 571.08203125 226.52104295824805 L 575.330078125 233.33819057442045 L 579.578125 240.80339125570438 L 583.826171875 248.9416984019624 L 588.07421875 257.778548310868 L 592.322265625 267.3397601779054 L 596.716796875 278.020822012857 L 599.5 285.21428571428567" stroke-linecap="round" stroke-linejoin="round" stroke-miterlimit="10" stroke-width="2.5" stroke-opacity="0.9" stroke-dasharray=""/></g></g><g id="sketch-d51a9bd9"><title>Expression 2</title><path fill="#388c46" stroke="none" paint-order="stroke fill markers" d="" fill-opacity="0.4"/><path fill="#388c46" stroke="none" paint-order="stroke fill markers" d="" fill-opacity="0.4"/><path fill="#388c46" stroke="none" class="dcg-svg-region" paint-order="stroke fill markers" d=" M -0.5 342.35714285714283 L 599.5 342.35714285714283 L 599.5 285.21428571428567 L 596.716796875 278.020822012857 L 592.322265625 267.3397601779054 L 588.07421875 257.778548310868 L 583.826171875 248.9416984019624 L 579.578125 240.80339125570438 L 575.330078125 233.33819057442045 L 571.08203125 226.52104295824805 L 566.833984375 220.32727790513525 L 562.5859375 214.73260781084116 L 558.337890625 209.7131279689355 L 554.08984375 205.24531657079896 L 549.98828125 201.43332292975742 L 546.033203125 198.20492145674586 L 542.224609375 195.49420893745 L 538.416015625 193.15800701932633 L 534.75390625 191.25027531634566 L 531.091796875 189.66064505273428 L 527.4296875 188.37563706361797 L 523.767578125 187.3819836551748 L 520.10546875 186.66662860463524 L 516.443359375 186.21672716028195 L 512.634765625 186.01684504754124 L 508.6796875 186.0837342525732 L 504.578125 186.43224716532438 L 500.330078125 187.07512737544496 L 495.935546875 188.02280730971768 L 491.248046875 189.32839150158622 L 486.267578125 191.02318876046232 L 480.84765625 193.19613153906224 L 474.98828125 195.8918150211265 L 468.54296875 199.22385703030812 L 461.365234375 203.32258896691627 L 453.162109375 208.4185120493003 L 443.0546875 215.15609376730637 L 417.419921875 233.37675436243526 L 402.91796875 243.66098720614949 L 392.224609375 250.9264301798984 L 382.99609375 256.85642679098544 L 374.79296875 261.79301936191837 L 367.17578125 266.04788756747746 L 359.998046875 269.73292520547534 L 353.259765625 272.88049351753904 L 346.814453125 275.58918354799187 L 340.662109375 277.88438101983473 L 334.65625 279.8395566131387 L 328.796875 281.46595488337886 L 323.083984375 282.7770416683545 L 317.517578125 283.7880857206263 L 311.951171875 284.53190199523124 L 306.53125 284.99642275486667 L 301.111328125 285.20283816832267 L 295.69140625 285.1503392923038 L 290.271484375 284.8391317903596 L 284.705078125 284.25151080299435 L 279.138671875 283.3947358494497 L 273.42578125 282.2392894744099 L 267.56640625 280.76895954219 L 261.560546875 278.96921855316356 L 255.408203125 276.8276348652952 L 248.962890625 274.2728279884102 L 242.224609375 271.27734432904435 L 235.046875 267.74313848988993 L 227.4296875 263.6342000258321 L 219.080078125 258.74769987614934 L 209.8515625 252.94282891143976 L 198.865234375 245.5856993874277 L 172.3515625 226.7368086456221 L 158.58203125 216.97631314874954 L 148.767578125 210.32631200261756 L 140.564453125 205.09707730900197 L 133.38671875 200.851263367152 L 126.94140625 197.36184196168287 L 121.08203125 194.50150096025334 L 115.662109375 192.15732532417292 L 110.681640625 190.28866027715114 L 105.994140625 188.80459112818284 L 101.599609375 187.67618588067688 L 97.3515625 186.84600099144566 L 93.25 186.30463518415175 L 89.294921875 186.04038366367683 L 85.486328125 186.03943593121926 L 81.677734375 186.3011735766009 L 78.015625 186.81362375962942 L 74.353515625 187.59459100309644 L 70.69140625 188.6569708117718 L 67.029296875 190.0138701614776 L 63.220703125 191.7517906720491 L 59.412109375 193.8378943808051 L 55.45703125 196.38934905653215 L 51.35546875 199.46835727055262 L 47.107421875 203.14321520070555 L 42.712890625 207.48881376292732 L 38.46484375 212.23905780578514 L 34.216796875 217.5530889398309 L 29.96875 223.45462702427588 L 25.720703125 229.967774816142 L 21.47265625 237.11701797026208 L 17.224609375 244.92722503927973 L 12.830078125 253.7291757781721 L 8.435546875 263.29387140653546 L 4.041015625 273.6501364100253 L -0.5 285.21428571428567" fill-opacity="0.4"/><g><path fill="none" stroke="#388c46" class="dcg-svg-curve" paint-order="fill stroke markers" d=" M -0.5 342.35714285714283 L 10.5 342.35714285714283 M 17.5 342.35714285714283 L 28.5 342.35714285714283 M 35.5 342.35714285714283 L 46.5 342.35714285714283 M 53.5 342.35714285714283 L 64.5 342.35714285714283 M 71.5 342.35714285714283 L 82.5 342.35714285714283 M 89.5 342.35714285714283 L 100.5 342.35714285714283 M 107.5 342.35714285714283 L 118.5 342.35714285714283 M 125.5 342.35714285714283 L 136.5 342.35714285714283 M 143.5 342.35714285714283 L 154.5 342.35714285714283 M 161.5 342.35714285714283 L 172.5 342.35714285714283 M 179.5 342.35714285714283 L 190.5 342.35714285714283 M 197.5 342.35714285714283 L 208.5 342.35714285714283 M 215.5 342.35714285714283 L 226.5 342.35714285714283 M 233.5 342.35714285714283 L 244.5 342.35714285714283 M 251.5 342.35714285714283 L 262.5 342.35714285714283 M 269.5 342.35714285714283 L 280.5 342.35714285714283 M 287.5 342.35714285714283 L 298.5 342.35714285714283 M 305.5 342.35714285714283 L 316.5 342.35714285714283 M 323.5 342.35714285714283 L 334.5 342.35714285714283 M 341.5 342.35714285714283 L 352.5 342.35714285714283 M 359.5 342.35714285714283 L 370.5 342.35714285714283 M 377.5 342.35714285714283 L 388.5 342.35714285714283 M 395.5 342.35714285714283 L 406.5 342.35714285714283 M 413.5 342.35714285714283 L 424.5 342.35714285714283 M 431.5 342.35714285714283 L 442.5 342.35714285714283 M 449.5 342.35714285714283 L 460.5 342.35714285714283 M 467.5 342.35714285714283 L 478.5 342.35714285714283 M 485.5 342.35714285714283 L 496.5 342.35714285714283 M 503.5 342.35714285714283 L 514.5 342.35714285714283 M 521.5 342.35714285714283 L 532.5 342.35714285714283 M 539.5 342.35714285714283 L 550.5 342.35714285714283 M 557.5 342.35714285714283 L 568.5 342.35714285714283 M 575.5 342.35714285714283 L 586.5 342.35714285714283 M 593.5 342.35714285714283 L 599.5 342.35714285714283" stroke-linecap="round" stroke-linejoin="round" stroke-miterlimit="10" stroke-width="2.5" stroke-opacity="0.9" stroke-dasharray=""/></g><g><path fill="none" stroke="#388c46" class="dcg-svg-curve" paint-order="fill stroke markers" d=" M -0.5 285.21428571428567 L 3.520609005780198 274.9754037820316 M 6.219211555035734 268.51694404031053 L 8.435546875 263.29387140653546 M 8.435546875 263.29387140653546 L 10.659188850099065 258.45411547619017 M 13.63421305787894 252.1185475532339 L 17.224609375 244.92722503927973 M 17.224609375 244.92722503927973 L 18.639970679728446 242.32502567738965 M 22.019987158807723 236.19588836223912 L 25.720703125 229.967774816142 M 25.720703125 229.967774816142 L 27.77225531683808 226.82231455608581 M 31.709291618299247 221.03660458944705 L 34.216796875 217.5530889398309 M 34.216796875 217.5530889398309 L 38.405253014040156 212.31360195172076 M 43.0911080465119 207.11480775645524 L 47.107421875 203.14321520070555 M 47.107421875 203.14321520070555 L 51.15477078727693 199.6419750581102 M 56.806556238303365 195.51875896131952 L 59.412109375 193.8378943808051 M 59.412109375 193.8378943808051 L 63.220703125 191.7517906720491 M 63.220703125 191.7517906720491 L 66.45656171427757 190.27521811515342 M 73.05884333655584 187.97017609825613 L 74.353515625 187.59459100309644 M 74.353515625 187.59459100309644 L 78.015625 186.81362375962942 M 78.015625 186.81362375962942 L 81.677734375 186.3011735766009 M 81.677734375 186.3011735766009 L 83.88223764820431 186.1496736966348 M 90.87493140239418 186.1459491940616 L 93.25 186.30463518415175 M 93.25 186.30463518415175 L 97.3515625 186.84600099144566 M 97.3515625 186.84600099144566 L 101.599609375 187.67618588067688 M 101.599609375 187.67618588067688 L 101.74886078621817 187.71450989432822 M 108.48908527216398 189.59449414242064 L 110.681640625 190.28866027715114 M 110.681640625 190.28866027715114 L 115.662109375 192.15732532417292 M 115.662109375 192.15732532417292 L 118.76501162237727 193.49936456702474 M 125.10394199946094 196.46485647526532 L 126.94140625 197.36184196168287 M 126.94140625 197.36184196168287 L 133.38671875 200.851263367152 M 133.38671875 200.851263367152 L 134.7862253904239 201.67910743258852 M 140.80608187674568 205.2511080535784 L 148.767578125 210.32631200261756 M 148.767578125 210.32631200261756 L 150.05774538710713 211.20049354512855 M 155.85276475592278 215.12703789290455 L 158.58203125 216.97631314874954 M 158.58203125 216.97631314874954 L 164.86652878472427 221.4310624625857 M 170.5773152878286 225.47913824200995 L 172.3515625 226.7368086456221 M 172.3515625 226.7368086456221 L 179.5443947056202 231.85028025404583 M 185.24961810263284 235.906192727236 L 194.21496915508126 242.27976947082058 M 199.9407314630549 246.30591921788334 L 209.080628342057 252.42656338669494 M 214.99145653701305 256.175897247621 L 219.080078125 258.74769987614934 M 219.080078125 258.74769987614934 L 224.40498938523444 261.8640348448356 M 230.50603399543272 265.29367321640973 L 235.046875 267.74313848988993 M 235.046875 267.74313848988993 L 240.28675567802162 270.3231750196949 M 246.6472641475432 273.24342286014894 L 248.962890625 274.2728279884102 M 248.962890625 274.2728279884102 L 255.408203125 276.8276348652952 M 255.408203125 276.8276348652952 L 256.8556996455209 277.3314973057828 M 263.49386939890286 279.5485660826378 L 267.56640625 280.76895954219 M 267.56640625 280.76895954219 L 273.42578125 282.2392894744099 M 273.42578125 282.2392894744099 L 274.11924107401 282.3795434530843 M 280.9957382887102 283.6805734112223 L 284.705078125 284.25151080299435 M 284.705078125 284.25151080299435 L 290.271484375 284.8391317903596 M 290.271484375 284.8391317903596 L 291.918413428632 284.93369711592715 M 298.91204775483595 285.1815353248229 L 301.111328125 285.20283816832267 M 301.111328125 285.20283816832267 L 306.53125 284.99642275486667 M 306.53125 284.99642275486667 L 309.89568120078053 284.70807023371015 M 316.84465025300165 283.8780063409238 L 317.517578125 283.7880857206263 M 317.517578125 283.7880857206263 L 323.083984375 282.7770416683545 M 323.083984375 282.7770416683545 L 327.6294294667891 281.73387921647804 M 334.38770019118135 279.9140985130062 L 334.65625 279.8395566131387 M 334.65625 279.8395566131387 L 340.662109375 277.88438101983473 M 340.662109375 277.88438101983473 L 344.7894537191547 276.34463117992556 M 351.2752153456355 273.7145153832976 L 353.259765625 272.88049351753904 M 353.259765625 272.88049351753904 L 359.998046875 269.73292520547534 M 359.998046875 269.73292520547534 L 361.252520884354 269.0888802048048 M 367.4741162538104 265.88124126629106 L 374.79296875 261.79301936191837 M 374.79296875 261.79301936191837 L 377.0350224523562 260.44376457783494 M 383.0320566070992 256.8333180236182 L 392.224609375 250.9264301798984 M 392.224609375 250.9264301798984 L 392.2851793031091 250.88527684882925 M 398.0751854416603 246.9513438403073 L 402.91796875 243.66098720614949 M 402.91796875 243.66098720614949 L 407.1149151359955 240.68467267154006 M 412.82485406430055 236.63540144883515 L 417.419921875 233.37675436243526 M 417.419921875 233.37675436243526 L 421.7942743111029 230.26755522920908 M 427.4998555827007 226.21214620505472 L 436.4657690094972 219.8393605956693 M 442.171350281095 215.7839515715149 L 443.0546875 215.15609376730637 M 443.0546875 215.15609376730637 L 451.3057789982502 209.6559371576659 M 457.2131191323629 205.90195474589353 L 461.365234375 203.32258896691627 M 461.365234375 203.32258896691627 L 466.6727805783816 200.2917984706013 M 472.8480783567367 196.9982386349583 L 474.98828125 195.8918150211265 M 474.98828125 195.8918150211265 L 480.84765625 193.19613153906224 M 480.84765625 193.19613153906224 L 482.83488616365076 192.39941583173757 M 489.39326869146265 189.9595515668476 L 491.248046875 189.32839150158622 M 491.248046875 189.32839150158622 L 495.935546875 188.02280730971768 M 495.935546875 188.02280730971768 L 500.016582606558 187.1427326319355 M 506.95245006193454 186.23049894299376 L 508.6796875 186.0837342525732 M 508.6796875 186.0837342525732 L 512.634765625 186.01684504754124 M 512.634765625 186.01684504754124 L 516.443359375 186.21672716028195 M 516.443359375 186.21672716028195 L 517.9292476787803 186.39927312643522 M 524.8061210499777 187.66377527075664 L 527.4296875 188.37563706361797 M 527.4296875 188.37563706361797 L 531.091796875 189.66064505273428 M 531.091796875 189.66064505273428 L 534.75390625 191.25027531634566 M 534.75390625 191.25027531634566 L 535.116032952378 191.43892085362492 M 541.211152840218 194.87255190183348 L 542.224609375 195.49420893745 M 542.224609375 195.49420893745 L 546.033203125 198.20492145674586 M 546.033203125 198.20492145674586 L 549.98828125 201.43332292975742 M 549.98828125 201.43332292975742 L 550.0109180890481 201.454361615991 M 555.0761827012653 206.28268186797197 L 558.337890625 209.7131279689355 M 558.337890625 209.7131279689355 L 562.3860828177429 214.49646009910012 M 566.6319714826811 220.06122728927 L 566.833984375 220.32727790513525 M 566.833984375 220.32727790513525 L 571.08203125 226.52104295824805 M 571.08203125 226.52104295824805 L 572.7507976354544 229.19903289604724 M 576.3800567048976 235.1833446041732 L 579.578125 240.80339125570438 M 579.578125 240.80339125570438 L 581.676043411939 244.8225334418766 M 584.8458163570231 251.062777927028 L 588.07421875 257.778548310868 M 588.07421875 257.778548310868 L 589.5150290931934 261.02142518036857 M 592.3550277120675 267.41938957587814 L 596.5403820548886 277.5920396251538 M 599.0753737461403 284.11679717082404 L 599.5 285.21428571428567" stroke-linecap="round" stroke-linejoin="round" stroke-miterlimit="10" stroke-width="2.5" stroke-opacity="0.9" stroke-dasharray=""/></g></g></g><g id="labels-d51a9bd9"/></g></svg>