<svg version="1.1" xmlns="http://www.w3.org/2000/svg" xmlns:xlink="http://www.w3.org/1999/xlink" width="600" height="400"><defs/><g transform="scale(1,1)"><g id="background-b710cefd"><rect fill="white" stroke="none" x="0" y="0" width="600" height="400" class="dcg-svg-background"/></g><g id="background-images-b710cefd"/><g id="graphpaper-b710cefd"><g id="grid-b710cefd"><g><path fill="none" stroke="rgb(0,0,0)" class="dcg-svg-minor-gridline" paint-order="fill stroke markers" d=" M -0.5 0 L -0.5 400" stroke-opacity="0.12" stroke-miterlimit="10" stroke-dasharray=""/><path fill="none" stroke="rgb(0,0,0)" class="dcg-svg-minor-gridline" paint-order="fill stroke markers" d=" M 19.5 0 L 19.5 400" stroke-opacity="0.12" stroke-miterlimit="10" stroke-dasharray=""/><path fill="none" stroke="rgb(0,0,0)" class="dcg-svg-minor-gridline" paint-order="fill stroke markers" d=" M 39.5 0 L 39.5 400" stroke-opacity="0.12" stroke-miterlimit="10" stroke-dasharray=""/><path fill="none" stroke="rgb(0,0,0)" class="dcg-svg-minor-gridline" paint-order="fill stroke markers" d=" M 59.5 0 L 59.5 400" stroke-opacity="0.12" stroke-miterlimit="10" stroke-dasharray=""/><path fill="none" stroke="rgb(0,0,0)" class="dcg-svg-minor-gridline" paint-order="fill stroke markers" d=" M 79.5 0 L 79.5 400" stroke-opacity="0.12" stroke-miterlimit="10" stroke-dasharray=""/><path fill="none" stroke="rgb(0,0,0)" class="dcg-svg-minor-gridline" paint-order="fill stroke markers" d=" M 99.5 0 L 99.5 400" stroke-opacity="0.12" stroke-miterlimit="10" stroke-dasharray=""/><path fill="none" stroke="rgb(0,0,0)" class="dcg-svg-minor-gridline" paint-order="fill stroke markers" d=" M 119.5 0 L 119.5 400" stroke-opacity="0.12" stroke-miterlimit="10" stroke-dasharray=""/><path fill="none" stroke="rgb(0,0,0)" class="dcg-svg-minor-gridline" paint-order="fill stroke markers" d=" M 139.5 0 L 139.5 400" stroke-opacity="0.12" stroke-miterlimit="10" stroke-dasharray=""/><path fill="none" stroke="rgb(0,0,0)" class="dcg-svg-minor-gridline" paint-order="fill stroke markers" d=" M 159.5 0 L 159.5 400" stroke-opacity="0.12" stroke-miterlimit="10" stroke-dasharray=""/><path fill="none" stroke="rgb(0,0,0)" class="dcg-svg-minor-gridline" paint-order="fill stroke markers" d=" M 179.5 0 L 179.5 400" stroke-opacity="0.12" stroke-miterlimit="10" stroke-dasharray=""/><path fill="none" stroke="rgb(0,0,0)" class="dcg-svg-minor-gridline" paint-order="fill stroke markers" d=" M 219.5 0 L 219.5 400" stroke-opacity="0.12" stroke-miterlimit="10" stroke-dasharray=""/><path fill="none" stroke="rgb(0,0,0)" class="dcg-svg-minor-gridline" paint-order="fill stroke markers" d=" M 239.5 0 L 239.5 400" stroke-opacity="0.12" stroke-miterlimit="10" stroke-dasharray=""/><path fill="none" stroke="rgb(0,0,0)" class="dcg-svg-minor-gridline" paint-order="fill stroke markers" d=" M 259.5 0 L 259.5 400" stroke-opacity="0.12" stroke-miterlimit="10" stroke-dasharray=""/><path fill="none" stroke="rgb(0,0,0)" class="dcg-svg-minor-gridline" paint-order="fill stroke markers" d=" M 279.5 0 L 279.5 400" stroke-opacity="0.12" stroke-miterlimit="10" stroke-dasharray=""/><path fill="none" stroke="rgb(0,0,0)" class="dcg-svg-minor-gridline" paint-order="fill stroke markers" d=" M 299.5 0 L 299.5 400" stroke-opacity="0.12" stroke-miterlimit="10" stroke-dasharray=""/><path fill="none" stroke="rgb(0,0,0)" class="dcg-svg-minor-gridline" paint-order="fill stroke markers" d=" M 319.5 0 L 319.5 400" stroke-opacity="0.12" stroke-miterlimit="10" stroke-dasharray=""/><path fill="none" stroke="rgb(0,0,0)" class="dcg-svg-minor-gridline" paint-order="fill stroke markers" d=" M 339.5 0 L 339.5 400" stroke-opacity="0.12" stroke-miterlimit="10" stroke-dasharray=""/><path fill="none" stroke="rgb(0,0,0)" class="dcg-svg-minor-gridline" paint-order="fill stroke markers" d=" M 359.5 0 L 359.5 400" stroke-opacity="0.12" stroke-miterlimit="10" stroke-dasharray=""/><path fill="none" stroke="rgb(0,0,0)" class="dcg-svg-minor-gridline" paint-order="fill stroke markers" d=" M 379.5 0 L 379.5 400" stroke-opacity="0.12" stroke-miterlimit="10" stroke-dasharray=""/><path fill="none" stroke="rgb(0,0,0)" class="dcg-svg-minor-gridline" paint-order="fill stroke markers" d=" M 399.5 0 L 399.5 400" stroke-opacity="0.12" stroke-miterlimit="10" stroke-dasharray=""/><path fill="none" stroke="rgb(0,0,0)" class="dcg-svg-minor-gridline" paint-order="fill stroke markers" d=" M 419.5 0 L 419.5 400" stroke-opacity="0.12" stroke-miterlimit="10" stroke-dasharray=""/><path fill="none" stroke="rgb(0,0,0)" class="dcg-svg-minor-gridline" paint-order="fill stroke markers" d=" M 439.5 0 L 439.5 400" stroke-opacity="0.12" stroke-miterlimit="10" stroke-dasharray=""/><path fill="none" stroke="rgb(0,0,0)" class="dcg-svg-minor-gridline" paint-order="fill stroke markers" d=" M 459.5 0 L 459.5 400" stroke-opacity="0.12" stroke-miterlimit="10" stroke-dasharray=""/><path fill="none" stroke="rgb(0,0,0)" class="dcg-svg-minor-gridline" paint-order="fill stroke markers" d=" M 479.5 0 L 479.5 400" stroke-opacity="0.12" stroke-miterlimit="10" stroke-dasharray=""/><path fill="none" stroke="rgb(0,0,0)" class="dcg-svg-minor-gridline" paint-order="fill stroke markers" d=" M 499.5 0 L 499.5 400" stroke-opacity="0.12" stroke-miterlimit="10" stroke-dasharray=""/><path fill="none" stroke="rgb(0,0,0)" class="dcg-svg-minor-gridline" paint-order="fill stroke markers" d=" M 519.5 0 L 519.5 400" stroke-opacity="0.12" stroke-miterlimit="10" stroke-dasharray=""/><path fill="none" stroke="rgb(0,0,0)" class="dcg-svg-minor-gridline" paint-order="fill stroke markers" d=" M 539.5 0 L 539.5 400" stroke-opacity="0.12" stroke-miterlimit="10" stroke-dasharray=""/><path fill="none" stroke="rgb(0,0,0)" class="dcg-svg-minor-gridline" paint-order="fill stroke markers" d=" M 559.5 0 L 559.5 400" stroke-opacity="0.12" stroke-miterlimit="10" stroke-dasharray=""/><path fill="none" stroke="rgb(0,0,0)" class="dcg-svg-minor-gridline" paint-order="fill stroke markers" d=" M 579.5 0 L 579.5 400" stroke-opacity="0.12" stroke-miterlimit="10" stroke-dasharray=""/><path fill="none" stroke="rgb(0,0,0)" class="dcg-svg-minor-gridline" paint-order="fill stroke markers" d=" M 0 377.5 L 600 377.5" stroke-opacity="0.12" stroke-miterlimit="10" stroke-dasharray=""/><path fill="none" stroke="rgb(0,0,0)" class="dcg-svg-minor-gridline" paint-order="fill stroke markers" d=" M 0 355.5 L 600 355.5" stroke-opacity="0.12" stroke-miterlimit="10" stroke-dasharray=""/><path fill="none" stroke="rgb(0,0,0)" class="dcg-svg-minor-gridline" paint-order="fill stroke markers" d=" M 0 332.5 L 600 332.5" stroke-opacity="0.12" stroke-miterlimit="10" stroke-dasharray=""/><path fill="none" stroke="rgb(0,0,0)" class="dcg-svg-minor-gridline" paint-order="fill stroke markers" d=" M 0 288.5 L 600 288.5" stroke-opacity="0.12" stroke-miterlimit="10" stroke-dasharray=""/><path fill="none" stroke="rgb(0,0,0)" class="dcg-svg-minor-gridline" paint-order="fill stroke markers" d=" M 0 266.5 L 600 266.5" stroke-opacity="0.12" stroke-miterlimit="10" stroke-dasharray=""/><path fill="none" stroke="rgb(0,0,0)" class="dcg-svg-minor-gridline" paint-order="fill stroke markers" d=" M 0 243.5 L 600 243.5" stroke-opacity="0.12" stroke-miterlimit="10" stroke-dasharray=""/><path fill="none" stroke="rgb(0,0,0)" class="dcg-svg-minor-gridline" paint-order="fill stroke markers" d=" M 0 221.5 L 600 221.5" stroke-opacity="0.12" stroke-miterlimit="10" stroke-dasharray=""/><path fill="none" stroke="rgb(0,0,0)" class="dcg-svg-minor-gridline" paint-order="fill stroke markers" d=" M 0 199.5 L 600 199.5" stroke-opacity="0.12" stroke-miterlimit="10" stroke-dasharray=""/><path fill="none" stroke="rgb(0,0,0)" class="dcg-svg-minor-gridline" paint-order="fill stroke markers" d=" M 0 177.5 L 600 177.5" stroke-opacity="0.12" stroke-miterlimit="10" stroke-dasharray=""/><path fill="none" stroke="rgb(0,0,0)" class="dcg-svg-minor-gridline" paint-order="fill stroke markers" d=" M 0 155.5 L 600 155.5" stroke-opacity="0.12" stroke-miterlimit="10" stroke-dasharray=""/><path fill="none" stroke="rgb(0,0,0)" class="dcg-svg-minor-gridline" paint-order="fill stroke markers" d=" M 0 132.5 L 600 132.5" stroke-opacity="0.12" stroke-miterlimit="10" stroke-dasharray=""/><path fill="none" stroke="rgb(0,0,0)" class="dcg-svg-minor-gridline" paint-order="fill stroke markers" d=" M 0 110.5 L 600 110.5" stroke-opacity="0.12" stroke-miterlimit="10" stroke-dasharray=""/><path fill="none" stroke="rgb(0,0,0)" class="dcg-svg-minor-gridline" paint-order="fill stroke markers" d=" M 0 88.5 L 600 88.5" stroke-opacity="0.12" stroke-miterlimit="10" stroke-dasharray=""/><path fill="none" stroke="rgb(0,0,0)" class="dcg-svg-minor-gridline" paint-order="fill stroke markers" d=" M 0 66.5 L 600 66.5" stroke-opacity="0.12" stroke-miterlimit="10" stroke-dasharray=""/><path fill="none" stroke="rgb(0,0,0)" class="dcg-svg-minor-gridline" paint-order="fill stroke markers" d=" M 0 43.5 L 600 43.5" stroke-opacity="0.12" stroke-miterlimit="10" stroke-dasharray=""/><path fill="none" stroke="rgb(0,0,0)" class="dcg-svg-minor-gridline" paint-order="fill stroke markers" d=" M 0 21.5 L 600 21.5" stroke-opacity="0.12" stroke-miterlimit="10" stroke-dasharray=""/><path fill="none" stroke="rgb(0,0,0)" class="dcg-svg-minor-gridline" paint-order="fill stroke markers" d=" M 0 -0.5 L 600 -0.5" stroke-opacity="0.12" stroke-miterlimit="10" stroke-dasharray=""/><path fill="none" stroke="rgb(0,0,0)" class="dcg-svg-major-gridline" paint-order="fill stroke markers" d=" M 39.5 0 L 39.5 400" stroke-opacity="0.31818181818181823" stroke-miterlimit="10" stroke-dasharray=""/><path fill="none" stroke="rgb(0,0,0)" class="dcg-svg-major-gridline" paint-order="fill stroke markers" d=" M 119.5 0 L 119.5 400" stroke-opacity="0.31818181818181823" stroke-miterlimit="10" stroke-dasharray=""/><path fill="none" stroke="rgb(0,0,0)" class="dcg-svg-major-gridline" paint-order="fill stroke markers" d=" M 279.5 0 L 279.5 400" stroke-opacity="0.31818181818181823" stroke-miterlimit="10" stroke-dasharray=""/><path fill="none" stroke="rgb(0,0,0)" class="dcg-svg-major-gridline" paint-order="fill stroke markers" d=" M 359.5 0 L 359.5 400" stroke-opacity="0.31818181818181823" stroke-miterlimit="10" stroke-dasharray=""/><path fill="none" stroke="rgb(0,0,0)" class="dcg-svg-major-gridline" paint-order="fill stroke markers" d=" M 439.5 0 L 439.5 400" stroke-opacity="0.31818181818181823" stroke-miterlimit="10" stroke-dasharray=""/><path fill="none" stroke="rgb(0,0,0)" class="dcg-svg-major-gridline" paint-order="fill stroke markers" d=" M 519.5 0 L 519.5 400" stroke-opacity="0.31818181818181823" stroke-miterlimit="10" stroke-dasharray=""/><path fill="none" stroke="rgb(0,0,0)" class="dcg-svg-major-gridline" paint-order="fill stroke markers" d=" M 0 221.5 L 600 221.5" stroke-opacity="0.31818181818181823" stroke-miterlimit="10" stroke-dasharray=""/><path fill="none" stroke="rgb(0,0,0)" class="dcg-svg-major-gridline" paint-order="fill stroke markers" d=" M 0 132.5 L 600 132.5" stroke-opacity="0.31818181818181823" stroke-miterlimit="10" stroke-dasharray=""/><path fill="none" stroke="rgb(0,0,0)" class="dcg-svg-major-gridline" paint-order="fill stroke markers" d=" M 0 43.5 L 600 43.5" stroke-opacity="0.31818181818181823" stroke-miterlimit="10" stroke-dasharray=""/></g></g><g id="axis-b710cefd"><g id="yaxis-b710cefd"><title>Y axis</title><path fill="none" stroke="rgb(0,0,0)" class="dcg-svg-axis-line" paint-order="fill stroke markers" d=" M 199.75 0 L 199.75 400" stroke-opacity="0.9" stroke-miterlimit="10" stroke-width="1.5" stroke-dasharray=""/></g><g id="xaxis-b710cefd"><title>X axis</title><path fill="none" stroke="rgb(0,0,0)" class="dcg-svg-axis-line" paint-order="fill stroke markers" d=" M 0 310.75 L 600 310.75" stroke-opacity="0.9" stroke-miterlimit="10" stroke-width="1.5" stroke-dasharray=""/></g><g/></g></g><g id="expressions-b710cefd"><g id="sketch-b710cefd"><title>Expression 1</title><path fill="#2d70b3" stroke="none" paint-order="stroke fill markers" d="" fill-opacity="0.4"/><g><path fill="none" stroke="#2d70b3" class="dcg-svg-curve" paint-order="fill stroke markers" d=" M -0.5 221.72222222222223 L -0.5 221.72222222222223 L 3.015625 200.9611555399218 L 6.384765625 182.78122145143735 L 9.75390625 166.21087029527393 L 12.9765625 151.80457798632546 L 16.19921875 138.75061687689322 L 19.421875 126.99168315052958 L 22.498046875 116.92357540404862 L 25.57421875 107.93600941035237 L 28.50390625 100.33772849916136 L 31.43359375 93.63647475952513 L 34.216796875 88.06519570366021 L 37 83.23458297164353 L 39.783203125 79.11192000192625 L 42.56640625 75.665045824799 L 45.056640625 73.12796768255276 L 47.400390625 71.19127359222614 L 49.59765625 69.75633528429705 L 51.794921875 68.67466291731245 L 53.845703125 67.97092914037466 L 55.896484375 67.55048082852755 L 57.947265625 67.40176778559402 L 59.998046875 67.5134035926551 L 62.1953125 67.90917402014725 L 64.392578125 68.57733875919058 L 66.736328125 69.57521671141683 L 69.2265625 70.94051703161733 L 71.86328125 72.70821837952366 L 74.79296875 75.03475886367391 L 78.015625 78.00069872047578 L 81.677734375 81.8413843834773 L 85.779296875 86.67245120286253 L 90.466796875 92.78729178093988 L 95.88671875 100.5135151214239 L 102.185546875 110.17852442745749 L 110.2421875 123.26316420482505 L 137.48828125 168.08386585632465 L 144.373046875 178.38741004882186 L 150.525390625 186.9276107330986 L 156.091796875 194.01373356469546 L 161.072265625 199.77507131944645 L 165.61328125 204.51011839467589 L 169.861328125 208.46359610777395 L 173.81640625 211.71036058335798 L 177.478515625 214.3292212348232 L 180.994140625 216.48248853479404 L 184.36328125 218.20666894690038 L 187.5859375 219.53948801708856 L 190.662109375 220.5192008025547 L 193.73828125 221.2103418014656 L 196.66796875 221.59847541928752 L 199.59765625 221.72207505029488 L 202.52734375 221.58082237134224 L 205.45703125 221.17508118031023 L 208.38671875 220.5058973961058 L 211.462890625 219.52162446108784 L 214.5390625 218.2516274583753 L 217.76171875 216.61867320982074 L 221.130859375 214.5860963640171 L 224.646484375 212.1180686719155 L 228.30859375 209.18031993545878 L 232.263671875 205.60107434665593 L 236.51171875 201.30626678027406 L 241.052734375 196.22687533830882 L 246.033203125 190.11540633951384 L 251.599609375 182.6763228393297 L 257.751953125 173.79892577160555 L 264.783203125 162.95983730946966 L 273.42578125 148.90802880086585 L 299.646484375 105.75559140092145 L 305.9453125 96.397537582023 L 311.365234375 89.02265870393512 L 315.90625 83.44951626865401 L 320.0078125 78.97802016018682 L 323.5234375 75.62949487325011 L 326.74609375 72.99697200813642 L 329.67578125 71.00020858482208 L 332.3125 69.55152961722126 L 334.802734375 68.50726268832517 L 337.146484375 67.8293777325186 L 339.34375 67.47719614028375 L 341.39453125 67.40816803510955 L 343.4453125 67.60137514299578 L 345.49609375 68.06823117907084 L 347.546875 68.82031363572202 L 349.59765625 69.86936378259458 L 351.6484375 71.22728666659236 L 353.845703125 73.03867312440843 L 356.189453125 75.39387479510208 L 358.6796875 78.39509646789793 L 361.31640625 82.15765834714449 L 364.099609375 86.81137906335391 L 366.8828125 92.19767898452608 L 369.666015625 98.34969380289522 L 372.44921875 105.30111480253521 L 375.37890625 113.51967960579515 L 378.30859375 122.702574188541 L 381.384765625 133.42766291632324 L 384.4609375 145.31006398677548 L 387.537109375 158.3992154663384 L 390.759765625 173.46075617629978 L 393.982421875 189.96065981294169 L 397.3515625 208.81336599750034 L 400.720703125 229.3729670662985 L 404.236328125 252.72272891552768 L 407.751953125 278.0896468311151 L 411.4140625 306.74808548950887 L 415.076171875 337.7809706885248 L 418.884765625 372.67848667174616 L 422.20209087068065 405.5" stroke-linecap="round" stroke-linejoin="round" stroke-miterlimit="10" stroke-width="2.5" stroke-opacity="0.9" stroke-dasharray=""/></g></g><g id="sketch-b710cefd"><title>Expression 2</title><path fill="#388c46" stroke="none" paint-order="stroke fill markers" d="" fill-opacity="0.4"/><path fill="#388c46" stroke="none" paint-order="stroke fill markers" d="" fill-opacity="0.4"/><path fill="#388c46" stroke="none" class="dcg-svg-region" paint-order="stroke fill markers" d=" M -0.5 310.6111111111111 L 411.8858934165834 310.6111111111111 L 411.8858934165834 310.61111111111103 L 411.4140625 306.74808548950887 L 407.751953125 278.0896468311151 L 404.236328125 252.72272891552768 L 400.720703125 229.3729670662985 L 397.3515625 208.81336599750034 L 393.982421875 189.96065981294169 L 390.759765625 173.46075617629978 L 387.537109375 158.3992154663384 L 384.4609375 145.31006398677548 L 381.384765625 133.42766291632324 L 378.30859375 122.702574188541 L 375.37890625 113.51967960579515 L 372.44921875 105.30111480253521 L 369.666015625 98.34969380289522 L 366.8828125 92.19767898452608 L 364.099609375 86.81137906335391 L 361.31640625 82.15765834714449 L 358.6796875 78.39509646789793 L 356.189453125 75.39387479510208 L 353.845703125 73.03867312440843 L 351.6484375 71.22728666659236 L 349.59765625 69.86936378259458 L 347.546875 68.82031363572202 L 345.49609375 68.06823117907084 L 343.4453125 67.60137514299578 L 341.39453125 67.40816803510955 L 339.34375 67.47719614028375 L 337.146484375 67.8293777325186 L 334.802734375 68.50726268832517 L 332.3125 69.55152961722126 L 329.67578125 71.00020858482208 L 326.74609375 72.99697200813642 L 323.5234375 75.62949487325011 L 320.0078125 78.97802016018682 L 315.90625 83.44951626865401 L 311.365234375 89.02265870393512 L 305.9453125 96.397537582023 L 299.646484375 105.75559140092145 L 273.42578125 148.90802880086585 L 264.783203125 162.95983730946966 L 257.751953125 173.79892577160555 L 251.599609375 182.6763228393297 L 246.033203125 190.11540633951384 L 241.052734375 196.22687533830882 L 236.51171875 201.30626678027406 L 232.263671875 205.60107434665593 L 228.30859375 209.18031993545878 L 224.646484375 212.1180686719155 L 221.130859375 214.5860963640171 L 217.76171875 216.61867320982074 L 214.5390625 218.2516274583753 L 211.462890625 219.52162446108784 L 208.38671875 220.5058973961058 L 205.45703125 221.17508118031023 L 202.52734375 221.58082237134224 L 199.59765625 221.72207505029488 L 196.66796875 221.59847541928752 L 193.73828125 221.2103418014656 L 190.662109375 220.5192008025547 L 187.5859375 219.53948801708856 L 184.36328125 218.20666894690038 L 180.994140625 216.48248853479404 L 177.478515625 214.3292212348232 L 173.81640625 211.71036058335798 L 169.861328125 208.46359610777395 L 165.61328125 204.51011839467589 L 161.072265625 199.77507131944645 L 156.091796875 194.01373356469546 L 150.525390625 186.9276107330986 L 144.373046875 178.38741004882186 L 137.48828125 168.08386585632465 L 110.2421875 123.26316420482505 L 102.185546875 110.17852442745749 L 95.88671875 100.5135151214239 L 90.466796875 92.78729178093988 L 85.779296875 86.67245120286253 L 81.677734375 81.8413843834773 L 78.015625 78.00069872047578 L 74.79296875 75.03475886367391 L 71.86328125 72.70821837952366 L 69.2265625 70.94051703161733 L 66.736328125 69.57521671141683 L 64.392578125 68.57733875919058 L 62.1953125 67.90917402014725 L 59.998046875 67.5134035926551 L 57.947265625 67.40176778559402 L 55.896484375 67.55048082852755 L 53.845703125 67.97092914037466 L 51.794921875 68.67466291731245 L 49.59765625 69.75633528429705 L 47.400390625 71.19127359222614 L 45.056640625 73.12796768255276 L 42.56640625 75.665045824799 L 39.783203125 79.11192000192625 L 37 83.23458297164353 L 34.216796875 88.06519570366021 L 31.43359375 93.63647475952513 L 28.50390625 100.33772849916136 L 25.57421875 107.93600941035237 L 22.498046875 116.92357540404862 L 19.421875 126.99168315052958 L 16.19921875 138.75061687689322 L 12.9765625 151.80457798632546 L 9.75390625 166.21087029527393 L 6.384765625 182.78122145143735 L 3.015625 200.9611555399218 L -0.5 221.72222222222223" fill-opacity="0.4"/><g><path fill="none" stroke="#388c46" class="dcg-svg-curve" paint-order="fill stroke markers" d=" M -0.5 310.6111111111111 L 10.5 310.6111111111111 M 17.5 310.6111111111111 L 28.5 310.6111111111111 M 35.5 310.6111111111111 L 46.5 310.6111111111111 M 53.5 310.6111111111111 L 64.5 310.6111111111111 M 71.5 310.6111111111111 L 82.5 310.6111111111111 M 89.5 310.6111111111111 L 100.5 310.6111111111111 M 107.5 310.6111111111111 L 118.5 310.6111111111111 M 125.5 310.6111111111111 L 136.5 310.6111111111111 M 143.5 310.6111111111111 L 154.5 310.6111111111111 M 161.5 310.6111111111111 L 172.5 310.6111111111111 M 179.5 310.6111111111111 L 190.5 310.6111111111111 M 197.5 310.6111111111111 L 208.5 310.6111111111111 M 215.5 310.6111111111111 L 226.5 310.6111111111111 M 233.5 310.6111111111111 L 244.5 310.6111111111111 M 251.5 310.6111111111111 L 262.5 310.6111111111111 M 269.5 310.6111111111111 L 280.5 310.6111111111111 M 287.5 310.6111111111111 L 298.5 310.6111111111111 M 305.5 310.6111111111111 L 316.5 310.6111111111111 M 323.5 310.6111111111111 L 334.5 310.6111111111111 M 341.5 310.6111111111111 L 352.5 310.6111111111111 M 359.5 310.6111111111111 L 370.5 310.6111111111111 M 377.5 310.6111111111111 L 388.5 310.6111111111111 M 395.5 310.6111111111111 L 406.5 310.6111111111111" stroke-linecap="round" stroke-linejoin="round" stroke-miterlimit="10" stroke-width="2.5" stroke-opacity="0.9" stroke-dasharray=""/></g><g><path fill="none" stroke="#388c46" class="dcg-svg-curve" paint-order="fill stroke markers" d=" M -0.5 221.72222222222223 L 1.3365655801371952 210.87662279803845 M 2.505289131133592 203.97487770992151 L 3.015625 200.9611555399218 M 3.015625 200.9611555399218 L 4.463060718170729 193.15077037570444 M 5.738595565568002 186.26796492639272 L 6.384765625 182.78122145143735 M 6.384765625 182.78122145143735 L 7.869927806855338 175.47678936730705 M 9.26465447198512 168.6171437839277 L 9.75390625 166.21087029527393 M 9.75390625 166.21087029527393 L 11.619190141586717 157.87246157378178 M 13.164025076523304 151.04522638517062 L 15.800464321324526 140.36584493733048 M 17.60967082948747 133.60411311096877 L 19.421875 126.99168315052958 M 19.421875 126.99168315052958 L 20.632682386164984 123.02879039956974 M 22.697580633271446 116.34060316019932 L 25.57421875 107.93600941035237 M 25.57421875 107.93600941035237 L 26.33573175369693 105.96098998605743 M 28.89375625230139 99.44600070026834 L 31.43359375 93.63647475952513 M 31.43359375 93.63647475952513 L 33.51594731044052 89.46812187360776 M 36.92846991298758 83.35873278519495 L 37 83.23458297164353 M 37 83.23458297164353 L 39.783203125 79.11192000192625 M 39.783203125 79.11192000192625 L 42.56640625 75.665045824799 M 42.56640625 75.665045824799 L 43.58370517292234 74.62861050473924 M 48.95510928347098 70.17595467233355 L 49.59765625 69.75633528429705 M 49.59765625 69.75633528429705 L 51.794921875 68.67466291731245 M 51.794921875 68.67466291731245 L 53.845703125 67.97092914037466 M 53.845703125 67.97092914037466 L 55.896484375 67.55048082852755 M 55.896484375 67.55048082852755 L 57.947265625 67.40176778559402 M 57.947265625 67.40176778559402 L 59.4108203281949 67.48143747755614 M 66.1247818486445 69.31484399848192 L 66.736328125 69.57521671141683 M 66.736328125 69.57521671141683 L 69.2265625 70.94051703161733 M 69.2265625 70.94051703161733 L 71.86328125 72.70821837952366 M 71.86328125 72.70821837952366 L 74.79296875 75.03475886367391 M 74.79296875 75.03475886367391 L 75.2196198741535 75.42742301272058 M 80.22394025752885 80.31669856659687 L 81.677734375 81.8413843834773 M 81.677734375 81.8413843834773 L 85.779296875 86.67245120286253 M 85.779296875 86.67245120286253 L 87.33430303543598 88.70095568691463 M 91.52988342807562 94.30274612304285 L 95.88671875 100.5135151214239 M 95.88671875 100.5135151214239 L 97.75045766053528 103.3732619754215 M 101.57244227990505 109.23776822653087 L 102.185546875 110.17852442745749 M 102.185546875 110.17852442745749 L 107.3642293523459 118.58912605304963 M 111.02706166238241 124.55430747801857 L 116.74095731303889 133.95384983354893 M 120.37707272709302 139.93537678706824 L 126.0909683777495 149.33491914259858 M 129.72708379180364 155.3164460961179 L 135.44097944246013 164.71598845164823 M 139.1876168979643 170.6270431989355 L 144.373046875 178.38741004882186 M 144.373046875 178.38741004882186 L 145.34721540531245 179.73967433821161 M 149.43883720189453 185.41934255684325 L 150.525390625 186.9276107330986 M 150.525390625 186.9276107330986 L 156.091796875 194.01373356469546 M 156.091796875 194.01373356469546 L 156.17688998003163 194.11216809833002 M 160.75473878381672 199.40776063643975 L 161.072265625 199.77507131944645 M 161.072265625 199.77507131944645 L 165.61328125 204.51011839467589 M 165.61328125 204.51011839467589 L 168.50763665759925 207.20377266319863 M 173.84384417745576 211.72998209140528 L 177.478515625 214.3292212348232 M 177.478515625 214.3292212348232 L 180.994140625 216.48248853479404 M 180.994140625 216.48248853479404 L 183.13857069278907 217.57991506860452 M 189.62200743356826 220.18794454912808 L 190.662109375 220.5192008025547 M 190.662109375 220.5192008025547 L 193.73828125 221.2103418014656 M 193.73828125 221.2103418014656 L 196.66796875 221.59847541928752 M 196.66796875 221.59847541928752 L 199.59765625 221.72207505029488 M 199.59765625 221.72207505029488 L 200.4646339195006 221.68027437414457 M 207.38462982713827 220.73478926853588 L 208.38671875 220.5058973961058 M 208.38671875 220.5058973961058 L 211.462890625 219.52162446108784 M 211.462890625 219.52162446108784 L 214.5390625 218.2516274583753 M 214.5390625 218.2516274583753 L 217.58466671579023 216.70838736145515 M 223.47715720777154 212.93895594796072 L 224.646484375 212.1180686719155 M 224.646484375 212.1180686719155 L 228.30859375 209.18031993545878 M 228.30859375 209.18031993545878 L 231.92428966442355 205.90820665649466 M 236.84594896182466 200.93241074942446 L 241.052734375 196.22687533830882 M 241.052734375 196.22687533830882 L 244.01439830113293 192.5926557140193 M 248.31241468113564 187.06941143379214 L 251.599609375 182.6763228393297 M 251.599609375 182.6763228393297 L 254.7400093460073 178.14494770378053 M 258.6838203078372 172.36239729804336 L 264.6702160492013 163.13401358106574 M 268.3416749609872 157.17418352661176 L 273.42578125 148.90802880086585 M 273.42578125 148.90802880086585 L 274.09850772832135 147.80089650526506 M 277.7334824722742 141.81867629778145 L 283.4455856413429 132.41804454316437 M 287.08056038529577 126.43582433568078 L 292.7926635543645 117.03519258106371 M 296.42763829831733 111.05297237358012 L 299.646484375 105.75559140092145 M 299.646484375 105.75559140092145 L 302.327487290682 101.77247437094603 M 306.25379189659645 95.97779016891397 L 311.365234375 89.02265870393512 M 311.365234375 89.02265870393512 L 312.8614158413849 87.18641035999977 M 317.3796451603827 81.84323068215232 L 320.0078125 78.97802016018682 M 320.0078125 78.97802016018682 L 323.5234375 75.62949487325011 M 323.5234375 75.62949487325011 L 325.271261970011 74.20173233062424 M 331.03442489028595 70.25373592210565 L 332.3125 69.55152961722126 M 332.3125 69.55152961722126 L 334.802734375 68.50726268832517 M 334.802734375 68.50726268832517 L 337.146484375 67.8293777325186 M 337.146484375 67.8293777325186 L 339.34375 67.47719614028375 M 339.34375 67.47719614028375 L 341.39453125 67.40816803510955 M 341.39453125 67.40816803510955 L 341.51831345703283 67.4198297382915 M 348.2385171817638 69.17411408731216 L 349.59765625 69.86936378259458 M 349.59765625 69.86936378259458 L 351.6484375 71.22728666659236 M 351.6484375 71.22728666659236 L 353.845703125 73.03867312440843 M 353.845703125 73.03867312440843 L 356.189453125 75.39387479510208 M 356.189453125 75.39387479510208 L 356.7280301341225 76.04296590414597 M 360.9428875733585 81.6246522637623 L 361.31640625 82.15765834714449 M 361.31640625 82.15765834714449 L 364.099609375 86.81137906335391 M 364.099609375 86.81137906335391 L 366.36122615684957 91.1882591352308 M 369.2997842274916 97.54017294393043 L 369.666015625 98.34969380289522 M 369.666015625 98.34969380289522 L 372.44921875 105.30111480253521 M 372.44921875 105.30111480253521 L 373.33016086116976 107.77239538402021 M 375.6519915016783 114.3756456698428 L 378.30859375 122.702574188541 M 378.30859375 122.702574188541 L 378.93156327431274 124.87456057111547 M 380.86148978950416 131.60325908167167 L 381.384765625 133.42766291632324 M 381.384765625 133.42766291632324 L 383.66593956429904 142.23920686108892 M 385.3366995263085 149.03644283951792 L 387.537109375 158.3992154663384 M 387.537109375 158.3992154663384 L 387.8262937286709 159.75075952739004 M 389.2909042999829 166.59582460190913 L 390.759765625 173.46075617629978 M 390.759765625 173.46075617629978 L 391.52263754904294 177.36663761612374 M 392.8644786839463 184.2368241033074 L 393.982421875 189.96065981294169 M 393.982421875 189.96065981294169 L 394.8915861282975 195.0480718413195 M 396.1230365654104 201.93890124139423 L 397.3515625 208.81336599750034 M 397.3515625 208.81336599750034 L 398.0011105378165 212.77712115614048 M 399.13311501965995 219.6849837671864 L 400.720703125 229.3729670662985 M 400.720703125 229.3729670662985 L 400.89680460819704 230.5425820547988 M 401.9390032344279 237.464563131303 L 403.57674393279075 248.34196196580962 M 404.5891150162328 255.26825527615992 L 406.0991820661032 266.1641121724713 M 407.06013382511156 273.09783928830575 L 407.751953125 278.0896468311151 M 407.751953125 278.0896468311151 L 408.507467820363 284.0020512230718 M 409.39474575724927 290.94559051241947 L 410.7890396580705 301.85686653853725 M 411.6649075692047 308.80183164164123 L 411.8858934165834 310.61111111111103" stroke-linecap="round" stroke-linejoin="round" stroke-miterlimit="10" stroke-width="2.5" stroke-opacity="0.9" stroke-dasharray=""/></g></g></g><g id="labels-b710cefd"/></g></svg>