<svg version="1.1" xmlns="http://www.w3.org/2000/svg" xmlns:xlink="http://www.w3.org/1999/xlink" width="600" height="400"><defs/><g transform="scale(1,1)"><g id="background-686b7fc2"><rect fill="white" stroke="none" x="0" y="0" width="600" height="400" class="dcg-svg-background"/></g><g id="background-images-686b7fc2"/><g id="graphpaper-686b7fc2"><g id="grid-686b7fc2"><g><path fill="none" stroke="rgb(0,0,0)" class="dcg-svg-minor-gridline" paint-order="fill stroke markers" d=" M -0.5 0 L -0.5 400" stroke-opacity="0.12" stroke-miterlimit="10" stroke-dasharray=""/><path fill="none" stroke="rgb(0,0,0)" class="dcg-svg-minor-gridline" paint-order="fill stroke markers" d=" M 29.5 0 L 29.5 400" stroke-opacity="0.12" stroke-miterlimit="10" stroke-dasharray=""/><path fill="none" stroke="rgb(0,0,0)" class="dcg-svg-minor-gridline" paint-order="fill stroke markers" d=" M 59.5 0 L 59.5 400" stroke-opacity="0.12" stroke-miterlimit="10" stroke-dasharray=""/><path fill="none" stroke="rgb(0,0,0)" class="dcg-svg-minor-gridline" paint-order="fill stroke markers" d=" M 89.5 0 L 89.5 400" stroke-opacity="0.12" stroke-miterlimit="10" stroke-dasharray=""/><path fill="none" stroke="rgb(0,0,0)" class="dcg-svg-minor-gridline" paint-order="fill stroke markers" d=" M 119.5 0 L 119.5 400" stroke-opacity="0.12" stroke-miterlimit="10" stroke-dasharray=""/><path fill="none" stroke="rgb(0,0,0)" class="dcg-svg-minor-gridline" paint-order="fill stroke markers" d=" M 149.5 0 L 149.5 400" stroke-opacity="0.12" stroke-miterlimit="10" stroke-dasharray=""/><path fill="none" stroke="rgb(0,0,0)" class="dcg-svg-minor-gridline" paint-order="fill stroke markers" d=" M 179.5 0 L 179.5 400" stroke-opacity="0.12" stroke-miterlimit="10" stroke-dasharray=""/><path fill="none" stroke="rgb(0,0,0)" class="dcg-svg-minor-gridline" paint-order="fill stroke markers" d=" M 209.5 0 L 209.5 400" stroke-opacity="0.12" stroke-miterlimit="10" stroke-dasharray=""/><path fill="none" stroke="rgb(0,0,0)" class="dcg-svg-minor-gridline" paint-order="fill stroke markers" d=" M 239.5 0 L 239.5 400" stroke-opacity="0.12" stroke-miterlimit="10" stroke-dasharray=""/><path fill="none" stroke="rgb(0,0,0)" class="dcg-svg-minor-gridline" paint-order="fill stroke markers" d=" M 269.5 0 L 269.5 400" stroke-opacity="0.12" stroke-miterlimit="10" stroke-dasharray=""/><path fill="none" stroke="rgb(0,0,0)" class="dcg-svg-minor-gridline" paint-order="fill stroke markers" d=" M 329.5 0 L 329.5 400" stroke-opacity="0.12" stroke-miterlimit="10" stroke-dasharray=""/><path fill="none" stroke="rgb(0,0,0)" class="dcg-svg-minor-gridline" paint-order="fill stroke markers" d=" M 359.5 0 L 359.5 400" stroke-opacity="0.12" stroke-miterlimit="10" stroke-dasharray=""/><path fill="none" stroke="rgb(0,0,0)" class="dcg-svg-minor-gridline" paint-order="fill stroke markers" d=" M 389.5 0 L 389.5 400" stroke-opacity="0.12" stroke-miterlimit="10" stroke-dasharray=""/><path fill="none" stroke="rgb(0,0,0)" class="dcg-svg-minor-gridline" paint-order="fill stroke markers" d=" M 419.5 0 L 419.5 400" stroke-opacity="0.12" stroke-miterlimit="10" stroke-dasharray=""/><path fill="none" stroke="rgb(0,0,0)" class="dcg-svg-minor-gridline" paint-order="fill stroke markers" d=" M 449.5 0 L 449.5 400" stroke-opacity="0.12" stroke-miterlimit="10" stroke-dasharray=""/><path fill="none" stroke="rgb(0,0,0)" class="dcg-svg-minor-gridline" paint-order="fill stroke markers" d=" M 479.5 0 L 479.5 400" stroke-opacity="0.12" stroke-miterlimit="10" stroke-dasharray=""/><path fill="none" stroke="rgb(0,0,0)" class="dcg-svg-minor-gridline" paint-order="fill stroke markers" d=" M 509.5 0 L 509.5 400" stroke-opacity="0.12" stroke-miterlimit="10" stroke-dasharray=""/><path fill="none" stroke="rgb(0,0,0)" class="dcg-svg-minor-gridline" paint-order="fill stroke markers" d=" M 539.5 0 L 539.5 400" stroke-opacity="0.12" stroke-miterlimit="10" stroke-dasharray=""/><path fill="none" stroke="rgb(0,0,0)" class="dcg-svg-minor-gridline" paint-order="fill stroke markers" d=" M 569.5 0 L 569.5 400" stroke-opacity="0.12" stroke-miterlimit="10" stroke-dasharray=""/><path fill="none" stroke="rgb(0,0,0)" class="dcg-svg-minor-gridline" paint-order="fill stroke markers" d=" M 0 370.5 L 600 370.5" stroke-opacity="0.12" stroke-miterlimit="10" stroke-dasharray=""/><path fill="none" stroke="rgb(0,0,0)" class="dcg-svg-minor-gridline" paint-order="fill stroke markers" d=" M 0 342.5 L 600 342.5" stroke-opacity="0.12" stroke-miterlimit="10" stroke-dasharray=""/><path fill="none" stroke="rgb(0,0,0)" class="dcg-svg-minor-gridline" paint-order="fill stroke markers" d=" M 0 313.5 L 600 313.5" stroke-opacity="0.12" stroke-miterlimit="10" stroke-dasharray=""/><path fill="none" stroke="rgb(0,0,0)" class="dcg-svg-minor-gridline" paint-order="fill stroke markers" d=" M 0 285.5 L 600 285.5" stroke-opacity="0.12" stroke-miterlimit="10" stroke-dasharray=""/><path fill="none" stroke="rgb(0,0,0)" class="dcg-svg-minor-gridline" paint-order="fill stroke markers" d=" M 0 256.5 L 600 256.5" stroke-opacity="0.12" stroke-miterlimit="10" stroke-dasharray=""/><path fill="none" stroke="rgb(0,0,0)" class="dcg-svg-minor-gridline" paint-order="fill stroke markers" d=" M 0 228.5 L 600 228.5" stroke-opacity="0.12" stroke-miterlimit="10" stroke-dasharray=""/><path fill="none" stroke="rgb(0,0,0)" class="dcg-svg-minor-gridline" paint-order="fill stroke markers" d=" M 0 170.5 L 600 170.5" stroke-opacity="0.12" stroke-miterlimit="10" stroke-dasharray=""/><path fill="none" stroke="rgb(0,0,0)" class="dcg-svg-minor-gridline" paint-order="fill stroke markers" d=" M 0 142.5 L 600 142.5" stroke-opacity="0.12" stroke-miterlimit="10" stroke-dasharray=""/><path fill="none" stroke="rgb(0,0,0)" class="dcg-svg-minor-gridline" paint-order="fill stroke markers" d=" M 0 113.5 L 600 113.5" stroke-opacity="0.12" stroke-miterlimit="10" stroke-dasharray=""/><path fill="none" stroke="rgb(0,0,0)" class="dcg-svg-minor-gridline" paint-order="fill stroke markers" d=" M 0 85.5 L 600 85.5" stroke-opacity="0.12" stroke-miterlimit="10" stroke-dasharray=""/><path fill="none" stroke="rgb(0,0,0)" class="dcg-svg-minor-gridline" paint-order="fill stroke markers" d=" M 0 56.5 L 600 56.5" stroke-opacity="0.12" stroke-miterlimit="10" stroke-dasharray=""/><path fill="none" stroke="rgb(0,0,0)" class="dcg-svg-minor-gridline" paint-order="fill stroke markers" d=" M 0 28.5 L 600 28.5" stroke-opacity="0.12" stroke-miterlimit="10" stroke-dasharray=""/><path fill="none" stroke="rgb(0,0,0)" class="dcg-svg-minor-gridline" paint-order="fill stroke markers" d=" M 0 -0.5 L 600 -0.5" stroke-opacity="0.12" stroke-miterlimit="10" stroke-dasharray=""/><path fill="none" stroke="rgb(0,0,0)" class="dcg-svg-major-gridline" paint-order="fill stroke markers" d=" M -0.5 0 L -0.5 400" stroke-opacity="0.31818181818181823" stroke-miterlimit="10" stroke-dasharray=""/><path fill="none" stroke="rgb(0,0,0)" class="dcg-svg-major-gridline" paint-order="fill stroke markers" d=" M 149.5 0 L 149.5 400" stroke-opacity="0.31818181818181823" stroke-miterlimit="10" stroke-dasharray=""/><path fill="none" stroke="rgb(0,0,0)" class="dcg-svg-major-gridline" paint-order="fill stroke markers" d=" M 449.5 0 L 449.5 400" stroke-opacity="0.31818181818181823" stroke-miterlimit="10" stroke-dasharray=""/><path fill="none" stroke="rgb(0,0,0)" class="dcg-svg-major-gridline" paint-order="fill stroke markers" d=" M 0 342.5 L 600 342.5" stroke-opacity="0.31818181818181823" stroke-miterlimit="10" stroke-dasharray=""/><path fill="none" stroke="rgb(0,0,0)" class="dcg-svg-major-gridline" paint-order="fill stroke markers" d=" M 0 56.5 L 600 56.5" stroke-opacity="0.31818181818181823" stroke-miterlimit="10" stroke-dasharray=""/></g></g><g id="axis-686b7fc2"><g id="yaxis-686b7fc2"><title>Y axis</title><path fill="none" stroke="rgb(0,0,0)" class="dcg-svg-axis-line" paint-order="fill stroke markers" d=" M 299.75 0 L 299.75 400" stroke-opacity="0.9" stroke-miterlimit="10" stroke-width="1.5" stroke-dasharray=""/></g><g id="xaxis-686b7fc2"><title>X axis</title><path fill="none" stroke="rgb(0,0,0)" class="dcg-svg-axis-line" paint-order="fill stroke markers" d=" M 0 199.75 L 600 199.75" stroke-opacity="0.9" stroke-miterlimit="10" stroke-width="1.5" stroke-dasharray=""/></g><g><g class="dcg-svg-axis-value"><text fill="none" stroke="#ffffff" font-family="Arial" font-size="14px" font-style="normal" font-weight="normal" text-decoration="normal" x="291.10693359375" y="215.808" text-anchor="middle" stroke-miterlimit="2" stroke-width="3" stroke-dasharray="">0</text><text fill="#000000" stroke="none" font-family="Arial" font-size="14px" font-style="normal" font-weight="normal" text-decoration="normal" x="291.10693359375" y="215.808" text-anchor="middle">0</text></g><g class="dcg-svg-axis-value dcg-svg-offcenter-axis-value"><text fill="none" stroke="#ffffff" font-family="Arial" font-size="14px" font-style="normal" font-weight="normal" text-decoration="normal" x="13.1171875" y="215.808" text-anchor="middle" stroke-miterlimit="2" stroke-width="3" stroke-dasharray="">-10</text><text fill="#000000" stroke="none" font-family="Arial" font-size="14px" font-style="normal" font-weight="normal" text-decoration="normal" x="13.1171875" y="215.808" text-anchor="middle">-10</text></g><g class="dcg-svg-axis-value"><text fill="none" stroke="#ffffff" font-family="Arial" font-size="14px" font-style="normal" font-weight="normal" text-decoration="normal" x="147.6689453125" y="215.808" text-anchor="middle" stroke-miterlimit="2" stroke-width="3" stroke-dasharray="">-5</text><text fill="#000000" stroke="none" font-family="Arial" font-size="14px" font-style="normal" font-weight="normal" text-decoration="normal" x="147.6689453125" y="215.808" text-anchor="middle">-5</text></g><g class="dcg-svg-axis-value"><text fill="none" stroke="#ffffff" font-family="Arial" font-size="14px" font-style="normal" font-weight="normal" text-decoration="normal" x="450" y="215.808" text-anchor="middle" stroke-miterlimit="2" stroke-width="3" stroke-dasharray="">5</text><text fill="#000000" stroke="none" font-family="Arial" font-size="14px" font-style="normal" font-weight="normal" text-decoration="normal" x="450" y="215.808" text-anchor="middle">5</text></g><g class="dcg-svg-axis-value dcg-svg-offcenter-axis-value"><text fill="none" stroke="#ffffff" font-family="Arial" font-size="14px" font-style="normal" font-weight="normal" text-decoration="normal" x="589.2138671875" y="215.808" text-anchor="middle" stroke-miterlimit="2" stroke-width="3" stroke-dasharray="">10</text><text fill="#000000" stroke="none" font-family="Arial" font-size="14px" font-style="normal" font-weight="normal" text-decoration="normal" x="589.2138671875" y="215.808" text-anchor="middle">10</text></g><g class="dcg-svg-axis-value"><text fill="none" stroke="#ffffff" font-family="Arial" font-size="14px" font-style="normal" font-weight="normal" text-decoration="normal" x="288.77587890625" y="346.6651428571428" text-anchor="middle" stroke-miterlimit="2" stroke-width="3" stroke-dasharray="">-5</text><text fill="#000000" stroke="none" font-family="Arial" font-size="14px" font-style="normal" font-weight="normal" text-decoration="normal" x="288.77587890625" y="346.6651428571428" text-anchor="middle">-5</text></g><g class="dcg-svg-axis-value"><text fill="none" stroke="#ffffff" font-family="Arial" font-size="14px" font-style="normal" font-weight="normal" text-decoration="normal" x="291.10693359375" y="60.95085714285717" text-anchor="middle" stroke-miterlimit="2" stroke-width="3" stroke-dasharray="">5</text><text fill="#000000" stroke="none" font-family="Arial" font-size="14px" font-style="normal" font-weight="normal" text-decoration="normal" x="291.10693359375" y="60.95085714285717" text-anchor="middle">5</text></g></g></g></g><g id="expressions-686b7fc2"><g id="sketch-686b7fc2"><title>Expression 1</title><path fill="#2d70b3" stroke="none" paint-order="stroke fill markers" d="" fill-opacity="0.4"/><g><path fill="none" stroke="#2d70b3" class="dcg-svg-curve" paint-order="fill stroke markers" d=" M -0.5 198.10265277406725 L -0.5 198.10265277406725 L 9.607421875 197.6616674702222 L 18.689453125 197.5222802132263 L 27.33203125 197.6466016504958 L 35.974609375 198.03067561925528 L 45.056640625 198.7013037572151 L 55.017578125 199.7063125663538 L 67.908203125 201.29078187049157 L 91.345703125 204.20614000186143 L 100.720703125 205.07037090256225 L 108.77734375 205.55477124780137 L 116.248046875 205.7432246259894 L 123.42578125 205.66055670661473 L 130.45703125 205.31613335738464 L 137.48828125 204.7112351390702 L 144.8125 203.81891696190567 L 152.869140625 202.56548090521048 L 162.390625 200.80282446975212 L 192.56640625 194.99585228285008 L 199.3046875 194.106997217218 L 205.1640625 193.59409424397015 L 210.4375 193.3877607588498 L 215.41796875 193.4535088546176 L 220.10546875 193.77901651687293 L 224.5 194.3440729651779 L 228.748046875 195.15487829167992 L 232.849609375 196.2091900252826 L 236.8046875 197.50322395092397 L 240.759765625 199.09714419905166 L 244.568359375 200.94600158784658 L 248.23046875 203.04849582347356 L 251.892578125 205.51136093582497 L 255.408203125 208.2654357086019 L 258.923828125 211.4675141142023 L 262.29296875 215.04025642233117 L 265.369140625 218.82949134383944 L 268.298828125 223.02072560273103 L 270.935546875 227.40483798379304 L 273.279296875 231.91972907111764 L 275.4765625 236.8259082869798 L 277.52734375 242.15914343132616 L 279.431640625 247.9547905815541 L 281.189453125 254.2434645085272 L 282.947265625 261.72214540284637 L 284.55859375 269.97628458349766 L 286.0234375 279.05313812492716 L 287.341796875 288.9630288648424 L 288.66015625 301.14312041684195 L 289.83203125 314.624223343019 L 291.00390625 331.6782537254119 L 292.029296875 350.85162472267785 L 293.0546875 375.9750585771443 L 293.93359375 404.7366255758806 L 293.95062560973736 405.5" stroke-linecap="round" stroke-linejoin="round" stroke-miterlimit="10" stroke-width="2.5" stroke-opacity="0.9" stroke-dasharray=""/></g><g><path fill="none" stroke="#2d70b3" class="dcg-svg-curve" paint-order="fill stroke markers" d=" M 305.1027824535786 -5.5 L 305.1027824535786 -5.5 L 305.359375 4.7956058176849865 L 306.384765625 34.69114793455827 L 307.556640625 59.687519014584836 L 308.728515625 78.47223134064552 L 310.046875 94.75652004195427 L 311.365234375 107.55303281877497 L 312.830078125 118.93699661474574 L 314.44140625 129.02371541650234 L 316.052734375 137.27785459715363 L 317.810546875 144.7565354914728 L 319.71484375 151.52512440440768 L 321.765625 157.6549025874289 L 323.962890625 163.21568962155098 L 326.306640625 168.2717312096552 L 328.796875 172.87968391735993 L 331.43359375 177.08788675224562 L 334.36328125 181.12443036925356 L 337.5859375 184.94505430905886 L 341.1015625 188.51745016648397 L 344.763671875 191.6987099858449 L 348.42578125 194.41989029425662 L 352.234375 196.83317775114963 L 356.04296875 198.87599394469052 L 359.998046875 200.65023153680517 L 363.953125 202.10720165888873 L 368.0546875 203.31510598193128 L 372.15625 204.24239261571788 L 376.404296875 204.93339796836452 L 380.798828125 205.38605558738493 L 385.486328125 205.6038421907809 L 390.466796875 205.56838830820078 L 395.740234375 205.26944911227088 L 401.599609375 204.67095350631928 L 408.19140625 203.72945086565036 L 416.248046875 202.3022454439487 L 429.138671875 199.70632407535092 L 443.34765625 196.92323089856382 L 452.13671875 195.47509728801967 L 459.900390625 194.462928190108 L 467.078125 193.78865636933017 L 474.109375 193.38951109017785 L 481.140625 193.25214770140042 L 488.318359375 193.3719240945047 L 495.935546875 193.76123713839664 L 504.431640625 194.4656958909739 L 514.5390625 195.5799530810125 L 531.970703125 197.82323352333168 L 546.47265625 199.56757784247924 L 556.580078125 200.51986534969336 L 565.662109375 201.11375168812344 L 574.3046875 201.4188428434467 L 582.947265625 201.4647637390208 L 592.029296875 201.25005862349298 L 599.5 200.89734722593272" stroke-linecap="round" stroke-linejoin="round" stroke-miterlimit="10" stroke-width="2.5" stroke-opacity="0.9" stroke-dasharray=""/></g></g></g><g id="labels-686b7fc2"/></g></svg>