<svg version="1.1" xmlns="http://www.w3.org/2000/svg" xmlns:xlink="http://www.w3.org/1999/xlink" width="600" height="400"><defs/><g transform="scale(1,1)"><g id="background-022e8ff0"><rect fill="white" stroke="none" x="0" y="0" width="600" height="400" class="dcg-svg-background"/></g><g id="background-images-022e8ff0"/><g id="graphpaper-022e8ff0"><g id="grid-022e8ff0"><g><path fill="none" stroke="rgb(0,0,0)" class="dcg-svg-minor-gridline" paint-order="fill stroke markers" d=" M -0.5 0 L -0.5 400" stroke-opacity="0.12" stroke-miterlimit="10" stroke-dasharray=""/><path fill="none" stroke="rgb(0,0,0)" class="dcg-svg-minor-gridline" paint-order="fill stroke markers" d=" M 29.5 0 L 29.5 400" stroke-opacity="0.12" stroke-miterlimit="10" stroke-dasharray=""/><path fill="none" stroke="rgb(0,0,0)" class="dcg-svg-minor-gridline" paint-order="fill stroke markers" d=" M 59.5 0 L 59.5 400" stroke-opacity="0.12" stroke-miterlimit="10" stroke-dasharray=""/><path fill="none" stroke="rgb(0,0,0)" class="dcg-svg-minor-gridline" paint-order="fill stroke markers" d=" M 89.5 0 L 89.5 400" stroke-opacity="0.12" stroke-miterlimit="10" stroke-dasharray=""/><path fill="none" stroke="rgb(0,0,0)" class="dcg-svg-minor-gridline" paint-order="fill stroke markers" d=" M 119.5 0 L 119.5 400" stroke-opacity="0.12" stroke-miterlimit="10" stroke-dasharray=""/><path fill="none" stroke="rgb(0,0,0)" class="dcg-svg-minor-gridline" paint-order="fill stroke markers" d=" M 149.5 0 L 149.5 400" stroke-opacity="0.12" stroke-miterlimit="10" stroke-dasharray=""/><path fill="none" stroke="rgb(0,0,0)" class="dcg-svg-minor-gridline" paint-order="fill stroke markers" d=" M 179.5 0 L 179.5 400" stroke-opacity="0.12" stroke-miterlimit="10" stroke-dasharray=""/><path fill="none" stroke="rgb(0,0,0)" class="dcg-svg-minor-gridline" paint-order="fill stroke markers" d=" M 209.5 0 L 209.5 400" stroke-opacity="0.12" stroke-miterlimit="10" stroke-dasharray=""/><path fill="none" stroke="rgb(0,0,0)" class="dcg-svg-minor-gridline" paint-order="fill stroke markers" d=" M 239.5 0 L 239.5 400" stroke-opacity="0.12" stroke-miterlimit="10" stroke-dasharray=""/><path fill="none" stroke="rgb(0,0,0)" class="dcg-svg-minor-gridline" paint-order="fill stroke markers" d=" M 269.5 0 L 269.5 400" stroke-opacity="0.12" stroke-miterlimit="10" stroke-dasharray=""/><path fill="none" stroke="rgb(0,0,0)" class="dcg-svg-minor-gridline" paint-order="fill stroke markers" d=" M 329.5 0 L 329.5 400" stroke-opacity="0.12" stroke-miterlimit="10" stroke-dasharray=""/><path fill="none" stroke="rgb(0,0,0)" class="dcg-svg-minor-gridline" paint-order="fill stroke markers" d=" M 359.5 0 L 359.5 400" stroke-opacity="0.12" stroke-miterlimit="10" stroke-dasharray=""/><path fill="none" stroke="rgb(0,0,0)" class="dcg-svg-minor-gridline" paint-order="fill stroke markers" d=" M 389.5 0 L 389.5 400" stroke-opacity="0.12" stroke-miterlimit="10" stroke-dasharray=""/><path fill="none" stroke="rgb(0,0,0)" class="dcg-svg-minor-gridline" paint-order="fill stroke markers" d=" M 419.5 0 L 419.5 400" stroke-opacity="0.12" stroke-miterlimit="10" stroke-dasharray=""/><path fill="none" stroke="rgb(0,0,0)" class="dcg-svg-minor-gridline" paint-order="fill stroke markers" d=" M 449.5 0 L 449.5 400" stroke-opacity="0.12" stroke-miterlimit="10" stroke-dasharray=""/><path fill="none" stroke="rgb(0,0,0)" class="dcg-svg-minor-gridline" paint-order="fill stroke markers" d=" M 479.5 0 L 479.5 400" stroke-opacity="0.12" stroke-miterlimit="10" stroke-dasharray=""/><path fill="none" stroke="rgb(0,0,0)" class="dcg-svg-minor-gridline" paint-order="fill stroke markers" d=" M 509.5 0 L 509.5 400" stroke-opacity="0.12" stroke-miterlimit="10" stroke-dasharray=""/><path fill="none" stroke="rgb(0,0,0)" class="dcg-svg-minor-gridline" paint-order="fill stroke markers" d=" M 539.5 0 L 539.5 400" stroke-opacity="0.12" stroke-miterlimit="10" stroke-dasharray=""/><path fill="none" stroke="rgb(0,0,0)" class="dcg-svg-minor-gridline" paint-order="fill stroke markers" d=" M 569.5 0 L 569.5 400" stroke-opacity="0.12" stroke-miterlimit="10" stroke-dasharray=""/><path fill="none" stroke="rgb(0,0,0)" class="dcg-svg-minor-gridline" paint-order="fill stroke markers" d=" M 0 370.5 L 600 370.5" stroke-opacity="0.12" stroke-miterlimit="10" stroke-dasharray=""/><path fill="none" stroke="rgb(0,0,0)" class="dcg-svg-minor-gridline" paint-order="fill stroke markers" d=" M 0 342.5 L 600 342.5" stroke-opacity="0.12" stroke-miterlimit="10" stroke-dasharray=""/><path fill="none" stroke="rgb(0,0,0)" class="dcg-svg-minor-gridline" paint-order="fill stroke markers" d=" M 0 313.5 L 600 313.5" stroke-opacity="0.12" stroke-miterlimit="10" stroke-dasharray=""/><path fill="none" stroke="rgb(0,0,0)" class="dcg-svg-minor-gridline" paint-order="fill stroke markers" d=" M 0 285.5 L 600 285.5" stroke-opacity="0.12" stroke-miterlimit="10" stroke-dasharray=""/><path fill="none" stroke="rgb(0,0,0)" class="dcg-svg-minor-gridline" paint-order="fill stroke markers" d=" M 0 256.5 L 600 256.5" stroke-opacity="0.12" stroke-miterlimit="10" stroke-dasharray=""/><path fill="none" stroke="rgb(0,0,0)" class="dcg-svg-minor-gridline" paint-order="fill stroke markers" d=" M 0 228.5 L 600 228.5" stroke-opacity="0.12" stroke-miterlimit="10" stroke-dasharray=""/><path fill="none" stroke="rgb(0,0,0)" class="dcg-svg-minor-gridline" paint-order="fill stroke markers" d=" M 0 170.5 L 600 170.5" stroke-opacity="0.12" stroke-miterlimit="10" stroke-dasharray=""/><path fill="none" stroke="rgb(0,0,0)" class="dcg-svg-minor-gridline" paint-order="fill stroke markers" d=" M 0 142.5 L 600 142.5" stroke-opacity="0.12" stroke-miterlimit="10" stroke-dasharray=""/><path fill="none" stroke="rgb(0,0,0)" class="dcg-svg-minor-gridline" paint-order="fill stroke markers" d=" M 0 113.5 L 600 113.5" stroke-opacity="0.12" stroke-miterlimit="10" stroke-dasharray=""/><path fill="none" stroke="rgb(0,0,0)" class="dcg-svg-minor-gridline" paint-order="fill stroke markers" d=" M 0 85.5 L 600 85.5" stroke-opacity="0.12" stroke-miterlimit="10" stroke-dasharray=""/><path fill="none" stroke="rgb(0,0,0)" class="dcg-svg-minor-gridline" paint-order="fill stroke markers" d=" M 0 56.5 L 600 56.5" stroke-opacity="0.12" stroke-miterlimit="10" stroke-dasharray=""/><path fill="none" stroke="rgb(0,0,0)" class="dcg-svg-minor-gridline" paint-order="fill stroke markers" d=" M 0 28.5 L 600 28.5" stroke-opacity="0.12" stroke-miterlimit="10" stroke-dasharray=""/><path fill="none" stroke="rgb(0,0,0)" class="dcg-svg-minor-gridline" paint-order="fill stroke markers" d=" M 0 -0.5 L 600 -0.5" stroke-opacity="0.12" stroke-miterlimit="10" stroke-dasharray=""/><path fill="none" stroke="rgb(0,0,0)" class="dcg-svg-major-gridline" paint-order="fill stroke markers" d=" M -0.5 0 L -0.5 400" stroke-opacity="0.31818181818181823" stroke-miterlimit="10" stroke-dasharray=""/><path fill="none" stroke="rgb(0,0,0)" class="dcg-svg-major-gridline" paint-order="fill stroke markers" d=" M 149.5 0 L 149.5 400" stroke-opacity="0.31818181818181823" stroke-miterlimit="10" stroke-dasharray=""/><path fill="none" stroke="rgb(0,0,0)" class="dcg-svg-major-gridline" paint-order="fill stroke markers" d=" M 449.5 0 L 449.5 400" stroke-opacity="0.31818181818181823" stroke-miterlimit="10" stroke-dasharray=""/><path fill="none" stroke="rgb(0,0,0)" class="dcg-svg-major-gridline" paint-order="fill stroke markers" d=" M 0 342.5 L 600 342.5" stroke-opacity="0.31818181818181823" stroke-miterlimit="10" stroke-dasharray=""/><path fill="none" stroke="rgb(0,0,0)" class="dcg-svg-major-gridline" paint-order="fill stroke markers" d=" M 0 56.5 L 600 56.5" stroke-opacity="0.31818181818181823" stroke-miterlimit="10" stroke-dasharray=""/></g></g><g id="axis-022e8ff0"><g id="yaxis-022e8ff0"><title>Y axis</title><path fill="none" stroke="rgb(0,0,0)" class="dcg-svg-axis-line" paint-order="fill stroke markers" d=" M 299.75 0 L 299.75 400" stroke-opacity="0.9" stroke-miterlimit="10" stroke-width="1.5" stroke-dasharray=""/></g><g id="xaxis-022e8ff0"><title>X axis</title><path fill="none" stroke="rgb(0,0,0)" class="dcg-svg-axis-line" paint-order="fill stroke markers" d=" M 0 199.75 L 600 199.75" stroke-opacity="0.9" stroke-miterlimit="10" stroke-width="1.5" stroke-dasharray=""/></g><g><g class="dcg-svg-axis-value"><text fill="none" stroke="#ffffff" font-family="Arial" font-size="14px" font-style="normal" font-weight="normal" text-decoration="normal" x="291.10693359375" y="215.808" text-anchor="middle" stroke-miterlimit="2" stroke-width="3" stroke-dasharray="">0</text><text fill="#000000" stroke="none" font-family="Arial" font-size="14px" font-style="normal" font-weight="normal" text-decoration="normal" x="291.10693359375" y="215.808" text-anchor="middle">0</text></g><g class="dcg-svg-axis-value dcg-svg-offcenter-axis-value"><text fill="none" stroke="#ffffff" font-family="Arial" font-size="14px" font-style="normal" font-weight="normal" text-decoration="normal" x="13.1171875" y="215.808" text-anchor="middle" stroke-miterlimit="2" stroke-width="3" stroke-dasharray="">-10</text><text fill="#000000" stroke="none" font-family="Arial" font-size="14px" font-style="normal" font-weight="normal" text-decoration="normal" x="13.1171875" y="215.808" text-anchor="middle">-10</text></g><g class="dcg-svg-axis-value"><text fill="none" stroke="#ffffff" font-family="Arial" font-size="14px" font-style="normal" font-weight="normal" text-decoration="normal" x="147.6689453125" y="215.808" text-anchor="middle" stroke-miterlimit="2" stroke-width="3" stroke-dasharray="">-5</text><text fill="#000000" stroke="none" font-family="Arial" font-size="14px" font-style="normal" font-weight="normal" text-decoration="normal" x="147.6689453125" y="215.808" text-anchor="middle">-5</text></g><g class="dcg-svg-axis-value"><text fill="none" stroke="#ffffff" font-family="Arial" font-size="14px" font-style="normal" font-weight="normal" text-decoration="normal" x="450" y="215.808" text-anchor="middle" stroke-miterlimit="2" stroke-width="3" stroke-dasharray="">5</text><text fill="#000000" stroke="none" font-family="Arial" font-size="14px" font-style="normal" font-weight="normal" text-decoration="normal" x="450" y="215.808" text-anchor="middle">5</text></g><g class="dcg-svg-axis-value dcg-svg-offcenter-axis-value"><text fill="none" stroke="#ffffff" font-family="Arial" font-size="14px" font-style="normal" font-weight="normal" text-decoration="normal" x="589.2138671875" y="215.808" text-anchor="middle" stroke-miterlimit="2" stroke-width="3" stroke-dasharray="">10</text><text fill="#000000" stroke="none" font-family="Arial" font-size="14px" font-style="normal" font-weight="normal" text-decoration="normal" x="589.2138671875" y="215.808" text-anchor="middle">10</text></g><g class="dcg-svg-axis-value"><text fill="none" stroke="#ffffff" font-family="Arial" font-size="14px" font-style="normal" font-weight="normal" text-decoration="normal" x="288.77587890625" y="346.6651428571428" text-anchor="middle" stroke-miterlimit="2" stroke-width="3" stroke-dasharray="">-5</text><text fill="#000000" stroke="none" font-family="Arial" font-size="14px" font-style="normal" font-weight="normal" text-decoration="normal" x="288.77587890625" y="346.6651428571428" text-anchor="middle">-5</text></g><g class="dcg-svg-axis-value"><text fill="none" stroke="#ffffff" font-family="Arial" font-size="14px" font-style="normal" font-weight="normal" text-decoration="normal" x="291.10693359375" y="60.95085714285717" text-anchor="middle" stroke-miterlimit="2" stroke-width="3" stroke-dasharray="">5</text><text fill="#000000" stroke="none" font-family="Arial" font-size="14px" font-style="normal" font-weight="normal" text-decoration="normal" x="291.10693359375" y="60.95085714285717" text-anchor="middle">5</text></g></g></g></g><g id="expressions-022e8ff0"><g id="sketch-022e8ff0"><title>Expression 1</title><path fill="#2d70b3" stroke="none" paint-order="stroke fill markers" d="" fill-opacity="0.4"/><g><path fill="none" stroke="#2d70b3" class="dcg-svg-curve" paint-order="fill stroke markers" d=" M -0.5 245.01467512965323 L -0.5 245.01467512965323 L 5.505859375 214.9943624777405 L 10.046875 193.76098317492864 L 14.001953125 176.68160692137957 L 17.517578125 162.82579730921475 L 20.59375 151.85581228107526 L 23.5234375 142.49675963096405 L 26.16015625 135.03714441897336 L 28.650390625 128.86696480709816 L 30.994140625 123.86011267490272 L 33.19140625 119.88584902014577 L 35.2421875 116.81310451815864 L 37.29296875 114.35915766268198 L 39.197265625 112.63539850271616 L 40.955078125 111.51710486966721 L 42.419921875 110.9297867825016 L 43.884765625 110.65298902249486 L 45.203125 110.6665895500276 L 46.521484375 110.92600358515102 L 47.986328125 111.49831482657066 L 49.59765625 112.46692247152276 L 51.35546875 113.91931000964973 L 53.40625 116.12001704522135 L 55.603515625 119.05975393218347 L 57.947265625 122.82674020918427 L 60.4375 127.50049342592825 L 63.07421875 133.14769336512097 L 66.00390625 140.1873941566028 L 69.2265625 148.75132820935735 L 73.03515625 159.80247324313362 L 77.576171875 173.9901153224899 L 83.875 194.77375278663308 L 95.154296875 232.0725338940079 L 99.98828125 246.91646956780238 L 103.943359375 258.1330143889079 L 107.458984375 267.23585016037964 L 110.681640625 274.7597811671213 L 113.611328125 280.8529031306405 L 116.39453125 285.9378876569178 L 119.03125 290.09274771891216 L 121.521484375 293.405257693822 L 123.865234375 295.96850896419295 L 126.208984375 297.9874369912866 L 128.259765625 299.30534372308705 L 130.1640625 300.154683807542 L 131.921875 300.6206174662643 L 133.533203125 300.78207688557916 L 135.14453125 300.69267275221466 L 136.755859375 300.35634569738045 L 138.513671875 299.7133722700435 L 140.41796875 298.69979004323494 L 142.46875 297.2511295273267 L 144.8125 295.16044489059806 L 147.44921875 292.28303788684946 L 150.232421875 288.68346905401563 L 153.30859375 284.09212908062955 L 156.677734375 278.4086977159266 L 160.486328125 271.2842733321666 L 164.880859375 262.3361521587196 L 170.59375 249.9255464636069 L 186.267578125 215.460047336654 L 190.955078125 206.11397247568198 L 195.056640625 198.62115376765948 L 198.865234375 192.34193869040965 L 202.380859375 187.19086969023002 L 205.75 182.87691484142348 L 208.97265625 179.34492520030938 L 212.048828125 176.5273341436651 L 214.83203125 174.44642598387242 L 217.46875 172.88194540840922 L 219.958984375 171.76099169220103 L 222.302734375 171.01364485453757 L 224.646484375 170.55392992017818 L 226.990234375 170.36909874394274 L 229.333984375 170.44434362989833 L 231.82421875 170.79055344256298 L 234.4609375 171.43196244063864 L 237.390625 172.4419471155232 L 240.61328125 173.86564062363453 L 244.275390625 175.80784530771072 L 248.962890625 178.65760901396573 L 258.044921875 184.658268873432 L 264.34375 188.60456960998317 L 268.73828125 190.9997927751184 L 272.546875 192.7334212900736 L 275.916015625 193.94936276778876 L 278.9921875 194.76865927446747 L 281.921875 195.2722135730999 L 284.705078125 195.48983709792333 L 287.48828125 195.44796101055886 L 290.271484375 195.14572604867305 L 293.0546875 194.58667688479997 L 295.984375 193.72947668923032 L 299.060546875 192.54820771893566 L 302.4296875 190.9501070956846 L 306.23828125 188.80602513128883 L 310.6328125 185.9689322258809 L 316.4921875 181.77537765221095 L 329.96875 171.98844905920535 L 334.36328125 169.27491827679694 L 338.025390625 167.36539824658124 L 341.248046875 166.0107270367328 L 344.177734375 165.08267987679855 L 346.814453125 164.519507487075 L 349.451171875 164.233006398735 L 351.94140625 164.23008099013427 L 354.431640625 164.4973585261834 L 356.921875 165.04197614949445 L 359.412109375 165.8681209189211 L 362.048828125 167.05092547351188 L 364.83203125 168.64038970919796 L 367.76171875 170.68329553938727 L 370.984375 173.3506809321661 L 374.5 176.72976108091387 L 378.6015625 181.22678737793322 L 383.142578125 186.7892202612657 L 388.708984375 194.21398634356004 L 405.701171875 217.3111660412918 L 409.802734375 222.06804782211879 L 413.46484375 225.75982040313735 L 416.6875 228.48057364662236 L 419.470703125 230.37348100272868 L 421.814453125 231.60500604461117 L 424.01171875 232.435671562477 L 426.0625 232.911736031985 L 427.966796875 233.0831015582593 L 429.87109375 232.98396311848632 L 431.775390625 232.60590955547656 L 433.6796875 231.94175084497886 L 435.583984375 230.98557679574432 L 437.634765625 229.62405751419246 L 439.83203125 227.77918023861247 L 442.322265625 225.20267336421782 L 444.958984375 221.9129809551021 L 447.595703125 218.05157402230344 L 450.37890625 213.36826093679022 L 453.30859375 207.78672411306104 L 456.53125 200.91290405351387 L 459.900390625 192.96179449761897 L 463.708984375 183.1265673702442 L 467.95703125 171.25043225820735 L 473.083984375 155.93557830041786 L 480.701171875 132.0696341361359 L 489.783203125 103.8271050723252 L 494.6171875 89.79266040078966 L 498.572265625 79.21454134830759 L 502.087890625 70.69009770733317 L 505.1640625 64.03139683997279 L 507.947265625 58.73190719808889 L 510.583984375 54.4064280466215 L 512.927734375 51.16999353944556 L 515.271484375 48.53871884726783 L 517.46875 46.646107275236886 L 519.373046875 45.471071650112094 L 520.984375 44.82292364591575 L 522.44921875 44.51412669640092 L 523.9140625 44.47610197267045 L 525.37890625 44.71174082271551 L 526.84375 45.22324917242071 L 528.455078125 46.106315342154744 L 530.212890625 47.453584902928526 L 532.1171875 49.36500788360274 L 534.16796875 51.94653546937593 L 536.365234375 55.3082792591818 L 538.708984375 59.562037654260564 L 541.19921875 64.81809774243902 L 543.8359375 71.18123161137856 L 546.619140625 78.74582524457298 L 549.6953125 88.0547979161961 L 553.064453125 99.29290063469358 L 556.7265625 112.59573389558852 L 560.974609375 129.20092946483157 L 566.248046875 151.08937788371549 L 584.265625 227.01523892645042 L 588.3671875 242.37913285068637 L 591.8828125 254.3889941285873 L 594.958984375 263.84579936779346 L 597.7421875 271.4410599632538 L 599.5 275.7250674800091" stroke-linecap="round" stroke-linejoin="round" stroke-miterlimit="10" stroke-width="2.5" stroke-opacity="0.9" stroke-dasharray=""/></g></g></g><g id="labels-022e8ff0"/></g></svg>