<svg version="1.1" xmlns="http://www.w3.org/2000/svg" xmlns:xlink="http://www.w3.org/1999/xlink" width="600" height="400"><defs/><g transform="scale(1,1)"><g id="background-17629b4d"><rect fill="white" stroke="none" x="0" y="0" width="600" height="400" class="dcg-svg-background"/></g><g id="background-images-17629b4d"/><g id="graphpaper-17629b4d"><g id="grid-17629b4d"><g><path fill="none" stroke="rgb(0,0,0)" class="dcg-svg-minor-gridline" paint-order="fill stroke markers" d=" M -0.5 0 L -0.5 400" stroke-opacity="0.12" stroke-miterlimit="10" stroke-dasharray=""/><path fill="none" stroke="rgb(0,0,0)" class="dcg-svg-minor-gridline" paint-order="fill stroke markers" d=" M 26.5 0 L 26.5 400" stroke-opacity="0.12" stroke-miterlimit="10" stroke-dasharray=""/><path fill="none" stroke="rgb(0,0,0)" class="dcg-svg-minor-gridline" paint-order="fill stroke markers" d=" M 81.5 0 L 81.5 400" stroke-opacity="0.12" stroke-miterlimit="10" stroke-dasharray=""/><path fill="none" stroke="rgb(0,0,0)" class="dcg-svg-minor-gridline" paint-order="fill stroke markers" d=" M 108.5 0 L 108.5 400" stroke-opacity="0.12" stroke-miterlimit="10" stroke-dasharray=""/><path fill="none" stroke="rgb(0,0,0)" class="dcg-svg-minor-gridline" paint-order="fill stroke markers" d=" M 135.5 0 L 135.5 400" stroke-opacity="0.12" stroke-miterlimit="10" stroke-dasharray=""/><path fill="none" stroke="rgb(0,0,0)" class="dcg-svg-minor-gridline" paint-order="fill stroke markers" d=" M 163.5 0 L 163.5 400" stroke-opacity="0.12" stroke-miterlimit="10" stroke-dasharray=""/><path fill="none" stroke="rgb(0,0,0)" class="dcg-svg-minor-gridline" paint-order="fill stroke markers" d=" M 190.5 0 L 190.5 400" stroke-opacity="0.12" stroke-miterlimit="10" stroke-dasharray=""/><path fill="none" stroke="rgb(0,0,0)" class="dcg-svg-minor-gridline" paint-order="fill stroke markers" d=" M 217.5 0 L 217.5 400" stroke-opacity="0.12" stroke-miterlimit="10" stroke-dasharray=""/><path fill="none" stroke="rgb(0,0,0)" class="dcg-svg-minor-gridline" paint-order="fill stroke markers" d=" M 244.5 0 L 244.5 400" stroke-opacity="0.12" stroke-miterlimit="10" stroke-dasharray=""/><path fill="none" stroke="rgb(0,0,0)" class="dcg-svg-minor-gridline" paint-order="fill stroke markers" d=" M 272.5 0 L 272.5 400" stroke-opacity="0.12" stroke-miterlimit="10" stroke-dasharray=""/><path fill="none" stroke="rgb(0,0,0)" class="dcg-svg-minor-gridline" paint-order="fill stroke markers" d=" M 299.5 0 L 299.5 400" stroke-opacity="0.12" stroke-miterlimit="10" stroke-dasharray=""/><path fill="none" stroke="rgb(0,0,0)" class="dcg-svg-minor-gridline" paint-order="fill stroke markers" d=" M 326.5 0 L 326.5 400" stroke-opacity="0.12" stroke-miterlimit="10" stroke-dasharray=""/><path fill="none" stroke="rgb(0,0,0)" class="dcg-svg-minor-gridline" paint-order="fill stroke markers" d=" M 354.5 0 L 354.5 400" stroke-opacity="0.12" stroke-miterlimit="10" stroke-dasharray=""/><path fill="none" stroke="rgb(0,0,0)" class="dcg-svg-minor-gridline" paint-order="fill stroke markers" d=" M 381.5 0 L 381.5 400" stroke-opacity="0.12" stroke-miterlimit="10" stroke-dasharray=""/><path fill="none" stroke="rgb(0,0,0)" class="dcg-svg-minor-gridline" paint-order="fill stroke markers" d=" M 408.5 0 L 408.5 400" stroke-opacity="0.12" stroke-miterlimit="10" stroke-dasharray=""/><path fill="none" stroke="rgb(0,0,0)" class="dcg-svg-minor-gridline" paint-order="fill stroke markers" d=" M 435.5 0 L 435.5 400" stroke-opacity="0.12" stroke-miterlimit="10" stroke-dasharray=""/><path fill="none" stroke="rgb(0,0,0)" class="dcg-svg-minor-gridline" paint-order="fill stroke markers" d=" M 463.5 0 L 463.5 400" stroke-opacity="0.12" stroke-miterlimit="10" stroke-dasharray=""/><path fill="none" stroke="rgb(0,0,0)" class="dcg-svg-minor-gridline" paint-order="fill stroke markers" d=" M 490.5 0 L 490.5 400" stroke-opacity="0.12" stroke-miterlimit="10" stroke-dasharray=""/><path fill="none" stroke="rgb(0,0,0)" class="dcg-svg-minor-gridline" paint-order="fill stroke markers" d=" M 517.5 0 L 517.5 400" stroke-opacity="0.12" stroke-miterlimit="10" stroke-dasharray=""/><path fill="none" stroke="rgb(0,0,0)" class="dcg-svg-minor-gridline" paint-order="fill stroke markers" d=" M 544.5 0 L 544.5 400" stroke-opacity="0.12" stroke-miterlimit="10" stroke-dasharray=""/><path fill="none" stroke="rgb(0,0,0)" class="dcg-svg-minor-gridline" paint-order="fill stroke markers" d=" M 572.5 0 L 572.5 400" stroke-opacity="0.12" stroke-miterlimit="10" stroke-dasharray=""/><path fill="none" stroke="rgb(0,0,0)" class="dcg-svg-minor-gridline" paint-order="fill stroke markers" d=" M 0 367.5 L 600 367.5" stroke-opacity="0.12" stroke-miterlimit="10" stroke-dasharray=""/><path fill="none" stroke="rgb(0,0,0)" class="dcg-svg-minor-gridline" paint-order="fill stroke markers" d=" M 0 335.5 L 600 335.5" stroke-opacity="0.12" stroke-miterlimit="10" stroke-dasharray=""/><path fill="none" stroke="rgb(0,0,0)" class="dcg-svg-minor-gridline" paint-order="fill stroke markers" d=" M 0 303.5 L 600 303.5" stroke-opacity="0.12" stroke-miterlimit="10" stroke-dasharray=""/><path fill="none" stroke="rgb(0,0,0)" class="dcg-svg-minor-gridline" paint-order="fill stroke markers" d=" M 0 271.5 L 600 271.5" stroke-opacity="0.12" stroke-miterlimit="10" stroke-dasharray=""/><path fill="none" stroke="rgb(0,0,0)" class="dcg-svg-minor-gridline" paint-order="fill stroke markers" d=" M 0 207.5 L 600 207.5" stroke-opacity="0.12" stroke-miterlimit="10" stroke-dasharray=""/><path fill="none" stroke="rgb(0,0,0)" class="dcg-svg-minor-gridline" paint-order="fill stroke markers" d=" M 0 175.5 L 600 175.5" stroke-opacity="0.12" stroke-miterlimit="10" stroke-dasharray=""/><path fill="none" stroke="rgb(0,0,0)" class="dcg-svg-minor-gridline" paint-order="fill stroke markers" d=" M 0 143.5 L 600 143.5" stroke-opacity="0.12" stroke-miterlimit="10" stroke-dasharray=""/><path fill="none" stroke="rgb(0,0,0)" class="dcg-svg-minor-gridline" paint-order="fill stroke markers" d=" M 0 111.5 L 600 111.5" stroke-opacity="0.12" stroke-miterlimit="10" stroke-dasharray=""/><path fill="none" stroke="rgb(0,0,0)" class="dcg-svg-minor-gridline" paint-order="fill stroke markers" d=" M 0 79.5 L 600 79.5" stroke-opacity="0.12" stroke-miterlimit="10" stroke-dasharray=""/><path fill="none" stroke="rgb(0,0,0)" class="dcg-svg-minor-gridline" paint-order="fill stroke markers" d=" M 0 47.5 L 600 47.5" stroke-opacity="0.12" stroke-miterlimit="10" stroke-dasharray=""/><path fill="none" stroke="rgb(0,0,0)" class="dcg-svg-minor-gridline" paint-order="fill stroke markers" d=" M 0 15.5 L 600 15.5" stroke-opacity="0.12" stroke-miterlimit="10" stroke-dasharray=""/><path fill="none" stroke="rgb(0,0,0)" class="dcg-svg-major-gridline" paint-order="fill stroke markers" d=" M 163.5 0 L 163.5 400" stroke-opacity="0.31818181818181823" stroke-miterlimit="10" stroke-dasharray=""/><path fill="none" stroke="rgb(0,0,0)" class="dcg-svg-major-gridline" paint-order="fill stroke markers" d=" M 272.5 0 L 272.5 400" stroke-opacity="0.31818181818181823" stroke-miterlimit="10" stroke-dasharray=""/><path fill="none" stroke="rgb(0,0,0)" class="dcg-svg-major-gridline" paint-order="fill stroke markers" d=" M 381.5 0 L 381.5 400" stroke-opacity="0.31818181818181823" stroke-miterlimit="10" stroke-dasharray=""/><path fill="none" stroke="rgb(0,0,0)" class="dcg-svg-major-gridline" paint-order="fill stroke markers" d=" M 490.5 0 L 490.5 400" stroke-opacity="0.31818181818181823" stroke-miterlimit="10" stroke-dasharray=""/><path fill="none" stroke="rgb(0,0,0)" class="dcg-svg-major-gridline" paint-order="fill stroke markers" d=" M 0 79.5 L 600 79.5" stroke-opacity="0.31818181818181823" stroke-miterlimit="10" stroke-dasharray=""/></g></g><g id="axis-17629b4d"><g id="yaxis-17629b4d"><title>Y axis</title><path fill="none" stroke="rgb(0,0,0)" class="dcg-svg-axis-line" paint-order="fill stroke markers" d=" M 54.75 0 L 54.75 400" stroke-opacity="0.9" stroke-miterlimit="10" stroke-width="1.5" stroke-dasharray=""/></g><g id="xaxis-17629b4d"><title>X axis</title><path fill="none" stroke="rgb(0,0,0)" class="dcg-svg-axis-line" paint-order="fill stroke markers" d=" M 0 239.75 L 600 239.75" stroke-opacity="0.9" stroke-miterlimit="10" stroke-width="1.5" stroke-dasharray=""/></g><g><g class="dcg-svg-axis-value"><text fill="none" stroke="#ffffff" font-family="Arial" font-size="14px" font-style="normal" font-weight="normal" text-decoration="normal" x="45.65238813920455" y="255.808" text-anchor="middle" stroke-miterlimit="2" stroke-width="3" stroke-dasharray="">0</text><text fill="#000000" stroke="none" font-family="Arial" font-size="14px" font-style="normal" font-weight="normal" text-decoration="normal" x="45.65238813920455" y="255.808" text-anchor="middle">0</text></g><g class="dcg-svg-axis-value"><text fill="none" stroke="#ffffff" font-family="Arial" font-size="14px" font-style="normal" font-weight="normal" text-decoration="normal" x="163.63636363636363" y="255.808" text-anchor="middle" stroke-miterlimit="2" stroke-width="3" stroke-dasharray="">2</text><text fill="#000000" stroke="none" font-family="Arial" font-size="14px" font-style="normal" font-weight="normal" text-decoration="normal" x="163.63636363636363" y="255.808" text-anchor="middle">2</text></g><g class="dcg-svg-axis-value"><text fill="none" stroke="#ffffff" font-family="Arial" font-size="14px" font-style="normal" font-weight="normal" text-decoration="normal" x="272.72727272727275" y="255.808" text-anchor="middle" stroke-miterlimit="2" stroke-width="3" stroke-dasharray="">4</text><text fill="#000000" stroke="none" font-family="Arial" font-size="14px" font-style="normal" font-weight="normal" text-decoration="normal" x="272.72727272727275" y="255.808" text-anchor="middle">4</text></g><g class="dcg-svg-axis-value"><text fill="none" stroke="#ffffff" font-family="Arial" font-size="14px" font-style="normal" font-weight="normal" text-decoration="normal" x="381.8181818181818" y="255.808" text-anchor="middle" stroke-miterlimit="2" stroke-width="3" stroke-dasharray="">6</text><text fill="#000000" stroke="none" font-family="Arial" font-size="14px" font-style="normal" font-weight="normal" text-decoration="normal" x="381.8181818181818" y="255.808" text-anchor="middle">6</text></g><g class="dcg-svg-axis-value"><text fill="none" stroke="#ffffff" font-family="Arial" font-size="14px" font-style="normal" font-weight="normal" text-decoration="normal" x="490.90909090909093" y="255.808" text-anchor="middle" stroke-miterlimit="2" stroke-width="3" stroke-dasharray="">8</text><text fill="#000000" stroke="none" font-family="Arial" font-size="14px" font-style="normal" font-weight="normal" text-decoration="normal" x="490.90909090909093" y="255.808" text-anchor="middle">8</text></g><g class="dcg-svg-axis-value dcg-svg-offcenter-axis-value"><text fill="none" stroke="#ffffff" font-family="Arial" font-size="14px" font-style="normal" font-weight="normal" text-decoration="normal" x="589.2138671875" y="255.808" text-anchor="middle" stroke-miterlimit="2" stroke-width="3" stroke-dasharray="">10</text><text fill="#000000" stroke="none" font-family="Arial" font-size="14px" font-style="normal" font-weight="normal" text-decoration="normal" x="589.2138671875" y="255.808" text-anchor="middle">10</text></g><g class="dcg-svg-axis-value dcg-svg-offcenter-axis-value"><text fill="none" stroke="#ffffff" font-family="Arial" font-size="14px" font-style="normal" font-weight="normal" text-decoration="normal" x="43.32133345170455" y="393.808" text-anchor="middle" stroke-miterlimit="2" stroke-width="3" stroke-dasharray="">-1</text><text fill="#000000" stroke="none" font-family="Arial" font-size="14px" font-style="normal" font-weight="normal" text-decoration="normal" x="43.32133345170455" y="393.808" text-anchor="middle">-1</text></g><g class="dcg-svg-axis-value"><text fill="none" stroke="#ffffff" font-family="Arial" font-size="14px" font-style="normal" font-weight="normal" text-decoration="normal" x="45.65238813920455" y="83.808" text-anchor="middle" stroke-miterlimit="2" stroke-width="3" stroke-dasharray="">1</text><text fill="#000000" stroke="none" font-family="Arial" font-size="14px" font-style="normal" font-weight="normal" text-decoration="normal" x="45.65238813920455" y="83.808" text-anchor="middle">1</text></g></g></g></g><g id="expressions-17629b4d"><g id="sketch-17629b4d"><title>Expression 1</title><path fill="#2d70b3" stroke="none" paint-order="stroke fill markers" d="" fill-opacity="0.4"/><g><path fill="none" stroke="#2d70b3" class="dcg-svg-curve" paint-order="fill stroke markers" d=" M -0.5 399.5 L -0.5 399.5 L 1.4630570845170414 405.5" stroke-linecap="round" stroke-linejoin="round" stroke-miterlimit="10" stroke-width="2.5" stroke-opacity="0.9" stroke-dasharray=""/></g><g><path fill="none" stroke="#2d70b3" class="dcg-svg-curve" paint-order="fill stroke markers" d=" M 89.67888476902789 -5.5 L 89.67888476902789 -5.5 L 89.880859375 -4.037718320327031 L 92.078125 10.032212885154024 L 94.275390625 22.565210195299528 L 96.326171875 33.08740157480315 L 98.376953125 42.63607689997002 L 100.427734375 51.34036749928225 L 102.625 59.850877192982466 L 104.822265625 67.62483608707055 L 107.01953125 74.75389643036704 L 109.216796875 81.31510982379916 L 111.4140625 87.37372330547817 L 113.7578125 93.34478144513827 L 116.1015625 98.86480686695279 L 118.591796875 104.29059211883634 L 121.08203125 109.31326976559393 L 123.71875 114.24006116207954 L 126.35546875 118.80755064456724 L 129.138671875 123.28081220074483 L 132.068359375 127.64473459634746 L 135.14453125 131.88752052545158 L 138.3671875 136.0003158559697 L 141.736328125 139.9768413059985 L 145.251953125 143.81303839976638 L 148.9140625 147.50673778775968 L 152.72265625 151.057354925776 L 156.82421875 154.5868100544182 L 161.072265625 157.95713574716933 L 165.61328125 161.276080210074 L 170.447265625 164.52459672806313 L 175.57421875 167.68759587990357 L 180.994140625 170.7535403335781 L 186.70703125 173.71401325035134 L 192.859375 176.62970069071375 L 199.451171875 179.47985163476505 L 206.482421875 182.24831833668208 L 213.953125 184.9230512991339 L 222.009765625 187.5409101720447 L 230.65234375 190.08362237973157 L 240.02734375 192.57460976657597 L 250.134765625 194.99337860780983 L 261.12109375 197.35466237942126 L 272.986328125 199.63867769600387 L 285.876953125 201.85510368200354 L 299.939453125 204.0079880855673 L 315.3203125 206.0973496432212 L 332.166015625 208.12054105817575 L 350.623046875 210.07339140586413 L 370.984375 211.9638655462185 L 393.54296875 213.79355926884756 L 418.591796875 215.55990867579908 L 446.5703125 217.26631836070024 L 477.771484375 218.90350105283005 L 512.78125 220.47538318625172 L 552.33203125 221.98543481746754 L 597.15625 223.4309533150255 L 599.5 223.5" stroke-linecap="round" stroke-linejoin="round" stroke-miterlimit="10" stroke-width="2.5" stroke-opacity="0.9" stroke-dasharray=""/></g></g><g id="sketch-17629b4d"><title>Expression 2</title><path fill="#c64440" stroke="none" class="dcg-svg-region" paint-order="stroke fill markers" d=" M 108.5909090909091 79.5 L 163.13636363636363 79.5 L 163.13636363636363 399.5 L 108.5909090909091 399.5 L 108.5909090909091 79.5" fill-opacity="0.4"/><path fill="#c64440" stroke="none" paint-order="stroke fill markers" d="" fill-opacity="0.4"/><path fill="#c64440" stroke="none" paint-order="stroke fill markers" d="" fill-opacity="0.4"/><path fill="#c64440" stroke="none" paint-order="stroke fill markers" d="" fill-opacity="0.4"/><path fill="#c64440" stroke="none" paint-order="stroke fill markers" d="" fill-opacity="0.4"/><g><path fill="none" stroke="#c64440" class="dcg-svg-curve" paint-order="fill stroke markers" d=" M 108.5909090909091 79.5 L 119.5909090909091 79.5 M 126.5909090909091 79.5 L 137.5909090909091 79.5 M 144.5909090909091 79.5 L 155.5909090909091 79.5 M 162.5909090909091 79.5 L 163.13636363636363 79.5" stroke-linecap="round" stroke-linejoin="round" stroke-miterlimit="10" stroke-width="2.5" stroke-opacity="0.9" stroke-dasharray=""/></g></g><g id="sketch-17629b4d"><title>Expression 3</title><path fill="#c64440" stroke="none" paint-order="stroke fill markers" d="" fill-opacity="0.4"/><path fill="#c64440" stroke="none" class="dcg-svg-region" paint-order="stroke fill markers" d=" M 217.6793212890625 -3 L 217.6793212890625 403 L 163.20118713378906 403 L 163.214599609375 402.85693359375 L 163.17340087890625 402.41748046875 L 163.214599609375 401.97802734375 L 163.17340087890625 401.53857421875 L 163.214599609375 401.09912109375 L 163.17340087890625 400.65966796875 L 163.214599609375 400.22021484375 L 163.17340087890625 399.78076171875 L 163.214599609375 399.34130859375 L 163.17340087890625 398.90185546875 L 163.214599609375 398.46240234375 L 163.17340087890625 398.02294921875 L 163.214599609375 397.58349609375 L 163.17340087890625 397.14404296875 L 163.214599609375 396.70458984375 L 163.17340087890625 396.26513671875 L 163.214599609375 395.82568359375 L 163.17340087890625 395.38623046875 L 163.214599609375 394.94677734375 L 163.17340087890625 394.50732421875 L 163.214599609375 394.06787109375 L 163.17340087890625 393.62841796875 L 163.214599609375 393.18896484375 L 163.17340087890625 392.74951171875 L 163.214599609375 392.31005859375 L 163.17340087890625 391.87060546875 L 163.214599609375 391.43115234375 L 163.17340087890625 390.99169921875 L 163.214599609375 390.55224609375 L 163.17340087890625 390.11279296875 L 163.214599609375 389.67333984375 L 163.17340087890625 389.23388671875 L 163.214599609375 388.79443359375 L 163.17340087890625 388.35498046875 L 163.214599609375 387.91552734375 L 163.17340087890625 387.47607421875 L 163.214599609375 387.03662109375 L 163.17340087890625 386.59716796875 L 163.214599609375 386.15771484375 L 163.17340087890625 385.71826171875 L 163.214599609375 385.27880859375 L 163.17340087890625 384.83935546875 L 163.214599609375 384.39990234375 L 163.17340087890625 383.96044921875 L 163.214599609375 383.52099609375 L 163.17340087890625 383.08154296875 L 163.214599609375 382.64208984375 L 163.17340087890625 382.20263671875 L 163.214599609375 381.76318359375 L 163.17340087890625 381.32373046875 L 163.214599609375 380.88427734375 L 163.17340087890625 380.44482421875 L 163.214599609375 380.00537109375 L 163.17340087890625 379.56591796875 L 163.214599609375 379.12646484375 L 163.17340087890625 378.68701171875 L 163.214599609375 378.24755859375 L 163.17340087890625 377.80810546875 L 163.214599609375 377.36865234375 L 163.17340087890625 376.92919921875 L 163.214599609375 376.48974609375 L 163.17340087890625 376.05029296875 L 163.214599609375 375.61083984375 L 163.17340087890625 375.17138671875 L 163.214599609375 374.73193359375 L 163.17340087890625 374.29248046875 L 163.214599609375 373.85302734375 L 163.17340087890625 373.41357421875 L 163.214599609375 372.97412109375 L 163.17340087890625 372.53466796875 L 163.214599609375 372.09521484375 L 163.17340087890625 371.65576171875 L 163.214599609375 371.21630859375 L 163.17340087890625 370.77685546875 L 163.214599609375 370.33740234375 L 163.17340087890625 369.89794921875 L 163.214599609375 369.45849609375 L 163.17340087890625 369.01904296875 L 163.214599609375 368.57958984375 L 163.17340087890625 368.14013671875 L 163.214599609375 367.70068359375 L 163.17340087890625 367.26123046875 L 163.214599609375 366.82177734375 L 163.17340087890625 366.38232421875 L 163.214599609375 365.94287109375 L 163.17340087890625 365.50341796875 L 163.214599609375 365.06396484375 L 163.17340087890625 364.62451171875 L 163.214599609375 364.18505859375 L 163.17340087890625 363.74560546875 L 163.214599609375 363.30615234375 L 163.17340087890625 362.86669921875 L 163.214599609375 362.42724609375 L 163.17340087890625 361.98779296875 L 163.214599609375 361.54833984375 L 163.17340087890625 361.10888671875 L 163.214599609375 360.66943359375 L 163.17340087890625 360.22998046875 L 163.214599609375 359.79052734375 L 163.17340087890625 359.35107421875 L 163.214599609375 358.91162109375 L 163.17340087890625 358.47216796875 L 163.214599609375 358.03271484375 L 163.17340087890625 357.59326171875 L 163.214599609375 357.15380859375 L 163.17340087890625 356.71435546875 L 163.214599609375 356.27490234375 L 163.17340087890625 355.83544921875 L 163.214599609375 355.39599609375 L 163.17340087890625 354.95654296875 L 163.214599609375 354.51708984375 L 163.17340087890625 354.07763671875 L 163.214599609375 353.63818359375 L 163.17340087890625 353.19873046875 L 163.214599609375 352.75927734375 L 163.17340087890625 352.31982421875 L 163.214599609375 351.88037109375 L 163.17340087890625 351.44091796875 L 163.214599609375 351.00146484375 L 163.17340087890625 350.56201171875 L 163.214599609375 350.12255859375 L 163.17340087890625 349.68310546875 L 163.214599609375 349.24365234375 L 163.17340087890625 348.80419921875 L 163.214599609375 348.36474609375 L 163.17340087890625 347.92529296875 L 163.214599609375 347.48583984375 L 163.17340087890625 347.04638671875 L 163.214599609375 346.60693359375 L 163.17340087890625 346.16748046875 L 163.214599609375 345.72802734375 L 163.17340087890625 345.28857421875 L 163.214599609375 344.84912109375 L 163.17340087890625 344.40966796875 L 163.214599609375 343.97021484375 L 163.17340087890625 343.53076171875 L 163.214599609375 343.09130859375 L 163.17340087890625 342.65185546875 L 163.214599609375 342.21240234375 L 163.17340087890625 341.77294921875 L 163.214599609375 341.33349609375 L 163.17340087890625 340.89404296875 L 163.214599609375 340.45458984375 L 163.17340087890625 340.01513671875 L 163.214599609375 339.57568359375 L 163.17340087890625 339.13623046875 L 163.214599609375 338.69677734375 L 163.17340087890625 338.25732421875 L 163.214599609375 337.81787109375 L 163.17340087890625 337.37841796875 L 163.214599609375 336.93896484375 L 163.17340087890625 336.49951171875 L 163.214599609375 336.06005859375 L 163.17340087890625 335.62060546875 L 163.214599609375 335.18115234375 L 163.17340087890625 334.74169921875 L 163.214599609375 334.30224609375 L 163.17340087890625 333.86279296875 L 163.214599609375 333.42333984375 L 163.17340087890625 332.98388671875 L 163.214599609375 332.54443359375 L 163.17340087890625 332.10498046875 L 163.214599609375 331.66552734375 L 163.17340087890625 331.22607421875 L 163.214599609375 330.78662109375 L 163.17340087890625 330.34716796875 L 163.214599609375 329.90771484375 L 163.17340087890625 329.46826171875 L 163.214599609375 329.02880859375 L 163.17340087890625 328.58935546875 L 163.214599609375 328.14990234375 L 163.17340087890625 327.71044921875 L 163.214599609375 327.27099609375 L 163.17340087890625 326.83154296875 L 163.214599609375 326.39208984375 L 163.17340087890625 325.95263671875 L 163.214599609375 325.51318359375 L 163.17340087890625 325.07373046875 L 163.214599609375 324.63427734375 L 163.17340087890625 324.19482421875 L 163.214599609375 323.75537109375 L 163.17340087890625 323.31591796875 L 163.214599609375 322.87646484375 L 163.17340087890625 322.43701171875 L 163.214599609375 321.99755859375 L 163.17340087890625 321.55810546875 L 163.214599609375 321.11865234375 L 163.17340087890625 320.67919921875 L 163.214599609375 320.23974609375 L 163.17340087890625 319.80029296875 L 163.214599609375 319.36083984375 L 163.17340087890625 318.92138671875 L 163.214599609375 318.48193359375 L 163.17340087890625 318.04248046875 L 163.214599609375 317.60302734375 L 163.17340087890625 317.16357421875 L 163.214599609375 316.72412109375 L 163.17340087890625 316.28466796875 L 163.214599609375 315.84521484375 L 163.17340087890625 315.40576171875 L 163.214599609375 314.96630859375 L 163.17340087890625 314.52685546875 L 163.214599609375 314.08740234375 L 163.17340087890625 313.64794921875 L 163.214599609375 313.20849609375 L 163.17340087890625 312.76904296875 L 163.214599609375 312.32958984375 L 163.17340087890625 311.89013671875 L 163.214599609375 311.45068359375 L 163.17340087890625 311.01123046875 L 163.214599609375 310.57177734375 L 163.17340087890625 310.13232421875 L 163.214599609375 309.69287109375 L 163.17340087890625 309.25341796875 L 163.214599609375 308.81396484375 L 163.17340087890625 308.37451171875 L 163.214599609375 307.93505859375 L 163.17340087890625 307.49560546875 L 163.214599609375 307.05615234375 L 163.17340087890625 306.61669921875 L 163.214599609375 306.17724609375 L 163.17340087890625 305.73779296875 L 163.214599609375 305.29833984375 L 163.17340087890625 304.85888671875 L 163.214599609375 304.41943359375 L 163.17340087890625 303.97998046875 L 163.214599609375 303.54052734375 L 163.17340087890625 303.10107421875 L 163.214599609375 302.66162109375 L 163.17340087890625 302.22216796875 L 163.214599609375 301.78271484375 L 163.17340087890625 301.34326171875 L 163.214599609375 300.90380859375 L 163.17340087890625 300.46435546875 L 163.214599609375 300.02490234375 L 163.17340087890625 299.58544921875 L 163.214599609375 299.14599609375 L 163.17340087890625 298.70654296875 L 163.214599609375 298.26708984375 L 163.17340087890625 297.82763671875 L 163.214599609375 297.38818359375 L 163.17340087890625 296.94873046875 L 163.214599609375 296.50927734375 L 163.17340087890625 296.06982421875 L 163.214599609375 295.63037109375 L 163.17340087890625 295.19091796875 L 163.214599609375 294.75146484375 L 163.17340087890625 294.31201171875 L 163.214599609375 293.87255859375 L 163.17340087890625 293.43310546875 L 163.214599609375 292.99365234375 L 163.17340087890625 292.55419921875 L 163.214599609375 292.11474609375 L 163.17340087890625 291.67529296875 L 163.214599609375 291.23583984375 L 163.17340087890625 290.79638671875 L 163.214599609375 290.35693359375 L 163.17340087890625 289.91748046875 L 163.214599609375 289.47802734375 L 163.17340087890625 289.03857421875 L 163.214599609375 288.59912109375 L 163.17340087890625 288.15966796875 L 163.214599609375 287.72021484375 L 163.17340087890625 287.28076171875 L 163.214599609375 286.84130859375 L 163.17340087890625 286.40185546875 L 163.214599609375 285.96240234375 L 163.17340087890625 285.52294921875 L 163.214599609375 285.08349609375 L 163.17340087890625 284.64404296875 L 163.214599609375 284.20458984375 L 163.17340087890625 283.76513671875 L 163.214599609375 283.32568359375 L 163.17340087890625 282.88623046875 L 163.214599609375 282.44677734375 L 163.17340087890625 282.00732421875 L 163.214599609375 281.56787109375 L 163.17340087890625 281.12841796875 L 163.214599609375 280.68896484375 L 163.17340087890625 280.24951171875 L 163.214599609375 279.81005859375 L 163.17340087890625 279.37060546875 L 163.214599609375 278.93115234375 L 163.17340087890625 278.49169921875 L 163.214599609375 278.05224609375 L 163.17340087890625 277.61279296875 L 163.214599609375 277.17333984375 L 163.17340087890625 276.73388671875 L 163.214599609375 276.29443359375 L 163.17340087890625 275.85498046875 L 163.214599609375 275.41552734375 L 163.17340087890625 274.97607421875 L 163.214599609375 274.53662109375 L 163.17340087890625 274.09716796875 L 163.214599609375 273.65771484375 L 163.17340087890625 273.21826171875 L 163.214599609375 272.77880859375 L 163.17340087890625 272.33935546875 L 163.214599609375 271.89990234375 L 163.17340087890625 271.46044921875 L 163.214599609375 271.02099609375 L 163.17340087890625 270.58154296875 L 163.214599609375 270.14208984375 L 163.17340087890625 269.70263671875 L 163.214599609375 269.26318359375 L 163.17340087890625 268.82373046875 L 163.214599609375 268.38427734375 L 163.17340087890625 267.94482421875 L 163.214599609375 267.50537109375 L 163.17340087890625 267.06591796875 L 163.214599609375 266.62646484375 L 163.17340087890625 266.18701171875 L 163.214599609375 265.74755859375 L 163.17340087890625 265.30810546875 L 163.214599609375 264.86865234375 L 163.17340087890625 264.42919921875 L 163.214599609375 263.98974609375 L 163.17340087890625 263.55029296875 L 163.214599609375 263.11083984375 L 163.17340087890625 262.67138671875 L 163.214599609375 262.23193359375 L 163.17340087890625 261.79248046875 L 163.214599609375 261.35302734375 L 163.17340087890625 260.91357421875 L 163.214599609375 260.47412109375 L 163.17340087890625 260.03466796875 L 163.214599609375 259.59521484375 L 163.17340087890625 259.15576171875 L 163.214599609375 258.71630859375 L 163.17340087890625 258.27685546875 L 163.214599609375 257.83740234375 L 163.17340087890625 257.39794921875 L 163.214599609375 256.95849609375 L 163.17340087890625 256.51904296875 L 163.214599609375 256.07958984375 L 163.17340087890625 255.64013671875 L 163.214599609375 255.20068359375 L 163.17340087890625 254.76123046875 L 163.214599609375 254.32177734375 L 163.17340087890625 253.88232421875 L 163.214599609375 253.44287109375 L 163.17340087890625 253.00341796875 L 163.214599609375 252.56396484375 L 163.17340087890625 252.12451171875 L 163.214599609375 251.68505859375 L 163.17340087890625 251.24560546875 L 163.214599609375 250.80615234375 L 163.17340087890625 250.36669921875 L 163.214599609375 249.92724609375 L 163.17340087890625 249.48779296875 L 163.214599609375 249.04833984375 L 163.17340087890625 248.60888671875 L 163.214599609375 248.16943359375 L 163.17340087890625 247.72998046875 L 163.214599609375 247.29052734375 L 163.17340087890625 246.85107421875 L 163.214599609375 246.41162109375 L 163.17340087890625 245.97216796875 L 163.214599609375 245.53271484375 L 163.17340087890625 245.09326171875 L 163.214599609375 244.65380859375 L 163.17340087890625 244.21435546875 L 163.214599609375 243.77490234375 L 163.17340087890625 243.33544921875 L 163.214599609375 242.89599609375 L 163.17340087890625 242.45654296875 L 163.214599609375 242.01708984375 L 163.17340087890625 241.57763671875 L 163.214599609375 241.13818359375 L 163.17340087890625 240.69873046875 L 163.214599609375 240.25927734375 L 163.17340087890625 239.81982421875 L 163.214599609375 239.38037109375 L 163.17340087890625 238.94091796875 L 163.214599609375 238.50146484375 L 163.17340087890625 238.06201171875 L 163.214599609375 237.62255859375 L 163.17340087890625 237.18310546875 L 163.214599609375 236.74365234375 L 163.17340087890625 236.30419921875 L 163.214599609375 235.86474609375 L 163.17340087890625 235.42529296875 L 163.214599609375 234.98583984375 L 163.17340087890625 234.54638671875 L 163.214599609375 234.10693359375 L 163.17340087890625 233.66748046875 L 163.214599609375 233.22802734375 L 163.17340087890625 232.78857421875 L 163.214599609375 232.34912109375 L 163.17340087890625 231.90966796875 L 163.214599609375 231.47021484375 L 163.17340087890625 231.03076171875 L 163.214599609375 230.59130859375 L 163.17340087890625 230.15185546875 L 163.214599609375 229.71240234375 L 163.17340087890625 229.27294921875 L 163.214599609375 228.83349609375 L 163.17340087890625 228.39404296875 L 163.214599609375 227.95458984375 L 163.17340087890625 227.51513671875 L 163.214599609375 227.07568359375 L 163.17340087890625 226.63623046875 L 163.214599609375 226.19677734375 L 163.17340087890625 225.75732421875 L 163.214599609375 225.31787109375 L 163.17340087890625 224.87841796875 L 163.214599609375 224.43896484375 L 163.17340087890625 223.99951171875 L 163.214599609375 223.56005859375 L 163.17340087890625 223.12060546875 L 163.214599609375 222.68115234375 L 163.17340087890625 222.24169921875 L 163.214599609375 221.80224609375 L 163.17340087890625 221.36279296875 L 163.214599609375 220.92333984375 L 163.17340087890625 220.48388671875 L 163.214599609375 220.04443359375 L 163.17340087890625 219.60498046875 L 163.214599609375 219.16552734375 L 163.17340087890625 218.72607421875 L 163.214599609375 218.28662109375 L 163.17340087890625 217.84716796875 L 163.214599609375 217.40771484375 L 163.17340087890625 216.96826171875 L 163.214599609375 216.52880859375 L 163.17340087890625 216.08935546875 L 163.214599609375 215.64990234375 L 163.17340087890625 215.21044921875 L 163.214599609375 214.77099609375 L 163.17340087890625 214.33154296875 L 163.214599609375 213.89208984375 L 163.17340087890625 213.45263671875 L 163.214599609375 213.01318359375 L 163.17340087890625 212.57373046875 L 163.214599609375 212.13427734375 L 163.17340087890625 211.69482421875 L 163.214599609375 211.25537109375 L 163.17340087890625 210.81591796875 L 163.214599609375 210.37646484375 L 163.17340087890625 209.93701171875 L 163.214599609375 209.49755859375 L 163.17340087890625 209.05810546875 L 163.214599609375 208.61865234375 L 163.17340087890625 208.17919921875 L 163.214599609375 207.73974609375 L 163.17340087890625 207.30029296875 L 163.214599609375 206.86083984375 L 163.17340087890625 206.42138671875 L 163.214599609375 205.98193359375 L 163.17340087890625 205.54248046875 L 163.214599609375 205.10302734375 L 163.17340087890625 204.66357421875 L 163.214599609375 204.22412109375 L 163.17340087890625 203.78466796875 L 163.214599609375 203.34521484375 L 163.17340087890625 202.90576171875 L 163.214599609375 202.46630859375 L 163.17340087890625 202.02685546875 L 163.214599609375 201.58740234375 L 163.17340087890625 201.14794921875 L 163.214599609375 200.70849609375 L 163.17340087890625 200.26904296875 L 163.214599609375 199.82958984375 L 163.17340087890625 199.39013671875 L 163.214599609375 198.95068359375 L 163.17340087890625 198.51123046875 L 163.214599609375 198.07177734375 L 163.17340087890625 197.63232421875 L 163.214599609375 197.19287109375 L 163.17340087890625 196.75341796875 L 163.214599609375 196.31396484375 L 163.17340087890625 195.87451171875 L 163.214599609375 195.43505859375 L 163.17340087890625 194.99560546875 L 163.214599609375 194.55615234375 L 163.17340087890625 194.11669921875 L 163.214599609375 193.67724609375 L 163.17340087890625 193.23779296875 L 163.214599609375 192.79833984375 L 163.17340087890625 192.35888671875 L 163.214599609375 191.91943359375 L 163.17340087890625 191.47998046875 L 163.214599609375 191.04052734375 L 163.17340087890625 190.60107421875 L 163.214599609375 190.16162109375 L 163.17340087890625 189.72216796875 L 163.214599609375 189.28271484375 L 163.17340087890625 188.84326171875 L 163.214599609375 188.40380859375 L 163.17340087890625 187.96435546875 L 163.214599609375 187.52490234375 L 163.17340087890625 187.08544921875 L 163.214599609375 186.64599609375 L 163.17340087890625 186.20654296875 L 163.214599609375 185.76708984375 L 163.17340087890625 185.32763671875 L 163.214599609375 184.88818359375 L 163.17340087890625 184.44873046875 L 163.214599609375 184.00927734375 L 163.17340087890625 183.56982421875 L 163.214599609375 183.13037109375 L 163.17340087890625 182.69091796875 L 163.214599609375 182.25146484375 L 163.17340087890625 181.81201171875 L 163.214599609375 181.37255859375 L 163.17340087890625 180.93310546875 L 163.214599609375 180.49365234375 L 163.17340087890625 180.05419921875 L 163.214599609375 179.61474609375 L 163.17340087890625 179.17529296875 L 163.214599609375 178.73583984375 L 163.17340087890625 178.29638671875 L 163.214599609375 177.85693359375 L 163.17340087890625 177.41748046875 L 163.214599609375 176.97802734375 L 163.17340087890625 176.53857421875 L 163.214599609375 176.09912109375 L 163.17340087890625 175.65966796875 L 163.214599609375 175.22021484375 L 163.17340087890625 174.78076171875 L 163.214599609375 174.34130859375 L 163.17340087890625 173.90185546875 L 163.214599609375 173.46240234375 L 163.17340087890625 173.02294921875 L 163.214599609375 172.58349609375 L 163.17340087890625 172.14404296875 L 163.214599609375 171.70458984375 L 163.17340087890625 171.26513671875 L 163.214599609375 170.82568359375 L 163.17340087890625 170.38623046875 L 163.214599609375 169.94677734375 L 163.17340087890625 169.50732421875 L 163.214599609375 169.06787109375 L 163.17340087890625 168.62841796875 L 163.214599609375 168.18896484375 L 163.17340087890625 167.74951171875 L 163.214599609375 167.31005859375 L 163.17340087890625 166.87060546875 L 163.214599609375 166.43115234375 L 163.17340087890625 165.99169921875 L 163.214599609375 165.55224609375 L 163.17340087890625 165.11279296875 L 163.214599609375 164.67333984375 L 163.17340087890625 164.23388671875 L 163.214599609375 163.79443359375 L 163.17340087890625 163.35498046875 L 163.214599609375 162.91552734375 L 163.17340087890625 162.47607421875 L 163.214599609375 162.03662109375 L 163.17340087890625 161.59716796875 L 163.214599609375 161.15771484375 L 163.17340087890625 160.71826171875 L 163.214599609375 160.27880859375 L 163.17340087890625 159.83935546875 L 163.214599609375 159.39990234375 L 163.17340087890625 158.96044921875 L 163.214599609375 158.52099609375 L 163.17340087890625 158.08154296875 L 163.214599609375 157.64208984375 L 163.17340087890625 157.20263671875 L 163.214599609375 156.76318359375 L 163.17340087890625 156.32373046875 L 163.214599609375 155.88427734375 L 163.17340087890625 155.44482421875 L 163.214599609375 155.00537109375 L 163.17340087890625 154.56591796875 L 163.214599609375 154.12646484375 L 163.17340087890625 153.68701171875 L 163.214599609375 153.24755859375 L 163.17340087890625 152.80810546875 L 163.214599609375 152.36865234375 L 163.17340087890625 151.92919921875 L 163.214599609375 151.48974609375 L 163.17340087890625 151.05029296875 L 163.214599609375 150.61083984375 L 163.17340087890625 150.17138671875 L 163.214599609375 149.73193359375 L 163.17340087890625 149.29248046875 L 163.214599609375 148.85302734375 L 163.17340087890625 148.41357421875 L 163.214599609375 147.97412109375 L 163.17340087890625 147.53466796875 L 163.214599609375 147.09521484375 L 163.17340087890625 146.65576171875 L 163.214599609375 146.21630859375 L 163.17340087890625 145.77685546875 L 163.214599609375 145.33740234375 L 163.17340087890625 144.89794921875 L 163.214599609375 144.45849609375 L 163.17340087890625 144.01904296875 L 163.214599609375 143.57958984375 L 163.17340087890625 143.14013671875 L 163.214599609375 142.70068359375 L 163.17340087890625 142.26123046875 L 163.214599609375 141.82177734375 L 163.17340087890625 141.38232421875 L 163.214599609375 140.94287109375 L 163.17340087890625 140.50341796875 L 163.214599609375 140.06396484375 L 163.17340087890625 139.62451171875 L 163.214599609375 139.18505859375 L 163.17340087890625 138.74560546875 L 163.214599609375 138.30615234375 L 163.17340087890625 137.86669921875 L 163.214599609375 137.42724609375 L 163.17340087890625 136.98779296875 L 163.214599609375 136.54833984375 L 163.17340087890625 136.10888671875 L 163.214599609375 135.66943359375 L 163.17340087890625 135.22998046875 L 163.214599609375 134.79052734375 L 163.17340087890625 134.35107421875 L 163.214599609375 133.91162109375 L 163.17340087890625 133.47216796875 L 163.214599609375 133.03271484375 L 163.17340087890625 132.59326171875 L 163.214599609375 132.15380859375 L 163.17340087890625 131.71435546875 L 163.214599609375 131.27490234375 L 163.17340087890625 130.83544921875 L 163.214599609375 130.39599609375 L 163.17340087890625 129.95654296875 L 163.214599609375 129.51708984375 L 163.17340087890625 129.07763671875 L 163.214599609375 128.63818359375 L 163.17340087890625 128.19873046875 L 163.214599609375 127.75927734375 L 163.17340087890625 127.31982421875 L 163.214599609375 126.88037109375 L 163.17340087890625 126.44091796875 L 163.214599609375 126.00146484375 L 163.17340087890625 125.56201171875 L 163.214599609375 125.12255859375 L 163.17340087890625 124.68310546875 L 163.214599609375 124.24365234375 L 163.17340087890625 123.80419921875 L 163.214599609375 123.36474609375 L 163.17340087890625 122.92529296875 L 163.214599609375 122.48583984375 L 163.17340087890625 122.04638671875 L 163.214599609375 121.60693359375 L 163.17340087890625 121.16748046875 L 163.214599609375 120.72802734375 L 163.17340087890625 120.28857421875 L 163.214599609375 119.84912109375 L 163.17340087890625 119.40966796875 L 163.214599609375 118.97021484375 L 163.17340087890625 118.53076171875 L 163.214599609375 118.09130859375 L 163.17340087890625 117.65185546875 L 163.214599609375 117.21240234375 L 163.17340087890625 116.77294921875 L 163.214599609375 116.33349609375 L 163.17340087890625 115.89404296875 L 163.214599609375 115.45458984375 L 163.17340087890625 115.01513671875 L 163.214599609375 114.57568359375 L 163.17340087890625 114.13623046875 L 163.214599609375 113.69677734375 L 163.17340087890625 113.25732421875 L 163.214599609375 112.81787109375 L 163.17340087890625 112.37841796875 L 163.214599609375 111.93896484375 L 163.17340087890625 111.49951171875 L 163.214599609375 111.06005859375 L 163.17340087890625 110.62060546875 L 163.214599609375 110.18115234375 L 163.17340087890625 109.74169921875 L 163.214599609375 109.30224609375 L 163.17340087890625 108.86279296875 L 163.214599609375 108.42333984375 L 163.17340087890625 107.98388671875 L 163.214599609375 107.54443359375 L 163.17340087890625 107.10498046875 L 163.214599609375 106.66552734375 L 163.17340087890625 106.22607421875 L 163.214599609375 105.78662109375 L 163.17340087890625 105.34716796875 L 163.214599609375 104.90771484375 L 163.17340087890625 104.46826171875 L 163.214599609375 104.02880859375 L 163.17340087890625 103.58935546875 L 163.214599609375 103.14990234375 L 163.17340087890625 102.71044921875 L 163.214599609375 102.27099609375 L 163.17340087890625 101.83154296875 L 163.214599609375 101.39208984375 L 163.17340087890625 100.95263671875 L 163.214599609375 100.51318359375 L 163.17340087890625 100.07373046875 L 163.214599609375 99.63427734375 L 163.17340087890625 99.19482421875 L 163.214599609375 98.75537109375 L 163.17340087890625 98.31591796875 L 163.214599609375 97.87646484375 L 163.17340087890625 97.43701171875 L 163.214599609375 96.99755859375 L 163.17340087890625 96.55810546875 L 163.214599609375 96.11865234375 L 163.17340087890625 95.67919921875 L 163.214599609375 95.23974609375 L 163.17340087890625 94.80029296875 L 163.214599609375 94.36083984375 L 163.17340087890625 93.92138671875 L 163.214599609375 93.48193359375 L 163.17340087890625 93.04248046875 L 163.214599609375 92.60302734375 L 163.17340087890625 92.16357421875 L 163.214599609375 91.72412109375 L 163.17340087890625 91.28466796875 L 163.214599609375 90.84521484375 L 163.17340087890625 90.40576171875 L 163.214599609375 89.96630859375 L 163.17340087890625 89.52685546875 L 163.214599609375 89.08740234375 L 163.17340087890625 88.64794921875 L 163.214599609375 88.20849609375 L 163.17340087890625 87.76904296875 L 163.214599609375 87.32958984375 L 163.17340087890625 86.89013671875 L 163.214599609375 86.45068359375 L 163.17340087890625 86.01123046875 L 163.214599609375 85.57177734375 L 163.17340087890625 85.13232421875 L 163.214599609375 84.69287109375 L 163.17340087890625 84.25341796875 L 163.214599609375 83.81396484375 L 163.17340087890625 83.37451171875 L 163.214599609375 82.93505859375 L 163.17340087890625 82.49560546875 L 163.214599609375 82.05615234375 L 163.17340087890625 81.61669921875 L 163.214599609375 81.17724609375 L 163.17340087890625 80.73779296875 L 163.214599609375 80.29833984375 L 163.17340087890625 79.85888671875 L 163.214599609375 79.41943359375 L 163.17340087890625 78.97998046875 L 163.214599609375 78.54052734375 L 163.17340087890625 78.10107421875 L 163.214599609375 77.66162109375 L 163.17340087890625 77.22216796875 L 163.214599609375 76.78271484375 L 163.17340087890625 76.34326171875 L 163.214599609375 75.90380859375 L 163.17340087890625 75.46435546875 L 163.214599609375 75.02490234375 L 163.17340087890625 74.58544921875 L 163.214599609375 74.14599609375 L 163.17340087890625 73.70654296875 L 163.214599609375 73.26708984375 L 163.17340087890625 72.82763671875 L 163.214599609375 72.38818359375 L 163.17340087890625 71.94873046875 L 163.214599609375 71.50927734375 L 163.17340087890625 71.06982421875 L 163.214599609375 70.63037109375 L 163.17340087890625 70.19091796875 L 163.214599609375 69.75146484375 L 163.17340087890625 69.31201171875 L 163.214599609375 68.87255859375 L 163.17340087890625 68.43310546875 L 163.214599609375 67.99365234375 L 163.17340087890625 67.55419921875 L 163.214599609375 67.11474609375 L 163.17340087890625 66.67529296875 L 163.214599609375 66.23583984375 L 163.17340087890625 65.79638671875 L 163.214599609375 65.35693359375 L 163.17340087890625 64.91748046875 L 163.214599609375 64.47802734375 L 163.17340087890625 64.03857421875 L 163.214599609375 63.59912109375 L 163.17340087890625 63.15966796875 L 163.214599609375 62.72021484375 L 163.17340087890625 62.28076171875 L 163.214599609375 61.84130859375 L 163.17340087890625 61.40185546875 L 163.214599609375 60.96240234375 L 163.17340087890625 60.52294921875 L 163.214599609375 60.08349609375 L 163.17340087890625 59.64404296875 L 163.214599609375 59.20458984375 L 163.17340087890625 58.76513671875 L 163.214599609375 58.32568359375 L 163.17340087890625 57.88623046875 L 163.214599609375 57.44677734375 L 163.17340087890625 57.00732421875 L 163.214599609375 56.56787109375 L 163.17340087890625 56.12841796875 L 163.214599609375 55.68896484375 L 163.17340087890625 55.24951171875 L 163.214599609375 54.81005859375 L 163.17340087890625 54.37060546875 L 163.214599609375 53.93115234375 L 163.17340087890625 53.49169921875 L 163.214599609375 53.05224609375 L 163.17340087890625 52.61279296875 L 163.214599609375 52.17333984375 L 163.17340087890625 51.73388671875 L 163.214599609375 51.29443359375 L 163.17340087890625 50.85498046875 L 163.214599609375 50.41552734375 L 163.17340087890625 49.97607421875 L 163.214599609375 49.53662109375 L 163.17340087890625 49.09716796875 L 163.214599609375 48.65771484375 L 163.17340087890625 48.21826171875 L 163.214599609375 47.77880859375 L 163.17340087890625 47.33935546875 L 163.214599609375 46.89990234375 L 163.17340087890625 46.46044921875 L 163.214599609375 46.02099609375 L 163.17340087890625 45.58154296875 L 163.214599609375 45.14208984375 L 163.17340087890625 44.70263671875 L 163.214599609375 44.26318359375 L 163.17340087890625 43.82373046875 L 163.214599609375 43.38427734375 L 163.17340087890625 42.94482421875 L 163.214599609375 42.50537109375 L 163.17340087890625 42.06591796875 L 163.214599609375 41.62646484375 L 163.17340087890625 41.18701171875 L 163.214599609375 40.74755859375 L 163.17340087890625 40.30810546875 L 163.214599609375 39.86865234375 L 163.17340087890625 39.42919921875 L 163.214599609375 38.98974609375 L 163.17340087890625 38.55029296875 L 163.214599609375 38.11083984375 L 163.17340087890625 37.67138671875 L 163.214599609375 37.23193359375 L 163.17340087890625 36.79248046875 L 163.214599609375 36.35302734375 L 163.17340087890625 35.91357421875 L 163.214599609375 35.47412109375 L 163.17340087890625 35.03466796875 L 163.214599609375 34.59521484375 L 163.17340087890625 34.15576171875 L 163.214599609375 33.71630859375 L 163.17340087890625 33.27685546875 L 163.214599609375 32.83740234375 L 163.17340087890625 32.39794921875 L 163.214599609375 31.95849609375 L 163.17340087890625 31.51904296875 L 163.214599609375 31.07958984375 L 163.17340087890625 30.64013671875 L 163.214599609375 30.20068359375 L 163.17340087890625 29.76123046875 L 163.214599609375 29.32177734375 L 163.17340087890625 28.88232421875 L 163.214599609375 28.44287109375 L 163.17340087890625 28.00341796875 L 163.214599609375 27.56396484375 L 163.17340087890625 27.12451171875 L 163.214599609375 26.68505859375 L 163.17340087890625 26.24560546875 L 163.214599609375 25.80615234375 L 163.17340087890625 25.36669921875 L 163.214599609375 24.92724609375 L 163.17340087890625 24.48779296875 L 163.214599609375 24.04833984375 L 163.17340087890625 23.60888671875 L 163.214599609375 23.16943359375 L 163.17340087890625 22.72998046875 L 163.214599609375 22.29052734375 L 163.17340087890625 21.85107421875 L 163.214599609375 21.41162109375 L 163.17340087890625 20.97216796875 L 163.214599609375 20.53271484375 L 163.17340087890625 20.09326171875 L 163.214599609375 19.65380859375 L 163.17340087890625 19.21435546875 L 163.214599609375 18.77490234375 L 163.17340087890625 18.33544921875 L 163.214599609375 17.89599609375 L 163.17340087890625 17.45654296875 L 163.214599609375 17.01708984375 L 163.17340087890625 16.57763671875 L 163.214599609375 16.13818359375 L 163.17340087890625 15.69873046875 L 163.214599609375 15.25927734375 L 163.17340087890625 14.81982421875 L 163.214599609375 14.38037109375 L 163.17340087890625 13.94091796875 L 163.214599609375 13.50146484375 L 163.17340087890625 13.06201171875 L 163.214599609375 12.62255859375 L 163.17340087890625 12.18310546875 L 163.214599609375 11.74365234375 L 163.17340087890625 11.30419921875 L 163.214599609375 10.86474609375 L 163.17340087890625 10.42529296875 L 163.214599609375 9.98583984375 L 163.17340087890625 9.54638671875 L 163.214599609375 9.10693359375 L 163.17340087890625 8.66748046875 L 163.214599609375 8.22802734375 L 163.17340087890625 7.78857421875 L 163.214599609375 7.34912109375 L 163.17340087890625 6.90966796875 L 163.214599609375 6.47021484375 L 163.17340087890625 6.03076171875 L 163.214599609375 5.59130859375 L 163.17340087890625 5.15185546875 L 163.214599609375 4.71240234375 L 163.17340087890625 4.27294921875 L 163.214599609375 3.83349609375 L 163.17340087890625 3.39404296875 L 163.214599609375 2.95458984375 L 163.17340087890625 2.51513671875 L 163.214599609375 2.07568359375 L 163.17340087890625 1.63623046875 L 163.214599609375 1.19677734375 L 163.17340087890625 0.75732421875 L 163.214599609375 0.31787109375 L 163.17340087890625 -0.12158203125 L 163.214599609375 -0.56103515625 L 163.17340087890625 -1.00048828125 L 163.214599609375 -1.43994140625 L 163.17340087890625 -1.87939453125 L 163.214599609375 -2.31884765625 L 163.17340087890625 -2.75830078125 L 163.19606018066406 -3" fill-opacity="0.4"/></g><g id="sketch-17629b4d"><title>Expression 4</title><path fill="#c64440" stroke="none" paint-order="stroke fill markers" d="" fill-opacity="0.4"/><path fill="#c64440" stroke="none" paint-order="stroke fill markers" d="" fill-opacity="0.4"/><path fill="#c64440" stroke="none" class="dcg-svg-region" paint-order="stroke fill markers" d=" M 217.6818181818182 239.5 L 272.22727272727275 239.5 L 272.22727272727275 186.16666666666669 L 217.6818181818182 186.16666666666669" fill-opacity="0.4"/><g><path fill="none" stroke="#c64440" class="dcg-svg-curve" paint-order="fill stroke markers" d=" M 217.6818181818182 239.5 L 228.6818181818182 239.5 M 235.6818181818182 239.5 L 246.6818181818182 239.5 M 253.6818181818182 239.5 L 264.6818181818182 239.5 M 271.6818181818182 239.5 L 272.22727272727275 239.5" stroke-linecap="round" stroke-linejoin="round" stroke-miterlimit="10" stroke-width="2.5" stroke-opacity="0.9" stroke-dasharray=""/></g><g><path fill="none" stroke="#c64440" class="dcg-svg-curve" paint-order="fill stroke markers" d=" M 217.6818181818182 186.16666666666669 L 228.6818181818182 186.16666666666669 M 235.6818181818182 186.16666666666669 L 246.6818181818182 186.16666666666669 M 253.6818181818182 186.16666666666669 L 264.6818181818182 186.16666666666669 M 271.6818181818182 186.16666666666669 L 272.22727272727275 186.16666666666669" stroke-linecap="round" stroke-linejoin="round" stroke-miterlimit="10" stroke-width="2.5" stroke-opacity="0.9" stroke-dasharray=""/></g></g><g id="sketch-17629b4d"><title>Expression 5</title><path fill="#c64440" stroke="none" paint-order="stroke fill markers" d="" fill-opacity="0.4"/><path fill="#c64440" stroke="none" paint-order="stroke fill markers" d="" fill-opacity="0.4"/><path fill="#c64440" stroke="none" class="dcg-svg-region" paint-order="stroke fill markers" d=" M 272.22727272727275 239.5 L 326.77272727272725 239.5 L 326.77272727272725 199.5 L 272.22727272727275 199.5" fill-opacity="0.4"/><g><path fill="none" stroke="#c64440" class="dcg-svg-curve" paint-order="fill stroke markers" d=" M 272.22727272727275 239.5 L 283.22727272727275 239.5 M 290.22727272727275 239.5 L 301.22727272727275 239.5 M 308.22727272727275 239.5 L 319.22727272727275 239.5 M 326.22727272727275 239.5 L 326.77272727272725 239.5" stroke-linecap="round" stroke-linejoin="round" stroke-miterlimit="10" stroke-width="2.5" stroke-opacity="0.9" stroke-dasharray=""/></g><g><path fill="none" stroke="#c64440" class="dcg-svg-curve" paint-order="fill stroke markers" d=" M 272.22727272727275 199.5 L 283.22727272727275 199.5 M 290.22727272727275 199.5 L 301.22727272727275 199.5 M 308.22727272727275 199.5 L 319.22727272727275 199.5 M 326.22727272727275 199.5 L 326.77272727272725 199.5" stroke-linecap="round" stroke-linejoin="round" stroke-miterlimit="10" stroke-width="2.5" stroke-opacity="0.9" stroke-dasharray=""/></g></g></g><g id="labels-17629b4d"/></g></svg>