<svg version="1.1" xmlns="http://www.w3.org/2000/svg" xmlns:xlink="http://www.w3.org/1999/xlink" width="600" height="400"><defs/><g transform="scale(1,1)"><g id="background-5675f3a6"><rect fill="white" stroke="none" x="0" y="0" width="600" height="400" class="dcg-svg-background"/></g><g id="background-images-5675f3a6"/><g id="graphpaper-5675f3a6"><g id="grid-5675f3a6"><g><path fill="none" stroke="rgb(0,0,0)" class="dcg-svg-minor-gridline" paint-order="fill stroke markers" d=" M -0.5 0 L -0.5 400" stroke-opacity="0.12" stroke-miterlimit="10" stroke-dasharray=""/><path fill="none" stroke="rgb(0,0,0)" class="dcg-svg-minor-gridline" paint-order="fill stroke markers" d=" M 29.5 0 L 29.5 400" stroke-opacity="0.12" stroke-miterlimit="10" stroke-dasharray=""/><path fill="none" stroke="rgb(0,0,0)" class="dcg-svg-minor-gridline" paint-order="fill stroke markers" d=" M 59.5 0 L 59.5 400" stroke-opacity="0.12" stroke-miterlimit="10" stroke-dasharray=""/><path fill="none" stroke="rgb(0,0,0)" class="dcg-svg-minor-gridline" paint-order="fill stroke markers" d=" M 89.5 0 L 89.5 400" stroke-opacity="0.12" stroke-miterlimit="10" stroke-dasharray=""/><path fill="none" stroke="rgb(0,0,0)" class="dcg-svg-minor-gridline" paint-order="fill stroke markers" d=" M 119.5 0 L 119.5 400" stroke-opacity="0.12" stroke-miterlimit="10" stroke-dasharray=""/><path fill="none" stroke="rgb(0,0,0)" class="dcg-svg-minor-gridline" paint-order="fill stroke markers" d=" M 149.5 0 L 149.5 400" stroke-opacity="0.12" stroke-miterlimit="10" stroke-dasharray=""/><path fill="none" stroke="rgb(0,0,0)" class="dcg-svg-minor-gridline" paint-order="fill stroke markers" d=" M 179.5 0 L 179.5 400" stroke-opacity="0.12" stroke-miterlimit="10" stroke-dasharray=""/><path fill="none" stroke="rgb(0,0,0)" class="dcg-svg-minor-gridline" paint-order="fill stroke markers" d=" M 209.5 0 L 209.5 400" stroke-opacity="0.12" stroke-miterlimit="10" stroke-dasharray=""/><path fill="none" stroke="rgb(0,0,0)" class="dcg-svg-minor-gridline" paint-order="fill stroke markers" d=" M 239.5 0 L 239.5 400" stroke-opacity="0.12" stroke-miterlimit="10" stroke-dasharray=""/><path fill="none" stroke="rgb(0,0,0)" class="dcg-svg-minor-gridline" paint-order="fill stroke markers" d=" M 269.5 0 L 269.5 400" stroke-opacity="0.12" stroke-miterlimit="10" stroke-dasharray=""/><path fill="none" stroke="rgb(0,0,0)" class="dcg-svg-minor-gridline" paint-order="fill stroke markers" d=" M 329.5 0 L 329.5 400" stroke-opacity="0.12" stroke-miterlimit="10" stroke-dasharray=""/><path fill="none" stroke="rgb(0,0,0)" class="dcg-svg-minor-gridline" paint-order="fill stroke markers" d=" M 359.5 0 L 359.5 400" stroke-opacity="0.12" stroke-miterlimit="10" stroke-dasharray=""/><path fill="none" stroke="rgb(0,0,0)" class="dcg-svg-minor-gridline" paint-order="fill stroke markers" d=" M 389.5 0 L 389.5 400" stroke-opacity="0.12" stroke-miterlimit="10" stroke-dasharray=""/><path fill="none" stroke="rgb(0,0,0)" class="dcg-svg-minor-gridline" paint-order="fill stroke markers" d=" M 419.5 0 L 419.5 400" stroke-opacity="0.12" stroke-miterlimit="10" stroke-dasharray=""/><path fill="none" stroke="rgb(0,0,0)" class="dcg-svg-minor-gridline" paint-order="fill stroke markers" d=" M 449.5 0 L 449.5 400" stroke-opacity="0.12" stroke-miterlimit="10" stroke-dasharray=""/><path fill="none" stroke="rgb(0,0,0)" class="dcg-svg-minor-gridline" paint-order="fill stroke markers" d=" M 479.5 0 L 479.5 400" stroke-opacity="0.12" stroke-miterlimit="10" stroke-dasharray=""/><path fill="none" stroke="rgb(0,0,0)" class="dcg-svg-minor-gridline" paint-order="fill stroke markers" d=" M 509.5 0 L 509.5 400" stroke-opacity="0.12" stroke-miterlimit="10" stroke-dasharray=""/><path fill="none" stroke="rgb(0,0,0)" class="dcg-svg-minor-gridline" paint-order="fill stroke markers" d=" M 539.5 0 L 539.5 400" stroke-opacity="0.12" stroke-miterlimit="10" stroke-dasharray=""/><path fill="none" stroke="rgb(0,0,0)" class="dcg-svg-minor-gridline" paint-order="fill stroke markers" d=" M 569.5 0 L 569.5 400" stroke-opacity="0.12" stroke-miterlimit="10" stroke-dasharray=""/><path fill="none" stroke="rgb(0,0,0)" class="dcg-svg-minor-gridline" paint-order="fill stroke markers" d=" M 0 394.5 L 600 394.5" stroke-opacity="0.12" stroke-miterlimit="10" stroke-dasharray=""/><path fill="none" stroke="rgb(0,0,0)" class="dcg-svg-minor-gridline" paint-order="fill stroke markers" d=" M 0 364.5 L 600 364.5" stroke-opacity="0.12" stroke-miterlimit="10" stroke-dasharray=""/><path fill="none" stroke="rgb(0,0,0)" class="dcg-svg-minor-gridline" paint-order="fill stroke markers" d=" M 0 334.5 L 600 334.5" stroke-opacity="0.12" stroke-miterlimit="10" stroke-dasharray=""/><path fill="none" stroke="rgb(0,0,0)" class="dcg-svg-minor-gridline" paint-order="fill stroke markers" d=" M 0 304.5 L 600 304.5" stroke-opacity="0.12" stroke-miterlimit="10" stroke-dasharray=""/><path fill="none" stroke="rgb(0,0,0)" class="dcg-svg-minor-gridline" paint-order="fill stroke markers" d=" M 0 274.5 L 600 274.5" stroke-opacity="0.12" stroke-miterlimit="10" stroke-dasharray=""/><path fill="none" stroke="rgb(0,0,0)" class="dcg-svg-minor-gridline" paint-order="fill stroke markers" d=" M 0 244.5 L 600 244.5" stroke-opacity="0.12" stroke-miterlimit="10" stroke-dasharray=""/><path fill="none" stroke="rgb(0,0,0)" class="dcg-svg-minor-gridline" paint-order="fill stroke markers" d=" M 0 214.5 L 600 214.5" stroke-opacity="0.12" stroke-miterlimit="10" stroke-dasharray=""/><path fill="none" stroke="rgb(0,0,0)" class="dcg-svg-minor-gridline" paint-order="fill stroke markers" d=" M 0 154.5 L 600 154.5" stroke-opacity="0.12" stroke-miterlimit="10" stroke-dasharray=""/><path fill="none" stroke="rgb(0,0,0)" class="dcg-svg-minor-gridline" paint-order="fill stroke markers" d=" M 0 124.5 L 600 124.5" stroke-opacity="0.12" stroke-miterlimit="10" stroke-dasharray=""/><path fill="none" stroke="rgb(0,0,0)" class="dcg-svg-minor-gridline" paint-order="fill stroke markers" d=" M 0 94.5 L 600 94.5" stroke-opacity="0.12" stroke-miterlimit="10" stroke-dasharray=""/><path fill="none" stroke="rgb(0,0,0)" class="dcg-svg-minor-gridline" paint-order="fill stroke markers" d=" M 0 64.5 L 600 64.5" stroke-opacity="0.12" stroke-miterlimit="10" stroke-dasharray=""/><path fill="none" stroke="rgb(0,0,0)" class="dcg-svg-minor-gridline" paint-order="fill stroke markers" d=" M 0 34.5 L 600 34.5" stroke-opacity="0.12" stroke-miterlimit="10" stroke-dasharray=""/><path fill="none" stroke="rgb(0,0,0)" class="dcg-svg-minor-gridline" paint-order="fill stroke markers" d=" M 0 4.5 L 600 4.5" stroke-opacity="0.12" stroke-miterlimit="10" stroke-dasharray=""/><path fill="none" stroke="rgb(0,0,0)" class="dcg-svg-major-gridline" paint-order="fill stroke markers" d=" M -0.5 0 L -0.5 400" stroke-opacity="0.31818181818181823" stroke-miterlimit="10" stroke-dasharray=""/><path fill="none" stroke="rgb(0,0,0)" class="dcg-svg-major-gridline" paint-order="fill stroke markers" d=" M 149.5 0 L 149.5 400" stroke-opacity="0.31818181818181823" stroke-miterlimit="10" stroke-dasharray=""/><path fill="none" stroke="rgb(0,0,0)" class="dcg-svg-major-gridline" paint-order="fill stroke markers" d=" M 449.5 0 L 449.5 400" stroke-opacity="0.31818181818181823" stroke-miterlimit="10" stroke-dasharray=""/><path fill="none" stroke="rgb(0,0,0)" class="dcg-svg-major-gridline" paint-order="fill stroke markers" d=" M 0 334.5 L 600 334.5" stroke-opacity="0.31818181818181823" stroke-miterlimit="10" stroke-dasharray=""/><path fill="none" stroke="rgb(0,0,0)" class="dcg-svg-major-gridline" paint-order="fill stroke markers" d=" M 0 34.5 L 600 34.5" stroke-opacity="0.31818181818181823" stroke-miterlimit="10" stroke-dasharray=""/></g></g><g id="axis-5675f3a6"><g id="yaxis-5675f3a6"><title>Y axis</title><path fill="none" stroke="rgb(0,0,0)" class="dcg-svg-axis-line" paint-order="fill stroke markers" d=" M 299.75 0 L 299.75 400" stroke-opacity="0.9" stroke-miterlimit="10" stroke-width="1.5" stroke-dasharray=""/></g><g id="xaxis-5675f3a6"><title>X axis</title><path fill="none" stroke="rgb(0,0,0)" class="dcg-svg-axis-line" paint-order="fill stroke markers" d=" M 0 184.75 L 600 184.75" stroke-opacity="0.9" stroke-miterlimit="10" stroke-width="1.5" stroke-dasharray=""/></g><g><g class="dcg-svg-axis-value"><text fill="none" stroke="#ffffff" font-family="Arial" font-size="14px" font-style="normal" font-weight="normal" text-decoration="normal" x="291.10693359375" y="200.808" text-anchor="middle" stroke-miterlimit="2" stroke-width="3" stroke-dasharray="">0</text><text fill="#000000" stroke="none" font-family="Arial" font-size="14px" font-style="normal" font-weight="normal" text-decoration="normal" x="291.10693359375" y="200.808" text-anchor="middle">0</text></g><g class="dcg-svg-axis-value dcg-svg-offcenter-axis-value"><text fill="none" stroke="#ffffff" font-family="Arial" font-size="14px" font-style="normal" font-weight="normal" text-decoration="normal" x="13.1171875" y="200.808" text-anchor="middle" stroke-miterlimit="2" stroke-width="3" stroke-dasharray="">-10</text><text fill="#000000" stroke="none" font-family="Arial" font-size="14px" font-style="normal" font-weight="normal" text-decoration="normal" x="13.1171875" y="200.808" text-anchor="middle">-10</text></g><g class="dcg-svg-axis-value"><text fill="none" stroke="#ffffff" font-family="Arial" font-size="14px" font-style="normal" font-weight="normal" text-decoration="normal" x="147.6689453125" y="200.808" text-anchor="middle" stroke-miterlimit="2" stroke-width="3" stroke-dasharray="">-5</text><text fill="#000000" stroke="none" font-family="Arial" font-size="14px" font-style="normal" font-weight="normal" text-decoration="normal" x="147.6689453125" y="200.808" text-anchor="middle">-5</text></g><g class="dcg-svg-axis-value"><text fill="none" stroke="#ffffff" font-family="Arial" font-size="14px" font-style="normal" font-weight="normal" text-decoration="normal" x="450" y="200.808" text-anchor="middle" stroke-miterlimit="2" stroke-width="3" stroke-dasharray="">5</text><text fill="#000000" stroke="none" font-family="Arial" font-size="14px" font-style="normal" font-weight="normal" text-decoration="normal" x="450" y="200.808" text-anchor="middle">5</text></g><g class="dcg-svg-axis-value dcg-svg-offcenter-axis-value"><text fill="none" stroke="#ffffff" font-family="Arial" font-size="14px" font-style="normal" font-weight="normal" text-decoration="normal" x="589.2138671875" y="200.808" text-anchor="middle" stroke-miterlimit="2" stroke-width="3" stroke-dasharray="">10</text><text fill="#000000" stroke="none" font-family="Arial" font-size="14px" font-style="normal" font-weight="normal" text-decoration="normal" x="589.2138671875" y="200.808" text-anchor="middle">10</text></g><g class="dcg-svg-axis-value"><text fill="none" stroke="#ffffff" font-family="Arial" font-size="14px" font-style="normal" font-weight="normal" text-decoration="normal" x="288.77587890625" y="338.808" text-anchor="middle" stroke-miterlimit="2" stroke-width="3" stroke-dasharray="">-5</text><text fill="#000000" stroke="none" font-family="Arial" font-size="14px" font-style="normal" font-weight="normal" text-decoration="normal" x="288.77587890625" y="338.808" text-anchor="middle">-5</text></g><g class="dcg-svg-axis-value"><text fill="none" stroke="#ffffff" font-family="Arial" font-size="14px" font-style="normal" font-weight="normal" text-decoration="normal" x="291.10693359375" y="38.808" text-anchor="middle" stroke-miterlimit="2" stroke-width="3" stroke-dasharray="">5</text><text fill="#000000" stroke="none" font-family="Arial" font-size="14px" font-style="normal" font-weight="normal" text-decoration="normal" x="291.10693359375" y="38.808" text-anchor="middle">5</text></g></g></g></g><g id="expressions-5675f3a6"><g id="sketch-5675f3a6"><title>Expression 1</title><path fill="#2d70b3" stroke="none" paint-order="stroke fill markers" d="" fill-opacity="0.4"/><g><path fill="none" stroke="#2d70b3" class="dcg-svg-curve" paint-order="fill stroke markers" d=" M -0.5 184.5 L -0.5 184.5 L 4.041015625 172.35764323052658 L 8.435546875 161.48356497686228 L 12.830078125 151.44063456708076 L 17.224609375 142.1985862912437 L 21.47265625 133.99786886877519 L 25.720703125 126.49116355694906 L 29.96875 119.65235837548965 L 34.216796875 113.45574338682246 L 38.46484375 107.87601069607439 L 42.712890625 102.88825445107375 L 47.107421875 98.32537596074081 L 51.501953125 94.34310908253008 L 55.75 91.02084350585938 L 59.8515625 88.28287291605369 L 63.806640625 86.06024642679705 L 67.615234375 84.29024955424336 L 71.423828125 82.86742354292193 L 75.232421875 81.77608283793359 L 79.041015625 81.00080164516055 L 82.849609375 80.52641393126697 L 86.8046875 80.3362789380771 L 90.759765625 80.43815832300544 L 94.861328125 80.83504198955904 L 99.109375 81.54014587914565 L 103.650390625 82.60331922477354 L 108.337890625 84.0124310621207 L 113.318359375 85.82927451746525 L 118.73828125 88.1476636081261 L 124.59765625 91.01358973423152 L 131.04296875 94.54621833212695 L 138.07421875 98.78953953231934 L 146.130859375 104.06278170697198 L 155.65234375 110.72796598311652 L 168.396484375 120.12242861422357 L 202.673828125 145.6172176670237 L 213.3671875 152.98466971641753 L 222.595703125 158.91842700673928 L 230.9453125 163.8781141306681 L 238.5625 168.0177510976791 L 245.740234375 171.549518193416 L 252.625 174.57582664489746 L 259.216796875 177.12278769229795 L 265.515625 179.2216812870465 L 271.66796875 180.944653419303 L 277.673828125 182.30620264992592 L 283.533203125 183.3230719892357 L 289.24609375 184.01379740537047 L 294.958984375 184.404555100656 L 300.525390625 184.49513234421042 L 306.091796875 184.29893144619325 L 311.8046875 183.80022857370204 L 317.517578125 183.0024900066577 L 323.23046875 181.90920565614033 L 329.08984375 180.4859211173807 L 335.095703125 178.716592528673 L 341.248046875 176.58728141830704 L 347.693359375 174.02471606649794 L 354.431640625 170.99853671928156 L 361.462890625 167.48328228507614 L 368.93359375 163.37603483263774 L 376.990234375 158.55507105973751 L 385.779296875 152.8870546660813 L 395.740234375 146.03248891310736 L 407.751953125 137.31168811935402 L 428.69921875 121.55339811072002 L 444.2265625 110.09699594494305 L 454.333984375 103.07567205748575 L 462.68359375 97.69433417970686 L 470.0078125 93.3823078454879 L 476.453125 89.97068737214431 L 482.3125 87.23080766201014 L 487.732421875 85.04306849707189 L 492.859375 83.31403598701576 L 497.546875 82.05034766858444 L 502.087890625 81.13924507645726 L 506.3359375 80.586599528644 L 510.4375 80.34647119045252 L 514.392578125 80.4048156844886 L 518.201171875 80.7453727695987 L 522.009765625 81.37991123751942 L 525.818359375 82.32347723199501 L 529.626953125 83.59137665755162 L 533.435546875 85.19917517949699 L 537.244140625 87.1626982239207 L 541.052734375 89.4980309776941 L 545.0078125 92.33424398614437 L 549.109375 95.73752522980789 L 553.357421875 99.78051527858162 L 557.751953125 104.54283586730651 L 562 109.73193359375 L 566.248046875 115.52155057577812 L 570.49609375 121.93673130097699 L 574.744140625 129.0029222996339 L 578.9921875 136.74597214473755 L 583.240234375 145.192131451978 L 587.48828125 154.36805287974673 L 591.736328125 164.30079112913643 L 596.130859375 175.40167910331678 L 599.5 184.5" stroke-linecap="round" stroke-linejoin="round" stroke-miterlimit="10" stroke-width="2.5" stroke-opacity="0.9" stroke-dasharray=""/></g></g><g id="sketch-5675f3a6"><title>Expression 2</title><path fill="#388c46" stroke="none" paint-order="stroke fill markers" d="" fill-opacity="0.4"/><path fill="#388c46" stroke="none" paint-order="stroke fill markers" d="" fill-opacity="0.4"/><path fill="#388c46" stroke="none" class="dcg-svg-region" paint-order="stroke fill markers" d=" M -0.4853515625 184.5 L 599.4853515625 184.5 L 599.4853515625 184.45931486269305 L 596.130859375 175.40167910331678 L 591.736328125 164.30079112913643 L 587.48828125 154.36805287974673 L 583.240234375 145.192131451978 L 578.9921875 136.74597214473755 L 574.744140625 129.0029222996339 L 570.49609375 121.93673130097699 L 566.248046875 115.52155057577812 L 562 109.73193359375 L 557.751953125 104.54283586730651 L 553.357421875 99.78051527858162 L 549.109375 95.73752522980789 L 545.0078125 92.33424398614437 L 541.052734375 89.4980309776941 L 537.244140625 87.1626982239207 L 533.435546875 85.19917517949699 L 529.626953125 83.59137665755162 L 525.818359375 82.32347723199501 L 522.009765625 81.37991123751942 L 518.201171875 80.7453727695987 L 514.392578125 80.4048156844886 L 510.4375 80.34647119045252 L 506.3359375 80.586599528644 L 502.087890625 81.13924507645726 L 497.546875 82.05034766858444 L 492.859375 83.31403598701576 L 487.732421875 85.04306849707189 L 482.3125 87.23080766201014 L 476.453125 89.97068737214431 L 470.0078125 93.3823078454879 L 462.68359375 97.69433417970686 L 454.333984375 103.07567205748575 L 444.2265625 110.09699594494305 L 428.69921875 121.55339811072002 L 407.751953125 137.31168811935402 L 395.740234375 146.03248891310736 L 385.779296875 152.8870546660813 L 376.990234375 158.55507105973751 L 368.93359375 163.37603483263774 L 361.462890625 167.48328228507614 L 354.431640625 170.99853671928156 L 347.693359375 174.02471606649794 L 341.248046875 176.58728141830704 L 335.095703125 178.716592528673 L 329.08984375 180.4859211173807 L 323.23046875 181.90920565614033 L 317.517578125 183.0024900066577 L 311.8046875 183.80022857370204 L 306.091796875 184.29893144619325 L 300.525390625 184.49513234421042 L 294.958984375 184.404555100656 L 289.24609375 184.01379740537047 L 283.533203125 183.3230719892357 L 277.673828125 182.30620264992592 L 271.66796875 180.944653419303 L 265.515625 179.2216812870465 L 259.216796875 177.12278769229795 L 252.625 174.57582664489746 L 245.740234375 171.549518193416 L 238.5625 168.0177510976791 L 230.9453125 163.8781141306681 L 222.595703125 158.91842700673928 L 213.3671875 152.98466971641753 L 202.673828125 145.6172176670237 L 168.396484375 120.12242861422357 L 155.65234375 110.72796598311652 L 146.130859375 104.06278170697198 L 138.07421875 98.78953953231934 L 131.04296875 94.54621833212695 L 124.59765625 91.01358973423152 L 118.73828125 88.1476636081261 L 113.318359375 85.82927451746525 L 108.337890625 84.0124310621207 L 103.650390625 82.60331922477354 L 99.109375 81.54014587914565 L 94.861328125 80.83504198955904 L 90.759765625 80.43815832300544 L 86.8046875 80.3362789380771 L 82.849609375 80.52641393126697 L 79.041015625 81.00080164516055 L 75.232421875 81.77608283793359 L 71.423828125 82.86742354292193 L 67.615234375 84.29024955424336 L 63.806640625 86.06024642679705 L 59.8515625 88.28287291605369 L 55.75 91.02084350585938 L 51.501953125 94.34310908253008 L 47.107421875 98.32537596074081 L 42.712890625 102.88825445107375 L 38.46484375 107.87601069607439 L 34.216796875 113.45574338682246 L 29.96875 119.65235837548965 L 25.720703125 126.49116355694906 L 21.47265625 133.99786886877519 L 17.224609375 142.1985862912437 L 12.830078125 151.44063456708076 L 8.435546875 161.48356497686228 L 4.041015625 172.35764323052658 L -0.4853515625 184.45931486269305" fill-opacity="0.4"/><g><path fill="none" stroke="#388c46" class="dcg-svg-curve" paint-order="fill stroke markers" d=" M -0.4853515625 184.5 L 10.5146484375 184.5 M 17.5146484375 184.5 L 28.5146484375 184.5 M 35.5146484375 184.5 L 46.5146484375 184.5 M 53.5146484375 184.5 L 64.5146484375 184.5 M 71.5146484375 184.5 L 82.5146484375 184.5 M 89.5146484375 184.5 L 100.5146484375 184.5 M 107.5146484375 184.5 L 118.5146484375 184.5 M 125.5146484375 184.5 L 136.5146484375 184.5 M 143.5146484375 184.5 L 154.5146484375 184.5 M 161.5146484375 184.5 L 172.5146484375 184.5 M 179.5146484375 184.5 L 190.5146484375 184.5 M 197.5146484375 184.5 L 208.5146484375 184.5 M 215.5146484375 184.5 L 226.5146484375 184.5 M 233.5146484375 184.5 L 244.5146484375 184.5 M 251.5146484375 184.5 L 262.5146484375 184.5 M 269.5146484375 184.5 L 280.5146484375 184.5 M 287.5146484375 184.5 L 298.5146484375 184.5 M 305.5146484375 184.5 L 316.5146484375 184.5 M 323.5146484375 184.5 L 334.5146484375 184.5 M 341.5146484375 184.5 L 352.5146484375 184.5 M 359.5146484375 184.5 L 370.5146484375 184.5 M 377.5146484375 184.5 L 388.5146484375 184.5 M 395.5146484375 184.5 L 406.5146484375 184.5 M 413.5146484375 184.5 L 424.5146484375 184.5 M 431.5146484375 184.5 L 442.5146484375 184.5 M 449.5146484375 184.5 L 460.5146484375 184.5 M 467.5146484375 184.5 L 478.5146484375 184.5 M 485.5146484375 184.5 L 496.5146484375 184.5 M 503.5146484375 184.5 L 514.5146484375 184.5 M 521.5146484375 184.5 L 532.5146484375 184.5 M 539.5146484375 184.5 L 550.5146484375 184.5 M 557.5146484375 184.5 L 568.5146484375 184.5 M 575.5146484375 184.5 L 586.5146484375 184.5 M 593.5146484375 184.5 L 599.4853515625 184.5" stroke-linecap="round" stroke-linejoin="round" stroke-miterlimit="10" stroke-width="2.5" stroke-opacity="0.9" stroke-dasharray=""/></g><g><path fill="none" stroke="#388c46" class="dcg-svg-curve" paint-order="fill stroke markers" d=" M -0.4853515625 184.45931486269305 L 3.3682274719132397 174.15640611683244 M 5.944258754375743 167.64815010208864 L 8.435546875 161.48356497686228 M 8.435546875 161.48356497686228 L 10.179776531298081 157.4974340199192 M 12.997005760652659 151.08957249026125 L 17.224609375 142.1985862912437 M 17.224609375 142.1985862912437 L 17.75590502196919 141.172937187835 M 20.975629876413244 134.95736224566954 L 21.47265625 133.99786886877519 M 21.47265625 133.99786886877519 L 25.720703125 126.49116355694906 M 25.720703125 126.49116355694906 L 26.403528925226354 125.39190247108307 M 30.106312454977193 119.45169637823014 L 34.216796875 113.45574338682246 M 34.216796875 113.45574338682246 L 36.476491961056155 110.4876747864047 M 40.87530731054603 105.04581483636888 L 42.712890625 102.88825445107375 M 42.712890625 102.88825445107375 L 47.107421875 98.32537596074081 M 47.107421875 98.32537596074081 L 48.46420926228311 97.09587293396142 M 53.786738943496616 92.55624902702358 L 55.75 91.02084350585938 M 55.75 91.02084350585938 L 59.8515625 88.28287291605369 M 59.8515625 88.28287291605369 L 62.969181230677755 86.5308716267727 M 69.33847592096171 83.6464757478656 L 71.423828125 82.86742354292193 M 71.423828125 82.86742354292193 L 75.232421875 81.77608283793359 M 75.232421875 81.77608283793359 L 79.041015625 81.00080164516055 M 79.041015625 81.00080164516055 L 79.95922795873457 80.88643170222052 M 86.93228292705903 80.33956568570069 L 90.759765625 80.43815832300544 M 90.759765625 80.43815832300544 L 94.861328125 80.83504198955904 M 94.861328125 80.83504198955904 L 97.87068323120114 81.33454400847916 M 104.68519290727433 82.91439168243042 L 108.337890625 84.0124310621207 M 108.337890625 84.0124310621207 L 113.318359375 85.82927451746525 M 113.318359375 85.82927451746525 L 115.05083742609175 86.57034760045327 M 121.42363998391191 89.46112105938728 L 124.59765625 91.01358973423152 M 124.59765625 91.01358973423152 L 131.04296875 94.54621833212695 M 131.04296875 94.54621833212695 L 131.142901093286 94.6065269587368 M 137.1360919822444 98.2233851213561 L 138.07421875 98.78953953231934 M 138.07421875 98.78953953231934 L 146.130859375 104.06278170697198 M 146.130859375 104.06278170697198 L 146.35641884560886 104.22067677644088 M 152.09100120081592 108.23497188409651 L 155.65234375 110.72796598311652 M 155.65234375 110.72796598311652 L 161.0074047535166 114.6754993606239 M 166.64194180265176 118.82905112290197 L 168.396484375 120.12242861422357 M 168.396484375 120.12242861422357 L 175.47377137239053 125.38637031229044 M 181.09049710252867 129.5639763339737 L 189.91678039274575 136.1287857966188 M 195.5335061228839 140.30639181830207 L 202.673828125 145.6172176670237 M 202.673828125 145.6172176670237 L 204.4040932747193 146.80932625294636 M 210.16841589290718 150.78079761170594 L 213.3671875 152.98466971641753 M 213.3671875 152.98466971641753 L 219.3522726291273 156.8329638474854 M 225.29875780901244 160.52404769023047 L 230.9453125 163.8781141306681 M 230.9453125 163.8781141306681 L 234.83975944562698 165.9945903946672 M 241.04166114381283 169.23760952309593 L 245.740234375 171.549518193416 M 245.740234375 171.549518193416 L 251.01644578349317 173.8687610038531 M 257.5155379696584 176.46544945120596 L 259.216796875 177.12278769229795 M 259.216796875 177.12278769229795 L 265.515625 179.2216812870465 M 265.515625 179.2216812870465 L 267.9584810909273 179.9058064170477 M 274.7378619532993 181.6406088967898 L 277.673828125 182.30620264992592 M 277.673828125 182.30620264992592 L 283.533203125 183.3230719892357 M 283.533203125 183.3230719892357 L 285.5610110410122 183.5682470780952 M 292.5265091088756 184.23817550559247 L 294.958984375 184.404555100656 M 294.958984375 184.404555100656 L 300.525390625 184.49513234421042 M 300.525390625 184.49513234421042 L 303.5182301965948 184.38964277244798 M 310.499868494121 183.91413185472504 L 311.8046875 183.80022857370204 M 311.8046875 183.80022857370204 L 317.517578125 183.0024900066577 M 317.517578125 183.0024900066577 L 321.36957612551174 182.2653274371951 M 328.19154287548497 180.7041248926727 L 329.08984375 180.4859211173807 M 329.08984375 180.4859211173807 L 335.095703125 178.716592528673 M 335.095703125 178.716592528673 L 338.7004317012869 177.46900479313052 M 345.24764100270215 174.9970991993768 L 347.693359375 174.02471606649794 M 347.693359375 174.02471606649794 L 354.431640625 170.99853671928156 M 354.431640625 170.99853671928156 L 355.3094902343463 170.5596581796449 M 361.56842680123856 167.42526054552323 L 368.93359375 163.37603483263774 M 368.93359375 163.37603483263774 L 371.160481822433 162.0435009362902 M 377.16355929095766 158.44329480771097 L 385.779296875 152.8870546660813 M 385.779296875 152.8870546660813 L 386.39552548348047 152.46300025195683 M 392.1620829773748 148.49477461955996 L 395.740234375 146.03248891310736 M 395.740234375 146.03248891310736 L 401.1267804437546 142.12172508241207 M 406.7912947506187 138.00914953084686 L 407.751953125 137.31168811935402 M 407.751953125 137.31168811935402 L 415.5936310252705 131.41252033684023 M 421.18749274810045 127.20434840286966 L 428.69921875 121.55339811072002 M 428.69921875 121.55339811072002 L 429.9867372683741 120.60343975468255 M 435.619493474802 116.44747325831288 L 444.2265625 110.09699594494305 M 444.2265625 110.09699594494305 L 444.47601053937717 109.9237118474532 M 450.22499241175353 105.9300659654191 L 454.333984375 103.07567205748575 M 454.333984375 103.07567205748575 L 459.37464220117033 99.8269592530148 M 465.32341884795864 96.14017588260114 L 470.0078125 93.3823078454879 M 470.0078125 93.3823078454879 L 474.9254571555062 90.77930959096517 M 481.2283680556556 87.73775441271607 L 482.3125 87.23080766201014 M 482.3125 87.23080766201014 L 487.732421875 85.04306849707189 M 487.732421875 85.04306849707189 L 491.4832582361263 83.77812266078867 M 498.22622145796385 81.91404460999206 L 502.087890625 81.13924507645726 M 502.087890625 81.13924507645726 L 506.3359375 80.586599528644 M 506.3359375 80.586599528644 L 509.1087160127905 80.4242656140811 M 516.0992012356118 80.55741862144701 L 518.201171875 80.7453727695987 M 518.201171875 80.7453727695987 L 522.009765625 81.37991123751942 M 522.009765625 81.37991123751942 L 525.818359375 82.32347723199501 M 525.818359375 82.32347723199501 L 526.8666142927613 82.67244640416425 M 533.3956255026734 85.18232236514241 L 533.435546875 85.19917517949699 M 533.435546875 85.19917517949699 L 537.244140625 87.1626982239207 M 537.244140625 87.1626982239207 L 541.052734375 89.4980309776941 M 541.052734375 89.4980309776941 L 542.8439299767848 90.78250933839934 M 548.34564673146 95.10381988176607 L 549.109375 95.73752522980789 M 549.109375 95.73752522980789 L 553.357421875 99.78051527858162 M 553.357421875 99.78051527858162 L 556.1671391195064 102.82538480408746 M 560.7057894256319 108.15102233109059 L 562 109.73193359375 M 562 109.73193359375 L 566.248046875 115.52155057577812 M 566.248046875 115.52155057577812 L 567.2285871105291 117.00231173598746 M 571.0534787177425 122.86388412149479 L 574.744140625 129.0029222996339 M 574.744140625 129.0029222996339 L 576.5897090731617 132.36689847672508 M 579.8931667493645 138.53733991834522 L 583.240234375 145.192131451978 M 583.240234375 145.192131451978 L 584.7320317865658 148.41446308754323 M 587.6610454611766 154.77200833009223 L 591.736328125 164.30079112913643 M 591.736328125 164.30079112913643 L 591.9705486502362 164.89244827388885 M 594.5471056463682 171.40100833320173 L 596.130859375 175.40167910331678 M 596.130859375 175.40167910331678 L 598.4567965903973 181.68206102662293" stroke-linecap="round" stroke-linejoin="round" stroke-miterlimit="10" stroke-width="2.5" stroke-opacity="0.9" stroke-dasharray=""/></g></g></g><g id="labels-5675f3a6"/></g></svg>