<svg version="1.1" xmlns="http://www.w3.org/2000/svg" xmlns:xlink="http://www.w3.org/1999/xlink" width="600" height="400"><defs/><g transform="scale(1,1)"><g id="background-58f80cb0"><rect fill="white" stroke="none" x="0" y="0" width="600" height="400" class="dcg-svg-background"/></g><g id="background-images-58f80cb0"/><g id="graphpaper-58f80cb0"><g id="grid-58f80cb0"><g><path fill="none" stroke="rgb(0,0,0)" class="dcg-svg-minor-gridline" paint-order="fill stroke markers" d=" M -0.5 0 L -0.5 400" stroke-opacity="0.12" stroke-miterlimit="10" stroke-dasharray=""/><path fill="none" stroke="rgb(0,0,0)" class="dcg-svg-minor-gridline" paint-order="fill stroke markers" d=" M 24.5 0 L 24.5 400" stroke-opacity="0.12" stroke-miterlimit="10" stroke-dasharray=""/><path fill="none" stroke="rgb(0,0,0)" class="dcg-svg-minor-gridline" paint-order="fill stroke markers" d=" M 49.5 0 L 49.5 400" stroke-opacity="0.12" stroke-miterlimit="10" stroke-dasharray=""/><path fill="none" stroke="rgb(0,0,0)" class="dcg-svg-minor-gridline" paint-order="fill stroke markers" d=" M 74.5 0 L 74.5 400" stroke-opacity="0.12" stroke-miterlimit="10" stroke-dasharray=""/><path fill="none" stroke="rgb(0,0,0)" class="dcg-svg-minor-gridline" paint-order="fill stroke markers" d=" M 99.5 0 L 99.5 400" stroke-opacity="0.12" stroke-miterlimit="10" stroke-dasharray=""/><path fill="none" stroke="rgb(0,0,0)" class="dcg-svg-minor-gridline" paint-order="fill stroke markers" d=" M 124.5 0 L 124.5 400" stroke-opacity="0.12" stroke-miterlimit="10" stroke-dasharray=""/><path fill="none" stroke="rgb(0,0,0)" class="dcg-svg-minor-gridline" paint-order="fill stroke markers" d=" M 149.5 0 L 149.5 400" stroke-opacity="0.12" stroke-miterlimit="10" stroke-dasharray=""/><path fill="none" stroke="rgb(0,0,0)" class="dcg-svg-minor-gridline" paint-order="fill stroke markers" d=" M 174.5 0 L 174.5 400" stroke-opacity="0.12" stroke-miterlimit="10" stroke-dasharray=""/><path fill="none" stroke="rgb(0,0,0)" class="dcg-svg-minor-gridline" paint-order="fill stroke markers" d=" M 199.5 0 L 199.5 400" stroke-opacity="0.12" stroke-miterlimit="10" stroke-dasharray=""/><path fill="none" stroke="rgb(0,0,0)" class="dcg-svg-minor-gridline" paint-order="fill stroke markers" d=" M 224.5 0 L 224.5 400" stroke-opacity="0.12" stroke-miterlimit="10" stroke-dasharray=""/><path fill="none" stroke="rgb(0,0,0)" class="dcg-svg-minor-gridline" paint-order="fill stroke markers" d=" M 249.5 0 L 249.5 400" stroke-opacity="0.12" stroke-miterlimit="10" stroke-dasharray=""/><path fill="none" stroke="rgb(0,0,0)" class="dcg-svg-minor-gridline" paint-order="fill stroke markers" d=" M 274.5 0 L 274.5 400" stroke-opacity="0.12" stroke-miterlimit="10" stroke-dasharray=""/><path fill="none" stroke="rgb(0,0,0)" class="dcg-svg-minor-gridline" paint-order="fill stroke markers" d=" M 324.5 0 L 324.5 400" stroke-opacity="0.12" stroke-miterlimit="10" stroke-dasharray=""/><path fill="none" stroke="rgb(0,0,0)" class="dcg-svg-minor-gridline" paint-order="fill stroke markers" d=" M 349.5 0 L 349.5 400" stroke-opacity="0.12" stroke-miterlimit="10" stroke-dasharray=""/><path fill="none" stroke="rgb(0,0,0)" class="dcg-svg-minor-gridline" paint-order="fill stroke markers" d=" M 374.5 0 L 374.5 400" stroke-opacity="0.12" stroke-miterlimit="10" stroke-dasharray=""/><path fill="none" stroke="rgb(0,0,0)" class="dcg-svg-minor-gridline" paint-order="fill stroke markers" d=" M 399.5 0 L 399.5 400" stroke-opacity="0.12" stroke-miterlimit="10" stroke-dasharray=""/><path fill="none" stroke="rgb(0,0,0)" class="dcg-svg-minor-gridline" paint-order="fill stroke markers" d=" M 424.5 0 L 424.5 400" stroke-opacity="0.12" stroke-miterlimit="10" stroke-dasharray=""/><path fill="none" stroke="rgb(0,0,0)" class="dcg-svg-minor-gridline" paint-order="fill stroke markers" d=" M 449.5 0 L 449.5 400" stroke-opacity="0.12" stroke-miterlimit="10" stroke-dasharray=""/><path fill="none" stroke="rgb(0,0,0)" class="dcg-svg-minor-gridline" paint-order="fill stroke markers" d=" M 474.5 0 L 474.5 400" stroke-opacity="0.12" stroke-miterlimit="10" stroke-dasharray=""/><path fill="none" stroke="rgb(0,0,0)" class="dcg-svg-minor-gridline" paint-order="fill stroke markers" d=" M 499.5 0 L 499.5 400" stroke-opacity="0.12" stroke-miterlimit="10" stroke-dasharray=""/><path fill="none" stroke="rgb(0,0,0)" class="dcg-svg-minor-gridline" paint-order="fill stroke markers" d=" M 524.5 0 L 524.5 400" stroke-opacity="0.12" stroke-miterlimit="10" stroke-dasharray=""/><path fill="none" stroke="rgb(0,0,0)" class="dcg-svg-minor-gridline" paint-order="fill stroke markers" d=" M 549.5 0 L 549.5 400" stroke-opacity="0.12" stroke-miterlimit="10" stroke-dasharray=""/><path fill="none" stroke="rgb(0,0,0)" class="dcg-svg-minor-gridline" paint-order="fill stroke markers" d=" M 574.5 0 L 574.5 400" stroke-opacity="0.12" stroke-miterlimit="10" stroke-dasharray=""/><path fill="none" stroke="rgb(0,0,0)" class="dcg-svg-minor-gridline" paint-order="fill stroke markers" d=" M 0 374.5 L 600 374.5" stroke-opacity="0.12" stroke-miterlimit="10" stroke-dasharray=""/><path fill="none" stroke="rgb(0,0,0)" class="dcg-svg-minor-gridline" paint-order="fill stroke markers" d=" M 0 349.5 L 600 349.5" stroke-opacity="0.12" stroke-miterlimit="10" stroke-dasharray=""/><path fill="none" stroke="rgb(0,0,0)" class="dcg-svg-minor-gridline" paint-order="fill stroke markers" d=" M 0 299.5 L 600 299.5" stroke-opacity="0.12" stroke-miterlimit="10" stroke-dasharray=""/><path fill="none" stroke="rgb(0,0,0)" class="dcg-svg-minor-gridline" paint-order="fill stroke markers" d=" M 0 274.5 L 600 274.5" stroke-opacity="0.12" stroke-miterlimit="10" stroke-dasharray=""/><path fill="none" stroke="rgb(0,0,0)" class="dcg-svg-minor-gridline" paint-order="fill stroke markers" d=" M 0 249.5 L 600 249.5" stroke-opacity="0.12" stroke-miterlimit="10" stroke-dasharray=""/><path fill="none" stroke="rgb(0,0,0)" class="dcg-svg-minor-gridline" paint-order="fill stroke markers" d=" M 0 224.5 L 600 224.5" stroke-opacity="0.12" stroke-miterlimit="10" stroke-dasharray=""/><path fill="none" stroke="rgb(0,0,0)" class="dcg-svg-minor-gridline" paint-order="fill stroke markers" d=" M 0 199.5 L 600 199.5" stroke-opacity="0.12" stroke-miterlimit="10" stroke-dasharray=""/><path fill="none" stroke="rgb(0,0,0)" class="dcg-svg-minor-gridline" paint-order="fill stroke markers" d=" M 0 174.5 L 600 174.5" stroke-opacity="0.12" stroke-miterlimit="10" stroke-dasharray=""/><path fill="none" stroke="rgb(0,0,0)" class="dcg-svg-minor-gridline" paint-order="fill stroke markers" d=" M 0 149.5 L 600 149.5" stroke-opacity="0.12" stroke-miterlimit="10" stroke-dasharray=""/><path fill="none" stroke="rgb(0,0,0)" class="dcg-svg-minor-gridline" paint-order="fill stroke markers" d=" M 0 124.5 L 600 124.5" stroke-opacity="0.12" stroke-miterlimit="10" stroke-dasharray=""/><path fill="none" stroke="rgb(0,0,0)" class="dcg-svg-minor-gridline" paint-order="fill stroke markers" d=" M 0 99.5 L 600 99.5" stroke-opacity="0.12" stroke-miterlimit="10" stroke-dasharray=""/><path fill="none" stroke="rgb(0,0,0)" class="dcg-svg-minor-gridline" paint-order="fill stroke markers" d=" M 0 74.5 L 600 74.5" stroke-opacity="0.12" stroke-miterlimit="10" stroke-dasharray=""/><path fill="none" stroke="rgb(0,0,0)" class="dcg-svg-minor-gridline" paint-order="fill stroke markers" d=" M 0 49.5 L 600 49.5" stroke-opacity="0.12" stroke-miterlimit="10" stroke-dasharray=""/><path fill="none" stroke="rgb(0,0,0)" class="dcg-svg-minor-gridline" paint-order="fill stroke markers" d=" M 0 24.5 L 600 24.5" stroke-opacity="0.12" stroke-miterlimit="10" stroke-dasharray=""/><path fill="none" stroke="rgb(0,0,0)" class="dcg-svg-minor-gridline" paint-order="fill stroke markers" d=" M 0 -0.5 L 600 -0.5" stroke-opacity="0.12" stroke-miterlimit="10" stroke-dasharray=""/><path fill="none" stroke="rgb(0,0,0)" class="dcg-svg-major-gridline" paint-order="fill stroke markers" d=" M -0.5 0 L -0.5 400" stroke-opacity="0.31818181818181823" stroke-miterlimit="10" stroke-dasharray=""/><path fill="none" stroke="rgb(0,0,0)" class="dcg-svg-major-gridline" paint-order="fill stroke markers" d=" M 99.5 0 L 99.5 400" stroke-opacity="0.31818181818181823" stroke-miterlimit="10" stroke-dasharray=""/><path fill="none" stroke="rgb(0,0,0)" class="dcg-svg-major-gridline" paint-order="fill stroke markers" d=" M 199.5 0 L 199.5 400" stroke-opacity="0.31818181818181823" stroke-miterlimit="10" stroke-dasharray=""/><path fill="none" stroke="rgb(0,0,0)" class="dcg-svg-major-gridline" paint-order="fill stroke markers" d=" M 399.5 0 L 399.5 400" stroke-opacity="0.31818181818181823" stroke-miterlimit="10" stroke-dasharray=""/><path fill="none" stroke="rgb(0,0,0)" class="dcg-svg-major-gridline" paint-order="fill stroke markers" d=" M 499.5 0 L 499.5 400" stroke-opacity="0.31818181818181823" stroke-miterlimit="10" stroke-dasharray=""/><path fill="none" stroke="rgb(0,0,0)" class="dcg-svg-major-gridline" paint-order="fill stroke markers" d=" M 0 224.5 L 600 224.5" stroke-opacity="0.31818181818181823" stroke-miterlimit="10" stroke-dasharray=""/><path fill="none" stroke="rgb(0,0,0)" class="dcg-svg-major-gridline" paint-order="fill stroke markers" d=" M 0 124.5 L 600 124.5" stroke-opacity="0.31818181818181823" stroke-miterlimit="10" stroke-dasharray=""/><path fill="none" stroke="rgb(0,0,0)" class="dcg-svg-major-gridline" paint-order="fill stroke markers" d=" M 0 24.5 L 600 24.5" stroke-opacity="0.31818181818181823" stroke-miterlimit="10" stroke-dasharray=""/></g></g><g id="axis-58f80cb0"><g id="yaxis-58f80cb0"><title>Y axis</title><path fill="none" stroke="rgb(0,0,0)" class="dcg-svg-axis-line" paint-order="fill stroke markers" d=" M 299.75 0 L 299.75 400" stroke-opacity="0.9" stroke-miterlimit="10" stroke-width="1.5" stroke-dasharray=""/></g><g id="xaxis-58f80cb0"><title>X axis</title><path fill="none" stroke="rgb(0,0,0)" class="dcg-svg-axis-line" paint-order="fill stroke markers" d=" M 0 324.75 L 600 324.75" stroke-opacity="0.9" stroke-miterlimit="10" stroke-width="1.5" stroke-dasharray=""/></g><g/></g></g><g id="expressions-58f80cb0"><g id="sketch-58f80cb0"><title>Expression 1</title><path fill="#2d70b3" stroke="none" paint-order="stroke fill markers" d="" fill-opacity="0.4"/><g><path fill="none" stroke="#2d70b3" class="dcg-svg-curve" paint-order="fill stroke markers" d=" M 34.50000000000001 320.94233333333335 L 34.50000000000001 320.94233333333335 L 38.60057024364954 291.8849526797867 L 42.70114048729913 264.8957197562713 L 46.80171073094866 239.8984848592879 L 50.75583203732504 217.6104211357469 L 54.70995334370138 197.03878349324597 L 58.5176257128046 178.79053498640462 L 62.32529808190773 162.01634931192234 L 65.9865215137377 147.22500272217562 L 69.64774494556764 133.69516041063605 L 73.16251944012441 121.84829508483091 L 76.67729393468122 111.07706077335553 L 80.04561949196474 101.7254602222149 L 83.41394504924831 93.28744988882886 L 86.63582166925873 86.03843129096981 L 89.85769828926905 79.56219102969834 L 93.07957490927942 73.82858386059945 L 96.15500259201659 69.02108403033202 L 99.23043027475379 64.83776040787012 L 102.30585795749096 61.253566777927404 L 105.38128564022811 58.24383861522597 L 108.4567133229653 55.78429308449671 L 111.23924313115604 54.0131213967673 L 113.87532400207364 52.71675958872356 L 116.51140487299119 51.7767905798047 L 119.0010368066356 51.2033012292207 L 121.49066874027993 50.92288898582575 L 124.12674961119751 50.93231225266487 L 126.7628304821151 51.24326713790151 L 129.54536029030584 51.883593575715736 L 132.47433903576982 52.88689375651444 L 135.54976671850696 54.28439212510864 L 138.77164333851735 56.10441577758252 L 142.28641783307413 58.478526768523864 L 146.24053913945053 61.598482986114675 L 150.63400725764646 65.57482627173084 L 155.466822187662 70.50548217266527 L 160.73898392949718 76.46918247084221 L 166.5969414204251 83.70675729715094 L 173.18714359771903 92.47803217603689 L 180.94893727319854 103.45604001204316 L 191.20036288232245 118.63587633133733 L 216.9753758424054 157.07524830296222 L 225.46941420425088 168.94501441068184 L 232.79186106791084 178.57623060128387 L 239.52851218247798 186.83763086007636 L 245.82581648522552 193.96530042412547 L 251.83022291342664 200.1690415197542 L 257.5417314670814 205.4899250797738 L 262.81389320891657 209.86790493340916 L 267.6467081389321 213.40932726346153 L 272.18662519440124 216.30982556397043 L 276.5800933125972 218.71214767511057 L 280.6806635562467 220.58710587607177 L 284.6347848626231 222.05340728277878 L 288.4424572317263 223.1441104916426 L 292.2501296008295 223.9164842344109 L 295.9113530326594 224.35693629543832 L 299.5 224.5 L 303.23379989631934 224.34513164527417 L 306.89502332814925 223.89290532845766 L 310.5562467599793 223.14442768646003 L 314.36391912908243 222.05383235812434 L 318.1715914981856 220.64795931460247 L 322.125712804562 218.8585573405018 L 326.22628304821154 216.6541028202303 L 330.61975116640747 213.90630077979688 L 335.30611715914984 210.54690621135418 L 340.2853810264386 206.5091733948614 L 345.5575427682737 201.7300131803638 L 351.26905132192843 195.9987410995029 L 357.27345775012964 189.39421305867512 L 363.71721099015036 181.702756205892 L 370.60031104199066 172.87372550060473 L 378.215655780197 162.4791424171247 L 387.0025920165889 149.84775725586528 L 399.1578538102644 131.68363270137178 L 418.049766718507 103.4579187693709 L 426.25090720580613 91.87736143760026 L 432.9875583203733 82.9588780425492 L 438.9919647485744 75.60907909644175 L 444.4105754276827 69.57003840085872 L 449.3898392949715 64.60297292703274 L 453.9297563504407 60.62781641528346 L 458.0303265940902 57.543392463612406 L 461.69155002592015 55.23416143794748 L 465.05987558320373 53.51023003541957 L 468.1353032659409 52.29477340504337 L 471.0642820114049 51.47497886162108 L 473.8468118195956 51.01829899115239 L 476.48289269051327 50.88983482162615 L 478.9725246241576 51.05286104394361 L 481.46215655780196 51.50407863654459 L 483.95178849144634 52.25538614777457 L 486.44142042509066 53.31884604498015 L 489.07750129600834 54.79868802408663 L 491.8600311041991 56.77153665520984 L 494.78900984966305 59.322978237062955 L 497.8644375324002 62.54842553928836 L 500.9398652151374 66.35767893721942 L 504.01529289787453 70.77554820100443 L 507.0907205806118 75.82722479080076 L 510.1661482633489 81.53828185677412 L 513.2415759460861 87.93467423909942 L 516.4634525660964 95.39942249405641 L 519.6853291861069 103.67596823816638 L 523.0536547433904 113.23056627446391 L 526.421980300674 123.74270923828465 L 529.7903058579576 135.24912300930617 L 533.3050803525142 148.35619369219202 L 536.819854847071 162.62945344559654 L 540.481078278901 178.7845780408575 L 544.142301710731 196.302533510853 L 547.9499740798342 216.02156054502348 L 551.7576464489372 237.32769546649635 L 555.7117677553136 261.19636661319737 L 559.66588906169 286.9072385186756 L 563.7664593053396 315.5890069549131 L 567.8670295489892 346.40235253070387 L 572.1140487299119 380.6468913456949 L 574.9898368051486 405.5" stroke-linecap="round" stroke-linejoin="round" stroke-miterlimit="10" stroke-width="2.5" stroke-opacity="0.9" stroke-dasharray=""/></g></g><g id="sketch-58f80cb0"><title>Expression 2</title><path fill="#388c46" stroke="none" paint-order="stroke fill markers" d="" fill-opacity="0.4"/><path fill="#388c46" stroke="none" paint-order="stroke fill markers" d="" fill-opacity="0.4"/><path fill="#388c46" stroke="none" class="dcg-svg-region" paint-order="stroke fill markers" d=" M 34.50000000000001 324.5 L 564.9823667707293 324.5 L 564.9823667707293 324.4999999999999 L 563.7578125 315.5263108299114 L 559.65625 286.84226763248444 L 555.701171875 261.12997412547156 L 551.74609375 237.26059189243827 L 547.9375 215.95440101623538 L 544.12890625 196.23589445083053 L 540.466796875 178.71894660125872 L 536.8046875 162.56529237190261 L 533.2890625 148.29384862491864 L 529.7734375 135.18896094569942 L 526.404296875 123.68495752871428 L 523.03515625 113.1755118508882 L 519.666015625 103.62387431723806 L 516.443359375 95.35038527301555 L 513.220703125 87.88889349507559 L 510.14453125 81.49577811305068 L 507.068359375 75.78814592179879 L 503.9921875 70.74002596596256 L 500.916015625 66.3258293497729 L 497.83984375 62.52034923704923 L 494.763671875 59.298760851199404 L 491.833984375 56.751060643548044 L 489.05078125 54.781814724585274 L 486.4140625 53.30541982362047 L 483.923828125 52.245237986609936 L 481.43359375 51.49722318342543 L 478.943359375 51.04930605008303 L 476.453125 50.8895813003183 L 473.81640625 51.0215349420032 L 471.033203125 51.481882964255476 L 468.103515625 52.30551246841247 L 465.02734375 53.52495621601702 L 461.658203125 55.25319504504483 L 457.99609375 57.56702171816147 L 453.89453125 60.65646525417111 L 449.353515625 64.63699498035749 L 444.373046875 69.60969691990795 L 438.953125 75.65452442318201 L 432.947265625 83.0102615267624 L 426.208984375 91.93474815398258 L 418.005859375 103.52157670622728 L 398.962890625 131.97815939111206 L 386.951171875 149.9232378728284 L 378.162109375 162.55422316517252 L 370.544921875 172.94706603203122 L 363.66015625 181.77340983125032 L 357.21484375 189.46140140938223 L 351.208984375 196.0618874354641 L 345.49609375 201.7886036093405 L 340.22265625 206.56296059201122 L 335.2421875 210.5956477210857 L 330.5546875 213.94985850015655 L 326.16015625 216.6924337175733 L 322.05859375 218.89170394456596 L 318.103515625 220.67584075321247 L 314.294921875 222.0764098890886 L 310.486328125 223.16148542082556 L 306.82421875 223.90446514301584 L 303.162109375 224.35102036248463 L 299.5 224.5 L 295.837890625 224.35102036248463 L 292.17578125 223.90446514301584 L 288.3671875 223.12562513211742 L 284.55859375 222.02835329985828 L 280.603515625 220.55514381554713 L 276.501953125 218.67295305837797 L 272.107421875 216.26283495261487 L 267.56640625 213.35426639011712 L 262.732421875 209.80428201419454 L 257.458984375 205.41705452542556 L 251.74609375 200.08634021683247 L 245.740234375 193.87257327671432 L 239.44140625 186.73485004520626 L 232.703125 178.46336946636438 L 225.37890625 168.82218755959184 L 216.8828125 156.9424589262344 L 191.248046875 118.70756698899822 L 180.994140625 103.52157670622728 L 173.23046875 92.53756510038511 L 166.638671875 83.76035559904449 L 160.779296875 76.51691372575624 L 155.505859375 70.54749917788467 L 150.671875 65.61127886921167 L 146.27734375 61.62963442216278 L 142.322265625 58.50473191585667 L 138.806640625 56.12610171283637 L 135.583984375 54.30184732595268 L 132.5078125 52.90024313190952 L 129.578125 51.89298138767481 L 126.794921875 51.24885399982492 L 124.158203125 50.934272333508545 L 121.521484375 50.92120463083302 L 119.03125 51.198165535926876 L 116.541015625 51.7682011302914 L 113.904296875 52.70451805390803 L 111.267578125 53.997240767750554 L 108.484375 55.76459453254938 L 105.408203125 58.219960093958434 L 102.33203125 61.22556365039782 L 99.255859375 64.80570237236134 L 96.1796875 68.98505548993126 L 93.103515625 73.78868429277827 L 89.880859375 79.51835962794758 L 86.658203125 85.99081237753313 L 83.435546875 93.23620642313654 L 80.06640625 101.67062240830279 L 76.697265625 111.01884990694276 L 73.181640625 121.78682517693414 L 69.666015625 133.63072389675114 L 66.00390625 147.15781631125722 L 62.341796875 161.9467913447825 L 58.533203125 178.71894660125872 L 54.724609375 196.96564588139339 L 50.76953125 217.53622474093575 L 46.814453125 239.8238330824479 L 42.712890625 264.8212806952888 L 38.611328125 291.81147397012137 L 34.50000000000001 320.94233333333335" fill-opacity="0.4"/><g><path fill="none" stroke="#388c46" class="dcg-svg-curve" paint-order="fill stroke markers" d=" M 34.50000000000001 324.5 L 45.50000000000001 324.5 M 52.50000000000001 324.5 L 63.50000000000001 324.5 M 70.5 324.5 L 81.5 324.5 M 88.5 324.5 L 99.5 324.5 M 106.5 324.5 L 117.5 324.5 M 124.5 324.5 L 135.5 324.5 M 142.5 324.5 L 153.5 324.5 M 160.5 324.5 L 171.5 324.5 M 178.5 324.5 L 189.5 324.5 M 196.5 324.5 L 207.5 324.5 M 214.5 324.5 L 225.5 324.5 M 232.5 324.5 L 243.5 324.5 M 250.5 324.5 L 261.5 324.5 M 268.5 324.5 L 279.5 324.5 M 286.5 324.5 L 297.5 324.5 M 304.5 324.5 L 315.5 324.5 M 322.5 324.5 L 333.5 324.5 M 340.5 324.5 L 351.5 324.5 M 358.5 324.5 L 369.5 324.5 M 376.5 324.5 L 387.5 324.5 M 394.5 324.5 L 405.5 324.5 M 412.5 324.5 L 423.5 324.5 M 430.5 324.5 L 441.5 324.5 M 448.5 324.5 L 459.5 324.5 M 466.5 324.5 L 477.5 324.5 M 484.5 324.5 L 495.5 324.5 M 502.5 324.5 L 513.5 324.5 M 520.5 324.5 L 531.5 324.5 M 538.5 324.5 L 549.5 324.5 M 556.5 324.5 L 564.9823667707293 324.5" stroke-linecap="round" stroke-linejoin="round" stroke-miterlimit="10" stroke-width="2.5" stroke-opacity="0.9" stroke-dasharray=""/></g><g><path fill="none" stroke="#388c46" class="dcg-svg-curve" paint-order="fill stroke markers" d=" M 34.50000000000001 320.94233333333335 L 36.03722975719364 310.05027546194844 M 37.01546687540778 303.1189659074308 L 38.55269663260142 292.2269080360458 M 39.59997507998173 285.3057161289251 L 41.25261559880086 274.43057110388946 M 42.30429592895848 267.51002426977584 L 42.712890625 264.8212806952888 M 42.712890625 264.8212806952888 L 44.05360295597136 256.65015414111673 M 45.1870023541818 249.74252026227398 L 46.814453125 239.8238330824479 M 46.814453125 239.8238330824479 L 46.98021343408102 238.88974259659537 M 48.2032993562379 231.99742362349048 L 50.125291519627275 221.16663666575423 M 51.39503553190155 214.28294256769493 L 53.47195051388622 203.48079351495514 M 54.799294345833225 196.60783554692557 L 57.04686208302482 185.83989984565324 M 58.477132461237645 178.98757712666176 L 58.533203125 178.71894660125872 M 58.533203125 178.71894660125872 L 60.90828503023755 168.25964191393373 M 62.468333313540704 161.43578961359862 L 65.1123439573895 150.75828017950238 M 66.86384684136624 143.9813694443757 L 69.666015625 133.63072389675114 M 69.666015625 133.63072389675114 L 69.74476826774838 133.36541166218979 M 71.73667904932555 126.65480129961942 L 73.181640625 121.78682517693414 M 73.181640625 121.78682517693414 L 75.01965796495536 116.15717888005818 M 77.23797330415195 109.51856869057943 L 80.06640625 101.67062240830279 M 80.06640625 101.67062240830279 L 81.05236596933173 99.2023388478736 M 83.66942716272987 92.710380919997 L 86.658203125 85.99081237753313 M 86.658203125 85.99081237753313 L 88.28314402592325 82.72724580815586 M 91.555165013454 76.5415519959872 L 93.103515625 73.78868429277827 M 93.103515625 73.78868429277827 L 96.1796875 68.98505548993126 M 96.1796875 68.98505548993126 L 97.44669058481759 67.26367791166993 M 101.8287858254756 61.81125538161513 L 102.33203125 61.22556365039782 M 102.33203125 61.22556365039782 L 105.408203125 58.219960093958434 M 105.408203125 58.219960093958434 L 108.484375 55.76459453254938 M 108.484375 55.76459453254938 L 110.16522425773847 54.69724330796946 M 116.50292162862756 51.78172856983789 L 116.541015625 51.7682011302914 M 116.541015625 51.7682011302914 L 119.03125 51.198165535926876 M 119.03125 51.198165535926876 L 121.521484375 50.92120463083302 M 121.521484375 50.92120463083302 L 124.158203125 50.934272333508545 M 124.158203125 50.934272333508545 L 126.794921875 51.24885399982492 M 126.794921875 51.24885399982492 L 127.38645943938285 51.3857558100947 M 134.01148455270842 53.58536514107606 L 135.583984375 54.30184732595268 M 135.583984375 54.30184732595268 L 138.806640625 56.12610171283637 M 138.806640625 56.12610171283637 L 142.322265625 58.50473191585667 M 142.322265625 58.50473191585667 L 143.36121287636044 59.325602899206984 M 148.71062139112817 63.834294226988646 L 150.671875 65.61127886921167 M 150.671875 65.61127886921167 L 155.505859375 70.54749917788467 M 155.505859375 70.54749917788467 L 156.46221525881649 71.63007287403576 M 161.080790023272 76.88962380058554 L 166.638671875 83.76035559904449 M 166.638671875 83.76035559904449 L 167.93744195270446 85.48971366062528 M 172.14106925985857 91.08699134379845 L 173.23046875 92.53756510038511 M 173.23046875 92.53756510038511 L 178.53249537398952 100.03885094940676 M 182.52471906698972 105.78835668064674 L 188.68030726177744 114.9047558588415 M 192.5909348542555 120.71051788473702 L 198.7165769933994 129.84706583148062 M 202.61471290012733 135.6612327066811 L 208.74035503927124 144.79778065342467 M 212.63849094599917 150.61194752862514 L 216.8828125 156.9424589262344 M 216.8828125 156.9424589262344 L 218.84805419492528 159.69037328801645 M 222.92007641000382 165.38410976592854 L 225.37890625 168.82218755959184 M 225.37890625 168.82218755959184 L 229.4761366329237 174.2155468766825 M 233.75500767234837 179.75459296576193 L 239.44140625 186.73485004520626 M 239.44140625 186.73485004520626 L 240.76257565746442 188.2319763971682 M 245.39427317427388 193.4805360198439 L 245.740234375 193.87257327671432 M 245.740234375 193.87257327671432 L 251.74609375 200.08634021683247 M 251.74609375 200.08634021683247 L 253.08796035806319 201.33843972255784 M 258.2443542885183 206.0704417085371 L 262.732421875 209.80428201419454 M 262.732421875 209.80428201419454 L 266.89286271447025 212.85962908015804 M 272.78404221857073 216.63391774802508 L 276.501953125 218.67295305837797 M 276.501953125 218.67295305837797 L 280.603515625 220.55514381554713 M 280.603515625 220.55514381554713 L 282.70903721149693 221.33942019963226 M 289.4084322572008 223.33855492491725 L 292.17578125 223.90446514301584 M 292.17578125 223.90446514301584 L 295.837890625 224.35102036248463 M 295.837890625 224.35102036248463 L 299.5 224.5 M 299.5 224.5 L 300.32032834951485 224.46662791641654 M 307.28153491864305 223.81168346853855 L 310.486328125 223.16148542082556 M 310.486328125 223.16148542082556 L 314.294921875 222.0764098890886 M 314.294921875 222.0764098890886 L 317.83303824038745 220.77530588436247 M 324.14987109869566 217.77035470037657 L 326.16015625 216.6924337175733 M 326.16015625 216.6924337175733 L 330.5546875 213.94985850015655 M 330.5546875 213.94985850015655 L 333.4326163077771 211.8905134700884 M 338.953106580799 207.59091536247487 L 340.22265625 206.56296059201122 M 340.22265625 206.56296059201122 L 345.49609375 201.7886036093405 M 345.49609375 201.7886036093405 L 347.08716508853087 200.1936817797009 M 351.99223416094117 195.2010898469364 L 357.21484375 189.46140140938223 M 357.21484375 189.46140140938223 L 359.2963133826176 186.97861705940676 M 363.7878117823253 181.60975406175194 L 370.544921875 172.94706603203122 M 370.544921875 172.94706603203122 L 370.55296916437857 172.93608636085793 M 374.6910201168625 167.29015558598593 L 378.162109375 162.55422316517252 M 378.162109375 162.55422316517252 L 381.09118180389913 158.34477866871617 M 385.0893352311586 152.59893067454738 L 386.951171875 149.9232378728284 M 386.951171875 149.9232378728284 L 391.2566938550248 143.49094192548117 M 395.1504353975009 137.67383123370334 L 398.962890625 131.97815939111206 M 398.962890625 131.97815939111206 L 401.2687764710179 128.53239249937604 M 405.1618500531063 122.71483475712327 L 411.27953711067386 113.57295830501178 M 415.1726106927623 107.75540056275901 L 418.005859375 103.52157670622728 M 418.005859375 103.52157670622728 L 421.4182515607743 98.7016083149634 M 425.46298991541886 92.98845755181463 L 426.208984375 91.93474815398258 M 426.208984375 91.93474815398258 L 432.05928220057086 84.18634722317212 M 436.4423998709129 78.72956045645876 L 438.953125 75.65452442318201 M 438.953125 75.65452442318201 L 443.6462790941438 70.42025950208784 M 448.55624864627544 65.43301865813747 L 449.353515625 64.63699498035749 M 449.353515625 64.63699498035749 L 453.89453125 60.65646525417111 M 453.89453125 60.65646525417111 L 456.9575360982895 58.349300477500215 M 462.8753537289942 54.62884386213823 L 465.02734375 53.52495621601702 M 465.02734375 53.52495621601702 L 468.103515625 52.30551246841247 M 468.103515625 52.30551246841247 L 471.033203125 51.481882964255476 M 471.033203125 51.481882964255476 L 473.2324025001529 51.118130468508305 M 480.19594971841315 51.27460880933596 L 481.43359375 51.49722318342543 M 481.43359375 51.49722318342543 L 483.923828125 52.245237986609936 M 483.923828125 52.245237986609936 L 486.4140625 53.30541982362047 M 486.4140625 53.30541982362047 L 489.05078125 54.781814724585274 M 489.05078125 54.781814724585274 L 490.20498402918673 55.598466981171455 M 495.53850026347436 60.11021685520947 L 497.83984375 62.52034923704923 M 497.83984375 62.52034923704923 L 500.916015625 66.3258293497729 M 500.916015625 66.3258293497729 L 502.50219482860024 68.60193977458539 M 506.2786543939963 74.49220875189404 L 507.068359375 75.78814592179879 M 507.068359375 75.78814592179879 L 510.14453125 81.49577811305068 M 510.14453125 81.49577811305068 L 511.44468162527977 84.19784148951481 M 514.3721049636016 90.55476124061352 L 516.443359375 95.35038527301555 M 516.443359375 95.35038527301555 L 518.5398523611308 100.73268807122513 M 520.9623980147837 107.29916605197289 L 523.03515625 113.1755118508882 M 523.03515625 113.1755118508882 L 524.4909707045604 117.71667074869964 M 526.6101808153859 124.38795268900134 L 529.7018549354293 134.94454073322535 M 531.5211922459341 141.70391337557732 L 533.2890625 148.29384862491864 M 533.2890625 148.29384862491864 L 534.2881688194038 152.34965367654598 M 535.9624939906403 159.14646434192161 L 536.8046875 162.56529237190261 M 536.8046875 162.56529237190261 L 538.4582445144366 169.8591728993611 M 540.0059047002356 176.68593991964917 L 540.466796875 178.71894660125872 M 540.466796875 178.71894660125872 L 542.2912165434873 187.44568327569934 M 543.7236739784187 194.29754913085952 L 544.12890625 196.23589445083053 M 544.12890625 196.23589445083053 L 545.8394396972417 205.09196239186016 M 547.1669416839816 211.9649339817332 L 547.9375 215.95440101623538 M 547.9375 215.95440101623538 L 549.1581407288775 222.78295928941208 M 550.3899027931493 229.6737329917637 L 551.74609375 237.26059189243827 M 551.74609375 237.26059189243827 L 552.2843740007787 240.5091793155579 M 553.4286490754828 247.4150199272004 L 555.2267956214463 258.2670551740672 M 556.3242077285709 265.1803822908997 L 557.9965644080258 276.0525128611551 M 559.0607913858609 282.9711414058631 L 559.65625 286.84226763248444 M 559.65625 286.84226763248444 L 560.6589066277502 293.8542895198927 M 561.6497657137899 300.78380597283603 L 563.2068299918523 311.6730461131756 M 564.1779752848581 318.60531706285707 L 564.9823667707293 324.4999999999999" stroke-linecap="round" stroke-linejoin="round" stroke-miterlimit="10" stroke-width="2.5" stroke-opacity="0.9" stroke-dasharray=""/></g></g></g><g id="labels-58f80cb0"/></g></svg>