<svg version="1.1" xmlns="http://www.w3.org/2000/svg" xmlns:xlink="http://www.w3.org/1999/xlink" width="600" height="400"><defs/><g transform="scale(1,1)"><g id="background-f2756bff"><rect fill="white" stroke="none" x="0" y="0" width="600" height="400" class="dcg-svg-background"/></g><g id="background-images-f2756bff"/><g id="graphpaper-f2756bff"><g id="grid-f2756bff"><g><path fill="none" stroke="rgb(0,0,0)" class="dcg-svg-minor-gridline" paint-order="fill stroke markers" d=" M -0.5 0 L -0.5 400" stroke-opacity="0.12" stroke-miterlimit="10" stroke-dasharray=""/><path fill="none" stroke="rgb(0,0,0)" class="dcg-svg-minor-gridline" paint-order="fill stroke markers" d=" M 51.5 0 L 51.5 400" stroke-opacity="0.12" stroke-miterlimit="10" stroke-dasharray=""/><path fill="none" stroke="rgb(0,0,0)" class="dcg-svg-minor-gridline" paint-order="fill stroke markers" d=" M 77.5 0 L 77.5 400" stroke-opacity="0.12" stroke-miterlimit="10" stroke-dasharray=""/><path fill="none" stroke="rgb(0,0,0)" class="dcg-svg-minor-gridline" paint-order="fill stroke markers" d=" M 103.5 0 L 103.5 400" stroke-opacity="0.12" stroke-miterlimit="10" stroke-dasharray=""/><path fill="none" stroke="rgb(0,0,0)" class="dcg-svg-minor-gridline" paint-order="fill stroke markers" d=" M 129.5 0 L 129.5 400" stroke-opacity="0.12" stroke-miterlimit="10" stroke-dasharray=""/><path fill="none" stroke="rgb(0,0,0)" class="dcg-svg-minor-gridline" paint-order="fill stroke markers" d=" M 156.5 0 L 156.5 400" stroke-opacity="0.12" stroke-miterlimit="10" stroke-dasharray=""/><path fill="none" stroke="rgb(0,0,0)" class="dcg-svg-minor-gridline" paint-order="fill stroke markers" d=" M 182.5 0 L 182.5 400" stroke-opacity="0.12" stroke-miterlimit="10" stroke-dasharray=""/><path fill="none" stroke="rgb(0,0,0)" class="dcg-svg-minor-gridline" paint-order="fill stroke markers" d=" M 208.5 0 L 208.5 400" stroke-opacity="0.12" stroke-miterlimit="10" stroke-dasharray=""/><path fill="none" stroke="rgb(0,0,0)" class="dcg-svg-minor-gridline" paint-order="fill stroke markers" d=" M 234.5 0 L 234.5 400" stroke-opacity="0.12" stroke-miterlimit="10" stroke-dasharray=""/><path fill="none" stroke="rgb(0,0,0)" class="dcg-svg-minor-gridline" paint-order="fill stroke markers" d=" M 260.5 0 L 260.5 400" stroke-opacity="0.12" stroke-miterlimit="10" stroke-dasharray=""/><path fill="none" stroke="rgb(0,0,0)" class="dcg-svg-minor-gridline" paint-order="fill stroke markers" d=" M 286.5 0 L 286.5 400" stroke-opacity="0.12" stroke-miterlimit="10" stroke-dasharray=""/><path fill="none" stroke="rgb(0,0,0)" class="dcg-svg-minor-gridline" paint-order="fill stroke markers" d=" M 312.5 0 L 312.5 400" stroke-opacity="0.12" stroke-miterlimit="10" stroke-dasharray=""/><path fill="none" stroke="rgb(0,0,0)" class="dcg-svg-minor-gridline" paint-order="fill stroke markers" d=" M 338.5 0 L 338.5 400" stroke-opacity="0.12" stroke-miterlimit="10" stroke-dasharray=""/><path fill="none" stroke="rgb(0,0,0)" class="dcg-svg-minor-gridline" paint-order="fill stroke markers" d=" M 364.5 0 L 364.5 400" stroke-opacity="0.12" stroke-miterlimit="10" stroke-dasharray=""/><path fill="none" stroke="rgb(0,0,0)" class="dcg-svg-minor-gridline" paint-order="fill stroke markers" d=" M 390.5 0 L 390.5 400" stroke-opacity="0.12" stroke-miterlimit="10" stroke-dasharray=""/><path fill="none" stroke="rgb(0,0,0)" class="dcg-svg-minor-gridline" paint-order="fill stroke markers" d=" M 416.5 0 L 416.5 400" stroke-opacity="0.12" stroke-miterlimit="10" stroke-dasharray=""/><path fill="none" stroke="rgb(0,0,0)" class="dcg-svg-minor-gridline" paint-order="fill stroke markers" d=" M 442.5 0 L 442.5 400" stroke-opacity="0.12" stroke-miterlimit="10" stroke-dasharray=""/><path fill="none" stroke="rgb(0,0,0)" class="dcg-svg-minor-gridline" paint-order="fill stroke markers" d=" M 469.5 0 L 469.5 400" stroke-opacity="0.12" stroke-miterlimit="10" stroke-dasharray=""/><path fill="none" stroke="rgb(0,0,0)" class="dcg-svg-minor-gridline" paint-order="fill stroke markers" d=" M 495.5 0 L 495.5 400" stroke-opacity="0.12" stroke-miterlimit="10" stroke-dasharray=""/><path fill="none" stroke="rgb(0,0,0)" class="dcg-svg-minor-gridline" paint-order="fill stroke markers" d=" M 521.5 0 L 521.5 400" stroke-opacity="0.12" stroke-miterlimit="10" stroke-dasharray=""/><path fill="none" stroke="rgb(0,0,0)" class="dcg-svg-minor-gridline" paint-order="fill stroke markers" d=" M 547.5 0 L 547.5 400" stroke-opacity="0.12" stroke-miterlimit="10" stroke-dasharray=""/><path fill="none" stroke="rgb(0,0,0)" class="dcg-svg-minor-gridline" paint-order="fill stroke markers" d=" M 573.5 0 L 573.5 400" stroke-opacity="0.12" stroke-miterlimit="10" stroke-dasharray=""/><path fill="none" stroke="rgb(0,0,0)" class="dcg-svg-minor-gridline" paint-order="fill stroke markers" d=" M 0 349.5 L 600 349.5" stroke-opacity="0.12" stroke-miterlimit="10" stroke-dasharray=""/><path fill="none" stroke="rgb(0,0,0)" class="dcg-svg-minor-gridline" paint-order="fill stroke markers" d=" M 0 324.5 L 600 324.5" stroke-opacity="0.12" stroke-miterlimit="10" stroke-dasharray=""/><path fill="none" stroke="rgb(0,0,0)" class="dcg-svg-minor-gridline" paint-order="fill stroke markers" d=" M 0 299.5 L 600 299.5" stroke-opacity="0.12" stroke-miterlimit="10" stroke-dasharray=""/><path fill="none" stroke="rgb(0,0,0)" class="dcg-svg-minor-gridline" paint-order="fill stroke markers" d=" M 0 274.5 L 600 274.5" stroke-opacity="0.12" stroke-miterlimit="10" stroke-dasharray=""/><path fill="none" stroke="rgb(0,0,0)" class="dcg-svg-minor-gridline" paint-order="fill stroke markers" d=" M 0 249.5 L 600 249.5" stroke-opacity="0.12" stroke-miterlimit="10" stroke-dasharray=""/><path fill="none" stroke="rgb(0,0,0)" class="dcg-svg-minor-gridline" paint-order="fill stroke markers" d=" M 0 224.5 L 600 224.5" stroke-opacity="0.12" stroke-miterlimit="10" stroke-dasharray=""/><path fill="none" stroke="rgb(0,0,0)" class="dcg-svg-minor-gridline" paint-order="fill stroke markers" d=" M 0 199.5 L 600 199.5" stroke-opacity="0.12" stroke-miterlimit="10" stroke-dasharray=""/><path fill="none" stroke="rgb(0,0,0)" class="dcg-svg-minor-gridline" paint-order="fill stroke markers" d=" M 0 174.5 L 600 174.5" stroke-opacity="0.12" stroke-miterlimit="10" stroke-dasharray=""/><path fill="none" stroke="rgb(0,0,0)" class="dcg-svg-minor-gridline" paint-order="fill stroke markers" d=" M 0 149.5 L 600 149.5" stroke-opacity="0.12" stroke-miterlimit="10" stroke-dasharray=""/><path fill="none" stroke="rgb(0,0,0)" class="dcg-svg-minor-gridline" paint-order="fill stroke markers" d=" M 0 124.5 L 600 124.5" stroke-opacity="0.12" stroke-miterlimit="10" stroke-dasharray=""/><path fill="none" stroke="rgb(0,0,0)" class="dcg-svg-minor-gridline" paint-order="fill stroke markers" d=" M 0 99.5 L 600 99.5" stroke-opacity="0.12" stroke-miterlimit="10" stroke-dasharray=""/><path fill="none" stroke="rgb(0,0,0)" class="dcg-svg-minor-gridline" paint-order="fill stroke markers" d=" M 0 74.5 L 600 74.5" stroke-opacity="0.12" stroke-miterlimit="10" stroke-dasharray=""/><path fill="none" stroke="rgb(0,0,0)" class="dcg-svg-minor-gridline" paint-order="fill stroke markers" d=" M 0 49.5 L 600 49.5" stroke-opacity="0.12" stroke-miterlimit="10" stroke-dasharray=""/><path fill="none" stroke="rgb(0,0,0)" class="dcg-svg-minor-gridline" paint-order="fill stroke markers" d=" M 0 24.5 L 600 24.5" stroke-opacity="0.12" stroke-miterlimit="10" stroke-dasharray=""/><path fill="none" stroke="rgb(0,0,0)" class="dcg-svg-minor-gridline" paint-order="fill stroke markers" d=" M 0 -0.5 L 600 -0.5" stroke-opacity="0.12" stroke-miterlimit="10" stroke-dasharray=""/><path fill="none" stroke="rgb(0,0,0)" class="dcg-svg-major-gridline" paint-order="fill stroke markers" d=" M 156.5 0 L 156.5 400" stroke-opacity="0.31818181818181823" stroke-miterlimit="10" stroke-dasharray=""/><path fill="none" stroke="rgb(0,0,0)" class="dcg-svg-major-gridline" paint-order="fill stroke markers" d=" M 286.5 0 L 286.5 400" stroke-opacity="0.31818181818181823" stroke-miterlimit="10" stroke-dasharray=""/><path fill="none" stroke="rgb(0,0,0)" class="dcg-svg-major-gridline" paint-order="fill stroke markers" d=" M 416.5 0 L 416.5 400" stroke-opacity="0.31818181818181823" stroke-miterlimit="10" stroke-dasharray=""/><path fill="none" stroke="rgb(0,0,0)" class="dcg-svg-major-gridline" paint-order="fill stroke markers" d=" M 547.5 0 L 547.5 400" stroke-opacity="0.31818181818181823" stroke-miterlimit="10" stroke-dasharray=""/><path fill="none" stroke="rgb(0,0,0)" class="dcg-svg-major-gridline" paint-order="fill stroke markers" d=" M 0 249.5 L 600 249.5" stroke-opacity="0.31818181818181823" stroke-miterlimit="10" stroke-dasharray=""/><path fill="none" stroke="rgb(0,0,0)" class="dcg-svg-major-gridline" paint-order="fill stroke markers" d=" M 0 124.5 L 600 124.5" stroke-opacity="0.31818181818181823" stroke-miterlimit="10" stroke-dasharray=""/><path fill="none" stroke="rgb(0,0,0)" class="dcg-svg-major-gridline" paint-order="fill stroke markers" d=" M 0 -0.5 L 600 -0.5" stroke-opacity="0.31818181818181823" stroke-miterlimit="10" stroke-dasharray=""/></g></g><g id="axis-f2756bff"><g id="yaxis-f2756bff"><title>Y axis</title><path fill="none" stroke="rgb(0,0,0)" class="dcg-svg-axis-line" paint-order="fill stroke markers" d=" M 25.75 0 L 25.75 400" stroke-opacity="0.9" stroke-miterlimit="10" stroke-width="1.5" stroke-dasharray=""/></g><g id="xaxis-f2756bff"><title>X axis</title><path fill="none" stroke="rgb(0,0,0)" class="dcg-svg-axis-line" paint-order="fill stroke markers" d=" M 0 374.75 L 600 374.75" stroke-opacity="0.9" stroke-miterlimit="10" stroke-width="1.5" stroke-dasharray=""/></g><g/></g></g><g id="expressions-f2756bff"><g id="sketch-f2756bff"><title>Expression 1</title><path fill="#2d70b3" stroke="none" paint-order="stroke fill markers" d="" fill-opacity="0.4"/><g><path fill="none" stroke="#2d70b3" class="dcg-svg-curve" paint-order="fill stroke markers" d=" M 51.67391304347826 237.59523809523807 L 51.67391304347826 237.59523809523807 L 57.23857257417802 249.5469985345905 L 62.65679369617517 260.44855102139184 L 68.0750148181723 270.62354374516156 L 73.34679753146682 279.82543825138833 L 78.47214183605871 288.11084407702475 L 83.45104773194798 295.5348077630947 L 88.42995362783724 302.3422249568848 L 93.26242111502387 308.35886527674654 L 98.09488860221052 313.79270543614706 L 102.78091768069453 318.5041736224818 L 107.32050835047593 322.54355326797315 L 111.56722220285205 325.8535399228223 L 115.66749764652556 328.61821390548147 L 119.47489627279383 330.80498183811005 L 123.13585649035947 332.56105734940274 L 126.65037829922247 333.92610647482053 L 130.01846169938287 334.93829569152587 L 133.38654509954324 335.6595943411323 L 136.608190091001 336.07609115553487 L 139.82983508245877 336.2238548213578 L 143.0514800739165 336.1013445789462 L 146.2731250653743 335.70679406656586 L 149.49477005683207 335.0381684599045 L 152.71641504828978 334.0931114543278 L 155.93806003974757 332.86887916612125 L 159.30614343990794 331.2870056335912 L 162.82066524877095 329.30256943081145 L 166.4816254663366 326.8666128697266 L 170.28902409260485 323.92521127006853 L 174.24286112757574 320.418084451463 L 178.34313657124923 316.2764644011784 L 182.44341201492279 311.5971479915619 L 186.54368745859625 306.3476814129459 L 190.49752449356717 300.7040812667718 L 194.30492311983542 294.6770263040763 L 197.96588333740107 288.26647586606106 L 201.48040514626408 281.45819376447884 L 204.84848854642448 274.21856794976605 L 207.92369512917958 266.85807333458297 L 210.70602489452946 259.4179392609211 L 213.3419162511767 251.47877637252589 L 215.68493079041872 243.45029868717722 L 217.7350685122555 235.40362798151696 L 219.63876782538964 226.75028502361445 L 221.39602872982113 217.340210588876 L 223.00685122554998 206.9850137190245 L 224.47123531257628 195.45599568040657 L 225.78918099089987 182.4898400679904 L 226.9606882605209 167.8113850757378 L 227.98575712143926 151.1901647698317 L 228.864387573655 132.55612694426554 L 229.74301802587075 107.4017501678307 L 230.4752100693839 78.21171187784654 L 231.20740211289706 35.85253715507764 L 231.6807745387689 -5.5" stroke-linecap="round" stroke-linejoin="round" stroke-miterlimit="10" stroke-width="2.5" stroke-opacity="0.9" stroke-dasharray=""/></g></g><g id="sketch-f2756bff"><title>Expression 2</title><path fill="#388c46" stroke="none" class="dcg-svg-region" paint-order="stroke fill markers" d=" M 51.67391304347826 237.59523809523807 L 57.23857257417802 249.5469985345905 L 62.65679369617517 260.44855102139184 L 68.0750148181723 270.62354374516156 L 73.34679753146682 279.82543825138833 L 78.47214183605871 288.11084407702475 L 83.45104773194798 295.5348077630947 L 88.42995362783724 302.3422249568848 L 93.26242111502387 308.35886527674654 L 98.09488860221052 313.79270543614706 L 102.78091768069453 318.5041736224818 L 107.32050835047593 322.54355326797315 L 111.56722220285205 325.8535399228223 L 115.66749764652556 328.61821390548147 L 119.47489627279383 330.80498183811005 L 123.13585649035947 332.56105734940274 L 126.65037829922247 333.92610647482053 L 130.01846169938287 334.93829569152587 L 133.38654509954324 335.6595943411323 L 136.608190091001 336.07609115553487 L 139.82983508245877 336.2238548213578 L 143.0514800739165 336.1013445789462 L 146.2731250653743 335.70679406656586 L 149.49477005683207 335.0381684599045 L 152.71641504828978 334.0931114543278 L 155.93806003974757 332.86887916612125 L 159.30614343990794 331.2870056335912 L 162.82066524877095 329.30256943081145 L 166.4816254663366 326.8666128697266 L 170.28902409260485 323.92521127006853 L 174.24286112757574 320.418084451463 L 178.34313657124923 316.2764644011784 L 182.44341201492279 311.5971479915619 L 186.54368745859625 306.3476814129459 L 190.49752449356717 300.7040812667718 L 194.30492311983542 294.6770263040763 L 197.96588333740107 288.26647586606106 L 201.48040514626408 281.45819376447884 L 204.84848854642448 274.21856794976605 L 207.92369512917958 266.85807333458297 L 210.70602489452946 259.4179392609211 L 213.3419162511767 251.47877637252589 L 215.68493079041872 243.45029868717722 L 217.7350685122555 235.40362798151696 L 219.63876782538964 226.75028502361445 L 221.39602872982113 217.340210588876 L 223.00685122554998 206.9850137190245 L 224.47123531257628 195.45599568040657 L 225.78918099089987 182.4898400679904 L 226.9606882605209 167.8113850757378 L 227.98575712143926 151.1901647698317 L 228.864387573655 132.55612694426554 L 229.74301802587075 107.4017501678307 L 230.4752100693839 78.21171187784654 L 231.20740211289706 35.85253715507764 L 231.65215643825812 -3 L 234.26796025815213 -3 L 234.26796025815213 399.5 L 51.67391304347826 399.5 L 51.67391304347826 237.59523809523807" fill-opacity="0.4"/><path fill="#388c46" stroke="none" paint-order="stroke fill markers" d="" fill-opacity="0.4"/><path fill="#388c46" stroke="none" paint-order="stroke fill markers" d="" fill-opacity="0.4"/><path fill="#388c46" stroke="none" paint-order="stroke fill markers" d="" fill-opacity="0.4"/><path fill="#388c46" stroke="none" paint-order="stroke fill markers" d="" fill-opacity="0.4"/><g><path fill="none" stroke="#388c46" class="dcg-svg-curve" paint-order="fill stroke markers" d=" M 51.67391304347826 237.59523809523807 L 56.3168617554359 247.56735057244825 M 59.382176314132714 253.8599654947514 L 62.65679369617517 260.44855102139184 M 62.65679369617517 260.44855102139184 L 64.36884158600034 263.6636421794462 M 67.65896766647239 269.8422399471114 L 68.0750148181723 270.62354374516156 M 68.0750148181723 270.62354374516156 L 73.10311906230704 279.40009758607744 M 76.77146650315713 285.36160725051246 L 78.47214183605871 288.11084407702475 M 78.47214183605871 288.11084407702475 L 82.79843114495279 294.56170203583457 M 86.89176740056156 300.2391373328643 L 88.42995362783724 302.3422249568848 M 88.42995362783724 302.3422249568848 L 93.26242111502387 308.35886527674654 M 93.26242111502387 308.35886527674654 L 93.71257898466764 308.8650426936927 M 98.38089303132178 314.08026250127404 L 102.78091768069453 318.5041736224818 M 102.78091768069453 318.5041736224818 L 106.3373393262479 321.668718236925 M 111.81568815210446 326.0210719227846 L 115.66749764652556 328.61821390548147 M 115.66749764652556 328.61821390548147 L 119.47489627279383 330.80498183811005 M 119.47489627279383 330.80498183811005 L 121.24544313267543 331.65427104024775 M 127.7354830360837 334.2522062719914 L 130.01846169938287 334.93829569152587 M 130.01846169938287 334.93829569152587 L 133.38654509954324 335.6595943411323 M 133.38654509954324 335.6595943411323 L 136.608190091001 336.07609115553487 M 136.608190091001 336.07609115553487 L 138.529417633418 336.1642099970895 M 145.50737310260712 335.80057467556134 L 146.2731250653743 335.70679406656586 M 146.2731250653743 335.70679406656586 L 149.49477005683207 335.0381684599045 M 149.49477005683207 335.0381684599045 L 152.71641504828978 334.0931114543278 M 152.71641504828978 334.0931114543278 L 155.93806003974757 332.86887916612125 M 155.93806003974757 332.86887916612125 L 156.0597293406351 332.81173525846555 M 162.2784216649367 329.6087413247437 L 162.82066524877095 329.30256943081145 M 162.82066524877095 329.30256943081145 L 166.4816254663366 326.8666128697266 M 166.4816254663366 326.8666128697266 L 170.28902409260485 323.92521127006853 M 170.28902409260485 323.92521127006853 L 171.1633390604249 323.14967766956124 M 176.2715938384633 318.3688952719789 L 178.34313657124923 316.2764644011784 M 178.34313657124923 316.2764644011784 L 182.44341201492279 311.5971479915619 M 182.44341201492279 311.5971479915619 L 183.57234985964354 310.1518008273024 M 187.7905086203782 304.5680025772608 L 190.49752449356717 300.7040812667718 M 190.49752449356717 300.7040812667718 L 193.85269236071355 295.39290081804086 M 197.35639937883118 289.3337170884122 L 197.96588333740107 288.26647586606106 M 197.96588333740107 288.26647586606106 L 201.48040514626408 281.45819376447884 M 201.48040514626408 281.45819376447884 L 202.37005275998808 279.5459145643832 M 205.28193142592065 273.18112415707526 L 207.92369512917958 266.85807333458297 M 207.92369512917958 266.85807333458297 L 209.37636482805846 262.9735383455948 M 211.7155721825173 256.3772371687576 L 213.3419162511767 251.47877637252589 M 213.3419162511767 251.47877637252589 L 214.9776127310949 245.87396578809182 M 216.7898361815508 239.11360962056023 L 217.7350685122555 235.40362798151696 M 217.7350685122555 235.40362798151696 L 219.2759214475348 228.399618049554 M 220.6137451337346 221.52931355570647 L 221.39602872982113 217.340210588876 M 221.39602872982113 217.340210588876 L 222.43178919129295 210.68180873703443 M 223.417468945512 203.75224224714125 L 224.47123531257628 195.45599568040657 M 224.47123531257628 195.45599568040657 L 224.737909234918 192.83241594436294 M 225.4457773118194 185.86829914567957 L 225.78918099089987 182.4898400679904 M 225.78918099089987 182.4898400679904 L 226.39415336755204 174.90981044929444 M 226.95106190221804 167.93199898121821 L 226.9606882605209 167.8113850757378 M 226.9606882605209 167.8113850757378 L 227.63034904466255 156.9530126796899 M 228.04351077072832 149.96532253644133 L 228.56160614597587 138.97753034773723 M 228.88433631152236 131.98501303936396 L 229.2683269185126 120.99171729997155 M 229.51268457750638 113.99598364763094 L 229.74301802587075 107.4017501678307 M 229.74301802587075 107.4017501678307 L 229.85339503942944 103.0013892506964 M 230.02892521896115 96.00359037132915 L 230.30475835822523 85.00704927518062 M 230.4787102595481 78.00921696132541 L 230.66882042074286 67.01085989644474 M 230.78979961423045 60.01190540061159 L 230.9799097754252 49.013548335730924 M 231.10088896891276 42.01459383989777 L 231.20740211289706 35.85253715507764 M 231.20740211289706 35.85253715507764 L 231.26276904756617 31.015831217147827 M 231.34289447937772 24.016289809657117 L 231.46880587222446 13.01701045502886 M 231.54893130403602 6.017469047538151 L 231.67484269688276 -4.981810307090104" stroke-linecap="round" stroke-linejoin="round" stroke-miterlimit="10" stroke-width="2.5" stroke-opacity="0.9" stroke-dasharray=""/></g></g><g id="sketch-f2756bff"><title>Expression 3</title><path fill="#6042a6" stroke="none" paint-order="stroke fill markers" d="" fill-opacity="0.4"/><g><path fill="none" stroke="#6042a6" class="dcg-svg-curve" paint-order="fill stroke markers" d=" M 234.28260869565216 399.5 L 234.28260869565216 388.5 M 234.28260869565216 381.5 L 234.28260869565216 370.5 M 234.28260869565216 363.5 L 234.28260869565216 352.5 M 234.28260869565216 345.5 L 234.28260869565216 334.5 M 234.28260869565216 327.5 L 234.28260869565216 316.5 M 234.28260869565216 309.5 L 234.28260869565216 298.5 M 234.28260869565216 291.5 L 234.28260869565216 280.5 M 234.28260869565216 273.5 L 234.28260869565216 262.5 M 234.28260869565216 255.5 L 234.28260869565216 244.5 M 234.28260869565216 237.5 L 234.28260869565216 226.5 M 234.28260869565216 219.5 L 234.28260869565216 208.5 M 234.28260869565216 201.5 L 234.28260869565216 190.5 M 234.28260869565216 183.5 L 234.28260869565216 172.5 M 234.28260869565216 165.5 L 234.28260869565216 154.5 M 234.28260869565216 147.5 L 234.28260869565216 136.5 M 234.28260869565216 129.5 L 234.28260869565216 118.5 M 234.28260869565216 111.5 L 234.28260869565216 100.5 M 234.28260869565216 93.5 L 234.28260869565216 82.5 M 234.28260869565216 75.5 L 234.28260869565216 64.5 M 234.28260869565216 57.5 L 234.28260869565216 46.5 M 234.28260869565216 39.5 L 234.28260869565216 28.5 M 234.28260869565216 21.5 L 234.28260869565216 10.5 M 234.28260869565216 3.5 L 234.28260869565216 -0.5" stroke-linecap="round" stroke-linejoin="round" stroke-miterlimit="10" stroke-width="2.5" stroke-opacity="0.9" stroke-dasharray=""/></g></g></g><g id="labels-f2756bff"/></g></svg>