<svg version="1.1" xmlns="http://www.w3.org/2000/svg" xmlns:xlink="http://www.w3.org/1999/xlink" width="600" height="400"><defs/><g transform="scale(1,1)"><g id="background-3e2bc489"><rect fill="white" stroke="none" x="0" y="0" width="600" height="400" class="dcg-svg-background"/></g><g id="background-images-3e2bc489"/><g id="graphpaper-3e2bc489"><g id="grid-3e2bc489"><g><path fill="none" stroke="rgb(0,0,0)" class="dcg-svg-minor-gridline" paint-order="fill stroke markers" d=" M -0.5 0 L -0.5 400" stroke-opacity="0.12" stroke-miterlimit="10" stroke-dasharray=""/><path fill="none" stroke="rgb(0,0,0)" class="dcg-svg-minor-gridline" paint-order="fill stroke markers" d=" M 29.5 0 L 29.5 400" stroke-opacity="0.12" stroke-miterlimit="10" stroke-dasharray=""/><path fill="none" stroke="rgb(0,0,0)" class="dcg-svg-minor-gridline" paint-order="fill stroke markers" d=" M 59.5 0 L 59.5 400" stroke-opacity="0.12" stroke-miterlimit="10" stroke-dasharray=""/><path fill="none" stroke="rgb(0,0,0)" class="dcg-svg-minor-gridline" paint-order="fill stroke markers" d=" M 89.5 0 L 89.5 400" stroke-opacity="0.12" stroke-miterlimit="10" stroke-dasharray=""/><path fill="none" stroke="rgb(0,0,0)" class="dcg-svg-minor-gridline" paint-order="fill stroke markers" d=" M 119.5 0 L 119.5 400" stroke-opacity="0.12" stroke-miterlimit="10" stroke-dasharray=""/><path fill="none" stroke="rgb(0,0,0)" class="dcg-svg-minor-gridline" paint-order="fill stroke markers" d=" M 149.5 0 L 149.5 400" stroke-opacity="0.12" stroke-miterlimit="10" stroke-dasharray=""/><path fill="none" stroke="rgb(0,0,0)" class="dcg-svg-minor-gridline" paint-order="fill stroke markers" d=" M 179.5 0 L 179.5 400" stroke-opacity="0.12" stroke-miterlimit="10" stroke-dasharray=""/><path fill="none" stroke="rgb(0,0,0)" class="dcg-svg-minor-gridline" paint-order="fill stroke markers" d=" M 209.5 0 L 209.5 400" stroke-opacity="0.12" stroke-miterlimit="10" stroke-dasharray=""/><path fill="none" stroke="rgb(0,0,0)" class="dcg-svg-minor-gridline" paint-order="fill stroke markers" d=" M 239.5 0 L 239.5 400" stroke-opacity="0.12" stroke-miterlimit="10" stroke-dasharray=""/><path fill="none" stroke="rgb(0,0,0)" class="dcg-svg-minor-gridline" paint-order="fill stroke markers" d=" M 269.5 0 L 269.5 400" stroke-opacity="0.12" stroke-miterlimit="10" stroke-dasharray=""/><path fill="none" stroke="rgb(0,0,0)" class="dcg-svg-minor-gridline" paint-order="fill stroke markers" d=" M 329.5 0 L 329.5 400" stroke-opacity="0.12" stroke-miterlimit="10" stroke-dasharray=""/><path fill="none" stroke="rgb(0,0,0)" class="dcg-svg-minor-gridline" paint-order="fill stroke markers" d=" M 359.5 0 L 359.5 400" stroke-opacity="0.12" stroke-miterlimit="10" stroke-dasharray=""/><path fill="none" stroke="rgb(0,0,0)" class="dcg-svg-minor-gridline" paint-order="fill stroke markers" d=" M 389.5 0 L 389.5 400" stroke-opacity="0.12" stroke-miterlimit="10" stroke-dasharray=""/><path fill="none" stroke="rgb(0,0,0)" class="dcg-svg-minor-gridline" paint-order="fill stroke markers" d=" M 419.5 0 L 419.5 400" stroke-opacity="0.12" stroke-miterlimit="10" stroke-dasharray=""/><path fill="none" stroke="rgb(0,0,0)" class="dcg-svg-minor-gridline" paint-order="fill stroke markers" d=" M 449.5 0 L 449.5 400" stroke-opacity="0.12" stroke-miterlimit="10" stroke-dasharray=""/><path fill="none" stroke="rgb(0,0,0)" class="dcg-svg-minor-gridline" paint-order="fill stroke markers" d=" M 479.5 0 L 479.5 400" stroke-opacity="0.12" stroke-miterlimit="10" stroke-dasharray=""/><path fill="none" stroke="rgb(0,0,0)" class="dcg-svg-minor-gridline" paint-order="fill stroke markers" d=" M 509.5 0 L 509.5 400" stroke-opacity="0.12" stroke-miterlimit="10" stroke-dasharray=""/><path fill="none" stroke="rgb(0,0,0)" class="dcg-svg-minor-gridline" paint-order="fill stroke markers" d=" M 539.5 0 L 539.5 400" stroke-opacity="0.12" stroke-miterlimit="10" stroke-dasharray=""/><path fill="none" stroke="rgb(0,0,0)" class="dcg-svg-minor-gridline" paint-order="fill stroke markers" d=" M 569.5 0 L 569.5 400" stroke-opacity="0.12" stroke-miterlimit="10" stroke-dasharray=""/><path fill="none" stroke="rgb(0,0,0)" class="dcg-svg-minor-gridline" paint-order="fill stroke markers" d=" M 0 355.5 L 600 355.5" stroke-opacity="0.12" stroke-miterlimit="10" stroke-dasharray=""/><path fill="none" stroke="rgb(0,0,0)" class="dcg-svg-minor-gridline" paint-order="fill stroke markers" d=" M 0 310.5 L 600 310.5" stroke-opacity="0.12" stroke-miterlimit="10" stroke-dasharray=""/><path fill="none" stroke="rgb(0,0,0)" class="dcg-svg-minor-gridline" paint-order="fill stroke markers" d=" M 0 266.5 L 600 266.5" stroke-opacity="0.12" stroke-miterlimit="10" stroke-dasharray=""/><path fill="none" stroke="rgb(0,0,0)" class="dcg-svg-minor-gridline" paint-order="fill stroke markers" d=" M 0 221.5 L 600 221.5" stroke-opacity="0.12" stroke-miterlimit="10" stroke-dasharray=""/><path fill="none" stroke="rgb(0,0,0)" class="dcg-svg-minor-gridline" paint-order="fill stroke markers" d=" M 0 177.5 L 600 177.5" stroke-opacity="0.12" stroke-miterlimit="10" stroke-dasharray=""/><path fill="none" stroke="rgb(0,0,0)" class="dcg-svg-minor-gridline" paint-order="fill stroke markers" d=" M 0 132.5 L 600 132.5" stroke-opacity="0.12" stroke-miterlimit="10" stroke-dasharray=""/><path fill="none" stroke="rgb(0,0,0)" class="dcg-svg-minor-gridline" paint-order="fill stroke markers" d=" M 0 43.5 L 600 43.5" stroke-opacity="0.12" stroke-miterlimit="10" stroke-dasharray=""/><path fill="none" stroke="rgb(0,0,0)" class="dcg-svg-minor-gridline" paint-order="fill stroke markers" d=" M 0 -0.5 L 600 -0.5" stroke-opacity="0.12" stroke-miterlimit="10" stroke-dasharray=""/><path fill="none" stroke="rgb(0,0,0)" class="dcg-svg-major-gridline" paint-order="fill stroke markers" d=" M -0.5 0 L -0.5 400" stroke-opacity="0.31818181818181823" stroke-miterlimit="10" stroke-dasharray=""/><path fill="none" stroke="rgb(0,0,0)" class="dcg-svg-major-gridline" paint-order="fill stroke markers" d=" M 149.5 0 L 149.5 400" stroke-opacity="0.31818181818181823" stroke-miterlimit="10" stroke-dasharray=""/><path fill="none" stroke="rgb(0,0,0)" class="dcg-svg-major-gridline" paint-order="fill stroke markers" d=" M 449.5 0 L 449.5 400" stroke-opacity="0.31818181818181823" stroke-miterlimit="10" stroke-dasharray=""/><path fill="none" stroke="rgb(0,0,0)" class="dcg-svg-major-gridline" paint-order="fill stroke markers" d=" M 0 310.5 L 600 310.5" stroke-opacity="0.31818181818181823" stroke-miterlimit="10" stroke-dasharray=""/></g></g><g id="axis-3e2bc489"><g id="yaxis-3e2bc489"><title>Y axis</title><path fill="none" stroke="rgb(0,0,0)" class="dcg-svg-axis-line" paint-order="fill stroke markers" d=" M 299.75 0 L 299.75 400" stroke-opacity="0.9" stroke-miterlimit="10" stroke-width="1.5" stroke-dasharray=""/></g><g id="xaxis-3e2bc489"><title>X axis</title><path fill="none" stroke="rgb(0,0,0)" class="dcg-svg-axis-line" paint-order="fill stroke markers" d=" M 0 88.75 L 600 88.75" stroke-opacity="0.9" stroke-miterlimit="10" stroke-width="1.5" stroke-dasharray=""/></g><g><g class="dcg-svg-axis-value"><text fill="none" stroke="#ffffff" font-family="Arial" font-size="14px" font-style="normal" font-weight="normal" text-decoration="normal" x="291.10693359375" y="104.69688888888892" text-anchor="middle" stroke-miterlimit="2" stroke-width="3" stroke-dasharray="">0</text><text fill="#000000" stroke="none" font-family="Arial" font-size="14px" font-style="normal" font-weight="normal" text-decoration="normal" x="291.10693359375" y="104.69688888888892" text-anchor="middle">0</text></g><g class="dcg-svg-axis-value dcg-svg-offcenter-axis-value"><text fill="none" stroke="#ffffff" font-family="Arial" font-size="14px" font-style="normal" font-weight="normal" text-decoration="normal" x="13.1171875" y="104.69688888888892" text-anchor="middle" stroke-miterlimit="2" stroke-width="3" stroke-dasharray="">-10</text><text fill="#000000" stroke="none" font-family="Arial" font-size="14px" font-style="normal" font-weight="normal" text-decoration="normal" x="13.1171875" y="104.69688888888892" text-anchor="middle">-10</text></g><g class="dcg-svg-axis-value"><text fill="none" stroke="#ffffff" font-family="Arial" font-size="14px" font-style="normal" font-weight="normal" text-decoration="normal" x="147.6689453125" y="104.69688888888892" text-anchor="middle" stroke-miterlimit="2" stroke-width="3" stroke-dasharray="">-5</text><text fill="#000000" stroke="none" font-family="Arial" font-size="14px" font-style="normal" font-weight="normal" text-decoration="normal" x="147.6689453125" y="104.69688888888892" text-anchor="middle">-5</text></g><g class="dcg-svg-axis-value"><text fill="none" stroke="#ffffff" font-family="Arial" font-size="14px" font-style="normal" font-weight="normal" text-decoration="normal" x="450" y="104.69688888888892" text-anchor="middle" stroke-miterlimit="2" stroke-width="3" stroke-dasharray="">5</text><text fill="#000000" stroke="none" font-family="Arial" font-size="14px" font-style="normal" font-weight="normal" text-decoration="normal" x="450" y="104.69688888888892" text-anchor="middle">5</text></g><g class="dcg-svg-axis-value dcg-svg-offcenter-axis-value"><text fill="none" stroke="#ffffff" font-family="Arial" font-size="14px" font-style="normal" font-weight="normal" text-decoration="normal" x="589.2138671875" y="104.69688888888892" text-anchor="middle" stroke-miterlimit="2" stroke-width="3" stroke-dasharray="">10</text><text fill="#000000" stroke="none" font-family="Arial" font-size="14px" font-style="normal" font-weight="normal" text-decoration="normal" x="589.2138671875" y="104.69688888888892" text-anchor="middle">10</text></g><g class="dcg-svg-axis-value"><text fill="none" stroke="#ffffff" font-family="Arial" font-size="14px" font-style="normal" font-weight="normal" text-decoration="normal" x="288.77587890625" y="314.91911111111114" text-anchor="middle" stroke-miterlimit="2" stroke-width="3" stroke-dasharray="">-5</text><text fill="#000000" stroke="none" font-family="Arial" font-size="14px" font-style="normal" font-weight="normal" text-decoration="normal" x="288.77587890625" y="314.91911111111114" text-anchor="middle">-5</text></g></g></g></g><g id="expressions-3e2bc489"><g id="sketch-3e2bc489"><title>Expression 1</title><path fill="#2d70b3" stroke="none" paint-order="stroke fill markers" d="" fill-opacity="0.4"/><g><path fill="none" stroke="#2d70b3" class="dcg-svg-curve" paint-order="fill stroke markers" d=" M -0.5 64.21017284936136 L -0.5 64.21017284936136 L 3.748046875 69.71515766897448 L 8.875 76.8462156596475 L 16.4921875 87.99708110933597 L 26.599609375 102.71081464467682 L 31.7265625 109.65754792561364 L 35.974609375 114.95223141812625 L 39.63671875 119.09347897129987 L 43.005859375 122.50117200940167 L 46.08203125 125.23818298230475 L 48.865234375 127.38167444998072 L 51.501953125 129.10325993305997 L 54.138671875 130.51053899804714 L 56.62890625 131.5412147920486 L 58.97265625 132.2399072599797 L 61.31640625 132.67109045589547 L 63.66015625 132.8321339847189 L 66.00390625 132.72205541459869 L 68.34765625 132.34152627014828 L 70.69140625 131.69286793586883 L 73.03515625 130.78003749474817 L 75.525390625 129.5269573466877 L 78.162109375 127.89160596013136 L 80.798828125 125.95130187041025 L 83.728515625 123.45604256999752 L 86.8046875 120.47685051225864 L 90.173828125 116.82839800997755 L 93.8359375 112.45791435335349 L 98.083984375 106.9440227254903 L 103.2109375 99.8053896523374 L 110.974609375 88.43308356251293 L 120.7890625 74.14879039540256 L 125.916015625 67.19614308856768 L 130.1640625 61.894874411843944 L 133.826171875 57.74683050884374 L 137.1953125 54.33206026252344 L 140.271484375 51.58797488042802 L 143.201171875 49.33359823693763 L 145.837890625 47.62231998936136 L 148.474609375 46.22575111638935 L 150.96484375 45.205486022947014 L 153.30859375 44.51678866024628 L 155.65234375 44.095729177574526 L 157.99609375 43.9448762111885 L 160.33984375 44.065150026311585 L 162.68359375 44.45581690313708 L 165.02734375 45.11449361282098 L 167.37109375 46.03716195615954 L 169.861328125 47.30043002587098 L 172.498046875 48.9461947978192 L 175.28125 51.01343264593186 L 178.2109375 53.536374980737264 L 181.287109375 56.542428457946585 L 184.65625 60.217380154943726 L 188.46484375 64.79646026239504 L 192.712890625 70.34830919139381 L 197.986328125 77.72953303418507 L 206.3359375 89.994046557165 L 215.125 102.75264475554167 L 220.251953125 109.6963431235971 L 224.5 114.98765084906472 L 228.162109375 119.12541631851167 L 231.53125 122.52948469795979 L 234.607421875 125.26287342368175 L 237.390625 127.40286302609445 L 240.02734375 129.1209623431718 L 242.6640625 130.52461858325813 L 245.154296875 131.55177253220614 L 247.498046875 132.24708346605524 L 249.841796875 132.67484135007635 L 252.185546875 132.83243668500586 L 254.529296875 132.7189080743953 L 256.873046875 132.33494808952594 L 259.216796875 131.6828990444386 L 261.560546875 130.76673870685352 L 264.05078125 129.51020989154887 L 266.6875 127.87133317432324 L 269.32421875 125.92766025559393 L 272.25390625 123.42887294805269 L 275.330078125 120.4462556981864 L 278.69921875 116.79442178423398 L 282.361328125 112.4207494693689 L 286.609375 106.9038546792018 L 291.736328125 99.76267225895447 L 299.5 88.38888888888891 L 309.314453125 74.1069326347374 L 314.44140625 67.15730680793752 L 318.689453125 61.85940365898762 L 322.3515625 57.71483383026987 L 325.720703125 54.30368165120046 L 328.796875 51.563213221507965 L 331.7265625 49.31252372324593 L 334.36328125 47.60473665213391 L 336.853515625 46.28072654465535 L 339.34375 45.246687622817944 L 341.6875 44.5447657460785 L 344.03125 44.1103110776221 L 346.375 43.94597396985563 L 348.71875 44.052756946818306 L 351.0625 44.430008588372345 L 353.40625 45.07542750413393 L 355.75 45.98507637290254 L 358.240234375 47.234861184152805 L 360.876953125 48.86684365174273 L 363.513671875 50.80392803189045 L 366.443359375 53.29581506278299 L 369.51953125 56.27173261343745 L 372.888671875 59.916951809931845 L 376.55078125 64.2843856128809 L 380.798828125 69.79540351772101 L 385.92578125 76.93159485363441 L 393.689453125 88.30247933933578 L 403.50390625 102.58899154510135 L 408.630859375 109.5445185612337 L 412.87890625 114.84899710772436 L 416.541015625 119.00035562934255 L 419.91015625 122.4185787139632 L 422.986328125 125.16611648872407 L 425.916015625 127.42401302549723 L 428.552734375 129.13862447772948 L 431.189453125 130.53865650499085 L 433.6796875 131.56228759324364 L 436.0234375 132.2542163054926 L 438.3671875 132.67854845465547 L 440.7109375 132.83269543986205 L 443.0546875 132.7157169010173 L 445.3984375 132.32832645538576 L 447.7421875 131.67288734423153 L 450.0859375 130.75339801607402 L 452.576171875 129.493421775971 L 455.212890625 127.8510213485846 L 457.849609375 125.90398152273542 L 460.779296875 123.40166867884699 L 463.85546875 120.41562918604177 L 467.224609375 116.76041747132274 L 470.88671875 112.38356082286947 L 475.134765625 106.86366832546071 L 480.26171875 99.71994361926386 L 488.025390625 88.34469421526484 L 497.83984375 74.06508899595838 L 502.966796875 67.11849152092884 L 507.21484375 61.82395913827776 L 510.876953125 57.68286748196056 L 514.24609375 54.27533674306255 L 517.322265625 51.53848797552649 L 520.10546875 49.39515333310908 L 522.7421875 47.673723980945 L 525.37890625 46.26660717533508 L 527.869140625 45.23608912515448 L 530.212890625 44.53754812265504 L 532.556640625 44.10651835891406 L 534.900390625 43.945629293009176 L 537.244140625 44.05586241450419 L 539.587890625 44.43654525595866 L 541.931640625 45.085355495256294 L 544.275390625 45.9983351227263 L 546.765625 47.251569784825335 L 549.40234375 48.887079127745096 L 552.0390625 50.82753416958553 L 554.96875 53.32295156444843 L 558.044921875 56.30229712114351 L 561.4140625 59.95090117533664 L 565.076171875 64.32152776450698 L 569.32421875 69.83555403957365 L 574.451171875 76.97430146505968 L 582.21484375 88.34667397215298 L 592.029296875 102.63086275639557 L 597.15625 109.58337485919003 L 599.5 112.56760492841642" stroke-linecap="round" stroke-linejoin="round" stroke-miterlimit="10" stroke-width="2.5" stroke-opacity="0.9" stroke-dasharray=""/></g></g></g><g id="labels-3e2bc489"/></g></svg>