<svg version="1.1" xmlns="http://www.w3.org/2000/svg" xmlns:xlink="http://www.w3.org/1999/xlink" width="600" height="400"><defs/><g transform="scale(1,1)"><g id="background-076389f3"><rect fill="white" stroke="none" x="0" y="0" width="600" height="400" class="dcg-svg-background"/></g><g id="background-images-076389f3"/><g id="graphpaper-076389f3"><g id="grid-076389f3"><g><path fill="none" stroke="rgb(0,0,0)" class="dcg-svg-minor-gridline" paint-order="fill stroke markers" d=" M -0.5 0 L -0.5 400" stroke-opacity="0.12" stroke-miterlimit="10" stroke-dasharray=""/><path fill="none" stroke="rgb(0,0,0)" class="dcg-svg-minor-gridline" paint-order="fill stroke markers" d=" M 29.5 0 L 29.5 400" stroke-opacity="0.12" stroke-miterlimit="10" stroke-dasharray=""/><path fill="none" stroke="rgb(0,0,0)" class="dcg-svg-minor-gridline" paint-order="fill stroke markers" d=" M 59.5 0 L 59.5 400" stroke-opacity="0.12" stroke-miterlimit="10" stroke-dasharray=""/><path fill="none" stroke="rgb(0,0,0)" class="dcg-svg-minor-gridline" paint-order="fill stroke markers" d=" M 89.5 0 L 89.5 400" stroke-opacity="0.12" stroke-miterlimit="10" stroke-dasharray=""/><path fill="none" stroke="rgb(0,0,0)" class="dcg-svg-minor-gridline" paint-order="fill stroke markers" d=" M 119.5 0 L 119.5 400" stroke-opacity="0.12" stroke-miterlimit="10" stroke-dasharray=""/><path fill="none" stroke="rgb(0,0,0)" class="dcg-svg-minor-gridline" paint-order="fill stroke markers" d=" M 149.5 0 L 149.5 400" stroke-opacity="0.12" stroke-miterlimit="10" stroke-dasharray=""/><path fill="none" stroke="rgb(0,0,0)" class="dcg-svg-minor-gridline" paint-order="fill stroke markers" d=" M 179.5 0 L 179.5 400" stroke-opacity="0.12" stroke-miterlimit="10" stroke-dasharray=""/><path fill="none" stroke="rgb(0,0,0)" class="dcg-svg-minor-gridline" paint-order="fill stroke markers" d=" M 209.5 0 L 209.5 400" stroke-opacity="0.12" stroke-miterlimit="10" stroke-dasharray=""/><path fill="none" stroke="rgb(0,0,0)" class="dcg-svg-minor-gridline" paint-order="fill stroke markers" d=" M 239.5 0 L 239.5 400" stroke-opacity="0.12" stroke-miterlimit="10" stroke-dasharray=""/><path fill="none" stroke="rgb(0,0,0)" class="dcg-svg-minor-gridline" paint-order="fill stroke markers" d=" M 269.5 0 L 269.5 400" stroke-opacity="0.12" stroke-miterlimit="10" stroke-dasharray=""/><path fill="none" stroke="rgb(0,0,0)" class="dcg-svg-minor-gridline" paint-order="fill stroke markers" d=" M 329.5 0 L 329.5 400" stroke-opacity="0.12" stroke-miterlimit="10" stroke-dasharray=""/><path fill="none" stroke="rgb(0,0,0)" class="dcg-svg-minor-gridline" paint-order="fill stroke markers" d=" M 359.5 0 L 359.5 400" stroke-opacity="0.12" stroke-miterlimit="10" stroke-dasharray=""/><path fill="none" stroke="rgb(0,0,0)" class="dcg-svg-minor-gridline" paint-order="fill stroke markers" d=" M 389.5 0 L 389.5 400" stroke-opacity="0.12" stroke-miterlimit="10" stroke-dasharray=""/><path fill="none" stroke="rgb(0,0,0)" class="dcg-svg-minor-gridline" paint-order="fill stroke markers" d=" M 419.5 0 L 419.5 400" stroke-opacity="0.12" stroke-miterlimit="10" stroke-dasharray=""/><path fill="none" stroke="rgb(0,0,0)" class="dcg-svg-minor-gridline" paint-order="fill stroke markers" d=" M 449.5 0 L 449.5 400" stroke-opacity="0.12" stroke-miterlimit="10" stroke-dasharray=""/><path fill="none" stroke="rgb(0,0,0)" class="dcg-svg-minor-gridline" paint-order="fill stroke markers" d=" M 479.5 0 L 479.5 400" stroke-opacity="0.12" stroke-miterlimit="10" stroke-dasharray=""/><path fill="none" stroke="rgb(0,0,0)" class="dcg-svg-minor-gridline" paint-order="fill stroke markers" d=" M 509.5 0 L 509.5 400" stroke-opacity="0.12" stroke-miterlimit="10" stroke-dasharray=""/><path fill="none" stroke="rgb(0,0,0)" class="dcg-svg-minor-gridline" paint-order="fill stroke markers" d=" M 539.5 0 L 539.5 400" stroke-opacity="0.12" stroke-miterlimit="10" stroke-dasharray=""/><path fill="none" stroke="rgb(0,0,0)" class="dcg-svg-minor-gridline" paint-order="fill stroke markers" d=" M 569.5 0 L 569.5 400" stroke-opacity="0.12" stroke-miterlimit="10" stroke-dasharray=""/><path fill="none" stroke="rgb(0,0,0)" class="dcg-svg-minor-gridline" paint-order="fill stroke markers" d=" M 0 394.5 L 600 394.5" stroke-opacity="0.12" stroke-miterlimit="10" stroke-dasharray=""/><path fill="none" stroke="rgb(0,0,0)" class="dcg-svg-minor-gridline" paint-order="fill stroke markers" d=" M 0 364.5 L 600 364.5" stroke-opacity="0.12" stroke-miterlimit="10" stroke-dasharray=""/><path fill="none" stroke="rgb(0,0,0)" class="dcg-svg-minor-gridline" paint-order="fill stroke markers" d=" M 0 334.5 L 600 334.5" stroke-opacity="0.12" stroke-miterlimit="10" stroke-dasharray=""/><path fill="none" stroke="rgb(0,0,0)" class="dcg-svg-minor-gridline" paint-order="fill stroke markers" d=" M 0 304.5 L 600 304.5" stroke-opacity="0.12" stroke-miterlimit="10" stroke-dasharray=""/><path fill="none" stroke="rgb(0,0,0)" class="dcg-svg-minor-gridline" paint-order="fill stroke markers" d=" M 0 274.5 L 600 274.5" stroke-opacity="0.12" stroke-miterlimit="10" stroke-dasharray=""/><path fill="none" stroke="rgb(0,0,0)" class="dcg-svg-minor-gridline" paint-order="fill stroke markers" d=" M 0 244.5 L 600 244.5" stroke-opacity="0.12" stroke-miterlimit="10" stroke-dasharray=""/><path fill="none" stroke="rgb(0,0,0)" class="dcg-svg-minor-gridline" paint-order="fill stroke markers" d=" M 0 214.5 L 600 214.5" stroke-opacity="0.12" stroke-miterlimit="10" stroke-dasharray=""/><path fill="none" stroke="rgb(0,0,0)" class="dcg-svg-minor-gridline" paint-order="fill stroke markers" d=" M 0 154.5 L 600 154.5" stroke-opacity="0.12" stroke-miterlimit="10" stroke-dasharray=""/><path fill="none" stroke="rgb(0,0,0)" class="dcg-svg-minor-gridline" paint-order="fill stroke markers" d=" M 0 124.5 L 600 124.5" stroke-opacity="0.12" stroke-miterlimit="10" stroke-dasharray=""/><path fill="none" stroke="rgb(0,0,0)" class="dcg-svg-minor-gridline" paint-order="fill stroke markers" d=" M 0 94.5 L 600 94.5" stroke-opacity="0.12" stroke-miterlimit="10" stroke-dasharray=""/><path fill="none" stroke="rgb(0,0,0)" class="dcg-svg-minor-gridline" paint-order="fill stroke markers" d=" M 0 64.5 L 600 64.5" stroke-opacity="0.12" stroke-miterlimit="10" stroke-dasharray=""/><path fill="none" stroke="rgb(0,0,0)" class="dcg-svg-minor-gridline" paint-order="fill stroke markers" d=" M 0 34.5 L 600 34.5" stroke-opacity="0.12" stroke-miterlimit="10" stroke-dasharray=""/><path fill="none" stroke="rgb(0,0,0)" class="dcg-svg-minor-gridline" paint-order="fill stroke markers" d=" M 0 4.5 L 600 4.5" stroke-opacity="0.12" stroke-miterlimit="10" stroke-dasharray=""/><path fill="none" stroke="rgb(0,0,0)" class="dcg-svg-major-gridline" paint-order="fill stroke markers" d=" M -0.5 0 L -0.5 400" stroke-opacity="0.31818181818181823" stroke-miterlimit="10" stroke-dasharray=""/><path fill="none" stroke="rgb(0,0,0)" class="dcg-svg-major-gridline" paint-order="fill stroke markers" d=" M 149.5 0 L 149.5 400" stroke-opacity="0.31818181818181823" stroke-miterlimit="10" stroke-dasharray=""/><path fill="none" stroke="rgb(0,0,0)" class="dcg-svg-major-gridline" paint-order="fill stroke markers" d=" M 449.5 0 L 449.5 400" stroke-opacity="0.31818181818181823" stroke-miterlimit="10" stroke-dasharray=""/><path fill="none" stroke="rgb(0,0,0)" class="dcg-svg-major-gridline" paint-order="fill stroke markers" d=" M 0 334.5 L 600 334.5" stroke-opacity="0.31818181818181823" stroke-miterlimit="10" stroke-dasharray=""/><path fill="none" stroke="rgb(0,0,0)" class="dcg-svg-major-gridline" paint-order="fill stroke markers" d=" M 0 34.5 L 600 34.5" stroke-opacity="0.31818181818181823" stroke-miterlimit="10" stroke-dasharray=""/></g></g><g id="axis-076389f3"><g id="yaxis-076389f3"><title>Y axis</title><path fill="none" stroke="rgb(0,0,0)" class="dcg-svg-axis-line" paint-order="fill stroke markers" d=" M 299.75 0 L 299.75 400" stroke-opacity="0.9" stroke-miterlimit="10" stroke-width="1.5" stroke-dasharray=""/></g><g id="xaxis-076389f3"><title>X axis</title><path fill="none" stroke="rgb(0,0,0)" class="dcg-svg-axis-line" paint-order="fill stroke markers" d=" M 0 184.75 L 600 184.75" stroke-opacity="0.9" stroke-miterlimit="10" stroke-width="1.5" stroke-dasharray=""/></g><g/></g></g><g id="expressions-076389f3"><g id="sketch-076389f3"><title>Expression 1</title><path fill="#2d70b3" stroke="none" paint-order="stroke fill markers" d="" fill-opacity="0.4"/><g><path fill="none" stroke="#2d70b3" class="dcg-svg-curve" paint-order="fill stroke markers" d=" M -0.5 124.49999999999994 L -0.5 124.49999999999994 L 4.041015625 112.3576432305266 L 8.435546875 101.48356497686228 L 12.830078125 91.44063456708074 L 17.224609375 82.19858629124371 L 21.47265625 73.99786886877519 L 25.720703125 66.49116355694906 L 29.96875 59.652358375489655 L 34.216796875 53.45574338682246 L 38.46484375 47.87601069607439 L 42.712890625 42.88825445107375 L 47.107421875 38.325375960740814 L 51.501953125 34.34310908253008 L 55.75 31.020843505859375 L 59.8515625 28.28287291605369 L 63.806640625 26.06024642679705 L 67.615234375 24.29024955424336 L 71.423828125 22.867423542921927 L 75.232421875 21.776082837933586 L 79.041015625 21.00080164516055 L 82.849609375 20.526413931266973 L 86.8046875 20.3362789380771 L 90.759765625 20.43815832300544 L 94.861328125 20.8350419895591 L 99.109375 21.540145879145655 L 103.650390625 22.603319224773543 L 108.337890625 24.012431062120697 L 113.318359375 25.829274517465308 L 118.73828125 28.147663608126095 L 124.59765625 31.013589734231516 L 131.04296875 34.546218332126955 L 138.07421875 38.78953953231934 L 146.130859375 44.062781706971975 L 155.65234375 50.72796598311652 L 168.396484375 60.122428614223566 L 202.673828125 85.61721766702368 L 213.3671875 92.9846697164175 L 222.595703125 98.91842700673925 L 230.9453125 103.87811413066805 L 238.5625 108.01775109767914 L 245.740234375 111.54951819341602 L 252.625 114.5758266448974 L 259.216796875 117.12278769229789 L 265.515625 119.22168128704652 L 271.66796875 120.944653419303 L 277.673828125 122.30620264992586 L 283.533203125 123.3230719892357 L 289.24609375 124.0137974053705 L 294.958984375 124.40455510065595 L 300.525390625 124.49513234421045 L 306.091796875 124.2989314461932 L 311.8046875 123.80022857370199 L 317.517578125 123.00249000665764 L 323.23046875 121.90920565614027 L 329.08984375 120.48592111738066 L 335.095703125 118.71659252867295 L 341.248046875 116.58728141830699 L 347.693359375 114.02471606649789 L 354.431640625 110.9985367192815 L 361.462890625 107.48328228507609 L 368.93359375 103.37603483263769 L 376.990234375 98.55507105973754 L 385.779296875 92.88705466608127 L 395.740234375 86.03248891310733 L 407.751953125 77.31168811935402 L 428.69921875 61.553398110720025 L 444.2265625 50.096995944943046 L 454.333984375 43.07567205748575 L 462.68359375 37.69433417970686 L 470.0078125 33.3823078454879 L 476.453125 29.97068737214431 L 482.3125 27.230807662010136 L 487.732421875 25.043068497071943 L 492.859375 23.314035987015757 L 497.546875 22.050347668584493 L 502.087890625 21.139245076457257 L 506.3359375 20.586599528644 L 510.4375 20.34647119045252 L 514.392578125 20.404815684488597 L 518.201171875 20.745372769598703 L 522.009765625 21.379911237519423 L 525.818359375 22.323477231995014 L 529.626953125 23.59137665755162 L 533.435546875 25.19917517949699 L 537.244140625 27.1626982239207 L 541.052734375 29.4980309776941 L 545.0078125 32.33424398614437 L 549.109375 35.737525229807886 L 553.357421875 39.78051527858162 L 557.751953125 44.54283586730651 L 562 49.73193359375 L 566.248046875 55.52155057577812 L 570.49609375 61.93673130097699 L 574.744140625 69.0029222996339 L 578.9921875 76.74597214473755 L 583.240234375 85.19213145197801 L 587.48828125 94.3680528797467 L 591.736328125 104.30079112913637 L 596.130859375 115.40167910331678 L 599.5 124.49999999999994" stroke-linecap="round" stroke-linejoin="round" stroke-miterlimit="10" stroke-width="2.5" stroke-opacity="0.9" stroke-dasharray=""/></g></g><g id="sketch-076389f3"><title>Expression 2</title><path fill="#388c46" stroke="none" paint-order="stroke fill markers" d="" fill-opacity="0.4"/><path fill="#388c46" stroke="none" paint-order="stroke fill markers" d="" fill-opacity="0.4"/><path fill="#388c46" stroke="none" class="dcg-svg-region" paint-order="stroke fill markers" d=" M -0.5 184.5 L 599.5 184.5 L 599.5 124.49999999999994 L 596.130859375 115.40167910331678 L 591.736328125 104.30079112913637 L 587.48828125 94.3680528797467 L 583.240234375 85.19213145197801 L 578.9921875 76.74597214473755 L 574.744140625 69.0029222996339 L 570.49609375 61.93673130097699 L 566.248046875 55.52155057577812 L 562 49.73193359375 L 557.751953125 44.54283586730651 L 553.357421875 39.78051527858162 L 549.109375 35.737525229807886 L 545.0078125 32.33424398614437 L 541.052734375 29.4980309776941 L 537.244140625 27.1626982239207 L 533.435546875 25.19917517949699 L 529.626953125 23.59137665755162 L 525.818359375 22.323477231995014 L 522.009765625 21.379911237519423 L 518.201171875 20.745372769598703 L 514.392578125 20.404815684488597 L 510.4375 20.34647119045252 L 506.3359375 20.586599528644 L 502.087890625 21.139245076457257 L 497.546875 22.050347668584493 L 492.859375 23.314035987015757 L 487.732421875 25.043068497071943 L 482.3125 27.230807662010136 L 476.453125 29.97068737214431 L 470.0078125 33.3823078454879 L 462.68359375 37.69433417970686 L 454.333984375 43.07567205748575 L 444.2265625 50.096995944943046 L 428.69921875 61.553398110720025 L 407.751953125 77.31168811935402 L 395.740234375 86.03248891310733 L 385.779296875 92.88705466608127 L 376.990234375 98.55507105973754 L 368.93359375 103.37603483263769 L 361.462890625 107.48328228507609 L 354.431640625 110.9985367192815 L 347.693359375 114.02471606649789 L 341.248046875 116.58728141830699 L 335.095703125 118.71659252867295 L 329.08984375 120.48592111738066 L 323.23046875 121.90920565614027 L 317.517578125 123.00249000665764 L 311.8046875 123.80022857370199 L 306.091796875 124.2989314461932 L 300.525390625 124.49513234421045 L 294.958984375 124.40455510065595 L 289.24609375 124.0137974053705 L 283.533203125 123.3230719892357 L 277.673828125 122.30620264992586 L 271.66796875 120.944653419303 L 265.515625 119.22168128704652 L 259.216796875 117.12278769229789 L 252.625 114.5758266448974 L 245.740234375 111.54951819341602 L 238.5625 108.01775109767914 L 230.9453125 103.87811413066805 L 222.595703125 98.91842700673925 L 213.3671875 92.9846697164175 L 202.673828125 85.61721766702368 L 168.396484375 60.122428614223566 L 155.65234375 50.72796598311652 L 146.130859375 44.062781706971975 L 138.07421875 38.78953953231934 L 131.04296875 34.546218332126955 L 124.59765625 31.013589734231516 L 118.73828125 28.147663608126095 L 113.318359375 25.829274517465308 L 108.337890625 24.012431062120697 L 103.650390625 22.603319224773543 L 99.109375 21.540145879145655 L 94.861328125 20.8350419895591 L 90.759765625 20.43815832300544 L 86.8046875 20.3362789380771 L 82.849609375 20.526413931266973 L 79.041015625 21.00080164516055 L 75.232421875 21.776082837933586 L 71.423828125 22.867423542921927 L 67.615234375 24.29024955424336 L 63.806640625 26.06024642679705 L 59.8515625 28.28287291605369 L 55.75 31.020843505859375 L 51.501953125 34.34310908253008 L 47.107421875 38.325375960740814 L 42.712890625 42.88825445107375 L 38.46484375 47.87601069607439 L 34.216796875 53.45574338682246 L 29.96875 59.652358375489655 L 25.720703125 66.49116355694906 L 21.47265625 73.99786886877519 L 17.224609375 82.19858629124371 L 12.830078125 91.44063456708074 L 8.435546875 101.48356497686228 L 4.041015625 112.3576432305266 L -0.5 124.49999999999994" fill-opacity="0.4"/><g><path fill="none" stroke="#388c46" class="dcg-svg-curve" paint-order="fill stroke markers" d=" M -0.5 184.5 L 10.5 184.5 M 17.5 184.5 L 28.5 184.5 M 35.5 184.5 L 46.5 184.5 M 53.5 184.5 L 64.5 184.5 M 71.5 184.5 L 82.5 184.5 M 89.5 184.5 L 100.5 184.5 M 107.5 184.5 L 118.5 184.5 M 125.5 184.5 L 136.5 184.5 M 143.5 184.5 L 154.5 184.5 M 161.5 184.5 L 172.5 184.5 M 179.5 184.5 L 190.5 184.5 M 197.5 184.5 L 208.5 184.5 M 215.5 184.5 L 226.5 184.5 M 233.5 184.5 L 244.5 184.5 M 251.5 184.5 L 262.5 184.5 M 269.5 184.5 L 280.5 184.5 M 287.5 184.5 L 298.5 184.5 M 305.5 184.5 L 316.5 184.5 M 323.5 184.5 L 334.5 184.5 M 341.5 184.5 L 352.5 184.5 M 359.5 184.5 L 370.5 184.5 M 377.5 184.5 L 388.5 184.5 M 395.5 184.5 L 406.5 184.5 M 413.5 184.5 L 424.5 184.5 M 431.5 184.5 L 442.5 184.5 M 449.5 184.5 L 460.5 184.5 M 467.5 184.5 L 478.5 184.5 M 485.5 184.5 L 496.5 184.5 M 503.5 184.5 L 514.5 184.5 M 521.5 184.5 L 532.5 184.5 M 539.5 184.5 L 550.5 184.5 M 557.5 184.5 L 568.5 184.5 M 575.5 184.5 L 586.5 184.5 M 593.5 184.5 L 599.5 184.5" stroke-linecap="round" stroke-linejoin="round" stroke-miterlimit="10" stroke-width="2.5" stroke-opacity="0.9" stroke-dasharray=""/></g><g><path fill="none" stroke="#388c46" class="dcg-svg-curve" paint-order="fill stroke markers" d=" M -0.5 124.49999999999994 L 3.3531555103539086 114.19693285409483 M 5.928057755680743 107.68823877539073 L 8.435546875 101.48356497686228 M 8.435546875 101.48356497686228 L 10.162443217122396 97.537046269357 M 12.978438244240037 91.12862145209256 L 17.224609375 82.19858629124371 M 17.224609375 82.19858629124371 L 17.73601697852754 81.21133041398102 M 20.955741832971597 74.99575547181556 L 21.47265625 73.99786886877519 M 21.47265625 73.99786886877519 L 25.720703125 66.49116355694906 M 25.720703125 66.49116355694906 L 26.380713826823904 65.42863182406842 M 30.08186396836248 59.487359322417156 L 34.216796875 53.45574338682246 M 34.216796875 53.45574338682246 L 36.450299917507564 50.522077561591956 M 40.8472715400145 45.07873245561055 L 42.712890625 42.88825445107375 M 42.712890625 42.88825445107375 L 47.107421875 38.325375960740814 M 47.107421875 38.325375960740814 L 48.43216903968231 37.12490736561638 M 53.75267943165217 32.5828859138303 L 55.75 31.020843505859375 M 55.75 31.020843505859375 L 59.8515625 28.28287291605369 M 59.8515625 28.28287291605369 L 62.93148698010648 26.55205458123391 M 69.29797154688985 23.661607494852714 L 71.423828125 22.867423542921927 M 71.423828125 22.867423542921927 L 75.232421875 21.776082837933586 M 75.232421875 21.776082837933586 L 79.041015625 21.00080164516055 M 79.041015625 21.00080164516055 L 79.91632094620925 20.89177607889023 M 86.88905869329594 20.338452266898173 L 90.759765625 20.43815832300544 M 90.759765625 20.43815832300544 L 94.861328125 20.8350419895591 M 94.861328125 20.8350419895591 L 97.8280282477911 21.327464003103128 M 104.64378483120858 22.901943978932604 L 108.337890625 24.012431062120697 M 108.337890625 24.012431062120697 L 113.318359375 25.829274517465308 M 113.318359375 25.829274517465308 L 115.01108314030016 26.553342576282876 M 121.38479864019803 29.442123056746613 L 124.59765625 31.013589734231516 M 124.59765625 31.013589734231516 L 131.04296875 34.546218332126955 M 131.04296875 34.546218332126955 L 131.1058815198311 34.58418584714734 M 137.0990724087895 38.201044009766655 L 138.07421875 38.78953953231934 M 138.07421875 38.78953953231934 L 146.130859375 44.062781706971975 M 146.130859375 44.062781706971975 L 146.32099668124513 44.195880721157316 M 152.0555790364522 48.21017582881294 L 155.65234375 50.72796598311652 M 155.65234375 50.72796598311652 L 160.97260056288766 54.649843125504525 M 166.60713761202283 58.8033948877826 L 168.396484375 60.122428614223566 M 168.396484375 60.122428614223566 L 175.43907720118935 65.36056549548236 M 181.0558029313275 69.53817151716561 L 189.88208622154457 76.10298097981072 M 195.4988119516827 80.28058700149397 L 202.673828125 85.61721766702368 M 202.673828125 85.61721766702368 L 204.36848740657067 86.78479471733975 M 210.13281002475856 90.75626607609931 L 213.3671875 92.9846697164175 M 213.3671875 92.9846697164175 L 219.31590331721355 96.8095790824287 M 225.2615830359039 100.5019657897198 L 230.9453125 103.87811413066805 M 230.9453125 103.87811413066805 L 234.80176868619958 105.97394393531057 M 241.00286472489051 109.2185199457135 L 245.740234375 111.54951819341602 M 245.740234375 111.54951819341602 L 250.97686253770868 113.85136155733892 M 257.47520537891563 116.4498656066927 L 259.216796875 117.12278769229789 M 259.216796875 117.12278769229789 L 265.515625 119.22168128704652 M 265.515625 119.22168128704652 L 267.9168444571862 119.89414602183379 M 274.69569341997993 121.63104914347012 L 277.673828125 122.30620264992586 M 277.673828125 122.30620264992586 L 283.533203125 123.3230719892357 M 283.533203125 123.3230719892357 L 285.51808508476904 123.563057052426 M 292.4833713286575 124.23522491180651 L 294.958984375 124.40455510065595 M 294.958984375 124.40455510065595 L 300.525390625 124.49513234421045 M 300.525390625 124.49513234421045 L 303.47501845908516 124.39116587035414 M 310.4567937321549 123.91789203655489 L 311.8046875 123.80022857370199 M 311.8046875 123.80022857370199 L 317.517578125 123.00249000665764 M 317.517578125 123.00249000665764 L 321.3271082133636 122.27345458451826 M 328.1495261159013 120.71433106727048 L 329.08984375 120.48592111738066 M 329.08984375 120.48592111738066 L 335.095703125 118.71659252867295 M 335.095703125 118.71659252867295 L 338.6595711421813 117.4831465326065 M 345.20746163649414 115.01307394873179 L 347.693359375 114.02471606649789 M 347.693359375 114.02471606649789 L 354.431640625 110.9985367192815 M 354.431640625 110.9985367192815 L 355.2708156648178 110.57899342615525 M 361.530536966636 107.4460916405407 L 368.93359375 103.37603483263769 M 368.93359375 103.37603483263769 L 371.12337862469377 102.0657028912346 M 377.1272216452297 98.46672874866806 L 385.779296875 92.88705466608127 M 385.779296875 92.88705466608127 L 386.35990581064135 92.48751173891024 M 392.12646330453566 88.51928610651338 L 395.740234375 86.03248891310733 M 395.740234375 86.03248891310733 L 401.09179108543873 82.1471282099848 M 406.75630539230286 78.03455265841959 L 407.751953125 77.31168811935402 M 407.751953125 77.31168811935402 L 415.55907808364367 71.43851395741845 M 421.1529398064736 67.23034202344788 L 428.69921875 61.553398110720025 M 428.69921875 61.553398110720025 L 429.9519440779016 60.62911090546666 M 435.5847002843296 56.47314440909699 L 444.2265625 50.096995944943046 M 444.2265625 50.096995944943046 L 444.4404994300769 49.94838035373341 M 450.18948130245326 45.95473447169931 L 454.333984375 43.07567205748575 M 454.333984375 43.07567205748575 L 459.3382980585896 39.85038311661382 M 465.28615818848937 36.16211254920629 L 470.0078125 33.3823078454879 M 470.0078125 33.3823078454879 L 474.88724194802234 30.799537591429846 M 481.1892001036941 27.756069587434673 L 482.3125 27.230807662010136 M 482.3125 27.230807662010136 L 487.732421875 25.043068497071943 M 487.732421875 25.043068497071943 L 491.4422868423524 23.79194000416791 M 498.18382776357106 21.922550417512007 L 502.087890625 21.139245076457257 M 502.087890625 21.139245076457257 L 506.3359375 20.586599528644 M 506.3359375 20.586599528644 L 509.06555135303125 20.426792713940376 M 516.0561344931068 20.553567676648118 L 518.201171875 20.745372769598703 M 518.201171875 20.745372769598703 L 522.009765625 21.379911237519423 M 522.009765625 21.379911237519423 L 525.818359375 22.323477231995014 M 525.818359375 22.323477231995014 L 526.8255893117229 22.658788987987442 M 533.3557909590886 25.165506205556458 L 533.435546875 25.19917517949699 M 533.435546875 25.19917517949699 L 537.244140625 27.1626982239207 M 537.244140625 27.1626982239207 L 541.052734375 29.4980309776941 M 541.052734375 29.4980309776941 L 542.8087922473921 30.757311837353495 M 548.312371413 35.07620960709842 L 549.109375 35.737525229807886 M 549.109375 35.737525229807886 L 553.357421875 39.78051527858162 M 553.357421875 39.78051527858162 L 556.1378165061626 42.79360810771229 M 560.6783997769858 48.11756517590854 L 562 49.73193359375 M 562 49.73193359375 L 566.248046875 55.52155057577812 M 566.248046875 55.52155057577812 L 567.2047145968486 56.96626070026863 M 571.0312005341347 62.826826644233485 L 574.744140625 69.0029222996339 M 574.744140625 69.0029222996339 L 576.5689115639374 72.32899019668103 M 579.8737385773779 78.49871194636773 L 583.240234375 85.19213145197801 M 583.240234375 85.19213145197801 L 584.7138664720567 88.3752254087814 M 587.6440428527684 94.73225301103743 L 591.736328125 104.30079112913637 M 591.736328125 104.30079112913637 L 591.954633415306 104.85224529659922 M 594.531190411438 111.36080535591212 L 596.130859375 115.40167910331678 M 596.130859375 115.40167910331678 L 598.4415270732196 121.64160748386706" stroke-linecap="round" stroke-linejoin="round" stroke-miterlimit="10" stroke-width="2.5" stroke-opacity="0.9" stroke-dasharray=""/></g></g></g><g id="labels-076389f3"/></g></svg>