<svg version="1.1" xmlns="http://www.w3.org/2000/svg" xmlns:xlink="http://www.w3.org/1999/xlink" width="600" height="400"><defs/><g transform="scale(1,1)"><g id="background-6a35c4e8"><rect fill="white" stroke="none" x="0" y="0" width="600" height="400" class="dcg-svg-background"/></g><g id="background-images-6a35c4e8"/><g id="graphpaper-6a35c4e8"><g id="grid-6a35c4e8"><g><path fill="none" stroke="rgb(0,0,0)" class="dcg-svg-minor-gridline" paint-order="fill stroke markers" d=" M -0.5 0 L -0.5 400" stroke-opacity="0.12" stroke-miterlimit="10" stroke-dasharray=""/><path fill="none" stroke="rgb(0,0,0)" class="dcg-svg-minor-gridline" paint-order="fill stroke markers" d=" M 29.5 0 L 29.5 400" stroke-opacity="0.12" stroke-miterlimit="10" stroke-dasharray=""/><path fill="none" stroke="rgb(0,0,0)" class="dcg-svg-minor-gridline" paint-order="fill stroke markers" d=" M 59.5 0 L 59.5 400" stroke-opacity="0.12" stroke-miterlimit="10" stroke-dasharray=""/><path fill="none" stroke="rgb(0,0,0)" class="dcg-svg-minor-gridline" paint-order="fill stroke markers" d=" M 89.5 0 L 89.5 400" stroke-opacity="0.12" stroke-miterlimit="10" stroke-dasharray=""/><path fill="none" stroke="rgb(0,0,0)" class="dcg-svg-minor-gridline" paint-order="fill stroke markers" d=" M 119.5 0 L 119.5 400" stroke-opacity="0.12" stroke-miterlimit="10" stroke-dasharray=""/><path fill="none" stroke="rgb(0,0,0)" class="dcg-svg-minor-gridline" paint-order="fill stroke markers" d=" M 149.5 0 L 149.5 400" stroke-opacity="0.12" stroke-miterlimit="10" stroke-dasharray=""/><path fill="none" stroke="rgb(0,0,0)" class="dcg-svg-minor-gridline" paint-order="fill stroke markers" d=" M 179.5 0 L 179.5 400" stroke-opacity="0.12" stroke-miterlimit="10" stroke-dasharray=""/><path fill="none" stroke="rgb(0,0,0)" class="dcg-svg-minor-gridline" paint-order="fill stroke markers" d=" M 209.5 0 L 209.5 400" stroke-opacity="0.12" stroke-miterlimit="10" stroke-dasharray=""/><path fill="none" stroke="rgb(0,0,0)" class="dcg-svg-minor-gridline" paint-order="fill stroke markers" d=" M 239.5 0 L 239.5 400" stroke-opacity="0.12" stroke-miterlimit="10" stroke-dasharray=""/><path fill="none" stroke="rgb(0,0,0)" class="dcg-svg-minor-gridline" paint-order="fill stroke markers" d=" M 269.5 0 L 269.5 400" stroke-opacity="0.12" stroke-miterlimit="10" stroke-dasharray=""/><path fill="none" stroke="rgb(0,0,0)" class="dcg-svg-minor-gridline" paint-order="fill stroke markers" d=" M 329.5 0 L 329.5 400" stroke-opacity="0.12" stroke-miterlimit="10" stroke-dasharray=""/><path fill="none" stroke="rgb(0,0,0)" class="dcg-svg-minor-gridline" paint-order="fill stroke markers" d=" M 359.5 0 L 359.5 400" stroke-opacity="0.12" stroke-miterlimit="10" stroke-dasharray=""/><path fill="none" stroke="rgb(0,0,0)" class="dcg-svg-minor-gridline" paint-order="fill stroke markers" d=" M 389.5 0 L 389.5 400" stroke-opacity="0.12" stroke-miterlimit="10" stroke-dasharray=""/><path fill="none" stroke="rgb(0,0,0)" class="dcg-svg-minor-gridline" paint-order="fill stroke markers" d=" M 419.5 0 L 419.5 400" stroke-opacity="0.12" stroke-miterlimit="10" stroke-dasharray=""/><path fill="none" stroke="rgb(0,0,0)" class="dcg-svg-minor-gridline" paint-order="fill stroke markers" d=" M 449.5 0 L 449.5 400" stroke-opacity="0.12" stroke-miterlimit="10" stroke-dasharray=""/><path fill="none" stroke="rgb(0,0,0)" class="dcg-svg-minor-gridline" paint-order="fill stroke markers" d=" M 479.5 0 L 479.5 400" stroke-opacity="0.12" stroke-miterlimit="10" stroke-dasharray=""/><path fill="none" stroke="rgb(0,0,0)" class="dcg-svg-minor-gridline" paint-order="fill stroke markers" d=" M 509.5 0 L 509.5 400" stroke-opacity="0.12" stroke-miterlimit="10" stroke-dasharray=""/><path fill="none" stroke="rgb(0,0,0)" class="dcg-svg-minor-gridline" paint-order="fill stroke markers" d=" M 539.5 0 L 539.5 400" stroke-opacity="0.12" stroke-miterlimit="10" stroke-dasharray=""/><path fill="none" stroke="rgb(0,0,0)" class="dcg-svg-minor-gridline" paint-order="fill stroke markers" d=" M 569.5 0 L 569.5 400" stroke-opacity="0.12" stroke-miterlimit="10" stroke-dasharray=""/><path fill="none" stroke="rgb(0,0,0)" class="dcg-svg-minor-gridline" paint-order="fill stroke markers" d=" M 0 370.5 L 600 370.5" stroke-opacity="0.12" stroke-miterlimit="10" stroke-dasharray=""/><path fill="none" stroke="rgb(0,0,0)" class="dcg-svg-minor-gridline" paint-order="fill stroke markers" d=" M 0 342.5 L 600 342.5" stroke-opacity="0.12" stroke-miterlimit="10" stroke-dasharray=""/><path fill="none" stroke="rgb(0,0,0)" class="dcg-svg-minor-gridline" paint-order="fill stroke markers" d=" M 0 313.5 L 600 313.5" stroke-opacity="0.12" stroke-miterlimit="10" stroke-dasharray=""/><path fill="none" stroke="rgb(0,0,0)" class="dcg-svg-minor-gridline" paint-order="fill stroke markers" d=" M 0 285.5 L 600 285.5" stroke-opacity="0.12" stroke-miterlimit="10" stroke-dasharray=""/><path fill="none" stroke="rgb(0,0,0)" class="dcg-svg-minor-gridline" paint-order="fill stroke markers" d=" M 0 256.5 L 600 256.5" stroke-opacity="0.12" stroke-miterlimit="10" stroke-dasharray=""/><path fill="none" stroke="rgb(0,0,0)" class="dcg-svg-minor-gridline" paint-order="fill stroke markers" d=" M 0 228.5 L 600 228.5" stroke-opacity="0.12" stroke-miterlimit="10" stroke-dasharray=""/><path fill="none" stroke="rgb(0,0,0)" class="dcg-svg-minor-gridline" paint-order="fill stroke markers" d=" M 0 170.5 L 600 170.5" stroke-opacity="0.12" stroke-miterlimit="10" stroke-dasharray=""/><path fill="none" stroke="rgb(0,0,0)" class="dcg-svg-minor-gridline" paint-order="fill stroke markers" d=" M 0 142.5 L 600 142.5" stroke-opacity="0.12" stroke-miterlimit="10" stroke-dasharray=""/><path fill="none" stroke="rgb(0,0,0)" class="dcg-svg-minor-gridline" paint-order="fill stroke markers" d=" M 0 113.5 L 600 113.5" stroke-opacity="0.12" stroke-miterlimit="10" stroke-dasharray=""/><path fill="none" stroke="rgb(0,0,0)" class="dcg-svg-minor-gridline" paint-order="fill stroke markers" d=" M 0 85.5 L 600 85.5" stroke-opacity="0.12" stroke-miterlimit="10" stroke-dasharray=""/><path fill="none" stroke="rgb(0,0,0)" class="dcg-svg-minor-gridline" paint-order="fill stroke markers" d=" M 0 56.5 L 600 56.5" stroke-opacity="0.12" stroke-miterlimit="10" stroke-dasharray=""/><path fill="none" stroke="rgb(0,0,0)" class="dcg-svg-minor-gridline" paint-order="fill stroke markers" d=" M 0 28.5 L 600 28.5" stroke-opacity="0.12" stroke-miterlimit="10" stroke-dasharray=""/><path fill="none" stroke="rgb(0,0,0)" class="dcg-svg-minor-gridline" paint-order="fill stroke markers" d=" M 0 -0.5 L 600 -0.5" stroke-opacity="0.12" stroke-miterlimit="10" stroke-dasharray=""/><path fill="none" stroke="rgb(0,0,0)" class="dcg-svg-major-gridline" paint-order="fill stroke markers" d=" M -0.5 0 L -0.5 400" stroke-opacity="0.31818181818181823" stroke-miterlimit="10" stroke-dasharray=""/><path fill="none" stroke="rgb(0,0,0)" class="dcg-svg-major-gridline" paint-order="fill stroke markers" d=" M 149.5 0 L 149.5 400" stroke-opacity="0.31818181818181823" stroke-miterlimit="10" stroke-dasharray=""/><path fill="none" stroke="rgb(0,0,0)" class="dcg-svg-major-gridline" paint-order="fill stroke markers" d=" M 449.5 0 L 449.5 400" stroke-opacity="0.31818181818181823" stroke-miterlimit="10" stroke-dasharray=""/><path fill="none" stroke="rgb(0,0,0)" class="dcg-svg-major-gridline" paint-order="fill stroke markers" d=" M 0 342.5 L 600 342.5" stroke-opacity="0.31818181818181823" stroke-miterlimit="10" stroke-dasharray=""/><path fill="none" stroke="rgb(0,0,0)" class="dcg-svg-major-gridline" paint-order="fill stroke markers" d=" M 0 56.5 L 600 56.5" stroke-opacity="0.31818181818181823" stroke-miterlimit="10" stroke-dasharray=""/></g></g><g id="axis-6a35c4e8"><g id="yaxis-6a35c4e8"><title>Y axis</title><path fill="none" stroke="rgb(0,0,0)" class="dcg-svg-axis-line" paint-order="fill stroke markers" d=" M 299.75 0 L 299.75 400" stroke-opacity="0.9" stroke-miterlimit="10" stroke-width="1.5" stroke-dasharray=""/></g><g id="xaxis-6a35c4e8"><title>X axis</title><path fill="none" stroke="rgb(0,0,0)" class="dcg-svg-axis-line" paint-order="fill stroke markers" d=" M 0 199.75 L 600 199.75" stroke-opacity="0.9" stroke-miterlimit="10" stroke-width="1.5" stroke-dasharray=""/></g><g/></g></g><g id="expressions-6a35c4e8"><g id="sketch-6a35c4e8"><title>Expression 1</title><path fill="#2d70b3" stroke="none" paint-order="stroke fill markers" d="" fill-opacity="0.4"/><g><path fill="none" stroke="#2d70b3" class="dcg-svg-curve" paint-order="fill stroke markers" d=" M -0.5 142.3571428571429 L -0.5 142.3571428571429 L 4.041015625 130.79299355288242 L 8.435546875 120.43672854939268 L 12.830078125 110.87203292102924 L 17.224609375 102.0700821821369 L 21.47265625 94.25987511311928 L 25.720703125 87.11063195899919 L 29.96875 80.59748416713308 L 34.216796875 74.69594608268812 L 38.46484375 69.38191494864236 L 42.712890625 64.63167090578452 L 47.107421875 60.28607234356275 L 51.35546875 56.61121441340981 L 55.45703125 53.53220619938935 L 59.412109375 50.98075152366226 L 63.220703125 48.89464781490631 L 67.029296875 47.15672730433482 L 70.69140625 45.799827954628995 L 74.353515625 44.737448145953636 L 78.015625 43.956480902486646 L 81.677734375 43.444030719458056 L 85.486328125 43.18229307407648 L 89.294921875 43.18324080653406 L 93.25 43.447492327008945 L 97.3515625 43.98885813430286 L 101.599609375 44.81904302353405 L 105.994140625 45.94744827104 L 110.681640625 47.43151742000828 L 115.662109375 49.30018246703014 L 121.08203125 51.64435810311056 L 126.94140625 54.504699104540066 L 133.38671875 57.994120510009225 L 140.564453125 62.2399344518592 L 148.767578125 67.46916914547478 L 158.58203125 74.11917029160668 L 172.3515625 83.87966578847931 L 198.865234375 102.72855653028489 L 209.8515625 110.08568605429696 L 219.080078125 115.89055701900656 L 227.4296875 120.77705716868928 L 235.046875 124.8859956327471 L 242.224609375 128.42020147190158 L 248.962890625 131.41568513126737 L 255.408203125 133.9704920081524 L 261.560546875 136.11207569602072 L 267.56640625 137.91181668504714 L 273.42578125 139.38214661726704 L 279.138671875 140.53759299230694 L 284.705078125 141.3943679458515 L 290.271484375 141.98198893321683 L 295.69140625 142.29319643516095 L 301.111328125 142.34569531117984 L 306.53125 142.1392798977239 L 311.951171875 141.67475913808846 L 317.517578125 140.93094286348355 L 323.083984375 139.91989881121168 L 328.796875 138.60881202623602 L 334.65625 136.98241375599588 L 340.662109375 135.0272381626919 L 346.814453125 132.73204069084903 L 353.259765625 130.0233506603962 L 359.998046875 126.8757823483325 L 367.17578125 123.19074471033468 L 374.79296875 118.93587650477554 L 382.99609375 113.99928393384266 L 392.224609375 108.0692873227556 L 402.91796875 100.80384434900668 L 417.419921875 90.51961150529246 L 443.0546875 72.29895091016351 L 453.162109375 65.56136919215749 L 461.365234375 60.46544610977344 L 468.54296875 56.36671417316529 L 474.98828125 53.03467216398366 L 480.84765625 50.33898868191943 L 486.267578125 48.166045903319514 L 491.248046875 46.47124864444345 L 495.935546875 45.1656644525749 L 500.330078125 44.21798451830216 L 504.578125 43.57510430818161 L 508.6796875 43.22659139543043 L 512.634765625 43.159702190398434 L 516.443359375 43.35958430313917 L 520.10546875 43.80948574749243 L 523.767578125 44.52484079803196 L 527.4296875 45.51849420647517 L 531.091796875 46.80350219559148 L 534.75390625 48.39313245920289 L 538.416015625 50.30086416218353 L 542.224609375 52.63706608030719 L 546.033203125 55.34777859960309 L 549.98828125 58.57618007261465 L 554.08984375 62.38817371365616 L 558.337890625 66.85598511179273 L 562.5859375 71.87546495369838 L 566.833984375 77.47013504799247 L 571.08203125 83.66390010110524 L 575.330078125 90.48104771727765 L 579.578125 97.94624839856158 L 583.826171875 106.08455554481964 L 588.07421875 114.92140545372524 L 592.322265625 124.48261732076253 L 596.716796875 135.16367915571414 L 599.5 142.3571428571429" stroke-linecap="round" stroke-linejoin="round" stroke-miterlimit="10" stroke-width="2.5" stroke-opacity="0.9" stroke-dasharray=""/></g></g><g id="sketch-6a35c4e8"><title>Expression 2</title><path fill="#388c46" stroke="none" paint-order="stroke fill markers" d="" fill-opacity="0.4"/><path fill="#388c46" stroke="none" paint-order="stroke fill markers" d="" fill-opacity="0.4"/><path fill="#388c46" stroke="none" class="dcg-svg-region" paint-order="stroke fill markers" d=" M -0.5 199.5 L 599.5 199.5 L 599.5 142.3571428571429 L 596.716796875 135.16367915571414 L 592.322265625 124.48261732076253 L 588.07421875 114.92140545372524 L 583.826171875 106.08455554481964 L 579.578125 97.94624839856158 L 575.330078125 90.48104771727765 L 571.08203125 83.66390010110524 L 566.833984375 77.47013504799247 L 562.5859375 71.87546495369838 L 558.337890625 66.85598511179273 L 554.08984375 62.38817371365616 L 549.98828125 58.57618007261465 L 546.033203125 55.34777859960309 L 542.224609375 52.63706608030719 L 538.416015625 50.30086416218353 L 534.75390625 48.39313245920289 L 531.091796875 46.80350219559148 L 527.4296875 45.51849420647517 L 523.767578125 44.52484079803196 L 520.10546875 43.80948574749243 L 516.443359375 43.35958430313917 L 512.634765625 43.159702190398434 L 508.6796875 43.22659139543043 L 504.578125 43.57510430818161 L 500.330078125 44.21798451830216 L 495.935546875 45.1656644525749 L 491.248046875 46.47124864444345 L 486.267578125 48.166045903319514 L 480.84765625 50.33898868191943 L 474.98828125 53.03467216398366 L 468.54296875 56.36671417316529 L 461.365234375 60.46544610977344 L 453.162109375 65.56136919215749 L 443.0546875 72.29895091016351 L 417.419921875 90.51961150529246 L 402.91796875 100.80384434900668 L 392.224609375 108.0692873227556 L 382.99609375 113.99928393384266 L 374.79296875 118.93587650477554 L 367.17578125 123.19074471033468 L 359.998046875 126.8757823483325 L 353.259765625 130.0233506603962 L 346.814453125 132.73204069084903 L 340.662109375 135.0272381626919 L 334.65625 136.98241375599588 L 328.796875 138.60881202623602 L 323.083984375 139.91989881121168 L 317.517578125 140.93094286348355 L 311.951171875 141.67475913808846 L 306.53125 142.1392798977239 L 301.111328125 142.34569531117984 L 295.69140625 142.29319643516095 L 290.271484375 141.98198893321683 L 284.705078125 141.3943679458515 L 279.138671875 140.53759299230694 L 273.42578125 139.38214661726704 L 267.56640625 137.91181668504714 L 261.560546875 136.11207569602072 L 255.408203125 133.9704920081524 L 248.962890625 131.41568513126737 L 242.224609375 128.42020147190158 L 235.046875 124.8859956327471 L 227.4296875 120.77705716868928 L 219.080078125 115.89055701900656 L 209.8515625 110.08568605429696 L 198.865234375 102.72855653028489 L 172.3515625 83.87966578847931 L 158.58203125 74.11917029160668 L 148.767578125 67.46916914547478 L 140.564453125 62.2399344518592 L 133.38671875 57.994120510009225 L 126.94140625 54.504699104540066 L 121.08203125 51.64435810311056 L 115.662109375 49.30018246703014 L 110.681640625 47.43151742000828 L 105.994140625 45.94744827104 L 101.599609375 44.81904302353405 L 97.3515625 43.98885813430286 L 93.25 43.447492327008945 L 89.294921875 43.18324080653406 L 85.486328125 43.18229307407648 L 81.677734375 43.444030719458056 L 78.015625 43.956480902486646 L 74.353515625 44.737448145953636 L 70.69140625 45.799827954628995 L 67.029296875 47.15672730433482 L 63.220703125 48.89464781490631 L 59.412109375 50.98075152366226 L 55.45703125 53.53220619938935 L 51.35546875 56.61121441340981 L 47.107421875 60.28607234356275 L 42.712890625 64.63167090578452 L 38.46484375 69.38191494864236 L 34.216796875 74.69594608268812 L 29.96875 80.59748416713308 L 25.720703125 87.11063195899919 L 21.47265625 94.25987511311928 L 17.224609375 102.0700821821369 L 12.830078125 110.87203292102924 L 8.435546875 120.43672854939268 L 4.041015625 130.79299355288242 L -0.5 142.3571428571429" fill-opacity="0.4"/><g><path fill="none" stroke="#388c46" class="dcg-svg-curve" paint-order="fill stroke markers" d=" M -0.5 199.5 L 10.5 199.5 M 17.5 199.5 L 28.5 199.5 M 35.5 199.5 L 46.5 199.5 M 53.5 199.5 L 64.5 199.5 M 71.5 199.5 L 82.5 199.5 M 89.5 199.5 L 100.5 199.5 M 107.5 199.5 L 118.5 199.5 M 125.5 199.5 L 136.5 199.5 M 143.5 199.5 L 154.5 199.5 M 161.5 199.5 L 172.5 199.5 M 179.5 199.5 L 190.5 199.5 M 197.5 199.5 L 208.5 199.5 M 215.5 199.5 L 226.5 199.5 M 233.5 199.5 L 244.5 199.5 M 251.5 199.5 L 262.5 199.5 M 269.5 199.5 L 280.5 199.5 M 287.5 199.5 L 298.5 199.5 M 305.5 199.5 L 316.5 199.5 M 323.5 199.5 L 334.5 199.5 M 341.5 199.5 L 352.5 199.5 M 359.5 199.5 L 370.5 199.5 M 377.5 199.5 L 388.5 199.5 M 395.5 199.5 L 406.5 199.5 M 413.5 199.5 L 424.5 199.5 M 431.5 199.5 L 442.5 199.5 M 449.5 199.5 L 460.5 199.5 M 467.5 199.5 L 478.5 199.5 M 485.5 199.5 L 496.5 199.5 M 503.5 199.5 L 514.5 199.5 M 521.5 199.5 L 532.5 199.5 M 539.5 199.5 L 550.5 199.5 M 557.5 199.5 L 568.5 199.5 M 575.5 199.5 L 586.5 199.5 M 593.5 199.5 L 599.5 199.5" stroke-linecap="round" stroke-linejoin="round" stroke-miterlimit="10" stroke-width="2.5" stroke-opacity="0.9" stroke-dasharray=""/></g><g><path fill="none" stroke="#388c46" class="dcg-svg-curve" paint-order="fill stroke markers" d=" M -0.5 142.3571428571429 L 3.5206090057801642 132.1182609248888 M 6.219211555035713 125.65980118316776 L 8.435546875 120.43672854939268 M 8.435546875 120.43672854939268 L 10.65918885009905 115.59697261904736 M 13.634213057878906 109.26140469609112 L 17.224609375 102.0700821821369 M 17.224609375 102.0700821821369 L 18.639970679728425 99.46788282024687 M 22.01998715880771 93.33874550509634 L 25.720703125 87.11063195899919 M 25.720703125 87.11063195899919 L 27.772255316838066 83.96517169894305 M 31.709291618299236 78.17946173230428 L 34.216796875 74.69594608268812 M 34.216796875 74.69594608268812 L 38.405253014040156 69.45645909457798 M 43.09110804651188 64.25766489931245 L 47.107421875 60.28607234356275 M 47.107421875 60.28607234356275 L 51.15477078727692 56.78483220096741 M 56.806556238303344 52.66161610417673 L 59.412109375 50.98075152366226 M 59.412109375 50.98075152366226 L 63.220703125 48.89464781490631 M 63.220703125 48.89464781490631 L 66.45656171427754 47.41807525801064 M 73.05884333655581 45.11303324111334 L 74.353515625 44.737448145953636 M 74.353515625 44.737448145953636 L 78.015625 43.956480902486646 M 78.015625 43.956480902486646 L 81.677734375 43.444030719458056 M 81.677734375 43.444030719458056 L 83.88223764820428 43.292530839492 M 90.87493140239415 43.2888063369188 L 93.25 43.447492327008945 M 93.25 43.447492327008945 L 97.3515625 43.98885813430286 M 97.3515625 43.98885813430286 L 101.599609375 44.81904302353405 M 101.599609375 44.81904302353405 L 101.74886078621815 44.85736703718539 M 108.48908527216396 46.737351285277775 L 110.681640625 47.43151742000828 M 110.681640625 47.43151742000828 L 115.662109375 49.30018246703014 M 115.662109375 49.30018246703014 L 118.76501162237723 50.64222170988194 M 125.10394199946091 53.60771361812251 L 126.94140625 54.504699104540066 M 126.94140625 54.504699104540066 L 133.38671875 57.994120510009225 M 133.38671875 57.994120510009225 L 134.78622539042388 58.821964575445726 M 140.80608187674562 62.3939651964356 L 148.767578125 67.46916914547478 M 148.767578125 67.46916914547478 L 150.0577453871071 68.34335068798575 M 155.85276475592278 72.26989503576169 L 158.58203125 74.11917029160668 M 158.58203125 74.11917029160668 L 164.86652878472427 78.57391960544285 M 170.57731528782858 82.62199538486713 L 172.3515625 83.87966578847931 M 172.3515625 83.87966578847931 L 179.54439470562016 88.99313739690304 M 185.2496181026328 93.04904987009321 L 194.21496915508123 99.42262661367776 M 199.94073146305487 103.44877636074052 L 209.08062834205697 109.56942052955213 M 214.99145653701302 113.31875439047815 L 219.080078125 115.89055701900656 M 219.080078125 115.89055701900656 L 224.40498938523444 119.00689198769278 M 230.50603399543272 122.4365303592669 L 235.046875 124.8859956327471 M 235.046875 124.8859956327471 L 240.2867556780216 127.46603216255204 M 246.64726414754318 130.3862800030061 L 248.962890625 131.41568513126737 M 248.962890625 131.41568513126737 L 255.408203125 133.9704920081524 M 255.408203125 133.9704920081524 L 256.8556996455209 134.47435444863999 M 263.49386939890286 136.69142322549496 L 267.56640625 137.91181668504714 M 267.56640625 137.91181668504714 L 273.42578125 139.38214661726704 M 273.42578125 139.38214661726704 L 274.11924107401 139.52240059594146 M 280.9957382887102 140.82343055407952 L 284.705078125 141.3943679458515 M 284.705078125 141.3943679458515 L 290.271484375 141.98198893321683 M 290.271484375 141.98198893321683 L 291.91841342863194 142.07655425878437 M 298.9120477548359 142.3243924676801 L 301.111328125 142.34569531117984 M 301.111328125 142.34569531117984 L 306.53125 142.1392798977239 M 306.53125 142.1392798977239 L 309.8956812007805 141.85092737656737 M 316.84465025300165 141.020863483781 L 317.517578125 140.93094286348355 M 317.517578125 140.93094286348355 L 323.083984375 139.91989881121168 M 323.083984375 139.91989881121168 L 327.629429466789 138.8767363593352 M 334.38770019118135 137.05695565586336 L 334.65625 136.98241375599588 M 334.65625 136.98241375599588 L 340.662109375 135.0272381626919 M 340.662109375 135.0272381626919 L 344.78945371915466 133.48748832278272 M 351.27521534563544 130.8573725261548 L 353.259765625 130.0233506603962 M 353.259765625 130.0233506603962 L 359.998046875 126.8757823483325 M 359.998046875 126.8757823483325 L 361.252520884354 126.23173734766202 M 367.4741162538104 123.02409840914828 L 374.79296875 118.93587650477554 M 374.79296875 118.93587650477554 L 377.03502245235615 117.58662172069215 M 383.0320566070992 113.9761751664754 L 392.224609375 108.0692873227556 M 392.224609375 108.0692873227556 L 392.2851793031091 108.02813399168646 M 398.0751854416603 104.0942009831645 L 402.91796875 100.80384434900668 M 402.91796875 100.80384434900668 L 407.11491513599543 97.82752981439725 M 412.82485406430055 93.77825859169236 L 417.419921875 90.51961150529246 M 417.419921875 90.51961150529246 L 421.7942743111029 87.41041237206628 M 427.4998555827007 83.3550033479119 L 436.4657690094972 76.98221773852646 M 442.171350281095 72.92680871437209 L 443.0546875 72.29895091016351 M 443.0546875 72.29895091016351 L 451.30577899825016 66.7987943005231 M 457.21311913236286 63.044811888750736 L 461.365234375 60.46544610977344 M 461.365234375 60.46544610977344 L 466.67278057838155 57.43465561345846 M 472.84807835673666 54.141095777815494 L 474.98828125 53.03467216398366 M 474.98828125 53.03467216398366 L 480.84765625 50.33898868191943 M 480.84765625 50.33898868191943 L 482.8348861636507 49.54227297459476 M 489.39326869146265 47.102408709704825 L 491.248046875 46.47124864444345 M 491.248046875 46.47124864444345 L 495.935546875 45.1656644525749 M 495.935546875 45.1656644525749 L 500.016582606558 44.28558977479269 M 506.95245006193454 43.37335608585099 L 508.6796875 43.22659139543043 M 508.6796875 43.22659139543043 L 512.634765625 43.159702190398434 M 512.634765625 43.159702190398434 L 516.443359375 43.35958430313917 M 516.443359375 43.35958430313917 L 517.9292476787803 43.54213026929244 M 524.8061210499777 44.80663241361381 L 527.4296875 45.51849420647517 M 527.4296875 45.51849420647517 L 531.091796875 46.80350219559148 M 531.091796875 46.80350219559148 L 534.75390625 48.39313245920289 M 534.75390625 48.39313245920289 L 535.116032952378 48.581777996482124 M 541.211152840218 52.01540904469066 L 542.224609375 52.63706608030719 M 542.224609375 52.63706608030719 L 546.033203125 55.34777859960309 M 546.033203125 55.34777859960309 L 549.98828125 58.57618007261465 M 549.98828125 58.57618007261465 L 550.0109180890481 58.597218758848186 M 555.0761827012653 63.42553901082917 L 558.337890625 66.85598511179273 M 558.337890625 66.85598511179273 L 562.3860828177429 71.63931724195733 M 566.6319714826811 77.2040844321272 L 566.833984375 77.47013504799247 M 566.833984375 77.47013504799247 L 571.08203125 83.66390010110524 M 571.08203125 83.66390010110524 L 572.7507976354544 86.34189003890442 M 576.3800567048976 92.32620174703037 L 579.578125 97.94624839856158 M 579.578125 97.94624839856158 L 581.676043411939 101.9653905847338 M 584.8458163570231 108.20563506988519 L 588.07421875 114.92140545372524 M 588.07421875 114.92140545372524 L 589.5150290931934 118.16428232322576 M 592.3550277120676 124.56224671873535 L 596.5403820548887 134.734896768011 M 599.0753737461401 141.25965431368124 L 599.5 142.3571428571429" stroke-linecap="round" stroke-linejoin="round" stroke-miterlimit="10" stroke-width="2.5" stroke-opacity="0.9" stroke-dasharray=""/></g></g></g><g id="labels-6a35c4e8"/></g></svg>