<svg version="1.1" xmlns="http://www.w3.org/2000/svg" xmlns:xlink="http://www.w3.org/1999/xlink" width="600" height="400"><defs/><g transform="scale(1,1)"><g id="background-88ea663f"><rect fill="white" stroke="none" x="0" y="0" width="600" height="400" class="dcg-svg-background"/></g><g id="background-images-88ea663f"/><g id="graphpaper-88ea663f"><g id="grid-88ea663f"><g><path fill="none" stroke="rgb(0,0,0)" class="dcg-svg-minor-gridline" paint-order="fill stroke markers" d=" M -0.5 0 L -0.5 400" stroke-opacity="0.12" stroke-miterlimit="10" stroke-dasharray=""/><path fill="none" stroke="rgb(0,0,0)" class="dcg-svg-minor-gridline" paint-order="fill stroke markers" d=" M 32.5 0 L 32.5 400" stroke-opacity="0.12" stroke-miterlimit="10" stroke-dasharray=""/><path fill="none" stroke="rgb(0,0,0)" class="dcg-svg-minor-gridline" paint-order="fill stroke markers" d=" M 66.5 0 L 66.5 400" stroke-opacity="0.12" stroke-miterlimit="10" stroke-dasharray=""/><path fill="none" stroke="rgb(0,0,0)" class="dcg-svg-minor-gridline" paint-order="fill stroke markers" d=" M 132.5 0 L 132.5 400" stroke-opacity="0.12" stroke-miterlimit="10" stroke-dasharray=""/><path fill="none" stroke="rgb(0,0,0)" class="dcg-svg-minor-gridline" paint-order="fill stroke markers" d=" M 166.5 0 L 166.5 400" stroke-opacity="0.12" stroke-miterlimit="10" stroke-dasharray=""/><path fill="none" stroke="rgb(0,0,0)" class="dcg-svg-minor-gridline" paint-order="fill stroke markers" d=" M 199.5 0 L 199.5 400" stroke-opacity="0.12" stroke-miterlimit="10" stroke-dasharray=""/><path fill="none" stroke="rgb(0,0,0)" class="dcg-svg-minor-gridline" paint-order="fill stroke markers" d=" M 232.5 0 L 232.5 400" stroke-opacity="0.12" stroke-miterlimit="10" stroke-dasharray=""/><path fill="none" stroke="rgb(0,0,0)" class="dcg-svg-minor-gridline" paint-order="fill stroke markers" d=" M 266.5 0 L 266.5 400" stroke-opacity="0.12" stroke-miterlimit="10" stroke-dasharray=""/><path fill="none" stroke="rgb(0,0,0)" class="dcg-svg-minor-gridline" paint-order="fill stroke markers" d=" M 299.5 0 L 299.5 400" stroke-opacity="0.12" stroke-miterlimit="10" stroke-dasharray=""/><path fill="none" stroke="rgb(0,0,0)" class="dcg-svg-minor-gridline" paint-order="fill stroke markers" d=" M 332.5 0 L 332.5 400" stroke-opacity="0.12" stroke-miterlimit="10" stroke-dasharray=""/><path fill="none" stroke="rgb(0,0,0)" class="dcg-svg-minor-gridline" paint-order="fill stroke markers" d=" M 366.5 0 L 366.5 400" stroke-opacity="0.12" stroke-miterlimit="10" stroke-dasharray=""/><path fill="none" stroke="rgb(0,0,0)" class="dcg-svg-minor-gridline" paint-order="fill stroke markers" d=" M 399.5 0 L 399.5 400" stroke-opacity="0.12" stroke-miterlimit="10" stroke-dasharray=""/><path fill="none" stroke="rgb(0,0,0)" class="dcg-svg-minor-gridline" paint-order="fill stroke markers" d=" M 432.5 0 L 432.5 400" stroke-opacity="0.12" stroke-miterlimit="10" stroke-dasharray=""/><path fill="none" stroke="rgb(0,0,0)" class="dcg-svg-minor-gridline" paint-order="fill stroke markers" d=" M 466.5 0 L 466.5 400" stroke-opacity="0.12" stroke-miterlimit="10" stroke-dasharray=""/><path fill="none" stroke="rgb(0,0,0)" class="dcg-svg-minor-gridline" paint-order="fill stroke markers" d=" M 499.5 0 L 499.5 400" stroke-opacity="0.12" stroke-miterlimit="10" stroke-dasharray=""/><path fill="none" stroke="rgb(0,0,0)" class="dcg-svg-minor-gridline" paint-order="fill stroke markers" d=" M 532.5 0 L 532.5 400" stroke-opacity="0.12" stroke-miterlimit="10" stroke-dasharray=""/><path fill="none" stroke="rgb(0,0,0)" class="dcg-svg-minor-gridline" paint-order="fill stroke markers" d=" M 566.5 0 L 566.5 400" stroke-opacity="0.12" stroke-miterlimit="10" stroke-dasharray=""/><path fill="none" stroke="rgb(0,0,0)" class="dcg-svg-minor-gridline" paint-order="fill stroke markers" d=" M 0 374.5 L 600 374.5" stroke-opacity="0.12" stroke-miterlimit="10" stroke-dasharray=""/><path fill="none" stroke="rgb(0,0,0)" class="dcg-svg-minor-gridline" paint-order="fill stroke markers" d=" M 0 349.5 L 600 349.5" stroke-opacity="0.12" stroke-miterlimit="10" stroke-dasharray=""/><path fill="none" stroke="rgb(0,0,0)" class="dcg-svg-minor-gridline" paint-order="fill stroke markers" d=" M 0 324.5 L 600 324.5" stroke-opacity="0.12" stroke-miterlimit="10" stroke-dasharray=""/><path fill="none" stroke="rgb(0,0,0)" class="dcg-svg-minor-gridline" paint-order="fill stroke markers" d=" M 0 299.5 L 600 299.5" stroke-opacity="0.12" stroke-miterlimit="10" stroke-dasharray=""/><path fill="none" stroke="rgb(0,0,0)" class="dcg-svg-minor-gridline" paint-order="fill stroke markers" d=" M 0 274.5 L 600 274.5" stroke-opacity="0.12" stroke-miterlimit="10" stroke-dasharray=""/><path fill="none" stroke="rgb(0,0,0)" class="dcg-svg-minor-gridline" paint-order="fill stroke markers" d=" M 0 249.5 L 600 249.5" stroke-opacity="0.12" stroke-miterlimit="10" stroke-dasharray=""/><path fill="none" stroke="rgb(0,0,0)" class="dcg-svg-minor-gridline" paint-order="fill stroke markers" d=" M 0 224.5 L 600 224.5" stroke-opacity="0.12" stroke-miterlimit="10" stroke-dasharray=""/><path fill="none" stroke="rgb(0,0,0)" class="dcg-svg-minor-gridline" paint-order="fill stroke markers" d=" M 0 174.5 L 600 174.5" stroke-opacity="0.12" stroke-miterlimit="10" stroke-dasharray=""/><path fill="none" stroke="rgb(0,0,0)" class="dcg-svg-minor-gridline" paint-order="fill stroke markers" d=" M 0 149.5 L 600 149.5" stroke-opacity="0.12" stroke-miterlimit="10" stroke-dasharray=""/><path fill="none" stroke="rgb(0,0,0)" class="dcg-svg-minor-gridline" paint-order="fill stroke markers" d=" M 0 124.5 L 600 124.5" stroke-opacity="0.12" stroke-miterlimit="10" stroke-dasharray=""/><path fill="none" stroke="rgb(0,0,0)" class="dcg-svg-minor-gridline" paint-order="fill stroke markers" d=" M 0 99.5 L 600 99.5" stroke-opacity="0.12" stroke-miterlimit="10" stroke-dasharray=""/><path fill="none" stroke="rgb(0,0,0)" class="dcg-svg-minor-gridline" paint-order="fill stroke markers" d=" M 0 74.5 L 600 74.5" stroke-opacity="0.12" stroke-miterlimit="10" stroke-dasharray=""/><path fill="none" stroke="rgb(0,0,0)" class="dcg-svg-minor-gridline" paint-order="fill stroke markers" d=" M 0 49.5 L 600 49.5" stroke-opacity="0.12" stroke-miterlimit="10" stroke-dasharray=""/><path fill="none" stroke="rgb(0,0,0)" class="dcg-svg-minor-gridline" paint-order="fill stroke markers" d=" M 0 24.5 L 600 24.5" stroke-opacity="0.12" stroke-miterlimit="10" stroke-dasharray=""/><path fill="none" stroke="rgb(0,0,0)" class="dcg-svg-minor-gridline" paint-order="fill stroke markers" d=" M 0 -0.5 L 600 -0.5" stroke-opacity="0.12" stroke-miterlimit="10" stroke-dasharray=""/><path fill="none" stroke="rgb(0,0,0)" class="dcg-svg-major-gridline" paint-order="fill stroke markers" d=" M 232.5 0 L 232.5 400" stroke-opacity="0.31818181818181823" stroke-miterlimit="10" stroke-dasharray=""/><path fill="none" stroke="rgb(0,0,0)" class="dcg-svg-major-gridline" paint-order="fill stroke markers" d=" M 366.5 0 L 366.5 400" stroke-opacity="0.31818181818181823" stroke-miterlimit="10" stroke-dasharray=""/><path fill="none" stroke="rgb(0,0,0)" class="dcg-svg-major-gridline" paint-order="fill stroke markers" d=" M 499.5 0 L 499.5 400" stroke-opacity="0.31818181818181823" stroke-miterlimit="10" stroke-dasharray=""/><path fill="none" stroke="rgb(0,0,0)" class="dcg-svg-major-gridline" paint-order="fill stroke markers" d=" M 0 299.5 L 600 299.5" stroke-opacity="0.31818181818181823" stroke-miterlimit="10" stroke-dasharray=""/><path fill="none" stroke="rgb(0,0,0)" class="dcg-svg-major-gridline" paint-order="fill stroke markers" d=" M 0 99.5 L 600 99.5" stroke-opacity="0.31818181818181823" stroke-miterlimit="10" stroke-dasharray=""/><path fill="none" stroke="rgb(0,0,0)" class="dcg-svg-major-gridline" paint-order="fill stroke markers" d=" M 0 -0.5 L 600 -0.5" stroke-opacity="0.31818181818181823" stroke-miterlimit="10" stroke-dasharray=""/></g></g><g id="axis-88ea663f"><g id="yaxis-88ea663f"><title>Y axis</title><path fill="none" stroke="rgb(0,0,0)" class="dcg-svg-axis-line" paint-order="fill stroke markers" d=" M 99.75 0 L 99.75 400" stroke-opacity="0.9" stroke-miterlimit="10" stroke-width="1.5" stroke-dasharray=""/></g><g id="xaxis-88ea663f"><title>X axis</title><path fill="none" stroke="rgb(0,0,0)" class="dcg-svg-axis-line" paint-order="fill stroke markers" d=" M 0 199.75 L 600 199.75" stroke-opacity="0.9" stroke-miterlimit="10" stroke-width="1.5" stroke-dasharray=""/></g><g><g class="dcg-svg-axis-value"><text fill="none" stroke="#ffffff" font-family="Arial" font-size="14px" font-style="normal" font-weight="normal" text-decoration="normal" x="91.10693359375" y="215.808" text-anchor="middle" stroke-miterlimit="2" stroke-width="3" stroke-dasharray="">0</text><text fill="#000000" stroke="none" font-family="Arial" font-size="14px" font-style="normal" font-weight="normal" text-decoration="normal" x="91.10693359375" y="215.808" text-anchor="middle">0</text></g><g class="dcg-svg-axis-value"><text fill="none" stroke="#ffffff" font-family="Arial" font-size="14px" font-style="normal" font-weight="normal" text-decoration="normal" x="233.33333333333334" y="215.808" text-anchor="middle" stroke-miterlimit="2" stroke-width="3" stroke-dasharray="">2</text><text fill="#000000" stroke="none" font-family="Arial" font-size="14px" font-style="normal" font-weight="normal" text-decoration="normal" x="233.33333333333334" y="215.808" text-anchor="middle">2</text></g><g class="dcg-svg-axis-value"><text fill="none" stroke="#ffffff" font-family="Arial" font-size="14px" font-style="normal" font-weight="normal" text-decoration="normal" x="366.6666666666667" y="215.808" text-anchor="middle" stroke-miterlimit="2" stroke-width="3" stroke-dasharray="">4</text><text fill="#000000" stroke="none" font-family="Arial" font-size="14px" font-style="normal" font-weight="normal" text-decoration="normal" x="366.6666666666667" y="215.808" text-anchor="middle">4</text></g><g class="dcg-svg-axis-value"><text fill="none" stroke="#ffffff" font-family="Arial" font-size="14px" font-style="normal" font-weight="normal" text-decoration="normal" x="500" y="215.808" text-anchor="middle" stroke-miterlimit="2" stroke-width="3" stroke-dasharray="">6</text><text fill="#000000" stroke="none" font-family="Arial" font-size="14px" font-style="normal" font-weight="normal" text-decoration="normal" x="500" y="215.808" text-anchor="middle">6</text></g><g class="dcg-svg-axis-value dcg-svg-offcenter-axis-value"><text fill="none" stroke="#ffffff" font-family="Arial" font-size="14px" font-style="normal" font-weight="normal" text-decoration="normal" x="88.77587890625" y="393.808" text-anchor="middle" stroke-miterlimit="2" stroke-width="3" stroke-dasharray="">-4</text><text fill="#000000" stroke="none" font-family="Arial" font-size="14px" font-style="normal" font-weight="normal" text-decoration="normal" x="88.77587890625" y="393.808" text-anchor="middle">-4</text></g><g class="dcg-svg-axis-value"><text fill="none" stroke="#ffffff" font-family="Arial" font-size="14px" font-style="normal" font-weight="normal" text-decoration="normal" x="88.77587890625" y="303.808" text-anchor="middle" stroke-miterlimit="2" stroke-width="3" stroke-dasharray="">-2</text><text fill="#000000" stroke="none" font-family="Arial" font-size="14px" font-style="normal" font-weight="normal" text-decoration="normal" x="88.77587890625" y="303.808" text-anchor="middle">-2</text></g><g class="dcg-svg-axis-value"><text fill="none" stroke="#ffffff" font-family="Arial" font-size="14px" font-style="normal" font-weight="normal" text-decoration="normal" x="91.10693359375" y="103.808" text-anchor="middle" stroke-miterlimit="2" stroke-width="3" stroke-dasharray="">2</text><text fill="#000000" stroke="none" font-family="Arial" font-size="14px" font-style="normal" font-weight="normal" text-decoration="normal" x="91.10693359375" y="103.808" text-anchor="middle">2</text></g><g class="dcg-svg-axis-value dcg-svg-offcenter-axis-value"><text fill="none" stroke="#ffffff" font-family="Arial" font-size="14px" font-style="normal" font-weight="normal" text-decoration="normal" x="91.10693359375" y="13.808" text-anchor="middle" stroke-miterlimit="2" stroke-width="3" stroke-dasharray="">4</text><text fill="#000000" stroke="none" font-family="Arial" font-size="14px" font-style="normal" font-weight="normal" text-decoration="normal" x="91.10693359375" y="13.808" text-anchor="middle">4</text></g></g></g></g><g id="expressions-88ea663f"><g id="sketch-88ea663f"><title>Expression 1</title><path fill="#2d70b3" stroke="none" paint-order="stroke fill markers" d="" fill-opacity="0.4"/><g><path fill="none" stroke="#2d70b3" class="dcg-svg-curve" paint-order="fill stroke markers" d=" M -0.5 174.30901801299456 L -0.5 174.30901801299456 L 3.4550781250000004 179.68514350931434 L 7.263671875000001 184.34633653562463 L 10.92578125 188.35271033634322 L 14.587890625000002 191.89666672132049 L 18.25 194.9839974130638 L 21.912109375 197.622459786073 L 25.574218750000004 199.8217144642308 L 29.089843750000004 201.53044533500943 L 32.458984375 202.80888912013435 L 35.681640625 203.71364329336117 L 38.904296875 204.31857928545145 L 41.98046875 204.6273180542196 L 45.203125 204.68158514947547 L 48.42578125 204.4738062467883 L 51.79492187500001 203.99196003396048 L 55.31054687500001 203.21908830526073 L 59.11914062500001 202.09388645636966 L 63.22070312500001 200.57740865433482 L 67.76171875 198.57100925326108 L 73.03515625 195.8717440345599 L 79.1875 192.32103506697393 L 87.244140625 187.2193664884378 L 112.58593750000001 170.8382717712189 L 119.03125000000001 167.28786957502945 L 124.45117187500001 164.68098444745547 L 129.28515625 162.70347525953628 L 133.6796875 161.2263068054422 L 137.78125 160.14854143139468 L 141.58984375 159.4260444001474 L 145.251953125 158.9976907879917 L 148.767578125 158.8425039428731 L 152.283203125 158.94650509527034 L 155.798828125 159.3164777192626 L 159.314453125 159.95770970300975 L 162.830078125 160.87397127617547 L 166.4921875 162.12326240065858 L 170.30078125 163.7424424263013 L 174.40234375 165.8494863270206 L 178.650390625 168.42440613370425 L 183.19140625 171.6096715255316 L 187.732421875 175.22855266805308 L 192.419921875 179.3999861373761 L 197.400390625 184.2904230724376 L 202.52734375000003 189.7823420475138 L 208.09375000000003 196.2206954546193 L 214.24609375000003 203.83919499043293 L 221.13085937500003 212.87691313255135 L 229.62695312500003 224.56494399176137 L 257.8984375 263.8967456720368 L 264.34375 272.0949069813781 L 270.056640625 278.8701852628317 L 275.18359375 284.47424878189616 L 279.87109375 289.1441979874698 L 284.265625 293.0836127121482 L 288.513671875 296.45145379457483 L 292.615234375 299.2617529896058 L 296.5703125 301.5352953200097 L 300.232421875 303.2386804531348 L 303.6015625 304.4502829148526 L 306.677734375 305.24898369324956 L 309.607421875 305.72932916832696 L 312.390625 305.9267686774255 L 315.173828125 305.8673486743745 L 317.95703125 305.5471723313665 L 320.740234375 304.9629844243063 L 323.669921875 304.05998311695953 L 326.74609375 302.7914764689035 L 329.96875 301.1089143478332 L 333.484375 298.8600372262024 L 337 296.1807960842002 L 340.515625 293.0739637358721 L 344.177734375 289.3879824480641 L 347.986328125 285.0756161992153 L 351.794921875 280.28554548043326 L 355.75 274.81988456633974 L 359.998046875 268.4118257324335 L 364.392578125 261.2237564154033 L 369.080078125 252.9663682317799 L 374.060546875 243.5748102638619 L 379.48046875 232.7004591063452 L 385.486328125 219.95626008941227 L 392.37109375 204.61154838221802 L 400.86718750000006 184.89865058418337 L 428.69921875000006 119.69808140933009 L 435.14453125000006 105.71563335997166 L 440.71093750000006 94.34212865181865 L 445.69140625000006 84.83888018643967 L 450.23242187500006 76.81518979622706 L 454.33398437500006 70.15639869061914 L 458.14257812500006 64.52072913208735 L 461.80468750000006 59.63770597078303 L 465.17382812500006 55.63959295700778 L 468.39648437500006 52.28318525394877 L 471.47265625000006 49.5263849068192 L 474.54882812500006 47.224553307566396 L 477.47851562500006 45.47099081994338 L 480.26171875000006 44.21446474467632 L 482.75195312500006 43.43771511364048 L 485.09570312500006 43.013563745596 L 487.29296875000006 42.89162220625798 L 489.49023437500006 43.041187753864335 L 491.68750000000006 43.466546270337005 L 493.88476562500006 44.17166790640994 L 496.22851562500006 45.236260882494776 L 498.71875000000006 46.72517970507039 L 501.35546875000006 48.708106915760936 L 503.99218750000006 51.113342037397274 L 506.77539062500006 54.11434738408053 L 509.55859375000006 57.59327320916702 L 512.48828125 61.7742429853717 L 515.41796875 66.48906756266967 L 518.494140625 72.01466414462612 L 521.716796875 78.43414548960175 L 525.0859375 85.83244945704331 L 528.6015625 94.2954089903169 L 532.263671875 103.90863637820507 L 536.072265625 114.75620676143353 L 540.02734375 126.91912769714293 L 544.275390625 140.9750183867352 L 548.669921875 156.56015649525438 L 553.357421875 174.30496032309782 L 558.337890625 194.35809238073895 L 563.611328125 216.84597531964752 L 569.32421875 242.53807701349638 L 575.4765625 271.57906405341515 L 582.5078125 306.24380712309375 L 590.7109375 348.22948012871615 L 599.5 394.41399612854" stroke-linecap="round" stroke-linejoin="round" stroke-miterlimit="10" stroke-width="2.5" stroke-opacity="0.9" stroke-dasharray=""/></g></g><g id="sketch-88ea663f"><title>Expression 2</title><path fill="#388c46" stroke="none" paint-order="stroke fill markers" d="" fill-opacity="0.4"/><path fill="#388c46" stroke="none" paint-order="stroke fill markers" d="" fill-opacity="0.4"/><path fill="#388c46" stroke="none" class="dcg-svg-region" paint-order="stroke fill markers" d=" M -0.5 199.5 L 24.990251413908076 199.5 L 24.990251413908076 199.5 L 21.912109375 197.622459786073 L 18.25 194.9839974130638 L 14.587890625000002 191.89666672132049 L 10.92578125 188.35271033634322 L 7.263671875000001 184.34633653562463 L 3.4550781250000004 179.68514350931434 L -0.5 174.30901801299456 M 65.74870024448214 199.5 L 210.79037034673212 199.5 L 210.79037034673212 199.5 L 205.31054687500003 192.94316141257053 L 199.89062500000003 186.90242924244325 L 194.91015625 181.78812412955625 L 190.076171875 177.26030450282158 L 185.388671875 173.30760840596693 L 180.84765625 169.91054972810502 L 176.453125 167.04308045710536 L 172.3515625 164.74906441412085 L 168.396484375 162.89210719065207 L 164.587890625 161.43599736858982 L 160.92578125 160.34335219158496 L 157.41015625 159.5764407505449 L 153.89453125 159.08270617857116 L 150.37890625 158.85755382213347 L 146.86328125 158.8948825425934 L 143.201171875 159.20468966960158 L 139.392578125 159.80924971584835 L 135.4375 160.72753503785435 L 131.189453125 162.02406109757996 L 126.50195312500001 163.79932503950053 L 121.22851562500001 166.1850706573047 L 115.22265625000001 169.3332975533948 L 107.89843750000001 173.66459281000732 L 93.982421875 182.7488396718005 L 83.435546875 189.6796135910359 L 76.404296875 193.97357078477214 L 70.69140625 197.1158773463319 L 65.74870024448214 199.5 M 394.6036633592348 199.5 L 559.5699039289872 199.5 L 559.5699039289872 199.49999999999974 L 556.7265625 187.7398687589772 L 551.892578125 168.6389126777852 L 547.3515625 151.77558302497255 L 542.95703125 136.5048239761707 L 538.85546875 123.22121792573677 L 534.900390625 111.32718716958402 L 531.091796875 100.74454920038357 L 527.4296875 91.39058065178801 L 523.9140625 83.17975397939415 L 520.544921875 76.02524808118983 L 517.322265625 69.84024402075477 L 514.24609375 64.53901956473658 L 511.31640625000006 60.03785800718151 L 508.53320312500006 56.25578784042477 L 505.75000000000006 52.9532685474378 L 502.96679687500006 50.12754334628863 L 500.33007812500006 47.887010689695046 L 497.69335937500006 46.0671764611692 L 495.20312500000006 44.730557741114126 L 492.85937500000006 43.80755660905987 L 490.66210937500006 43.233464743769275 L 488.46484375000006 42.937323079287694 L 486.26757812500006 42.91501308664493 L 484.07031250000006 43.162104435264894 L 481.72656250000006 43.71726987211264 L 479.08984375000006 44.6941487939506 L 476.16015625000006 46.20619159962877 L 473.23046875000006 48.154222747658025 L 470.15429687500006 50.65319118029822 L 466.93164062500006 53.750660730449226 L 463.56250000000006 57.49087389096036 L 460.04687500000006 61.91370562133841 L 456.23828125000006 67.26996581925533 L 452.28320312500006 73.4124394491655 L 448.03515625000006 80.61631271411562 L 443.34765625000006 89.22500028789324 L 438.22070312500006 99.33985262843112 L 432.36132812500006 111.65812054144163 L 425.33007812500006 127.28454654404823 L 403.94335937500006 177.6266756138165 L 394.6036633592348 199.49999999999986" fill-opacity="0.4"/><g><path fill="none" stroke="#388c46" class="dcg-svg-curve" paint-order="fill stroke markers" d=" M -0.5 199.5 L 10.5 199.5 M 17.5 199.5 L 24.990251413908076 199.5" stroke-linecap="round" stroke-linejoin="round" stroke-miterlimit="10" stroke-width="2.5" stroke-opacity="0.9" stroke-dasharray=""/></g><g><path fill="none" stroke="#388c46" class="dcg-svg-curve" paint-order="fill stroke markers" d=" M 65.74870024448214 199.5 L 76.74870024448214 199.5 M 83.74870024448214 199.5 L 94.74870024448214 199.5 M 101.74870024448214 199.5 L 112.74870024448214 199.5 M 119.74870024448214 199.5 L 130.74870024448214 199.5 M 137.74870024448214 199.5 L 148.74870024448214 199.5 M 155.74870024448214 199.5 L 166.74870024448214 199.5 M 173.74870024448214 199.5 L 184.74870024448214 199.5 M 191.74870024448214 199.5 L 202.74870024448214 199.5 M 209.74870024448214 199.5 L 210.79037034673212 199.5" stroke-linecap="round" stroke-linejoin="round" stroke-miterlimit="10" stroke-width="2.5" stroke-opacity="0.9" stroke-dasharray=""/></g><g><path fill="none" stroke="#388c46" class="dcg-svg-curve" paint-order="fill stroke markers" d=" M 394.6036633592348 199.5 L 405.6036633592348 199.5 M 412.6036633592348 199.5 L 423.6036633592348 199.5 M 430.6036633592348 199.5 L 441.6036633592348 199.5 M 448.6036633592348 199.5 L 459.6036633592348 199.5 M 466.6036633592348 199.5 L 477.6036633592348 199.5 M 484.6036633592348 199.5 L 495.6036633592348 199.5 M 502.6036633592348 199.5 L 513.6036633592348 199.5 M 520.6036633592348 199.5 L 531.6036633592348 199.5 M 538.6036633592348 199.5 L 549.6036633592348 199.5 M 556.6036633592348 199.5 L 559.5699039289872 199.5" stroke-linecap="round" stroke-linejoin="round" stroke-miterlimit="10" stroke-width="2.5" stroke-opacity="0.9" stroke-dasharray=""/></g><g><path fill="none" stroke="#388c46" class="dcg-svg-curve" paint-order="fill stroke markers" d=" M -0.5 174.30901801299456 L 3.4550781250000004 179.68514350931434 M 3.4550781250000004 179.68514350931434 L 6.192117932006966 183.0349024226021 M 10.843847254101199 188.26307395988815 L 10.92578125 188.35271033634322 M 10.92578125 188.35271033634322 L 14.587890625000002 191.89666672132049 M 14.587890625000002 191.89666672132049 L 18.25 194.9839974130638 M 18.25 194.9839974130638 L 19.05532045604767 195.5642115748804 M 24.882175720435477 199.43407826601958 L 24.990251413908076 199.5" stroke-linecap="round" stroke-linejoin="round" stroke-miterlimit="10" stroke-width="2.5" stroke-opacity="0.9" stroke-dasharray=""/></g><g><path fill="none" stroke="#388c46" class="dcg-svg-curve" paint-order="fill stroke markers" d=" M 65.74870024448214 199.5 L 70.69140625 197.1158773463319 M 70.69140625 197.1158773463319 L 75.5213311800361 194.45923541219832 M 81.51834501707464 190.85044135419082 L 83.435546875 189.6796135910359 M 83.435546875 189.6796135910359 L 90.75095289598167 184.87236734427205 M 96.60612382130451 181.03611120021276 L 105.81723960418185 175.02317963279674 M 111.78441040955508 171.3665598586457 L 115.22265625000001 169.3332975533948 M 115.22265625000001 169.3332975533948 L 121.22851562500001 166.1850706573047 M 121.22851562500001 166.1850706573047 L 121.4331149848913 166.09250825824978 M 127.84539930493311 163.29053110645603 L 131.189453125 162.02406109757996 M 131.189453125 162.02406109757996 L 135.4375 160.72753503785435 M 135.4375 160.72753503785435 L 138.34288071767037 160.0529672079519 M 145.2599209930598 159.030523612779 L 146.86328125 158.8948825425934 M 146.86328125 158.8948825425934 L 150.37890625 158.85755382213347 M 150.37890625 158.85755382213347 L 153.89453125 159.08270617857116 M 153.89453125 159.08270617857116 L 156.22393348297342 159.4098475586819 M 163.0376201782295 160.97345096342764 L 164.587890625 161.43599736858982 M 164.587890625 161.43599736858982 L 168.396484375 162.89210719065207 M 168.396484375 162.89210719065207 L 172.3515625 164.74906441412085 M 172.3515625 164.74906441412085 L 173.16796811599008 165.20568249093034 M 179.16315208919548 168.81139633876958 L 180.84765625 169.91054972810502 M 180.84765625 169.91054972810502 L 185.388671875 173.30760840596693 M 185.388671875 173.30760840596693 L 187.92488780804752 175.44625178075893 M 193.1312607343075 180.12189656135837 L 194.91015625 181.78812412955625 M 194.91015625 181.78812412955625 L 199.89062500000003 186.90242924244325 M 199.89062500000003 186.90242924244325 L 200.84155198757549 187.96227759040295 M 205.5081429904582 193.17959345116552 L 210.79037034673212 199.5" stroke-linecap="round" stroke-linejoin="round" stroke-miterlimit="10" stroke-width="2.5" stroke-opacity="0.9" stroke-dasharray=""/></g><g><path fill="none" stroke="#388c46" class="dcg-svg-curve" paint-order="fill stroke markers" d=" M 394.6036633592348 199.49999999999986 L 398.9232579892437 189.3836220794001 M 401.672090935613 182.94592703901844 L 403.94335937500006 177.6266756138165 M 403.94335937500006 177.6266756138165 L 405.98290006048404 172.8258072977417 M 408.719942948178 166.38309077201097 L 413.0210103431257 156.25882194586268 M 415.7580532308196 149.81610542013195 L 420.05912062576726 139.69183659398362 M 422.7961635134612 133.2491200682529 L 425.33007812500006 127.28454654404823 M 425.33007812500006 127.28454654404823 L 427.18458115758466 123.16305258347326 M 430.0569159003404 116.779503952378 L 432.36132812500006 111.65812054144163 M 432.36132812500006 111.65812054144163 L 434.6740315423317 106.79608315724514 M 437.68086117201926 100.47477193424454 L 438.22070312500006 99.33985262843112 M 438.22070312500006 99.33985262843112 L 442.6257319811184 90.64926869892702 M 445.93153622412484 84.47965299714535 L 448.03515625000006 80.61631271411562 M 448.03515625000006 80.61631271411562 L 451.38817007854084 74.93024394246792 M 455.1188834076959 69.00845783140285 L 456.23828125000006 67.26996581925533 M 456.23828125000006 67.26996581925533 L 460.04687500000006 61.91370562133841 M 460.04687500000006 61.91370562133841 L 461.5153884655622 60.06624238166531 M 466.04565232774627 54.73423056569394 L 466.93164062500006 53.750660730449226 M 466.93164062500006 53.750660730449226 L 470.15429687500006 50.65319118029822 M 470.15429687500006 50.65319118029822 L 473.23046875000006 48.154222747658025 M 473.23046875000006 48.154222747658025 L 474.26558018541704 47.4659482071572 M 480.4288591091962 44.198056489674315 L 481.72656250000006 43.71726987211264 M 481.72656250000006 43.71726987211264 L 484.07031250000006 43.162104435264894 M 484.07031250000006 43.162104435264894 L 486.26757812500006 42.91501308664493 M 486.26757812500006 42.91501308664493 L 488.46484375000006 42.937323079287694 M 488.46484375000006 42.937323079287694 L 490.66210937500006 43.233464743769275 M 490.66210937500006 43.233464743769275 L 491.2250768828542 43.380554409672534 M 497.6630673085474 46.05091737186568 L 497.69335937500006 46.0671764611692 M 497.69335937500006 46.0671764611692 L 500.33007812500006 47.887010689695046 M 500.33007812500006 47.887010689695046 L 502.96679687500006 50.12754334628863 M 502.96679687500006 50.12754334628863 L 505.75000000000006 52.9532685474378 M 505.75000000000006 52.9532685474378 L 505.9662285033209 53.209842994878066 M 510.32117926226965 58.68545283573129 L 511.31640625000006 60.03785800718151 M 511.31640625000006 60.03785800718151 L 514.24609375 64.53901956473658 M 514.24609375 64.53901956473658 L 516.2287123150262 67.95570317376689 M 519.5500312408054 74.11582860395501 L 520.544921875 76.02524808118983 M 520.544921875 76.02524808118983 L 523.9140625 83.17975397939415 M 523.9140625 83.17975397939415 L 524.2835940472884 84.04280378839434 M 527.038843559186 90.4777552355451 L 527.4296875 91.39058065178801 M 527.4296875 91.39058065178801 L 531.077846598617 100.70891660911755 M 533.4492382792256 107.29498501794036 L 534.900390625 111.32718716958402 M 534.900390625 111.32718716958402 L 537.0191109385645 117.69877422217134 M 539.203669697786 124.34892577287474 L 542.4489478475726 134.85930967311918 M 544.4166198984115 141.57681579788257 L 547.3515625 151.77558302497255 M 547.3515625 151.77558302497255 L 547.452276685364 152.14959109910436 M 549.2724230261529 158.90881200821164 L 551.892578125 168.6389126777852 M 551.892578125 168.6389126777852 L 552.1190989385888 169.5339846879909 M 553.836484178136 176.3200430386821 L 556.5352324117102 186.9838490183396 M 558.1883385983257 193.78581124975398 L 559.5699039289872 199.49999999999974" stroke-linecap="round" stroke-linejoin="round" stroke-miterlimit="10" stroke-width="2.5" stroke-opacity="0.9" stroke-dasharray=""/></g></g><g id="sketch-88ea663f"><title>Expression 3</title><path fill="#6042a6" stroke="none" paint-order="stroke fill markers" d="" fill-opacity="0.4"/><path fill="#6042a6" stroke="none" paint-order="stroke fill markers" d="" fill-opacity="0.4"/><path fill="#6042a6" stroke="none" class="dcg-svg-region" paint-order="stroke fill markers" d=" M 24.990251413908137 199.50000000000003 L 28.503906250000004 201.27255300729274 L 31.873046875 202.6112972011774 L 35.095703125 203.57177953604455 L 38.318359375 204.23036365256414 L 41.39453125 204.58822369268222 L 44.6171875 204.6916177141679 L 47.83984375 204.53043882121113 L 51.20898437500001 204.09446703478847 L 54.72460937500001 203.36621941852275 L 58.53320312500001 202.28546129515092 L 62.63476562500001 200.81213744385167 L 65.74870024448211 199.50000000000003 L 65.74870024448211 199.5 L 24.990251413908137 199.5 M 210.79037034673217 199.50000000000003 L 217.17578125000003 207.62646519341823 L 224.64648437500003 217.65597739781109 L 234.75390625000003 231.78846050790466 L 253.06445312500003 257.4450369180762 L 260.388671875 267.1254548009537 L 266.541015625 274.76128121480804 L 271.9609375 281.0082486415229 L 276.94140625 286.27914397514843 L 281.62890625 290.7731991772953 L 286.0234375 294.53164045191215 L 290.125 297.6088057377521 L 294.2265625 300.24107641166916 L 298.03515625 302.264000618715 L 301.55078125 303.7540584615466 L 304.7734375 304.78963895605347 L 307.849609375 305.4743054850916 L 310.779296875 305.8434925459976 L 313.5625 305.9332961159805 L 316.345703125 305.76452225697653 L 319.12890625 305.33354230877364 L 321.912109375 304.63737591447557 L 324.841796875 303.61554217172943 L 327.91796875 302.2215612143709 L 331.287109375 300.3161186739174 L 334.802734375 297.9056460584339 L 338.318359375 295.0656349482151 L 341.98046875 291.6542832333349 L 345.642578125 287.7866539145941 L 349.451171875 283.28914479642583 L 353.40625 278.1183113742218 L 357.5078125 272.23447894292747 L 361.755859375 265.603125723086 L 366.296875 257.94034467793483 L 371.130859375 249.17322170160352 L 376.2578125 239.2440469403223 L 381.82421875 227.80755913907174 L 388.123046875 214.1622066491124 L 394.6036633592347 199.50000000000014 L 394.6036633592347 199.5 L 210.79037034673217 199.5 M 559.5699039289872 199.50000000000026 L 564.9296875 222.6572271430337 L 570.7890625 249.33071929193414 L 577.234375 280.1094843514057 L 584.412109375 315.8609369723842 L 593.201171875 361.22036530130384 L 599.5 394.41399612854 L 599.5 199.5 L 559.5699039289872 199.5" fill-opacity="0.4"/><g><path fill="none" stroke="#6042a6" class="dcg-svg-curve" paint-order="fill stroke markers" d=" M 24.990251413908137 199.50000000000003 L 28.503906250000004 201.27255300729274 M 28.503906250000004 201.27255300729274 L 31.873046875 202.6112972011774 M 31.873046875 202.6112972011774 L 35.095703125 203.57177953604455 M 35.095703125 203.57177953604455 L 35.17059394846376 203.58708427318686 M 42.084435283823055 204.61035821369921 L 44.6171875 204.6916177141679 M 44.6171875 204.6916177141679 L 47.83984375 204.53043882121113 M 47.83984375 204.53043882121113 L 51.20898437500001 204.09446703478847 M 51.20898437500001 204.09446703478847 L 53.01272114922437 203.72083019746944 M 59.74988997606425 201.84841474100597 L 62.63476562500001 200.81213744385167 M 62.63476562500001 200.81213744385167 L 65.74870024448211 199.50000000000003" stroke-linecap="round" stroke-linejoin="round" stroke-miterlimit="10" stroke-width="2.5" stroke-opacity="0.9" stroke-dasharray=""/></g><g><path fill="none" stroke="#6042a6" class="dcg-svg-curve" paint-order="fill stroke markers" d=" M 210.79037034673217 199.50000000000003 L 217.17578125000003 207.62646519341823 M 217.17578125000003 207.62646519341823 L 217.57300905500566 208.1597484803549 M 221.75456243392173 213.77353609116415 L 224.64648437500003 217.65597739781109 M 224.64648437500003 217.65597739781109 L 228.2292550795321 222.66550871997504 M 232.30133400734644 228.35920463788725 L 234.75390625000003 231.78846050790466 M 234.75390625000003 231.78846050790466 L 238.69478833564557 237.31038964765574 M 242.76116442188624 243.00815987163372 L 249.15118398597872 251.96179879502768 M 253.22347788478498 257.6552198988129 L 259.8604812648163 266.4273454185175 M 264.2312860764634 271.8946185879716 L 266.541015625 274.76128121480804 M 266.541015625 274.76128121480804 L 271.3371716899712 280.2893001424455 M 276.1148150989492 285.4043517297619 L 276.94140625 286.27914397514843 M 276.94140625 286.27914397514843 L 281.62890625 290.7731991772953 M 281.62890625 290.7731991772953 L 284.13882625016106 292.9198187796913 M 289.6391253885295 297.24428209884917 L 290.125 297.6088057377521 M 290.125 297.6088057377521 L 294.2265625 300.24107641166916 M 294.2265625 300.24107641166916 L 298.03515625 302.264000618715 M 298.03515625 302.264000618715 L 299.1460212296363 302.7348281601149 M 305.7526793090255 305.00758974609977 L 307.849609375 305.4743054850916 M 307.849609375 305.4743054850916 L 310.779296875 305.8434925459976 M 310.779296875 305.8434925459976 L 313.5625 305.9332961159805 M 313.5625 305.9332961159805 L 316.345703125 305.76452225697653 M 316.345703125 305.76452225697653 L 316.66779851016133 305.7146456773024 M 323.4611995238808 304.09707508557074 L 324.841796875 303.61554217172943 M 324.841796875 303.61554217172943 L 327.91796875 302.2215612143709 M 327.91796875 302.2215612143709 L 331.287109375 300.3161186739174 M 331.287109375 300.3161186739174 L 333.1757339957054 299.02119161851806 M 338.6899673892369 294.71947225703923 L 341.98046875 291.6542832333349 M 341.98046875 291.6542832333349 L 345.642578125 287.7866539145941 M 345.642578125 287.7866539145941 L 346.40301678622046 286.8886637278889 M 350.83833045674373 281.47558619412195 L 353.40625 278.1183113742218 M 353.40625 278.1183113742218 L 357.2795896030138 272.56187253569885 M 361.0684245711722 266.6762360568307 L 361.755859375 265.603125723086 M 361.755859375 265.603125723086 L 366.296875 257.94034467793483 M 366.296875 257.94034467793483 L 366.692005043196 257.22371975497106 M 370.07191197343286 251.09377447438848 L 371.130859375 249.17322170160352 M 371.130859375 249.17322170160352 L 375.17144038304446 241.34798242442807 M 378.2850139453288 235.0790500717987 L 381.82421875 227.80755913907174 M 381.82421875 227.80755913907174 L 383.0450652658996 225.16280034981855 M 385.9788461586314 218.80725712571555 L 388.123046875 214.1622066491124 M 388.123046875 214.1622066491124 L 390.5017259298977 208.7805143456612 M 393.3315914816164 202.37802569208313 L 394.6036633592347 199.50000000000014" stroke-linecap="round" stroke-linejoin="round" stroke-miterlimit="10" stroke-width="2.5" stroke-opacity="0.9" stroke-dasharray=""/></g><g><path fill="none" stroke="#6042a6" class="dcg-svg-curve" paint-order="fill stroke markers" d=" M 559.5699039289872 199.50000000000026 L 562.0503037496475 210.21669803296118 M 563.6287399991586 217.03641496302723 L 564.9296875 222.6572271430337 M 564.9296875 222.6572271430337 L 566.0519367280446 227.76601536248657 M 567.553819282147 234.60299925845146 L 569.9139204385934 245.34683109496768 M 571.3877817572519 252.18982648891426 L 573.6423640411394 262.95629567454705 M 575.0770982217953 269.80768515631337 L 577.234375 280.1094843514057 M 577.234375 280.1094843514057 L 577.3278244619022 280.57494515492755 M 578.7057026838401 287.43799488558733 L 580.8709398897425 298.22278731948126 M 582.2488181116805 305.08583705014104 L 584.412109375 315.8609369723842 M 584.412109375 315.8609369723842 L 584.413989941841 315.87064238030933 M 585.7455770697807 322.7428236730799 L 587.8380711279716 333.54196570457646 M 589.1696582559113 340.414146997347 L 591.2621523141022 351.2132890288436 M 592.5937394420419 358.0854703216141 L 593.201171875 361.22036530130384 M 593.201171875 361.22036530130384 L 594.6566181548377 368.8902914436063 M 595.9616505512785 375.767564918192 L 598.0124157456853 386.57470894968384 M 599.3174481421261 393.45198242426954 L 599.5 394.41399612854" stroke-linecap="round" stroke-linejoin="round" stroke-miterlimit="10" stroke-width="2.5" stroke-opacity="0.9" stroke-dasharray=""/></g><g><path fill="none" stroke="#6042a6" class="dcg-svg-curve" paint-order="fill stroke markers" d=" M 24.990251413908137 199.5 L 35.99025141390814 199.5 M 42.99025141390814 199.5 L 53.99025141390814 199.5 M 60.99025141390814 199.5 L 65.74870024448211 199.5" stroke-linecap="round" stroke-linejoin="round" stroke-miterlimit="10" stroke-width="2.5" stroke-opacity="0.9" stroke-dasharray=""/></g><g><path fill="none" stroke="#6042a6" class="dcg-svg-curve" paint-order="fill stroke markers" d=" M 210.79037034673217 199.5 L 221.79037034673217 199.5 M 228.79037034673217 199.5 L 239.79037034673217 199.5 M 246.79037034673217 199.5 L 257.7903703467322 199.5 M 264.7903703467322 199.5 L 275.7903703467322 199.5 M 282.7903703467322 199.5 L 293.7903703467322 199.5 M 300.7903703467322 199.5 L 311.7903703467322 199.5 M 318.7903703467322 199.5 L 329.7903703467322 199.5 M 336.7903703467322 199.5 L 347.7903703467322 199.5 M 354.7903703467322 199.5 L 365.7903703467322 199.5 M 372.7903703467322 199.5 L 383.7903703467322 199.5 M 390.7903703467322 199.5 L 394.6036633592347 199.5" stroke-linecap="round" stroke-linejoin="round" stroke-miterlimit="10" stroke-width="2.5" stroke-opacity="0.9" stroke-dasharray=""/></g><g><path fill="none" stroke="#6042a6" class="dcg-svg-curve" paint-order="fill stroke markers" d=" M 559.5699039289872 199.5 L 570.5699039289872 199.5 M 577.5699039289872 199.5 L 588.5699039289872 199.5 M 595.5699039289872 199.5 L 599.5 199.5" stroke-linecap="round" stroke-linejoin="round" stroke-miterlimit="10" stroke-width="2.5" stroke-opacity="0.9" stroke-dasharray=""/></g></g></g><g id="labels-88ea663f"/></g></svg>