<svg version="1.1" xmlns="http://www.w3.org/2000/svg" xmlns:xlink="http://www.w3.org/1999/xlink" width="600" height="400"><defs/><g transform="scale(1,1)"><g id="background-748244be"><rect fill="white" stroke="none" x="0" y="0" width="600" height="400" class="dcg-svg-background"/></g><g id="background-images-748244be"/><g id="graphpaper-748244be"><g id="grid-748244be"><g><path fill="none" stroke="rgb(0,0,0)" class="dcg-svg-minor-gridline" paint-order="fill stroke markers" d=" M -0.5 0 L -0.5 400" stroke-opacity="0.12" stroke-miterlimit="10" stroke-dasharray=""/><path fill="none" stroke="rgb(0,0,0)" class="dcg-svg-minor-gridline" paint-order="fill stroke markers" d=" M 32.5 0 L 32.5 400" stroke-opacity="0.12" stroke-miterlimit="10" stroke-dasharray=""/><path fill="none" stroke="rgb(0,0,0)" class="dcg-svg-minor-gridline" paint-order="fill stroke markers" d=" M 66.5 0 L 66.5 400" stroke-opacity="0.12" stroke-miterlimit="10" stroke-dasharray=""/><path fill="none" stroke="rgb(0,0,0)" class="dcg-svg-minor-gridline" paint-order="fill stroke markers" d=" M 99.5 0 L 99.5 400" stroke-opacity="0.12" stroke-miterlimit="10" stroke-dasharray=""/><path fill="none" stroke="rgb(0,0,0)" class="dcg-svg-minor-gridline" paint-order="fill stroke markers" d=" M 132.5 0 L 132.5 400" stroke-opacity="0.12" stroke-miterlimit="10" stroke-dasharray=""/><path fill="none" stroke="rgb(0,0,0)" class="dcg-svg-minor-gridline" paint-order="fill stroke markers" d=" M 199.5 0 L 199.5 400" stroke-opacity="0.12" stroke-miterlimit="10" stroke-dasharray=""/><path fill="none" stroke="rgb(0,0,0)" class="dcg-svg-minor-gridline" paint-order="fill stroke markers" d=" M 232.5 0 L 232.5 400" stroke-opacity="0.12" stroke-miterlimit="10" stroke-dasharray=""/><path fill="none" stroke="rgb(0,0,0)" class="dcg-svg-minor-gridline" paint-order="fill stroke markers" d=" M 266.5 0 L 266.5 400" stroke-opacity="0.12" stroke-miterlimit="10" stroke-dasharray=""/><path fill="none" stroke="rgb(0,0,0)" class="dcg-svg-minor-gridline" paint-order="fill stroke markers" d=" M 299.5 0 L 299.5 400" stroke-opacity="0.12" stroke-miterlimit="10" stroke-dasharray=""/><path fill="none" stroke="rgb(0,0,0)" class="dcg-svg-minor-gridline" paint-order="fill stroke markers" d=" M 332.5 0 L 332.5 400" stroke-opacity="0.12" stroke-miterlimit="10" stroke-dasharray=""/><path fill="none" stroke="rgb(0,0,0)" class="dcg-svg-minor-gridline" paint-order="fill stroke markers" d=" M 366.5 0 L 366.5 400" stroke-opacity="0.12" stroke-miterlimit="10" stroke-dasharray=""/><path fill="none" stroke="rgb(0,0,0)" class="dcg-svg-minor-gridline" paint-order="fill stroke markers" d=" M 399.5 0 L 399.5 400" stroke-opacity="0.12" stroke-miterlimit="10" stroke-dasharray=""/><path fill="none" stroke="rgb(0,0,0)" class="dcg-svg-minor-gridline" paint-order="fill stroke markers" d=" M 432.5 0 L 432.5 400" stroke-opacity="0.12" stroke-miterlimit="10" stroke-dasharray=""/><path fill="none" stroke="rgb(0,0,0)" class="dcg-svg-minor-gridline" paint-order="fill stroke markers" d=" M 466.5 0 L 466.5 400" stroke-opacity="0.12" stroke-miterlimit="10" stroke-dasharray=""/><path fill="none" stroke="rgb(0,0,0)" class="dcg-svg-minor-gridline" paint-order="fill stroke markers" d=" M 499.5 0 L 499.5 400" stroke-opacity="0.12" stroke-miterlimit="10" stroke-dasharray=""/><path fill="none" stroke="rgb(0,0,0)" class="dcg-svg-minor-gridline" paint-order="fill stroke markers" d=" M 532.5 0 L 532.5 400" stroke-opacity="0.12" stroke-miterlimit="10" stroke-dasharray=""/><path fill="none" stroke="rgb(0,0,0)" class="dcg-svg-minor-gridline" paint-order="fill stroke markers" d=" M 566.5 0 L 566.5 400" stroke-opacity="0.12" stroke-miterlimit="10" stroke-dasharray=""/><path fill="none" stroke="rgb(0,0,0)" class="dcg-svg-minor-gridline" paint-order="fill stroke markers" d=" M 0 374.5 L 600 374.5" stroke-opacity="0.12" stroke-miterlimit="10" stroke-dasharray=""/><path fill="none" stroke="rgb(0,0,0)" class="dcg-svg-minor-gridline" paint-order="fill stroke markers" d=" M 0 349.5 L 600 349.5" stroke-opacity="0.12" stroke-miterlimit="10" stroke-dasharray=""/><path fill="none" stroke="rgb(0,0,0)" class="dcg-svg-minor-gridline" paint-order="fill stroke markers" d=" M 0 324.5 L 600 324.5" stroke-opacity="0.12" stroke-miterlimit="10" stroke-dasharray=""/><path fill="none" stroke="rgb(0,0,0)" class="dcg-svg-minor-gridline" paint-order="fill stroke markers" d=" M 0 299.5 L 600 299.5" stroke-opacity="0.12" stroke-miterlimit="10" stroke-dasharray=""/><path fill="none" stroke="rgb(0,0,0)" class="dcg-svg-minor-gridline" paint-order="fill stroke markers" d=" M 0 274.5 L 600 274.5" stroke-opacity="0.12" stroke-miterlimit="10" stroke-dasharray=""/><path fill="none" stroke="rgb(0,0,0)" class="dcg-svg-minor-gridline" paint-order="fill stroke markers" d=" M 0 249.5 L 600 249.5" stroke-opacity="0.12" stroke-miterlimit="10" stroke-dasharray=""/><path fill="none" stroke="rgb(0,0,0)" class="dcg-svg-minor-gridline" paint-order="fill stroke markers" d=" M 0 224.5 L 600 224.5" stroke-opacity="0.12" stroke-miterlimit="10" stroke-dasharray=""/><path fill="none" stroke="rgb(0,0,0)" class="dcg-svg-minor-gridline" paint-order="fill stroke markers" d=" M 0 174.5 L 600 174.5" stroke-opacity="0.12" stroke-miterlimit="10" stroke-dasharray=""/><path fill="none" stroke="rgb(0,0,0)" class="dcg-svg-minor-gridline" paint-order="fill stroke markers" d=" M 0 149.5 L 600 149.5" stroke-opacity="0.12" stroke-miterlimit="10" stroke-dasharray=""/><path fill="none" stroke="rgb(0,0,0)" class="dcg-svg-minor-gridline" paint-order="fill stroke markers" d=" M 0 124.5 L 600 124.5" stroke-opacity="0.12" stroke-miterlimit="10" stroke-dasharray=""/><path fill="none" stroke="rgb(0,0,0)" class="dcg-svg-minor-gridline" paint-order="fill stroke markers" d=" M 0 99.5 L 600 99.5" stroke-opacity="0.12" stroke-miterlimit="10" stroke-dasharray=""/><path fill="none" stroke="rgb(0,0,0)" class="dcg-svg-minor-gridline" paint-order="fill stroke markers" d=" M 0 74.5 L 600 74.5" stroke-opacity="0.12" stroke-miterlimit="10" stroke-dasharray=""/><path fill="none" stroke="rgb(0,0,0)" class="dcg-svg-minor-gridline" paint-order="fill stroke markers" d=" M 0 49.5 L 600 49.5" stroke-opacity="0.12" stroke-miterlimit="10" stroke-dasharray=""/><path fill="none" stroke="rgb(0,0,0)" class="dcg-svg-minor-gridline" paint-order="fill stroke markers" d=" M 0 24.5 L 600 24.5" stroke-opacity="0.12" stroke-miterlimit="10" stroke-dasharray=""/><path fill="none" stroke="rgb(0,0,0)" class="dcg-svg-minor-gridline" paint-order="fill stroke markers" d=" M 0 -0.5 L 600 -0.5" stroke-opacity="0.12" stroke-miterlimit="10" stroke-dasharray=""/><path fill="none" stroke="rgb(0,0,0)" class="dcg-svg-major-gridline" paint-order="fill stroke markers" d=" M 32.5 0 L 32.5 400" stroke-opacity="0.31818181818181823" stroke-miterlimit="10" stroke-dasharray=""/><path fill="none" stroke="rgb(0,0,0)" class="dcg-svg-major-gridline" paint-order="fill stroke markers" d=" M 299.5 0 L 299.5 400" stroke-opacity="0.31818181818181823" stroke-miterlimit="10" stroke-dasharray=""/><path fill="none" stroke="rgb(0,0,0)" class="dcg-svg-major-gridline" paint-order="fill stroke markers" d=" M 432.5 0 L 432.5 400" stroke-opacity="0.31818181818181823" stroke-miterlimit="10" stroke-dasharray=""/><path fill="none" stroke="rgb(0,0,0)" class="dcg-svg-major-gridline" paint-order="fill stroke markers" d=" M 566.5 0 L 566.5 400" stroke-opacity="0.31818181818181823" stroke-miterlimit="10" stroke-dasharray=""/><path fill="none" stroke="rgb(0,0,0)" class="dcg-svg-major-gridline" paint-order="fill stroke markers" d=" M 0 299.5 L 600 299.5" stroke-opacity="0.31818181818181823" stroke-miterlimit="10" stroke-dasharray=""/><path fill="none" stroke="rgb(0,0,0)" class="dcg-svg-major-gridline" paint-order="fill stroke markers" d=" M 0 99.5 L 600 99.5" stroke-opacity="0.31818181818181823" stroke-miterlimit="10" stroke-dasharray=""/><path fill="none" stroke="rgb(0,0,0)" class="dcg-svg-major-gridline" paint-order="fill stroke markers" d=" M 0 -0.5 L 600 -0.5" stroke-opacity="0.31818181818181823" stroke-miterlimit="10" stroke-dasharray=""/></g></g><g id="axis-748244be"><g id="yaxis-748244be"><title>Y axis</title><path fill="none" stroke="rgb(0,0,0)" class="dcg-svg-axis-line" paint-order="fill stroke markers" d=" M 166.75 0 L 166.75 400" stroke-opacity="0.9" stroke-miterlimit="10" stroke-width="1.5" stroke-dasharray=""/></g><g id="xaxis-748244be"><title>X axis</title><path fill="none" stroke="rgb(0,0,0)" class="dcg-svg-axis-line" paint-order="fill stroke markers" d=" M 0 199.75 L 600 199.75" stroke-opacity="0.9" stroke-miterlimit="10" stroke-width="1.5" stroke-dasharray=""/></g><g><g class="dcg-svg-axis-value"><text fill="none" stroke="#ffffff" font-family="Arial" font-size="14px" font-style="normal" font-weight="normal" text-decoration="normal" x="157.77360026041669" y="215.808" text-anchor="middle" stroke-miterlimit="2" stroke-width="3" stroke-dasharray="">0</text><text fill="#000000" stroke="none" font-family="Arial" font-size="14px" font-style="normal" font-weight="normal" text-decoration="normal" x="157.77360026041669" y="215.808" text-anchor="middle">0</text></g><g class="dcg-svg-axis-value"><text fill="none" stroke="#ffffff" font-family="Arial" font-size="14px" font-style="normal" font-weight="normal" text-decoration="normal" x="31.002278645833343" y="215.808" text-anchor="middle" stroke-miterlimit="2" stroke-width="3" stroke-dasharray="">-2</text><text fill="#000000" stroke="none" font-family="Arial" font-size="14px" font-style="normal" font-weight="normal" text-decoration="normal" x="31.002278645833343" y="215.808" text-anchor="middle">-2</text></g><g class="dcg-svg-axis-value"><text fill="none" stroke="#ffffff" font-family="Arial" font-size="14px" font-style="normal" font-weight="normal" text-decoration="normal" x="300" y="215.808" text-anchor="middle" stroke-miterlimit="2" stroke-width="3" stroke-dasharray="">2</text><text fill="#000000" stroke="none" font-family="Arial" font-size="14px" font-style="normal" font-weight="normal" text-decoration="normal" x="300" y="215.808" text-anchor="middle">2</text></g><g class="dcg-svg-axis-value"><text fill="none" stroke="#ffffff" font-family="Arial" font-size="14px" font-style="normal" font-weight="normal" text-decoration="normal" x="433.33333333333337" y="215.808" text-anchor="middle" stroke-miterlimit="2" stroke-width="3" stroke-dasharray="">4</text><text fill="#000000" stroke="none" font-family="Arial" font-size="14px" font-style="normal" font-weight="normal" text-decoration="normal" x="433.33333333333337" y="215.808" text-anchor="middle">4</text></g><g class="dcg-svg-axis-value"><text fill="none" stroke="#ffffff" font-family="Arial" font-size="14px" font-style="normal" font-weight="normal" text-decoration="normal" x="566.6666666666667" y="215.808" text-anchor="middle" stroke-miterlimit="2" stroke-width="3" stroke-dasharray="">6</text><text fill="#000000" stroke="none" font-family="Arial" font-size="14px" font-style="normal" font-weight="normal" text-decoration="normal" x="566.6666666666667" y="215.808" text-anchor="middle">6</text></g><g class="dcg-svg-axis-value dcg-svg-offcenter-axis-value"><text fill="none" stroke="#ffffff" font-family="Arial" font-size="14px" font-style="normal" font-weight="normal" text-decoration="normal" x="155.44254557291669" y="393.808" text-anchor="middle" stroke-miterlimit="2" stroke-width="3" stroke-dasharray="">-4</text><text fill="#000000" stroke="none" font-family="Arial" font-size="14px" font-style="normal" font-weight="normal" text-decoration="normal" x="155.44254557291669" y="393.808" text-anchor="middle">-4</text></g><g class="dcg-svg-axis-value"><text fill="none" stroke="#ffffff" font-family="Arial" font-size="14px" font-style="normal" font-weight="normal" text-decoration="normal" x="155.44254557291669" y="303.808" text-anchor="middle" stroke-miterlimit="2" stroke-width="3" stroke-dasharray="">-2</text><text fill="#000000" stroke="none" font-family="Arial" font-size="14px" font-style="normal" font-weight="normal" text-decoration="normal" x="155.44254557291669" y="303.808" text-anchor="middle">-2</text></g><g class="dcg-svg-axis-value"><text fill="none" stroke="#ffffff" font-family="Arial" font-size="14px" font-style="normal" font-weight="normal" text-decoration="normal" x="157.77360026041669" y="103.808" text-anchor="middle" stroke-miterlimit="2" stroke-width="3" stroke-dasharray="">2</text><text fill="#000000" stroke="none" font-family="Arial" font-size="14px" font-style="normal" font-weight="normal" text-decoration="normal" x="157.77360026041669" y="103.808" text-anchor="middle">2</text></g><g class="dcg-svg-axis-value dcg-svg-offcenter-axis-value"><text fill="none" stroke="#ffffff" font-family="Arial" font-size="14px" font-style="normal" font-weight="normal" text-decoration="normal" x="157.77360026041669" y="13.808" text-anchor="middle" stroke-miterlimit="2" stroke-width="3" stroke-dasharray="">4</text><text fill="#000000" stroke="none" font-family="Arial" font-size="14px" font-style="normal" font-weight="normal" text-decoration="normal" x="157.77360026041669" y="13.808" text-anchor="middle">4</text></g></g></g></g><g id="expressions-748244be"><g id="sketch-748244be"><title>Expression 1</title><path fill="#2d70b3" stroke="none" paint-order="stroke fill markers" d="" fill-opacity="0.4"/><g><path fill="none" stroke="#2d70b3" class="dcg-svg-curve" paint-order="fill stroke markers" d=" M -0.5 13.112935154316517 L -0.5 13.112935154316517 L 9.4609375 43.47717803862167 L 17.078125 65.78496332916899 L 23.669921875 84.21340367887706 L 29.675781250000004 100.15223665534234 L 35.2421875 114.10262088138427 L 40.515625 126.51924855711513 L 45.49609375 137.48138621180726 L 50.18359375000001 147.08461290350797 L 54.72460937500001 155.70192706481086 L 58.97265625000001 163.13537859919498 L 63.07421875000001 169.72564655663658 L 67.029296875 175.528131422199 L 70.984375 180.7851875133271 L 74.79296875 185.3319268985159 L 78.455078125 189.22896041430647 L 82.1171875 192.6647607850329 L 85.779296875 195.6455879686313 L 89.44140625 198.17965355849816 L 93.103515625 200.27705660962263 L 96.619140625 201.8907953232074 L 99.98828125000001 203.08109964330376 L 103.21093750000001 203.9044768607575 L 106.43359375000001 204.4311526120828 L 109.50976562500001 204.6683107391427 L 112.73242187500001 204.65107091418568 L 115.95507812500001 204.3755499342943 L 119.32421875000001 203.8271129924016 L 122.98632812500001 202.94909445173596 L 126.94140625000001 201.69719690418006 L 131.189453125 200.03532996442956 L 136.0234375 197.79325116937682 L 141.443359375 194.9056795043022 L 148.03515625 190.98084487289313 L 157.1171875 185.1036779279279 L 175.8671875 172.862201417633 L 182.8984375 168.77581189525122 L 188.7578125 165.76883293356212 L 193.884765625 163.50602491651773 L 198.572265625 161.78392853725197 L 202.82031250000003 160.54004798892043 L 206.77539062500003 159.6741751475446 L 210.58398437500003 159.1228116503874 L 214.24609375000003 158.8663370174237 L 217.76171875000003 158.8819094914331 L 221.27734375000003 159.16132690346134 L 224.79296875000003 159.71038537789417 L 228.30859375000003 160.53337013441976 L 231.97070312500003 161.68488491063047 L 235.77929687500003 163.20233994403804 L 239.73437500000003 165.12270852172492 L 243.98242187500003 167.57279838101303 L 248.52343750000003 170.62781024590373 L 253.06445312500003 174.12092485908434 L 257.751953125 178.16850344529092 L 262.5859375 182.7886141143144 L 267.712890625 188.1504822150818 L 273.1328125 194.2902899342509 L 278.9921875 201.40949871181851 L 285.583984375 209.9202497388874 L 293.494140625 220.6642991060973 L 305.505859375 237.57947572775467 L 318.982421875 256.42709378380755 L 326.453125 266.35126160714105 L 332.751953125 274.21419754850945 L 338.318359375 280.6654419866636 L 343.298828125 285.9661686466043 L 347.986328125 290.49166146626624 L 352.380859375 294.2823771671641 L 356.62890625 297.49499247603495 L 360.73046875 300.14543195051505 L 364.5390625 302.18612351617935 L 368.0546875 303.6932819314116 L 371.27734375 304.74507341798085 L 374.353515625 305.44564395778997 L 377.283203125 305.8303253575313 L 380.06640625 305.93512460178016 L 382.849609375 305.78157834459 L 385.6328125 305.36602050466234 L 388.416015625 304.68543238895387 L 391.345703125 303.68012248621636 L 394.421875 302.30358012696183 L 397.64453125 300.5075293025378 L 401.16015625000006 298.1349447475975 L 404.67578125000006 295.3326050205255 L 408.33789062500006 291.96009000229486 L 412.00000000000006 288.1307039413788 L 415.80859375000006 283.67214098584185 L 419.76367187500006 278.5406414696719 L 423.86523437500006 272.6961633736986 L 428.11328125000006 266.10376275884926 L 432.65429687500006 258.48028026219777 L 437.48828125000006 249.75197532528176 L 442.61523437500006 239.8601582670643 L 448.18164062500006 228.45929391865218 L 454.48046875000006 214.84742163009219 L 461.80468750000006 198.26832808369267 L 471.47265625000006 175.57978860375883 L 491.24804687500006 128.9918129434725 L 498.42578125000006 112.96385974288285 L 504.43164062500006 100.27079459245385 L 509.70507812500006 89.81539602064919 L 514.392578125 81.16372878096303 L 518.787109375 73.67722517763468 L 522.7421875 67.51137913054947 L 526.55078125 62.13084665972059 L 530.06640625 57.684128432121156 L 533.435546875 53.9197432578693 L 536.658203125 50.798030697982995 L 539.734375 48.27494605592358 L 542.6640625 46.30310632223075 L 545.59375 44.7664795746266 L 548.23046875 43.76685064578703 L 550.57421875 43.190996136610636 L 552.771484375 42.9241337672093 L 554.96875 42.92633239928614 L 557.166015625 43.20204511885754 L 559.36328125 43.75541384120828 L 561.70703125 44.656013057246014 L 564.197265625 45.96852627752742 L 566.833984375 47.7625362349163 L 569.470703125 49.97697896455168 L 572.107421875 52.61581328961341 L 574.890625 55.86520191117518 L 577.673828125 59.59388223756713 L 580.603515625 64.03868212812489 L 583.6796875 69.28068509132225 L 586.90234375 75.40376166537055 L 590.125 82.17098393234767 L 593.494140625 89.93037253003604 L 597.009765625 98.76622884358534 L 599.5 105.4764104681422" stroke-linecap="round" stroke-linejoin="round" stroke-miterlimit="10" stroke-width="2.5" stroke-opacity="0.9" stroke-dasharray=""/></g></g><g id="sketch-748244be"><title>Expression 2</title><path fill="#388c46" stroke="none" paint-order="stroke fill markers" d="" fill-opacity="0.4"/><path fill="#388c46" stroke="none" paint-order="stroke fill markers" d="" fill-opacity="0.4"/><path fill="#388c46" stroke="none" class="dcg-svg-region" paint-order="stroke fill markers" d=" M -0.5 199.5 L 91.65691808057475 199.5 L 91.65691808057475 199.5 L 89.44140625 198.17965355849816 L 85.779296875 195.6455879686313 L 82.1171875 192.6647607850329 L 78.455078125 189.22896041430647 L 74.79296875 185.3319268985159 L 70.984375 180.7851875133271 L 67.029296875 175.528131422199 L 63.07421875000001 169.72564655663658 L 58.97265625000001 163.13537859919498 L 54.72460937500001 155.70192706481086 L 50.18359375000001 147.08461290350797 L 45.49609375 137.48138621180726 L 40.515625 126.51924855711513 L 35.2421875 114.10262088138427 L 29.675781250000004 100.15223665534234 L 23.669921875 84.21340367887706 L 17.078125 65.78496332916899 L 9.4609375 43.47717803862167 L -0.5 13.112935154316517 M 132.4153669111488 199.5 L 277.4570370133988 199.5 L 277.4570370133988 199.5 L 272.107421875 193.09395481088777 L 266.6875 187.04193432287613 L 261.70703125 181.91617204725333 L 256.873046875 177.37637209826875 L 252.18554687500003 173.41137512266326 L 247.64453125000003 170.0018773145814 L 243.25000000000003 167.12199213104338 L 239.14843750000003 164.81614947135887 L 235.19335937500003 162.9476560619376 L 231.38476562500003 161.48039167143867 L 227.72265625000003 160.37704735163712 L 224.20703125000003 159.59994985781174 L 220.69140625000003 159.096170204313 L 217.17578125000003 158.86116994068232 L 213.66015625000003 158.88890330831788 L 209.99804687500003 159.18904239045196 L 206.18945312500003 159.78396527976105 L 202.23437500000003 160.69276258176026 L 197.986328125 161.97976701982213 L 193.298828125 163.74542610182988 L 188.025390625 166.12162342840486 L 182.01953125 169.260765188372 L 174.6953125 173.58380983489934 L 160.6328125 182.75971553661472 L 150.0859375 189.6899646626937 L 143.0546875 193.98302378608355 L 137.341796875 197.1242784137043 L 132.4153669111488 199.5 M 461.2703300259015 199.5 L 599.5 199.5 L 599.5 105.4764104681422 L 597.7421875 100.70118361706955 L 594.080078125 91.35082460814527 L 590.564453125 83.1435060799796 L 587.1953125 75.99239040211143 L 583.97265625 69.81064519753897 L 580.896484375 64.51253758355534 L 577.966796875 60.014342700027555 L 575.18359375 56.235083089770455 L 572.400390625 52.935361008260486 L 569.6171875 50.11241410403704 L 566.98046875 47.87449111422478 L 564.34375 46.057240112076386 L 561.853515625 44.72303280923768 L 559.509765625 43.80227278239374 L 557.3125 43.23025417161131 L 555.115234375 42.93615642083137 L 552.91796875 42.91585866039401 L 550.720703125 43.16492828203371 L 548.376953125 43.72216395504341 L 545.740234375 44.70131946781305 L 542.810546875 46.215822547940206 L 539.880859375 48.16623654837673 L 536.8046875 50.66761881104145 L 533.58203125 53.76751509554924 L 530.212890625 57.510148122466205 L 526.697265625 61.935371404529576 L 522.888671875 67.29406209948633 L 518.93359375 73.43887648917905 L 514.685546875 80.64504890718763 L 509.99804687500006 89.25600740823973 L 504.87109375000006 99.3730160112122 L 499.01171875000006 111.69332119312878 L 491.98046875000006 127.32158389610527 L 470.59375000000006 177.66526939067737 L 461.2703300259015 199.49999999999986" fill-opacity="0.4"/><g><path fill="none" stroke="#388c46" class="dcg-svg-curve" paint-order="fill stroke markers" d=" M -0.5 199.5 L 10.5 199.5 M 17.5 199.5 L 28.5 199.5 M 35.5 199.5 L 46.5 199.5 M 53.5 199.5 L 64.5 199.5 M 71.5 199.5 L 82.5 199.5 M 89.5 199.5 L 91.65691808057475 199.5" stroke-linecap="round" stroke-linejoin="round" stroke-miterlimit="10" stroke-width="2.5" stroke-opacity="0.9" stroke-dasharray=""/></g><g><path fill="none" stroke="#388c46" class="dcg-svg-curve" paint-order="fill stroke markers" d=" M 132.4153669111488 199.5 L 143.4153669111488 199.5 M 150.4153669111488 199.5 L 161.4153669111488 199.5 M 168.4153669111488 199.5 L 179.4153669111488 199.5 M 186.4153669111488 199.5 L 197.4153669111488 199.5 M 204.4153669111488 199.5 L 215.4153669111488 199.5 M 222.4153669111488 199.5 L 233.4153669111488 199.5 M 240.4153669111488 199.5 L 251.4153669111488 199.5 M 258.4153669111488 199.5 L 269.4153669111488 199.5 M 276.4153669111488 199.5 L 277.4570370133988 199.5" stroke-linecap="round" stroke-linejoin="round" stroke-miterlimit="10" stroke-width="2.5" stroke-opacity="0.9" stroke-dasharray=""/></g><g><path fill="none" stroke="#388c46" class="dcg-svg-curve" paint-order="fill stroke markers" d=" M 461.2703300259015 199.5 L 472.2703300259015 199.5 M 479.2703300259015 199.5 L 490.2703300259015 199.5 M 497.2703300259015 199.5 L 508.2703300259015 199.5 M 515.2703300259014 199.5 L 526.2703300259014 199.5 M 533.2703300259014 199.5 L 544.2703300259014 199.5 M 551.2703300259014 199.5 L 562.2703300259014 199.5 M 569.2703300259014 199.5 L 580.2703300259014 199.5 M 587.2703300259014 199.5 L 598.2703300259014 199.5" stroke-linecap="round" stroke-linejoin="round" stroke-miterlimit="10" stroke-width="2.5" stroke-opacity="0.9" stroke-dasharray=""/></g><g><path fill="none" stroke="#388c46" class="dcg-svg-curve" paint-order="fill stroke markers" d=" M -0.5 13.112935154316517 L 2.9287506092873827 23.564904789715932 M 5.110682815197535 30.216158194061016 L 8.539433424484917 40.66812782946043 M 10.76760596681921 47.3039027455731 L 14.32214445552993 57.713766151606535 M 16.58412349380039 64.33822468271872 L 17.078125 65.78496332916899 M 17.078125 65.78496332916899 L 20.268031572391724 74.70286600505547 M 22.625624975779083 81.29390183748002 L 23.669921875 84.21340367887706 M 23.669921875 84.21340367887706 L 26.45527313534118 91.60539302584127 M 28.9235098164321 98.1557981801899 L 29.675781250000004 100.15223665534234 M 29.675781250000004 100.15223665534234 L 32.961731966996346 108.38740185729593 M 35.57313822935808 114.88186439862531 L 39.87317854093902 125.00656949649256 M 42.7313243971259 131.39605895627938 L 45.49609375 137.48138621180726 M 45.49609375 137.48138621180726 L 47.3893314989579 141.36004035250653 M 50.47723354722046 147.64184207686276 L 54.72460937500001 155.70192706481086 M 54.72460937500001 155.70192706481086 L 55.66201597375708 157.34224948236246 M 59.145766304807374 163.4135266579672 L 63.07421875000001 169.72564655663658 M 63.07421875000001 169.72564655663658 L 65.08224940391479 172.67162312414774 M 69.15934794938826 178.359377132428 L 70.984375 180.7851875133271 M 70.984375 180.7851875133271 L 74.79296875 185.3319268985159 M 74.79296875 185.3319268985159 L 76.18531120862635 186.81358805909363 M 81.14285004097194 191.75063489196307 L 82.1171875 192.6647607850329 M 82.1171875 192.6647607850329 L 85.779296875 195.6455879686313 M 85.779296875 195.6455879686313 L 89.44140625 198.17965355849816 M 89.44140625 198.17965355849816 L 89.86120947162789 198.42983759369855" stroke-linecap="round" stroke-linejoin="round" stroke-miterlimit="10" stroke-width="2.5" stroke-opacity="0.9" stroke-dasharray=""/></g><g><path fill="none" stroke="#388c46" class="dcg-svg-curve" paint-order="fill stroke markers" d=" M 132.4153669111488 199.5 L 137.341796875 197.1242784137043 M 137.341796875 197.1242784137043 L 142.18814148317276 194.45949740759715 M 148.18508583174304 190.85056464087987 L 150.0859375 189.6899646626937 M 150.0859375 189.6899646626937 L 157.4176271525248 184.8723826009842 M 163.27324484714282 181.03681006254243 L 172.4855493392158 175.0256998534935 M 178.45127610435318 171.36689101985843 L 182.01953125 169.260765188372 M 182.01953125 169.260765188372 L 188.025390625 166.12162342840486 M 188.025390625 166.12162342840486 L 188.098127452357 166.08884840173408 M 194.51137131861577 163.28869268270788 L 197.986328125 161.97976701982213 M 197.986328125 161.97976701982213 L 202.23437500000003 160.69276258176026 M 202.23437500000003 160.69276258176026 L 205.01001500987584 160.05497640596982 M 211.92662759352297 159.03097981301215 L 213.66015625000003 158.88890330831788 M 213.66015625000003 158.88890330831788 L 217.17578125000003 158.86116994068232 M 217.17578125000003 158.86116994068232 L 220.69140625000003 159.096170204313 M 220.69140625000003 159.096170204313 L 222.89039785709542 159.41127981636467 M 229.7041089481664 160.97403241013973 L 231.38476562500003 161.48039167143867 M 231.38476562500003 161.48039167143867 L 235.19335937500003 162.9476560619376 M 235.19335937500003 162.9476560619376 L 239.14843750000003 164.81614947135887 M 239.14843750000003 164.81614947135887 L 239.83623387171716 165.20281923808352 M 245.82924505663638 168.81225878310568 L 247.64453125000003 170.0018773145814 M 247.64453125000003 170.0018773145814 L 252.18554687500003 173.41137512266326 M 252.18554687500003 173.41137512266326 L 254.5914173310661 175.44641919349007 M 259.7972586788037 180.12262354798062 L 261.70703125 181.91617204725333 M 261.70703125 181.91617204725333 L 266.6875 187.04193432287613 M 266.6875 187.04193432287613 L 267.51017200586546 187.96055048547746 M 272.1772576596293 193.17758161030764 L 277.4570370133988 199.5" stroke-linecap="round" stroke-linejoin="round" stroke-miterlimit="10" stroke-width="2.5" stroke-opacity="0.9" stroke-dasharray=""/></g><g><path fill="none" stroke="#388c46" class="dcg-svg-curve" paint-order="fill stroke markers" d=" M 461.2703300259015 199.49999999999986 L 465.5900042538333 189.3836560673065 M 468.3388878534263 182.94598265559253 L 470.59375000000006 177.66526939067737 M 470.59375000000006 177.66526939067737 L 472.6496141380067 172.8258277356373 M 475.38658534375486 166.38308075791844 L 479.68754009564486 156.25876407864595 M 482.424511301393 149.8160171009271 L 486.725466053283 139.69170042165462 M 489.46243725903116 133.24895344393576 L 491.98046875000006 127.32158389610527 M 491.98046875000006 127.32158389610527 L 493.8513879171197 123.1631175864477 M 496.7234419201862 116.77944264144385 L 499.01171875000006 111.69332119312878 M 499.01171875000006 111.69332119312878 L 501.3407648156791 106.79611657456319 M 504.3471889612441 100.47461249270391 L 504.87109375000006 99.3730160112122 M 504.87109375000006 99.3730160112122 L 509.2920727697436 90.6491050087479 M 512.5981420834643 84.47962086128075 L 514.685546875 80.64504890718763 M 514.685546875 80.64504890718763 L 518.0545353419272 74.9300668268733 M 521.7853096150254 69.00830290026335 L 522.888671875 67.29406209948633 M 522.888671875 67.29406209948633 L 526.697265625 61.935371404529576 M 526.697265625 61.935371404529576 L 528.1821438723895 60.06631034387115 M 532.7120282468733 54.73396391304822 L 533.58203125 53.76751509554924 M 533.58203125 53.76751509554924 L 536.8046875 50.66761881104145 M 536.8046875 50.66761881104145 L 539.880859375 48.16623654837673 M 539.880859375 48.16623654837673 L 540.9324099010441 47.4661759213771 M 547.0955277402322 44.19802613401046 L 548.376953125 43.72216395504341 M 548.376953125 43.72216395504341 L 550.720703125 43.16492828203371 M 550.720703125 43.16492828203371 L 552.91796875 42.91585866039401 M 552.91796875 42.91585866039401 L 555.115234375 42.93615642083137 M 555.115234375 42.93615642083137 L 557.3125 43.23025417161131 M 557.3125 43.23025417161131 L 557.8916290154749 43.381020001252764 M 564.3302368577877 46.05000009756008 L 564.34375 46.057240112076386 M 564.34375 46.057240112076386 L 566.98046875 47.87449111422478 M 566.98046875 47.87449111422478 L 569.6171875 50.11241410403704 M 569.6171875 50.11241410403704 L 572.400390625 52.935361008260486 M 572.400390625 52.935361008260486 L 572.6323188249933 53.21033145363266 M 576.9880412053423 58.68530863225798 L 577.966796875 60.014342700027555 M 577.966796875 60.014342700027555 L 580.896484375 64.51253758355534 M 580.896484375 64.51253758355534 L 582.8955772057886 67.95558607962204 M 586.2169553299135 74.11569171774468 L 587.1953125 75.99239040211143 M 587.1953125 75.99239040211143 L 590.564453125 83.1435060799796 M 590.564453125 83.1435060799796 L 590.9497597522069 84.04301448047731 M 593.7060044137916 90.47753974388918 L 594.080078125 91.35082460814527 M 594.080078125 91.35082460814527 L 597.7421875 100.70118361706955 M 597.7421875 100.70118361706955 L 597.7449665123087 100.70873300825644" stroke-linecap="round" stroke-linejoin="round" stroke-miterlimit="10" stroke-width="2.5" stroke-opacity="0.9" stroke-dasharray=""/></g></g><g id="sketch-748244be"><title>Expression 3</title><path fill="#6042a6" stroke="none" paint-order="stroke fill markers" d="" fill-opacity="0.4"/><path fill="#6042a6" stroke="none" paint-order="stroke fill markers" d="" fill-opacity="0.4"/><path fill="#6042a6" stroke="none" class="dcg-svg-region" paint-order="stroke fill markers" d=" M 91.65691808057481 199.50000000000003 L 95.154296875 201.26523706583168 L 98.5234375 202.60566118744694 L 101.74609375000001 203.56769669422968 L 104.96875000000001 204.2277766345315 L 108.04492187500001 204.58700687713798 L 111.26757812500001 204.69177190298757 L 114.49023437500001 204.53189417674517 L 117.85937500000001 204.09720405627212 L 121.37500000000001 203.37020404080812 L 125.18359375000001 202.29068953140583 L 129.28515625 200.8185745197564 L 132.41536691114877 199.50000000000003 L 132.41536691114877 199.5 L 91.65691808057481 199.5 M 277.45703701339886 199.50000000000003 L 283.826171875 207.60517115205064 L 291.296875 217.6336424824979 L 301.404296875 231.76542135831096 L 319.71484375 257.42295576241287 L 327.0390625 267.10458818635595 L 333.19140625 274.7417974244996 L 338.611328125 280.99024947949556 L 343.591796875 286.26272071546225 L 348.279296875 290.7584357447769 L 352.673828125 294.5185802818389 L 356.775390625 297.5974559217175 L 360.876953125 300.2315453379359 L 364.685546875 302.25624786618073 L 368.201171875 303.7480170979237 L 371.423828125 304.78521979485015 L 374.5 305.4714776682105 L 377.4296875 305.8422149576154 L 380.212890625 305.93351875299305 L 382.99609375 305.76626821491993 L 385.779296875 305.3368309385572 L 388.5625 304.6422227311007 L 391.4921875 303.62204163774265 L 394.568359375 302.2298046924071 L 397.9375 300.32627612417116 L 401.45312500000006 297.91779731327705 L 404.96875000000006 295.0797682511791 L 408.63085937500006 291.67045951192426 L 412.29296875000006 287.80484154875796 L 416.10156250000006 283.30938031364406 L 420.05664062500006 278.140614668656 L 424.15820312500006 272.2588505314919 L 428.40625000000006 265.6295438606968 L 432.94726562500006 257.96882678069323 L 437.78125000000006 249.20374159851082 L 442.90820312500006 239.27652680632943 L 448.47460937500006 227.84190645223464 L 454.77343750000006 214.19830679597408 L 461.2703300259014 199.50000000000014 L 461.2703300259014 199.5 L 277.45703701339886 199.5" fill-opacity="0.4"/><g><path fill="none" stroke="#6042a6" class="dcg-svg-curve" paint-order="fill stroke markers" d=" M 91.65691808057481 199.50000000000003 L 95.154296875 201.26523706583168 M 95.154296875 201.26523706583168 L 98.5234375 202.60566118744694 M 98.5234375 202.60566118744694 L 101.74609375000001 203.56769669422968 M 101.74609375000001 203.56769669422968 L 101.8373988887458 203.58639825153432 M 108.75111143851797 204.60996432656395 L 111.26757812500001 204.69177190298757 M 111.26757812500001 204.69177190298757 L 114.49023437500001 204.53189417674517 M 114.49023437500001 204.53189417674517 L 117.85937500000001 204.09720405627212 M 117.85937500000001 204.09720405627212 L 119.6793855199182 203.72084205061873 M 126.41647102918962 201.84819056906733 L 129.28515625 200.8185745197564 M 129.28515625 200.8185745197564 L 132.41536691114877 199.50000000000003" stroke-linecap="round" stroke-linejoin="round" stroke-miterlimit="10" stroke-width="2.5" stroke-opacity="0.9" stroke-dasharray=""/></g><g><path fill="none" stroke="#6042a6" class="dcg-svg-curve" paint-order="fill stroke markers" d=" M 277.45703701339886 199.50000000000003 L 283.826171875 207.60517115205064 M 283.826171875 207.60517115205064 L 284.23943638232726 208.15992633295912 M 288.42126888242376 213.77350602341838 L 291.296875 217.6336424824979 M 291.296875 217.6336424824979 L 294.8958399343264 222.6655662769824 M 298.96805311328256 228.359166177321 L 301.404296875 231.76542135831096 M 301.404296875 231.76542135831096 L 305.3614668825454 237.31038002637237 M 309.42774237356 243.00822204165974 L 315.8176038594401 251.96197377996845 M 319.89040316467566 257.65502170411514 L 326.52687701575826 266.42754784108945 M 330.89785337510517 271.8946965608137 L 333.19140625 274.7417974244996 M 333.19140625 274.7417974244996 L 338.00354350600566 280.28955431466903 M 342.7812090815627 285.4046085497903 L 343.591796875 286.26272071546225 M 343.591796875 286.26272071546225 L 348.279296875 290.7584357447769 M 348.279296875 290.7584357447769 L 350.80542669893043 292.91989796156315 M 356.3054741218365 297.24470877368134 L 356.775390625 297.5974559217175 M 356.775390625 297.5974559217175 L 360.876953125 300.2315453379359 M 360.876953125 300.2315453379359 L 364.685546875 302.25624786618073 M 364.685546875 302.25624786618073 L 365.8128015650782 302.73457074276644 M 372.41940861049244 305.0073221267405 L 374.5 305.4714776682105 M 374.5 305.4714776682105 L 377.4296875 305.8422149576154 M 377.4296875 305.8422149576154 L 380.212890625 305.93351875299305 M 380.212890625 305.93351875299305 L 382.99609375 305.76626821491993 M 382.99609375 305.76626821491993 L 383.334378000958 305.7140722878376 M 390.12788459313265 304.0971216697254 L 391.4921875 303.62204163774265 M 391.4921875 303.62204163774265 L 394.568359375 302.2298046924071 M 394.568359375 302.2298046924071 L 397.9375 300.32627612417116 M 397.9375 300.32627612417116 L 399.8424403241993 299.0212426217778 M 405.356229966246 294.71903657991146 L 408.63085937500006 291.67045951192426 M 408.63085937500006 291.67045951192426 L 412.29296875000006 287.80484154875796 M 412.29296875000006 287.80484154875796 L 413.06937944164616 286.88840771623825 M 417.5048464457085 281.4754732150982 L 420.05664062500006 278.140614668656 M 420.05664062500006 278.140614668656 L 423.9466847306571 272.5621742785265 M 427.7354018180503 266.67643869461745 L 428.40625000000006 265.6295438606968 M 428.40625000000006 265.6295438606968 L 432.94726562500006 257.96882678069323 M 432.94726562500006 257.96882678069323 L 433.35830481058616 257.2235216254864 M 436.7388142875287 251.09390861353356 L 437.78125000000006 249.20374159851082 M 437.78125000000006 249.20374159851082 L 441.838329273593 241.34810172899975 M 444.95157065955635 235.0790013379837 L 448.47460937500006 227.84190645223464 M 448.47460937500006 227.84190645223464 L 449.71151399901646 225.1627046756253 M 452.6456055865553 218.80730488049565 L 454.77343750000006 214.19830679597408 M 454.77343750000006 214.19830679597408 L 457.1682215750746 208.78044419393348 M 459.9982037240435 202.37800707698207 L 461.2703300259014 199.50000000000014" stroke-linecap="round" stroke-linejoin="round" stroke-miterlimit="10" stroke-width="2.5" stroke-opacity="0.9" stroke-dasharray=""/></g><g><path fill="none" stroke="#6042a6" class="dcg-svg-curve" paint-order="fill stroke markers" d=" M 91.65691808057481 199.5 L 102.65691808057481 199.5 M 109.65691808057481 199.5 L 120.65691808057481 199.5 M 127.65691808057481 199.5 L 132.41536691114877 199.5" stroke-linecap="round" stroke-linejoin="round" stroke-miterlimit="10" stroke-width="2.5" stroke-opacity="0.9" stroke-dasharray=""/></g><g><path fill="none" stroke="#6042a6" class="dcg-svg-curve" paint-order="fill stroke markers" d=" M 277.45703701339886 199.5 L 288.45703701339886 199.5 M 295.45703701339886 199.5 L 306.45703701339886 199.5 M 313.45703701339886 199.5 L 324.45703701339886 199.5 M 331.45703701339886 199.5 L 342.45703701339886 199.5 M 349.45703701339886 199.5 L 360.45703701339886 199.5 M 367.45703701339886 199.5 L 378.45703701339886 199.5 M 385.45703701339886 199.5 L 396.45703701339886 199.5 M 403.45703701339886 199.5 L 414.45703701339886 199.5 M 421.45703701339886 199.5 L 432.45703701339886 199.5 M 439.45703701339886 199.5 L 450.45703701339886 199.5 M 457.45703701339886 199.5 L 461.2703300259014 199.5" stroke-linecap="round" stroke-linejoin="round" stroke-miterlimit="10" stroke-width="2.5" stroke-opacity="0.9" stroke-dasharray=""/></g></g></g><g id="labels-748244be"/></g></svg>