<svg version="1.1" xmlns="http://www.w3.org/2000/svg" xmlns:xlink="http://www.w3.org/1999/xlink" width="600" height="400"><defs/><g transform="scale(1,1)"><g id="background-eca2086c"><rect fill="white" stroke="none" x="0" y="0" width="600" height="400" class="dcg-svg-background"/></g><g id="background-images-eca2086c"/><g id="graphpaper-eca2086c"><g id="grid-eca2086c"><g><path fill="none" stroke="rgb(0,0,0)" class="dcg-svg-minor-gridline" paint-order="fill stroke markers" d=" M -0.5 0 L -0.5 400" stroke-opacity="0.12" stroke-miterlimit="10" stroke-dasharray=""/><path fill="none" stroke="rgb(0,0,0)" class="dcg-svg-minor-gridline" paint-order="fill stroke markers" d=" M 29.5 0 L 29.5 400" stroke-opacity="0.12" stroke-miterlimit="10" stroke-dasharray=""/><path fill="none" stroke="rgb(0,0,0)" class="dcg-svg-minor-gridline" paint-order="fill stroke markers" d=" M 59.5 0 L 59.5 400" stroke-opacity="0.12" stroke-miterlimit="10" stroke-dasharray=""/><path fill="none" stroke="rgb(0,0,0)" class="dcg-svg-minor-gridline" paint-order="fill stroke markers" d=" M 89.5 0 L 89.5 400" stroke-opacity="0.12" stroke-miterlimit="10" stroke-dasharray=""/><path fill="none" stroke="rgb(0,0,0)" class="dcg-svg-minor-gridline" paint-order="fill stroke markers" d=" M 119.5 0 L 119.5 400" stroke-opacity="0.12" stroke-miterlimit="10" stroke-dasharray=""/><path fill="none" stroke="rgb(0,0,0)" class="dcg-svg-minor-gridline" paint-order="fill stroke markers" d=" M 149.5 0 L 149.5 400" stroke-opacity="0.12" stroke-miterlimit="10" stroke-dasharray=""/><path fill="none" stroke="rgb(0,0,0)" class="dcg-svg-minor-gridline" paint-order="fill stroke markers" d=" M 179.5 0 L 179.5 400" stroke-opacity="0.12" stroke-miterlimit="10" stroke-dasharray=""/><path fill="none" stroke="rgb(0,0,0)" class="dcg-svg-minor-gridline" paint-order="fill stroke markers" d=" M 209.5 0 L 209.5 400" stroke-opacity="0.12" stroke-miterlimit="10" stroke-dasharray=""/><path fill="none" stroke="rgb(0,0,0)" class="dcg-svg-minor-gridline" paint-order="fill stroke markers" d=" M 239.5 0 L 239.5 400" stroke-opacity="0.12" stroke-miterlimit="10" stroke-dasharray=""/><path fill="none" stroke="rgb(0,0,0)" class="dcg-svg-minor-gridline" paint-order="fill stroke markers" d=" M 269.5 0 L 269.5 400" stroke-opacity="0.12" stroke-miterlimit="10" stroke-dasharray=""/><path fill="none" stroke="rgb(0,0,0)" class="dcg-svg-minor-gridline" paint-order="fill stroke markers" d=" M 329.5 0 L 329.5 400" stroke-opacity="0.12" stroke-miterlimit="10" stroke-dasharray=""/><path fill="none" stroke="rgb(0,0,0)" class="dcg-svg-minor-gridline" paint-order="fill stroke markers" d=" M 359.5 0 L 359.5 400" stroke-opacity="0.12" stroke-miterlimit="10" stroke-dasharray=""/><path fill="none" stroke="rgb(0,0,0)" class="dcg-svg-minor-gridline" paint-order="fill stroke markers" d=" M 389.5 0 L 389.5 400" stroke-opacity="0.12" stroke-miterlimit="10" stroke-dasharray=""/><path fill="none" stroke="rgb(0,0,0)" class="dcg-svg-minor-gridline" paint-order="fill stroke markers" d=" M 419.5 0 L 419.5 400" stroke-opacity="0.12" stroke-miterlimit="10" stroke-dasharray=""/><path fill="none" stroke="rgb(0,0,0)" class="dcg-svg-minor-gridline" paint-order="fill stroke markers" d=" M 449.5 0 L 449.5 400" stroke-opacity="0.12" stroke-miterlimit="10" stroke-dasharray=""/><path fill="none" stroke="rgb(0,0,0)" class="dcg-svg-minor-gridline" paint-order="fill stroke markers" d=" M 479.5 0 L 479.5 400" stroke-opacity="0.12" stroke-miterlimit="10" stroke-dasharray=""/><path fill="none" stroke="rgb(0,0,0)" class="dcg-svg-minor-gridline" paint-order="fill stroke markers" d=" M 509.5 0 L 509.5 400" stroke-opacity="0.12" stroke-miterlimit="10" stroke-dasharray=""/><path fill="none" stroke="rgb(0,0,0)" class="dcg-svg-minor-gridline" paint-order="fill stroke markers" d=" M 539.5 0 L 539.5 400" stroke-opacity="0.12" stroke-miterlimit="10" stroke-dasharray=""/><path fill="none" stroke="rgb(0,0,0)" class="dcg-svg-minor-gridline" paint-order="fill stroke markers" d=" M 569.5 0 L 569.5 400" stroke-opacity="0.12" stroke-miterlimit="10" stroke-dasharray=""/><path fill="none" stroke="rgb(0,0,0)" class="dcg-svg-minor-gridline" paint-order="fill stroke markers" d=" M 0 370.5 L 600 370.5" stroke-opacity="0.12" stroke-miterlimit="10" stroke-dasharray=""/><path fill="none" stroke="rgb(0,0,0)" class="dcg-svg-minor-gridline" paint-order="fill stroke markers" d=" M 0 342.5 L 600 342.5" stroke-opacity="0.12" stroke-miterlimit="10" stroke-dasharray=""/><path fill="none" stroke="rgb(0,0,0)" class="dcg-svg-minor-gridline" paint-order="fill stroke markers" d=" M 0 313.5 L 600 313.5" stroke-opacity="0.12" stroke-miterlimit="10" stroke-dasharray=""/><path fill="none" stroke="rgb(0,0,0)" class="dcg-svg-minor-gridline" paint-order="fill stroke markers" d=" M 0 285.5 L 600 285.5" stroke-opacity="0.12" stroke-miterlimit="10" stroke-dasharray=""/><path fill="none" stroke="rgb(0,0,0)" class="dcg-svg-minor-gridline" paint-order="fill stroke markers" d=" M 0 256.5 L 600 256.5" stroke-opacity="0.12" stroke-miterlimit="10" stroke-dasharray=""/><path fill="none" stroke="rgb(0,0,0)" class="dcg-svg-minor-gridline" paint-order="fill stroke markers" d=" M 0 228.5 L 600 228.5" stroke-opacity="0.12" stroke-miterlimit="10" stroke-dasharray=""/><path fill="none" stroke="rgb(0,0,0)" class="dcg-svg-minor-gridline" paint-order="fill stroke markers" d=" M 0 170.5 L 600 170.5" stroke-opacity="0.12" stroke-miterlimit="10" stroke-dasharray=""/><path fill="none" stroke="rgb(0,0,0)" class="dcg-svg-minor-gridline" paint-order="fill stroke markers" d=" M 0 142.5 L 600 142.5" stroke-opacity="0.12" stroke-miterlimit="10" stroke-dasharray=""/><path fill="none" stroke="rgb(0,0,0)" class="dcg-svg-minor-gridline" paint-order="fill stroke markers" d=" M 0 113.5 L 600 113.5" stroke-opacity="0.12" stroke-miterlimit="10" stroke-dasharray=""/><path fill="none" stroke="rgb(0,0,0)" class="dcg-svg-minor-gridline" paint-order="fill stroke markers" d=" M 0 85.5 L 600 85.5" stroke-opacity="0.12" stroke-miterlimit="10" stroke-dasharray=""/><path fill="none" stroke="rgb(0,0,0)" class="dcg-svg-minor-gridline" paint-order="fill stroke markers" d=" M 0 56.5 L 600 56.5" stroke-opacity="0.12" stroke-miterlimit="10" stroke-dasharray=""/><path fill="none" stroke="rgb(0,0,0)" class="dcg-svg-minor-gridline" paint-order="fill stroke markers" d=" M 0 28.5 L 600 28.5" stroke-opacity="0.12" stroke-miterlimit="10" stroke-dasharray=""/><path fill="none" stroke="rgb(0,0,0)" class="dcg-svg-minor-gridline" paint-order="fill stroke markers" d=" M 0 -0.5 L 600 -0.5" stroke-opacity="0.12" stroke-miterlimit="10" stroke-dasharray=""/><path fill="none" stroke="rgb(0,0,0)" class="dcg-svg-major-gridline" paint-order="fill stroke markers" d=" M -0.5 0 L -0.5 400" stroke-opacity="0.31818181818181823" stroke-miterlimit="10" stroke-dasharray=""/><path fill="none" stroke="rgb(0,0,0)" class="dcg-svg-major-gridline" paint-order="fill stroke markers" d=" M 149.5 0 L 149.5 400" stroke-opacity="0.31818181818181823" stroke-miterlimit="10" stroke-dasharray=""/><path fill="none" stroke="rgb(0,0,0)" class="dcg-svg-major-gridline" paint-order="fill stroke markers" d=" M 449.5 0 L 449.5 400" stroke-opacity="0.31818181818181823" stroke-miterlimit="10" stroke-dasharray=""/><path fill="none" stroke="rgb(0,0,0)" class="dcg-svg-major-gridline" paint-order="fill stroke markers" d=" M 0 342.5 L 600 342.5" stroke-opacity="0.31818181818181823" stroke-miterlimit="10" stroke-dasharray=""/><path fill="none" stroke="rgb(0,0,0)" class="dcg-svg-major-gridline" paint-order="fill stroke markers" d=" M 0 56.5 L 600 56.5" stroke-opacity="0.31818181818181823" stroke-miterlimit="10" stroke-dasharray=""/></g></g><g id="axis-eca2086c"><g id="yaxis-eca2086c"><title>Y axis</title><path fill="none" stroke="rgb(0,0,0)" class="dcg-svg-axis-line" paint-order="fill stroke markers" d=" M 299.75 0 L 299.75 400" stroke-opacity="0.9" stroke-miterlimit="10" stroke-width="1.5" stroke-dasharray=""/></g><g id="xaxis-eca2086c"><title>X axis</title><path fill="none" stroke="rgb(0,0,0)" class="dcg-svg-axis-line" paint-order="fill stroke markers" d=" M 0 199.75 L 600 199.75" stroke-opacity="0.9" stroke-miterlimit="10" stroke-width="1.5" stroke-dasharray=""/></g><g><g class="dcg-svg-axis-value"><text fill="none" stroke="#ffffff" font-family="Arial" font-size="14px" font-style="normal" font-weight="normal" text-decoration="normal" x="291.10693359375" y="215.808" text-anchor="middle" stroke-miterlimit="2" stroke-width="3" stroke-dasharray="">0</text><text fill="#000000" stroke="none" font-family="Arial" font-size="14px" font-style="normal" font-weight="normal" text-decoration="normal" x="291.10693359375" y="215.808" text-anchor="middle">0</text></g><g class="dcg-svg-axis-value dcg-svg-offcenter-axis-value"><text fill="none" stroke="#ffffff" font-family="Arial" font-size="14px" font-style="normal" font-weight="normal" text-decoration="normal" x="13.1171875" y="215.808" text-anchor="middle" stroke-miterlimit="2" stroke-width="3" stroke-dasharray="">-10</text><text fill="#000000" stroke="none" font-family="Arial" font-size="14px" font-style="normal" font-weight="normal" text-decoration="normal" x="13.1171875" y="215.808" text-anchor="middle">-10</text></g><g class="dcg-svg-axis-value"><text fill="none" stroke="#ffffff" font-family="Arial" font-size="14px" font-style="normal" font-weight="normal" text-decoration="normal" x="147.6689453125" y="215.808" text-anchor="middle" stroke-miterlimit="2" stroke-width="3" stroke-dasharray="">-5</text><text fill="#000000" stroke="none" font-family="Arial" font-size="14px" font-style="normal" font-weight="normal" text-decoration="normal" x="147.6689453125" y="215.808" text-anchor="middle">-5</text></g><g class="dcg-svg-axis-value"><text fill="none" stroke="#ffffff" font-family="Arial" font-size="14px" font-style="normal" font-weight="normal" text-decoration="normal" x="450" y="215.808" text-anchor="middle" stroke-miterlimit="2" stroke-width="3" stroke-dasharray="">5</text><text fill="#000000" stroke="none" font-family="Arial" font-size="14px" font-style="normal" font-weight="normal" text-decoration="normal" x="450" y="215.808" text-anchor="middle">5</text></g><g class="dcg-svg-axis-value dcg-svg-offcenter-axis-value"><text fill="none" stroke="#ffffff" font-family="Arial" font-size="14px" font-style="normal" font-weight="normal" text-decoration="normal" x="589.2138671875" y="215.808" text-anchor="middle" stroke-miterlimit="2" stroke-width="3" stroke-dasharray="">10</text><text fill="#000000" stroke="none" font-family="Arial" font-size="14px" font-style="normal" font-weight="normal" text-decoration="normal" x="589.2138671875" y="215.808" text-anchor="middle">10</text></g><g class="dcg-svg-axis-value"><text fill="none" stroke="#ffffff" font-family="Arial" font-size="14px" font-style="normal" font-weight="normal" text-decoration="normal" x="288.77587890625" y="346.6651428571428" text-anchor="middle" stroke-miterlimit="2" stroke-width="3" stroke-dasharray="">-5</text><text fill="#000000" stroke="none" font-family="Arial" font-size="14px" font-style="normal" font-weight="normal" text-decoration="normal" x="288.77587890625" y="346.6651428571428" text-anchor="middle">-5</text></g><g class="dcg-svg-axis-value"><text fill="none" stroke="#ffffff" font-family="Arial" font-size="14px" font-style="normal" font-weight="normal" text-decoration="normal" x="291.10693359375" y="60.95085714285717" text-anchor="middle" stroke-miterlimit="2" stroke-width="3" stroke-dasharray="">5</text><text fill="#000000" stroke="none" font-family="Arial" font-size="14px" font-style="normal" font-weight="normal" text-decoration="normal" x="291.10693359375" y="60.95085714285717" text-anchor="middle">5</text></g></g></g></g><g id="expressions-eca2086c"><g id="sketch-eca2086c"><title>Expression 1</title><path fill="#2d70b3" stroke="none" paint-order="stroke fill markers" d="" fill-opacity="0.4"/><g><path fill="none" stroke="#2d70b3" class="dcg-svg-curve" paint-order="fill stroke markers" d=" M 41.71931604103675 -5.5 L 41.71931604103675 -5.5 L 51.794921875 90.03989254988306 L 56.3359375 129.65915077094826 L 60.291015625 161.6615754921532 L 63.806640625 187.74457838516975 L 67.029296875 209.43947737093475 L 69.958984375 227.15676849599123 L 72.595703125 241.36555233242657 L 75.0859375 253.20647130531367 L 77.4296875 262.90616738252766 L 79.626953125 270.70004939235605 L 81.53125 276.4239879566155 L 83.435546875 281.18408924202015 L 85.193359375 284.7207875888398 L 86.8046875 287.2411523173006 L 88.26953125 288.93637369084945 L 89.734375 290.0681810095227 L 90.90625 290.57163586209197 L 91.99213491947518 290.7224221123258 L 92.95703125 290.6042026365292 L 93.982421875 290.22136306296414 L 95.154296875 289.46348188052 L 96.47265625 288.2089260429725 L 98.083984375 286.1096527374829 L 99.6953125 283.40395968857433 L 101.453125 279.78274209150527 L 103.357421875 275.10134684337623 L 105.408203125 269.2187266932318 L 107.751953125 261.48952378711897 L 110.2421875 252.18602775279868 L 113.025390625 240.57949293538607 L 116.1015625 226.44095194379685 L 119.6171875 208.8615696042643 L 123.865234375 186.04846163604992 L 129.724609375 152.80414659197055 L 141.736328125 84.29799043666321 L 146.27734375 60.3098896099973 L 150.0859375 41.69720386325133 L 153.455078125 26.637692125258468 L 156.53125 14.20224344889698 L 159.314453125 4.135157346635822 L 161.951171875 -4.294874641209788 L 162.38263199268704 -5.5 L 197.06420411942284 -5.5 L 199.3046875 0.5837311851743152 L 202.380859375 9.880194326758613 L 205.896484375 21.54528089224806 L 209.998046875 36.2798347055367 L 215.271484375 56.45993977519123 L 232.703125 124.15394318977229 L 237.09765625 139.48031487651042 L 240.90625 151.6919141516103 L 244.421875 161.94045620337593 L 247.64453125 170.38710561115224 L 250.57421875 177.23083746399286 L 253.357421875 182.96871712320723 L 255.994140625 187.70519430066287 L 258.630859375 191.75747765864446 L 261.12109375 194.9602640596532 L 263.611328125 197.56661415937978 L 265.955078125 199.488936926529 L 268.15234375 200.839723224662 L 270.203125 201.72242431373826 L 272.107421875 202.23035002018617 L 274.01171875 202.45365483389335 L 275.916015625 202.4089961757392 L 277.966796875 202.08189118653084 L 280.1640625 201.4370606959276 L 282.5078125 200.44822944363457 L 285.14453125 199.0133417220058 L 288.220703125 196.98452431259244 L 292.17578125 193.96517389649892 L 299.353515625 187.95083741869436 L 305.212890625 183.25246666427802 L 309.021484375 180.62297207943348 L 312.09765625 178.86844404452438 L 314.880859375 177.62931817453838 L 317.37109375 176.8397372078452 L 319.568359375 176.4165394129111 L 321.83395629477644 176.26635176282562 L 323.81640625 176.38433135156296 L 325.8671875 176.75945743496575 L 327.91796875 177.39749823062238 L 330.115234375 178.37641277554994 L 332.458984375 179.75797348262867 L 334.94921875 181.6037857633677 L 337.732421875 184.1162448211542 L 340.80859375 187.42082705440538 L 344.03125 191.4354088143482 L 347.546875 196.3921240020332 L 351.501953125 202.57528052619048 L 356.3359375 210.7835618778999 L 366.150390625 228.3234859426423 L 371.716796875 237.8444730800541 L 375.818359375 244.22461221952526 L 379.333984375 249.06930970606902 L 382.41015625 252.72297790353625 L 385.193359375 255.48408335538332 L 387.68359375 257.4677757433419 L 389.880859375 258.805880881128 L 391.78515625 259.6348917991027 L 393.54296875 260.11596128793826 L 395.30078125 260.31529638710026 L 396.912109375 260.2442351436863 L 398.5234375 259.92563000987127 L 400.28125 259.2915140735841 L 402.0390625 258.3552316961614 L 403.943359375 256.9979261181453 L 406.140625 254.98845096438566 L 408.484375 252.32518635779525 L 410.974609375 248.9174261782613 L 413.611328125 244.6787345834154 L 416.39453125 239.53162999095602 L 419.32421875 233.41326663338816 L 422.546875 225.92583193404442 L 426.208984375 216.57558938098472 L 430.45703125 204.8219540321648 L 436.0234375 188.4331112807791 L 448.03515625 152.7842690403838 L 452.13671875 141.71763873668692 L 455.505859375 133.4687733289847 L 458.435546875 127.07401452954741 L 461.072265625 122.04374677432622 L 463.416015625 118.22027008148996 L 465.61328125 115.24182069387018 L 467.6640625 113.03043620715982 L 469.568359375 111.4980749461082 L 471.1796875 110.61202275793818 L 472.64453125 110.14534381757903 L 473.95921700954995 110.00931856008413 L 475.28125 110.14889114540927 L 476.599609375 110.56981080318172 L 477.91796875 111.27725659688332 L 479.3828125 112.40491189788304 L 481.140625 114.24001896533184 L 482.8984375 116.60786517072677 L 484.802734375 119.78048220387001 L 486.70703125 123.5888178044471 L 488.7578125 128.40231221859239 L 490.955078125 134.3763059967216 L 493.298828125 141.67037465692056 L 495.7890625 150.44403442064748 L 498.42578125 160.85123032037345 L 501.35546875 173.7075216066543 L 504.431640625 188.58681011119944 L 507.80078125 206.37489733126117 L 511.609375 228.14825821142043 L 516.00390625 255.09937564235094 L 521.423828125 290.30612045553147 L 538.9039806480434 405.5" stroke-linecap="round" stroke-linejoin="round" stroke-miterlimit="10" stroke-width="2.5" stroke-opacity="0.9" stroke-dasharray=""/></g></g><g id="sketch-eca2086c"><title>Expression 2</title><path fill="#388c46" stroke="none" class="dcg-svg-region" paint-order="stroke fill markers" d=" M -0.5 -3 L 41.98296522372509 -3 L 51.794921875 90.03989254988306 L 56.3359375 129.65915077094826 L 60.291015625 161.6615754921532 L 63.806640625 187.74457838516975 L 67.029296875 209.43947737093475 L 69.958984375 227.15676849599123 L 72.595703125 241.36555233242657 L 75.0859375 253.20647130531367 L 77.4296875 262.90616738252766 L 79.626953125 270.70004939235605 L 81.53125 276.4239879566155 L 83.435546875 281.18408924202015 L 85.193359375 284.7207875888398 L 86.8046875 287.2411523173006 L 88.26953125 288.93637369084945 L 89.734375 290.0681810095227 L 90.90625 290.57163586209197 L 91.99213491947518 290.7224221123258 L 92.95703125 290.6042026365292 L 93.982421875 290.22136306296414 L 95.154296875 289.46348188052 L 96.47265625 288.2089260429725 L 98.083984375 286.1096527374829 L 99.6953125 283.40395968857433 L 101.453125 279.78274209150527 L 103.357421875 275.10134684337623 L 105.408203125 269.2187266932318 L 107.751953125 261.48952378711897 L 110.2421875 252.18602775279868 L 113.025390625 240.57949293538607 L 116.1015625 226.44095194379685 L 119.6171875 208.8615696042643 L 123.865234375 186.04846163604992 L 129.724609375 152.80414659197055 L 141.736328125 84.29799043666321 L 146.27734375 60.3098896099973 L 150.0859375 41.69720386325133 L 153.455078125 26.637692125258468 L 156.53125 14.20224344889698 L 159.314453125 4.135157346635822 L 161.54616507902344 -3 L 197.9848905010126 -3 L 199.3046875 0.5837311851743152 L 202.380859375 9.880194326758613 L 205.896484375 21.54528089224806 L 209.998046875 36.2798347055367 L 215.271484375 56.45993977519123 L 232.703125 124.15394318977229 L 237.09765625 139.48031487651042 L 240.90625 151.6919141516103 L 244.421875 161.94045620337593 L 247.64453125 170.38710561115224 L 250.57421875 177.23083746399286 L 253.357421875 182.96871712320723 L 255.994140625 187.70519430066287 L 258.630859375 191.75747765864446 L 261.12109375 194.9602640596532 L 263.611328125 197.56661415937978 L 265.955078125 199.488936926529 L 268.15234375 200.839723224662 L 270.203125 201.72242431373826 L 272.107421875 202.23035002018617 L 274.01171875 202.45365483389335 L 275.916015625 202.4089961757392 L 277.966796875 202.08189118653084 L 280.1640625 201.4370606959276 L 282.5078125 200.44822944363457 L 285.14453125 199.0133417220058 L 288.220703125 196.98452431259244 L 292.17578125 193.96517389649892 L 299.353515625 187.95083741869436 L 305.212890625 183.25246666427802 L 309.021484375 180.62297207943348 L 312.09765625 178.86844404452438 L 314.880859375 177.62931817453838 L 317.37109375 176.8397372078452 L 319.568359375 176.4165394129111 L 321.83395629477644 176.26635176282562 L 323.81640625 176.38433135156296 L 325.8671875 176.75945743496575 L 327.91796875 177.39749823062238 L 330.115234375 178.37641277554994 L 332.458984375 179.75797348262867 L 334.94921875 181.6037857633677 L 337.732421875 184.1162448211542 L 340.80859375 187.42082705440538 L 344.03125 191.4354088143482 L 347.546875 196.3921240020332 L 351.501953125 202.57528052619048 L 356.3359375 210.7835618778999 L 366.150390625 228.3234859426423 L 371.716796875 237.8444730800541 L 375.818359375 244.22461221952526 L 379.333984375 249.06930970606902 L 382.41015625 252.72297790353625 L 385.193359375 255.48408335538332 L 387.68359375 257.4677757433419 L 389.880859375 258.805880881128 L 391.78515625 259.6348917991027 L 393.54296875 260.11596128793826 L 395.30078125 260.31529638710026 L 396.912109375 260.2442351436863 L 398.5234375 259.92563000987127 L 400.28125 259.2915140735841 L 402.0390625 258.3552316961614 L 403.943359375 256.9979261181453 L 406.140625 254.98845096438566 L 408.484375 252.32518635779525 L 410.974609375 248.9174261782613 L 413.611328125 244.6787345834154 L 416.39453125 239.53162999095602 L 419.32421875 233.41326663338816 L 422.546875 225.92583193404442 L 426.208984375 216.57558938098472 L 430.45703125 204.8219540321648 L 436.0234375 188.4331112807791 L 448.03515625 152.7842690403838 L 452.13671875 141.71763873668692 L 455.505859375 133.4687733289847 L 458.435546875 127.07401452954741 L 461.072265625 122.04374677432622 L 463.416015625 118.22027008148996 L 465.61328125 115.24182069387018 L 467.6640625 113.03043620715982 L 469.568359375 111.4980749461082 L 471.1796875 110.61202275793818 L 472.64453125 110.14534381757903 L 473.95921700954995 110.00931856008413 L 475.28125 110.14889114540927 L 476.599609375 110.56981080318172 L 477.91796875 111.27725659688332 L 479.3828125 112.40491189788304 L 481.140625 114.24001896533184 L 482.8984375 116.60786517072677 L 484.802734375 119.78048220387001 L 486.70703125 123.5888178044471 L 488.7578125 128.40231221859239 L 490.955078125 134.3763059967216 L 493.298828125 141.67037465692056 L 495.7890625 150.44403442064748 L 498.42578125 160.85123032037345 L 501.35546875 173.7075216066543 L 504.431640625 188.58681011119944 L 507.80078125 206.37489733126117 L 511.609375 228.14825821142043 L 516.00390625 255.09937564235094 L 521.423828125 290.30612045553147 L 538.5246169051048 403 L 599.5 403 L 599.5 399.5 L -0.5 399.5 L -0.5 -3" fill-opacity="0.4"/><path fill="#388c46" stroke="none" paint-order="stroke fill markers" d="" fill-opacity="0.4"/><path fill="#388c46" stroke="none" paint-order="stroke fill markers" d="" fill-opacity="0.4"/><path fill="#388c46" stroke="none" paint-order="stroke fill markers" d="" fill-opacity="0.4"/><path fill="#388c46" stroke="none" paint-order="stroke fill markers" d="" fill-opacity="0.4"/><g><path fill="none" stroke="#388c46" class="dcg-svg-curve" paint-order="fill stroke markers" d=" M 41.71931604103675 -5.5 L 42.872974835713066 5.439335966385986 M 43.607121341416175 12.400731581358887 L 44.760780136092485 23.340067547744873 M 45.494926641795594 30.301463162717774 L 46.64858543647191 41.24079912910376 M 47.38273194217502 48.202194744076664 L 48.53639073685133 59.141530710462646 M 49.27053724255444 66.10292632543555 L 50.42419603723076 77.04226229182153 M 51.158342542933866 84.00365790679443 L 51.794921875 90.03989254988306 M 51.794921875 90.03989254988306 L 52.356338384242925 94.93811521329098 M 53.1534343787815 101.89258413445891 L 54.40601379877068 112.82103529629423 M 55.20310979330925 119.77550421746214 L 56.3359375 129.65915077094826 M 56.3359375 129.65915077094826 L 56.464925634518224 130.70285532857898 M 57.323501453899176 137.65000204952668 L 58.67269202721209 148.5669468967302 M 59.531267846593046 155.5140936176779 L 60.291015625 161.6615754921532 M 60.291015625 161.6615754921532 L 60.93295857970474 166.42425636531664 M 61.868005547951036 173.36152435546762 L 63.33736506948093 184.26294548284773 M 64.31897611543602 191.19361726787147 L 65.93523037776171 202.07422948224223 M 66.96375581742353 208.9982554368418 L 67.029296875 209.43947737093475 M 67.029296875 209.43947737093475 L 68.75108895884748 219.85201850589993 M 69.89308410960898 226.7582365067769 L 69.958984375 227.15676849599123 M 69.958984375 227.15676849599123 L 71.8922846913549 237.5749620503849 M 73.24289863618954 244.44292917877726 L 75.0859375 253.20647130531367 M 75.0859375 253.20647130531367 L 75.56619247148406 255.194024270846 M 77.21029622774243 261.9982084863605 L 77.4296875 262.90616738252766 M 77.4296875 262.90616738252766 L 79.626953125 270.70004939235605 M 79.626953125 270.70004939235605 L 80.24827801448953 272.5676287296815 M 82.62171434734927 279.1497818229239 L 83.435546875 281.18408924202015 M 83.435546875 281.18408924202015 L 85.193359375 284.7207875888398 M 85.193359375 284.7207875888398 L 86.8046875 287.2411523173006 M 86.8046875 287.2411523173006 L 88.0260727221355 288.65462616657686 M 94.2663237719326 290.0377565304027 L 95.154296875 289.46348188052 M 95.154296875 289.46348188052 L 96.47265625 288.2089260429725 M 96.47265625 288.2089260429725 L 98.083984375 286.1096527374829 M 98.083984375 286.1096527374829 L 99.6953125 283.40395968857433 M 99.6953125 283.40395968857433 L 100.71153045935684 281.3104790944378 M 103.43902466103013 274.8672710766855 L 105.408203125 269.2187266932318 M 105.408203125 269.2187266932318 L 106.8643667731041 264.4166000582656 M 108.77103502511038 257.68224182542633 L 110.2421875 252.18602775279868 M 110.2421875 252.18602775279868 L 111.48047341580704 247.02211841875538 M 113.1050582527172 240.2133287332697 L 115.4436542877568 229.46479541076948 M 116.8674242082211 222.611369497425 L 119.02455333248714 211.8249523934352 M 120.3454049760263 204.95085383446045 L 122.35910912724155 194.1367428866581 M 123.64055722346943 187.2550359198748 L 123.865234375 186.04846163604992 M 123.865234375 186.04846163604992 L 125.56154292164956 176.4241218836391 M 126.77657844548587 169.53037916463543 L 128.68591998294292 158.6973548919154 M 129.90006822849804 151.80345619397326 L 131.79980299284136 140.96874310016477 M 133.0087251156053 134.0739256768321 L 134.90845987994862 123.23921258302359 M 136.11738200271256 116.3443951596909 L 138.0171167670559 105.5096820658824 M 139.22603888981985 98.61486464254972 L 141.12577365416317 87.78015154874122 M 142.3807637545645 80.89373285754748 L 144.42675799392939 70.08568457987562 M 145.72875432807066 63.20783567590261 L 146.27734375 60.3098896099973 M 146.27734375 60.3098896099973 L 147.89124210093402 52.42273104047901 M 149.2945297838142 45.56483167703857 L 150.0859375 41.69720386325133 M 150.0859375 41.69720386325133 L 151.62561428383543 34.81509854926355 M 153.15388749909917 27.98396533584227 L 153.455078125 26.637692125258468 M 153.455078125 26.637692125258468 L 155.7652659280136 17.298740004082887 M 157.5465439489193 10.52983753965341 L 159.314453125 4.135157346635822 M 159.314453125 4.135157346635822 L 160.61760431705977 -0.031235536208839676 M 163.63527064868873 -5.5 L 174.63527064868873 -5.5 M 181.63527064868873 -5.5 L 192.63527064868873 -5.5 M 197.95272437692043 -3.087342782339822 L 199.3046875 0.5837311851743152 M 199.3046875 0.5837311851743152 L 201.53131563007764 7.312798084689334 M 203.6204258255128 13.993161423336979 L 205.896484375 21.54528089224806 M 205.896484375 21.54528089224806 L 206.73111734610274 24.543636866845095 M 208.6082912777451 31.287242581176436 L 209.998046875 36.2798347055367 M 209.998046875 36.2798347055367 L 211.46889985195506 41.9084152314209 M 213.2387005465175 48.680992695099434 L 215.271484375 56.45993977519123 M 215.271484375 56.45993977519123 L 216.00958257736673 59.32626907294259 M 217.75518145462357 66.10512476986663 L 220.4982654045986 76.75761229360442 M 222.24386428185545 83.53646799052848 L 224.9869482318305 94.18895551426627 M 226.73254710908736 100.96781121119031 L 229.4756310590624 111.6202987349281 M 231.22122993631928 118.39915443185214 L 232.703125 124.15394318977229 M 232.703125 124.15394318977229 L 234.0970850485025 129.01551968210305 M 236.02645115856748 135.7443789029021 L 237.09765625 139.48031487651042 M 237.09765625 139.48031487651042 L 239.21562672619575 146.27122207993557 M 241.33513824530385 152.94218379570043 L 244.421875 161.94045620337593 M 244.421875 161.94045620337593 L 244.95194762847842 163.3297876449207 M 247.4472176872835 169.86994263801 L 247.64453125 170.38710561115224 M 247.64453125 170.38710561115224 L 250.57421875 177.23083746399286 M 250.57421875 177.23083746399286 L 251.88438327115546 179.93188586704903 M 255.1204942991967 186.13581725453867 L 255.994140625 187.70519430066287 M 255.994140625 187.70519430066287 L 258.630859375 191.75747765864446 M 258.630859375 191.75747765864446 L 261.12109375 194.9602640596532 M 261.12109375 194.9602640596532 L 261.33680946826917 195.18603826366703 M 266.53116878961487 199.84309318665075 L 268.15234375 200.839723224662 M 268.15234375 200.839723224662 L 270.203125 201.72242431373826 M 270.203125 201.72242431373826 L 272.107421875 202.23035002018617 M 272.107421875 202.23035002018617 L 274.01171875 202.45365483389335 M 274.01171875 202.45365483389335 L 275.916015625 202.4089961757392 M 275.916015625 202.4089961757392 L 276.97390644810855 202.24025981427863 M 283.527432307625 199.89335799870304 L 285.14453125 199.0133417220058 M 285.14453125 199.0133417220058 L 288.220703125 196.98452431259244 M 288.220703125 196.98452431259244 L 292.17578125 193.96517389649892 M 292.17578125 193.96517389649892 L 292.55760367331584 193.64523888516854 M 297.92304132416103 189.1494543246171 L 299.353515625 187.95083741869436 M 299.353515625 187.95083741869436 L 305.212890625 183.25246666427802 M 305.212890625 183.25246666427802 L 306.5487232004219 182.33019331251117 M 312.51221537298125 178.68387579317738 L 314.880859375 177.62931817453838 M 314.880859375 177.62931817453838 L 317.37109375 176.8397372078452 M 317.37109375 176.8397372078452 L 319.568359375 176.4165394129111 M 319.568359375 176.4165394129111 L 321.83395629477644 176.26635176282562 M 321.83395629477644 176.26635176282562 L 323.1182607381662 176.34278330635357 M 329.80704246449704 178.23910869160682 L 330.115234375 178.37641277554994 M 330.115234375 178.37641277554994 L 332.458984375 179.75797348262867 M 332.458984375 179.75797348262867 L 334.94921875 181.6037857633677 M 334.94921875 181.6037857633677 L 337.732421875 184.1162448211542 M 337.732421875 184.1162448211542 L 338.47697881025204 184.91608622139384 M 343.04840088688843 190.21103742125482 L 344.03125 191.4354088143482 M 344.03125 191.4354088143482 L 347.546875 196.3921240020332 M 347.546875 196.3921240020332 L 349.35365425362517 199.21674555859585 M 353.03099451339705 205.17164843736552 L 356.3359375 210.7835618778999 M 356.3359375 210.7835618778999 L 358.52706788340004 214.69944593698105 M 361.94519558312294 220.80816127069787 L 366.150390625 228.3234859426423 M 366.150390625 228.3234859426423 L 367.35573426450793 230.38515028629598 M 370.8887478819281 236.42814745484765 L 371.716796875 237.8444730800541 M 371.716796875 237.8444730800541 L 375.818359375 244.22461221952526 M 375.818359375 244.22461221952526 L 376.8606118531396 245.66088541737398 M 381.1300894615042 251.20260144025391 L 382.41015625 252.72297790353625 M 382.41015625 252.72297790353625 L 385.193359375 255.48408335538332 M 385.193359375 255.48408335538332 L 387.68359375 257.4677757433419 M 387.68359375 257.4677757433419 L 389.31345439129575 258.46033889691745 M 395.9673401509081 260.2859004474575 L 396.912109375 260.2442351436863 M 396.912109375 260.2442351436863 L 398.5234375 259.92563000987127 M 398.5234375 259.92563000987127 L 400.28125 259.2915140735841 M 400.28125 259.2915140735841 L 402.0390625 258.3552316961614 M 402.0390625 258.3552316961614 L 403.943359375 256.9979261181453 M 403.943359375 256.9979261181453 L 405.5763943954736 255.50445930124147 M 410.0701408316669 250.15514577467945 L 410.974609375 248.9174261782613 M 410.974609375 248.9174261782613 L 413.611328125 244.6787345834154 M 413.611328125 244.6787345834154 L 415.7399218175974 240.7422290972597 M 418.8232995814953 234.45938690583452 L 419.32421875 233.41326663338816 M 419.32421875 233.41326663338816 L 422.546875 225.92583193404442 M 422.546875 225.92583193404442 L 423.1626909649935 224.3535062465475 M 425.71549257596337 217.83559216802286 L 426.208984375 216.57558938098472 M 426.208984375 216.57558938098472 L 429.48797946330996 207.50315828203009 M 431.79137529047154 200.89332330106495 L 435.32900089033853 190.47770017447453 M 437.56910575135055 183.84581742257225 L 441.0814817420202 173.42165247279488 M 443.316630099719 166.78809295930017 L 446.82900609038865 156.36392800952277 M 449.155086043584 149.76253061955276 L 452.13671875 141.71763873668692 M 452.13671875 141.71763873668692 L 453.05188664823356 139.4769792753507 M 455.71826525468816 133.00514559797654 L 458.435546875 127.07401452954741 M 458.435546875 127.07401452954741 L 460.513588330098 123.10957769850789 M 464.1948748414815 117.16450662259024 L 465.61328125 115.24182069387018 M 465.61328125 115.24182069387018 L 467.6640625 113.03043620715982 M 467.6640625 113.03043620715982 L 469.568359375 111.4980749461082 M 469.568359375 111.4980749461082 L 471.1796875 110.61202275793818 M 471.1796875 110.61202275793818 L 472.42943380226086 110.21387088675269 M 478.9029737880236 112.03552597041804 L 479.3828125 112.40491189788304 M 479.3828125 112.40491189788304 L 481.140625 114.24001896533184 M 481.140625 114.24001896533184 L 482.8984375 116.60786517072677 M 482.8984375 116.60786517072677 L 484.802734375 119.78048220387001 M 484.802734375 119.78048220387001 L 485.34122430948656 120.85738907431666 M 488.25374541352784 127.21919036925414 L 488.7578125 128.40231221859239 M 488.7578125 128.40231221859239 L 490.955078125 134.3763059967216 M 490.955078125 134.3763059967216 L 491.9795086795401 137.56447316575463 M 494.03259437382303 144.255599356214 L 495.7890625 150.44403442064748 M 495.7890625 150.44403442064748 L 496.9107280970139 154.87127703122417 M 498.61043998654645 161.66156470095075 L 501.05446156010026 172.38661754688133 M 502.4984045884333 179.23584472164066 L 504.431640625 188.58681011119944 M 504.431640625 188.58681011119944 L 504.701718603151 190.01274365517781 M 506.00438875537776 196.89046496928304 L 507.80078125 206.37489733126117 M 507.80078125 206.37489733126117 L 508.0328648248459 207.7016966071034 M 509.23899113142284 214.5970036584669 L 511.1343324703295 225.43248616775236 M 512.2922013448384 232.33594785515027 L 514.0624348523345 243.19257133249982 M 515.1889470843774 250.10133172717684 L 516.00390625 255.09937564235094 M 516.00390625 255.09937564235094 L 516.907079790884 260.9662130450432 M 517.9721518826016 267.8847115410642 L 519.6458365981576 278.75663774909714 M 520.7109086898752 285.67513624511815 L 521.423828125 290.30612045553147 M 521.423828125 290.30612045553147 L 522.371174210614 296.5491135146183 M 523.4213702340719 303.469885748431 L 525.0716782709343 314.3453849729939 M 526.1218742943922 321.2661572068066 L 527.7721823312546 332.1416564313695 M 528.8223783547126 339.0624286651822 L 530.4726863915749 349.9379278897451 M 531.5228824150329 356.8587001235578 L 533.1731904518953 367.7341993481207 M 534.2233864753532 374.6549715819334 L 535.8736945122157 385.5304708064962 M 536.9238905356736 392.45124304030895 L 538.574198572536 403.3267422648718" stroke-linecap="round" stroke-linejoin="round" stroke-miterlimit="10" stroke-width="2.5" stroke-opacity="0.9" stroke-dasharray=""/></g></g></g><g id="labels-eca2086c"/></g></svg>