<svg version="1.1" xmlns="http://www.w3.org/2000/svg" xmlns:xlink="http://www.w3.org/1999/xlink" width="600" height="400"><defs/><g transform="scale(1,1)"><g id="background-4a889d33"><rect fill="white" stroke="none" x="0" y="0" width="600" height="400" class="dcg-svg-background"/></g><g id="background-images-4a889d33"/><g id="graphpaper-4a889d33"><g id="grid-4a889d33"><g><path fill="none" stroke="rgb(0,0,0)" class="dcg-svg-minor-gridline" paint-order="fill stroke markers" d=" M -0.5 0 L -0.5 400" stroke-opacity="0.12" stroke-miterlimit="10" stroke-dasharray=""/><path fill="none" stroke="rgb(0,0,0)" class="dcg-svg-minor-gridline" paint-order="fill stroke markers" d=" M 29.5 0 L 29.5 400" stroke-opacity="0.12" stroke-miterlimit="10" stroke-dasharray=""/><path fill="none" stroke="rgb(0,0,0)" class="dcg-svg-minor-gridline" paint-order="fill stroke markers" d=" M 59.5 0 L 59.5 400" stroke-opacity="0.12" stroke-miterlimit="10" stroke-dasharray=""/><path fill="none" stroke="rgb(0,0,0)" class="dcg-svg-minor-gridline" paint-order="fill stroke markers" d=" M 89.5 0 L 89.5 400" stroke-opacity="0.12" stroke-miterlimit="10" stroke-dasharray=""/><path fill="none" stroke="rgb(0,0,0)" class="dcg-svg-minor-gridline" paint-order="fill stroke markers" d=" M 119.5 0 L 119.5 400" stroke-opacity="0.12" stroke-miterlimit="10" stroke-dasharray=""/><path fill="none" stroke="rgb(0,0,0)" class="dcg-svg-minor-gridline" paint-order="fill stroke markers" d=" M 149.5 0 L 149.5 400" stroke-opacity="0.12" stroke-miterlimit="10" stroke-dasharray=""/><path fill="none" stroke="rgb(0,0,0)" class="dcg-svg-minor-gridline" paint-order="fill stroke markers" d=" M 179.5 0 L 179.5 400" stroke-opacity="0.12" stroke-miterlimit="10" stroke-dasharray=""/><path fill="none" stroke="rgb(0,0,0)" class="dcg-svg-minor-gridline" paint-order="fill stroke markers" d=" M 209.5 0 L 209.5 400" stroke-opacity="0.12" stroke-miterlimit="10" stroke-dasharray=""/><path fill="none" stroke="rgb(0,0,0)" class="dcg-svg-minor-gridline" paint-order="fill stroke markers" d=" M 239.5 0 L 239.5 400" stroke-opacity="0.12" stroke-miterlimit="10" stroke-dasharray=""/><path fill="none" stroke="rgb(0,0,0)" class="dcg-svg-minor-gridline" paint-order="fill stroke markers" d=" M 269.5 0 L 269.5 400" stroke-opacity="0.12" stroke-miterlimit="10" stroke-dasharray=""/><path fill="none" stroke="rgb(0,0,0)" class="dcg-svg-minor-gridline" paint-order="fill stroke markers" d=" M 329.5 0 L 329.5 400" stroke-opacity="0.12" stroke-miterlimit="10" stroke-dasharray=""/><path fill="none" stroke="rgb(0,0,0)" class="dcg-svg-minor-gridline" paint-order="fill stroke markers" d=" M 359.5 0 L 359.5 400" stroke-opacity="0.12" stroke-miterlimit="10" stroke-dasharray=""/><path fill="none" stroke="rgb(0,0,0)" class="dcg-svg-minor-gridline" paint-order="fill stroke markers" d=" M 389.5 0 L 389.5 400" stroke-opacity="0.12" stroke-miterlimit="10" stroke-dasharray=""/><path fill="none" stroke="rgb(0,0,0)" class="dcg-svg-minor-gridline" paint-order="fill stroke markers" d=" M 419.5 0 L 419.5 400" stroke-opacity="0.12" stroke-miterlimit="10" stroke-dasharray=""/><path fill="none" stroke="rgb(0,0,0)" class="dcg-svg-minor-gridline" paint-order="fill stroke markers" d=" M 449.5 0 L 449.5 400" stroke-opacity="0.12" stroke-miterlimit="10" stroke-dasharray=""/><path fill="none" stroke="rgb(0,0,0)" class="dcg-svg-minor-gridline" paint-order="fill stroke markers" d=" M 479.5 0 L 479.5 400" stroke-opacity="0.12" stroke-miterlimit="10" stroke-dasharray=""/><path fill="none" stroke="rgb(0,0,0)" class="dcg-svg-minor-gridline" paint-order="fill stroke markers" d=" M 509.5 0 L 509.5 400" stroke-opacity="0.12" stroke-miterlimit="10" stroke-dasharray=""/><path fill="none" stroke="rgb(0,0,0)" class="dcg-svg-minor-gridline" paint-order="fill stroke markers" d=" M 539.5 0 L 539.5 400" stroke-opacity="0.12" stroke-miterlimit="10" stroke-dasharray=""/><path fill="none" stroke="rgb(0,0,0)" class="dcg-svg-minor-gridline" paint-order="fill stroke markers" d=" M 569.5 0 L 569.5 400" stroke-opacity="0.12" stroke-miterlimit="10" stroke-dasharray=""/><path fill="none" stroke="rgb(0,0,0)" class="dcg-svg-minor-gridline" paint-order="fill stroke markers" d=" M 0 370.5 L 600 370.5" stroke-opacity="0.12" stroke-miterlimit="10" stroke-dasharray=""/><path fill="none" stroke="rgb(0,0,0)" class="dcg-svg-minor-gridline" paint-order="fill stroke markers" d=" M 0 342.5 L 600 342.5" stroke-opacity="0.12" stroke-miterlimit="10" stroke-dasharray=""/><path fill="none" stroke="rgb(0,0,0)" class="dcg-svg-minor-gridline" paint-order="fill stroke markers" d=" M 0 313.5 L 600 313.5" stroke-opacity="0.12" stroke-miterlimit="10" stroke-dasharray=""/><path fill="none" stroke="rgb(0,0,0)" class="dcg-svg-minor-gridline" paint-order="fill stroke markers" d=" M 0 285.5 L 600 285.5" stroke-opacity="0.12" stroke-miterlimit="10" stroke-dasharray=""/><path fill="none" stroke="rgb(0,0,0)" class="dcg-svg-minor-gridline" paint-order="fill stroke markers" d=" M 0 256.5 L 600 256.5" stroke-opacity="0.12" stroke-miterlimit="10" stroke-dasharray=""/><path fill="none" stroke="rgb(0,0,0)" class="dcg-svg-minor-gridline" paint-order="fill stroke markers" d=" M 0 228.5 L 600 228.5" stroke-opacity="0.12" stroke-miterlimit="10" stroke-dasharray=""/><path fill="none" stroke="rgb(0,0,0)" class="dcg-svg-minor-gridline" paint-order="fill stroke markers" d=" M 0 170.5 L 600 170.5" stroke-opacity="0.12" stroke-miterlimit="10" stroke-dasharray=""/><path fill="none" stroke="rgb(0,0,0)" class="dcg-svg-minor-gridline" paint-order="fill stroke markers" d=" M 0 142.5 L 600 142.5" stroke-opacity="0.12" stroke-miterlimit="10" stroke-dasharray=""/><path fill="none" stroke="rgb(0,0,0)" class="dcg-svg-minor-gridline" paint-order="fill stroke markers" d=" M 0 113.5 L 600 113.5" stroke-opacity="0.12" stroke-miterlimit="10" stroke-dasharray=""/><path fill="none" stroke="rgb(0,0,0)" class="dcg-svg-minor-gridline" paint-order="fill stroke markers" d=" M 0 85.5 L 600 85.5" stroke-opacity="0.12" stroke-miterlimit="10" stroke-dasharray=""/><path fill="none" stroke="rgb(0,0,0)" class="dcg-svg-minor-gridline" paint-order="fill stroke markers" d=" M 0 56.5 L 600 56.5" stroke-opacity="0.12" stroke-miterlimit="10" stroke-dasharray=""/><path fill="none" stroke="rgb(0,0,0)" class="dcg-svg-minor-gridline" paint-order="fill stroke markers" d=" M 0 28.5 L 600 28.5" stroke-opacity="0.12" stroke-miterlimit="10" stroke-dasharray=""/><path fill="none" stroke="rgb(0,0,0)" class="dcg-svg-minor-gridline" paint-order="fill stroke markers" d=" M 0 -0.5 L 600 -0.5" stroke-opacity="0.12" stroke-miterlimit="10" stroke-dasharray=""/><path fill="none" stroke="rgb(0,0,0)" class="dcg-svg-major-gridline" paint-order="fill stroke markers" d=" M -0.5 0 L -0.5 400" stroke-opacity="0.31818181818181823" stroke-miterlimit="10" stroke-dasharray=""/><path fill="none" stroke="rgb(0,0,0)" class="dcg-svg-major-gridline" paint-order="fill stroke markers" d=" M 149.5 0 L 149.5 400" stroke-opacity="0.31818181818181823" stroke-miterlimit="10" stroke-dasharray=""/><path fill="none" stroke="rgb(0,0,0)" class="dcg-svg-major-gridline" paint-order="fill stroke markers" d=" M 449.5 0 L 449.5 400" stroke-opacity="0.31818181818181823" stroke-miterlimit="10" stroke-dasharray=""/><path fill="none" stroke="rgb(0,0,0)" class="dcg-svg-major-gridline" paint-order="fill stroke markers" d=" M 0 342.5 L 600 342.5" stroke-opacity="0.31818181818181823" stroke-miterlimit="10" stroke-dasharray=""/><path fill="none" stroke="rgb(0,0,0)" class="dcg-svg-major-gridline" paint-order="fill stroke markers" d=" M 0 56.5 L 600 56.5" stroke-opacity="0.31818181818181823" stroke-miterlimit="10" stroke-dasharray=""/></g></g><g id="axis-4a889d33"><g id="yaxis-4a889d33"><title>Y axis</title><path fill="none" stroke="rgb(0,0,0)" class="dcg-svg-axis-line" paint-order="fill stroke markers" d=" M 299.75 0 L 299.75 400" stroke-opacity="0.9" stroke-miterlimit="10" stroke-width="1.5" stroke-dasharray=""/></g><g id="xaxis-4a889d33"><title>X axis</title><path fill="none" stroke="rgb(0,0,0)" class="dcg-svg-axis-line" paint-order="fill stroke markers" d=" M 0 199.75 L 600 199.75" stroke-opacity="0.9" stroke-miterlimit="10" stroke-width="1.5" stroke-dasharray=""/></g><g><g class="dcg-svg-axis-value"><text fill="none" stroke="#ffffff" font-family="Arial" font-size="14px" font-style="normal" font-weight="normal" text-decoration="normal" x="291.10693359375" y="215.808" text-anchor="middle" stroke-miterlimit="2" stroke-width="3" stroke-dasharray="">0</text><text fill="#000000" stroke="none" font-family="Arial" font-size="14px" font-style="normal" font-weight="normal" text-decoration="normal" x="291.10693359375" y="215.808" text-anchor="middle">0</text></g><g class="dcg-svg-axis-value dcg-svg-offcenter-axis-value"><text fill="none" stroke="#ffffff" font-family="Arial" font-size="14px" font-style="normal" font-weight="normal" text-decoration="normal" x="13.1171875" y="215.808" text-anchor="middle" stroke-miterlimit="2" stroke-width="3" stroke-dasharray="">-10</text><text fill="#000000" stroke="none" font-family="Arial" font-size="14px" font-style="normal" font-weight="normal" text-decoration="normal" x="13.1171875" y="215.808" text-anchor="middle">-10</text></g><g class="dcg-svg-axis-value"><text fill="none" stroke="#ffffff" font-family="Arial" font-size="14px" font-style="normal" font-weight="normal" text-decoration="normal" x="147.6689453125" y="215.808" text-anchor="middle" stroke-miterlimit="2" stroke-width="3" stroke-dasharray="">-5</text><text fill="#000000" stroke="none" font-family="Arial" font-size="14px" font-style="normal" font-weight="normal" text-decoration="normal" x="147.6689453125" y="215.808" text-anchor="middle">-5</text></g><g class="dcg-svg-axis-value"><text fill="none" stroke="#ffffff" font-family="Arial" font-size="14px" font-style="normal" font-weight="normal" text-decoration="normal" x="450" y="215.808" text-anchor="middle" stroke-miterlimit="2" stroke-width="3" stroke-dasharray="">5</text><text fill="#000000" stroke="none" font-family="Arial" font-size="14px" font-style="normal" font-weight="normal" text-decoration="normal" x="450" y="215.808" text-anchor="middle">5</text></g><g class="dcg-svg-axis-value dcg-svg-offcenter-axis-value"><text fill="none" stroke="#ffffff" font-family="Arial" font-size="14px" font-style="normal" font-weight="normal" text-decoration="normal" x="589.2138671875" y="215.808" text-anchor="middle" stroke-miterlimit="2" stroke-width="3" stroke-dasharray="">10</text><text fill="#000000" stroke="none" font-family="Arial" font-size="14px" font-style="normal" font-weight="normal" text-decoration="normal" x="589.2138671875" y="215.808" text-anchor="middle">10</text></g><g class="dcg-svg-axis-value"><text fill="none" stroke="#ffffff" font-family="Arial" font-size="14px" font-style="normal" font-weight="normal" text-decoration="normal" x="288.77587890625" y="346.6651428571428" text-anchor="middle" stroke-miterlimit="2" stroke-width="3" stroke-dasharray="">-5</text><text fill="#000000" stroke="none" font-family="Arial" font-size="14px" font-style="normal" font-weight="normal" text-decoration="normal" x="288.77587890625" y="346.6651428571428" text-anchor="middle">-5</text></g><g class="dcg-svg-axis-value"><text fill="none" stroke="#ffffff" font-family="Arial" font-size="14px" font-style="normal" font-weight="normal" text-decoration="normal" x="291.10693359375" y="60.95085714285717" text-anchor="middle" stroke-miterlimit="2" stroke-width="3" stroke-dasharray="">5</text><text fill="#000000" stroke="none" font-family="Arial" font-size="14px" font-style="normal" font-weight="normal" text-decoration="normal" x="291.10693359375" y="60.95085714285717" text-anchor="middle">5</text></g></g></g></g><g id="expressions-4a889d33"><g id="sketch-4a889d33"><title>Expression 1</title><path fill="#2d70b3" stroke="none" paint-order="stroke fill markers" d="" fill-opacity="0.4"/><g><path fill="none" stroke="#2d70b3" class="dcg-svg-curve" paint-order="fill stroke markers" d=" M -0.5 299.20504676919523 L -0.5 299.20504676919523 L 1.697265625 307.9324419833674 L 3.748046875 314.83946381785927 L 5.65234375 320.1710582278345 L 7.41015625 324.16294940836667 L 9.021484375 327.0375826542821 L 10.486328125 329.0012392537708 L 11.951171875 330.34935280291984 L 13.123046875 330.987720083361 L 14.1484375 331.2279443138915 L 15.173828125 331.1735883369746 L 16.19921875 330.8274440334422 L 17.37109375 330.0785983249242 L 18.689453125 328.7920365373269 L 20.154296875 326.8207944428616 L 21.765625 324.0084763675956 L 23.5234375 320.1924380499919 L 25.427734375 315.2077154900019 L 27.478515625 308.8917649683734 L 29.67578125 301.0900543737579 L 32.166015625 291.03729291770316 L 34.802734375 279.10318511987055 L 37.732421875 264.4456192135607 L 41.1015625 246.01333634887953 L 45.056640625 222.62221988137577 L 50.037109375 191.23413010832346 L 60.876953125 120.25339758222623 L 66.736328125 83.26710675161945 L 71.130859375 57.363599291035996 L 74.939453125 36.673524587033796 L 78.30859375 20.003848472594598 L 81.384765625 6.292828386575081 L 84.16796875 -4.764073582762364 L 84.37759654191068 -5.5 L 124.37539876387507 -5.5 L 125.623046875 -1.4878975027727392 L 128.845703125 9.929240124308023 L 132.654296875 24.604927387614396 L 137.1953125 43.366872849148876 L 143.93359375 72.65031742304251 L 153.89453125 115.82640058722694 L 158.728515625 135.4189185371526 L 162.830078125 150.8345781322705 L 166.4921875 163.4434890980509 L 169.71484375 173.5154405034171 L 172.791015625 182.15773818165465 L 175.57421875 189.1133905836597 L 178.2109375 194.91951751410568 L 180.701171875 199.6893775493016 L 183.19140625 203.7604227374507 L 185.53515625 206.95491699628883 L 187.87890625 209.53836470422948 L 190.076171875 211.41574855789543 L 192.126953125 212.7045716736305 L 193.884765625 213.46378329853502 L 195.642578125 213.91478321909239 L 197.4629391162441 214.06926230395223 L 199.158203125 213.9394274019767 L 200.916015625 213.53971533481618 L 202.8203125 212.81932104254523 L 204.87109375 211.73204299278845 L 207.21484375 210.12776657406113 L 209.8515625 207.91266048716776 L 213.07421875 204.70478779395825 L 217.029296875 200.18262783440767 L 222.302734375 193.5223865989438 L 233.142578125 179.69082890885355 L 237.390625 174.9523624122376 L 241.052734375 171.44111718539457 L 244.12890625 168.9927903382265 L 246.765625 167.3050690181233 L 249.109375 166.14841916549628 L 251.306640625 165.37273990042004 L 253.357421875 164.9272428906465 L 255.408203125 164.75615322391272 L 257.458984375 164.8622838614252 L 259.509765625 165.2458880078067 L 261.560546875 165.90466964411044 L 263.7578125 166.91034684849222 L 266.1015625 168.3148347031656 L 268.73828125 170.2857241315865 L 271.66796875 172.9285568520526 L 275.037109375 176.49872810889067 L 278.845703125 181.11680429756333 L 283.38671875 187.24050768267662 L 290.271484375 197.22168842515313 L 297.888671875 208.11851761626943 L 302.13671875 213.60692182420183 L 305.65234375 217.60386324176437 L 308.875 220.71354544141403 L 311.658203125 222.89857500533068 L 314.001953125 224.33637771020145 L 316.19921875 225.32273071709812 L 318.103515625 225.8776957785897 L 320.0078125 226.14150592279572 L 321.765625 226.11766789213493 L 323.5234375 225.8302233742844 L 325.28125 225.27381082414388 L 327.185546875 224.36296647058762 L 329.236328125 223.0203918629205 L 331.43359375 221.1645131187454 L 333.923828125 218.5420606147576 L 336.4140625 215.37683118033365 L 339.05078125 211.45082410705953 L 341.833984375 206.6936436158142 L 344.91015625 200.75043388100158 L 348.279296875 193.49281658975661 L 352.087890625 184.47686955520842 L 356.482421875 173.23238458504827 L 362.78125 156.16572833938048 L 372.009765625 131.21925676559124 L 376.2578125 120.64953296156716 L 379.7734375 112.71190843488336 L 382.849609375 106.54234080493927 L 385.486328125 101.93682118907026 L 387.9765625 98.24216243012694 L 390.173828125 95.56254232405473 L 392.37109375 93.4699077543454 L 394.275390625 92.16056970678801 L 395.88671875 91.43631295388798 L 397.3515625 91.0944755537459 L 398.669921875 91.05212301538876 L 399.98828125 91.2671815776352 L 401.306640625 91.74496069597058 L 402.771484375 92.5897224600206 L 404.3828125 93.907122165685 L 406.140625 95.81520877942921 L 408.044921875 98.44392438989337 L 409.94921875 101.6620000323785 L 412 105.7897118197094 L 414.197265625 110.97358535066536 L 416.541015625 117.36486976639384 L 419.03125 125.11559183670926 L 421.66796875 134.37343894932036 L 424.451171875 145.2753484658211 L 427.52734375 158.60350844192726 L 430.896484375 174.62667087135864 L 434.55859375 193.55513620630168 L 438.806640625 217.18063882291398 L 443.93359375 247.50072864145025 L 452.4296875 299.90671298007186 L 459.900390625 345.27339657019127 L 464.587890625 371.9524138583959 L 468.396484375 391.98069453096633 L 471.2175942765747 405.5 L 514.4251008776304 405.5 L 514.978515625 402.7294892141656 L 517.76171875 387.219316588501 L 520.837890625 368.2740937197621 L 524.20703125 345.55919924127596 L 528.015625 317.73569976504245 L 532.41015625 283.3516562518529 L 538.26953125 234.94535452009208 L 551.892578125 121.43304776044039 L 556.287109375 87.77350114629382 L 559.94921875 61.91981249108085 L 563.171875 41.22627979614725 L 565.955078125 25.152795205032078 L 568.591796875 11.639912045652466 L 570.935546875 1.1496460069243994 L 572.6559074969382 -5.5 L 595.210820455336 -5.5 L 596.130859375 -1.9209343599757176 L 598.03515625 6.686981274964921 L 599.5 14.146212678920108" stroke-linecap="round" stroke-linejoin="round" stroke-miterlimit="10" stroke-width="2.5" stroke-opacity="0.9" stroke-dasharray=""/></g></g></g><g id="labels-4a889d33"/></g></svg>