<svg version="1.1" xmlns="http://www.w3.org/2000/svg" xmlns:xlink="http://www.w3.org/1999/xlink" width="600" height="400"><defs/><g transform="scale(1,1)"><g id="background-8f18fe9e"><rect fill="white" stroke="none" x="0" y="0" width="600" height="400" class="dcg-svg-background"/></g><g id="background-images-8f18fe9e"/><g id="graphpaper-8f18fe9e"><g id="grid-8f18fe9e"><g><path fill="none" stroke="rgb(0,0,0)" class="dcg-svg-minor-gridline" paint-order="fill stroke markers" d=" M -0.5 0 L -0.5 400" stroke-opacity="0.12" stroke-miterlimit="10" stroke-dasharray=""/><path fill="none" stroke="rgb(0,0,0)" class="dcg-svg-minor-gridline" paint-order="fill stroke markers" d=" M 37.5 0 L 37.5 400" stroke-opacity="0.12" stroke-miterlimit="10" stroke-dasharray=""/><path fill="none" stroke="rgb(0,0,0)" class="dcg-svg-minor-gridline" paint-order="fill stroke markers" d=" M 74.5 0 L 74.5 400" stroke-opacity="0.12" stroke-miterlimit="10" stroke-dasharray=""/><path fill="none" stroke="rgb(0,0,0)" class="dcg-svg-minor-gridline" paint-order="fill stroke markers" d=" M 112.5 0 L 112.5 400" stroke-opacity="0.12" stroke-miterlimit="10" stroke-dasharray=""/><path fill="none" stroke="rgb(0,0,0)" class="dcg-svg-minor-gridline" paint-order="fill stroke markers" d=" M 149.5 0 L 149.5 400" stroke-opacity="0.12" stroke-miterlimit="10" stroke-dasharray=""/><path fill="none" stroke="rgb(0,0,0)" class="dcg-svg-minor-gridline" paint-order="fill stroke markers" d=" M 187.5 0 L 187.5 400" stroke-opacity="0.12" stroke-miterlimit="10" stroke-dasharray=""/><path fill="none" stroke="rgb(0,0,0)" class="dcg-svg-minor-gridline" paint-order="fill stroke markers" d=" M 224.5 0 L 224.5 400" stroke-opacity="0.12" stroke-miterlimit="10" stroke-dasharray=""/><path fill="none" stroke="rgb(0,0,0)" class="dcg-svg-minor-gridline" paint-order="fill stroke markers" d=" M 262.5 0 L 262.5 400" stroke-opacity="0.12" stroke-miterlimit="10" stroke-dasharray=""/><path fill="none" stroke="rgb(0,0,0)" class="dcg-svg-minor-gridline" paint-order="fill stroke markers" d=" M 337.5 0 L 337.5 400" stroke-opacity="0.12" stroke-miterlimit="10" stroke-dasharray=""/><path fill="none" stroke="rgb(0,0,0)" class="dcg-svg-minor-gridline" paint-order="fill stroke markers" d=" M 374.5 0 L 374.5 400" stroke-opacity="0.12" stroke-miterlimit="10" stroke-dasharray=""/><path fill="none" stroke="rgb(0,0,0)" class="dcg-svg-minor-gridline" paint-order="fill stroke markers" d=" M 412.5 0 L 412.5 400" stroke-opacity="0.12" stroke-miterlimit="10" stroke-dasharray=""/><path fill="none" stroke="rgb(0,0,0)" class="dcg-svg-minor-gridline" paint-order="fill stroke markers" d=" M 449.5 0 L 449.5 400" stroke-opacity="0.12" stroke-miterlimit="10" stroke-dasharray=""/><path fill="none" stroke="rgb(0,0,0)" class="dcg-svg-minor-gridline" paint-order="fill stroke markers" d=" M 487.5 0 L 487.5 400" stroke-opacity="0.12" stroke-miterlimit="10" stroke-dasharray=""/><path fill="none" stroke="rgb(0,0,0)" class="dcg-svg-minor-gridline" paint-order="fill stroke markers" d=" M 524.5 0 L 524.5 400" stroke-opacity="0.12" stroke-miterlimit="10" stroke-dasharray=""/><path fill="none" stroke="rgb(0,0,0)" class="dcg-svg-minor-gridline" paint-order="fill stroke markers" d=" M 562.5 0 L 562.5 400" stroke-opacity="0.12" stroke-miterlimit="10" stroke-dasharray=""/><path fill="none" stroke="rgb(0,0,0)" class="dcg-svg-minor-gridline" paint-order="fill stroke markers" d=" M 0 387.5 L 600 387.5" stroke-opacity="0.12" stroke-miterlimit="10" stroke-dasharray=""/><path fill="none" stroke="rgb(0,0,0)" class="dcg-svg-minor-gridline" paint-order="fill stroke markers" d=" M 0 349.5 L 600 349.5" stroke-opacity="0.12" stroke-miterlimit="10" stroke-dasharray=""/><path fill="none" stroke="rgb(0,0,0)" class="dcg-svg-minor-gridline" paint-order="fill stroke markers" d=" M 0 312.5 L 600 312.5" stroke-opacity="0.12" stroke-miterlimit="10" stroke-dasharray=""/><path fill="none" stroke="rgb(0,0,0)" class="dcg-svg-minor-gridline" paint-order="fill stroke markers" d=" M 0 274.5 L 600 274.5" stroke-opacity="0.12" stroke-miterlimit="10" stroke-dasharray=""/><path fill="none" stroke="rgb(0,0,0)" class="dcg-svg-minor-gridline" paint-order="fill stroke markers" d=" M 0 237.5 L 600 237.5" stroke-opacity="0.12" stroke-miterlimit="10" stroke-dasharray=""/><path fill="none" stroke="rgb(0,0,0)" class="dcg-svg-minor-gridline" paint-order="fill stroke markers" d=" M 0 162.5 L 600 162.5" stroke-opacity="0.12" stroke-miterlimit="10" stroke-dasharray=""/><path fill="none" stroke="rgb(0,0,0)" class="dcg-svg-minor-gridline" paint-order="fill stroke markers" d=" M 0 124.5 L 600 124.5" stroke-opacity="0.12" stroke-miterlimit="10" stroke-dasharray=""/><path fill="none" stroke="rgb(0,0,0)" class="dcg-svg-minor-gridline" paint-order="fill stroke markers" d=" M 0 87.5 L 600 87.5" stroke-opacity="0.12" stroke-miterlimit="10" stroke-dasharray=""/><path fill="none" stroke="rgb(0,0,0)" class="dcg-svg-minor-gridline" paint-order="fill stroke markers" d=" M 0 49.5 L 600 49.5" stroke-opacity="0.12" stroke-miterlimit="10" stroke-dasharray=""/><path fill="none" stroke="rgb(0,0,0)" class="dcg-svg-minor-gridline" paint-order="fill stroke markers" d=" M 0 12.5 L 600 12.5" stroke-opacity="0.12" stroke-miterlimit="10" stroke-dasharray=""/><path fill="none" stroke="rgb(0,0,0)" class="dcg-svg-major-gridline" paint-order="fill stroke markers" d=" M -0.5 0 L -0.5 400" stroke-opacity="0.31818181818181823" stroke-miterlimit="10" stroke-dasharray=""/><path fill="none" stroke="rgb(0,0,0)" class="dcg-svg-major-gridline" paint-order="fill stroke markers" d=" M 149.5 0 L 149.5 400" stroke-opacity="0.31818181818181823" stroke-miterlimit="10" stroke-dasharray=""/><path fill="none" stroke="rgb(0,0,0)" class="dcg-svg-major-gridline" paint-order="fill stroke markers" d=" M 449.5 0 L 449.5 400" stroke-opacity="0.31818181818181823" stroke-miterlimit="10" stroke-dasharray=""/><path fill="none" stroke="rgb(0,0,0)" class="dcg-svg-major-gridline" paint-order="fill stroke markers" d=" M 0 349.5 L 600 349.5" stroke-opacity="0.31818181818181823" stroke-miterlimit="10" stroke-dasharray=""/><path fill="none" stroke="rgb(0,0,0)" class="dcg-svg-major-gridline" paint-order="fill stroke markers" d=" M 0 49.5 L 600 49.5" stroke-opacity="0.31818181818181823" stroke-miterlimit="10" stroke-dasharray=""/></g></g><g id="axis-8f18fe9e"><g id="yaxis-8f18fe9e"><title>Y axis</title><path fill="none" stroke="rgb(0,0,0)" class="dcg-svg-axis-line" paint-order="fill stroke markers" d=" M 299.75 0 L 299.75 400" stroke-opacity="0.9" stroke-miterlimit="10" stroke-width="1.5" stroke-dasharray=""/></g><g id="xaxis-8f18fe9e"><title>X axis</title><path fill="none" stroke="rgb(0,0,0)" class="dcg-svg-axis-line" paint-order="fill stroke markers" d=" M 0 199.75 L 600 199.75" stroke-opacity="0.9" stroke-miterlimit="10" stroke-width="1.5" stroke-dasharray=""/></g><g><g class="dcg-svg-axis-value"><text fill="none" stroke="#ffffff" font-family="Arial" font-size="14px" font-style="normal" font-weight="normal" text-decoration="normal" x="291.10693359375" y="215.80800000000002" text-anchor="middle" stroke-miterlimit="2" stroke-width="3" stroke-dasharray="">0</text><text fill="#000000" stroke="none" font-family="Arial" font-size="14px" font-style="normal" font-weight="normal" text-decoration="normal" x="291.10693359375" y="215.80800000000002" text-anchor="middle">0</text></g><g class="dcg-svg-axis-value dcg-svg-offcenter-axis-value"><text fill="none" stroke="#ffffff" font-family="Arial" font-size="14px" font-style="normal" font-weight="normal" text-decoration="normal" x="9.22412109375" y="215.80800000000002" text-anchor="middle" stroke-miterlimit="2" stroke-width="3" stroke-dasharray="">-4</text><text fill="#000000" stroke="none" font-family="Arial" font-size="14px" font-style="normal" font-weight="normal" text-decoration="normal" x="9.22412109375" y="215.80800000000002" text-anchor="middle">-4</text></g><g class="dcg-svg-axis-value"><text fill="none" stroke="#ffffff" font-family="Arial" font-size="14px" font-style="normal" font-weight="normal" text-decoration="normal" x="147.6689453125" y="215.80800000000002" text-anchor="middle" stroke-miterlimit="2" stroke-width="3" stroke-dasharray="">-2</text><text fill="#000000" stroke="none" font-family="Arial" font-size="14px" font-style="normal" font-weight="normal" text-decoration="normal" x="147.6689453125" y="215.80800000000002" text-anchor="middle">-2</text></g><g class="dcg-svg-axis-value"><text fill="none" stroke="#ffffff" font-family="Arial" font-size="14px" font-style="normal" font-weight="normal" text-decoration="normal" x="450" y="215.80800000000002" text-anchor="middle" stroke-miterlimit="2" stroke-width="3" stroke-dasharray="">2</text><text fill="#000000" stroke="none" font-family="Arial" font-size="14px" font-style="normal" font-weight="normal" text-decoration="normal" x="450" y="215.80800000000002" text-anchor="middle">2</text></g><g class="dcg-svg-axis-value dcg-svg-offcenter-axis-value"><text fill="none" stroke="#ffffff" font-family="Arial" font-size="14px" font-style="normal" font-weight="normal" text-decoration="normal" x="593.10693359375" y="215.80800000000002" text-anchor="middle" stroke-miterlimit="2" stroke-width="3" stroke-dasharray="">4</text><text fill="#000000" stroke="none" font-family="Arial" font-size="14px" font-style="normal" font-weight="normal" text-decoration="normal" x="593.10693359375" y="215.80800000000002" text-anchor="middle">4</text></g><g class="dcg-svg-axis-value"><text fill="none" stroke="#ffffff" font-family="Arial" font-size="14px" font-style="normal" font-weight="normal" text-decoration="normal" x="288.77587890625" y="353.808" text-anchor="middle" stroke-miterlimit="2" stroke-width="3" stroke-dasharray="">-2</text><text fill="#000000" stroke="none" font-family="Arial" font-size="14px" font-style="normal" font-weight="normal" text-decoration="normal" x="288.77587890625" y="353.808" text-anchor="middle">-2</text></g><g class="dcg-svg-axis-value"><text fill="none" stroke="#ffffff" font-family="Arial" font-size="14px" font-style="normal" font-weight="normal" text-decoration="normal" x="291.10693359375" y="53.80800000000006" text-anchor="middle" stroke-miterlimit="2" stroke-width="3" stroke-dasharray="">2</text><text fill="#000000" stroke="none" font-family="Arial" font-size="14px" font-style="normal" font-weight="normal" text-decoration="normal" x="291.10693359375" y="53.80800000000006" text-anchor="middle">2</text></g></g></g></g><g id="expressions-8f18fe9e"><g id="sketch-8f18fe9e"><title>Expression 1</title><path fill="#2d70b3" stroke="none" paint-order="stroke fill markers" d="" fill-opacity="0.4"/><g><path fill="none" stroke="#2d70b3" class="dcg-svg-curve" paint-order="fill stroke markers" d=" M 63.88055098076552 134.5480947161671 L 63.88055098076552 134.5480947161671 L 71.79068479925394 132.074044593478 L 79.40785069853912 130.00641905991085 L 86.87853263822268 128.28783986747698 L 94.20273061830457 126.9076578573547 L 101.38044463878482 125.85345820340774 L 108.55815865926509 125.09894857416612 L 115.58938872014367 124.65337812018572 L 122.62061878102232 124.50008046579973 L 129.6518488419009 124.63965423167383 L 136.68307890277956 125.0715543883295 L 143.7143089636581 125.79409438445987 L 150.89202298413838 126.82853612862982 L 158.21622096422033 128.18888945702133 L 165.54041894430222 129.85139021392928 L 173.15758484358733 131.8933235046885 L 180.92123470247412 134.2932673714633 L 188.97785248056422 137.11181802772904 L 197.32743817785757 140.37014572546576 L 205.9699917943542 144.08545887041964 L 215.05199728965576 148.34149358400055 L 224.71993862336387 153.23758463384473 L 234.97381579547852 158.802682582479 L 246.25308068480467 165.31265363585402 L 258.8507012105455 172.9863036223786 L 273.6455811303109 182.4150454575486 L 294.1533354745402 195.93689867309257 L 329.4559697385349 219.23548682529224 L 344.54381757750366 228.7332792314607 L 357.1414381032445 236.26821228300466 L 368.42070299257057 242.62649248292723 L 378.82106412428686 248.1068854316632 L 388.48900545799495 252.82996287125667 L 397.5710109532966 256.90884526885293 L 406.21356456979316 260.4434972297405 L 414.5631502670865 263.5171153773358 L 422.6197680451766 266.1489236588943 L 430.38341790406344 268.36190956698664 L 438.0005838033486 270.2145993267977 L 445.32478178343047 271.69051762580773 L 452.6489797635124 272.86056242070566 L 459.8266937839926 273.7056637993136 L 466.8579238448712 274.2407505577218 L 473.8891539057498 274.4839779394388 L 480.9203839666285 274.43439615212895 L 487.95161402750705 274.09219881051314 L 494.9828440883857 273.4587221803109 L 502.160558108866 272.5141785139877 L 509.33827212934625 271.2725181001717 L 516.6624701094281 269.70449381324715 L 524.1331520491117 267.79871932760403 L 531.7503179483969 265.54565649437586 L 535.1194490192345 264.45190528383296" stroke-linecap="round" stroke-linejoin="round" stroke-miterlimit="10" stroke-width="2.5" stroke-opacity="0.9" stroke-dasharray=""/></g></g><g id="sketch-8f18fe9e"><title>Expression 2</title><path fill="#388c46" stroke="none" class="dcg-svg-region" paint-order="stroke fill markers" d=" M 63.88055098076552 134.5480947161671 L 71.7882267091923 132.07476224483122 L 79.40302555878843 130.00762893135283 L 86.87138596896924 128.28933500263048 L 94.19330793973477 126.9092369993545 L 101.36879147108496 125.85492783363128 L 108.5442750024352 125.10011654947675 L 115.5733200943701 124.65406363264401 L 122.60236518630501 124.5000992787584 L 129.6314102782399 124.63882433843469 L 136.6604553701748 125.06969743287141 L 143.6895004621097 125.79103706659834 L 150.86498399345993 126.82408138057156 L 158.18690596422542 128.18283813694092 L 165.50882793499096 129.84358025514524 L 173.12362678458712 131.88352536515316 L 180.88486407359855 134.2812910631992 L 188.93897824144062 137.09743797656694 L 197.2859692881133 140.35314292478358 L 205.92583721361666 144.0656271834945 L 215.00502045736587 148.3185969521214 L 224.66995745877637 153.21136259465197 L 234.9206482178481 158.77291430391904 L 246.196408052827 165.27902971237333 L 258.7901138425437 172.9485240355313 L 273.58039622349 182.37273428065055 L 294.0817777416335 195.88924810777954 L 299.5 199.50000000000003 L 299.5 399.5 L 63.88055098076552 399.5 L 63.88055098076552 134.5480947161671" fill-opacity="0.4"/><path fill="#388c46" stroke="none" paint-order="stroke fill markers" d="" fill-opacity="0.4"/><path fill="#388c46" stroke="none" paint-order="stroke fill markers" d="" fill-opacity="0.4"/><path fill="#388c46" stroke="none" paint-order="stroke fill markers" d="" fill-opacity="0.4"/><path fill="#388c46" stroke="none" paint-order="stroke fill markers" d="" fill-opacity="0.4"/><g><path fill="none" stroke="#388c46" class="dcg-svg-curve" paint-order="fill stroke markers" d=" M 63.88055098076552 134.5480947161671 L 71.7882267091923 132.07476224483122 M 71.7882267091923 132.07476224483122 L 74.40796394004691 131.36360148938377 M 81.18074210373311 129.59861820096498 L 86.87138596896924 128.28933500263048 M 86.87138596896924 128.28933500263048 L 91.94276515057317 127.33343840740152 M 98.85310382588729 126.22456320814513 L 101.36879147108496 125.85492783363128 M 101.36879147108496 125.85492783363128 L 108.5442750024352 125.10011654947675 M 108.5442750024352 125.10011654947675 L 109.78400824433204 125.02144489188885 M 116.77207567887841 124.62780606470675 L 122.60236518630501 124.5000992787584 M 122.60236518630501 124.5000992787584 L 127.76967094317482 124.60208109707251 M 134.7596825315051 124.95318205075235 L 136.6604553701748 125.06969743287141 M 136.6604553701748 125.06969743287141 L 143.6895004621097 125.79103706659834 M 143.6895004621097 125.79103706659834 L 145.69848547827507 126.0802678255764 M 152.6153333508565 127.14890033177934 L 158.18690596422542 128.18283813694092 M 158.18690596422542 128.18283813694092 L 163.38809635841946 129.3625606178587 M 170.16987347060015 131.09223793287163 L 173.12362678458712 131.88352536515316 M 173.12362678458712 131.88352536515316 L 180.71184404943637 134.2278380551848 M 187.32164608789464 136.53193258923528 L 188.93897824144062 137.09743797656694 M 188.93897824144062 137.09743797656694 L 197.2859692881133 140.35314292478358 M 197.2859692881133 140.35314292478358 L 197.58658704986743 140.48231604618127 M 204.01798942863627 143.24583978271158 L 205.92583721361666 144.0656271834945 M 205.92583721361666 144.0656271834945 L 214.00667285274267 147.85094010821237 M 220.2667515408457 150.98228912742766 L 224.66995745877637 153.21136259465197 M 224.66995745877637 153.21136259465197 L 230.0006350026496 156.10354220503018 M 236.13542745189338 159.4738421356714 L 245.663150918667 164.97134025215053 M 251.64917968250683 168.5997362428891 L 258.7901138425437 172.9485240355313 M 258.7901138425437 172.9485240355313 L 261.0157756368659 174.3666920017659 M 266.91919718494205 178.12828927230274 L 273.58039622349 182.37273428065055 M 273.58039622349 182.37273428065055 L 276.1697421675969 184.07988412446798 M 282.0138942200507 187.93292017254743 L 291.1975617310496 193.9876911052437 M 297.0320363710007 197.85532691011701 L 299.5 199.50000000000003" stroke-linecap="round" stroke-linejoin="round" stroke-miterlimit="10" stroke-width="2.5" stroke-opacity="0.9" stroke-dasharray=""/></g></g><g id="sketch-8f18fe9e"><title>Expression 3</title><path fill="#6042a6" stroke="none" paint-order="stroke fill markers" d="" fill-opacity="0.4"/><path fill="#6042a6" stroke="none" paint-order="stroke fill markers" d="" fill-opacity="0.4"/><path fill="#6042a6" stroke="none" paint-order="stroke fill markers" d="" fill-opacity="0.4"/><path fill="#6042a6" stroke="none" class="dcg-svg-region" paint-order="stroke fill markers" d=" M 63.88055098076552 134.5480947161671 L 71.79068479925394 132.074044593478 L 79.40785069853912 130.00641905991085 L 86.87853263822268 128.28783986747698 L 94.20273061830457 126.9076578573547 L 101.38044463878482 125.85345820340774 L 108.55815865926509 125.09894857416612 L 115.58938872014367 124.65337812018572 L 122.62061878102232 124.50008046579973 L 129.6518488419009 124.63965423167383 L 136.68307890277956 125.0715543883295 L 143.7143089636581 125.79409438445987 L 150.89202298413838 126.82853612862982 L 158.21622096422033 128.18888945702133 L 165.54041894430222 129.85139021392928 L 173.15758484358733 131.8933235046885 L 180.92123470247412 134.2932673714633 L 188.97785248056422 137.11181802772904 L 197.32743817785757 140.37014572546576 L 205.9699917943542 144.08545887041964 L 215.05199728965576 148.34149358400055 L 224.71993862336387 153.23758463384473 L 234.97381579547852 158.802682582479 L 246.25308068480467 165.31265363585402 L 258.8507012105455 172.9863036223786 L 273.6455811303109 182.4150454575486 L 294.1533354745402 195.93689867309257 L 329.4559697385349 219.23548682529224 L 344.54381757750366 228.7332792314607 L 357.1414381032445 236.26821228300466 L 368.42070299257057 242.62649248292723 L 378.82106412428686 248.1068854316632 L 388.48900545799495 252.82996287125667 L 397.5710109532966 256.90884526885293 L 406.21356456979316 260.4434972297405 L 414.5631502670865 263.5171153773358 L 422.6197680451766 266.1489236588943 L 430.38341790406344 268.36190956698664 L 438.0005838033486 270.2145993267977 L 445.32478178343047 271.69051762580773 L 452.6489797635124 272.86056242070566 L 459.8266937839926 273.7056637993136 L 466.8579238448712 274.2407505577218 L 473.8891539057498 274.4839779394388 L 480.9203839666285 274.43439615212895 L 487.95161402750705 274.09219881051314 L 494.9828440883857 273.4587221803109 L 502.160558108866 272.5141785139877 L 509.33827212934625 271.2725181001717 L 516.6624701094281 269.70449381324715 L 524.1331520491117 267.79871932760403 L 531.7503179483969 265.54565649437586 L 535.1194490192345 264.45190528383296 L 535.1194490192345 -0.49999999999994316 L 63.88055098076552 -0.49999999999994316 L 63.88055098076552 134.5480947161671" fill-opacity="0.4"/><path fill="#6042a6" stroke="none" paint-order="stroke fill markers" d="" fill-opacity="0.4"/><g><path fill="none" stroke="#6042a6" class="dcg-svg-curve" paint-order="fill stroke markers" d=" M 63.88055098076552 134.5480947161671 L 71.79068479925394 132.074044593478 M 71.79068479925394 132.074044593478 L 74.40796426925735 131.3636026873659 M 81.18073320754034 129.59857958619227 L 86.87853263822268 128.28783986747698 M 86.87853263822268 128.28783986747698 L 91.94278159604819 127.33352578074975 M 98.85311655983763 126.22464997541684 L 101.38044463878482 125.85345820340774 M 101.38044463878482 125.85345820340774 L 108.55815865926509 125.09894857416612 M 108.55815865926509 125.09894857416612 L 109.78399695254389 125.02126695656669 M 116.77207097984139 124.62759281452429 L 122.62061878102232 124.50008046579973 M 122.62061878102232 124.50008046579973 L 127.76966673128908 124.60229188639933 M 134.75966872290016 124.9534070441507 L 136.68307890277956 125.0715543883295 M 136.68307890277956 125.0715543883295 L 143.7143089636581 125.79409438445987 M 143.7143089636581 125.79409438445987 L 145.69851607113245 126.08005543768567 M 152.6153847753844 127.14862318186347 L 158.21622096422033 128.18888945702133 M 158.21622096422033 128.18888945702133 L 163.38803628076136 129.3628264398446 M 170.1698310684008 131.0923964960333 L 173.15758484358733 131.8933235046885 M 173.15758484358733 131.8933235046885 L 180.7116464783417 134.22847826038827 M 187.32149884615322 136.53235444240502 L 188.97785248056422 137.11181802772904 M 188.97785248056422 137.11181802772904 L 197.32743817785757 140.37014572546576 M 197.32743817785757 140.37014572546576 L 197.5868654708103 140.48166989695915 M 204.0178157141916 143.24624562700413 L 205.9699917943542 144.08545887041964 M 205.9699917943542 144.08545887041964 L 214.00640826998207 147.85150674506147 M 220.26671675128526 150.9823599693306 L 224.71993862336387 153.23758463384473 M 224.71993862336387 153.23758463384473 L 230.00061917400177 156.10357415239164 M 236.13574072392342 159.4733023191898 L 245.66279382928852 164.971962076581 M 251.6492393008083 168.59964203230325 L 258.8507012105455 172.9863036223786 M 258.8507012105455 172.9863036223786 L 261.0160457857983 174.36627257751485 M 266.9191776238774 178.12832447804166 L 273.6455811303109 182.4150454575486 M 273.6455811303109 182.4150454575486 L 276.1699860855636 184.0795199138229 M 282.0139891336391 187.93278195709019 L 291.1974224949006 193.98790802508165 M 297.0406102794958 197.84240595223324 L 306.2214512985292 203.90146183440118 M 312.0638046742777 207.75722466850803 L 321.2446456933111 213.81628055067597 M 327.08699906905963 217.67204338478282 L 329.4559697385349 219.23548682529224 M 329.4559697385349 219.23548682529224 L 336.363009412861 223.58346472565808 M 342.28698689436806 227.31260548441165 L 344.54381757750366 228.7332792314607 M 344.54381757750366 228.7332792314607 L 351.6954273072369 233.01082517072777 M 357.7112976466466 236.5894501196104 L 367.2936534691203 241.99115882070714 M 373.4689285724055 245.2866174075307 L 378.82106412428686 248.1068854316632 M 378.82106412428686 248.1068854316632 L 383.2689368078051 250.27980378114304 M 389.57483875870054 253.3176289863304 L 397.5710109532966 256.90884526885293 M 397.5710109532966 256.90884526885293 L 399.63913908578587 257.7546731900031 M 406.1182142201834 260.4045006188805 L 406.21356456979316 260.4434972297405 M 406.21356456979316 260.4434972297405 L 414.5631502670865 263.5171153773358 M 414.5631502670865 263.5171153773358 L 416.4639445432646 264.1380367435186 M 423.12375110316566 266.29258127168197 L 430.38341790406344 268.36190956698664 M 430.38341790406344 268.36190956698664 L 433.73681852853844 269.17754245192776 M 440.5610418093468 270.7305639191226 L 445.32478178343047 271.69051762580773 M 445.32478178343047 271.69051762580773 L 451.3883978325674 272.65918373994697 M 458.3331508409495 273.52981460880886 L 459.8266937839926 273.7056637993136 M 459.8266937839926 273.7056637993136 L 466.8579238448712 274.2407505577218 M 466.8579238448712 274.2407505577218 L 469.3010418937058 274.32526396449396 M 476.29823766681733 274.4669899191893 L 480.9203839666285 274.43439615212895 M 480.9203839666285 274.43439615212895 L 487.2905830023234 274.1243700035455 M 494.2642324471442 273.5234652874168 L 494.9828440883857 273.4587221803109 M 494.9828440883857 273.4587221803109 L 502.160558108866 272.5141785139877 M 502.160558108866 272.5141785139877 L 505.1549669772117 271.99618086961294 M 512.031800071137 270.6958655790733 L 516.6624701094281 269.70449381324715 M 516.6624701094281 269.70449381324715 L 522.7324746531145 268.15603279181795 M 529.4595005703005 266.2232517523164 L 531.7503179483969 265.54565649437586 M 531.7503179483969 265.54565649437586 L 535.1194490192345 264.45190528383296" stroke-linecap="round" stroke-linejoin="round" stroke-miterlimit="10" stroke-width="2.5" stroke-opacity="0.9" stroke-dasharray=""/></g></g></g><g id="labels-8f18fe9e"/></g></svg>