<svg version="1.1" xmlns="http://www.w3.org/2000/svg" xmlns:xlink="http://www.w3.org/1999/xlink" width="600" height="400"><defs/><g transform="scale(1,1)"><g id="background-492ae820"><rect fill="white" stroke="none" x="0" y="0" width="600" height="400" class="dcg-svg-background"/></g><g id="background-images-492ae820"/><g id="graphpaper-492ae820"><g id="grid-492ae820"><g><path fill="none" stroke="rgb(0,0,0)" class="dcg-svg-minor-gridline" paint-order="fill stroke markers" d=" M 11.5 0 L 11.5 400" stroke-opacity="0.12" stroke-miterlimit="10" stroke-dasharray=""/><path fill="none" stroke="rgb(0,0,0)" class="dcg-svg-minor-gridline" paint-order="fill stroke markers" d=" M 35.5 0 L 35.5 400" stroke-opacity="0.12" stroke-miterlimit="10" stroke-dasharray=""/><path fill="none" stroke="rgb(0,0,0)" class="dcg-svg-minor-gridline" paint-order="fill stroke markers" d=" M 59.5 0 L 59.5 400" stroke-opacity="0.12" stroke-miterlimit="10" stroke-dasharray=""/><path fill="none" stroke="rgb(0,0,0)" class="dcg-svg-minor-gridline" paint-order="fill stroke markers" d=" M 83.5 0 L 83.5 400" stroke-opacity="0.12" stroke-miterlimit="10" stroke-dasharray=""/><path fill="none" stroke="rgb(0,0,0)" class="dcg-svg-minor-gridline" paint-order="fill stroke markers" d=" M 107.5 0 L 107.5 400" stroke-opacity="0.12" stroke-miterlimit="10" stroke-dasharray=""/><path fill="none" stroke="rgb(0,0,0)" class="dcg-svg-minor-gridline" paint-order="fill stroke markers" d=" M 131.5 0 L 131.5 400" stroke-opacity="0.12" stroke-miterlimit="10" stroke-dasharray=""/><path fill="none" stroke="rgb(0,0,0)" class="dcg-svg-minor-gridline" paint-order="fill stroke markers" d=" M 155.5 0 L 155.5 400" stroke-opacity="0.12" stroke-miterlimit="10" stroke-dasharray=""/><path fill="none" stroke="rgb(0,0,0)" class="dcg-svg-minor-gridline" paint-order="fill stroke markers" d=" M 179.5 0 L 179.5 400" stroke-opacity="0.12" stroke-miterlimit="10" stroke-dasharray=""/><path fill="none" stroke="rgb(0,0,0)" class="dcg-svg-minor-gridline" paint-order="fill stroke markers" d=" M 203.5 0 L 203.5 400" stroke-opacity="0.12" stroke-miterlimit="10" stroke-dasharray=""/><path fill="none" stroke="rgb(0,0,0)" class="dcg-svg-minor-gridline" paint-order="fill stroke markers" d=" M 227.5 0 L 227.5 400" stroke-opacity="0.12" stroke-miterlimit="10" stroke-dasharray=""/><path fill="none" stroke="rgb(0,0,0)" class="dcg-svg-minor-gridline" paint-order="fill stroke markers" d=" M 251.5 0 L 251.5 400" stroke-opacity="0.12" stroke-miterlimit="10" stroke-dasharray=""/><path fill="none" stroke="rgb(0,0,0)" class="dcg-svg-minor-gridline" paint-order="fill stroke markers" d=" M 275.5 0 L 275.5 400" stroke-opacity="0.12" stroke-miterlimit="10" stroke-dasharray=""/><path fill="none" stroke="rgb(0,0,0)" class="dcg-svg-minor-gridline" paint-order="fill stroke markers" d=" M 323.5 0 L 323.5 400" stroke-opacity="0.12" stroke-miterlimit="10" stroke-dasharray=""/><path fill="none" stroke="rgb(0,0,0)" class="dcg-svg-minor-gridline" paint-order="fill stroke markers" d=" M 347.5 0 L 347.5 400" stroke-opacity="0.12" stroke-miterlimit="10" stroke-dasharray=""/><path fill="none" stroke="rgb(0,0,0)" class="dcg-svg-minor-gridline" paint-order="fill stroke markers" d=" M 371.5 0 L 371.5 400" stroke-opacity="0.12" stroke-miterlimit="10" stroke-dasharray=""/><path fill="none" stroke="rgb(0,0,0)" class="dcg-svg-minor-gridline" paint-order="fill stroke markers" d=" M 395.5 0 L 395.5 400" stroke-opacity="0.12" stroke-miterlimit="10" stroke-dasharray=""/><path fill="none" stroke="rgb(0,0,0)" class="dcg-svg-minor-gridline" paint-order="fill stroke markers" d=" M 419.5 0 L 419.5 400" stroke-opacity="0.12" stroke-miterlimit="10" stroke-dasharray=""/><path fill="none" stroke="rgb(0,0,0)" class="dcg-svg-minor-gridline" paint-order="fill stroke markers" d=" M 443.5 0 L 443.5 400" stroke-opacity="0.12" stroke-miterlimit="10" stroke-dasharray=""/><path fill="none" stroke="rgb(0,0,0)" class="dcg-svg-minor-gridline" paint-order="fill stroke markers" d=" M 467.5 0 L 467.5 400" stroke-opacity="0.12" stroke-miterlimit="10" stroke-dasharray=""/><path fill="none" stroke="rgb(0,0,0)" class="dcg-svg-minor-gridline" paint-order="fill stroke markers" d=" M 491.5 0 L 491.5 400" stroke-opacity="0.12" stroke-miterlimit="10" stroke-dasharray=""/><path fill="none" stroke="rgb(0,0,0)" class="dcg-svg-minor-gridline" paint-order="fill stroke markers" d=" M 515.5 0 L 515.5 400" stroke-opacity="0.12" stroke-miterlimit="10" stroke-dasharray=""/><path fill="none" stroke="rgb(0,0,0)" class="dcg-svg-minor-gridline" paint-order="fill stroke markers" d=" M 539.5 0 L 539.5 400" stroke-opacity="0.12" stroke-miterlimit="10" stroke-dasharray=""/><path fill="none" stroke="rgb(0,0,0)" class="dcg-svg-minor-gridline" paint-order="fill stroke markers" d=" M 563.5 0 L 563.5 400" stroke-opacity="0.12" stroke-miterlimit="10" stroke-dasharray=""/><path fill="none" stroke="rgb(0,0,0)" class="dcg-svg-minor-gridline" paint-order="fill stroke markers" d=" M 587.5 0 L 587.5 400" stroke-opacity="0.12" stroke-miterlimit="10" stroke-dasharray=""/><path fill="none" stroke="rgb(0,0,0)" class="dcg-svg-minor-gridline" paint-order="fill stroke markers" d=" M 0 386.5 L 600 386.5" stroke-opacity="0.12" stroke-miterlimit="10" stroke-dasharray=""/><path fill="none" stroke="rgb(0,0,0)" class="dcg-svg-minor-gridline" paint-order="fill stroke markers" d=" M 0 359.5 L 600 359.5" stroke-opacity="0.12" stroke-miterlimit="10" stroke-dasharray=""/><path fill="none" stroke="rgb(0,0,0)" class="dcg-svg-minor-gridline" paint-order="fill stroke markers" d=" M 0 332.5 L 600 332.5" stroke-opacity="0.12" stroke-miterlimit="10" stroke-dasharray=""/><path fill="none" stroke="rgb(0,0,0)" class="dcg-svg-minor-gridline" paint-order="fill stroke markers" d=" M 0 306.5 L 600 306.5" stroke-opacity="0.12" stroke-miterlimit="10" stroke-dasharray=""/><path fill="none" stroke="rgb(0,0,0)" class="dcg-svg-minor-gridline" paint-order="fill stroke markers" d=" M 0 279.5 L 600 279.5" stroke-opacity="0.12" stroke-miterlimit="10" stroke-dasharray=""/><path fill="none" stroke="rgb(0,0,0)" class="dcg-svg-minor-gridline" paint-order="fill stroke markers" d=" M 0 252.5 L 600 252.5" stroke-opacity="0.12" stroke-miterlimit="10" stroke-dasharray=""/><path fill="none" stroke="rgb(0,0,0)" class="dcg-svg-minor-gridline" paint-order="fill stroke markers" d=" M 0 226.5 L 600 226.5" stroke-opacity="0.12" stroke-miterlimit="10" stroke-dasharray=""/><path fill="none" stroke="rgb(0,0,0)" class="dcg-svg-minor-gridline" paint-order="fill stroke markers" d=" M 0 172.5 L 600 172.5" stroke-opacity="0.12" stroke-miterlimit="10" stroke-dasharray=""/><path fill="none" stroke="rgb(0,0,0)" class="dcg-svg-minor-gridline" paint-order="fill stroke markers" d=" M 0 146.5 L 600 146.5" stroke-opacity="0.12" stroke-miterlimit="10" stroke-dasharray=""/><path fill="none" stroke="rgb(0,0,0)" class="dcg-svg-minor-gridline" paint-order="fill stroke markers" d=" M 0 119.5 L 600 119.5" stroke-opacity="0.12" stroke-miterlimit="10" stroke-dasharray=""/><path fill="none" stroke="rgb(0,0,0)" class="dcg-svg-minor-gridline" paint-order="fill stroke markers" d=" M 0 92.5 L 600 92.5" stroke-opacity="0.12" stroke-miterlimit="10" stroke-dasharray=""/><path fill="none" stroke="rgb(0,0,0)" class="dcg-svg-minor-gridline" paint-order="fill stroke markers" d=" M 0 66.5 L 600 66.5" stroke-opacity="0.12" stroke-miterlimit="10" stroke-dasharray=""/><path fill="none" stroke="rgb(0,0,0)" class="dcg-svg-minor-gridline" paint-order="fill stroke markers" d=" M 0 39.5 L 600 39.5" stroke-opacity="0.12" stroke-miterlimit="10" stroke-dasharray=""/><path fill="none" stroke="rgb(0,0,0)" class="dcg-svg-minor-gridline" paint-order="fill stroke markers" d=" M 0 12.5 L 600 12.5" stroke-opacity="0.12" stroke-miterlimit="10" stroke-dasharray=""/><path fill="none" stroke="rgb(0,0,0)" class="dcg-svg-major-gridline" paint-order="fill stroke markers" d=" M 59.5 0 L 59.5 400" stroke-opacity="0.31818181818181823" stroke-miterlimit="10" stroke-dasharray=""/><path fill="none" stroke="rgb(0,0,0)" class="dcg-svg-major-gridline" paint-order="fill stroke markers" d=" M 179.5 0 L 179.5 400" stroke-opacity="0.31818181818181823" stroke-miterlimit="10" stroke-dasharray=""/><path fill="none" stroke="rgb(0,0,0)" class="dcg-svg-major-gridline" paint-order="fill stroke markers" d=" M 419.5 0 L 419.5 400" stroke-opacity="0.31818181818181823" stroke-miterlimit="10" stroke-dasharray=""/><path fill="none" stroke="rgb(0,0,0)" class="dcg-svg-major-gridline" paint-order="fill stroke markers" d=" M 539.5 0 L 539.5 400" stroke-opacity="0.31818181818181823" stroke-miterlimit="10" stroke-dasharray=""/><path fill="none" stroke="rgb(0,0,0)" class="dcg-svg-major-gridline" paint-order="fill stroke markers" d=" M 0 332.5 L 600 332.5" stroke-opacity="0.31818181818181823" stroke-miterlimit="10" stroke-dasharray=""/><path fill="none" stroke="rgb(0,0,0)" class="dcg-svg-major-gridline" paint-order="fill stroke markers" d=" M 0 66.5 L 600 66.5" stroke-opacity="0.31818181818181823" stroke-miterlimit="10" stroke-dasharray=""/></g></g><g id="axis-492ae820"><g id="yaxis-492ae820"><title>Y axis</title><path fill="none" stroke="rgb(0,0,0)" class="dcg-svg-axis-line" paint-order="fill stroke markers" d=" M 299.75 0 L 299.75 400" stroke-opacity="0.9" stroke-miterlimit="10" stroke-width="1.5" stroke-dasharray=""/></g><g id="xaxis-492ae820"><title>X axis</title><path fill="none" stroke="rgb(0,0,0)" class="dcg-svg-axis-line" paint-order="fill stroke markers" d=" M 0 199.75 L 600 199.75" stroke-opacity="0.9" stroke-miterlimit="10" stroke-width="1.5" stroke-dasharray=""/></g><g><g class="dcg-svg-axis-value"><text fill="none" stroke="#ffffff" font-family="Arial" font-size="14px" font-style="normal" font-weight="normal" text-decoration="normal" x="291.10693359375" y="215.808" text-anchor="middle" stroke-miterlimit="2" stroke-width="3" stroke-dasharray="">0</text><text fill="#000000" stroke="none" font-family="Arial" font-size="14px" font-style="normal" font-weight="normal" text-decoration="normal" x="291.10693359375" y="215.808" text-anchor="middle">0</text></g><g class="dcg-svg-axis-value"><text fill="none" stroke="#ffffff" font-family="Arial" font-size="14px" font-style="normal" font-weight="normal" text-decoration="normal" x="57.6689453125" y="215.808" text-anchor="middle" stroke-miterlimit="2" stroke-width="3" stroke-dasharray="">-2</text><text fill="#000000" stroke="none" font-family="Arial" font-size="14px" font-style="normal" font-weight="normal" text-decoration="normal" x="57.6689453125" y="215.808" text-anchor="middle">-2</text></g><g class="dcg-svg-axis-value"><text fill="none" stroke="#ffffff" font-family="Arial" font-size="14px" font-style="normal" font-weight="normal" text-decoration="normal" x="177.6689453125" y="215.808" text-anchor="middle" stroke-miterlimit="2" stroke-width="3" stroke-dasharray="">-1</text><text fill="#000000" stroke="none" font-family="Arial" font-size="14px" font-style="normal" font-weight="normal" text-decoration="normal" x="177.6689453125" y="215.808" text-anchor="middle">-1</text></g><g class="dcg-svg-axis-value"><text fill="none" stroke="#ffffff" font-family="Arial" font-size="14px" font-style="normal" font-weight="normal" text-decoration="normal" x="420" y="215.808" text-anchor="middle" stroke-miterlimit="2" stroke-width="3" stroke-dasharray="">1</text><text fill="#000000" stroke="none" font-family="Arial" font-size="14px" font-style="normal" font-weight="normal" text-decoration="normal" x="420" y="215.808" text-anchor="middle">1</text></g><g class="dcg-svg-axis-value"><text fill="none" stroke="#ffffff" font-family="Arial" font-size="14px" font-style="normal" font-weight="normal" text-decoration="normal" x="540" y="215.808" text-anchor="middle" stroke-miterlimit="2" stroke-width="3" stroke-dasharray="">2</text><text fill="#000000" stroke="none" font-family="Arial" font-size="14px" font-style="normal" font-weight="normal" text-decoration="normal" x="540" y="215.808" text-anchor="middle">2</text></g><g class="dcg-svg-axis-value"><text fill="none" stroke="#ffffff" font-family="Arial" font-size="14px" font-style="normal" font-weight="normal" text-decoration="normal" x="288.77587890625" y="337.14133333333336" text-anchor="middle" stroke-miterlimit="2" stroke-width="3" stroke-dasharray="">-1</text><text fill="#000000" stroke="none" font-family="Arial" font-size="14px" font-style="normal" font-weight="normal" text-decoration="normal" x="288.77587890625" y="337.14133333333336" text-anchor="middle">-1</text></g><g class="dcg-svg-axis-value"><text fill="none" stroke="#ffffff" font-family="Arial" font-size="14px" font-style="normal" font-weight="normal" text-decoration="normal" x="291.10693359375" y="70.47466666666666" text-anchor="middle" stroke-miterlimit="2" stroke-width="3" stroke-dasharray="">1</text><text fill="#000000" stroke="none" font-family="Arial" font-size="14px" font-style="normal" font-weight="normal" text-decoration="normal" x="291.10693359375" y="70.47466666666666" text-anchor="middle">1</text></g></g></g></g><g id="expressions-492ae820"><g id="sketch-492ae820"><title>Expression 1</title><path fill="#2d70b3" stroke="none" paint-order="stroke fill markers" d="" fill-opacity="0.4"/><g><path fill="none" stroke="#2d70b3" class="dcg-svg-curve" paint-order="fill stroke markers" d=" M -0.5 306.3191487395911 L -0.5 306.3191487395911 L 6.53125 301.4629452677276 L 13.85546875 296.03252151692567 L 21.47265625 290.0038237690396 L 29.529296875 283.23115263026796 L 38.171875 275.54734077752147 L 47.400390625 266.9083282404206 L 57.5078125 256.99127400033774 L 68.787109375 245.44647166140697 L 81.82421875 231.6038838550806 L 98.5234375 213.3427919407764 L 145.10546875 162.11788552820056 L 158.142578125 148.46091714721734 L 169.421875 137.12525578490875 L 179.529296875 127.43230306453518 L 188.7578125 119.02680148140217 L 197.400390625 111.58542704632396 L 205.45703125 105.0583186339228 L 213.07421875 99.27812705126627 L 220.3984375 94.10067825856726 L 227.283203125 89.59144499910605 L 234.021484375 85.52827887649318 L 240.466796875 81.97778695664618 L 246.619140625 78.90474028641404 L 252.625 76.21049847106184 L 258.484375 73.87947876421822 L 264.197265625 71.89500183076484 L 269.763671875 70.23950739383315 L 275.330078125 68.86209646760886 L 280.75 67.79096215780373 L 286.169921875 66.98846452572883 L 291.58984375 66.45624036337131 L 296.86328125 66.19885187990207 L 302.13671875 66.19885187990207 L 307.41015625 66.45624036337131 L 312.68359375 66.97052034410723 L 318.103515625 67.7657323338986 L 323.5234375 68.82963246072921 L 328.943359375 70.16005077028012 L 334.509765625 71.80099282178287 L 340.22265625 73.77074499386595 L 345.935546875 76.02540450809397 L 351.794921875 78.62847781263872 L 357.80078125 81.59558733593667 L 364.099609375 85.02452640209589 L 370.544921875 88.85954565268594 L 377.283203125 93.20988625174152 L 384.314453125 98.1063694873954 L 391.638671875 103.57667150709631 L 399.40234375 109.76474949050248 L 407.60546875 116.71049901957315 L 416.248046875 124.4460445330954 L 425.623046875 133.2758214900491 L 435.876953125 143.39397462358073 L 447.302734375 155.14733863585946 L 460.6328125 169.3597289388737 L 478.2109375 188.64024100554434 L 519.373046875 233.96794968466006 L 532.99609375 248.33688986491183 L 544.568359375 260.0559566537277 L 554.822265625 269.9730677141056 L 564.197265625 278.59186166398024 L 572.83984375 286.1110535650798 L 581.04296875 292.83310317380636 L 588.806640625 298.79396716051673 L 596.130859375 304.036970351904 L 599.5 306.3191487395911" stroke-linecap="round" stroke-linejoin="round" stroke-miterlimit="10" stroke-width="2.5" stroke-opacity="0.9" stroke-dasharray=""/></g></g><g id="sketch-492ae820"><title>Expression 2</title><path fill="#388c46" stroke="none" paint-order="stroke fill markers" d="" fill-opacity="0.4"/><g><path fill="none" stroke="#388c46" class="dcg-svg-curve" paint-order="fill stroke markers" d=" M -0.5 66.16666666666663 L -0.5 66.16666666666663 L 599.5 66.16666666666663" stroke-linecap="round" stroke-linejoin="round" stroke-miterlimit="10" stroke-width="2.5" stroke-opacity="0.9" stroke-dasharray=""/></g></g><g id="sketch-492ae820"><title>Expression 3</title><path fill="#6042a6" stroke="none" paint-order="stroke fill markers" d="" fill-opacity="0.4"/><g><path fill="none" stroke="#6042a6" class="dcg-svg-curve" paint-order="fill stroke markers" d=" M 28.777947986018635 405.5 L 28.777947986018635 405.5 L 29.3828125 403.9596989949544 L 39.05078125 380.2120164235433 L 48.71875 357.3297932942708 L 58.240234375 335.64015976587933 L 67.615234375 315.1043728192647 L 76.84375 295.6842854817708 L 86.072265625 277.05276759465534 L 95.154296875 259.4868814150492 L 104.08984375 242.9496720631917 L 113.025390625 227.1517589886983 L 121.814453125 212.3340442975362 L 130.45703125 198.46076520284015 L 139.099609375 185.2790986696879 L 147.595703125 172.99497874577838 L 156.091796875 161.37922557195026 L 164.294921875 150.7982090314229 L 172.3515625 141.01261647542316 L 180.115234375 132.1514919598897 L 187.5859375 124.15165456136066 L 194.763671875 116.9523075421651 L 201.794921875 110.36241801579791 L 208.6796875 104.35337575276691 L 215.271484375 99.01130946477252 L 221.716796875 94.17697540918982 L 228.015625 89.82414754231769 L 234.16796875 85.92719586690265 L 240.173828125 82.46108643213904 L 246.033203125 79.40138133366901 L 251.892578125 76.65956767400104 L 257.60546875 74.2923692067464 L 263.171875 72.27654012044269 L 268.73828125 70.54760805765784 L 274.158203125 69.13984568913776 L 279.578125 68.00407918294269 L 284.998046875 67.14030853907263 L 290.271484375 66.56095139185584 L 295.544921875 66.23908631006873 L 300.818359375 66.1747132937113 L 306.091796875 66.36783234278357 L 311.365234375 66.81844345728553 L 316.638671875 67.52654663721717 L 322.05859375 68.52263959248859 L 327.478515625 69.79072841008502 L 332.8984375 71.33081309000647 L 338.46484375 73.19564374287921 L 344.03125 75.34737141927081 L 349.744140625 77.85404475529987 L 355.45703125 80.66291364034015 L 361.31640625 83.85772260030109 L 367.322265625 87.46231349309284 L 373.474609375 91.5011242230733 L 379.7734375 95.99918874104816 L 386.21875 100.98213704427081 L 392.810546875 106.47619517644245 L 399.548828125 112.50818522771198 L 406.43359375 119.10552533467609 L 413.611328125 126.45090373357135 L 420.935546875 134.4379261334737 L 428.552734375 143.2713344891866 L 436.31640625 152.8274491628011 L 444.373046875 163.33425792058307 L 452.72265625 174.85732587178546 L 461.21875 187.24515787760416 L 469.861328125 200.53232463200885 L 478.50390625 214.51110394795734 L 487.29296875 229.43610699971515 L 496.08203125 245.07636578877765 L 505.017578125 261.7105320294698 L 513.953125 279.083994547526 L 523.03515625 297.4998429616292 L 532.263671875 316.9950321515401 L 541.4921875 337.2787907918294 L 550.8671875 358.6919581095378 L 560.388671875 381.27268107732135 L 570.056640625 405.05970271428424 L 570.2293121052194 405.5" stroke-linecap="round" stroke-linejoin="round" stroke-miterlimit="10" stroke-width="2.5" stroke-opacity="0.9" stroke-dasharray=""/></g></g></g><g id="labels-492ae820"/></g></svg>