<svg version="1.1" xmlns="http://www.w3.org/2000/svg" xmlns:xlink="http://www.w3.org/1999/xlink" width="600" height="400"><defs/><g transform="scale(1,1)"><g id="background-7af92119"><rect fill="white" stroke="none" x="0" y="0" width="600" height="400" class="dcg-svg-background"/></g><g id="background-images-7af92119"/><g id="graphpaper-7af92119"><g id="grid-7af92119"><g><path fill="none" stroke="rgb(0,0,0)" class="dcg-svg-minor-gridline" paint-order="fill stroke markers" d=" M -0.5 0 L -0.5 400" stroke-opacity="0.12" stroke-miterlimit="10" stroke-dasharray=""/><path fill="none" stroke="rgb(0,0,0)" class="dcg-svg-minor-gridline" paint-order="fill stroke markers" d=" M 29.5 0 L 29.5 400" stroke-opacity="0.12" stroke-miterlimit="10" stroke-dasharray=""/><path fill="none" stroke="rgb(0,0,0)" class="dcg-svg-minor-gridline" paint-order="fill stroke markers" d=" M 59.5 0 L 59.5 400" stroke-opacity="0.12" stroke-miterlimit="10" stroke-dasharray=""/><path fill="none" stroke="rgb(0,0,0)" class="dcg-svg-minor-gridline" paint-order="fill stroke markers" d=" M 89.5 0 L 89.5 400" stroke-opacity="0.12" stroke-miterlimit="10" stroke-dasharray=""/><path fill="none" stroke="rgb(0,0,0)" class="dcg-svg-minor-gridline" paint-order="fill stroke markers" d=" M 119.5 0 L 119.5 400" stroke-opacity="0.12" stroke-miterlimit="10" stroke-dasharray=""/><path fill="none" stroke="rgb(0,0,0)" class="dcg-svg-minor-gridline" paint-order="fill stroke markers" d=" M 149.5 0 L 149.5 400" stroke-opacity="0.12" stroke-miterlimit="10" stroke-dasharray=""/><path fill="none" stroke="rgb(0,0,0)" class="dcg-svg-minor-gridline" paint-order="fill stroke markers" d=" M 179.5 0 L 179.5 400" stroke-opacity="0.12" stroke-miterlimit="10" stroke-dasharray=""/><path fill="none" stroke="rgb(0,0,0)" class="dcg-svg-minor-gridline" paint-order="fill stroke markers" d=" M 209.5 0 L 209.5 400" stroke-opacity="0.12" stroke-miterlimit="10" stroke-dasharray=""/><path fill="none" stroke="rgb(0,0,0)" class="dcg-svg-minor-gridline" paint-order="fill stroke markers" d=" M 239.5 0 L 239.5 400" stroke-opacity="0.12" stroke-miterlimit="10" stroke-dasharray=""/><path fill="none" stroke="rgb(0,0,0)" class="dcg-svg-minor-gridline" paint-order="fill stroke markers" d=" M 269.5 0 L 269.5 400" stroke-opacity="0.12" stroke-miterlimit="10" stroke-dasharray=""/><path fill="none" stroke="rgb(0,0,0)" class="dcg-svg-minor-gridline" paint-order="fill stroke markers" d=" M 329.5 0 L 329.5 400" stroke-opacity="0.12" stroke-miterlimit="10" stroke-dasharray=""/><path fill="none" stroke="rgb(0,0,0)" class="dcg-svg-minor-gridline" paint-order="fill stroke markers" d=" M 359.5 0 L 359.5 400" stroke-opacity="0.12" stroke-miterlimit="10" stroke-dasharray=""/><path fill="none" stroke="rgb(0,0,0)" class="dcg-svg-minor-gridline" paint-order="fill stroke markers" d=" M 389.5 0 L 389.5 400" stroke-opacity="0.12" stroke-miterlimit="10" stroke-dasharray=""/><path fill="none" stroke="rgb(0,0,0)" class="dcg-svg-minor-gridline" paint-order="fill stroke markers" d=" M 419.5 0 L 419.5 400" stroke-opacity="0.12" stroke-miterlimit="10" stroke-dasharray=""/><path fill="none" stroke="rgb(0,0,0)" class="dcg-svg-minor-gridline" paint-order="fill stroke markers" d=" M 449.5 0 L 449.5 400" stroke-opacity="0.12" stroke-miterlimit="10" stroke-dasharray=""/><path fill="none" stroke="rgb(0,0,0)" class="dcg-svg-minor-gridline" paint-order="fill stroke markers" d=" M 479.5 0 L 479.5 400" stroke-opacity="0.12" stroke-miterlimit="10" stroke-dasharray=""/><path fill="none" stroke="rgb(0,0,0)" class="dcg-svg-minor-gridline" paint-order="fill stroke markers" d=" M 509.5 0 L 509.5 400" stroke-opacity="0.12" stroke-miterlimit="10" stroke-dasharray=""/><path fill="none" stroke="rgb(0,0,0)" class="dcg-svg-minor-gridline" paint-order="fill stroke markers" d=" M 539.5 0 L 539.5 400" stroke-opacity="0.12" stroke-miterlimit="10" stroke-dasharray=""/><path fill="none" stroke="rgb(0,0,0)" class="dcg-svg-minor-gridline" paint-order="fill stroke markers" d=" M 569.5 0 L 569.5 400" stroke-opacity="0.12" stroke-miterlimit="10" stroke-dasharray=""/><path fill="none" stroke="rgb(0,0,0)" class="dcg-svg-minor-gridline" paint-order="fill stroke markers" d=" M 0 355.5 L 600 355.5" stroke-opacity="0.12" stroke-miterlimit="10" stroke-dasharray=""/><path fill="none" stroke="rgb(0,0,0)" class="dcg-svg-minor-gridline" paint-order="fill stroke markers" d=" M 0 266.5 L 600 266.5" stroke-opacity="0.12" stroke-miterlimit="10" stroke-dasharray=""/><path fill="none" stroke="rgb(0,0,0)" class="dcg-svg-minor-gridline" paint-order="fill stroke markers" d=" M 0 221.5 L 600 221.5" stroke-opacity="0.12" stroke-miterlimit="10" stroke-dasharray=""/><path fill="none" stroke="rgb(0,0,0)" class="dcg-svg-minor-gridline" paint-order="fill stroke markers" d=" M 0 177.5 L 600 177.5" stroke-opacity="0.12" stroke-miterlimit="10" stroke-dasharray=""/><path fill="none" stroke="rgb(0,0,0)" class="dcg-svg-minor-gridline" paint-order="fill stroke markers" d=" M 0 132.5 L 600 132.5" stroke-opacity="0.12" stroke-miterlimit="10" stroke-dasharray=""/><path fill="none" stroke="rgb(0,0,0)" class="dcg-svg-minor-gridline" paint-order="fill stroke markers" d=" M 0 88.5 L 600 88.5" stroke-opacity="0.12" stroke-miterlimit="10" stroke-dasharray=""/><path fill="none" stroke="rgb(0,0,0)" class="dcg-svg-minor-gridline" paint-order="fill stroke markers" d=" M 0 43.5 L 600 43.5" stroke-opacity="0.12" stroke-miterlimit="10" stroke-dasharray=""/><path fill="none" stroke="rgb(0,0,0)" class="dcg-svg-minor-gridline" paint-order="fill stroke markers" d=" M 0 -0.5 L 600 -0.5" stroke-opacity="0.12" stroke-miterlimit="10" stroke-dasharray=""/><path fill="none" stroke="rgb(0,0,0)" class="dcg-svg-major-gridline" paint-order="fill stroke markers" d=" M -0.5 0 L -0.5 400" stroke-opacity="0.31818181818181823" stroke-miterlimit="10" stroke-dasharray=""/><path fill="none" stroke="rgb(0,0,0)" class="dcg-svg-major-gridline" paint-order="fill stroke markers" d=" M 149.5 0 L 149.5 400" stroke-opacity="0.31818181818181823" stroke-miterlimit="10" stroke-dasharray=""/><path fill="none" stroke="rgb(0,0,0)" class="dcg-svg-major-gridline" paint-order="fill stroke markers" d=" M 449.5 0 L 449.5 400" stroke-opacity="0.31818181818181823" stroke-miterlimit="10" stroke-dasharray=""/><path fill="none" stroke="rgb(0,0,0)" class="dcg-svg-major-gridline" paint-order="fill stroke markers" d=" M 0 88.5 L 600 88.5" stroke-opacity="0.31818181818181823" stroke-miterlimit="10" stroke-dasharray=""/></g></g><g id="axis-7af92119"><g id="yaxis-7af92119"><title>Y axis</title><path fill="none" stroke="rgb(0,0,0)" class="dcg-svg-axis-line" paint-order="fill stroke markers" d=" M 299.75 0 L 299.75 400" stroke-opacity="0.9" stroke-miterlimit="10" stroke-width="1.5" stroke-dasharray=""/></g><g id="xaxis-7af92119"><title>X axis</title><path fill="none" stroke="rgb(0,0,0)" class="dcg-svg-axis-line" paint-order="fill stroke markers" d=" M 0 310.75 L 600 310.75" stroke-opacity="0.9" stroke-miterlimit="10" stroke-width="1.5" stroke-dasharray=""/></g><g/></g></g><g id="expressions-7af92119"><g id="sketch-7af92119"><title>Expression 1</title><path fill="#2d70b3" stroke="none" paint-order="stroke fill markers" d="" fill-opacity="0.4"/><g><path fill="none" stroke="#2d70b3" class="dcg-svg-curve" paint-order="fill stroke markers" d=" M -0.5 221.72222222222223 L -0.5 221.72222222222223 L 4.041015625 203.73354552670605 L 8.435546875 187.62379996572193 L 12.830078125 172.74538454382332 L 17.224609375 159.05346117221296 L 21.47265625 146.9042501759633 L 25.720703125 135.78320526955423 L 29.96875 125.65164203776254 L 34.0703125 116.7726021904964 L 38.025390625 109.01903839770694 L 41.6875 102.52121109432647 L 45.203125 96.87745622448904 L 48.71875 91.79510001562261 L 52.087890625 87.4327330474477 L 55.310546875 83.70916711893955 L 58.533203125 80.4094765841067 L 61.609375 77.6415403406653 L 64.685546875 75.23354247211199 L 67.615234375 73.26333267295314 L 70.544921875 71.59745074862894 L 73.474609375 70.22529940161428 L 76.404296875 69.13641607433988 L 79.333984375 68.32047294919226 L 82.263671875 67.76727694851382 L 85.33984375 67.4581988760118 L 88.416015625 67.41622755441006 L 91.4921875 67.63004285558475 L 94.71484375 68.11623324887967 L 98.083984375 68.89787974093821 L 101.453125 69.94495950901404 L 104.96875 71.30545147922305 L 108.630859375 72.99697200813642 L 112.5859375 75.11855285786339 L 116.6875 77.61971505482995 L 121.08203125 80.61344593817194 L 125.76953125 84.13381735209958 L 130.75 88.20781792534723 L 136.169921875 92.98748623948791 L 142.17578125 98.64842658993928 L 148.9140625 105.37985170638638 L 156.677734375 113.52595526408277 L 166.4921875 124.23534603271185 L 202.966796875 164.4259315463959 L 211.31640625 172.99492468572325 L 218.640625 180.1361145960788 L 225.37890625 186.3411103649258 L 231.677734375 191.7855765193895 L 237.537109375 196.51227005196466 L 243.25 200.78377278645834 L 248.669921875 204.51011839467589 L 253.943359375 207.81585435594965 L 258.923828125 210.63644280613383 L 263.7578125 213.08456480191776 L 268.591796875 215.23952894162733 L 273.279296875 217.04270816086736 L 277.8203125 218.51540251565166 L 282.361328125 219.71416042360266 L 286.755859375 220.61028785226003 L 291.150390625 221.2444309109169 L 295.544921875 221.61495250911008 L 299.939453125 221.72089767740272 L 304.333984375 221.5619935673843 L 308.728515625 221.13864945167057 L 313.123046875 220.45195672390372 L 317.517578125 219.50368889875216 L 322.05859375 218.2516274583753 L 326.599609375 216.7263627805301 L 331.287109375 214.8698460760796 L 335.974609375 212.73229804189245 L 340.80859375 210.24042128445097 L 345.7890625 207.37609422350886 L 350.916015625 204.1230800594281 L 356.189453125 200.467486750124 L 361.755859375 196.28406351516955 L 367.615234375 191.54046749515177 L 373.767578125 186.21026260968424 L 380.359375 180.1361145960788 L 387.390625 173.28778926407298 L 395.154296875 165.34673210269963 L 404.236328125 155.6546582080382 L 415.955078125 142.7221725715787 L 441.58984375 114.31174625718 L 450.0859375 105.37985170638638 L 457.1171875 98.36431042428336 L 463.26953125 92.58761603939206 L 468.8359375 87.71191395852821 L 473.962890625 83.56281247619063 L 478.650390625 80.0930936517438 L 483.044921875 77.1516262919518 L 487.29296875 74.62169484289188 L 491.248046875 72.56638678024535 L 495.056640625 70.88128043861042 L 498.572265625 69.59902477573684 L 502.087890625 68.59517789104791 L 505.45703125 67.90917402014725 L 508.6796875 67.51914217066951 L 511.755859375 67.40144501490482 L 514.83203125 67.54382760007383 L 517.76171875 67.93164018310847 L 520.69140625 68.57564664443606 L 523.62109375 69.48595248074304 L 526.55078125 70.67279792867151 L 529.48046875 72.14655796481952 L 532.41015625 73.91774230574083 L 535.33984375 75.99699540794518 L 538.26953125 78.39509646789793 L 541.345703125 81.26820643106771 L 544.421875 84.51767427488056 L 547.498046875 88.15645790004459 L 550.720703125 92.4003817246894 L 554.08984375 97.32604799902066 L 557.458984375 102.768850229559 L 560.974609375 109.01903839770694 L 564.63671875 116.17142780108276 L 568.4453125 124.32970021988473 L 572.400390625 133.60710356463875 L 576.6484375 144.52027391400011 L 580.896484375 156.45355781343147 L 585.14453125 169.44611206549357 L 589.392578125 183.53768909156412 L 593.787109375 199.31465724448228 L 598.181640625 216.35627032741186 L 599.5 221.72222222222223" stroke-linecap="round" stroke-linejoin="round" stroke-miterlimit="10" stroke-width="2.5" stroke-opacity="0.9" stroke-dasharray=""/></g></g><g id="sketch-7af92119"><title>Expression 2</title><path fill="#388c46" stroke="none" paint-order="stroke fill markers" d="" fill-opacity="0.4"/><path fill="#388c46" stroke="none" paint-order="stroke fill markers" d="" fill-opacity="0.4"/><path fill="#388c46" stroke="none" class="dcg-svg-region" paint-order="stroke fill markers" d=" M -0.5 310.6111111111111 L 599.5 310.6111111111111 L 599.5 221.72222222222223 L 598.181640625 216.35627032741186 L 593.787109375 199.31465724448228 L 589.392578125 183.53768909156412 L 585.14453125 169.44611206549357 L 580.896484375 156.45355781343147 L 576.6484375 144.52027391400011 L 572.400390625 133.60710356463875 L 568.4453125 124.32970021988473 L 564.63671875 116.17142780108276 L 560.974609375 109.01903839770694 L 557.458984375 102.768850229559 L 554.08984375 97.32604799902066 L 550.720703125 92.4003817246894 L 547.498046875 88.15645790004459 L 544.421875 84.51767427488056 L 541.345703125 81.26820643106771 L 538.26953125 78.39509646789793 L 535.33984375 75.99699540794518 L 532.41015625 73.91774230574083 L 529.48046875 72.14655796481952 L 526.55078125 70.67279792867151 L 523.62109375 69.48595248074304 L 520.69140625 68.57564664443606 L 517.76171875 67.93164018310847 L 514.83203125 67.54382760007383 L 511.755859375 67.40144501490482 L 508.6796875 67.51914217066951 L 505.45703125 67.90917402014725 L 502.087890625 68.59517789104791 L 498.572265625 69.59902477573684 L 495.056640625 70.88128043861042 L 491.248046875 72.56638678024535 L 487.29296875 74.62169484289188 L 483.044921875 77.1516262919518 L 478.650390625 80.0930936517438 L 473.962890625 83.56281247619063 L 468.8359375 87.71191395852821 L 463.26953125 92.58761603939206 L 457.1171875 98.36431042428336 L 450.0859375 105.37985170638638 L 441.58984375 114.31174625718 L 415.955078125 142.7221725715787 L 404.236328125 155.6546582080382 L 395.154296875 165.34673210269963 L 387.390625 173.28778926407298 L 380.359375 180.1361145960788 L 373.767578125 186.21026260968424 L 367.615234375 191.54046749515177 L 361.755859375 196.28406351516955 L 356.189453125 200.467486750124 L 350.916015625 204.1230800594281 L 345.7890625 207.37609422350886 L 340.80859375 210.24042128445097 L 335.974609375 212.73229804189245 L 331.287109375 214.8698460760796 L 326.599609375 216.7263627805301 L 322.05859375 218.2516274583753 L 317.517578125 219.50368889875216 L 313.123046875 220.45195672390372 L 308.728515625 221.13864945167057 L 304.333984375 221.5619935673843 L 299.939453125 221.72089767740272 L 295.544921875 221.61495250911008 L 291.150390625 221.2444309109169 L 286.755859375 220.61028785226003 L 282.361328125 219.71416042360266 L 277.8203125 218.51540251565166 L 273.279296875 217.04270816086736 L 268.591796875 215.23952894162733 L 263.7578125 213.08456480191776 L 258.923828125 210.63644280613383 L 253.943359375 207.81585435594965 L 248.669921875 204.51011839467589 L 243.25 200.78377278645834 L 237.537109375 196.51227005196466 L 231.677734375 191.7855765193895 L 225.37890625 186.3411103649258 L 218.640625 180.1361145960788 L 211.31640625 172.99492468572325 L 202.966796875 164.4259315463959 L 166.4921875 124.23534603271185 L 156.677734375 113.52595526408277 L 148.9140625 105.37985170638638 L 142.17578125 98.64842658993928 L 136.169921875 92.98748623948791 L 130.75 88.20781792534723 L 125.76953125 84.13381735209958 L 121.08203125 80.61344593817194 L 116.6875 77.61971505482995 L 112.5859375 75.11855285786339 L 108.630859375 72.99697200813642 L 104.96875 71.30545147922305 L 101.453125 69.94495950901404 L 98.083984375 68.89787974093821 L 94.71484375 68.11623324887967 L 91.4921875 67.63004285558475 L 88.416015625 67.41622755441006 L 85.33984375 67.4581988760118 L 82.263671875 67.76727694851382 L 79.333984375 68.32047294919226 L 76.404296875 69.13641607433988 L 73.474609375 70.22529940161428 L 70.544921875 71.59745074862894 L 67.615234375 73.26333267295314 L 64.685546875 75.23354247211199 L 61.609375 77.6415403406653 L 58.533203125 80.4094765841067 L 55.310546875 83.70916711893955 L 52.087890625 87.4327330474477 L 48.71875 91.79510001562261 L 45.203125 96.87745622448904 L 41.6875 102.52121109432647 L 38.025390625 109.01903839770694 L 34.0703125 116.7726021904964 L 29.96875 125.65164203776254 L 25.720703125 135.78320526955423 L 21.47265625 146.9042501759633 L 17.224609375 159.05346117221296 L 12.830078125 172.74538454382332 L 8.435546875 187.62379996572193 L 4.041015625 203.73354552670605 L -0.5 221.72222222222223" fill-opacity="0.4"/><g><path fill="none" stroke="#388c46" class="dcg-svg-curve" paint-order="fill stroke markers" d=" M -0.5 310.6111111111111 L 10.5 310.6111111111111 M 17.5 310.6111111111111 L 28.5 310.6111111111111 M 35.5 310.6111111111111 L 46.5 310.6111111111111 M 53.5 310.6111111111111 L 64.5 310.6111111111111 M 71.5 310.6111111111111 L 82.5 310.6111111111111 M 89.5 310.6111111111111 L 100.5 310.6111111111111 M 107.5 310.6111111111111 L 118.5 310.6111111111111 M 125.5 310.6111111111111 L 136.5 310.6111111111111 M 143.5 310.6111111111111 L 154.5 310.6111111111111 M 161.5 310.6111111111111 L 172.5 310.6111111111111 M 179.5 310.6111111111111 L 190.5 310.6111111111111 M 197.5 310.6111111111111 L 208.5 310.6111111111111 M 215.5 310.6111111111111 L 226.5 310.6111111111111 M 233.5 310.6111111111111 L 244.5 310.6111111111111 M 251.5 310.6111111111111 L 262.5 310.6111111111111 M 269.5 310.6111111111111 L 280.5 310.6111111111111 M 287.5 310.6111111111111 L 298.5 310.6111111111111 M 305.5 310.6111111111111 L 316.5 310.6111111111111 M 323.5 310.6111111111111 L 334.5 310.6111111111111 M 341.5 310.6111111111111 L 352.5 310.6111111111111 M 359.5 310.6111111111111 L 370.5 310.6111111111111 M 377.5 310.6111111111111 L 388.5 310.6111111111111 M 395.5 310.6111111111111 L 406.5 310.6111111111111 M 413.5 310.6111111111111 L 424.5 310.6111111111111 M 431.5 310.6111111111111 L 442.5 310.6111111111111 M 449.5 310.6111111111111 L 460.5 310.6111111111111 M 467.5 310.6111111111111 L 478.5 310.6111111111111 M 485.5 310.6111111111111 L 496.5 310.6111111111111 M 503.5 310.6111111111111 L 514.5 310.6111111111111 M 521.5 310.6111111111111 L 532.5 310.6111111111111 M 539.5 310.6111111111111 L 550.5 310.6111111111111 M 557.5 310.6111111111111 L 568.5 310.6111111111111 M 575.5 310.6111111111111 L 586.5 310.6111111111111 M 593.5 310.6111111111111 L 599.5 310.6111111111111" stroke-linecap="round" stroke-linejoin="round" stroke-miterlimit="10" stroke-width="2.5" stroke-opacity="0.9" stroke-dasharray=""/></g><g><path fill="none" stroke="#388c46" class="dcg-svg-curve" paint-order="fill stroke markers" d=" M -0.5 221.72222222222223 L 2.1923520683858437 211.05679957050052 M 3.905667020995017 204.2697124284958 L 4.041015625 203.73354552670605 M 4.041015625 203.73354552670605 L 6.790368198610445 193.65479812485265 M 8.647609453811356 186.90582688429384 L 11.763527363341206 176.35636928775975 M 13.818642232473792 169.66534181857122 L 17.180275033218276 159.1915924940476 M 19.48715583817714 152.58268644236549 L 21.47265625 146.9042501759633 M 21.47265625 146.9042501759633 L 23.251285718652003 142.24794134162602 M 25.75151318922215 135.7097234735601 L 29.96875 125.65164203776254 M 29.96875 125.65164203776254 L 30.007991662284695 125.56669190397847 M 32.9434898341306 119.2119416741827 L 34.0703125 116.7726021904964 M 34.0703125 116.7726021904964 L 37.84769007187852 109.367403848678 M 41.270258113008005 103.26154008174525 L 41.6875 102.52121109432647 M 41.6875 102.52121109432647 L 45.203125 96.87745622448904 M 45.203125 96.87745622448904 L 47.19481286327574 93.99817667162337 M 51.36006781627863 88.37511881665269 L 52.087890625 87.4327330474477 M 52.087890625 87.4327330474477 L 55.310546875 83.70916711893955 M 55.310546875 83.70916711893955 L 58.533203125 80.4094765841067 M 58.533203125 80.4094765841067 L 58.73576079877399 80.22721540059392 M 64.07746095536868 75.70954630345496 L 64.685546875 75.23354247211199 M 64.685546875 75.23354247211199 L 67.615234375 73.26333267295314 M 67.615234375 73.26333267295314 L 70.544921875 71.59745074862894 M 70.544921875 71.59745074862894 L 73.474609375 70.22529940161428 M 73.474609375 70.22529940161428 L 73.56076646203933 70.19327720962157 M 80.2431470181763 68.14880100869644 L 82.263671875 67.76727694851382 M 82.263671875 67.76727694851382 L 85.33984375 67.4581988760118 M 85.33984375 67.4581988760118 L 88.416015625 67.41622755441006 M 88.416015625 67.41622755441006 L 91.18498669151245 67.6086902666993 M 98.05895830430264 68.89207364895574 L 98.083984375 68.89787974093821 M 98.083984375 68.89787974093821 L 101.453125 69.94495950901404 M 101.453125 69.94495950901404 L 104.96875 71.30545147922305 M 104.96875 71.30545147922305 L 108.30642483840828 72.84711638594234 M 114.42535662021182 76.24024381535857 L 116.6875 77.61971505482995 M 116.6875 77.61971505482995 L 121.08203125 80.61344593817194 M 121.08203125 80.61344593817194 L 123.50730519519712 82.43485715259656 M 128.99788012067035 86.77459190765812 L 130.75 88.20781792534723 M 130.75 88.20781792534723 L 136.169921875 92.98748623948791 M 136.169921875 92.98748623948791 L 137.26871506148706 94.02317527211459 M 142.35737987962972 98.82984044478572 L 148.9140625 105.37985170638638 M 148.9140625 105.37985170638638 L 150.1091022949616 106.6337581158874 M 154.93847505568303 111.70102155269447 L 156.677734375 113.52595526408277 M 156.677734375 113.52595526408277 L 162.40641886694775 119.7770137828888 M 167.13242210086472 124.94080673306712 L 174.52490842956965 133.08642800341298 M 179.2292179114728 138.27000517545125 L 186.62170424017773 146.41562644579707 M 191.32601372208086 151.59920361783534 L 198.7185000507858 159.7448248881812 M 203.4403396476611 164.9119165293893 L 211.11700917410653 172.7902885047243 M 216.1238074765904 177.6821911787343 L 218.640625 180.1361145960788 M 218.640625 180.1361145960788 L 224.14662324096514 185.2063535072949 M 229.40741418917108 189.82319857126265 L 231.677734375 191.7855765193895 M 231.677734375 191.7855765193895 L 237.537109375 196.51227005196466 M 237.537109375 196.51227005196466 L 237.91425617506286 196.7942610252776 M 243.52826765032674 200.97508946234754 L 248.669921875 204.51011839467589 M 248.669921875 204.51011839467589 L 252.7033185024958 207.03851553176023 M 258.7608958256685 210.54416937069539 L 258.923828125 210.63644280613383 M 258.923828125 210.63644280613383 L 263.7578125 213.08456480191776 M 263.7578125 213.08456480191776 L 268.591796875 215.23952894162733 M 268.591796875 215.23952894162733 L 268.68665390274526 215.27601837548954 M 275.25715664393783 217.68414680737493 L 277.8203125 218.51540251565166 M 277.8203125 218.51540251565166 L 282.361328125 219.71416042360266 M 282.361328125 219.71416042360266 L 285.89740044418517 220.43523195880633 M 292.8282617388554 221.38589935232753 L 295.544921875 221.61495250911008 M 295.544921875 221.61495250911008 L 299.939453125 221.72089767740272 M 299.939453125 221.72089767740272 L 303.8148130086612 221.58076655117299 M 310.7693636643781 220.81974501627303 L 313.123046875 220.45195672390372 M 313.123046875 220.45195672390372 L 317.517578125 219.50368889875216 M 317.517578125 219.50368889875216 L 321.4913718731494 218.40802344966698 M 328.1069734160161 216.1293608558721 L 331.287109375 214.8698460760796 M 331.287109375 214.8698460760796 L 335.974609375 212.73229804189245 M 335.974609375 212.73229804189245 L 338.1324349791963 211.61995777502742 M 344.26668475406393 208.25163184728387 L 345.7890625 207.37609422350886 M 345.7890625 207.37609422350886 L 350.916015625 204.1230800594281 M 350.916015625 204.1230800594281 L 353.52285106719864 202.31599877687603 M 359.1914993719897 198.21130395317763 L 361.755859375 196.28406351516955 M 361.755859375 196.28406351516955 L 367.615234375 191.54046749515177 M 367.615234375 191.54046749515177 L 367.80670483178284 191.37458327189674 M 373.09730563811934 186.79096645676134 L 373.767578125 186.21026260968424 M 373.767578125 186.21026260968424 L 380.359375 180.1361145960788 M 380.359375 180.1361145960788 L 381.18284204599144 179.33407082987293 M 386.1973887980303 174.4499822893552 L 387.390625 173.28778926407298 M 387.390625 173.28778926407298 L 393.9160152712003 166.61330610994415 M 398.7295122100563 161.5313685278724 L 404.236328125 155.6546582080382 M 404.236328125 155.6546582080382 L 406.214759678876 153.4713163282968 M 410.9151060230029 148.28414520664938 L 415.955078125 142.7221725715787 M 415.955078125 142.7221725715787 L 418.2958790991857 140.12791621805388 M 422.985236340279 134.93080849688766 L 430.35422629056853 126.76392493505503 M 435.04358353166185 121.5668172138888 L 441.58984375 114.31174625718 M 441.58984375 114.31174625718 L 442.4362779636401 113.42189483099752 M 447.26074492368053 108.34996043163089 L 450.0859375 105.37985170638638 M 450.0859375 105.37985170638638 L 454.971009536462 100.50569354989268 M 460.01007986964436 95.64805207025049 L 463.26953125 92.58761603939206 M 463.26953125 92.58761603939206 L 468.18083736958846 88.28572638355948 M 473.60035712700596 83.85620081761888 L 473.962890625 83.56281247619063 M 473.962890625 83.56281247619063 L 478.650390625 80.0930936517438 M 478.650390625 80.0930936517438 L 482.5575811613617 77.47782645317825 M 488.5966722887125 73.94420825230357 L 491.248046875 72.56638678024535 M 491.248046875 72.56638678024535 L 495.056640625 70.88128043861042 M 495.056640625 70.88128043861042 L 498.572265625 69.59902477573684 M 498.572265625 69.59902477573684 L 498.67332636263797 69.57016802718081 M 505.4676466926021 67.90788925367204 L 508.6796875 67.51914217066951 M 508.6796875 67.51914217066951 L 511.755859375 67.40144501490482 M 511.755859375 67.40144501490482 L 514.83203125 67.54382760007383 M 514.83203125 67.54382760007383 L 516.424769469228 67.7546637124226 M 523.2237325953787 69.36248532659319 L 523.62109375 69.48595248074304 M 523.62109375 69.48595248074304 L 526.55078125 70.67279792867151 M 526.55078125 70.67279792867151 L 529.48046875 72.14655796481952 M 529.48046875 72.14655796481952 L 532.41015625 73.91774230574083 M 532.41015625 73.91774230574083 L 532.9972927957402 74.33444391099668 M 538.5190428389906 78.6281374881612 L 541.345703125 81.26820643106771 M 541.345703125 81.26820643106771 L 544.421875 84.51767427488056 M 544.421875 84.51767427488056 L 546.1376255148484 86.54722435595244 M 550.4569990810965 92.05310923027506 L 550.720703125 92.4003817246894 M 550.720703125 92.4003817246894 L 554.08984375 97.32604799902066 M 554.08984375 97.32604799902066 L 556.5089979292802 101.23415965969149 M 560.0058706961427 107.29678445178789 L 560.974609375 109.01903839770694 M 560.974609375 109.01903839770694 L 564.63671875 116.17142780108276 M 564.63671875 116.17142780108276 L 565.0549038146297 117.06720926339386 M 568.0159958277377 123.4100740806439 L 568.4453125 124.32970021988473 M 568.4453125 124.32970021988473 L 572.3611034306766 133.5149478254846 M 574.9032698742669 140.03696378390285 L 576.6484375 144.52027391400011 M 576.6484375 144.52027391400011 L 578.7240264528792 150.35085746499524 M 581.0587536457623 156.94985466840015 L 584.4772308023795 167.40518890168445 M 586.5451825504188 174.0923380294002 L 589.392578125 183.53768909156412 M 589.392578125 183.53768909156412 L 589.6970728001447 184.6308666158998 M 591.575356849857 191.3741632153826 L 593.787109375 199.31465724448228 M 593.787109375 199.31465724448228 L 594.475594598214 201.9845435463096 M 596.2235084561072 208.76280269932113 L 598.181640625 216.35627032741186 M 598.181640625 216.35627032741186 L 598.935150113625 219.4231849676216" stroke-linecap="round" stroke-linejoin="round" stroke-miterlimit="10" stroke-width="2.5" stroke-opacity="0.9" stroke-dasharray=""/></g></g></g><g id="labels-7af92119"/></g></svg>