<svg version="1.1" xmlns="http://www.w3.org/2000/svg" xmlns:xlink="http://www.w3.org/1999/xlink" width="600" height="400"><defs/><g transform="scale(1,1)"><g id="background-c2b30bcc"><rect fill="white" stroke="none" x="0" y="0" width="600" height="400" class="dcg-svg-background"/></g><g id="background-images-c2b30bcc"/><g id="graphpaper-c2b30bcc"><g id="grid-c2b30bcc"><g><path fill="none" stroke="rgb(0,0,0)" class="dcg-svg-minor-gridline" paint-order="fill stroke markers" d=" M -0.5 0 L -0.5 400" stroke-opacity="0.12" stroke-miterlimit="10" stroke-dasharray=""/><path fill="none" stroke="rgb(0,0,0)" class="dcg-svg-minor-gridline" paint-order="fill stroke markers" d=" M 19.5 0 L 19.5 400" stroke-opacity="0.12" stroke-miterlimit="10" stroke-dasharray=""/><path fill="none" stroke="rgb(0,0,0)" class="dcg-svg-minor-gridline" paint-order="fill stroke markers" d=" M 39.5 0 L 39.5 400" stroke-opacity="0.12" stroke-miterlimit="10" stroke-dasharray=""/><path fill="none" stroke="rgb(0,0,0)" class="dcg-svg-minor-gridline" paint-order="fill stroke markers" d=" M 59.5 0 L 59.5 400" stroke-opacity="0.12" stroke-miterlimit="10" stroke-dasharray=""/><path fill="none" stroke="rgb(0,0,0)" class="dcg-svg-minor-gridline" paint-order="fill stroke markers" d=" M 79.5 0 L 79.5 400" stroke-opacity="0.12" stroke-miterlimit="10" stroke-dasharray=""/><path fill="none" stroke="rgb(0,0,0)" class="dcg-svg-minor-gridline" paint-order="fill stroke markers" d=" M 99.5 0 L 99.5 400" stroke-opacity="0.12" stroke-miterlimit="10" stroke-dasharray=""/><path fill="none" stroke="rgb(0,0,0)" class="dcg-svg-minor-gridline" paint-order="fill stroke markers" d=" M 119.5 0 L 119.5 400" stroke-opacity="0.12" stroke-miterlimit="10" stroke-dasharray=""/><path fill="none" stroke="rgb(0,0,0)" class="dcg-svg-minor-gridline" paint-order="fill stroke markers" d=" M 139.5 0 L 139.5 400" stroke-opacity="0.12" stroke-miterlimit="10" stroke-dasharray=""/><path fill="none" stroke="rgb(0,0,0)" class="dcg-svg-minor-gridline" paint-order="fill stroke markers" d=" M 159.5 0 L 159.5 400" stroke-opacity="0.12" stroke-miterlimit="10" stroke-dasharray=""/><path fill="none" stroke="rgb(0,0,0)" class="dcg-svg-minor-gridline" paint-order="fill stroke markers" d=" M 179.5 0 L 179.5 400" stroke-opacity="0.12" stroke-miterlimit="10" stroke-dasharray=""/><path fill="none" stroke="rgb(0,0,0)" class="dcg-svg-minor-gridline" paint-order="fill stroke markers" d=" M 219.5 0 L 219.5 400" stroke-opacity="0.12" stroke-miterlimit="10" stroke-dasharray=""/><path fill="none" stroke="rgb(0,0,0)" class="dcg-svg-minor-gridline" paint-order="fill stroke markers" d=" M 239.5 0 L 239.5 400" stroke-opacity="0.12" stroke-miterlimit="10" stroke-dasharray=""/><path fill="none" stroke="rgb(0,0,0)" class="dcg-svg-minor-gridline" paint-order="fill stroke markers" d=" M 259.5 0 L 259.5 400" stroke-opacity="0.12" stroke-miterlimit="10" stroke-dasharray=""/><path fill="none" stroke="rgb(0,0,0)" class="dcg-svg-minor-gridline" paint-order="fill stroke markers" d=" M 279.5 0 L 279.5 400" stroke-opacity="0.12" stroke-miterlimit="10" stroke-dasharray=""/><path fill="none" stroke="rgb(0,0,0)" class="dcg-svg-minor-gridline" paint-order="fill stroke markers" d=" M 299.5 0 L 299.5 400" stroke-opacity="0.12" stroke-miterlimit="10" stroke-dasharray=""/><path fill="none" stroke="rgb(0,0,0)" class="dcg-svg-minor-gridline" paint-order="fill stroke markers" d=" M 319.5 0 L 319.5 400" stroke-opacity="0.12" stroke-miterlimit="10" stroke-dasharray=""/><path fill="none" stroke="rgb(0,0,0)" class="dcg-svg-minor-gridline" paint-order="fill stroke markers" d=" M 339.5 0 L 339.5 400" stroke-opacity="0.12" stroke-miterlimit="10" stroke-dasharray=""/><path fill="none" stroke="rgb(0,0,0)" class="dcg-svg-minor-gridline" paint-order="fill stroke markers" d=" M 359.5 0 L 359.5 400" stroke-opacity="0.12" stroke-miterlimit="10" stroke-dasharray=""/><path fill="none" stroke="rgb(0,0,0)" class="dcg-svg-minor-gridline" paint-order="fill stroke markers" d=" M 379.5 0 L 379.5 400" stroke-opacity="0.12" stroke-miterlimit="10" stroke-dasharray=""/><path fill="none" stroke="rgb(0,0,0)" class="dcg-svg-minor-gridline" paint-order="fill stroke markers" d=" M 399.5 0 L 399.5 400" stroke-opacity="0.12" stroke-miterlimit="10" stroke-dasharray=""/><path fill="none" stroke="rgb(0,0,0)" class="dcg-svg-minor-gridline" paint-order="fill stroke markers" d=" M 419.5 0 L 419.5 400" stroke-opacity="0.12" stroke-miterlimit="10" stroke-dasharray=""/><path fill="none" stroke="rgb(0,0,0)" class="dcg-svg-minor-gridline" paint-order="fill stroke markers" d=" M 439.5 0 L 439.5 400" stroke-opacity="0.12" stroke-miterlimit="10" stroke-dasharray=""/><path fill="none" stroke="rgb(0,0,0)" class="dcg-svg-minor-gridline" paint-order="fill stroke markers" d=" M 459.5 0 L 459.5 400" stroke-opacity="0.12" stroke-miterlimit="10" stroke-dasharray=""/><path fill="none" stroke="rgb(0,0,0)" class="dcg-svg-minor-gridline" paint-order="fill stroke markers" d=" M 479.5 0 L 479.5 400" stroke-opacity="0.12" stroke-miterlimit="10" stroke-dasharray=""/><path fill="none" stroke="rgb(0,0,0)" class="dcg-svg-minor-gridline" paint-order="fill stroke markers" d=" M 499.5 0 L 499.5 400" stroke-opacity="0.12" stroke-miterlimit="10" stroke-dasharray=""/><path fill="none" stroke="rgb(0,0,0)" class="dcg-svg-minor-gridline" paint-order="fill stroke markers" d=" M 519.5 0 L 519.5 400" stroke-opacity="0.12" stroke-miterlimit="10" stroke-dasharray=""/><path fill="none" stroke="rgb(0,0,0)" class="dcg-svg-minor-gridline" paint-order="fill stroke markers" d=" M 539.5 0 L 539.5 400" stroke-opacity="0.12" stroke-miterlimit="10" stroke-dasharray=""/><path fill="none" stroke="rgb(0,0,0)" class="dcg-svg-minor-gridline" paint-order="fill stroke markers" d=" M 559.5 0 L 559.5 400" stroke-opacity="0.12" stroke-miterlimit="10" stroke-dasharray=""/><path fill="none" stroke="rgb(0,0,0)" class="dcg-svg-minor-gridline" paint-order="fill stroke markers" d=" M 579.5 0 L 579.5 400" stroke-opacity="0.12" stroke-miterlimit="10" stroke-dasharray=""/><path fill="none" stroke="rgb(0,0,0)" class="dcg-svg-minor-gridline" paint-order="fill stroke markers" d=" M 0 379.5 L 600 379.5" stroke-opacity="0.12" stroke-miterlimit="10" stroke-dasharray=""/><path fill="none" stroke="rgb(0,0,0)" class="dcg-svg-minor-gridline" paint-order="fill stroke markers" d=" M 0 359.5 L 600 359.5" stroke-opacity="0.12" stroke-miterlimit="10" stroke-dasharray=""/><path fill="none" stroke="rgb(0,0,0)" class="dcg-svg-minor-gridline" paint-order="fill stroke markers" d=" M 0 339.5 L 600 339.5" stroke-opacity="0.12" stroke-miterlimit="10" stroke-dasharray=""/><path fill="none" stroke="rgb(0,0,0)" class="dcg-svg-minor-gridline" paint-order="fill stroke markers" d=" M 0 319.5 L 600 319.5" stroke-opacity="0.12" stroke-miterlimit="10" stroke-dasharray=""/><path fill="none" stroke="rgb(0,0,0)" class="dcg-svg-minor-gridline" paint-order="fill stroke markers" d=" M 0 299.5 L 600 299.5" stroke-opacity="0.12" stroke-miterlimit="10" stroke-dasharray=""/><path fill="none" stroke="rgb(0,0,0)" class="dcg-svg-minor-gridline" paint-order="fill stroke markers" d=" M 0 279.5 L 600 279.5" stroke-opacity="0.12" stroke-miterlimit="10" stroke-dasharray=""/><path fill="none" stroke="rgb(0,0,0)" class="dcg-svg-minor-gridline" paint-order="fill stroke markers" d=" M 0 259.5 L 600 259.5" stroke-opacity="0.12" stroke-miterlimit="10" stroke-dasharray=""/><path fill="none" stroke="rgb(0,0,0)" class="dcg-svg-minor-gridline" paint-order="fill stroke markers" d=" M 0 239.5 L 600 239.5" stroke-opacity="0.12" stroke-miterlimit="10" stroke-dasharray=""/><path fill="none" stroke="rgb(0,0,0)" class="dcg-svg-minor-gridline" paint-order="fill stroke markers" d=" M 0 219.5 L 600 219.5" stroke-opacity="0.12" stroke-miterlimit="10" stroke-dasharray=""/><path fill="none" stroke="rgb(0,0,0)" class="dcg-svg-minor-gridline" paint-order="fill stroke markers" d=" M 0 179.5 L 600 179.5" stroke-opacity="0.12" stroke-miterlimit="10" stroke-dasharray=""/><path fill="none" stroke="rgb(0,0,0)" class="dcg-svg-minor-gridline" paint-order="fill stroke markers" d=" M 0 159.5 L 600 159.5" stroke-opacity="0.12" stroke-miterlimit="10" stroke-dasharray=""/><path fill="none" stroke="rgb(0,0,0)" class="dcg-svg-minor-gridline" paint-order="fill stroke markers" d=" M 0 139.5 L 600 139.5" stroke-opacity="0.12" stroke-miterlimit="10" stroke-dasharray=""/><path fill="none" stroke="rgb(0,0,0)" class="dcg-svg-minor-gridline" paint-order="fill stroke markers" d=" M 0 119.5 L 600 119.5" stroke-opacity="0.12" stroke-miterlimit="10" stroke-dasharray=""/><path fill="none" stroke="rgb(0,0,0)" class="dcg-svg-minor-gridline" paint-order="fill stroke markers" d=" M 0 99.5 L 600 99.5" stroke-opacity="0.12" stroke-miterlimit="10" stroke-dasharray=""/><path fill="none" stroke="rgb(0,0,0)" class="dcg-svg-minor-gridline" paint-order="fill stroke markers" d=" M 0 79.5 L 600 79.5" stroke-opacity="0.12" stroke-miterlimit="10" stroke-dasharray=""/><path fill="none" stroke="rgb(0,0,0)" class="dcg-svg-minor-gridline" paint-order="fill stroke markers" d=" M 0 59.5 L 600 59.5" stroke-opacity="0.12" stroke-miterlimit="10" stroke-dasharray=""/><path fill="none" stroke="rgb(0,0,0)" class="dcg-svg-minor-gridline" paint-order="fill stroke markers" d=" M 0 39.5 L 600 39.5" stroke-opacity="0.12" stroke-miterlimit="10" stroke-dasharray=""/><path fill="none" stroke="rgb(0,0,0)" class="dcg-svg-minor-gridline" paint-order="fill stroke markers" d=" M 0 19.5 L 600 19.5" stroke-opacity="0.12" stroke-miterlimit="10" stroke-dasharray=""/><path fill="none" stroke="rgb(0,0,0)" class="dcg-svg-minor-gridline" paint-order="fill stroke markers" d=" M 0 -0.5 L 600 -0.5" stroke-opacity="0.12" stroke-miterlimit="10" stroke-dasharray=""/><path fill="none" stroke="rgb(0,0,0)" class="dcg-svg-major-gridline" paint-order="fill stroke markers" d=" M -0.5 0 L -0.5 400" stroke-opacity="0.31818181818181823" stroke-miterlimit="10" stroke-dasharray=""/><path fill="none" stroke="rgb(0,0,0)" class="dcg-svg-major-gridline" paint-order="fill stroke markers" d=" M 99.5 0 L 99.5 400" stroke-opacity="0.31818181818181823" stroke-miterlimit="10" stroke-dasharray=""/><path fill="none" stroke="rgb(0,0,0)" class="dcg-svg-major-gridline" paint-order="fill stroke markers" d=" M 299.5 0 L 299.5 400" stroke-opacity="0.31818181818181823" stroke-miterlimit="10" stroke-dasharray=""/><path fill="none" stroke="rgb(0,0,0)" class="dcg-svg-major-gridline" paint-order="fill stroke markers" d=" M 399.5 0 L 399.5 400" stroke-opacity="0.31818181818181823" stroke-miterlimit="10" stroke-dasharray=""/><path fill="none" stroke="rgb(0,0,0)" class="dcg-svg-major-gridline" paint-order="fill stroke markers" d=" M 499.5 0 L 499.5 400" stroke-opacity="0.31818181818181823" stroke-miterlimit="10" stroke-dasharray=""/><path fill="none" stroke="rgb(0,0,0)" class="dcg-svg-major-gridline" paint-order="fill stroke markers" d=" M 0 299.5 L 600 299.5" stroke-opacity="0.31818181818181823" stroke-miterlimit="10" stroke-dasharray=""/><path fill="none" stroke="rgb(0,0,0)" class="dcg-svg-major-gridline" paint-order="fill stroke markers" d=" M 0 99.5 L 600 99.5" stroke-opacity="0.31818181818181823" stroke-miterlimit="10" stroke-dasharray=""/><path fill="none" stroke="rgb(0,0,0)" class="dcg-svg-major-gridline" paint-order="fill stroke markers" d=" M 0 -0.5 L 600 -0.5" stroke-opacity="0.31818181818181823" stroke-miterlimit="10" stroke-dasharray=""/></g></g><g id="axis-c2b30bcc"><g id="yaxis-c2b30bcc"><title>Y axis</title><path fill="none" stroke="rgb(0,0,0)" class="dcg-svg-axis-line" paint-order="fill stroke markers" d=" M 199.75 0 L 199.75 400" stroke-opacity="0.9" stroke-miterlimit="10" stroke-width="1.5" stroke-dasharray=""/></g><g id="xaxis-c2b30bcc"><title>X axis</title><path fill="none" stroke="rgb(0,0,0)" class="dcg-svg-axis-line" paint-order="fill stroke markers" d=" M 0 199.75 L 600 199.75" stroke-opacity="0.9" stroke-miterlimit="10" stroke-width="1.5" stroke-dasharray=""/></g><g><g class="dcg-svg-axis-value"><text fill="none" stroke="#ffffff" font-family="Arial" font-size="14px" font-style="normal" font-weight="normal" text-decoration="normal" x="191.10693359375" y="215.808" text-anchor="middle" stroke-miterlimit="2" stroke-width="3" stroke-dasharray="">0</text><text fill="#000000" stroke="none" font-family="Arial" font-size="14px" font-style="normal" font-weight="normal" text-decoration="normal" x="191.10693359375" y="215.808" text-anchor="middle">0</text></g><g class="dcg-svg-axis-value dcg-svg-offcenter-axis-value"><text fill="none" stroke="#ffffff" font-family="Arial" font-size="14px" font-style="normal" font-weight="normal" text-decoration="normal" x="9.22412109375" y="215.808" text-anchor="middle" stroke-miterlimit="2" stroke-width="3" stroke-dasharray="">-1</text><text fill="#000000" stroke="none" font-family="Arial" font-size="14px" font-style="normal" font-weight="normal" text-decoration="normal" x="9.22412109375" y="215.808" text-anchor="middle">-1</text></g><g class="dcg-svg-axis-value"><text fill="none" stroke="#ffffff" font-family="Arial" font-size="14px" font-style="normal" font-weight="normal" text-decoration="normal" x="97.6689453125" y="215.808" text-anchor="middle" stroke-miterlimit="2" stroke-width="3" stroke-dasharray="">-0.5</text><text fill="#000000" stroke="none" font-family="Arial" font-size="14px" font-style="normal" font-weight="normal" text-decoration="normal" x="97.6689453125" y="215.808" text-anchor="middle">-0.5</text></g><g class="dcg-svg-axis-value"><text fill="none" stroke="#ffffff" font-family="Arial" font-size="14px" font-style="normal" font-weight="normal" text-decoration="normal" x="300" y="215.808" text-anchor="middle" stroke-miterlimit="2" stroke-width="3" stroke-dasharray="">0.5</text><text fill="#000000" stroke="none" font-family="Arial" font-size="14px" font-style="normal" font-weight="normal" text-decoration="normal" x="300" y="215.808" text-anchor="middle">0.5</text></g><g class="dcg-svg-axis-value"><text fill="none" stroke="#ffffff" font-family="Arial" font-size="14px" font-style="normal" font-weight="normal" text-decoration="normal" x="400" y="215.808" text-anchor="middle" stroke-miterlimit="2" stroke-width="3" stroke-dasharray="">1</text><text fill="#000000" stroke="none" font-family="Arial" font-size="14px" font-style="normal" font-weight="normal" text-decoration="normal" x="400" y="215.808" text-anchor="middle">1</text></g><g class="dcg-svg-axis-value"><text fill="none" stroke="#ffffff" font-family="Arial" font-size="14px" font-style="normal" font-weight="normal" text-decoration="normal" x="500" y="215.808" text-anchor="middle" stroke-miterlimit="2" stroke-width="3" stroke-dasharray="">1.5</text><text fill="#000000" stroke="none" font-family="Arial" font-size="14px" font-style="normal" font-weight="normal" text-decoration="normal" x="500" y="215.808" text-anchor="middle">1.5</text></g><g class="dcg-svg-axis-value dcg-svg-offcenter-axis-value"><text fill="none" stroke="#ffffff" font-family="Arial" font-size="14px" font-style="normal" font-weight="normal" text-decoration="normal" x="593.10693359375" y="215.808" text-anchor="middle" stroke-miterlimit="2" stroke-width="3" stroke-dasharray="">2</text><text fill="#000000" stroke="none" font-family="Arial" font-size="14px" font-style="normal" font-weight="normal" text-decoration="normal" x="593.10693359375" y="215.808" text-anchor="middle">2</text></g><g class="dcg-svg-axis-value dcg-svg-offcenter-axis-value"><text fill="none" stroke="#ffffff" font-family="Arial" font-size="14px" font-style="normal" font-weight="normal" text-decoration="normal" x="188.77587890625" y="393.808" text-anchor="middle" stroke-miterlimit="2" stroke-width="3" stroke-dasharray="">-1</text><text fill="#000000" stroke="none" font-family="Arial" font-size="14px" font-style="normal" font-weight="normal" text-decoration="normal" x="188.77587890625" y="393.808" text-anchor="middle">-1</text></g><g class="dcg-svg-axis-value"><text fill="none" stroke="#ffffff" font-family="Arial" font-size="14px" font-style="normal" font-weight="normal" text-decoration="normal" x="182.93798828125" y="303.808" text-anchor="middle" stroke-miterlimit="2" stroke-width="3" stroke-dasharray="">-0.5</text><text fill="#000000" stroke="none" font-family="Arial" font-size="14px" font-style="normal" font-weight="normal" text-decoration="normal" x="182.93798828125" y="303.808" text-anchor="middle">-0.5</text></g><g class="dcg-svg-axis-value"><text fill="none" stroke="#ffffff" font-family="Arial" font-size="14px" font-style="normal" font-weight="normal" text-decoration="normal" x="185.26904296875" y="103.808" text-anchor="middle" stroke-miterlimit="2" stroke-width="3" stroke-dasharray="">0.5</text><text fill="#000000" stroke="none" font-family="Arial" font-size="14px" font-style="normal" font-weight="normal" text-decoration="normal" x="185.26904296875" y="103.808" text-anchor="middle">0.5</text></g><g class="dcg-svg-axis-value dcg-svg-offcenter-axis-value"><text fill="none" stroke="#ffffff" font-family="Arial" font-size="14px" font-style="normal" font-weight="normal" text-decoration="normal" x="191.10693359375" y="13.808" text-anchor="middle" stroke-miterlimit="2" stroke-width="3" stroke-dasharray="">1</text><text fill="#000000" stroke="none" font-family="Arial" font-size="14px" font-style="normal" font-weight="normal" text-decoration="normal" x="191.10693359375" y="13.808" text-anchor="middle">1</text></g></g></g></g><g id="expressions-c2b30bcc"><g id="sketch-c2b30bcc"><title>Expression 1</title><path fill="#2d70b3" stroke="none" paint-order="stroke fill markers" d="" fill-opacity="0.4"/><g><path fill="none" stroke="#2d70b3" class="dcg-svg-curve" paint-order="fill stroke markers" d=" M -0.5 -0.5 L -0.5 -0.5 L 7.99609375 16.131269454956055 L 16.4921875 32.04070281982422 L 24.841796875 46.9725604057312 L 33.044921875 60.96353483200073 L 41.248046875 74.28159666061401 L 49.3046875 86.70684051513672 L 57.21484375 98.27467155456543 L 65.125 109.216796875 L 72.888671875 119.34785795211792 L 80.65234375 128.87617301940918 L 88.416015625 137.80174207687378 L 96.033203125 145.97310972213745 L 103.357421875 153.28302335739136 L 110.388671875 159.79585599899292 L 117.2734375 165.69396209716797 L 123.865234375 170.8969111442566 L 130.310546875 175.56409788131714 L 136.462890625 179.63161420822144 L 142.46875 183.2371826171875 L 148.328125 186.40719604492188 L 154.041015625 189.16740369796753 L 159.607421875 191.54291105270386 L 165.173828125 193.6085696220398 L 170.59375 195.3221435546875 L 175.8671875 196.70745086669922 L 181.140625 197.81466674804688 L 186.267578125 198.6245150566101 L 191.39453125 199.17150688171387 L 196.521484375 199.45564222335815 L 201.6484375 199.47692108154297 L 206.775390625 199.2353434562683 L 211.90234375 198.73090934753418 L 217.029296875 197.96361875534058 L 222.15625 196.9334716796875 L 227.4296875 195.59966278076172 L 232.703125 193.98776245117188 L 238.123046875 192.04130125045776 L 243.54296875 189.80108451843262 L 249.109375 187.19454956054688 L 254.822265625 184.19723463058472 L 260.681640625 180.78403425216675 L 266.6875 176.92919921875 L 272.83984375 172.60633659362793 L 279.138671875 167.78840970993042 L 285.73046875 162.32153129577637 L 292.46875 156.2840576171875 L 299.5 149.5 L 306.677734375 142.06466627120972 L 314.1484375 133.77867889404297 L 321.912109375 124.57637739181519 L 329.67578125 114.77132987976074 L 337.439453125 104.36353635787964 L 345.349609375 93.13945722579956 L 353.259765625 81.28967237472534 L 361.31640625 68.5772533416748 L 369.373046875 55.215739727020264 L 377.576171875 40.944385051727295 L 385.92578125 25.727140426635742 L 394.275390625 9.81273603439331 L 401.96932668938604 -5.5" stroke-linecap="round" stroke-linejoin="round" stroke-miterlimit="10" stroke-width="2.5" stroke-opacity="0.9" stroke-dasharray=""/></g></g><g id="sketch-c2b30bcc"><title>Expression 2</title><path fill="#388c46" stroke="none" paint-order="stroke fill markers" d="" fill-opacity="0.4"/><path fill="#388c46" stroke="none" paint-order="stroke fill markers" d="" fill-opacity="0.4"/><path fill="#388c46" stroke="none" class="dcg-svg-region" paint-order="stroke fill markers" d=" M 199.5 199.5 L 399.5 199.5 L 399.5 -0.5 L 398.81640625 0.8648509979248047 L 390.3203125 17.43804168701172 L 381.970703125 33.022212505340576 L 373.767578125 47.65405607223511 L 365.564453125 61.61298704147339 L 357.5078125 74.66765594482422 L 349.59765625 86.85346794128418 L 341.6875 98.41357421875 L 333.923828125 109.1511721611023 L 326.16015625 119.28602409362793 L 318.396484375 128.8181300163269 L 310.779296875 137.58459043502808 L 303.455078125 145.46670866012573 L 296.27734375 152.67072868347168 L 289.392578125 159.09662199020386 L 282.80078125 164.80489921569824 L 276.35546875 169.96618461608887 L 270.056640625 174.608802318573 L 264.05078125 178.66598320007324 L 258.19140625 182.2765941619873 L 252.478515625 185.46638441085815 L 246.765625 188.32980346679688 L 241.19921875 190.80587577819824 L 235.779296875 192.91906309127808 L 230.505859375 194.69318342208862 L 225.232421875 196.1892123222351 L 219.958984375 197.40714979171753 L 214.83203125 198.32464408874512 L 209.705078125 198.97928190231323 L 204.578125 199.37106323242188 L 199.5 199.5" fill-opacity="0.4"/><g><path fill="none" stroke="#388c46" class="dcg-svg-curve" paint-order="fill stroke markers" d=" M 199.5 199.5 L 210.5 199.5 M 217.5 199.5 L 228.5 199.5 M 235.5 199.5 L 246.5 199.5 M 253.5 199.5 L 264.5 199.5 M 271.5 199.5 L 282.5 199.5 M 289.5 199.5 L 300.5 199.5 M 307.5 199.5 L 318.5 199.5 M 325.5 199.5 L 336.5 199.5 M 343.5 199.5 L 354.5 199.5 M 361.5 199.5 L 372.5 199.5 M 379.5 199.5 L 390.5 199.5 M 397.5 199.5 L 399.5 199.5" stroke-linecap="round" stroke-linejoin="round" stroke-miterlimit="10" stroke-width="2.5" stroke-opacity="0.9" stroke-dasharray=""/></g><g><path fill="none" stroke="#388c46" class="dcg-svg-curve" paint-order="fill stroke markers" d=" M 199.5 199.5 L 204.578125 199.37106323242188 M 204.578125 199.37106323242188 L 209.705078125 198.97928190231323 M 209.705078125 198.97928190231323 L 210.47714766593316 198.88069978075364 M 217.40098003362888 197.86491765847168 L 219.958984375 197.40714979171753 M 219.958984375 197.40714979171753 L 225.232421875 196.1892123222351 M 225.232421875 196.1892123222351 L 228.10804708267665 195.37342216322136 M 234.7781316431421 193.25588088656622 L 235.779296875 192.91906309127808 M 235.779296875 192.91906309127808 L 241.19921875 190.80587577819824 M 241.19921875 190.80587577819824 L 244.96942495828748 189.12879674707037 M 251.26606992937067 186.07408729492238 L 252.478515625 185.46638441085815 M 252.478515625 185.46638441085815 L 258.19140625 182.2765941619873 M 258.19140625 182.2765941619873 L 260.83117172636753 180.64994180301474 M 266.717521400939 176.86450126705367 L 270.056640625 174.608802318573 M 270.056640625 174.608802318573 L 275.6675945961785 170.47318951608574 M 281.152444425147 166.12485643872506 L 282.80078125 164.80489921569824 M 282.80078125 164.80489921569824 L 289.392578125 159.09662199020386 M 289.392578125 159.09662199020386 L 289.51570108691953 158.98170522179117 M 294.6330464182825 154.2054329557266 L 296.27734375 152.67072868347168 M 296.27734375 152.67072868347168 L 302.453753613074 146.47170013193428 M 307.2543149468769 141.37807684595742 L 310.779296875 137.58459043502808 M 310.779296875 137.58459043502808 L 314.59763156875715 133.19014957898042 M 319.15943234105293 127.88139531874872 L 326.10609814991415 119.35239572090616 M 330.3649179234549 113.79704443836337 L 333.923828125 109.1511721611023 M 333.923828125 109.1511721611023 L 336.9399611046598 104.97968941457574 M 341.04142886690914 99.30712718968746 L 341.6875 98.41357421875 M 341.6875 98.41357421875 L 347.2766658568999 90.2454231397942 M 351.17116995979245 84.42942704558344 L 357.1603871492564 75.20287419755672 M 360.84898658467523 69.25374666748303 L 365.564453125 61.61298704147339 M 365.564453125 61.61298704147339 L 366.588556057656 59.870311885073896 M 370.1351235217679 53.83525933994202 L 373.767578125 47.65405607223511 M 373.767578125 47.65405607223511 L 375.64077930689484 44.31284322191191 M 379.0639545420405 38.20695497289478 L 381.970703125 33.022212505340576 M 381.970703125 33.022212505340576 L 384.35848054584517 28.565533212771903 M 387.6643215901258 22.395329408200315 L 390.3203125 17.43804168701172 M 390.3203125 17.43804168701172 L 392.7728057348068 12.654003370091164 M 395.9661358776952 6.42482665093151 L 398.81640625 0.8648509979248047 M 398.81640625 0.8648509979248047 L 399.5 -0.5" stroke-linecap="round" stroke-linejoin="round" stroke-miterlimit="10" stroke-width="2.5" stroke-opacity="0.9" stroke-dasharray=""/></g></g><g id="sketch-c2b30bcc"><title>Expression 3</title><path fill="#6042a6" stroke="none" paint-order="stroke fill markers" d="" fill-opacity="0.4"/><path fill="#6042a6" stroke="none" paint-order="stroke fill markers" d="" fill-opacity="0.4"/><path fill="#6042a6" stroke="none" class="dcg-svg-region" paint-order="stroke fill markers" d=" M 219.50000000000003 199.5 L 239.5 199.5 L 239.5 197.5 L 219.50000000000003 197.5" fill-opacity="0.4"/><g><path fill="none" stroke="#6042a6" class="dcg-svg-curve" paint-order="fill stroke markers" d=" M 219.50000000000003 199.5 L 230.50000000000003 199.5 M 237.50000000000003 199.5 L 239.5 199.5" stroke-linecap="round" stroke-linejoin="round" stroke-miterlimit="10" stroke-width="2.5" stroke-opacity="0.9" stroke-dasharray=""/></g><g><path fill="none" stroke="#6042a6" class="dcg-svg-curve" paint-order="fill stroke markers" d=" M 219.50000000000003 197.5 L 230.50000000000003 197.5 M 237.50000000000003 197.5 L 239.5 197.5" stroke-linecap="round" stroke-linejoin="round" stroke-miterlimit="10" stroke-width="2.5" stroke-opacity="0.9" stroke-dasharray=""/></g></g><g id="sketch-c2b30bcc"><title>Expression 4</title><path fill="#6042a6" stroke="none" paint-order="stroke fill markers" d="" fill-opacity="0.4"/><path fill="#6042a6" stroke="none" paint-order="stroke fill markers" d="" fill-opacity="0.4"/><path fill="#6042a6" stroke="none" class="dcg-svg-region" paint-order="stroke fill markers" d=" M 239.5 199.5 L 259.5 199.5 L 259.5 191.5 L 239.5 191.5" fill-opacity="0.4"/><g><path fill="none" stroke="#6042a6" class="dcg-svg-curve" paint-order="fill stroke markers" d=" M 239.5 199.5 L 250.5 199.5 M 257.5 199.5 L 259.5 199.5" stroke-linecap="round" stroke-linejoin="round" stroke-miterlimit="10" stroke-width="2.5" stroke-opacity="0.9" stroke-dasharray=""/></g><g><path fill="none" stroke="#6042a6" class="dcg-svg-curve" paint-order="fill stroke markers" d=" M 239.5 191.5 L 250.5 191.5 M 257.5 191.5 L 259.5 191.5" stroke-linecap="round" stroke-linejoin="round" stroke-miterlimit="10" stroke-width="2.5" stroke-opacity="0.9" stroke-dasharray=""/></g></g><g id="sketch-c2b30bcc"><title>Expression 5</title><path fill="#6042a6" stroke="none" paint-order="stroke fill markers" d="" fill-opacity="0.4"/><path fill="#6042a6" stroke="none" paint-order="stroke fill markers" d="" fill-opacity="0.4"/><path fill="#6042a6" stroke="none" class="dcg-svg-region" paint-order="stroke fill markers" d=" M 259.5 199.5 L 279.5 199.5 L 279.5 181.49999999999997 L 259.5 181.49999999999997" fill-opacity="0.4"/><g><path fill="none" stroke="#6042a6" class="dcg-svg-curve" paint-order="fill stroke markers" d=" M 259.5 199.5 L 270.5 199.5 M 277.5 199.5 L 279.5 199.5" stroke-linecap="round" stroke-linejoin="round" stroke-miterlimit="10" stroke-width="2.5" stroke-opacity="0.9" stroke-dasharray=""/></g><g><path fill="none" stroke="#6042a6" class="dcg-svg-curve" paint-order="fill stroke markers" d=" M 259.5 181.49999999999997 L 270.5 181.49999999999997 M 277.5 181.49999999999997 L 279.5 181.49999999999997" stroke-linecap="round" stroke-linejoin="round" stroke-miterlimit="10" stroke-width="2.5" stroke-opacity="0.9" stroke-dasharray=""/></g></g><g id="sketch-c2b30bcc"><title>Expression 6</title><path fill="#6042a6" stroke="none" paint-order="stroke fill markers" d="" fill-opacity="0.4"/><path fill="#6042a6" stroke="none" paint-order="stroke fill markers" d="" fill-opacity="0.4"/><path fill="#6042a6" stroke="none" class="dcg-svg-region" paint-order="stroke fill markers" d=" M 279.5 199.5 L 299.5 199.5 L 299.5 167.50000000000003 L 279.5 167.50000000000003" fill-opacity="0.4"/><g><path fill="none" stroke="#6042a6" class="dcg-svg-curve" paint-order="fill stroke markers" d=" M 279.5 199.5 L 290.5 199.5 M 297.5 199.5 L 299.5 199.5" stroke-linecap="round" stroke-linejoin="round" stroke-miterlimit="10" stroke-width="2.5" stroke-opacity="0.9" stroke-dasharray=""/></g><g><path fill="none" stroke="#6042a6" class="dcg-svg-curve" paint-order="fill stroke markers" d=" M 279.5 167.50000000000003 L 290.5 167.50000000000003 M 297.5 167.50000000000003 L 299.5 167.50000000000003" stroke-linecap="round" stroke-linejoin="round" stroke-miterlimit="10" stroke-width="2.5" stroke-opacity="0.9" stroke-dasharray=""/></g></g><g id="sketch-c2b30bcc"><title>Expression 7</title><path fill="#6042a6" stroke="none" paint-order="stroke fill markers" d="" fill-opacity="0.4"/><path fill="#6042a6" stroke="none" paint-order="stroke fill markers" d="" fill-opacity="0.4"/><path fill="#6042a6" stroke="none" class="dcg-svg-region" paint-order="stroke fill markers" d=" M 299.5 199.5 L 319.5 199.5 L 319.5 149.5 L 299.5 149.5" fill-opacity="0.4"/><g><path fill="none" stroke="#6042a6" class="dcg-svg-curve" paint-order="fill stroke markers" d=" M 299.5 199.5 L 310.5 199.5 M 317.5 199.5 L 319.5 199.5" stroke-linecap="round" stroke-linejoin="round" stroke-miterlimit="10" stroke-width="2.5" stroke-opacity="0.9" stroke-dasharray=""/></g><g><path fill="none" stroke="#6042a6" class="dcg-svg-curve" paint-order="fill stroke markers" d=" M 299.5 149.5 L 310.5 149.5 M 317.5 149.5 L 319.5 149.5" stroke-linecap="round" stroke-linejoin="round" stroke-miterlimit="10" stroke-width="2.5" stroke-opacity="0.9" stroke-dasharray=""/></g></g><g id="sketch-c2b30bcc"><title>Expression 8</title><path fill="#6042a6" stroke="none" paint-order="stroke fill markers" d="" fill-opacity="0.4"/><path fill="#6042a6" stroke="none" paint-order="stroke fill markers" d="" fill-opacity="0.4"/><path fill="#6042a6" stroke="none" class="dcg-svg-region" paint-order="stroke fill markers" d=" M 319.5 199.5 L 339.5 199.5 L 339.5 127.5 L 319.5 127.5" fill-opacity="0.4"/><g><path fill="none" stroke="#6042a6" class="dcg-svg-curve" paint-order="fill stroke markers" d=" M 319.5 199.5 L 330.5 199.5 M 337.5 199.5 L 339.5 199.5" stroke-linecap="round" stroke-linejoin="round" stroke-miterlimit="10" stroke-width="2.5" stroke-opacity="0.9" stroke-dasharray=""/></g><g><path fill="none" stroke="#6042a6" class="dcg-svg-curve" paint-order="fill stroke markers" d=" M 319.5 127.5 L 330.5 127.5 M 337.5 127.5 L 339.5 127.5" stroke-linecap="round" stroke-linejoin="round" stroke-miterlimit="10" stroke-width="2.5" stroke-opacity="0.9" stroke-dasharray=""/></g></g><g id="sketch-c2b30bcc"><title>Expression 9</title><path fill="#6042a6" stroke="none" paint-order="stroke fill markers" d="" fill-opacity="0.4"/><path fill="#6042a6" stroke="none" paint-order="stroke fill markers" d="" fill-opacity="0.4"/><path fill="#6042a6" stroke="none" class="dcg-svg-region" paint-order="stroke fill markers" d=" M 339.5 199.5 L 359.5 199.5 L 359.5 101.5 L 339.5 101.5" fill-opacity="0.4"/><g><path fill="none" stroke="#6042a6" class="dcg-svg-curve" paint-order="fill stroke markers" d=" M 339.5 199.5 L 350.5 199.5 M 357.5 199.5 L 359.5 199.5" stroke-linecap="round" stroke-linejoin="round" stroke-miterlimit="10" stroke-width="2.5" stroke-opacity="0.9" stroke-dasharray=""/></g><g><path fill="none" stroke="#6042a6" class="dcg-svg-curve" paint-order="fill stroke markers" d=" M 339.5 101.5 L 350.5 101.5 M 357.5 101.5 L 359.5 101.5" stroke-linecap="round" stroke-linejoin="round" stroke-miterlimit="10" stroke-width="2.5" stroke-opacity="0.9" stroke-dasharray=""/></g></g><g id="sketch-c2b30bcc"><title>Expression 10</title><path fill="#6042a6" stroke="none" paint-order="stroke fill markers" d="" fill-opacity="0.4"/><path fill="#6042a6" stroke="none" paint-order="stroke fill markers" d="" fill-opacity="0.4"/><path fill="#6042a6" stroke="none" class="dcg-svg-region" paint-order="stroke fill markers" d=" M 359.5 199.5 L 379.5 199.5 L 379.5 71.5 L 359.5 71.5" fill-opacity="0.4"/><g><path fill="none" stroke="#6042a6" class="dcg-svg-curve" paint-order="fill stroke markers" d=" M 359.5 199.5 L 370.5 199.5 M 377.5 199.5 L 379.5 199.5" stroke-linecap="round" stroke-linejoin="round" stroke-miterlimit="10" stroke-width="2.5" stroke-opacity="0.9" stroke-dasharray=""/></g><g><path fill="none" stroke="#6042a6" class="dcg-svg-curve" paint-order="fill stroke markers" d=" M 359.5 71.5 L 370.5 71.5 M 377.5 71.5 L 379.5 71.5" stroke-linecap="round" stroke-linejoin="round" stroke-miterlimit="10" stroke-width="2.5" stroke-opacity="0.9" stroke-dasharray=""/></g></g><g id="sketch-c2b30bcc"><title>Expression 11</title><path fill="#6042a6" stroke="none" paint-order="stroke fill markers" d="" fill-opacity="0.4"/><path fill="#6042a6" stroke="none" paint-order="stroke fill markers" d="" fill-opacity="0.4"/><path fill="#6042a6" stroke="none" class="dcg-svg-region" paint-order="stroke fill markers" d=" M 379.5 199.5 L 399.5 199.5 L 399.5 37.5 L 379.5 37.5" fill-opacity="0.4"/><g><path fill="none" stroke="#6042a6" class="dcg-svg-curve" paint-order="fill stroke markers" d=" M 379.5 199.5 L 390.5 199.5 M 397.5 199.5 L 399.5 199.5" stroke-linecap="round" stroke-linejoin="round" stroke-miterlimit="10" stroke-width="2.5" stroke-opacity="0.9" stroke-dasharray=""/></g><g><path fill="none" stroke="#6042a6" class="dcg-svg-curve" paint-order="fill stroke markers" d=" M 379.5 37.5 L 390.5 37.5 M 397.5 37.5 L 399.5 37.5" stroke-linecap="round" stroke-linejoin="round" stroke-miterlimit="10" stroke-width="2.5" stroke-opacity="0.9" stroke-dasharray=""/></g></g><g id="sketch-c2b30bcc"><title>i/n</title><path fill="none" stroke="#000000" class="dcg-svg-point" paint-order="fill stroke markers" d=" M 299.4 199.4 L 299.4 199.6 L 299.6 199.6 L 299.6 199.4" stroke-linecap="round" stroke-linejoin="round" stroke-miterlimit="10" stroke-width="9" stroke-opacity="0.9" stroke-dasharray=""/></g><g id="sketch-c2b30bcc"><title>$i+1$</title><path fill="none" stroke="#c74440" class="dcg-svg-point" paint-order="fill stroke markers" d=" M 319.4 199.4 L 319.4 199.6 L 319.6 199.6 L 319.6 199.4" stroke-linecap="round" stroke-linejoin="round" stroke-miterlimit="10" stroke-width="9" stroke-opacity="0.9" stroke-dasharray=""/></g></g><g id="labels-c2b30bcc"><g transform="rotate(0,0,0) translate(300,200)"><g class="dcg-svg-label"><g transform="translate(-23.5,6.5)"><g><text fill="none" stroke="#FFF" font-family="arial, sans-serif" font-size="15.399999618530273px" font-style="normal" font-weight="normal" text-decoration="normal" x="0" y="14.488800086975097" text-anchor="start" stroke-linecap="round" stroke-linejoin="round" stroke-miterlimit="2" stroke-width="3" stroke-dasharray="">i/n</text></g></g><g transform="translate(-23.5,6.5)"><g><text fill="rgb(0, 0, 0)" stroke="none" font-family="arial, sans-serif" font-size="15.399999618530273px" font-style="normal" font-weight="normal" text-decoration="normal" x="0" y="14.488800086975097" text-anchor="start">i/n</text></g></g></g></g><g transform="rotate(0,0,0) translate(320,200)"><g class="dcg-svg-label"><g transform="translate(6.5,6.5)"><g><text fill="none" stroke="#FFF" font-family="arial, sans-serif" font-size="15.399999618530273px" font-style="normal" font-weight="normal" text-decoration="normal" x="0" y="14.488800086975097" text-anchor="start" stroke-linecap="round" stroke-linejoin="round" stroke-miterlimit="2" stroke-width="3" stroke-dasharray="">$i+1$</text></g></g><g transform="translate(6.5,6.5)"><g><text fill="rgb(199, 68, 64)" stroke="none" font-family="arial, sans-serif" font-size="15.399999618530273px" font-style="normal" font-weight="normal" text-decoration="normal" x="0" y="14.488800086975097" text-anchor="start">$i+1$</text></g></g></g></g></g></g></svg>