<svg version="1.1" xmlns="http://www.w3.org/2000/svg" xmlns:xlink="http://www.w3.org/1999/xlink" width="600" height="400"><defs/><g transform="scale(1,1)"><g id="background-260b56c4"><rect fill="white" stroke="none" x="0" y="0" width="600" height="400" class="dcg-svg-background"/></g><g id="background-images-260b56c4"/><g id="graphpaper-260b56c4"><g id="grid-260b56c4"><g><path fill="none" stroke="rgb(0,0,0)" class="dcg-svg-minor-gridline" paint-order="fill stroke markers" d=" M -0.5 0 L -0.5 400" stroke-opacity="0.12" stroke-miterlimit="10" stroke-dasharray=""/><path fill="none" stroke="rgb(0,0,0)" class="dcg-svg-minor-gridline" paint-order="fill stroke markers" d=" M 29.5 0 L 29.5 400" stroke-opacity="0.12" stroke-miterlimit="10" stroke-dasharray=""/><path fill="none" stroke="rgb(0,0,0)" class="dcg-svg-minor-gridline" paint-order="fill stroke markers" d=" M 59.5 0 L 59.5 400" stroke-opacity="0.12" stroke-miterlimit="10" stroke-dasharray=""/><path fill="none" stroke="rgb(0,0,0)" class="dcg-svg-minor-gridline" paint-order="fill stroke markers" d=" M 89.5 0 L 89.5 400" stroke-opacity="0.12" stroke-miterlimit="10" stroke-dasharray=""/><path fill="none" stroke="rgb(0,0,0)" class="dcg-svg-minor-gridline" paint-order="fill stroke markers" d=" M 119.5 0 L 119.5 400" stroke-opacity="0.12" stroke-miterlimit="10" stroke-dasharray=""/><path fill="none" stroke="rgb(0,0,0)" class="dcg-svg-minor-gridline" paint-order="fill stroke markers" d=" M 149.5 0 L 149.5 400" stroke-opacity="0.12" stroke-miterlimit="10" stroke-dasharray=""/><path fill="none" stroke="rgb(0,0,0)" class="dcg-svg-minor-gridline" paint-order="fill stroke markers" d=" M 179.5 0 L 179.5 400" stroke-opacity="0.12" stroke-miterlimit="10" stroke-dasharray=""/><path fill="none" stroke="rgb(0,0,0)" class="dcg-svg-minor-gridline" paint-order="fill stroke markers" d=" M 209.5 0 L 209.5 400" stroke-opacity="0.12" stroke-miterlimit="10" stroke-dasharray=""/><path fill="none" stroke="rgb(0,0,0)" class="dcg-svg-minor-gridline" paint-order="fill stroke markers" d=" M 239.5 0 L 239.5 400" stroke-opacity="0.12" stroke-miterlimit="10" stroke-dasharray=""/><path fill="none" stroke="rgb(0,0,0)" class="dcg-svg-minor-gridline" paint-order="fill stroke markers" d=" M 269.5 0 L 269.5 400" stroke-opacity="0.12" stroke-miterlimit="10" stroke-dasharray=""/><path fill="none" stroke="rgb(0,0,0)" class="dcg-svg-minor-gridline" paint-order="fill stroke markers" d=" M 329.5 0 L 329.5 400" stroke-opacity="0.12" stroke-miterlimit="10" stroke-dasharray=""/><path fill="none" stroke="rgb(0,0,0)" class="dcg-svg-minor-gridline" paint-order="fill stroke markers" d=" M 359.5 0 L 359.5 400" stroke-opacity="0.12" stroke-miterlimit="10" stroke-dasharray=""/><path fill="none" stroke="rgb(0,0,0)" class="dcg-svg-minor-gridline" paint-order="fill stroke markers" d=" M 389.5 0 L 389.5 400" stroke-opacity="0.12" stroke-miterlimit="10" stroke-dasharray=""/><path fill="none" stroke="rgb(0,0,0)" class="dcg-svg-minor-gridline" paint-order="fill stroke markers" d=" M 419.5 0 L 419.5 400" stroke-opacity="0.12" stroke-miterlimit="10" stroke-dasharray=""/><path fill="none" stroke="rgb(0,0,0)" class="dcg-svg-minor-gridline" paint-order="fill stroke markers" d=" M 449.5 0 L 449.5 400" stroke-opacity="0.12" stroke-miterlimit="10" stroke-dasharray=""/><path fill="none" stroke="rgb(0,0,0)" class="dcg-svg-minor-gridline" paint-order="fill stroke markers" d=" M 479.5 0 L 479.5 400" stroke-opacity="0.12" stroke-miterlimit="10" stroke-dasharray=""/><path fill="none" stroke="rgb(0,0,0)" class="dcg-svg-minor-gridline" paint-order="fill stroke markers" d=" M 509.5 0 L 509.5 400" stroke-opacity="0.12" stroke-miterlimit="10" stroke-dasharray=""/><path fill="none" stroke="rgb(0,0,0)" class="dcg-svg-minor-gridline" paint-order="fill stroke markers" d=" M 539.5 0 L 539.5 400" stroke-opacity="0.12" stroke-miterlimit="10" stroke-dasharray=""/><path fill="none" stroke="rgb(0,0,0)" class="dcg-svg-minor-gridline" paint-order="fill stroke markers" d=" M 569.5 0 L 569.5 400" stroke-opacity="0.12" stroke-miterlimit="10" stroke-dasharray=""/><path fill="none" stroke="rgb(0,0,0)" class="dcg-svg-minor-gridline" paint-order="fill stroke markers" d=" M 0 370.5 L 600 370.5" stroke-opacity="0.12" stroke-miterlimit="10" stroke-dasharray=""/><path fill="none" stroke="rgb(0,0,0)" class="dcg-svg-minor-gridline" paint-order="fill stroke markers" d=" M 0 342.5 L 600 342.5" stroke-opacity="0.12" stroke-miterlimit="10" stroke-dasharray=""/><path fill="none" stroke="rgb(0,0,0)" class="dcg-svg-minor-gridline" paint-order="fill stroke markers" d=" M 0 313.5 L 600 313.5" stroke-opacity="0.12" stroke-miterlimit="10" stroke-dasharray=""/><path fill="none" stroke="rgb(0,0,0)" class="dcg-svg-minor-gridline" paint-order="fill stroke markers" d=" M 0 285.5 L 600 285.5" stroke-opacity="0.12" stroke-miterlimit="10" stroke-dasharray=""/><path fill="none" stroke="rgb(0,0,0)" class="dcg-svg-minor-gridline" paint-order="fill stroke markers" d=" M 0 256.5 L 600 256.5" stroke-opacity="0.12" stroke-miterlimit="10" stroke-dasharray=""/><path fill="none" stroke="rgb(0,0,0)" class="dcg-svg-minor-gridline" paint-order="fill stroke markers" d=" M 0 228.5 L 600 228.5" stroke-opacity="0.12" stroke-miterlimit="10" stroke-dasharray=""/><path fill="none" stroke="rgb(0,0,0)" class="dcg-svg-minor-gridline" paint-order="fill stroke markers" d=" M 0 170.5 L 600 170.5" stroke-opacity="0.12" stroke-miterlimit="10" stroke-dasharray=""/><path fill="none" stroke="rgb(0,0,0)" class="dcg-svg-minor-gridline" paint-order="fill stroke markers" d=" M 0 142.5 L 600 142.5" stroke-opacity="0.12" stroke-miterlimit="10" stroke-dasharray=""/><path fill="none" stroke="rgb(0,0,0)" class="dcg-svg-minor-gridline" paint-order="fill stroke markers" d=" M 0 113.5 L 600 113.5" stroke-opacity="0.12" stroke-miterlimit="10" stroke-dasharray=""/><path fill="none" stroke="rgb(0,0,0)" class="dcg-svg-minor-gridline" paint-order="fill stroke markers" d=" M 0 85.5 L 600 85.5" stroke-opacity="0.12" stroke-miterlimit="10" stroke-dasharray=""/><path fill="none" stroke="rgb(0,0,0)" class="dcg-svg-minor-gridline" paint-order="fill stroke markers" d=" M 0 56.5 L 600 56.5" stroke-opacity="0.12" stroke-miterlimit="10" stroke-dasharray=""/><path fill="none" stroke="rgb(0,0,0)" class="dcg-svg-minor-gridline" paint-order="fill stroke markers" d=" M 0 28.5 L 600 28.5" stroke-opacity="0.12" stroke-miterlimit="10" stroke-dasharray=""/><path fill="none" stroke="rgb(0,0,0)" class="dcg-svg-minor-gridline" paint-order="fill stroke markers" d=" M 0 -0.5 L 600 -0.5" stroke-opacity="0.12" stroke-miterlimit="10" stroke-dasharray=""/><path fill="none" stroke="rgb(0,0,0)" class="dcg-svg-major-gridline" paint-order="fill stroke markers" d=" M -0.5 0 L -0.5 400" stroke-opacity="0.31818181818181823" stroke-miterlimit="10" stroke-dasharray=""/><path fill="none" stroke="rgb(0,0,0)" class="dcg-svg-major-gridline" paint-order="fill stroke markers" d=" M 149.5 0 L 149.5 400" stroke-opacity="0.31818181818181823" stroke-miterlimit="10" stroke-dasharray=""/><path fill="none" stroke="rgb(0,0,0)" class="dcg-svg-major-gridline" paint-order="fill stroke markers" d=" M 449.5 0 L 449.5 400" stroke-opacity="0.31818181818181823" stroke-miterlimit="10" stroke-dasharray=""/><path fill="none" stroke="rgb(0,0,0)" class="dcg-svg-major-gridline" paint-order="fill stroke markers" d=" M 0 342.5 L 600 342.5" stroke-opacity="0.31818181818181823" stroke-miterlimit="10" stroke-dasharray=""/><path fill="none" stroke="rgb(0,0,0)" class="dcg-svg-major-gridline" paint-order="fill stroke markers" d=" M 0 56.5 L 600 56.5" stroke-opacity="0.31818181818181823" stroke-miterlimit="10" stroke-dasharray=""/></g></g><g id="axis-260b56c4"><g id="yaxis-260b56c4"><title>Y axis</title><path fill="none" stroke="rgb(0,0,0)" class="dcg-svg-axis-line" paint-order="fill stroke markers" d=" M 299.75 0 L 299.75 400" stroke-opacity="0.9" stroke-miterlimit="10" stroke-width="1.5" stroke-dasharray=""/></g><g id="xaxis-260b56c4"><title>X axis</title><path fill="none" stroke="rgb(0,0,0)" class="dcg-svg-axis-line" paint-order="fill stroke markers" d=" M 0 199.75 L 600 199.75" stroke-opacity="0.9" stroke-miterlimit="10" stroke-width="1.5" stroke-dasharray=""/></g><g><g class="dcg-svg-axis-value"><text fill="none" stroke="#ffffff" font-family="Arial" font-size="14px" font-style="normal" font-weight="normal" text-decoration="normal" x="291.10693359375" y="215.808" text-anchor="middle" stroke-miterlimit="2" stroke-width="3" stroke-dasharray="">0</text><text fill="#000000" stroke="none" font-family="Arial" font-size="14px" font-style="normal" font-weight="normal" text-decoration="normal" x="291.10693359375" y="215.808" text-anchor="middle">0</text></g><g class="dcg-svg-axis-value dcg-svg-offcenter-axis-value"><text fill="none" stroke="#ffffff" font-family="Arial" font-size="14px" font-style="normal" font-weight="normal" text-decoration="normal" x="13.1171875" y="215.808" text-anchor="middle" stroke-miterlimit="2" stroke-width="3" stroke-dasharray="">-10</text><text fill="#000000" stroke="none" font-family="Arial" font-size="14px" font-style="normal" font-weight="normal" text-decoration="normal" x="13.1171875" y="215.808" text-anchor="middle">-10</text></g><g class="dcg-svg-axis-value"><text fill="none" stroke="#ffffff" font-family="Arial" font-size="14px" font-style="normal" font-weight="normal" text-decoration="normal" x="147.6689453125" y="215.808" text-anchor="middle" stroke-miterlimit="2" stroke-width="3" stroke-dasharray="">-5</text><text fill="#000000" stroke="none" font-family="Arial" font-size="14px" font-style="normal" font-weight="normal" text-decoration="normal" x="147.6689453125" y="215.808" text-anchor="middle">-5</text></g><g class="dcg-svg-axis-value"><text fill="none" stroke="#ffffff" font-family="Arial" font-size="14px" font-style="normal" font-weight="normal" text-decoration="normal" x="450" y="215.808" text-anchor="middle" stroke-miterlimit="2" stroke-width="3" stroke-dasharray="">5</text><text fill="#000000" stroke="none" font-family="Arial" font-size="14px" font-style="normal" font-weight="normal" text-decoration="normal" x="450" y="215.808" text-anchor="middle">5</text></g><g class="dcg-svg-axis-value dcg-svg-offcenter-axis-value"><text fill="none" stroke="#ffffff" font-family="Arial" font-size="14px" font-style="normal" font-weight="normal" text-decoration="normal" x="589.2138671875" y="215.808" text-anchor="middle" stroke-miterlimit="2" stroke-width="3" stroke-dasharray="">10</text><text fill="#000000" stroke="none" font-family="Arial" font-size="14px" font-style="normal" font-weight="normal" text-decoration="normal" x="589.2138671875" y="215.808" text-anchor="middle">10</text></g><g class="dcg-svg-axis-value"><text fill="none" stroke="#ffffff" font-family="Arial" font-size="14px" font-style="normal" font-weight="normal" text-decoration="normal" x="288.77587890625" y="346.6651428571428" text-anchor="middle" stroke-miterlimit="2" stroke-width="3" stroke-dasharray="">-5</text><text fill="#000000" stroke="none" font-family="Arial" font-size="14px" font-style="normal" font-weight="normal" text-decoration="normal" x="288.77587890625" y="346.6651428571428" text-anchor="middle">-5</text></g><g class="dcg-svg-axis-value"><text fill="none" stroke="#ffffff" font-family="Arial" font-size="14px" font-style="normal" font-weight="normal" text-decoration="normal" x="291.10693359375" y="60.95085714285717" text-anchor="middle" stroke-miterlimit="2" stroke-width="3" stroke-dasharray="">5</text><text fill="#000000" stroke="none" font-family="Arial" font-size="14px" font-style="normal" font-weight="normal" text-decoration="normal" x="291.10693359375" y="60.95085714285717" text-anchor="middle">5</text></g></g></g></g><g id="expressions-260b56c4"><g id="sketch-260b56c4"><title>Expression 1</title><path fill="#2d70b3" stroke="none" paint-order="stroke fill markers" d="" fill-opacity="0.4"/><g><path fill="none" stroke="#2d70b3" class="dcg-svg-curve" paint-order="fill stroke markers" d=" M -0.5 118.27103915606102 L -0.5 118.27103915606102 L 5.505859375 148.29135180797374 L 10.046875 169.52473111078564 L 14.001953125 186.6041073643347 L 17.517578125 200.4599169764995 L 20.59375 211.42990200463905 L 23.5234375 220.78895465475023 L 26.16015625 228.2485698667409 L 28.650390625 234.41874947861612 L 30.994140625 239.42560161081153 L 33.19140625 243.3998652655685 L 35.2421875 246.4726097675556 L 37.29296875 248.92655662303227 L 39.197265625 250.6503157829981 L 40.955078125 251.76860941604704 L 42.419921875 252.35592750321265 L 43.884765625 252.6327252632194 L 45.203125 252.61912473568665 L 46.521484375 252.3597107005632 L 47.986328125 251.7873994591436 L 49.59765625 250.8187918141915 L 51.35546875 249.36640427606454 L 53.40625 247.1656972404929 L 55.603515625 244.22596035353078 L 57.947265625 240.45897407653004 L 60.4375 235.785220859786 L 63.07421875 230.1380209205933 L 66.00390625 223.0983201291115 L 69.2265625 214.53438607635692 L 73.03515625 203.48324104258066 L 77.576171875 189.29559896322436 L 83.875 168.51196149908117 L 95.154296875 131.21318039170637 L 99.98828125 116.3692447179119 L 103.943359375 105.15269989680638 L 107.458984375 96.04986412533458 L 110.681640625 88.525933118593 L 113.611328125 82.4328111550737 L 116.39453125 77.34782662879655 L 119.03125 73.19296656680211 L 121.521484375 69.88045659189225 L 123.865234375 67.31720532152133 L 126.208984375 65.29827729442769 L 128.259765625 63.98037056262723 L 130.1640625 63.13103047817225 L 131.921875 62.66509681944996 L 133.533203125 62.50363740013506 L 135.14453125 62.593041533499616 L 136.755859375 62.92936858833377 L 138.513671875 63.572342015670756 L 140.41796875 64.58592424247928 L 142.46875 66.0345847583875 L 144.8125 68.12526939511622 L 147.44921875 71.00267639886482 L 150.232421875 74.60224523169865 L 153.30859375 79.19358520508473 L 156.677734375 84.8770165697876 L 160.486328125 92.00144095354767 L 164.880859375 100.94956212699469 L 170.59375 113.36016782210737 L 186.267578125 147.8256669490603 L 190.955078125 157.1717418100323 L 195.056640625 164.6645605180548 L 198.865234375 170.94377559530463 L 202.380859375 176.09484459548426 L 205.75 180.40879944429076 L 208.97265625 183.94078908540487 L 212.048828125 186.7583801420492 L 214.83203125 188.83928830184186 L 217.46875 190.40376887730503 L 219.958984375 191.52472259351325 L 222.302734375 192.27206943117667 L 224.646484375 192.7317843655361 L 226.990234375 192.91661554177153 L 229.333984375 192.84137065581595 L 231.82421875 192.4951608431513 L 234.4609375 191.8537518450756 L 237.390625 190.8437671701911 L 240.61328125 189.42007366207972 L 244.275390625 187.47786897800353 L 248.962890625 184.62810527174852 L 258.044921875 178.62744541228227 L 264.34375 174.6811446757311 L 268.73828125 172.28592151059587 L 272.546875 170.55229299564067 L 275.916015625 169.3363515179255 L 278.9921875 168.5170550112468 L 281.921875 168.0135007126144 L 284.705078125 167.79587718779095 L 287.48828125 167.8377532751554 L 290.271484375 168.13998823704122 L 293.0546875 168.69903740091428 L 295.984375 169.55623759648395 L 299.060546875 170.73750656677862 L 302.4296875 172.33560719002966 L 306.23828125 174.47968915442544 L 310.6328125 177.31678205983337 L 316.4921875 181.51033663350333 L 329.96875 191.29726522650893 L 334.36328125 194.01079600891734 L 338.025390625 195.92031603913304 L 341.248046875 197.27498724898146 L 344.177734375 198.20303440891573 L 346.814453125 198.76620679863927 L 349.451171875 199.05270788697925 L 351.94140625 199.05563329558 L 354.431640625 198.78835575953084 L 356.921875 198.24373813621983 L 359.412109375 197.41759336679317 L 362.048828125 196.23478881220237 L 364.83203125 194.64532457651632 L 367.76171875 192.602418746327 L 370.984375 189.93503335354814 L 374.5 186.55595320480037 L 378.6015625 182.05892690778103 L 383.142578125 176.49649402444854 L 388.708984375 169.07172794215418 L 405.701171875 145.97454824442244 L 409.802734375 141.2176664635955 L 413.46484375 137.5258938825769 L 416.6875 134.80514063909192 L 419.470703125 132.9122332829856 L 421.814453125 131.6807082411031 L 424.01171875 130.85004272323727 L 426.0625 130.37397825372926 L 427.966796875 130.20261272745495 L 429.87109375 130.30175116722796 L 431.775390625 130.67980473023772 L 433.6796875 131.34396344073542 L 435.583984375 132.30013748996993 L 437.634765625 133.6616567715218 L 439.83203125 135.5065340471018 L 442.322265625 138.08304092149643 L 444.958984375 141.37273333061216 L 447.595703125 145.2341402634108 L 450.37890625 149.91745334892408 L 453.30859375 155.4989901726532 L 456.53125 162.37281023220035 L 459.900390625 170.32391978809528 L 463.708984375 180.15914691547007 L 467.95703125 192.0352820275069 L 473.083984375 207.35013598529642 L 480.701171875 231.21608014957835 L 489.783203125 259.4586092133891 L 494.6171875 273.4930538849246 L 498.572265625 284.0711729374067 L 502.087890625 292.5956165783811 L 505.1640625 299.2543174457415 L 507.947265625 304.5538070876254 L 510.583984375 308.8792862390928 L 512.927734375 312.1157207462687 L 515.271484375 314.74699543844645 L 517.46875 316.6396070104774 L 519.373046875 317.8146426356021 L 520.984375 318.4627906397985 L 522.44921875 318.77158758931336 L 523.9140625 318.8096123130438 L 525.37890625 318.57397346299877 L 526.84375 318.06246511329357 L 528.455078125 317.17939894355953 L 530.212890625 315.83212938278575 L 532.1171875 313.9207064021115 L 534.16796875 311.3391788163384 L 536.365234375 307.9774350265325 L 538.708984375 303.7236766314537 L 541.19921875 298.46761654327526 L 543.8359375 292.1044826743357 L 546.619140625 284.5398890411413 L 549.6953125 275.2309163695182 L 553.064453125 263.9928136510207 L 556.7265625 250.68998039012578 L 560.974609375 234.08478482088267 L 566.248046875 212.1963364019988 L 584.265625 136.27047535926386 L 588.3671875 120.90658143502787 L 591.8828125 108.89672015712694 L 594.958984375 99.43991491792082 L 597.7421875 91.84465432246049 L 599.5 87.56064680570512" stroke-linecap="round" stroke-linejoin="round" stroke-miterlimit="10" stroke-width="2.5" stroke-opacity="0.9" stroke-dasharray=""/></g></g></g><g id="labels-260b56c4"/></g></svg>