<svg version="1.1" xmlns="http://www.w3.org/2000/svg" xmlns:xlink="http://www.w3.org/1999/xlink" width="600" height="400"><defs/><g transform="scale(1,1)"><g id="background-74bfa476"><rect fill="white" stroke="none" x="0" y="0" width="600" height="400" class="dcg-svg-background"/></g><g id="background-images-74bfa476"/><g id="graphpaper-74bfa476"><g id="grid-74bfa476"><g><path fill="none" stroke="rgb(0,0,0)" class="dcg-svg-minor-gridline" paint-order="fill stroke markers" d=" M -0.5 0 L -0.5 400" stroke-opacity="0.12" stroke-miterlimit="10" stroke-dasharray=""/><path fill="none" stroke="rgb(0,0,0)" class="dcg-svg-minor-gridline" paint-order="fill stroke markers" d=" M 32.5 0 L 32.5 400" stroke-opacity="0.12" stroke-miterlimit="10" stroke-dasharray=""/><path fill="none" stroke="rgb(0,0,0)" class="dcg-svg-minor-gridline" paint-order="fill stroke markers" d=" M 99.5 0 L 99.5 400" stroke-opacity="0.12" stroke-miterlimit="10" stroke-dasharray=""/><path fill="none" stroke="rgb(0,0,0)" class="dcg-svg-minor-gridline" paint-order="fill stroke markers" d=" M 132.5 0 L 132.5 400" stroke-opacity="0.12" stroke-miterlimit="10" stroke-dasharray=""/><path fill="none" stroke="rgb(0,0,0)" class="dcg-svg-minor-gridline" paint-order="fill stroke markers" d=" M 166.5 0 L 166.5 400" stroke-opacity="0.12" stroke-miterlimit="10" stroke-dasharray=""/><path fill="none" stroke="rgb(0,0,0)" class="dcg-svg-minor-gridline" paint-order="fill stroke markers" d=" M 199.5 0 L 199.5 400" stroke-opacity="0.12" stroke-miterlimit="10" stroke-dasharray=""/><path fill="none" stroke="rgb(0,0,0)" class="dcg-svg-minor-gridline" paint-order="fill stroke markers" d=" M 232.5 0 L 232.5 400" stroke-opacity="0.12" stroke-miterlimit="10" stroke-dasharray=""/><path fill="none" stroke="rgb(0,0,0)" class="dcg-svg-minor-gridline" paint-order="fill stroke markers" d=" M 266.5 0 L 266.5 400" stroke-opacity="0.12" stroke-miterlimit="10" stroke-dasharray=""/><path fill="none" stroke="rgb(0,0,0)" class="dcg-svg-minor-gridline" paint-order="fill stroke markers" d=" M 299.5 0 L 299.5 400" stroke-opacity="0.12" stroke-miterlimit="10" stroke-dasharray=""/><path fill="none" stroke="rgb(0,0,0)" class="dcg-svg-minor-gridline" paint-order="fill stroke markers" d=" M 332.5 0 L 332.5 400" stroke-opacity="0.12" stroke-miterlimit="10" stroke-dasharray=""/><path fill="none" stroke="rgb(0,0,0)" class="dcg-svg-minor-gridline" paint-order="fill stroke markers" d=" M 366.5 0 L 366.5 400" stroke-opacity="0.12" stroke-miterlimit="10" stroke-dasharray=""/><path fill="none" stroke="rgb(0,0,0)" class="dcg-svg-minor-gridline" paint-order="fill stroke markers" d=" M 399.5 0 L 399.5 400" stroke-opacity="0.12" stroke-miterlimit="10" stroke-dasharray=""/><path fill="none" stroke="rgb(0,0,0)" class="dcg-svg-minor-gridline" paint-order="fill stroke markers" d=" M 432.5 0 L 432.5 400" stroke-opacity="0.12" stroke-miterlimit="10" stroke-dasharray=""/><path fill="none" stroke="rgb(0,0,0)" class="dcg-svg-minor-gridline" paint-order="fill stroke markers" d=" M 466.5 0 L 466.5 400" stroke-opacity="0.12" stroke-miterlimit="10" stroke-dasharray=""/><path fill="none" stroke="rgb(0,0,0)" class="dcg-svg-minor-gridline" paint-order="fill stroke markers" d=" M 499.5 0 L 499.5 400" stroke-opacity="0.12" stroke-miterlimit="10" stroke-dasharray=""/><path fill="none" stroke="rgb(0,0,0)" class="dcg-svg-minor-gridline" paint-order="fill stroke markers" d=" M 532.5 0 L 532.5 400" stroke-opacity="0.12" stroke-miterlimit="10" stroke-dasharray=""/><path fill="none" stroke="rgb(0,0,0)" class="dcg-svg-minor-gridline" paint-order="fill stroke markers" d=" M 566.5 0 L 566.5 400" stroke-opacity="0.12" stroke-miterlimit="10" stroke-dasharray=""/><path fill="none" stroke="rgb(0,0,0)" class="dcg-svg-minor-gridline" paint-order="fill stroke markers" d=" M 0 366.5 L 600 366.5" stroke-opacity="0.12" stroke-miterlimit="10" stroke-dasharray=""/><path fill="none" stroke="rgb(0,0,0)" class="dcg-svg-minor-gridline" paint-order="fill stroke markers" d=" M 0 332.5 L 600 332.5" stroke-opacity="0.12" stroke-miterlimit="10" stroke-dasharray=""/><path fill="none" stroke="rgb(0,0,0)" class="dcg-svg-minor-gridline" paint-order="fill stroke markers" d=" M 0 299.5 L 600 299.5" stroke-opacity="0.12" stroke-miterlimit="10" stroke-dasharray=""/><path fill="none" stroke="rgb(0,0,0)" class="dcg-svg-minor-gridline" paint-order="fill stroke markers" d=" M 0 266.5 L 600 266.5" stroke-opacity="0.12" stroke-miterlimit="10" stroke-dasharray=""/><path fill="none" stroke="rgb(0,0,0)" class="dcg-svg-minor-gridline" paint-order="fill stroke markers" d=" M 0 232.5 L 600 232.5" stroke-opacity="0.12" stroke-miterlimit="10" stroke-dasharray=""/><path fill="none" stroke="rgb(0,0,0)" class="dcg-svg-minor-gridline" paint-order="fill stroke markers" d=" M 0 166.5 L 600 166.5" stroke-opacity="0.12" stroke-miterlimit="10" stroke-dasharray=""/><path fill="none" stroke="rgb(0,0,0)" class="dcg-svg-minor-gridline" paint-order="fill stroke markers" d=" M 0 132.5 L 600 132.5" stroke-opacity="0.12" stroke-miterlimit="10" stroke-dasharray=""/><path fill="none" stroke="rgb(0,0,0)" class="dcg-svg-minor-gridline" paint-order="fill stroke markers" d=" M 0 99.5 L 600 99.5" stroke-opacity="0.12" stroke-miterlimit="10" stroke-dasharray=""/><path fill="none" stroke="rgb(0,0,0)" class="dcg-svg-minor-gridline" paint-order="fill stroke markers" d=" M 0 66.5 L 600 66.5" stroke-opacity="0.12" stroke-miterlimit="10" stroke-dasharray=""/><path fill="none" stroke="rgb(0,0,0)" class="dcg-svg-minor-gridline" paint-order="fill stroke markers" d=" M 0 32.5 L 600 32.5" stroke-opacity="0.12" stroke-miterlimit="10" stroke-dasharray=""/><path fill="none" stroke="rgb(0,0,0)" class="dcg-svg-minor-gridline" paint-order="fill stroke markers" d=" M 0 -0.5 L 600 -0.5" stroke-opacity="0.12" stroke-miterlimit="10" stroke-dasharray=""/><path fill="none" stroke="rgb(0,0,0)" class="dcg-svg-major-gridline" paint-order="fill stroke markers" d=" M 199.5 0 L 199.5 400" stroke-opacity="0.31818181818181823" stroke-miterlimit="10" stroke-dasharray=""/><path fill="none" stroke="rgb(0,0,0)" class="dcg-svg-major-gridline" paint-order="fill stroke markers" d=" M 332.5 0 L 332.5 400" stroke-opacity="0.31818181818181823" stroke-miterlimit="10" stroke-dasharray=""/><path fill="none" stroke="rgb(0,0,0)" class="dcg-svg-major-gridline" paint-order="fill stroke markers" d=" M 466.5 0 L 466.5 400" stroke-opacity="0.31818181818181823" stroke-miterlimit="10" stroke-dasharray=""/><path fill="none" stroke="rgb(0,0,0)" class="dcg-svg-major-gridline" paint-order="fill stroke markers" d=" M 0 332.5 L 600 332.5" stroke-opacity="0.31818181818181823" stroke-miterlimit="10" stroke-dasharray=""/><path fill="none" stroke="rgb(0,0,0)" class="dcg-svg-major-gridline" paint-order="fill stroke markers" d=" M 0 66.5 L 600 66.5" stroke-opacity="0.31818181818181823" stroke-miterlimit="10" stroke-dasharray=""/></g></g><g id="axis-74bfa476"><g id="yaxis-74bfa476"><title>Y axis</title><path fill="none" stroke="rgb(0,0,0)" class="dcg-svg-axis-line" paint-order="fill stroke markers" d=" M 66.75 0 L 66.75 400" stroke-opacity="0.9" stroke-miterlimit="10" stroke-width="1.5" stroke-dasharray=""/></g><g id="xaxis-74bfa476"><title>X axis</title><path fill="none" stroke="rgb(0,0,0)" class="dcg-svg-axis-line" paint-order="fill stroke markers" d=" M 0 199.75 L 600 199.75" stroke-opacity="0.9" stroke-miterlimit="10" stroke-width="1.5" stroke-dasharray=""/></g><g><g class="dcg-svg-axis-value"><text fill="none" stroke="#ffffff" font-family="Arial" font-size="14px" font-style="normal" font-weight="normal" text-decoration="normal" x="57.77360026041667" y="215.808" text-anchor="middle" stroke-miterlimit="2" stroke-width="3" stroke-dasharray="">0</text><text fill="#000000" stroke="none" font-family="Arial" font-size="14px" font-style="normal" font-weight="normal" text-decoration="normal" x="57.77360026041667" y="215.808" text-anchor="middle">0</text></g><g class="dcg-svg-axis-value"><text fill="none" stroke="#ffffff" font-family="Arial" font-size="14px" font-style="normal" font-weight="normal" text-decoration="normal" x="200" y="215.808" text-anchor="middle" stroke-miterlimit="2" stroke-width="3" stroke-dasharray="">2</text><text fill="#000000" stroke="none" font-family="Arial" font-size="14px" font-style="normal" font-weight="normal" text-decoration="normal" x="200" y="215.808" text-anchor="middle">2</text></g><g class="dcg-svg-axis-value"><text fill="none" stroke="#ffffff" font-family="Arial" font-size="14px" font-style="normal" font-weight="normal" text-decoration="normal" x="333.33333333333337" y="215.808" text-anchor="middle" stroke-miterlimit="2" stroke-width="3" stroke-dasharray="">4</text><text fill="#000000" stroke="none" font-family="Arial" font-size="14px" font-style="normal" font-weight="normal" text-decoration="normal" x="333.33333333333337" y="215.808" text-anchor="middle">4</text></g><g class="dcg-svg-axis-value"><text fill="none" stroke="#ffffff" font-family="Arial" font-size="14px" font-style="normal" font-weight="normal" text-decoration="normal" x="466.6666666666667" y="215.808" text-anchor="middle" stroke-miterlimit="2" stroke-width="3" stroke-dasharray="">6</text><text fill="#000000" stroke="none" font-family="Arial" font-size="14px" font-style="normal" font-weight="normal" text-decoration="normal" x="466.6666666666667" y="215.808" text-anchor="middle">6</text></g><g class="dcg-svg-axis-value dcg-svg-offcenter-axis-value"><text fill="none" stroke="#ffffff" font-family="Arial" font-size="14px" font-style="normal" font-weight="normal" text-decoration="normal" x="593.10693359375" y="215.808" text-anchor="middle" stroke-miterlimit="2" stroke-width="3" stroke-dasharray="">8</text><text fill="#000000" stroke="none" font-family="Arial" font-size="14px" font-style="normal" font-weight="normal" text-decoration="normal" x="593.10693359375" y="215.808" text-anchor="middle">8</text></g><g class="dcg-svg-axis-value"><text fill="none" stroke="#ffffff" font-family="Arial" font-size="14px" font-style="normal" font-weight="normal" text-decoration="normal" x="55.44254557291667" y="337.14133333333336" text-anchor="middle" stroke-miterlimit="2" stroke-width="3" stroke-dasharray="">-2</text><text fill="#000000" stroke="none" font-family="Arial" font-size="14px" font-style="normal" font-weight="normal" text-decoration="normal" x="55.44254557291667" y="337.14133333333336" text-anchor="middle">-2</text></g><g class="dcg-svg-axis-value"><text fill="none" stroke="#ffffff" font-family="Arial" font-size="14px" font-style="normal" font-weight="normal" text-decoration="normal" x="57.77360026041667" y="70.47466666666666" text-anchor="middle" stroke-miterlimit="2" stroke-width="3" stroke-dasharray="">2</text><text fill="#000000" stroke="none" font-family="Arial" font-size="14px" font-style="normal" font-weight="normal" text-decoration="normal" x="57.77360026041667" y="70.47466666666666" text-anchor="middle">2</text></g></g></g></g><g id="expressions-74bfa476"><g id="sketch-74bfa476"><title>Expression 1</title><path fill="#2d70b3" stroke="none" paint-order="stroke fill markers" d="" fill-opacity="0.4"/><g><path fill="none" stroke="#2d70b3" class="dcg-svg-curve" paint-order="fill stroke markers" d=" M 66.16666666666667 199.5 L 66.16666666666667 199.5 L 85.20662214296846 180.71782954390466 L 95.31244466500554 171.27383881418487 L 103.66073283538401 163.95150814501497 L 110.98379263396163 157.9831064720798 L 117.57454645268146 153.0374954229804 L 123.57945548751512 148.92535863175314 L 129.29144213040564 145.39387942328628 L 134.56404518538153 142.48583454964233 L 139.54372584841428 140.06635490165723 L 144.37694531547552 138.03489173134523 L 149.06370358656517 136.37328656516405 L 153.60400066168327 135.06093170726757 L 157.99783654082987 134.07532492403908 L 162.2452112240049 133.3925785912557 L 166.4925859071799 132.97807438105826 L 170.73996059035488 132.83349421488305 L 174.84087407755834 132.95058164621588 L 179.08824876073336 133.33722203415283 L 183.3356234439084 133.9923291633351 L 187.58299812708339 134.91324482500033 L 191.97683400622992 136.14164421660092 L 196.51713108134808 137.6999426901466 L 201.20388935243773 139.608960743899 L 206.03710881949897 141.88741082554344 L 211.1632506785033 144.63440894042287 L 216.43585373347915 147.79797214935817 L 222.14784037636971 151.58925416163183 L 228.2992106071749 156.06441441723547 L 234.88996442589476 161.26823641628258 L 242.21302422447235 167.48581388326178 L 250.5613123948508 175.0400901571665 L 260.6671349168879 184.6856702438473 L 275.89909929792935 199.79292144942747 L 294.646132382288 218.2821704560953 L 304.7519549043251 227.7261611858151 L 313.1002430747036 235.04849185498503 L 320.4233028732811 241.01689352792013 L 327.014056692001 245.96250457701953 L 333.01896572683467 250.0746413682468 L 338.73095236972523 253.6061205767137 L 344.00355542470106 256.5141654503576 L 348.9832360877338 258.9336450983427 L 353.8164555547951 260.9651082686547 L 358.5032138258847 262.6267134348359 L 363.04351090100283 263.9390682927324 L 367.4373467801494 264.92467507596086 L 371.6847214633244 265.60742140874424 L 375.9320961464994 266.02192561894174 L 380.1794708296744 266.1665057851169 L 384.2803843168779 266.04941835378406 L 388.5277590000529 265.6627779658471 L 392.7751336832279 265.00767083666483 L 397.022508366403 264.08675517499967 L 401.4163442455495 262.858355783399 L 405.9566413206676 261.3000573098534 L 410.64339959175726 259.391039256101 L 415.4766190588185 257.1125891744565 L 420.6027609178228 254.3655910595771 L 425.8753639727987 251.2020278506418 L 431.5873506156893 247.41074583836814 L 437.7387208464944 242.9355855827645 L 444.32947466521426 237.73176358371748 L 451.6525344637919 231.5141861167382 L 460.0008226341704 223.95990984283347 L 470.10664515620743 214.31432975615266 L 485.0456871453058 199.5" stroke-linecap="round" stroke-linejoin="round" stroke-miterlimit="10" stroke-width="2.5" stroke-opacity="0.9" stroke-dasharray=""/></g></g><g id="sketch-74bfa476"><title>Expression 2</title><path fill="#388c46" stroke="none" class="dcg-svg-region" paint-order="stroke fill markers" d=" M -0.5 255.59806565385975 L 4.7734375 252.57637269395565 L 10.33984375 249.0271180388599 L 16.19921875 244.91876058829033 L 22.64453125 239.99590066668227 L 29.675781250000004 234.19583648058045 L 37.5859375 227.21324951591265 L 46.814453125 218.58157275293382 L 58.97265625000001 206.68005664564947 L 88.416015625 177.66138842234884 L 97.791015625 169.04840915803183 L 105.70117187500001 162.24227236827488 L 112.73242187500001 156.62938469629205 L 119.17773437500001 151.9013431126566 L 125.03710937500001 147.98781217239633 L 130.603515625 144.63786145074408 L 135.876953125 141.8164836231731 L 140.857421875 139.48281281754493 L 145.69140625 137.53785268225175 L 150.232421875 136.00723238385416 L 154.626953125 134.80630169339042 L 159.021484375 133.88637490350885 L 163.26953125 133.26798785986358 L 167.517578125 132.91843352916794 L 171.619140625 132.83735986952428 L 175.720703125 133.00853361212654 L 179.96875 133.4510422020747 L 184.216796875 134.16164049575627 L 188.46484375 135.13744420714494 L 192.859375 136.42175129955973 L 197.400390625 138.03663152027758 L 202.08789062500003 140.00251080911272 L 206.92187500000003 142.3376571003223 L 212.04882812500003 145.14230007470326 L 217.46875000000003 148.45622934132848 L 223.18164062500003 152.31384947964682 L 229.33398437500003 156.85461473173467 L 236.07226562500003 162.24276488877862 L 243.54296875000003 168.65867016252565 L 252.03906250000003 176.4206796136209 L 262.5859375 186.56237577603392 L 280.75 204.63872086362184 L 295.837890625 219.42259223461627 L 305.65234375 228.53926611860854 L 313.85546875 235.68509695183164 L 321.033203125 241.49234654416367 L 327.478515625 246.29445257371057 L 333.484375 250.37663636441602 L 339.05078125 253.79234922133708 L 344.32421875 256.67969788203277 L 349.3046875 259.07857481867427 L 354.138671875 261.0891666953937 L 358.826171875 262.72981175985433 L 363.3671875 264.0212805302366 L 367.76171875 264.98622092592234 L 372.009765625 265.6486492383226 L 376.2578125 266.0425832039851 L 380.505859375 266.1664238629312 L 384.607421875 266.0292302495899 L 388.85546875 265.6217631130727 L 393.103515625 264.9459107593725 L 397.3515625 264.0044164423316 L 401.74609375000006 262.75499423154815 L 406.28710937500006 261.175353456514 L 410.97460937500006 259.2448173168142 L 415.80859375000006 256.9448366525809 L 420.93554687500006 254.1758643062855 L 426.35546875000006 250.89759473076262 L 432.06835937500006 247.07502722680331 L 438.22070312500006 242.56881239123484 L 444.81250000000006 237.3350585498919 L 452.13671875000006 231.08864228903215 L 460.48632812500006 223.5076184246179 L 470.74023437500006 213.69592199177424 L 486.70703125000006 197.8388278430832 L 504.28515625000006 180.5264820141986 L 514.24609375 171.2243577074606 L 522.44921875 164.0281306039028 L 529.7734375 158.05307286390354 L 536.365234375 153.10088227462236 L 542.37109375 148.98233452553168 L 548.083984375 145.44444766800066 L 553.357421875 142.53026883639967 L 558.337890625 140.10484364398724 L 563.171875 138.06750440383348 L 567.859375 136.40013479810796 L 572.400390625 135.08216290894728 L 576.794921875 134.0911162626528 L 581.04296875 133.40313138536754 L 585.291015625 132.98343067963293 L 589.5390625 132.8337176914489 L 593.640625 132.9459294335706 L 597.888671875 133.32762276242045 L 599.5 133.54278355844122 L 599.5 399.5 L -0.5 399.5 L -0.5 255.59806565385975" fill-opacity="0.4"/><path fill="#388c46" stroke="none" paint-order="stroke fill markers" d="" fill-opacity="0.4"/><path fill="#388c46" stroke="none" paint-order="stroke fill markers" d="" fill-opacity="0.4"/><path fill="#388c46" stroke="none" paint-order="stroke fill markers" d="" fill-opacity="0.4"/><path fill="#388c46" stroke="none" paint-order="stroke fill markers" d="" fill-opacity="0.4"/><g><path fill="none" stroke="#388c46" class="dcg-svg-curve" paint-order="fill stroke markers" d=" M -0.5 255.59806565385975 L 4.7734375 252.57637269395565 M 4.7734375 252.57637269395565 L 8.923735509592747 249.93005766249675 M 14.696206546806822 245.97261213103775 L 16.19921875 244.91876058829033 M 16.19921875 244.91876058829033 L 22.64453125 239.99590066668227 M 22.64453125 239.99590066668227 L 23.45764727499838 239.32516286959947 M 28.857530543949142 234.87080986588435 L 29.675781250000004 234.19583648058045 M 29.675781250000004 234.19583648058045 L 37.127211295800976 227.6181840725204 M 42.2513620630853 222.84955350812547 L 46.814453125 218.58157275293382 M 46.814453125 218.58157275293382 L 50.210282637448046 215.25743684037545 M 55.21255302461883 210.36077563363116 L 58.97265625000001 206.68005664564947 M 58.97265625000001 206.68005664564947 L 63.05957582614727 202.65208681635653 M 68.04514865984868 197.73842590824958 L 75.87962025566517 190.01695876693864 M 80.86519308936658 185.10329785883167 L 88.416015625 177.66138842234884 M 88.416015625 177.66138842234884 L 88.709293212759 177.39194908559608 M 93.86410237490098 172.65613421359177 L 97.791015625 169.04840915803183 M 97.791015625 169.04840915803183 L 102.08706172301478 165.35196164497668 M 107.44568870824348 160.84966408000767 L 112.73242187500001 156.62938469629205 M 112.73242187500001 156.62938469629205 L 116.14746647584919 154.12423496417517 M 121.87356064111094 150.1007757309834 L 125.03710937500001 147.98781217239633 M 125.03710937500001 147.98781217239633 L 130.603515625 144.63786145074408 M 130.603515625 144.63786145074408 L 131.219858179347 144.30810780959007 M 137.43288244795 141.0874303916697 L 140.857421875 139.48281281754493 M 140.857421875 139.48281281754493 L 145.69140625 137.53785268225175 M 145.69140625 137.53785268225175 L 147.5938168786802 136.89661544269805 M 154.29884921890556 134.89596542043523 L 154.626953125 134.80630169339042 M 154.626953125 134.80630169339042 L 159.021484375 133.88637490350885 M 159.021484375 133.88637490350885 L 163.26953125 133.26798785986358 M 163.26953125 133.26798785986358 L 165.14046776006796 133.11403617835091 M 172.13118674950812 132.8587294942751 L 175.720703125 133.00853361212654 M 175.720703125 133.00853361212654 L 179.96875 133.4510422020747 M 179.96875 133.4510422020747 L 183.06209729273118 133.96848642353925 M 189.87637507478098 135.549965950296 L 192.859375 136.42175129955973 M 192.859375 136.42175129955973 L 197.400390625 138.03663152027758 M 197.400390625 138.03663152027758 L 200.23389900082432 139.22496974550936 M 206.5807046931315 142.17284842181786 L 206.92187500000003 142.3376571003223 M 206.92187500000003 142.3376571003223 L 212.04882812500003 145.14230007470326 M 212.04882812500003 145.14230007470326 L 216.12450901030218 147.6343135167287 M 221.9642351911337 151.4917984329088 L 223.18164062500003 152.31384947964682 M 223.18164062500003 152.31384947964682 L 229.33398437500003 156.85461473173467 M 229.33398437500003 156.85461473173467 L 230.80577942021273 158.03151020548762 M 236.26709370243788 162.41008494802773 L 243.54296875000003 168.65867016252565 M 243.54296875000003 168.65867016252565 L 244.5833658670677 169.60917429927338 M 249.75133857683423 174.33062090715833 L 252.03906250000003 176.4206796136209 M 252.03906250000003 176.4206796136209 L 257.7344441128546 181.89726199907298 M 262.7769295367 186.7524454790186 L 270.5739078268266 194.51177080686085 M 275.5356212841799 199.449523288215 L 280.75 204.63872086362184 M 280.75 204.63872086362184 L 283.3524573968762 207.18873904443768 M 288.35232188099263 212.08785683649688 L 295.837890625 219.42259223461627 M 295.837890625 219.42259223461627 L 296.21882144301725 219.77643997284423 M 301.3475281444393 224.5405104562427 L 305.65234375 228.53926611860854 M 305.65234375 228.53926611860854 L 309.5163621174763 231.90525427439707 M 314.8236915801807 236.46845160694917 L 321.033203125 241.49234654416367 M 321.033203125 241.49234654416367 L 323.44905671116345 243.2922879857335 M 329.1120131391083 247.40474115322806 L 333.484375 250.37663636441602 M 333.484375 250.37663636441602 L 338.3539233409216 253.36473642906446 M 344.4776088055182 256.7535792544423 L 349.3046875 259.07857481867427 M 349.3046875 259.07857481867427 L 354.138671875 261.0891666953937 M 354.138671875 261.0891666953937 L 354.52256646172697 261.22353144397755 M 361.1734930742692 263.3973919386634 L 363.3671875 264.0212805302366 M 363.3671875 264.0212805302366 L 367.76171875 264.98622092592234 M 367.76171875 264.98622092592234 L 371.93141664430834 265.6364317217591 M 378.91111632139706 266.11993331411685 L 380.505859375 266.1664238629312 M 380.505859375 266.1664238629312 L 384.607421875 266.0292302495899 M 384.607421875 266.0292302495899 L 388.85546875 265.6217631130727 M 388.85546875 265.6217631130727 L 389.8758150698016 265.45942887286327 M 396.7468142188699 264.1384467594816 L 397.3515625 264.0044164423316 M 397.3515625 264.0044164423316 L 401.74609375000006 262.75499423154815 M 401.74609375000006 262.75499423154815 L 406.28710937500006 261.175353456514 M 406.28710937500006 261.175353456514 L 407.21542609630797 260.79302834087184 M 413.62444726411354 257.9840404016398 L 415.80859375000006 256.9448366525809 M 415.80859375000006 256.9448366525809 L 420.93554687500006 254.1758643062855 M 420.93554687500006 254.1758643062855 L 423.292296510444 252.750371318529 M 429.1979368677141 248.99566329691618 L 432.06835937500006 247.07502722680331 M 432.06835937500006 247.07502722680331 L 438.15631504886363 242.61597271187193 M 443.6403412872807 238.26572893942182 L 444.81250000000006 237.3350585498919 M 444.81250000000006 237.3350585498919 L 452.04328199559507 231.16832926753446 M 457.2283244066464 226.46572135253956 L 460.48632812500006 223.5076184246179 M 460.48632812500006 223.5076184246179 L 465.2545178973475 218.94506153753272 M 470.3121208579504 214.10557269129066 L 470.74023437500006 213.69592199177424 M 470.74023437500006 213.69592199177424 L 478.12474974091333 206.362143256035 M 483.09153037660906 201.42948777274023 L 486.70703125000006 197.8388278430832 M 486.70703125000006 197.8388278430832 L 490.91378572115195 193.69567900202148 M 495.90109333750166 188.78377888700487 L 503.73829102033693 181.06507870626447 M 508.84021696211033 176.27269154831237 L 514.24609375 171.2243577074606 M 514.24609375 171.2243577074606 L 516.954926201703 168.84802265125435 M 522.2170798977347 164.23177542224465 L 522.44921875 164.0281306039028 M 522.44921875 164.0281306039028 L 529.7734375 158.05307286390354 M 529.7734375 158.05307286390354 L 530.7639728496314 157.30891767681052 M 536.3605710038436 153.10438570520327 L 536.365234375 153.10088227462236 M 536.365234375 153.10088227462236 L 542.37109375 148.98233452553168 M 542.37109375 148.98233452553168 L 545.5267829886204 147.02807490170642 M 551.5781059959496 143.51354486260843 L 553.357421875 142.53026883639967 M 553.357421875 142.53026883639967 L 558.337890625 140.10484364398724 M 558.337890625 140.10484364398724 L 561.496258770218 138.77371245738627 M 568.0576212812578 136.34259634252768 L 572.400390625 135.08216290894728 M 572.400390625 135.08216290894728 L 576.794921875 134.0911162626528 M 576.794921875 134.0911162626528 L 578.742664890544 133.77567300626637 M 585.6917616422887 132.96930727527405 L 589.5390625 132.8337176914489 M 589.5390625 132.8337176914489 L 593.640625 132.9459294335706 M 593.640625 132.9459294335706 L 596.6756118962492 133.218627519428" stroke-linecap="round" stroke-linejoin="round" stroke-miterlimit="10" stroke-width="2.5" stroke-opacity="0.9" stroke-dasharray=""/></g></g></g><g id="labels-74bfa476"/></g></svg>