<svg version="1.1" xmlns="http://www.w3.org/2000/svg" xmlns:xlink="http://www.w3.org/1999/xlink" width="600" height="400"><defs/><g transform="scale(1,1)"><g id="background-8bd2a1ac"><rect fill="white" stroke="none" x="0" y="0" width="600" height="400" class="dcg-svg-background"/></g><g id="background-images-8bd2a1ac"/><g id="graphpaper-8bd2a1ac"><g id="grid-8bd2a1ac"><g><path fill="none" stroke="rgb(0,0,0)" class="dcg-svg-minor-gridline" paint-order="fill stroke markers" d=" M -0.5 0 L -0.5 400" stroke-opacity="0.12" stroke-miterlimit="10" stroke-dasharray=""/><path fill="none" stroke="rgb(0,0,0)" class="dcg-svg-minor-gridline" paint-order="fill stroke markers" d=" M 42.5 0 L 42.5 400" stroke-opacity="0.12" stroke-miterlimit="10" stroke-dasharray=""/><path fill="none" stroke="rgb(0,0,0)" class="dcg-svg-minor-gridline" paint-order="fill stroke markers" d=" M 128.5 0 L 128.5 400" stroke-opacity="0.12" stroke-miterlimit="10" stroke-dasharray=""/><path fill="none" stroke="rgb(0,0,0)" class="dcg-svg-minor-gridline" paint-order="fill stroke markers" d=" M 170.5 0 L 170.5 400" stroke-opacity="0.12" stroke-miterlimit="10" stroke-dasharray=""/><path fill="none" stroke="rgb(0,0,0)" class="dcg-svg-minor-gridline" paint-order="fill stroke markers" d=" M 213.5 0 L 213.5 400" stroke-opacity="0.12" stroke-miterlimit="10" stroke-dasharray=""/><path fill="none" stroke="rgb(0,0,0)" class="dcg-svg-minor-gridline" paint-order="fill stroke markers" d=" M 256.5 0 L 256.5 400" stroke-opacity="0.12" stroke-miterlimit="10" stroke-dasharray=""/><path fill="none" stroke="rgb(0,0,0)" class="dcg-svg-minor-gridline" paint-order="fill stroke markers" d=" M 299.5 0 L 299.5 400" stroke-opacity="0.12" stroke-miterlimit="10" stroke-dasharray=""/><path fill="none" stroke="rgb(0,0,0)" class="dcg-svg-minor-gridline" paint-order="fill stroke markers" d=" M 342.5 0 L 342.5 400" stroke-opacity="0.12" stroke-miterlimit="10" stroke-dasharray=""/><path fill="none" stroke="rgb(0,0,0)" class="dcg-svg-minor-gridline" paint-order="fill stroke markers" d=" M 385.5 0 L 385.5 400" stroke-opacity="0.12" stroke-miterlimit="10" stroke-dasharray=""/><path fill="none" stroke="rgb(0,0,0)" class="dcg-svg-minor-gridline" paint-order="fill stroke markers" d=" M 428.5 0 L 428.5 400" stroke-opacity="0.12" stroke-miterlimit="10" stroke-dasharray=""/><path fill="none" stroke="rgb(0,0,0)" class="dcg-svg-minor-gridline" paint-order="fill stroke markers" d=" M 470.5 0 L 470.5 400" stroke-opacity="0.12" stroke-miterlimit="10" stroke-dasharray=""/><path fill="none" stroke="rgb(0,0,0)" class="dcg-svg-minor-gridline" paint-order="fill stroke markers" d=" M 513.5 0 L 513.5 400" stroke-opacity="0.12" stroke-miterlimit="10" stroke-dasharray=""/><path fill="none" stroke="rgb(0,0,0)" class="dcg-svg-minor-gridline" paint-order="fill stroke markers" d=" M 556.5 0 L 556.5 400" stroke-opacity="0.12" stroke-miterlimit="10" stroke-dasharray=""/><path fill="none" stroke="rgb(0,0,0)" class="dcg-svg-minor-gridline" paint-order="fill stroke markers" d=" M 0 366.5 L 600 366.5" stroke-opacity="0.12" stroke-miterlimit="10" stroke-dasharray=""/><path fill="none" stroke="rgb(0,0,0)" class="dcg-svg-minor-gridline" paint-order="fill stroke markers" d=" M 0 299.5 L 600 299.5" stroke-opacity="0.12" stroke-miterlimit="10" stroke-dasharray=""/><path fill="none" stroke="rgb(0,0,0)" class="dcg-svg-minor-gridline" paint-order="fill stroke markers" d=" M 0 266.5 L 600 266.5" stroke-opacity="0.12" stroke-miterlimit="10" stroke-dasharray=""/><path fill="none" stroke="rgb(0,0,0)" class="dcg-svg-minor-gridline" paint-order="fill stroke markers" d=" M 0 232.5 L 600 232.5" stroke-opacity="0.12" stroke-miterlimit="10" stroke-dasharray=""/><path fill="none" stroke="rgb(0,0,0)" class="dcg-svg-minor-gridline" paint-order="fill stroke markers" d=" M 0 199.5 L 600 199.5" stroke-opacity="0.12" stroke-miterlimit="10" stroke-dasharray=""/><path fill="none" stroke="rgb(0,0,0)" class="dcg-svg-minor-gridline" paint-order="fill stroke markers" d=" M 0 166.5 L 600 166.5" stroke-opacity="0.12" stroke-miterlimit="10" stroke-dasharray=""/><path fill="none" stroke="rgb(0,0,0)" class="dcg-svg-minor-gridline" paint-order="fill stroke markers" d=" M 0 132.5 L 600 132.5" stroke-opacity="0.12" stroke-miterlimit="10" stroke-dasharray=""/><path fill="none" stroke="rgb(0,0,0)" class="dcg-svg-minor-gridline" paint-order="fill stroke markers" d=" M 0 99.5 L 600 99.5" stroke-opacity="0.12" stroke-miterlimit="10" stroke-dasharray=""/><path fill="none" stroke="rgb(0,0,0)" class="dcg-svg-minor-gridline" paint-order="fill stroke markers" d=" M 0 66.5 L 600 66.5" stroke-opacity="0.12" stroke-miterlimit="10" stroke-dasharray=""/><path fill="none" stroke="rgb(0,0,0)" class="dcg-svg-minor-gridline" paint-order="fill stroke markers" d=" M 0 32.5 L 600 32.5" stroke-opacity="0.12" stroke-miterlimit="10" stroke-dasharray=""/><path fill="none" stroke="rgb(0,0,0)" class="dcg-svg-minor-gridline" paint-order="fill stroke markers" d=" M 0 -0.5 L 600 -0.5" stroke-opacity="0.12" stroke-miterlimit="10" stroke-dasharray=""/><path fill="none" stroke="rgb(0,0,0)" class="dcg-svg-major-gridline" paint-order="fill stroke markers" d=" M 256.5 0 L 256.5 400" stroke-opacity="0.31818181818181823" stroke-miterlimit="10" stroke-dasharray=""/><path fill="none" stroke="rgb(0,0,0)" class="dcg-svg-major-gridline" paint-order="fill stroke markers" d=" M 428.5 0 L 428.5 400" stroke-opacity="0.31818181818181823" stroke-miterlimit="10" stroke-dasharray=""/><path fill="none" stroke="rgb(0,0,0)" class="dcg-svg-major-gridline" paint-order="fill stroke markers" d=" M 0 199.5 L 600 199.5" stroke-opacity="0.31818181818181823" stroke-miterlimit="10" stroke-dasharray=""/><path fill="none" stroke="rgb(0,0,0)" class="dcg-svg-major-gridline" paint-order="fill stroke markers" d=" M 0 66.5 L 600 66.5" stroke-opacity="0.31818181818181823" stroke-miterlimit="10" stroke-dasharray=""/></g></g><g id="axis-8bd2a1ac"><g id="yaxis-8bd2a1ac"><title>Y axis</title><path fill="none" stroke="rgb(0,0,0)" class="dcg-svg-axis-line" paint-order="fill stroke markers" d=" M 85.75 0 L 85.75 400" stroke-opacity="0.9" stroke-miterlimit="10" stroke-width="1.5" stroke-dasharray=""/></g><g id="xaxis-8bd2a1ac"><title>X axis</title><path fill="none" stroke="rgb(0,0,0)" class="dcg-svg-axis-line" paint-order="fill stroke markers" d=" M 0 332.75 L 600 332.75" stroke-opacity="0.9" stroke-miterlimit="10" stroke-width="1.5" stroke-dasharray=""/></g><g><g class="dcg-svg-axis-value"><text fill="none" stroke="#ffffff" font-family="Arial" font-size="14px" font-style="normal" font-weight="normal" text-decoration="normal" x="76.82121930803571" y="349.1413333333333" text-anchor="middle" stroke-miterlimit="2" stroke-width="3" stroke-dasharray="">0</text><text fill="#000000" stroke="none" font-family="Arial" font-size="14px" font-style="normal" font-weight="normal" text-decoration="normal" x="76.82121930803571" y="349.1413333333333" text-anchor="middle">0</text></g><g class="dcg-svg-axis-value"><text fill="none" stroke="#ffffff" font-family="Arial" font-size="14px" font-style="normal" font-weight="normal" text-decoration="normal" x="257.1428571428571" y="349.1413333333333" text-anchor="middle" stroke-miterlimit="2" stroke-width="3" stroke-dasharray="">2</text><text fill="#000000" stroke="none" font-family="Arial" font-size="14px" font-style="normal" font-weight="normal" text-decoration="normal" x="257.1428571428571" y="349.1413333333333" text-anchor="middle">2</text></g><g class="dcg-svg-axis-value"><text fill="none" stroke="#ffffff" font-family="Arial" font-size="14px" font-style="normal" font-weight="normal" text-decoration="normal" x="428.57142857142856" y="349.1413333333333" text-anchor="middle" stroke-miterlimit="2" stroke-width="3" stroke-dasharray="">4</text><text fill="#000000" stroke="none" font-family="Arial" font-size="14px" font-style="normal" font-weight="normal" text-decoration="normal" x="428.57142857142856" y="349.1413333333333" text-anchor="middle">4</text></g><g class="dcg-svg-axis-value dcg-svg-offcenter-axis-value"><text fill="none" stroke="#ffffff" font-family="Arial" font-size="14px" font-style="normal" font-weight="normal" text-decoration="normal" x="593.10693359375" y="349.1413333333333" text-anchor="middle" stroke-miterlimit="2" stroke-width="3" stroke-dasharray="">6</text><text fill="#000000" stroke="none" font-family="Arial" font-size="14px" font-style="normal" font-weight="normal" text-decoration="normal" x="593.10693359375" y="349.1413333333333" text-anchor="middle">6</text></g><g class="dcg-svg-axis-value"><text fill="none" stroke="#ffffff" font-family="Arial" font-size="14px" font-style="normal" font-weight="normal" text-decoration="normal" x="76.82121930803571" y="203.80799999999996" text-anchor="middle" stroke-miterlimit="2" stroke-width="3" stroke-dasharray="">2</text><text fill="#000000" stroke="none" font-family="Arial" font-size="14px" font-style="normal" font-weight="normal" text-decoration="normal" x="76.82121930803571" y="203.80799999999996" text-anchor="middle">2</text></g><g class="dcg-svg-axis-value"><text fill="none" stroke="#ffffff" font-family="Arial" font-size="14px" font-style="normal" font-weight="normal" text-decoration="normal" x="76.82121930803571" y="70.47466666666664" text-anchor="middle" stroke-miterlimit="2" stroke-width="3" stroke-dasharray="">4</text><text fill="#000000" stroke="none" font-family="Arial" font-size="14px" font-style="normal" font-weight="normal" text-decoration="normal" x="76.82121930803571" y="70.47466666666664" text-anchor="middle">4</text></g></g></g></g><g id="expressions-8bd2a1ac"><g id="sketch-8bd2a1ac"><title>Expression 1</title><path fill="#2d70b3" stroke="none" paint-order="stroke fill markers" d="" fill-opacity="0.4"/><g><path fill="none" stroke="#2d70b3" class="dcg-svg-curve" paint-order="fill stroke markers" d=" M -0.5 -0.5 L -0.5 -0.5 L 4.7734375 25.79426158964634 L 9.900390625 49.8935810741192 L 15.027343749999998 72.58354848064482 L 20.0078125 93.30817922453082 L 24.988281249999996 112.76654206030065 L 29.822265624999996 130.47137229866348 L 34.509765625 146.55585979895352 L 39.197265625 161.59963033325033 L 43.73828125 175.20553650769094 L 48.279296875 187.88310439256014 L 52.67382812499999 199.29022574494587 L 57.06835937499999 209.87177922786208 L 61.31640624999999 219.33613470258808 L 65.564453125 228.06866905349304 L 69.666015625 235.82394711525794 L 73.767578125 242.9326925396453 L 77.72265625 249.19165033660826 L 81.677734375 254.88145197206174 L 85.6328125 260.01781646907324 L 89.44140625 264.4555481380472 L 93.25 268.40869140625 L 97.05859375 271.891282627359 L 100.86718749999999 274.91735815505183 L 104.82226562499999 277.5916773997402 L 108.63085937499999 279.730632337043 L 112.29296874999999 281.39685411440826 L 115.80859374999999 282.6480194224665 L 119.17773437499999 283.53714997344645 L 122.54687499999999 284.1328288316726 L 125.76953124999999 284.43697809986764 L 129.138671875 284.4866153963375 L 132.5078125 284.271528566877 L 136.0234375 283.77536087731517 L 139.685546875 282.9751630399841 L 143.494140625 281.849475287289 L 147.44921875 280.37862685012317 L 151.697265625 278.47397378808813 L 156.23828125 276.0874432555089 L 161.21875 273.0811281204223 L 166.638671875 269.38301745732315 L 172.498046875 264.9304810314594 L 178.796875 259.67425835132593 L 185.53515625 253.58277115784583 L 193.005859375 246.35517354519104 L 201.64843749999997 237.50675906240937 L 212.63476562499997 225.7519886193331 L 243.39648437499997 192.56095499196084 L 252.03906249999997 183.88890519241488 L 259.36328125 176.9953673314303 L 266.1015625 171.11362531284487 L 272.25390625 166.19648909630874 L 278.11328125 161.97152964584527 L 283.6796875 158.41906010607875 L 288.66015625 155.65797272883353 L 293.201171875 153.51173721184017 L 297.44921875 151.8463014233857 L 301.404296875 150.6107074853498 L 305.212890625 149.72298516744436 L 308.728515625 149.17893241943477 L 312.09765625 148.9161263760179 L 315.466796875 148.9162540149409 L 318.689453125 149.17137085157444 L 321.912109375 149.68444831754698 L 325.134765625 150.46399000263773 L 328.50390625 151.57310283246136 L 331.873046875 152.99246533703993 L 335.388671875 154.81482554157265 L 339.05078125 157.09549146207672 L 343.005859375 160.0110605926408 L 346.814453125 163.27702319878148 L 350.623046875 167.00693099689667 L 354.431640625 171.21482034066383 L 358.240234375 175.91472758376042 L 362.048828125 181.1206890798639 L 365.857421875 186.84674118265195 L 369.8125 193.35855356852218 L 373.767578125 200.46208875572 L 377.869140625 208.47052803426047 L 381.970703125 217.1497691485565 L 386.21875 226.86485004425052 L 390.466796875 237.33778573192347 L 394.861328125 248.990093770825 L 399.255859375 261.4958297283544 L 403.79687499999994 275.33790123462677 L 408.33789062499994 290.13805937184947 L 413.02539062499994 306.4458093808498 L 417.71289062499994 323.8259749006635 L 422.54687499999994 342.90017298857384 L 427.38085937499994 363.17138938318624 L 432.36132812499994 385.3391834131907 L 436.6340508505567 405.5" stroke-linecap="round" stroke-linejoin="round" stroke-miterlimit="10" stroke-width="2.5" stroke-opacity="0.9" stroke-dasharray=""/></g></g></g><g id="labels-8bd2a1ac"/></g></svg>