<svg version="1.1" xmlns="http://www.w3.org/2000/svg" xmlns:xlink="http://www.w3.org/1999/xlink" width="600" height="400"><defs/><g transform="scale(1,1)"><g id="background-47687012"><rect fill="white" stroke="none" x="0" y="0" width="600" height="400" class="dcg-svg-background"/></g><g id="background-images-47687012"/><g id="graphpaper-47687012"><g id="grid-47687012"><g><path fill="none" stroke="rgb(0,0,0)" class="dcg-svg-minor-gridline" paint-order="fill stroke markers" d=" M 8.5 0 L 8.5 400" stroke-opacity="0.12" stroke-miterlimit="10" stroke-dasharray=""/><path fill="none" stroke="rgb(0,0,0)" class="dcg-svg-minor-gridline" paint-order="fill stroke markers" d=" M 25.5 0 L 25.5 400" stroke-opacity="0.12" stroke-miterlimit="10" stroke-dasharray=""/><path fill="none" stroke="rgb(0,0,0)" class="dcg-svg-minor-gridline" paint-order="fill stroke markers" d=" M 59.5 0 L 59.5 400" stroke-opacity="0.12" stroke-miterlimit="10" stroke-dasharray=""/><path fill="none" stroke="rgb(0,0,0)" class="dcg-svg-minor-gridline" paint-order="fill stroke markers" d=" M 76.5 0 L 76.5 400" stroke-opacity="0.12" stroke-miterlimit="10" stroke-dasharray=""/><path fill="none" stroke="rgb(0,0,0)" class="dcg-svg-minor-gridline" paint-order="fill stroke markers" d=" M 93.5 0 L 93.5 400" stroke-opacity="0.12" stroke-miterlimit="10" stroke-dasharray=""/><path fill="none" stroke="rgb(0,0,0)" class="dcg-svg-minor-gridline" paint-order="fill stroke markers" d=" M 110.5 0 L 110.5 400" stroke-opacity="0.12" stroke-miterlimit="10" stroke-dasharray=""/><path fill="none" stroke="rgb(0,0,0)" class="dcg-svg-minor-gridline" paint-order="fill stroke markers" d=" M 128.5 0 L 128.5 400" stroke-opacity="0.12" stroke-miterlimit="10" stroke-dasharray=""/><path fill="none" stroke="rgb(0,0,0)" class="dcg-svg-minor-gridline" paint-order="fill stroke markers" d=" M 145.5 0 L 145.5 400" stroke-opacity="0.12" stroke-miterlimit="10" stroke-dasharray=""/><path fill="none" stroke="rgb(0,0,0)" class="dcg-svg-minor-gridline" paint-order="fill stroke markers" d=" M 162.5 0 L 162.5 400" stroke-opacity="0.12" stroke-miterlimit="10" stroke-dasharray=""/><path fill="none" stroke="rgb(0,0,0)" class="dcg-svg-minor-gridline" paint-order="fill stroke markers" d=" M 179.5 0 L 179.5 400" stroke-opacity="0.12" stroke-miterlimit="10" stroke-dasharray=""/><path fill="none" stroke="rgb(0,0,0)" class="dcg-svg-minor-gridline" paint-order="fill stroke markers" d=" M 196.5 0 L 196.5 400" stroke-opacity="0.12" stroke-miterlimit="10" stroke-dasharray=""/><path fill="none" stroke="rgb(0,0,0)" class="dcg-svg-minor-gridline" paint-order="fill stroke markers" d=" M 213.5 0 L 213.5 400" stroke-opacity="0.12" stroke-miterlimit="10" stroke-dasharray=""/><path fill="none" stroke="rgb(0,0,0)" class="dcg-svg-minor-gridline" paint-order="fill stroke markers" d=" M 230.5 0 L 230.5 400" stroke-opacity="0.12" stroke-miterlimit="10" stroke-dasharray=""/><path fill="none" stroke="rgb(0,0,0)" class="dcg-svg-minor-gridline" paint-order="fill stroke markers" d=" M 248.5 0 L 248.5 400" stroke-opacity="0.12" stroke-miterlimit="10" stroke-dasharray=""/><path fill="none" stroke="rgb(0,0,0)" class="dcg-svg-minor-gridline" paint-order="fill stroke markers" d=" M 265.5 0 L 265.5 400" stroke-opacity="0.12" stroke-miterlimit="10" stroke-dasharray=""/><path fill="none" stroke="rgb(0,0,0)" class="dcg-svg-minor-gridline" paint-order="fill stroke markers" d=" M 282.5 0 L 282.5 400" stroke-opacity="0.12" stroke-miterlimit="10" stroke-dasharray=""/><path fill="none" stroke="rgb(0,0,0)" class="dcg-svg-minor-gridline" paint-order="fill stroke markers" d=" M 299.5 0 L 299.5 400" stroke-opacity="0.12" stroke-miterlimit="10" stroke-dasharray=""/><path fill="none" stroke="rgb(0,0,0)" class="dcg-svg-minor-gridline" paint-order="fill stroke markers" d=" M 316.5 0 L 316.5 400" stroke-opacity="0.12" stroke-miterlimit="10" stroke-dasharray=""/><path fill="none" stroke="rgb(0,0,0)" class="dcg-svg-minor-gridline" paint-order="fill stroke markers" d=" M 333.5 0 L 333.5 400" stroke-opacity="0.12" stroke-miterlimit="10" stroke-dasharray=""/><path fill="none" stroke="rgb(0,0,0)" class="dcg-svg-minor-gridline" paint-order="fill stroke markers" d=" M 350.5 0 L 350.5 400" stroke-opacity="0.12" stroke-miterlimit="10" stroke-dasharray=""/><path fill="none" stroke="rgb(0,0,0)" class="dcg-svg-minor-gridline" paint-order="fill stroke markers" d=" M 368.5 0 L 368.5 400" stroke-opacity="0.12" stroke-miterlimit="10" stroke-dasharray=""/><path fill="none" stroke="rgb(0,0,0)" class="dcg-svg-minor-gridline" paint-order="fill stroke markers" d=" M 385.5 0 L 385.5 400" stroke-opacity="0.12" stroke-miterlimit="10" stroke-dasharray=""/><path fill="none" stroke="rgb(0,0,0)" class="dcg-svg-minor-gridline" paint-order="fill stroke markers" d=" M 402.5 0 L 402.5 400" stroke-opacity="0.12" stroke-miterlimit="10" stroke-dasharray=""/><path fill="none" stroke="rgb(0,0,0)" class="dcg-svg-minor-gridline" paint-order="fill stroke markers" d=" M 419.5 0 L 419.5 400" stroke-opacity="0.12" stroke-miterlimit="10" stroke-dasharray=""/><path fill="none" stroke="rgb(0,0,0)" class="dcg-svg-minor-gridline" paint-order="fill stroke markers" d=" M 436.5 0 L 436.5 400" stroke-opacity="0.12" stroke-miterlimit="10" stroke-dasharray=""/><path fill="none" stroke="rgb(0,0,0)" class="dcg-svg-minor-gridline" paint-order="fill stroke markers" d=" M 453.5 0 L 453.5 400" stroke-opacity="0.12" stroke-miterlimit="10" stroke-dasharray=""/><path fill="none" stroke="rgb(0,0,0)" class="dcg-svg-minor-gridline" paint-order="fill stroke markers" d=" M 470.5 0 L 470.5 400" stroke-opacity="0.12" stroke-miterlimit="10" stroke-dasharray=""/><path fill="none" stroke="rgb(0,0,0)" class="dcg-svg-minor-gridline" paint-order="fill stroke markers" d=" M 488.5 0 L 488.5 400" stroke-opacity="0.12" stroke-miterlimit="10" stroke-dasharray=""/><path fill="none" stroke="rgb(0,0,0)" class="dcg-svg-minor-gridline" paint-order="fill stroke markers" d=" M 505.5 0 L 505.5 400" stroke-opacity="0.12" stroke-miterlimit="10" stroke-dasharray=""/><path fill="none" stroke="rgb(0,0,0)" class="dcg-svg-minor-gridline" paint-order="fill stroke markers" d=" M 522.5 0 L 522.5 400" stroke-opacity="0.12" stroke-miterlimit="10" stroke-dasharray=""/><path fill="none" stroke="rgb(0,0,0)" class="dcg-svg-minor-gridline" paint-order="fill stroke markers" d=" M 539.5 0 L 539.5 400" stroke-opacity="0.12" stroke-miterlimit="10" stroke-dasharray=""/><path fill="none" stroke="rgb(0,0,0)" class="dcg-svg-minor-gridline" paint-order="fill stroke markers" d=" M 556.5 0 L 556.5 400" stroke-opacity="0.12" stroke-miterlimit="10" stroke-dasharray=""/><path fill="none" stroke="rgb(0,0,0)" class="dcg-svg-minor-gridline" paint-order="fill stroke markers" d=" M 573.5 0 L 573.5 400" stroke-opacity="0.12" stroke-miterlimit="10" stroke-dasharray=""/><path fill="none" stroke="rgb(0,0,0)" class="dcg-svg-minor-gridline" paint-order="fill stroke markers" d=" M 590.5 0 L 590.5 400" stroke-opacity="0.12" stroke-miterlimit="10" stroke-dasharray=""/><path fill="none" stroke="rgb(0,0,0)" class="dcg-svg-minor-gridline" paint-order="fill stroke markers" d=" M 0 395.5 L 600 395.5" stroke-opacity="0.12" stroke-miterlimit="10" stroke-dasharray=""/><path fill="none" stroke="rgb(0,0,0)" class="dcg-svg-minor-gridline" paint-order="fill stroke markers" d=" M 0 377.5 L 600 377.5" stroke-opacity="0.12" stroke-miterlimit="10" stroke-dasharray=""/><path fill="none" stroke="rgb(0,0,0)" class="dcg-svg-minor-gridline" paint-order="fill stroke markers" d=" M 0 359.5 L 600 359.5" stroke-opacity="0.12" stroke-miterlimit="10" stroke-dasharray=""/><path fill="none" stroke="rgb(0,0,0)" class="dcg-svg-minor-gridline" paint-order="fill stroke markers" d=" M 0 341.5 L 600 341.5" stroke-opacity="0.12" stroke-miterlimit="10" stroke-dasharray=""/><path fill="none" stroke="rgb(0,0,0)" class="dcg-svg-minor-gridline" paint-order="fill stroke markers" d=" M 0 323.5 L 600 323.5" stroke-opacity="0.12" stroke-miterlimit="10" stroke-dasharray=""/><path fill="none" stroke="rgb(0,0,0)" class="dcg-svg-minor-gridline" paint-order="fill stroke markers" d=" M 0 306.5 L 600 306.5" stroke-opacity="0.12" stroke-miterlimit="10" stroke-dasharray=""/><path fill="none" stroke="rgb(0,0,0)" class="dcg-svg-minor-gridline" paint-order="fill stroke markers" d=" M 0 288.5 L 600 288.5" stroke-opacity="0.12" stroke-miterlimit="10" stroke-dasharray=""/><path fill="none" stroke="rgb(0,0,0)" class="dcg-svg-minor-gridline" paint-order="fill stroke markers" d=" M 0 270.5 L 600 270.5" stroke-opacity="0.12" stroke-miterlimit="10" stroke-dasharray=""/><path fill="none" stroke="rgb(0,0,0)" class="dcg-svg-minor-gridline" paint-order="fill stroke markers" d=" M 0 252.5 L 600 252.5" stroke-opacity="0.12" stroke-miterlimit="10" stroke-dasharray=""/><path fill="none" stroke="rgb(0,0,0)" class="dcg-svg-minor-gridline" paint-order="fill stroke markers" d=" M 0 235.5 L 600 235.5" stroke-opacity="0.12" stroke-miterlimit="10" stroke-dasharray=""/><path fill="none" stroke="rgb(0,0,0)" class="dcg-svg-minor-gridline" paint-order="fill stroke markers" d=" M 0 217.5 L 600 217.5" stroke-opacity="0.12" stroke-miterlimit="10" stroke-dasharray=""/><path fill="none" stroke="rgb(0,0,0)" class="dcg-svg-minor-gridline" paint-order="fill stroke markers" d=" M 0 181.5 L 600 181.5" stroke-opacity="0.12" stroke-miterlimit="10" stroke-dasharray=""/><path fill="none" stroke="rgb(0,0,0)" class="dcg-svg-minor-gridline" paint-order="fill stroke markers" d=" M 0 163.5 L 600 163.5" stroke-opacity="0.12" stroke-miterlimit="10" stroke-dasharray=""/><path fill="none" stroke="rgb(0,0,0)" class="dcg-svg-minor-gridline" paint-order="fill stroke markers" d=" M 0 146.5 L 600 146.5" stroke-opacity="0.12" stroke-miterlimit="10" stroke-dasharray=""/><path fill="none" stroke="rgb(0,0,0)" class="dcg-svg-minor-gridline" paint-order="fill stroke markers" d=" M 0 128.5 L 600 128.5" stroke-opacity="0.12" stroke-miterlimit="10" stroke-dasharray=""/><path fill="none" stroke="rgb(0,0,0)" class="dcg-svg-minor-gridline" paint-order="fill stroke markers" d=" M 0 110.5 L 600 110.5" stroke-opacity="0.12" stroke-miterlimit="10" stroke-dasharray=""/><path fill="none" stroke="rgb(0,0,0)" class="dcg-svg-minor-gridline" paint-order="fill stroke markers" d=" M 0 92.5 L 600 92.5" stroke-opacity="0.12" stroke-miterlimit="10" stroke-dasharray=""/><path fill="none" stroke="rgb(0,0,0)" class="dcg-svg-minor-gridline" paint-order="fill stroke markers" d=" M 0 75.5 L 600 75.5" stroke-opacity="0.12" stroke-miterlimit="10" stroke-dasharray=""/><path fill="none" stroke="rgb(0,0,0)" class="dcg-svg-minor-gridline" paint-order="fill stroke markers" d=" M 0 57.5 L 600 57.5" stroke-opacity="0.12" stroke-miterlimit="10" stroke-dasharray=""/><path fill="none" stroke="rgb(0,0,0)" class="dcg-svg-minor-gridline" paint-order="fill stroke markers" d=" M 0 39.5 L 600 39.5" stroke-opacity="0.12" stroke-miterlimit="10" stroke-dasharray=""/><path fill="none" stroke="rgb(0,0,0)" class="dcg-svg-minor-gridline" paint-order="fill stroke markers" d=" M 0 21.5 L 600 21.5" stroke-opacity="0.12" stroke-miterlimit="10" stroke-dasharray=""/><path fill="none" stroke="rgb(0,0,0)" class="dcg-svg-minor-gridline" paint-order="fill stroke markers" d=" M 0 3.5 L 600 3.5" stroke-opacity="0.12" stroke-miterlimit="10" stroke-dasharray=""/><path fill="none" stroke="rgb(0,0,0)" class="dcg-svg-major-gridline" paint-order="fill stroke markers" d=" M 128.5 0 L 128.5 400" stroke-opacity="0.31818181818181823" stroke-miterlimit="10" stroke-dasharray=""/><path fill="none" stroke="rgb(0,0,0)" class="dcg-svg-major-gridline" paint-order="fill stroke markers" d=" M 213.5 0 L 213.5 400" stroke-opacity="0.31818181818181823" stroke-miterlimit="10" stroke-dasharray=""/><path fill="none" stroke="rgb(0,0,0)" class="dcg-svg-major-gridline" paint-order="fill stroke markers" d=" M 299.5 0 L 299.5 400" stroke-opacity="0.31818181818181823" stroke-miterlimit="10" stroke-dasharray=""/><path fill="none" stroke="rgb(0,0,0)" class="dcg-svg-major-gridline" paint-order="fill stroke markers" d=" M 385.5 0 L 385.5 400" stroke-opacity="0.31818181818181823" stroke-miterlimit="10" stroke-dasharray=""/><path fill="none" stroke="rgb(0,0,0)" class="dcg-svg-major-gridline" paint-order="fill stroke markers" d=" M 470.5 0 L 470.5 400" stroke-opacity="0.31818181818181823" stroke-miterlimit="10" stroke-dasharray=""/><path fill="none" stroke="rgb(0,0,0)" class="dcg-svg-major-gridline" paint-order="fill stroke markers" d=" M 556.5 0 L 556.5 400" stroke-opacity="0.31818181818181823" stroke-miterlimit="10" stroke-dasharray=""/><path fill="none" stroke="rgb(0,0,0)" class="dcg-svg-major-gridline" paint-order="fill stroke markers" d=" M 0 377.5 L 600 377.5" stroke-opacity="0.31818181818181823" stroke-miterlimit="10" stroke-dasharray=""/><path fill="none" stroke="rgb(0,0,0)" class="dcg-svg-major-gridline" paint-order="fill stroke markers" d=" M 0 288.5 L 600 288.5" stroke-opacity="0.31818181818181823" stroke-miterlimit="10" stroke-dasharray=""/><path fill="none" stroke="rgb(0,0,0)" class="dcg-svg-major-gridline" paint-order="fill stroke markers" d=" M 0 110.5 L 600 110.5" stroke-opacity="0.31818181818181823" stroke-miterlimit="10" stroke-dasharray=""/><path fill="none" stroke="rgb(0,0,0)" class="dcg-svg-major-gridline" paint-order="fill stroke markers" d=" M 0 21.5 L 600 21.5" stroke-opacity="0.31818181818181823" stroke-miterlimit="10" stroke-dasharray=""/></g></g><g id="axis-47687012"><g id="yaxis-47687012"><title>Y axis</title><path fill="none" stroke="rgb(0,0,0)" class="dcg-svg-axis-line" paint-order="fill stroke markers" d=" M 42.75 0 L 42.75 400" stroke-opacity="0.9" stroke-miterlimit="10" stroke-width="1.5" stroke-dasharray=""/></g><g id="xaxis-47687012"><title>X axis</title><path fill="none" stroke="rgb(0,0,0)" class="dcg-svg-axis-line" paint-order="fill stroke markers" d=" M 0 199.75 L 600 199.75" stroke-opacity="0.9" stroke-miterlimit="10" stroke-width="1.5" stroke-dasharray=""/></g><g><g class="dcg-svg-axis-value"><text fill="none" stroke="#ffffff" font-family="Arial" font-size="14px" font-style="normal" font-weight="normal" text-decoration="normal" x="33.964076450892854" y="215.808" text-anchor="middle" stroke-miterlimit="2" stroke-width="3" stroke-dasharray="">0</text><text fill="#000000" stroke="none" font-family="Arial" font-size="14px" font-style="normal" font-weight="normal" text-decoration="normal" x="33.964076450892854" y="215.808" text-anchor="middle">0</text></g><g class="dcg-svg-axis-value"><text fill="none" stroke="#ffffff" font-family="Arial" font-size="14px" font-style="normal" font-weight="normal" text-decoration="normal" x="128.57142857142856" y="215.808" text-anchor="middle" stroke-miterlimit="2" stroke-width="3" stroke-dasharray="">1</text><text fill="#000000" stroke="none" font-family="Arial" font-size="14px" font-style="normal" font-weight="normal" text-decoration="normal" x="128.57142857142856" y="215.808" text-anchor="middle">1</text></g><g class="dcg-svg-axis-value"><text fill="none" stroke="#ffffff" font-family="Arial" font-size="14px" font-style="normal" font-weight="normal" text-decoration="normal" x="214.28571428571428" y="215.808" text-anchor="middle" stroke-miterlimit="2" stroke-width="3" stroke-dasharray="">2</text><text fill="#000000" stroke="none" font-family="Arial" font-size="14px" font-style="normal" font-weight="normal" text-decoration="normal" x="214.28571428571428" y="215.808" text-anchor="middle">2</text></g><g class="dcg-svg-axis-value"><text fill="none" stroke="#ffffff" font-family="Arial" font-size="14px" font-style="normal" font-weight="normal" text-decoration="normal" x="299.99999999999994" y="215.808" text-anchor="middle" stroke-miterlimit="2" stroke-width="3" stroke-dasharray="">3</text><text fill="#000000" stroke="none" font-family="Arial" font-size="14px" font-style="normal" font-weight="normal" text-decoration="normal" x="299.99999999999994" y="215.808" text-anchor="middle">3</text></g><g class="dcg-svg-axis-value"><text fill="none" stroke="#ffffff" font-family="Arial" font-size="14px" font-style="normal" font-weight="normal" text-decoration="normal" x="385.71428571428567" y="215.808" text-anchor="middle" stroke-miterlimit="2" stroke-width="3" stroke-dasharray="">4</text><text fill="#000000" stroke="none" font-family="Arial" font-size="14px" font-style="normal" font-weight="normal" text-decoration="normal" x="385.71428571428567" y="215.808" text-anchor="middle">4</text></g><g class="dcg-svg-axis-value"><text fill="none" stroke="#ffffff" font-family="Arial" font-size="14px" font-style="normal" font-weight="normal" text-decoration="normal" x="471.4285714285714" y="215.808" text-anchor="middle" stroke-miterlimit="2" stroke-width="3" stroke-dasharray="">5</text><text fill="#000000" stroke="none" font-family="Arial" font-size="14px" font-style="normal" font-weight="normal" text-decoration="normal" x="471.4285714285714" y="215.808" text-anchor="middle">5</text></g><g class="dcg-svg-axis-value"><text fill="none" stroke="#ffffff" font-family="Arial" font-size="14px" font-style="normal" font-weight="normal" text-decoration="normal" x="557.1428571428571" y="215.808" text-anchor="middle" stroke-miterlimit="2" stroke-width="3" stroke-dasharray="">6</text><text fill="#000000" stroke="none" font-family="Arial" font-size="14px" font-style="normal" font-weight="normal" text-decoration="normal" x="557.1428571428571" y="215.808" text-anchor="middle">6</text></g><g class="dcg-svg-axis-value"><text fill="none" stroke="#ffffff" font-family="Arial" font-size="14px" font-style="normal" font-weight="normal" text-decoration="normal" x="31.633021763392854" y="381.58577777777776" text-anchor="middle" stroke-miterlimit="2" stroke-width="3" stroke-dasharray="">-2</text><text fill="#000000" stroke="none" font-family="Arial" font-size="14px" font-style="normal" font-weight="normal" text-decoration="normal" x="31.633021763392854" y="381.58577777777776" text-anchor="middle">-2</text></g><g class="dcg-svg-axis-value"><text fill="none" stroke="#ffffff" font-family="Arial" font-size="14px" font-style="normal" font-weight="normal" text-decoration="normal" x="31.633021763392854" y="292.6968888888889" text-anchor="middle" stroke-miterlimit="2" stroke-width="3" stroke-dasharray="">-1</text><text fill="#000000" stroke="none" font-family="Arial" font-size="14px" font-style="normal" font-weight="normal" text-decoration="normal" x="31.633021763392854" y="292.6968888888889" text-anchor="middle">-1</text></g><g class="dcg-svg-axis-value"><text fill="none" stroke="#ffffff" font-family="Arial" font-size="14px" font-style="normal" font-weight="normal" text-decoration="normal" x="33.964076450892854" y="114.91911111111112" text-anchor="middle" stroke-miterlimit="2" stroke-width="3" stroke-dasharray="">1</text><text fill="#000000" stroke="none" font-family="Arial" font-size="14px" font-style="normal" font-weight="normal" text-decoration="normal" x="33.964076450892854" y="114.91911111111112" text-anchor="middle">1</text></g><g class="dcg-svg-axis-value"><text fill="none" stroke="#ffffff" font-family="Arial" font-size="14px" font-style="normal" font-weight="normal" text-decoration="normal" x="33.964076450892854" y="26.03022222222223" text-anchor="middle" stroke-miterlimit="2" stroke-width="3" stroke-dasharray="">2</text><text fill="#000000" stroke="none" font-family="Arial" font-size="14px" font-style="normal" font-weight="normal" text-decoration="normal" x="33.964076450892854" y="26.03022222222223" text-anchor="middle">2</text></g></g></g></g><g id="expressions-47687012"><g id="sketch-47687012"><title>Expression 1</title><path fill="#2d70b3" stroke="none" paint-order="stroke fill markers" d="" fill-opacity="0.4"/><g><path fill="none" stroke="#2d70b3" class="dcg-svg-curve" paint-order="fill stroke markers" d=" M 128.07142857142856 101.8065313372179 L 128.07142857142856 101.8065313372179 L 131.88002232142856 107.8079857851788 L 135.68861607142856 113.16342764972933 L 139.49720982142856 117.8920786052467 L 143.30580357142856 122.0133057311927 L 146.82142857142856 125.29529057468733 L 150.19056919642856 127.98489175810954 L 153.41322544642856 130.1532718933894 L 156.48939732142856 131.86586365438063 L 159.56556919642856 133.240671914134 L 162.49525669642856 134.246232880303 L 165.42494419642856 134.96553364301235 L 168.35463169642856 135.40882980284357 L 171.28431919642856 135.58674740433725 L 174.21400669642856 135.5103578156245 L 177.29017857142856 135.16915717985 L 180.51283482142856 134.54019753684088 L 183.88197544642856 133.60424937094774 L 187.39760044642856 132.34714556880243 L 191.20619419642856 130.6926808140517 L 195.45424107142856 128.53354642752834 L 200.43470982142856 125.65855077724689 L 206.88002232142856 121.56339743128507 L 219.91713169642856 113.19754170156989 L 224.31166294642856 110.79755923607809 L 227.82728794642856 109.19775975147081 L 230.90345982142856 108.10170249106847 L 233.68666294642856 107.40296483126951 L 236.17689732142856 107.04755610452975 L 238.52064732142856 106.9708211720411 L 240.86439732142856 107.16463779711825 L 243.06166294642856 107.60743232348528 L 245.25892857142856 108.31447153805607 L 247.60267857142856 109.36870276591566 L 249.94642857142856 110.73714243585204 L 252.43666294642856 112.53421905969395 L 255.21986607142856 114.95033015481437 L 258.29603794642856 118.09333857194486 L 261.81166294642856 122.23165844027898 L 265.91322544642856 127.67031783846414 L 271.18666294642856 135.33792273665898 L 287.59291294642856 159.67695575335696 L 292.42689732142856 165.95494707589614 L 296.96791294642856 171.24357137997362 L 301.21595982142856 175.6259874807434 L 305.31752232142856 179.3424571918627 L 309.27260044642856 182.46854512118753 L 313.22767857142856 185.17684282082234 L 317.18275669642856 187.50460586443015 L 321.13783482142856 189.49164620223738 L 325.23939732142856 191.2350030528625 L 329.63392857142856 192.79211067125573 L 334.32142857142856 194.15174451946405 L 339.30189732142856 195.31267886625884 L 344.86830357142856 196.32934542952907 L 351.02064732142856 197.18106358402505 L 358.19838169642856 197.90146362109138 L 366.69447544642856 198.48100948424783 L 377.24135044642856 198.9265241700397 L 391.30385044642856 199.24179918341588 L 412.39760044642856 199.428887986868 L 428.07142857142856 199.47581862227247" stroke-linecap="round" stroke-linejoin="round" stroke-miterlimit="10" stroke-width="2.5" stroke-opacity="0.9" stroke-dasharray=""/></g></g><g id="sketch-47687012"><title>Expression 6</title><path fill="#2d70b3" stroke="none" paint-order="stroke fill markers" d="" fill-opacity="0.4"/><path fill="#2d70b3" stroke="none" paint-order="stroke fill markers" d="" fill-opacity="0.4"/><path fill="#2d70b3" stroke="none" class="dcg-svg-region" paint-order="stroke fill markers" d=" M 128.07142857142856 199.5 L 428.07142857142856 199.5 L 428.07142857142856 199.47581862227247 L 414.19726562499994 199.43674847005514 L 392.37109375 199.257384840395 L 378.015625 198.95063110103868 L 367.322265625 198.51478803406962 L 358.6796875 197.94127126430266 L 351.501953125 197.23766004551354 L 345.203125 196.38241603657002 L 339.63671875 195.38158890894786 L 334.65625 194.2383392885983 L 329.96875 192.89892230783317 L 325.57421875 191.36435616425084 L 321.47265625 189.64549819597713 L 317.517578125 187.68545832569714 L 313.5625 185.38809704885304 L 309.607421875 182.71351358052368 L 305.65234375 179.62411598294344 L 301.55078125 175.94812088710069 L 297.302734375 171.60893457859103 L 292.76171875 166.36575560683923 L 287.927734375 160.13165335914104 L 270.935546875 134.96126323219175 L 265.80859375 127.52477659823859 L 261.70703125 122.10089285245868 L 258.19140625 117.97873671821401 L 255.11523437499997 114.85194642414405 L 252.33203124999997 112.45168148950233 L 249.84179687499997 110.66934285410491 L 247.49804687499997 109.31495329639984 L 245.15429687499997 108.27468053232889 L 242.95703124999997 107.58043190123391 L 240.75976562499997 107.14996398653182 L 238.41601562499997 106.96861751670417 L 236.07226562499997 107.05697962470146 L 233.58203124999997 107.4236945140197 L 230.79882812499997 108.1336817078477 L 227.72265624999997 109.24038889814761 L 224.20703124999997 110.85003938704597 L 219.81249999999997 113.25894763333179 L 206.92187499999997 121.53596554363878 L 200.47656249999997 125.63310071479765 L 195.49609375 128.5108093359275 L 191.248046875 130.6729407679262 L 187.439453125 132.33055794684782 L 183.923828125 133.59092003706587 L 180.5546875 134.53027561134087 L 177.33203125 135.16273471096588 L 174.255859375 135.507479847416 L 171.326171875 135.58741970548084 L 168.396484375 135.41321417447432 L 165.466796875 134.9737849185259 L 162.537109375 134.2585000885406 L 159.607421875 133.2570992623938 L 156.53125 131.8868099918467 L 153.455078125 130.17888800603782 L 150.232421875 128.0155583652567 L 146.86328125 125.33140740655034 L 143.34765625 122.05529238912032 L 139.5390625 117.94063201060658 L 135.73046875 113.21876158790297 L 131.921875 107.8703122207857 L 128.07142857142856 101.8065313372179" fill-opacity="0.4"/><g><path fill="none" stroke="#2d70b3" class="dcg-svg-curve" paint-order="fill stroke markers" d=" M 128.07142857142856 199.5 L 139.07142857142856 199.5 M 146.07142857142856 199.5 L 157.07142857142856 199.5 M 164.07142857142856 199.5 L 175.07142857142856 199.5 M 182.07142857142856 199.5 L 193.07142857142856 199.5 M 200.07142857142856 199.5 L 211.07142857142856 199.5 M 218.07142857142856 199.5 L 229.07142857142856 199.5 M 236.07142857142856 199.5 L 247.07142857142856 199.5 M 254.07142857142856 199.5 L 265.07142857142856 199.5 M 272.07142857142856 199.5 L 283.07142857142856 199.5 M 290.07142857142856 199.5 L 301.07142857142856 199.5 M 308.07142857142856 199.5 L 319.07142857142856 199.5 M 326.07142857142856 199.5 L 337.07142857142856 199.5 M 344.07142857142856 199.5 L 355.07142857142856 199.5 M 362.07142857142856 199.5 L 373.07142857142856 199.5 M 380.07142857142856 199.5 L 391.07142857142856 199.5 M 398.07142857142856 199.5 L 409.07142857142856 199.5 M 416.07142857142856 199.5 L 427.07142857142856 199.5" stroke-linecap="round" stroke-linejoin="round" stroke-miterlimit="10" stroke-width="2.5" stroke-opacity="0.9" stroke-dasharray=""/></g><g><path fill="none" stroke="#2d70b3" class="dcg-svg-curve" paint-order="fill stroke markers" d=" M 128.07142857142856 101.8065313372179 L 131.921875 107.8703122207857 M 131.921875 107.8703122207857 L 134.13594913547362 110.97956045935793 M 138.3993690477648 116.5276472828292 L 139.5390625 117.94063201060658 M 139.5390625 117.94063201060658 L 143.34765625 122.05529238912032 M 143.34765625 122.05529238912032 L 145.96520785578602 124.49451731345485 M 151.4486019875529 128.8319651681896 L 153.455078125 130.17888800603782 M 153.455078125 130.17888800603782 L 156.53125 131.8868099918467 M 156.53125 131.8868099918467 L 159.607421875 133.2570992623938 M 159.607421875 133.2570992623938 L 161.21348299243994 133.80606939311477 M 168.0236393531953 135.35729045888496 L 168.396484375 135.41321417447432 M 168.396484375 135.41321417447432 L 171.326171875 135.58741970548084 M 171.326171875 135.58741970548084 L 174.255859375 135.507479847416 M 174.255859375 135.507479847416 L 177.33203125 135.16273471096588 M 177.33203125 135.16273471096588 L 178.9628369910251 134.84268260158188 M 185.6936727599172 132.9564254355582 L 187.439453125 132.33055794684782 M 187.439453125 132.33055794684782 L 191.248046875 130.6729407679262 M 191.248046875 130.6729407679262 L 195.49609375 128.5108093359275 M 195.49609375 128.5108093359275 L 195.69101049687058 128.39818668311554 M 201.7197022331523 124.84286571480914 L 206.92187499999997 121.53596554363878 M 206.92187499999997 121.53596554363878 L 210.99099769284183 118.92319840411771 M 216.88128569835806 115.14106842062007 L 219.81249999999997 113.25894763333179 M 219.81249999999997 113.25894763333179 L 224.20703124999997 110.85003938704597 M 224.20703124999997 110.85003938704597 L 226.48473446715556 109.8071789861045 M 233.09460527562322 107.54803549245499 L 233.58203124999997 107.4236945140197 M 233.58203124999997 107.4236945140197 L 236.07226562499997 107.05697962470146 M 236.07226562499997 107.05697962470146 L 238.41601562499997 106.96861751670417 M 238.41601562499997 106.96861751670417 L 240.75976562499997 107.14996398653182 M 240.75976562499997 107.14996398653182 L 242.95703124999997 107.58043190123391 M 242.95703124999997 107.58043190123391 L 243.95315949150955 107.89516884527683 M 250.22329922860393 110.94239602177046 L 252.33203124999997 112.45168148950233 M 252.33203124999997 112.45168148950233 L 255.11523437499997 114.85194642414405 M 255.11523437499997 114.85194642414405 L 258.19140625 117.97873671821401 M 258.19140625 117.97873671821401 L 258.41543767293217 118.24141903054921 M 262.8696342665274 123.63831270261035 L 265.80859375 127.52477659823859 M 265.80859375 127.52477659823859 L 269.28656677585184 132.56946869691993 M 273.22671339559247 138.35514969731682 L 279.3814557974685 147.47211991590092 M 283.2981100532078 153.27382823681805 L 287.927734375 160.13165335914104 M 287.927734375 160.13165335914104 L 289.5980040865341 162.28570090153443 M 293.9644014231759 167.75440542054386 L 297.302734375 171.60893457859103 M 297.302734375 171.60893457859103 L 301.43071190419494 175.82547552166108 M 306.69305357064445 180.4370370727581 L 309.607421875 182.71351358052368 M 309.607421875 182.71351358052368 L 313.5625 185.38809704885304 M 313.5625 185.38809704885304 L 315.74794952316586 186.65754532480045 M 321.9701187662858 189.8539717740429 L 325.57421875 191.36435616425084 M 325.57421875 191.36435616425084 L 329.96875 192.89892230783317 M 329.96875 192.89892230783317 L 332.3124015084052 193.56860265500194 M 339.1029447911959 195.25906291663935 L 339.63671875 195.38158890894786 M 339.63671875 195.38158890894786 L 345.203125 196.38241603657002 M 345.203125 196.38241603657002 L 349.95619194940986 197.027779261589 M 356.9160577716886 197.76838806776755 L 358.6796875 197.94127126430266 M 358.6796875 197.94127126430266 L 367.322265625 198.51478803406962 M 367.322265625 198.51478803406962 L 367.88812638013167 198.53785155212276 M 374.8823192799977 198.82292291066867 L 378.015625 198.95063110103868 M 378.015625 198.95063110103868 L 385.8779229808536 199.1186360159294 M 392.87642366535954 199.26153755248367 L 403.876052254738 199.3519305595581 M 410.87581590252427 199.40945338224182 L 414.19726562499994 199.43674847005514 M 414.19726562499994 199.43674847005514 L 421.8756733062427 199.4583711479818" stroke-linecap="round" stroke-linejoin="round" stroke-miterlimit="10" stroke-width="2.5" stroke-opacity="0.9" stroke-dasharray=""/></g></g></g><g id="labels-47687012"/></g></svg>