<svg version="1.1" xmlns="http://www.w3.org/2000/svg" xmlns:xlink="http://www.w3.org/1999/xlink" width="600" height="400"><defs/><g transform="scale(1,1)"><g id="background-db8ea5a0"><rect fill="white" stroke="none" x="0" y="0" width="600" height="400" class="dcg-svg-background"/></g><g id="background-images-db8ea5a0"/><g id="graphpaper-db8ea5a0"><g id="grid-db8ea5a0"><g><path fill="none" stroke="rgb(0,0,0)" class="dcg-svg-minor-gridline" paint-order="fill stroke markers" d=" M -0.5 0 L -0.5 400" stroke-opacity="0.12" stroke-miterlimit="10" stroke-dasharray=""/><path fill="none" stroke="rgb(0,0,0)" class="dcg-svg-minor-gridline" paint-order="fill stroke markers" d=" M 24.5 0 L 24.5 400" stroke-opacity="0.12" stroke-miterlimit="10" stroke-dasharray=""/><path fill="none" stroke="rgb(0,0,0)" class="dcg-svg-minor-gridline" paint-order="fill stroke markers" d=" M 49.5 0 L 49.5 400" stroke-opacity="0.12" stroke-miterlimit="10" stroke-dasharray=""/><path fill="none" stroke="rgb(0,0,0)" class="dcg-svg-minor-gridline" paint-order="fill stroke markers" d=" M 74.5 0 L 74.5 400" stroke-opacity="0.12" stroke-miterlimit="10" stroke-dasharray=""/><path fill="none" stroke="rgb(0,0,0)" class="dcg-svg-minor-gridline" paint-order="fill stroke markers" d=" M 99.5 0 L 99.5 400" stroke-opacity="0.12" stroke-miterlimit="10" stroke-dasharray=""/><path fill="none" stroke="rgb(0,0,0)" class="dcg-svg-minor-gridline" paint-order="fill stroke markers" d=" M 124.5 0 L 124.5 400" stroke-opacity="0.12" stroke-miterlimit="10" stroke-dasharray=""/><path fill="none" stroke="rgb(0,0,0)" class="dcg-svg-minor-gridline" paint-order="fill stroke markers" d=" M 149.5 0 L 149.5 400" stroke-opacity="0.12" stroke-miterlimit="10" stroke-dasharray=""/><path fill="none" stroke="rgb(0,0,0)" class="dcg-svg-minor-gridline" paint-order="fill stroke markers" d=" M 174.5 0 L 174.5 400" stroke-opacity="0.12" stroke-miterlimit="10" stroke-dasharray=""/><path fill="none" stroke="rgb(0,0,0)" class="dcg-svg-minor-gridline" paint-order="fill stroke markers" d=" M 199.5 0 L 199.5 400" stroke-opacity="0.12" stroke-miterlimit="10" stroke-dasharray=""/><path fill="none" stroke="rgb(0,0,0)" class="dcg-svg-minor-gridline" paint-order="fill stroke markers" d=" M 224.5 0 L 224.5 400" stroke-opacity="0.12" stroke-miterlimit="10" stroke-dasharray=""/><path fill="none" stroke="rgb(0,0,0)" class="dcg-svg-minor-gridline" paint-order="fill stroke markers" d=" M 249.5 0 L 249.5 400" stroke-opacity="0.12" stroke-miterlimit="10" stroke-dasharray=""/><path fill="none" stroke="rgb(0,0,0)" class="dcg-svg-minor-gridline" paint-order="fill stroke markers" d=" M 274.5 0 L 274.5 400" stroke-opacity="0.12" stroke-miterlimit="10" stroke-dasharray=""/><path fill="none" stroke="rgb(0,0,0)" class="dcg-svg-minor-gridline" paint-order="fill stroke markers" d=" M 324.5 0 L 324.5 400" stroke-opacity="0.12" stroke-miterlimit="10" stroke-dasharray=""/><path fill="none" stroke="rgb(0,0,0)" class="dcg-svg-minor-gridline" paint-order="fill stroke markers" d=" M 349.5 0 L 349.5 400" stroke-opacity="0.12" stroke-miterlimit="10" stroke-dasharray=""/><path fill="none" stroke="rgb(0,0,0)" class="dcg-svg-minor-gridline" paint-order="fill stroke markers" d=" M 374.5 0 L 374.5 400" stroke-opacity="0.12" stroke-miterlimit="10" stroke-dasharray=""/><path fill="none" stroke="rgb(0,0,0)" class="dcg-svg-minor-gridline" paint-order="fill stroke markers" d=" M 399.5 0 L 399.5 400" stroke-opacity="0.12" stroke-miterlimit="10" stroke-dasharray=""/><path fill="none" stroke="rgb(0,0,0)" class="dcg-svg-minor-gridline" paint-order="fill stroke markers" d=" M 424.5 0 L 424.5 400" stroke-opacity="0.12" stroke-miterlimit="10" stroke-dasharray=""/><path fill="none" stroke="rgb(0,0,0)" class="dcg-svg-minor-gridline" paint-order="fill stroke markers" d=" M 449.5 0 L 449.5 400" stroke-opacity="0.12" stroke-miterlimit="10" stroke-dasharray=""/><path fill="none" stroke="rgb(0,0,0)" class="dcg-svg-minor-gridline" paint-order="fill stroke markers" d=" M 474.5 0 L 474.5 400" stroke-opacity="0.12" stroke-miterlimit="10" stroke-dasharray=""/><path fill="none" stroke="rgb(0,0,0)" class="dcg-svg-minor-gridline" paint-order="fill stroke markers" d=" M 499.5 0 L 499.5 400" stroke-opacity="0.12" stroke-miterlimit="10" stroke-dasharray=""/><path fill="none" stroke="rgb(0,0,0)" class="dcg-svg-minor-gridline" paint-order="fill stroke markers" d=" M 524.5 0 L 524.5 400" stroke-opacity="0.12" stroke-miterlimit="10" stroke-dasharray=""/><path fill="none" stroke="rgb(0,0,0)" class="dcg-svg-minor-gridline" paint-order="fill stroke markers" d=" M 549.5 0 L 549.5 400" stroke-opacity="0.12" stroke-miterlimit="10" stroke-dasharray=""/><path fill="none" stroke="rgb(0,0,0)" class="dcg-svg-minor-gridline" paint-order="fill stroke markers" d=" M 574.5 0 L 574.5 400" stroke-opacity="0.12" stroke-miterlimit="10" stroke-dasharray=""/><path fill="none" stroke="rgb(0,0,0)" class="dcg-svg-minor-gridline" paint-order="fill stroke markers" d=" M 0 374.5 L 600 374.5" stroke-opacity="0.12" stroke-miterlimit="10" stroke-dasharray=""/><path fill="none" stroke="rgb(0,0,0)" class="dcg-svg-minor-gridline" paint-order="fill stroke markers" d=" M 0 349.5 L 600 349.5" stroke-opacity="0.12" stroke-miterlimit="10" stroke-dasharray=""/><path fill="none" stroke="rgb(0,0,0)" class="dcg-svg-minor-gridline" paint-order="fill stroke markers" d=" M 0 299.5 L 600 299.5" stroke-opacity="0.12" stroke-miterlimit="10" stroke-dasharray=""/><path fill="none" stroke="rgb(0,0,0)" class="dcg-svg-minor-gridline" paint-order="fill stroke markers" d=" M 0 274.5 L 600 274.5" stroke-opacity="0.12" stroke-miterlimit="10" stroke-dasharray=""/><path fill="none" stroke="rgb(0,0,0)" class="dcg-svg-minor-gridline" paint-order="fill stroke markers" d=" M 0 249.5 L 600 249.5" stroke-opacity="0.12" stroke-miterlimit="10" stroke-dasharray=""/><path fill="none" stroke="rgb(0,0,0)" class="dcg-svg-minor-gridline" paint-order="fill stroke markers" d=" M 0 224.5 L 600 224.5" stroke-opacity="0.12" stroke-miterlimit="10" stroke-dasharray=""/><path fill="none" stroke="rgb(0,0,0)" class="dcg-svg-minor-gridline" paint-order="fill stroke markers" d=" M 0 199.5 L 600 199.5" stroke-opacity="0.12" stroke-miterlimit="10" stroke-dasharray=""/><path fill="none" stroke="rgb(0,0,0)" class="dcg-svg-minor-gridline" paint-order="fill stroke markers" d=" M 0 174.5 L 600 174.5" stroke-opacity="0.12" stroke-miterlimit="10" stroke-dasharray=""/><path fill="none" stroke="rgb(0,0,0)" class="dcg-svg-minor-gridline" paint-order="fill stroke markers" d=" M 0 149.5 L 600 149.5" stroke-opacity="0.12" stroke-miterlimit="10" stroke-dasharray=""/><path fill="none" stroke="rgb(0,0,0)" class="dcg-svg-minor-gridline" paint-order="fill stroke markers" d=" M 0 124.5 L 600 124.5" stroke-opacity="0.12" stroke-miterlimit="10" stroke-dasharray=""/><path fill="none" stroke="rgb(0,0,0)" class="dcg-svg-minor-gridline" paint-order="fill stroke markers" d=" M 0 99.5 L 600 99.5" stroke-opacity="0.12" stroke-miterlimit="10" stroke-dasharray=""/><path fill="none" stroke="rgb(0,0,0)" class="dcg-svg-minor-gridline" paint-order="fill stroke markers" d=" M 0 74.5 L 600 74.5" stroke-opacity="0.12" stroke-miterlimit="10" stroke-dasharray=""/><path fill="none" stroke="rgb(0,0,0)" class="dcg-svg-minor-gridline" paint-order="fill stroke markers" d=" M 0 49.5 L 600 49.5" stroke-opacity="0.12" stroke-miterlimit="10" stroke-dasharray=""/><path fill="none" stroke="rgb(0,0,0)" class="dcg-svg-minor-gridline" paint-order="fill stroke markers" d=" M 0 24.5 L 600 24.5" stroke-opacity="0.12" stroke-miterlimit="10" stroke-dasharray=""/><path fill="none" stroke="rgb(0,0,0)" class="dcg-svg-minor-gridline" paint-order="fill stroke markers" d=" M 0 -0.5 L 600 -0.5" stroke-opacity="0.12" stroke-miterlimit="10" stroke-dasharray=""/><path fill="none" stroke="rgb(0,0,0)" class="dcg-svg-major-gridline" paint-order="fill stroke markers" d=" M -0.5 0 L -0.5 400" stroke-opacity="0.31818181818181823" stroke-miterlimit="10" stroke-dasharray=""/><path fill="none" stroke="rgb(0,0,0)" class="dcg-svg-major-gridline" paint-order="fill stroke markers" d=" M 99.5 0 L 99.5 400" stroke-opacity="0.31818181818181823" stroke-miterlimit="10" stroke-dasharray=""/><path fill="none" stroke="rgb(0,0,0)" class="dcg-svg-major-gridline" paint-order="fill stroke markers" d=" M 199.5 0 L 199.5 400" stroke-opacity="0.31818181818181823" stroke-miterlimit="10" stroke-dasharray=""/><path fill="none" stroke="rgb(0,0,0)" class="dcg-svg-major-gridline" paint-order="fill stroke markers" d=" M 399.5 0 L 399.5 400" stroke-opacity="0.31818181818181823" stroke-miterlimit="10" stroke-dasharray=""/><path fill="none" stroke="rgb(0,0,0)" class="dcg-svg-major-gridline" paint-order="fill stroke markers" d=" M 499.5 0 L 499.5 400" stroke-opacity="0.31818181818181823" stroke-miterlimit="10" stroke-dasharray=""/><path fill="none" stroke="rgb(0,0,0)" class="dcg-svg-major-gridline" paint-order="fill stroke markers" d=" M 0 224.5 L 600 224.5" stroke-opacity="0.31818181818181823" stroke-miterlimit="10" stroke-dasharray=""/><path fill="none" stroke="rgb(0,0,0)" class="dcg-svg-major-gridline" paint-order="fill stroke markers" d=" M 0 124.5 L 600 124.5" stroke-opacity="0.31818181818181823" stroke-miterlimit="10" stroke-dasharray=""/><path fill="none" stroke="rgb(0,0,0)" class="dcg-svg-major-gridline" paint-order="fill stroke markers" d=" M 0 24.5 L 600 24.5" stroke-opacity="0.31818181818181823" stroke-miterlimit="10" stroke-dasharray=""/></g></g><g id="axis-db8ea5a0"><g id="yaxis-db8ea5a0"><title>Y axis</title><path fill="none" stroke="rgb(0,0,0)" class="dcg-svg-axis-line" paint-order="fill stroke markers" d=" M 299.75 0 L 299.75 400" stroke-opacity="0.9" stroke-miterlimit="10" stroke-width="1.5" stroke-dasharray=""/></g><g id="xaxis-db8ea5a0"><title>X axis</title><path fill="none" stroke="rgb(0,0,0)" class="dcg-svg-axis-line" paint-order="fill stroke markers" d=" M 0 324.75 L 600 324.75" stroke-opacity="0.9" stroke-miterlimit="10" stroke-width="1.5" stroke-dasharray=""/></g><g/></g></g><g id="expressions-db8ea5a0"><g id="sketch-db8ea5a0"><title>Expression 1</title><path fill="#2d70b3" stroke="none" paint-order="stroke fill markers" d="" fill-opacity="0.4"/><g><path fill="none" stroke="#2d70b3" class="dcg-svg-curve" paint-order="fill stroke markers" d=" M 44.500000000000014 253.68899999999985 L 44.500000000000014 253.68899999999985 L 48.45486935866984 230.36716772832077 L 52.40973871733971 208.80078351923615 L 56.218131433095834 189.63091048281225 L 60.026524148851955 171.97011346402266 L 63.68844022169439 156.35874085401502 L 67.35035629453682 142.04020412399615 L 70.8657957244656 129.46519648847993 L 74.38123515439433 117.99377624101874 L 77.89667458432307 107.58388843773054 L 81.26563737133806 98.5655358802183 L 84.63460015835315 90.44818973240615 L 87.85708630245449 83.49428338563484 L 91.07957244655583 77.30196268977244 L 94.30205859065718 71.84123970174346 L 97.37806809184482 67.28407068569646 L 100.4540775930325 63.34130396032435 L 103.53008709422012 59.98803100912721 L 106.60609659540778 57.199725294532755 L 109.53562945368175 55.04735385294737 L 112.31868566904201 53.43825613730712 L 114.95526524148852 52.28940387511096 L 117.59184481393507 51.491150828481295 L 120.08194774346798 51.04625336095239 L 122.57205067300085 50.88939771912493 L 125.20863024544738 51.02422905050446 L 127.84520981789396 51.45509599494949 L 130.62826603325416 52.21611876158664 L 133.55779889152814 53.340044349007485 L 136.63380839271574 54.85722301746932 L 140.00277117973081 56.891283105123875 L 143.66468725257326 59.513986572077954 L 147.76603325415678 62.92094099949651 L 152.30680918448138 67.21888189324329 L 157.4334916864608 72.6632643771672 L 162.85312747426764 79.01277021980013 L 168.85866983372924 86.64942780009193 L 175.74307205067302 96.02656991066948 L 184.09224069675378 108.04844827757756 L 196.39627870150437 126.47446016176605 L 213.9734758511481 152.736791695236 L 223.05502771179735 165.6396945039022 L 230.67181314330955 175.85284223699335 L 237.55621536025336 184.48369592818983 L 244.00118764845604 191.96306527629375 L 250.00673000791767 198.34915106871395 L 255.86579572446556 203.98951386763824 L 261.2854315122724 208.65298734317577 L 266.2656373713381 212.44440747350268 L 270.95288994457644 215.56320530389866 L 275.34718923198733 218.0787404656221 L 279.5950118764846 220.1255905252451 L 283.5498812351544 221.68476969269213 L 287.50475059382427 222.90494714019854 L 291.31314330958037 223.75608060367563 L 294.9750593824228 224.27257355638656 L 298.63697545526526 224.49172441678988 L 302.29889152810773 224.4129687567454 L 305.96080760095015 224.03650937225655 L 309.62272367379256 223.36331628346997 L 313.43111638954866 222.35029604516924 L 317.2395091053048 221.0210477254025 L 321.19437846397466 219.30997851596018 L 325.29572446555824 217.1851680773146 L 329.6900237529691 214.52059955394753 L 334.23079968329375 211.35612607118557 L 339.06452889944575 207.54281422727004 L 344.19121140142516 203.0169246648113 L 349.7573238321457 197.5697326468394 L 355.7628661916073 191.1090795135742 L 362.06136183689625 183.73529801907756 L 368.79928741092635 175.24017944026286 L 376.12311955661124 165.39350059086473 L 384.47228820269197 153.54257317385833 L 395.1650831353919 137.7031260205893 L 420.35906571654783 100.13196789270393 L 428.12232779097394 89.33780717908786 L 434.7137767220903 80.78207515923845 L 440.42636579572445 73.9513990627031 L 445.69952494061755 68.2274540274563 L 450.53325415676966 63.54950768228821 L 454.9275534441805 59.831177531901744 L 458.88242280285044 56.96715630699731 L 462.3978622327791 54.83991058051936 L 465.6203483768805 53.26256607685025 L 468.69635787806817 52.1116429013922 L 471.4794140934283 51.38652452642509 L 474.11599366587495 50.99137205060066 L 476.7525732383214 50.89393488553708 L 479.2426761678543 51.08767243289833 L 481.73277909738715 51.57099408397511 L 484.22288202691993 52.35582295396358 L 486.71298495645283 53.45424620113897 L 489.3495645288994 54.97270749825475 L 492.1326207442598 56.98813770735637 L 495.06215360253367 59.586455562887636 L 498.13816310372135 62.86343397122778 L 501.214172604909 66.72663292651868 L 504.2901821060966 71.20091030970059 L 507.3661916072843 76.31150598064221 L 510.4422011084719 82.08404177813986 L 513.6646872525732 88.86977067643278 L 516.8871733966745 96.44087335722986 L 520.109659540776 104.82815791864414 L 523.4786223277911 114.50330114595414 L 526.847585114806 125.14095667252434 L 530.3630245447348 137.3071408392733 L 533.8784639746635 150.6039131487917 L 537.3939034045923 165.0743933292638 L 541.0558194774346 181.44309249191267 L 544.7177355502771 199.18307199800117 L 548.5261282660333 219.1421277761459 L 552.3345209817894 240.69776059430473 L 556.2893903404591 264.8357297085714 L 560.2442596991291 290.8264841840086 L 564.3456057007126 319.80988557126784 L 568.4469517022961 350.9366670533004 L 572.6947743467935 385.5185081252306 L 574.9854277737153 405.5" stroke-linecap="round" stroke-linejoin="round" stroke-miterlimit="10" stroke-width="2.5" stroke-opacity="0.9" stroke-dasharray=""/></g></g><g id="sketch-db8ea5a0"><title>Expression 2</title><path fill="#388c46" stroke="none" paint-order="stroke fill markers" d="" fill-opacity="0.4"/><path fill="#388c46" stroke="none" paint-order="stroke fill markers" d="" fill-opacity="0.4"/><path fill="#388c46" stroke="none" class="dcg-svg-region" paint-order="stroke fill markers" d=" M 44.500000000000014 324.5 L 564.9823667707293 324.5 L 564.9823667707293 324.4999999999999 L 564.05078125 317.655848026654 L 559.94921875 288.8220616284816 L 555.994140625 262.97055789819024 L 552.0390625 238.96697788545865 L 548.23046875 217.53622474093575 L 544.421875 197.69766316562894 L 540.759765625 180.06946407604303 L 537.09765625 163.80860058302645 L 533.58203125 149.43798164781768 L 530.06640625 136.23753297320224 L 526.697265625 124.64529145272724 L 523.328125 114.050829268992 L 519.958984375 104.41734902266217 L 516.736328125 96.06850136751933 L 513.513671875 88.53446921548499 L 510.4375 82.0747013092041 L 507.361328125 76.3029099440264 L 504.28515625 71.19308777796687 L 501.208984375 66.71960952862901 L 498.1328125 62.85723197320476 L 495.056640625 59.58109394847452 L 492.126953125 56.98359117737891 L 489.34375 54.96894609928131 L 486.70703125 53.45123623442487 L 484.216796875 52.353527761990335 L 481.7265625 51.56941703567287 L 479.236328125 51.086815388227535 L 476.74609375 50.893798230128596 L 474.109375 50.99199698120361 L 471.47265625 51.38790819505817 L 468.689453125 52.11382257763216 L 465.61328125 53.26561752185813 L 462.390625 54.84386370331055 L 458.875 56.97207641601568 L 454.919921875 59.8371606405654 L 450.525390625 63.556635658280356 L 445.69140625 68.23579040533514 L 440.41796875 73.96098430213169 L 434.705078125 80.79292142920349 L 428.259765625 89.15306213657641 L 420.49609375 99.93605027152807 L 395.154296875 137.71934092346964 L 384.4609375 153.55905382940546 L 376.111328125 165.4098055090817 L 368.787109375 175.25605048777106 L 362.048828125 183.75053954641953 L 355.75 191.12353515625 L 349.744140625 197.5832645510327 L 344.177734375 203.02945212457598 L 339.05078125 207.5542940799205 L 334.216796875 211.36651429533413 L 329.67578125 214.5298739563732 L 325.28125 217.19328653812408 L 321.1796875 219.31695203343406 L 317.224609375 221.0268598273633 L 313.416015625 222.35493942567882 L 309.607421875 223.36674455127832 L 305.9453125 224.0387284294702 L 302.283203125 224.41394156030765 L 298.62109375 224.4914170372358 L 294.958984375 224.27095533985448 L 291.296875 223.7531243339181 L 287.48828125 222.90057429522858 L 283.533203125 221.67890329565307 L 279.578125 220.1182125583291 L 275.330078125 218.0697248076849 L 270.935546875 215.55248703585858 L 266.248046875 212.43187226482587 L 261.267578125 208.63853148457747 L 255.84765625 203.97299358333112 L 249.98828125 198.33044783622609 L 243.982421875 191.94219971814346 L 237.537109375 184.46062267085108 L 230.65234375 175.82757549072267 L 223.03515625 165.61224807697 L 214.099609375 152.92035307411606 L 196.375 126.44229125976562 L 184.0703125 108.01618109503761 L 175.720703125 95.99520480329556 L 168.8359375 86.6194794983603 L 162.830078125 78.98460438864458 L 157.41015625 72.63717974247993 L 152.283203125 67.19520742259374 L 147.7421875 62.899781493935734 L 143.640625 59.495422102510986 L 139.978515625 56.87530706691365 L 136.609375 54.84386370331055 L 133.533203125 53.32927831168678 L 130.603515625 52.208009560674384 L 127.8203125 51.4496849016287 L 125.18359375 51.0215349420032 L 122.546875 50.8895813003183 L 120.056640625 51.04930605008303 L 117.56640625 51.49722318342543 L 114.9296875 52.298841579351574 L 112.29296875 53.45123623442487 L 109.509765625 55.06426997362905 L 106.580078125 57.22100851981122 L 103.50390625 60.01415336682112 L 100.427734375 63.37253226429493 L 97.3515625 67.32067889580503 L 94.275390625 71.88350900451223 L 91.052734375 77.35047221413151 L 87.830078125 83.54935825260509 L 84.607421875 90.51016365683796 L 81.23828125 98.63508870304213 L 77.869140625 107.66140444520903 L 74.353515625 118.08002236121143 L 70.837890625 129.560613893229 L 67.322265625 142.14524580162288 L 63.66015625 156.4743023988849 L 59.998046875 172.09671304223048 L 56.189453125 189.76955415692103 L 52.380859375 208.95206244513432 L 48.42578125 230.5322106596141 L 44.500000000000014 253.68899999999985" fill-opacity="0.4"/><g><path fill="none" stroke="#388c46" class="dcg-svg-curve" paint-order="fill stroke markers" d=" M 44.500000000000014 324.5 L 55.500000000000014 324.5 M 62.500000000000014 324.5 L 73.50000000000001 324.5 M 80.50000000000001 324.5 L 91.50000000000001 324.5 M 98.50000000000001 324.5 L 109.50000000000001 324.5 M 116.50000000000001 324.5 L 127.50000000000001 324.5 M 134.5 324.5 L 145.5 324.5 M 152.5 324.5 L 163.5 324.5 M 170.5 324.5 L 181.5 324.5 M 188.5 324.5 L 199.5 324.5 M 206.5 324.5 L 217.5 324.5 M 224.5 324.5 L 235.5 324.5 M 242.5 324.5 L 253.5 324.5 M 260.5 324.5 L 271.5 324.5 M 278.5 324.5 L 289.5 324.5 M 296.5 324.5 L 307.5 324.5 M 314.5 324.5 L 325.5 324.5 M 332.5 324.5 L 343.5 324.5 M 350.5 324.5 L 361.5 324.5 M 368.5 324.5 L 379.5 324.5 M 386.5 324.5 L 397.5 324.5 M 404.5 324.5 L 415.5 324.5 M 422.5 324.5 L 433.5 324.5 M 440.5 324.5 L 451.5 324.5 M 458.5 324.5 L 469.5 324.5 M 476.5 324.5 L 487.5 324.5 M 494.5 324.5 L 505.5 324.5 M 512.5 324.5 L 523.5 324.5 M 530.5 324.5 L 541.5 324.5 M 548.5 324.5 L 559.5 324.5" stroke-linecap="round" stroke-linejoin="round" stroke-miterlimit="10" stroke-width="2.5" stroke-opacity="0.9" stroke-dasharray=""/></g><g><path fill="none" stroke="#388c46" class="dcg-svg-curve" paint-order="fill stroke markers" d=" M 44.500000000000014 253.68899999999985 L 46.33860103968893 242.843745451726 M 47.50861988312734 235.94221983009717 L 48.42578125 230.5322106596141 M 48.42578125 230.5322106596141 L 49.419580641339685 225.10972910987982 M 50.68147987225863 218.2244106473099 L 52.380859375 208.95206244513432 M 52.380859375 208.95206244513432 L 52.687232691362425 207.40897093520113 M 54.050439433902305 200.54299195350492 L 56.189453125 189.76955415692103 M 56.189453125 189.76955415692103 L 56.192880547882226 189.7536500453233 M 57.667563335195744 182.91074783377582 L 59.98492200097414 172.15761578705838 M 61.58141833166323 165.34211437682464 L 63.66015625 156.4743023988849 M 63.66015625 156.4743023988849 L 64.12859229810563 154.6414115815528 M 65.86188651356493 147.85939925756995 L 67.322265625 142.14524580162288 M 67.322265625 142.14524580162288 L 68.69504356523899 137.23121058174848 M 70.5784427726265 130.48934085402368 L 70.837890625 129.560613893229 M 70.837890625 129.560613893229 L 73.77637253405128 119.96473534473735 M 75.9613799000648 113.31508766462396 L 77.869140625 107.66140444520903 M 77.869140625 107.66140444520903 L 79.62918091195873 102.9460538210351 M 82.15701284815697 96.4195013460719 L 84.607421875 90.51016365683796 M 84.607421875 90.51016365683796 L 86.54117687310728 86.33333212499605 M 89.64384207886742 80.06052321141341 L 91.052734375 77.35047221413151 M 91.052734375 77.35047221413151 L 94.275390625 71.88350900451223 M 94.275390625 71.88350900451223 L 95.16951184775046 70.55727516525386 M 99.25473953104157 64.8780253999648 L 100.427734375 63.37253226429493 M 100.427734375 63.37253226429493 L 103.50390625 60.01415336682112 M 103.50390625 60.01415336682112 L 106.580078125 57.22100851981122 M 106.580078125 57.22100851981122 L 106.88782244579107 56.994457381159485 M 112.77619017899468 53.24004124368482 L 114.9296875 52.298841579351574 M 114.9296875 52.298841579351574 L 117.56640625 51.49722318342543 M 117.56640625 51.49722318342543 L 120.056640625 51.04930605008303 M 120.056640625 51.04930605008303 L 122.546875 50.8895813003183 M 122.546875 50.8895813003183 L 123.41416740285695 50.93298463674264 M 130.28747950295076 52.12190086729646 L 130.603515625 52.208009560674384 M 130.603515625 52.208009560674384 L 133.533203125 53.32927831168678 M 133.533203125 53.32927831168678 L 136.609375 54.84386370331055 M 136.609375 54.84386370331055 L 139.978515625 56.87530706691365 M 139.978515625 56.87530706691365 L 140.11880950601812 56.97568257988093 M 145.69482493241645 61.200439356736915 L 147.7421875 62.899781493935734 M 147.7421875 62.899781493935734 L 152.283203125 67.19520742259374 M 152.283203125 67.19520742259374 L 153.71537950122985 68.71538207732843 M 158.45684230319654 73.86298354631363 L 162.830078125 78.98460438864458 M 162.830078125 78.98460438864458 L 165.46717988054593 82.3369876693812 M 169.7541242307789 87.86987305353954 L 175.720703125 95.99520480329556 M 175.720703125 95.99520480329556 L 176.24512436499498 96.75021680562237 M 180.23844649554397 102.49942356496472 L 184.0703125 108.01618109503761 M 184.0703125 108.01618109503761 L 186.44886291844796 111.57802954041115 M 190.336271838217 117.39937404924245 L 196.375 126.44229125976562 M 196.375 126.44229125976562 L 196.44517483175608 126.54712254229136 M 200.33910638344045 132.36410604500105 L 206.4581416789445 141.50508012068772 M 210.3520732306289 147.32206362339744 L 214.099609375 152.92035307411606 M 214.099609375 152.92035307411606 L 216.55380977642608 156.40625653885076 M 220.58353433808324 162.1300070537821 L 223.03515625 165.61224807697 M 223.03515625 165.61224807697 L 227.0649237915531 171.0165255531747 M 231.27502132554596 176.6083725694462 L 237.537109375 184.46062267085108 M 237.537109375 184.46062267085108 L 238.16141608197108 185.18530417067683 M 242.7302352787708 190.48868904705103 L 243.982421875 191.94219971814346 M 243.982421875 191.94219971814346 L 249.98828125 198.33044783622609 M 249.98828125 198.33044783622609 L 250.2140020163843 198.54781568696018 M 255.25616412437975 203.4033899348422 L 255.84765625 203.97299358333112 M 255.84765625 203.97299358333112 L 261.267578125 208.63853148457747 M 261.267578125 208.63853148457747 L 263.6759844960027 210.4728781216354 M 269.3836210864898 214.5193216941687 L 270.935546875 215.55248703585858 M 270.935546875 215.55248703585858 L 275.330078125 218.0697248076849 M 275.330078125 218.0697248076849 L 278.9971771458888 219.83806862443953 M 285.54268738452095 222.29960624168152 L 287.48828125 222.90057429522858 M 287.48828125 222.90057429522858 L 291.296875 223.7531243339181 M 291.296875 223.7531243339181 L 294.958984375 224.27095533985448 M 294.958984375 224.27095533985448 L 296.3188391334281 224.3528196037352 M 303.3084841420219 224.3088931139092 L 305.9453125 224.0387284294702 M 305.9453125 224.0387284294702 L 309.607421875 223.36674455127832 M 309.607421875 223.36674455127832 L 313.416015625 222.35493942567882 M 313.416015625 222.35493942567882 L 314.06320886562975 222.12925924147748 M 320.576658751946 219.57766080420225 L 321.1796875 219.31695203343406 M 321.1796875 219.31695203343406 L 325.28125 217.19328653812408 M 325.28125 217.19328653812408 L 329.67578125 214.5298739563732 M 329.67578125 214.5298739563732 L 330.15631942044286 214.19512173583476 M 335.8275783750328 210.09620530782544 L 339.05078125 207.5542940799205 M 339.05078125 207.5542940799205 L 344.177734375 203.02945212457598 M 344.177734375 203.02945212457598 L 344.2184522624567 202.98961362865455 M 349.2219353902722 198.09419162542898 L 349.744140625 197.5832645510327 M 349.744140625 197.5832645510327 L 355.75 191.12353515625 M 355.75 191.12353515625 L 356.6912477192368 190.0217722308335 M 361.2380914841631 184.69953475235224 L 362.048828125 183.75053954641953 M 362.048828125 183.75053954641953 L 368.1092769466414 176.11054734426386 M 372.31402863690334 170.51466956263712 L 376.111328125 165.4098055090817 M 376.111328125 165.4098055090817 L 378.78246230352545 161.61861643290996 M 382.81420677816493 155.8962885419888 L 384.4609375 153.55905382940546 M 384.4609375 153.55905382940546 L 389.01601089488776 146.81177710276984 M 392.9327116884198 141.01010019915432 L 395.154296875 137.71934092346964 M 395.154296875 137.71934092346964 L 399.0699295806112 131.881337827947 M 402.969106688406 126.0678691661196 L 409.09638500065495 116.93241841181944 M 412.99556210844975 111.11894974999207 L 419.1228404206987 101.9834989956919 M 423.1457027251505 96.256000083767 L 428.259765625 89.15306213657641 M 428.259765625 89.15306213657641 L 429.6320516035894 87.37308577829087 M 433.90603811717887 81.82934703249347 L 434.705078125 80.79292142920349 M 434.705078125 80.79292142920349 L 440.41796875 73.96098430213169 M 440.41796875 73.96098430213169 L 440.9501823294653 73.38317790223657 M 445.6926996339067 68.23453844774127 L 450.525390625 63.556635658280356 M 450.525390625 63.556635658280356 L 453.78780758162566 60.79536769197821 M 459.41653319420885 56.64425481153082 L 462.390625 54.84386370331055 M 462.390625 54.84386370331055 L 465.61328125 53.26561752185813 M 465.61328125 53.26561752185813 L 468.689453125 52.11382257763216 M 468.689453125 52.11382257763216 L 469.3187199477487 51.94969735335126 M 476.2156442220006 50.91355364816773 L 476.74609375 50.893798230128596 M 476.74609375 50.893798230128596 L 479.236328125 51.086815388227535 M 479.236328125 51.086815388227535 L 481.7265625 51.56941703567287 M 481.7265625 51.56941703567287 L 484.216796875 52.353527761990335 M 484.216796875 52.353527761990335 L 486.70703125 53.45123623442487 M 486.70703125 53.45123623442487 L 486.79604579637567 53.502473498600295 M 492.59426908049744 57.39792017642121 L 495.056640625 59.58109394847452 M 495.056640625 59.58109394847452 L 498.1328125 62.85723197320476 M 498.1328125 62.85723197320476 L 500.1358694206744 65.37222866618048 M 504.1992721980615 71.06819214341728 L 504.28515625 71.19308777796687 M 504.28515625 71.19308777796687 L 507.361328125 76.3029099440264 M 507.361328125 76.3029099440264 L 509.65849953796686 80.61307032012539 M 512.7350079766569 86.89932389048697 L 513.513671875 88.53446921548499 M 513.513671875 88.53446921548499 L 516.736328125 96.06850136751933 M 516.736328125 96.06850136751933 L 517.0944810494126 96.99635838086488 M 519.615210352652 103.52674303873842 L 519.958984375 104.41734902266217 M 519.958984375 104.41734902266217 L 523.2752092896272 113.89952586336561 M 525.4009307843933 120.56888978983548 L 526.697265625 124.64529145272724 M 526.697265625 124.64529145272724 L 528.5734250143589 131.1006149886381 M 530.491176988037 137.83245971480156 L 533.3220870293288 148.46194457240932 M 535.0054336356025 155.25634204602855 L 537.09765625 163.80860058302645 M 537.09765625 163.80860058302645 L 537.580032137146 165.95049413398127 M 539.1179825750264 172.77945514211592 L 540.759765625 180.06946407604303 M 540.759765625 180.06946407604303 L 541.4772358752563 183.52313165318142 M 542.9010282395884 190.376803319031 L 544.421875 197.69766316562894 M 544.421875 197.69766316562894 L 545.0860580783079 201.15732249429556 M 546.4058129531476 208.0317858966519 L 548.23046875 217.53622474093575 M 548.23046875 217.53622474093575 L 548.4617848415804 218.83782800513714 M 549.686607331582 225.72983858754242 L 551.6113283872987 236.56014093132217 M 552.7796794230835 243.46182147897636 L 554.5680394427179 254.31547378776963 M 555.7060867279398 261.2223434388199 L 555.994140625 262.97055789819024 M 555.994140625 262.97055789819024 L 557.3897464134421 272.09263010654314 M 558.4483739527682 279.01211764052863 L 559.94921875 288.8220616284816 M 559.94921875 288.8220616284816 L 560.1007401946794 289.88725007084406 M 561.0865557486323 296.8174858311616 L 562.6356944762729 307.70785631166063 M 563.6215100302259 314.6380920719782 L 564.05078125 317.655848026654 M 564.05078125 317.655848026654 L 564.9823667707293 324.4999999999999" stroke-linecap="round" stroke-linejoin="round" stroke-miterlimit="10" stroke-width="2.5" stroke-opacity="0.9" stroke-dasharray=""/></g></g></g><g id="labels-db8ea5a0"/></g></svg>