<svg version="1.1" xmlns="http://www.w3.org/2000/svg" xmlns:xlink="http://www.w3.org/1999/xlink" width="600" height="400"><defs/><g transform="scale(1,1)"><g id="background-01b4d077"><rect fill="white" stroke="none" x="0" y="0" width="600" height="400" class="dcg-svg-background"/></g><g id="background-images-01b4d077"/><g id="graphpaper-01b4d077"><g id="grid-01b4d077"><g><path fill="none" stroke="rgb(0,0,0)" class="dcg-svg-minor-gridline" paint-order="fill stroke markers" d=" M 8.5 0 L 8.5 400" stroke-opacity="0.12" stroke-miterlimit="10" stroke-dasharray=""/><path fill="none" stroke="rgb(0,0,0)" class="dcg-svg-minor-gridline" paint-order="fill stroke markers" d=" M 25.5 0 L 25.5 400" stroke-opacity="0.12" stroke-miterlimit="10" stroke-dasharray=""/><path fill="none" stroke="rgb(0,0,0)" class="dcg-svg-minor-gridline" paint-order="fill stroke markers" d=" M 59.5 0 L 59.5 400" stroke-opacity="0.12" stroke-miterlimit="10" stroke-dasharray=""/><path fill="none" stroke="rgb(0,0,0)" class="dcg-svg-minor-gridline" paint-order="fill stroke markers" d=" M 76.5 0 L 76.5 400" stroke-opacity="0.12" stroke-miterlimit="10" stroke-dasharray=""/><path fill="none" stroke="rgb(0,0,0)" class="dcg-svg-minor-gridline" paint-order="fill stroke markers" d=" M 93.5 0 L 93.5 400" stroke-opacity="0.12" stroke-miterlimit="10" stroke-dasharray=""/><path fill="none" stroke="rgb(0,0,0)" class="dcg-svg-minor-gridline" paint-order="fill stroke markers" d=" M 110.5 0 L 110.5 400" stroke-opacity="0.12" stroke-miterlimit="10" stroke-dasharray=""/><path fill="none" stroke="rgb(0,0,0)" class="dcg-svg-minor-gridline" paint-order="fill stroke markers" d=" M 128.5 0 L 128.5 400" stroke-opacity="0.12" stroke-miterlimit="10" stroke-dasharray=""/><path fill="none" stroke="rgb(0,0,0)" class="dcg-svg-minor-gridline" paint-order="fill stroke markers" d=" M 145.5 0 L 145.5 400" stroke-opacity="0.12" stroke-miterlimit="10" stroke-dasharray=""/><path fill="none" stroke="rgb(0,0,0)" class="dcg-svg-minor-gridline" paint-order="fill stroke markers" d=" M 162.5 0 L 162.5 400" stroke-opacity="0.12" stroke-miterlimit="10" stroke-dasharray=""/><path fill="none" stroke="rgb(0,0,0)" class="dcg-svg-minor-gridline" paint-order="fill stroke markers" d=" M 179.5 0 L 179.5 400" stroke-opacity="0.12" stroke-miterlimit="10" stroke-dasharray=""/><path fill="none" stroke="rgb(0,0,0)" class="dcg-svg-minor-gridline" paint-order="fill stroke markers" d=" M 196.5 0 L 196.5 400" stroke-opacity="0.12" stroke-miterlimit="10" stroke-dasharray=""/><path fill="none" stroke="rgb(0,0,0)" class="dcg-svg-minor-gridline" paint-order="fill stroke markers" d=" M 213.5 0 L 213.5 400" stroke-opacity="0.12" stroke-miterlimit="10" stroke-dasharray=""/><path fill="none" stroke="rgb(0,0,0)" class="dcg-svg-minor-gridline" paint-order="fill stroke markers" d=" M 230.5 0 L 230.5 400" stroke-opacity="0.12" stroke-miterlimit="10" stroke-dasharray=""/><path fill="none" stroke="rgb(0,0,0)" class="dcg-svg-minor-gridline" paint-order="fill stroke markers" d=" M 248.5 0 L 248.5 400" stroke-opacity="0.12" stroke-miterlimit="10" stroke-dasharray=""/><path fill="none" stroke="rgb(0,0,0)" class="dcg-svg-minor-gridline" paint-order="fill stroke markers" d=" M 265.5 0 L 265.5 400" stroke-opacity="0.12" stroke-miterlimit="10" stroke-dasharray=""/><path fill="none" stroke="rgb(0,0,0)" class="dcg-svg-minor-gridline" paint-order="fill stroke markers" d=" M 282.5 0 L 282.5 400" stroke-opacity="0.12" stroke-miterlimit="10" stroke-dasharray=""/><path fill="none" stroke="rgb(0,0,0)" class="dcg-svg-minor-gridline" paint-order="fill stroke markers" d=" M 299.5 0 L 299.5 400" stroke-opacity="0.12" stroke-miterlimit="10" stroke-dasharray=""/><path fill="none" stroke="rgb(0,0,0)" class="dcg-svg-minor-gridline" paint-order="fill stroke markers" d=" M 316.5 0 L 316.5 400" stroke-opacity="0.12" stroke-miterlimit="10" stroke-dasharray=""/><path fill="none" stroke="rgb(0,0,0)" class="dcg-svg-minor-gridline" paint-order="fill stroke markers" d=" M 333.5 0 L 333.5 400" stroke-opacity="0.12" stroke-miterlimit="10" stroke-dasharray=""/><path fill="none" stroke="rgb(0,0,0)" class="dcg-svg-minor-gridline" paint-order="fill stroke markers" d=" M 350.5 0 L 350.5 400" stroke-opacity="0.12" stroke-miterlimit="10" stroke-dasharray=""/><path fill="none" stroke="rgb(0,0,0)" class="dcg-svg-minor-gridline" paint-order="fill stroke markers" d=" M 368.5 0 L 368.5 400" stroke-opacity="0.12" stroke-miterlimit="10" stroke-dasharray=""/><path fill="none" stroke="rgb(0,0,0)" class="dcg-svg-minor-gridline" paint-order="fill stroke markers" d=" M 385.5 0 L 385.5 400" stroke-opacity="0.12" stroke-miterlimit="10" stroke-dasharray=""/><path fill="none" stroke="rgb(0,0,0)" class="dcg-svg-minor-gridline" paint-order="fill stroke markers" d=" M 402.5 0 L 402.5 400" stroke-opacity="0.12" stroke-miterlimit="10" stroke-dasharray=""/><path fill="none" stroke="rgb(0,0,0)" class="dcg-svg-minor-gridline" paint-order="fill stroke markers" d=" M 419.5 0 L 419.5 400" stroke-opacity="0.12" stroke-miterlimit="10" stroke-dasharray=""/><path fill="none" stroke="rgb(0,0,0)" class="dcg-svg-minor-gridline" paint-order="fill stroke markers" d=" M 436.5 0 L 436.5 400" stroke-opacity="0.12" stroke-miterlimit="10" stroke-dasharray=""/><path fill="none" stroke="rgb(0,0,0)" class="dcg-svg-minor-gridline" paint-order="fill stroke markers" d=" M 453.5 0 L 453.5 400" stroke-opacity="0.12" stroke-miterlimit="10" stroke-dasharray=""/><path fill="none" stroke="rgb(0,0,0)" class="dcg-svg-minor-gridline" paint-order="fill stroke markers" d=" M 470.5 0 L 470.5 400" stroke-opacity="0.12" stroke-miterlimit="10" stroke-dasharray=""/><path fill="none" stroke="rgb(0,0,0)" class="dcg-svg-minor-gridline" paint-order="fill stroke markers" d=" M 488.5 0 L 488.5 400" stroke-opacity="0.12" stroke-miterlimit="10" stroke-dasharray=""/><path fill="none" stroke="rgb(0,0,0)" class="dcg-svg-minor-gridline" paint-order="fill stroke markers" d=" M 505.5 0 L 505.5 400" stroke-opacity="0.12" stroke-miterlimit="10" stroke-dasharray=""/><path fill="none" stroke="rgb(0,0,0)" class="dcg-svg-minor-gridline" paint-order="fill stroke markers" d=" M 522.5 0 L 522.5 400" stroke-opacity="0.12" stroke-miterlimit="10" stroke-dasharray=""/><path fill="none" stroke="rgb(0,0,0)" class="dcg-svg-minor-gridline" paint-order="fill stroke markers" d=" M 539.5 0 L 539.5 400" stroke-opacity="0.12" stroke-miterlimit="10" stroke-dasharray=""/><path fill="none" stroke="rgb(0,0,0)" class="dcg-svg-minor-gridline" paint-order="fill stroke markers" d=" M 556.5 0 L 556.5 400" stroke-opacity="0.12" stroke-miterlimit="10" stroke-dasharray=""/><path fill="none" stroke="rgb(0,0,0)" class="dcg-svg-minor-gridline" paint-order="fill stroke markers" d=" M 573.5 0 L 573.5 400" stroke-opacity="0.12" stroke-miterlimit="10" stroke-dasharray=""/><path fill="none" stroke="rgb(0,0,0)" class="dcg-svg-minor-gridline" paint-order="fill stroke markers" d=" M 590.5 0 L 590.5 400" stroke-opacity="0.12" stroke-miterlimit="10" stroke-dasharray=""/><path fill="none" stroke="rgb(0,0,0)" class="dcg-svg-minor-gridline" paint-order="fill stroke markers" d=" M 0 395.5 L 600 395.5" stroke-opacity="0.12" stroke-miterlimit="10" stroke-dasharray=""/><path fill="none" stroke="rgb(0,0,0)" class="dcg-svg-minor-gridline" paint-order="fill stroke markers" d=" M 0 377.5 L 600 377.5" stroke-opacity="0.12" stroke-miterlimit="10" stroke-dasharray=""/><path fill="none" stroke="rgb(0,0,0)" class="dcg-svg-minor-gridline" paint-order="fill stroke markers" d=" M 0 359.5 L 600 359.5" stroke-opacity="0.12" stroke-miterlimit="10" stroke-dasharray=""/><path fill="none" stroke="rgb(0,0,0)" class="dcg-svg-minor-gridline" paint-order="fill stroke markers" d=" M 0 341.5 L 600 341.5" stroke-opacity="0.12" stroke-miterlimit="10" stroke-dasharray=""/><path fill="none" stroke="rgb(0,0,0)" class="dcg-svg-minor-gridline" paint-order="fill stroke markers" d=" M 0 323.5 L 600 323.5" stroke-opacity="0.12" stroke-miterlimit="10" stroke-dasharray=""/><path fill="none" stroke="rgb(0,0,0)" class="dcg-svg-minor-gridline" paint-order="fill stroke markers" d=" M 0 306.5 L 600 306.5" stroke-opacity="0.12" stroke-miterlimit="10" stroke-dasharray=""/><path fill="none" stroke="rgb(0,0,0)" class="dcg-svg-minor-gridline" paint-order="fill stroke markers" d=" M 0 288.5 L 600 288.5" stroke-opacity="0.12" stroke-miterlimit="10" stroke-dasharray=""/><path fill="none" stroke="rgb(0,0,0)" class="dcg-svg-minor-gridline" paint-order="fill stroke markers" d=" M 0 270.5 L 600 270.5" stroke-opacity="0.12" stroke-miterlimit="10" stroke-dasharray=""/><path fill="none" stroke="rgb(0,0,0)" class="dcg-svg-minor-gridline" paint-order="fill stroke markers" d=" M 0 252.5 L 600 252.5" stroke-opacity="0.12" stroke-miterlimit="10" stroke-dasharray=""/><path fill="none" stroke="rgb(0,0,0)" class="dcg-svg-minor-gridline" paint-order="fill stroke markers" d=" M 0 235.5 L 600 235.5" stroke-opacity="0.12" stroke-miterlimit="10" stroke-dasharray=""/><path fill="none" stroke="rgb(0,0,0)" class="dcg-svg-minor-gridline" paint-order="fill stroke markers" d=" M 0 217.5 L 600 217.5" stroke-opacity="0.12" stroke-miterlimit="10" stroke-dasharray=""/><path fill="none" stroke="rgb(0,0,0)" class="dcg-svg-minor-gridline" paint-order="fill stroke markers" d=" M 0 181.5 L 600 181.5" stroke-opacity="0.12" stroke-miterlimit="10" stroke-dasharray=""/><path fill="none" stroke="rgb(0,0,0)" class="dcg-svg-minor-gridline" paint-order="fill stroke markers" d=" M 0 163.5 L 600 163.5" stroke-opacity="0.12" stroke-miterlimit="10" stroke-dasharray=""/><path fill="none" stroke="rgb(0,0,0)" class="dcg-svg-minor-gridline" paint-order="fill stroke markers" d=" M 0 146.5 L 600 146.5" stroke-opacity="0.12" stroke-miterlimit="10" stroke-dasharray=""/><path fill="none" stroke="rgb(0,0,0)" class="dcg-svg-minor-gridline" paint-order="fill stroke markers" d=" M 0 128.5 L 600 128.5" stroke-opacity="0.12" stroke-miterlimit="10" stroke-dasharray=""/><path fill="none" stroke="rgb(0,0,0)" class="dcg-svg-minor-gridline" paint-order="fill stroke markers" d=" M 0 110.5 L 600 110.5" stroke-opacity="0.12" stroke-miterlimit="10" stroke-dasharray=""/><path fill="none" stroke="rgb(0,0,0)" class="dcg-svg-minor-gridline" paint-order="fill stroke markers" d=" M 0 92.5 L 600 92.5" stroke-opacity="0.12" stroke-miterlimit="10" stroke-dasharray=""/><path fill="none" stroke="rgb(0,0,0)" class="dcg-svg-minor-gridline" paint-order="fill stroke markers" d=" M 0 75.5 L 600 75.5" stroke-opacity="0.12" stroke-miterlimit="10" stroke-dasharray=""/><path fill="none" stroke="rgb(0,0,0)" class="dcg-svg-minor-gridline" paint-order="fill stroke markers" d=" M 0 57.5 L 600 57.5" stroke-opacity="0.12" stroke-miterlimit="10" stroke-dasharray=""/><path fill="none" stroke="rgb(0,0,0)" class="dcg-svg-minor-gridline" paint-order="fill stroke markers" d=" M 0 39.5 L 600 39.5" stroke-opacity="0.12" stroke-miterlimit="10" stroke-dasharray=""/><path fill="none" stroke="rgb(0,0,0)" class="dcg-svg-minor-gridline" paint-order="fill stroke markers" d=" M 0 21.5 L 600 21.5" stroke-opacity="0.12" stroke-miterlimit="10" stroke-dasharray=""/><path fill="none" stroke="rgb(0,0,0)" class="dcg-svg-minor-gridline" paint-order="fill stroke markers" d=" M 0 3.5 L 600 3.5" stroke-opacity="0.12" stroke-miterlimit="10" stroke-dasharray=""/><path fill="none" stroke="rgb(0,0,0)" class="dcg-svg-major-gridline" paint-order="fill stroke markers" d=" M 128.5 0 L 128.5 400" stroke-opacity="0.31818181818181823" stroke-miterlimit="10" stroke-dasharray=""/><path fill="none" stroke="rgb(0,0,0)" class="dcg-svg-major-gridline" paint-order="fill stroke markers" d=" M 213.5 0 L 213.5 400" stroke-opacity="0.31818181818181823" stroke-miterlimit="10" stroke-dasharray=""/><path fill="none" stroke="rgb(0,0,0)" class="dcg-svg-major-gridline" paint-order="fill stroke markers" d=" M 299.5 0 L 299.5 400" stroke-opacity="0.31818181818181823" stroke-miterlimit="10" stroke-dasharray=""/><path fill="none" stroke="rgb(0,0,0)" class="dcg-svg-major-gridline" paint-order="fill stroke markers" d=" M 385.5 0 L 385.5 400" stroke-opacity="0.31818181818181823" stroke-miterlimit="10" stroke-dasharray=""/><path fill="none" stroke="rgb(0,0,0)" class="dcg-svg-major-gridline" paint-order="fill stroke markers" d=" M 470.5 0 L 470.5 400" stroke-opacity="0.31818181818181823" stroke-miterlimit="10" stroke-dasharray=""/><path fill="none" stroke="rgb(0,0,0)" class="dcg-svg-major-gridline" paint-order="fill stroke markers" d=" M 556.5 0 L 556.5 400" stroke-opacity="0.31818181818181823" stroke-miterlimit="10" stroke-dasharray=""/><path fill="none" stroke="rgb(0,0,0)" class="dcg-svg-major-gridline" paint-order="fill stroke markers" d=" M 0 377.5 L 600 377.5" stroke-opacity="0.31818181818181823" stroke-miterlimit="10" stroke-dasharray=""/><path fill="none" stroke="rgb(0,0,0)" class="dcg-svg-major-gridline" paint-order="fill stroke markers" d=" M 0 288.5 L 600 288.5" stroke-opacity="0.31818181818181823" stroke-miterlimit="10" stroke-dasharray=""/><path fill="none" stroke="rgb(0,0,0)" class="dcg-svg-major-gridline" paint-order="fill stroke markers" d=" M 0 110.5 L 600 110.5" stroke-opacity="0.31818181818181823" stroke-miterlimit="10" stroke-dasharray=""/><path fill="none" stroke="rgb(0,0,0)" class="dcg-svg-major-gridline" paint-order="fill stroke markers" d=" M 0 21.5 L 600 21.5" stroke-opacity="0.31818181818181823" stroke-miterlimit="10" stroke-dasharray=""/></g></g><g id="axis-01b4d077"><g id="yaxis-01b4d077"><title>Y axis</title><path fill="none" stroke="rgb(0,0,0)" class="dcg-svg-axis-line" paint-order="fill stroke markers" d=" M 42.75 0 L 42.75 400" stroke-opacity="0.9" stroke-miterlimit="10" stroke-width="1.5" stroke-dasharray=""/></g><g id="xaxis-01b4d077"><title>X axis</title><path fill="none" stroke="rgb(0,0,0)" class="dcg-svg-axis-line" paint-order="fill stroke markers" d=" M 0 199.75 L 600 199.75" stroke-opacity="0.9" stroke-miterlimit="10" stroke-width="1.5" stroke-dasharray=""/></g><g><g class="dcg-svg-axis-value"><text fill="none" stroke="#ffffff" font-family="Arial" font-size="14px" font-style="normal" font-weight="normal" text-decoration="normal" x="33.964076450892854" y="215.808" text-anchor="middle" stroke-miterlimit="2" stroke-width="3" stroke-dasharray="">0</text><text fill="#000000" stroke="none" font-family="Arial" font-size="14px" font-style="normal" font-weight="normal" text-decoration="normal" x="33.964076450892854" y="215.808" text-anchor="middle">0</text></g><g class="dcg-svg-axis-value"><text fill="none" stroke="#ffffff" font-family="Arial" font-size="14px" font-style="normal" font-weight="normal" text-decoration="normal" x="128.57142857142856" y="215.808" text-anchor="middle" stroke-miterlimit="2" stroke-width="3" stroke-dasharray="">1</text><text fill="#000000" stroke="none" font-family="Arial" font-size="14px" font-style="normal" font-weight="normal" text-decoration="normal" x="128.57142857142856" y="215.808" text-anchor="middle">1</text></g><g class="dcg-svg-axis-value"><text fill="none" stroke="#ffffff" font-family="Arial" font-size="14px" font-style="normal" font-weight="normal" text-decoration="normal" x="214.28571428571428" y="215.808" text-anchor="middle" stroke-miterlimit="2" stroke-width="3" stroke-dasharray="">2</text><text fill="#000000" stroke="none" font-family="Arial" font-size="14px" font-style="normal" font-weight="normal" text-decoration="normal" x="214.28571428571428" y="215.808" text-anchor="middle">2</text></g><g class="dcg-svg-axis-value"><text fill="none" stroke="#ffffff" font-family="Arial" font-size="14px" font-style="normal" font-weight="normal" text-decoration="normal" x="299.99999999999994" y="215.808" text-anchor="middle" stroke-miterlimit="2" stroke-width="3" stroke-dasharray="">3</text><text fill="#000000" stroke="none" font-family="Arial" font-size="14px" font-style="normal" font-weight="normal" text-decoration="normal" x="299.99999999999994" y="215.808" text-anchor="middle">3</text></g><g class="dcg-svg-axis-value"><text fill="none" stroke="#ffffff" font-family="Arial" font-size="14px" font-style="normal" font-weight="normal" text-decoration="normal" x="385.71428571428567" y="215.808" text-anchor="middle" stroke-miterlimit="2" stroke-width="3" stroke-dasharray="">4</text><text fill="#000000" stroke="none" font-family="Arial" font-size="14px" font-style="normal" font-weight="normal" text-decoration="normal" x="385.71428571428567" y="215.808" text-anchor="middle">4</text></g><g class="dcg-svg-axis-value"><text fill="none" stroke="#ffffff" font-family="Arial" font-size="14px" font-style="normal" font-weight="normal" text-decoration="normal" x="471.4285714285714" y="215.808" text-anchor="middle" stroke-miterlimit="2" stroke-width="3" stroke-dasharray="">5</text><text fill="#000000" stroke="none" font-family="Arial" font-size="14px" font-style="normal" font-weight="normal" text-decoration="normal" x="471.4285714285714" y="215.808" text-anchor="middle">5</text></g><g class="dcg-svg-axis-value"><text fill="none" stroke="#ffffff" font-family="Arial" font-size="14px" font-style="normal" font-weight="normal" text-decoration="normal" x="557.1428571428571" y="215.808" text-anchor="middle" stroke-miterlimit="2" stroke-width="3" stroke-dasharray="">6</text><text fill="#000000" stroke="none" font-family="Arial" font-size="14px" font-style="normal" font-weight="normal" text-decoration="normal" x="557.1428571428571" y="215.808" text-anchor="middle">6</text></g><g class="dcg-svg-axis-value"><text fill="none" stroke="#ffffff" font-family="Arial" font-size="14px" font-style="normal" font-weight="normal" text-decoration="normal" x="31.633021763392854" y="381.58577777777776" text-anchor="middle" stroke-miterlimit="2" stroke-width="3" stroke-dasharray="">-2</text><text fill="#000000" stroke="none" font-family="Arial" font-size="14px" font-style="normal" font-weight="normal" text-decoration="normal" x="31.633021763392854" y="381.58577777777776" text-anchor="middle">-2</text></g><g class="dcg-svg-axis-value"><text fill="none" stroke="#ffffff" font-family="Arial" font-size="14px" font-style="normal" font-weight="normal" text-decoration="normal" x="31.633021763392854" y="292.6968888888889" text-anchor="middle" stroke-miterlimit="2" stroke-width="3" stroke-dasharray="">-1</text><text fill="#000000" stroke="none" font-family="Arial" font-size="14px" font-style="normal" font-weight="normal" text-decoration="normal" x="31.633021763392854" y="292.6968888888889" text-anchor="middle">-1</text></g><g class="dcg-svg-axis-value"><text fill="none" stroke="#ffffff" font-family="Arial" font-size="14px" font-style="normal" font-weight="normal" text-decoration="normal" x="33.964076450892854" y="114.91911111111112" text-anchor="middle" stroke-miterlimit="2" stroke-width="3" stroke-dasharray="">1</text><text fill="#000000" stroke="none" font-family="Arial" font-size="14px" font-style="normal" font-weight="normal" text-decoration="normal" x="33.964076450892854" y="114.91911111111112" text-anchor="middle">1</text></g><g class="dcg-svg-axis-value"><text fill="none" stroke="#ffffff" font-family="Arial" font-size="14px" font-style="normal" font-weight="normal" text-decoration="normal" x="33.964076450892854" y="26.03022222222223" text-anchor="middle" stroke-miterlimit="2" stroke-width="3" stroke-dasharray="">2</text><text fill="#000000" stroke="none" font-family="Arial" font-size="14px" font-style="normal" font-weight="normal" text-decoration="normal" x="33.964076450892854" y="26.03022222222223" text-anchor="middle">2</text></g></g></g></g><g id="expressions-01b4d077"><g id="sketch-01b4d077"><title>Expression 1</title><path fill="#2d70b3" stroke="none" paint-order="stroke fill markers" d="" fill-opacity="0.4"/><g><path fill="none" stroke="#2d70b3" class="dcg-svg-curve" paint-order="fill stroke markers" d=" M 128.07142857142856 101.8065313372179 L 128.07142857142856 101.8065313372179 L 131.87917720676342 107.80672644853922 L 135.68692584209825 113.16119138689533 L 139.49467447743308 117.88913498970919 L 143.30242311276794 122.00991135269732 L 146.81726800692317 125.29169645079611 L 150.1856610304886 127.98129104463766 L 153.40760218346423 130.14982523187098 L 156.48309146585007 131.8627022937904 L 159.5585807482359 133.2379230301906 L 162.48761816003193 134.24398768709796 L 165.416655571828 134.96389285470815 L 168.34569298362402 135.40788638921475 L 171.27473039542002 135.58658606699038 L 174.20376780721608 135.51105434401904 L 177.2792570896019 135.17082540960462 L 180.50119824257754 134.5429483832491 L 183.86959126614295 133.6081857165138 L 187.38443616029818 132.35235539243916 L 191.19218479563304 130.69928119979943 L 195.4392890427373 128.54166288753254 L 200.41865264279056 125.66830994510264 L 206.8625349487418 121.57485740482639 L 219.89675143123415 113.20948911093745 L 224.29030754892824 110.80824960164932 L 227.80515244308344 109.20675068383667 L 230.88064172546927 108.10864287955621 L 233.66322726667553 107.40756870909547 L 236.15290906670214 107.04967252076835 L 238.49613899613897 106.97025666117275 L 240.8393689255758 107.16107555942733 L 243.03614698442283 107.6007926143119 L 245.23292504326986 108.30452483935215 L 247.57615497270672 109.35501821889238 L 249.91938490214352 110.71955865492475 L 252.40906670217012 112.51239077550889 L 255.19165224337638 114.92374419425892 L 258.2671415257622 118.0616364933112 L 261.7819864199174 122.19452528033588 L 265.8826387964319 127.6277397465812 L 271.15490613766474 135.290244064996 L 287.7039675143123 159.82807847516221 L 292.5368792437758 166.09024734452743 L 297.0768872320596 171.3628606888322 L 301.3239914791639 175.73029423149623 L 305.4246438556783 179.43292003038977 L 309.37884436160294 182.54660099307614 L 313.3330448675276 185.2436163606197 L 317.28724537345227 187.5613059654563 L 321.2414458793769 189.53948511689086 L 325.34209825589136 191.2748778597031 L 329.7356543735854 192.82472951872796 L 334.422114232459 194.177923113294 L 339.4014778325123 195.33328558997633 L 344.9666489149248 196.34502109207105 L 351.2640793502862 197.20985363228408 L 358.4402210091865 197.92158425886402 L 366.934429503395 198.4940475994943 L 377.4789641858607 198.93402622223903 L 391.53834376248165 199.2453015460197 L 412.9203168685927 199.4312567923622 L 457.4416855278924 199.49900995621857 L 599.5 199.5000308114807" stroke-linecap="round" stroke-linejoin="round" stroke-miterlimit="10" stroke-width="2.5" stroke-opacity="0.9" stroke-dasharray=""/></g></g><g id="sketch-01b4d077"><title>Expression 6</title><path fill="#2d70b3" stroke="none" class="dcg-svg-region" paint-order="stroke fill markers" d=" M 128.07142857142856 101.8065313372179 L 131.87917720676342 107.80672644853922 L 135.68692584209825 113.16119138689533 L 139.49467447743308 117.88913498970919 L 143.30242311276794 122.00991135269732 L 146.81726800692317 125.29169645079611 L 150.1856610304886 127.98129104463766 L 153.40760218346423 130.14982523187098 L 156.48309146585007 131.8627022937904 L 159.5585807482359 133.2379230301906 L 162.48761816003193 134.24398768709796 L 165.416655571828 134.96389285470815 L 168.34569298362402 135.40788638921475 L 171.27473039542002 135.58658606699038 L 174.20376780721608 135.51105434401904 L 177.2792570896019 135.17082540960462 L 180.50119824257754 134.5429483832491 L 183.86959126614295 133.6081857165138 L 187.38443616029818 132.35235539243916 L 191.19218479563304 130.69928119979943 L 195.4392890427373 128.54166288753254 L 200.41865264279056 125.66830994510264 L 206.8625349487418 121.57485740482639 L 219.89675143123415 113.20948911093745 L 224.29030754892824 110.80824960164932 L 227.80515244308344 109.20675068383667 L 230.88064172546927 108.10864287955621 L 233.66322726667553 107.40756870909547 L 236.15290906670214 107.04967252076835 L 238.49613899613897 106.97025666117275 L 240.8393689255758 107.16107555942733 L 243.03614698442283 107.6007926143119 L 245.23292504326986 108.30452483935215 L 247.57615497270672 109.35501821889238 L 249.91938490214352 110.71955865492475 L 252.40906670217012 112.51239077550889 L 255.19165224337638 114.92374419425892 L 258.2671415257622 118.0616364933112 L 261.7819864199174 122.19452528033588 L 265.8826387964319 127.6277397465812 L 271.15490613766474 135.290244064996 L 287.7039675143123 159.82807847516221 L 292.5368792437758 166.09024734452743 L 297.0768872320596 171.3628606888322 L 301.3239914791639 175.73029423149623 L 305.4246438556783 179.43292003038977 L 309.37884436160294 182.54660099307614 L 313.3330448675276 185.2436163606197 L 317.28724537345227 187.5613059654563 L 321.2414458793769 189.53948511689086 L 325.34209825589136 191.2748778597031 L 329.7356543735854 192.82472951872796 L 334.422114232459 194.177923113294 L 339.4014778325123 195.33328558997633 L 344.9666489149248 196.34502109207105 L 351.2640793502862 197.20985363228408 L 358.4402210091865 197.92158425886402 L 366.934429503395 198.4940475994943 L 377.4789641858607 198.93402622223903 L 391.53834376248165 199.2453015460197 L 412.9203168685927 199.4312567923622 L 457.4416855278924 199.49900995621857 L 599.5 199.5000308114807 L 599.5 399.5 L 128.07142857142856 399.5 L 128.07142857142856 101.8065313372179" fill-opacity="0.4"/><path fill="#2d70b3" stroke="none" paint-order="stroke fill markers" d="" fill-opacity="0.4"/><path fill="#2d70b3" stroke="none" paint-order="stroke fill markers" d="" fill-opacity="0.4"/><path fill="#2d70b3" stroke="none" paint-order="stroke fill markers" d="" fill-opacity="0.4"/><path fill="#2d70b3" stroke="none" paint-order="stroke fill markers" d="" fill-opacity="0.4"/><g><path fill="none" stroke="#2d70b3" class="dcg-svg-curve" paint-order="fill stroke markers" d=" M 128.07142857142856 101.8065313372179 L 131.87917720676342 107.80672644853922 M 131.87917720676342 107.80672644853922 L 134.1356467509662 110.97977914082647 M 138.39864720207996 116.52823760879275 L 139.49467447743308 117.88913498970919 M 139.49467447743308 117.88913498970919 L 143.30242311276794 122.00991135269732 M 143.30242311276794 122.00991135269732 L 145.9644082001521 124.49538745597161 M 151.44890943655594 128.8315230089909 L 153.40760218346423 130.14982523187098 M 153.40760218346423 130.14982523187098 L 156.48309146585007 131.8627022937904 M 156.48309146585007 131.8627022937904 L 159.5585807482359 133.2379230301906 M 159.5585807482359 133.2379230301906 L 161.2134026036603 133.80632061211136 M 168.02338211283126 135.3590294022207 L 168.34569298362402 135.40788638921475 M 168.34569298362402 135.40788638921475 L 171.27473039542002 135.58658606699038 M 171.27473039542002 135.58658606699038 L 174.20376780721608 135.51105434401904 M 174.20376780721608 135.51105434401904 L 177.2792570896019 135.17082540960462 M 177.2792570896019 135.17082540960462 L 178.9628479900085 134.84273498276048 M 185.6936780451204 132.9564518392685 L 187.38443616029818 132.35235539243916 M 187.38443616029818 132.35235539243916 L 191.19218479563304 130.69928119979943 M 191.19218479563304 130.69928119979943 L 195.4392890427373 128.54166288753254 M 195.4392890427373 128.54166288753254 L 195.69023206302927 128.39685565438924 M 201.7192195397787 124.842129606061 L 206.8625349487418 121.57485740482639 M 206.8625349487418 121.57485740482639 L 210.9918972307436 118.92463010852224 M 216.8829760567853 115.14373203195856 L 219.89675143123415 113.20948911093745 M 219.89675143123415 113.20948911093745 L 224.29030754892824 110.80824960164932 M 224.29030754892824 110.80824960164932 L 226.4852027655654 109.80817067355727 M 233.09527306719033 107.55066512549213 L 233.66322726667553 107.40756870909547 M 233.66322726667553 107.40756870909547 L 236.15290906670214 107.04967252076835 M 236.15290906670214 107.04967252076835 L 238.49613899613897 106.97025666117275 M 238.49613899613897 106.97025666117275 L 240.8393689255758 107.16107555942733 M 240.8393689255758 107.16107555942733 L 243.03614698442283 107.6007926143119 M 243.03614698442283 107.6007926143119 L 243.95334025084534 107.89461312821044 M 250.22519310915823 110.93977265025072 L 252.40906670217012 112.51239077550889 M 252.40906670217012 112.51239077550889 L 255.19165224337638 114.92374419425892 M 255.19165224337638 114.92374419425892 L 258.2671415257622 118.0616364933112 M 258.2671415257622 118.0616364933112 L 258.4181159974387 118.23915803975447 M 262.8709431766691 123.63735316737754 L 265.8826387964319 127.6277397465812 M 265.8826387964319 127.6277397465812 L 269.28406186964963 132.5712331812658 M 273.2234943851989 138.35740749653866 L 279.3741266503356 147.47715106415387 M 283.28816536451353 153.28062424354536 L 287.7039675143123 159.82807847516221 M 287.7039675143123 159.82807847516221 L 289.5995794417514 162.28428762295985 M 293.96741422222306 167.7516227950378 L 297.0768872320596 171.3628606888322 M 297.0768872320596 171.3628606888322 L 301.3239914791639 175.73029423149623 M 301.3239914791639 175.73029423149623 L 301.4297720981363 175.8258073384041 M 306.69552613789074 180.43365885534598 L 309.37884436160294 182.54660099307614 M 309.37884436160294 182.54660099307614 L 313.3330448675276 185.2436163606197 M 313.3330448675276 185.2436163606197 L 315.74715620553695 186.65860802445644 M 321.97214890949107 189.84871804355237 L 325.34209825589136 191.2748778597031 M 325.34209825589136 191.2748778597031 L 329.7356543735854 192.82472951872796 M 329.7356543735854 192.82472951872796 L 332.31219170095585 193.56869274738048 M 339.10167828807585 195.26372305709268 L 339.4014778325123 195.33328558997633 M 339.4014778325123 195.33328558997633 L 344.9666489149248 196.34502109207105 M 344.9666489149248 196.34502109207105 L 349.9556695036874 197.03016837448118 M 356.91566053142196 197.77037816014487 L 358.4402210091865 197.92158425886402 M 358.4402210091865 197.92158425886402 L 366.934429503395 198.4940475994943 M 366.934429503395 198.4940475994943 L 367.888082150065 198.53383947184278 M 374.88199646159893 198.82566579505647 L 377.4789641858607 198.93402622223903 M 377.4789641858607 198.93402622223903 L 385.8776785389095 199.11997415225537 M 392.8762407369065 199.25693699987727 L 403.8758247694374 199.35259844086232 M 410.87556006286616 199.41347390330736 L 412.9203168685927 199.4312567923622 M 412.9203168685927 199.4312567923622 L 421.8754723673322 199.4448848576292 M 428.8754642616525 199.4555375309879 L 439.8754515241559 199.47227744626582 M 446.8754434184762 199.4829301196245 L 457.4416855278924 199.49900995621857 M 457.4416855278924 199.49900995621857 L 457.875431183226 199.4990130731888 M 464.87543118304524 199.49906337638197 L 475.8754311827612 199.49914242425695 M 482.8754311825804 199.49919272745012 L 493.87543118229644 199.4992717753251 M 500.8754311821157 199.49932207851828 L 511.8754311818317 199.49940112639325 M 518.8754311816509 199.49945142958643 L 529.8754311813669 199.4995304774614 M 536.8754311811862 199.49958078065458 L 547.8754311809022 199.49965982852956 M 554.8754311807214 199.49971013172274 L 565.8754311804374 199.49978917959774 M 572.8754311802567 199.49983948279092 L 583.8754311799727 199.4999185306659 M 590.8754311797919 199.49996883385907 L 599.5 199.5000308114807" stroke-linecap="round" stroke-linejoin="round" stroke-miterlimit="10" stroke-width="2.5" stroke-opacity="0.9" stroke-dasharray=""/></g></g></g><g id="labels-01b4d077"/></g></svg>