<svg version="1.1" xmlns="http://www.w3.org/2000/svg" xmlns:xlink="http://www.w3.org/1999/xlink" width="600" height="400"><defs/><g transform="scale(1,1)"><g id="background-d761ea1c"><rect fill="white" stroke="none" x="0" y="0" width="600" height="400" class="dcg-svg-background"/></g><g id="background-images-d761ea1c"/><g id="graphpaper-d761ea1c"><g id="grid-d761ea1c"><g><path fill="none" stroke="rgb(0,0,0)" class="dcg-svg-minor-gridline" paint-order="fill stroke markers" d=" M -0.5 0 L -0.5 400" stroke-opacity="0.12" stroke-miterlimit="10" stroke-dasharray=""/><path fill="none" stroke="rgb(0,0,0)" class="dcg-svg-minor-gridline" paint-order="fill stroke markers" d=" M 29.5 0 L 29.5 400" stroke-opacity="0.12" stroke-miterlimit="10" stroke-dasharray=""/><path fill="none" stroke="rgb(0,0,0)" class="dcg-svg-minor-gridline" paint-order="fill stroke markers" d=" M 59.5 0 L 59.5 400" stroke-opacity="0.12" stroke-miterlimit="10" stroke-dasharray=""/><path fill="none" stroke="rgb(0,0,0)" class="dcg-svg-minor-gridline" paint-order="fill stroke markers" d=" M 89.5 0 L 89.5 400" stroke-opacity="0.12" stroke-miterlimit="10" stroke-dasharray=""/><path fill="none" stroke="rgb(0,0,0)" class="dcg-svg-minor-gridline" paint-order="fill stroke markers" d=" M 119.5 0 L 119.5 400" stroke-opacity="0.12" stroke-miterlimit="10" stroke-dasharray=""/><path fill="none" stroke="rgb(0,0,0)" class="dcg-svg-minor-gridline" paint-order="fill stroke markers" d=" M 149.5 0 L 149.5 400" stroke-opacity="0.12" stroke-miterlimit="10" stroke-dasharray=""/><path fill="none" stroke="rgb(0,0,0)" class="dcg-svg-minor-gridline" paint-order="fill stroke markers" d=" M 179.5 0 L 179.5 400" stroke-opacity="0.12" stroke-miterlimit="10" stroke-dasharray=""/><path fill="none" stroke="rgb(0,0,0)" class="dcg-svg-minor-gridline" paint-order="fill stroke markers" d=" M 209.5 0 L 209.5 400" stroke-opacity="0.12" stroke-miterlimit="10" stroke-dasharray=""/><path fill="none" stroke="rgb(0,0,0)" class="dcg-svg-minor-gridline" paint-order="fill stroke markers" d=" M 239.5 0 L 239.5 400" stroke-opacity="0.12" stroke-miterlimit="10" stroke-dasharray=""/><path fill="none" stroke="rgb(0,0,0)" class="dcg-svg-minor-gridline" paint-order="fill stroke markers" d=" M 269.5 0 L 269.5 400" stroke-opacity="0.12" stroke-miterlimit="10" stroke-dasharray=""/><path fill="none" stroke="rgb(0,0,0)" class="dcg-svg-minor-gridline" paint-order="fill stroke markers" d=" M 329.5 0 L 329.5 400" stroke-opacity="0.12" stroke-miterlimit="10" stroke-dasharray=""/><path fill="none" stroke="rgb(0,0,0)" class="dcg-svg-minor-gridline" paint-order="fill stroke markers" d=" M 359.5 0 L 359.5 400" stroke-opacity="0.12" stroke-miterlimit="10" stroke-dasharray=""/><path fill="none" stroke="rgb(0,0,0)" class="dcg-svg-minor-gridline" paint-order="fill stroke markers" d=" M 389.5 0 L 389.5 400" stroke-opacity="0.12" stroke-miterlimit="10" stroke-dasharray=""/><path fill="none" stroke="rgb(0,0,0)" class="dcg-svg-minor-gridline" paint-order="fill stroke markers" d=" M 419.5 0 L 419.5 400" stroke-opacity="0.12" stroke-miterlimit="10" stroke-dasharray=""/><path fill="none" stroke="rgb(0,0,0)" class="dcg-svg-minor-gridline" paint-order="fill stroke markers" d=" M 449.5 0 L 449.5 400" stroke-opacity="0.12" stroke-miterlimit="10" stroke-dasharray=""/><path fill="none" stroke="rgb(0,0,0)" class="dcg-svg-minor-gridline" paint-order="fill stroke markers" d=" M 479.5 0 L 479.5 400" stroke-opacity="0.12" stroke-miterlimit="10" stroke-dasharray=""/><path fill="none" stroke="rgb(0,0,0)" class="dcg-svg-minor-gridline" paint-order="fill stroke markers" d=" M 509.5 0 L 509.5 400" stroke-opacity="0.12" stroke-miterlimit="10" stroke-dasharray=""/><path fill="none" stroke="rgb(0,0,0)" class="dcg-svg-minor-gridline" paint-order="fill stroke markers" d=" M 539.5 0 L 539.5 400" stroke-opacity="0.12" stroke-miterlimit="10" stroke-dasharray=""/><path fill="none" stroke="rgb(0,0,0)" class="dcg-svg-minor-gridline" paint-order="fill stroke markers" d=" M 569.5 0 L 569.5 400" stroke-opacity="0.12" stroke-miterlimit="10" stroke-dasharray=""/><path fill="none" stroke="rgb(0,0,0)" class="dcg-svg-minor-gridline" paint-order="fill stroke markers" d=" M 0 370.5 L 600 370.5" stroke-opacity="0.12" stroke-miterlimit="10" stroke-dasharray=""/><path fill="none" stroke="rgb(0,0,0)" class="dcg-svg-minor-gridline" paint-order="fill stroke markers" d=" M 0 342.5 L 600 342.5" stroke-opacity="0.12" stroke-miterlimit="10" stroke-dasharray=""/><path fill="none" stroke="rgb(0,0,0)" class="dcg-svg-minor-gridline" paint-order="fill stroke markers" d=" M 0 313.5 L 600 313.5" stroke-opacity="0.12" stroke-miterlimit="10" stroke-dasharray=""/><path fill="none" stroke="rgb(0,0,0)" class="dcg-svg-minor-gridline" paint-order="fill stroke markers" d=" M 0 285.5 L 600 285.5" stroke-opacity="0.12" stroke-miterlimit="10" stroke-dasharray=""/><path fill="none" stroke="rgb(0,0,0)" class="dcg-svg-minor-gridline" paint-order="fill stroke markers" d=" M 0 256.5 L 600 256.5" stroke-opacity="0.12" stroke-miterlimit="10" stroke-dasharray=""/><path fill="none" stroke="rgb(0,0,0)" class="dcg-svg-minor-gridline" paint-order="fill stroke markers" d=" M 0 228.5 L 600 228.5" stroke-opacity="0.12" stroke-miterlimit="10" stroke-dasharray=""/><path fill="none" stroke="rgb(0,0,0)" class="dcg-svg-minor-gridline" paint-order="fill stroke markers" d=" M 0 170.5 L 600 170.5" stroke-opacity="0.12" stroke-miterlimit="10" stroke-dasharray=""/><path fill="none" stroke="rgb(0,0,0)" class="dcg-svg-minor-gridline" paint-order="fill stroke markers" d=" M 0 142.5 L 600 142.5" stroke-opacity="0.12" stroke-miterlimit="10" stroke-dasharray=""/><path fill="none" stroke="rgb(0,0,0)" class="dcg-svg-minor-gridline" paint-order="fill stroke markers" d=" M 0 113.5 L 600 113.5" stroke-opacity="0.12" stroke-miterlimit="10" stroke-dasharray=""/><path fill="none" stroke="rgb(0,0,0)" class="dcg-svg-minor-gridline" paint-order="fill stroke markers" d=" M 0 85.5 L 600 85.5" stroke-opacity="0.12" stroke-miterlimit="10" stroke-dasharray=""/><path fill="none" stroke="rgb(0,0,0)" class="dcg-svg-minor-gridline" paint-order="fill stroke markers" d=" M 0 56.5 L 600 56.5" stroke-opacity="0.12" stroke-miterlimit="10" stroke-dasharray=""/><path fill="none" stroke="rgb(0,0,0)" class="dcg-svg-minor-gridline" paint-order="fill stroke markers" d=" M 0 28.5 L 600 28.5" stroke-opacity="0.12" stroke-miterlimit="10" stroke-dasharray=""/><path fill="none" stroke="rgb(0,0,0)" class="dcg-svg-minor-gridline" paint-order="fill stroke markers" d=" M 0 -0.5 L 600 -0.5" stroke-opacity="0.12" stroke-miterlimit="10" stroke-dasharray=""/><path fill="none" stroke="rgb(0,0,0)" class="dcg-svg-major-gridline" paint-order="fill stroke markers" d=" M -0.5 0 L -0.5 400" stroke-opacity="0.31818181818181823" stroke-miterlimit="10" stroke-dasharray=""/><path fill="none" stroke="rgb(0,0,0)" class="dcg-svg-major-gridline" paint-order="fill stroke markers" d=" M 149.5 0 L 149.5 400" stroke-opacity="0.31818181818181823" stroke-miterlimit="10" stroke-dasharray=""/><path fill="none" stroke="rgb(0,0,0)" class="dcg-svg-major-gridline" paint-order="fill stroke markers" d=" M 449.5 0 L 449.5 400" stroke-opacity="0.31818181818181823" stroke-miterlimit="10" stroke-dasharray=""/><path fill="none" stroke="rgb(0,0,0)" class="dcg-svg-major-gridline" paint-order="fill stroke markers" d=" M 0 342.5 L 600 342.5" stroke-opacity="0.31818181818181823" stroke-miterlimit="10" stroke-dasharray=""/><path fill="none" stroke="rgb(0,0,0)" class="dcg-svg-major-gridline" paint-order="fill stroke markers" d=" M 0 56.5 L 600 56.5" stroke-opacity="0.31818181818181823" stroke-miterlimit="10" stroke-dasharray=""/></g></g><g id="axis-d761ea1c"><g id="yaxis-d761ea1c"><title>Y axis</title><path fill="none" stroke="rgb(0,0,0)" class="dcg-svg-axis-line" paint-order="fill stroke markers" d=" M 299.75 0 L 299.75 400" stroke-opacity="0.9" stroke-miterlimit="10" stroke-width="1.5" stroke-dasharray=""/></g><g id="xaxis-d761ea1c"><title>X axis</title><path fill="none" stroke="rgb(0,0,0)" class="dcg-svg-axis-line" paint-order="fill stroke markers" d=" M 0 199.75 L 600 199.75" stroke-opacity="0.9" stroke-miterlimit="10" stroke-width="1.5" stroke-dasharray=""/></g><g><g class="dcg-svg-axis-value"><text fill="none" stroke="#ffffff" font-family="Arial" font-size="14px" font-style="normal" font-weight="normal" text-decoration="normal" x="291.10693359375" y="215.808" text-anchor="middle" stroke-miterlimit="2" stroke-width="3" stroke-dasharray="">0</text><text fill="#000000" stroke="none" font-family="Arial" font-size="14px" font-style="normal" font-weight="normal" text-decoration="normal" x="291.10693359375" y="215.808" text-anchor="middle">0</text></g><g class="dcg-svg-axis-value dcg-svg-offcenter-axis-value"><text fill="none" stroke="#ffffff" font-family="Arial" font-size="14px" font-style="normal" font-weight="normal" text-decoration="normal" x="13.1171875" y="215.808" text-anchor="middle" stroke-miterlimit="2" stroke-width="3" stroke-dasharray="">-10</text><text fill="#000000" stroke="none" font-family="Arial" font-size="14px" font-style="normal" font-weight="normal" text-decoration="normal" x="13.1171875" y="215.808" text-anchor="middle">-10</text></g><g class="dcg-svg-axis-value"><text fill="none" stroke="#ffffff" font-family="Arial" font-size="14px" font-style="normal" font-weight="normal" text-decoration="normal" x="147.6689453125" y="215.808" text-anchor="middle" stroke-miterlimit="2" stroke-width="3" stroke-dasharray="">-5</text><text fill="#000000" stroke="none" font-family="Arial" font-size="14px" font-style="normal" font-weight="normal" text-decoration="normal" x="147.6689453125" y="215.808" text-anchor="middle">-5</text></g><g class="dcg-svg-axis-value"><text fill="none" stroke="#ffffff" font-family="Arial" font-size="14px" font-style="normal" font-weight="normal" text-decoration="normal" x="450" y="215.808" text-anchor="middle" stroke-miterlimit="2" stroke-width="3" stroke-dasharray="">5</text><text fill="#000000" stroke="none" font-family="Arial" font-size="14px" font-style="normal" font-weight="normal" text-decoration="normal" x="450" y="215.808" text-anchor="middle">5</text></g><g class="dcg-svg-axis-value dcg-svg-offcenter-axis-value"><text fill="none" stroke="#ffffff" font-family="Arial" font-size="14px" font-style="normal" font-weight="normal" text-decoration="normal" x="589.2138671875" y="215.808" text-anchor="middle" stroke-miterlimit="2" stroke-width="3" stroke-dasharray="">10</text><text fill="#000000" stroke="none" font-family="Arial" font-size="14px" font-style="normal" font-weight="normal" text-decoration="normal" x="589.2138671875" y="215.808" text-anchor="middle">10</text></g><g class="dcg-svg-axis-value"><text fill="none" stroke="#ffffff" font-family="Arial" font-size="14px" font-style="normal" font-weight="normal" text-decoration="normal" x="288.77587890625" y="346.6651428571428" text-anchor="middle" stroke-miterlimit="2" stroke-width="3" stroke-dasharray="">-5</text><text fill="#000000" stroke="none" font-family="Arial" font-size="14px" font-style="normal" font-weight="normal" text-decoration="normal" x="288.77587890625" y="346.6651428571428" text-anchor="middle">-5</text></g><g class="dcg-svg-axis-value"><text fill="none" stroke="#ffffff" font-family="Arial" font-size="14px" font-style="normal" font-weight="normal" text-decoration="normal" x="291.10693359375" y="60.95085714285717" text-anchor="middle" stroke-miterlimit="2" stroke-width="3" stroke-dasharray="">5</text><text fill="#000000" stroke="none" font-family="Arial" font-size="14px" font-style="normal" font-weight="normal" text-decoration="normal" x="291.10693359375" y="60.95085714285717" text-anchor="middle">5</text></g></g></g></g><g id="expressions-d761ea1c"><g id="sketch-d761ea1c"><title>Expression 1</title><path fill="#2d70b3" stroke="none" paint-order="stroke fill markers" d="" fill-opacity="0.4"/><g><path fill="none" stroke="#2d70b3" class="dcg-svg-curve" paint-order="fill stroke markers" d=" M -0.5 324.9490083075578 L -0.5 324.9490083075578 L 1.697265625 334.8923195567328 L 3.748046875 342.8374175861359 L 5.65234375 349.04579247425164 L 7.41015625 353.7700770790109 L 9.021484375 357.2494969742502 L 10.486328125 359.70658154253516 L 11.951171875 361.4935686917642 L 13.26953125 362.53214550832723 L 14.294921875 362.9693922861693 L 15.3203125 363.08494197358056 L 16.19921875 362.92998528557195 L 17.224609375 362.4555774689982 L 18.396484375 361.53040171372317 L 19.71484375 360.0080780432213 L 21.1796875 357.7292653774555 L 22.791015625 354.52438521333073 L 24.548828125 350.21706462141526 L 26.453125 344.62838777039093 L 28.50390625 337.58202858225457 L 30.701171875 328.9103109517673 L 33.19140625 317.76909217557886 L 35.828125 304.57321029449105 L 38.7578125 288.39517148944185 L 42.126953125 268.0807315849972 L 46.08203125 242.3320588789567 L 51.0625 207.81461290077928 L 69.8125 75.72393785447804 L 73.767578125 51.00392806623586 L 77.283203125 30.81881315584843 L 80.505859375 14.032059942615376 L 83.435546875 0.3508607839612523 L 84.8471157411183 -5.5 L 124.42714018075625 -5.5 L 125.330078125 -2.18731806919601 L 128.40625 10.304998439780036 L 131.921875 25.922367352083484 L 136.0234375 45.6092567766525 L 141.150390625 71.80265730307076 L 160.6328125 172.9723399275505 L 164.880859375 192.58178831655192 L 168.54296875 208.14395117122143 L 171.912109375 221.2015546113134 L 174.98828125 231.9702169411925 L 177.91796875 241.13790231107592 L 180.5546875 248.44399432934327 L 183.044921875 254.50168419568453 L 185.388671875 259.44570840019037 L 187.732421875 263.6526446594157 L 189.9296875 266.93002787487217 L 191.98046875 269.4132359611375 L 194.03125 271.3499386192373 L 195.935546875 272.6696233847108 L 197.693359375 273.48932390749775 L 199.3046875 273.9143655286131 L 200.77855494653764 274.03819022766083 L 202.234375 273.9200916369034 L 203.845703125 273.5209893279573 L 205.603515625 272.7779092384078 L 207.5078125 271.6297147759961 L 209.55859375 270.01967074062776 L 212.048828125 267.58655830147814 L 214.83203125 264.3131008242047 L 217.908203125 260.1118614760388 L 221.423828125 254.70617620939507 L 225.96484375 247.0489688848237 L 242.517578125 218.45144113433372 L 246.326171875 212.8941232884744 L 249.6953125 208.58788436982502 L 252.771484375 205.23325561756042 L 255.701171875 202.60100834083767 L 258.19140625 200.82225281103172 L 260.53515625 199.54813077002476 L 262.5859375 198.75829150444065 L 264.63671875 198.27478612100052 L 266.541015625 198.10028145195326 L 268.4453125 198.1881956664669 L 270.349609375 198.53477627746057 L 272.400390625 199.19084173474633 L 274.59765625 200.20883395494167 L 276.94140625 201.63799569496487 L 279.578125 203.64351133164138 L 282.5078125 206.32410140891162 L 285.876953125 209.92481012327863 L 289.83203125 214.73404864523977 L 294.666015625 221.22537336961284 L 311.072265625 243.79339228923348 L 314.880859375 248.16067001020917 L 318.25 251.4814842768789 L 321.1796875 253.88164551989144 L 323.81640625 255.60923145407384 L 326.16015625 256.77409606051253 L 328.357421875 257.53213416005025 L 330.408203125 257.9371247342749 L 332.3125 258.0450933180631 L 334.216796875 257.89086532940854 L 336.12109375 257.4724245671364 L 338.171875 256.7262396077201 L 340.22265625 255.6759220036884 L 342.419921875 254.21882066233792 L 344.91015625 252.16447412283344 L 347.693359375 249.38476112486305 L 350.76953125 245.75948214063848 L 354.138671875 241.19088415021446 L 357.80078125 235.62255455878858 L 362.341796875 228.0542502933756 L 369.51953125 215.31928799808244 L 376.2578125 203.59552453517625 L 380.359375 197.10930548131313 L 383.728515625 192.39490468477356 L 386.658203125 188.8746144877928 L 389.294921875 186.25224997447089 L 391.638671875 184.4126403401322 L 393.689453125 183.21947757560918 L 395.447265625 182.52883956942992 L 397.05859375 182.18019484932546 L 398.669921875 182.1160439623894 L 400.134765625 182.31401135202765 L 401.599609375 182.76405707883734 L 403.2109375 183.55865438372825 L 404.96875 184.7929185236198 L 406.873046875 186.57328917118343 L 408.923828125 189.01711989651233 L 410.974609375 192.01607262994034 L 413.171875 195.85222216096255 L 415.515625 200.65806053925698 L 417.859375 206.19935544867428 L 420.349609375 212.88448882201828 L 422.986328125 220.84054434984688 L 425.916015625 230.70476248823678 L 428.9921875 242.1657208845295 L 432.361328125 255.92313936658599 L 436.0234375 272.16132225925065 L 440.271484375 292.423459145691 L 445.3984375 318.4340181313652 L 453.6015625 361.8770937044215 L 461.365234375 402.45656587025655 L 461.9861646221497 405.5 L 525.1544954965528 405.5 L 528.30859375 386.076462597677 L 532.556640625 357.98898164841427 L 537.9765625 320.03407499245145 L 553.650390625 208.9108810103413 L 557.751953125 182.6033863626706 L 561.267578125 161.9159181086659 L 564.34375 145.5358076178825 L 567.126953125 132.30787271418905 L 569.6171875 121.89398465180511 L 571.814453125 113.91126970484225 L 573.865234375 107.54490261431044 L 575.76953125 102.61696685059087 L 577.52734375 98.94241530512409 L 579.138671875 96.33503471386013 L 580.603515625 94.61245542913395 L 581.921875 93.60026318091747 L 582.947265625 93.17084988475972 L 583.97265625 93.05825414761085 L 584.8515625 93.21617444276268 L 585.876953125 93.69957710201402 L 587.048828125 94.6492884510929 L 588.3671875 96.2274745257834 L 589.83203125 98.61741935803929 L 591.296875 101.6795841441126 L 592.908203125 105.8252338113735 L 594.666015625 111.27475469499473 L 596.5703125 118.263953492339 L 598.62109375 127.04048650270431 L 599.5 131.19384883529926" stroke-linecap="round" stroke-linejoin="round" stroke-miterlimit="10" stroke-width="2.5" stroke-opacity="0.9" stroke-dasharray=""/></g></g></g><g id="labels-d761ea1c"/></g></svg>