<svg version="1.1" xmlns="http://www.w3.org/2000/svg" xmlns:xlink="http://www.w3.org/1999/xlink" width="600" height="400"><defs/><g transform="scale(1,1)"><g id="background-25f00cfa"><rect fill="white" stroke="none" x="0" y="0" width="600" height="400" class="dcg-svg-background"/></g><g id="background-images-25f00cfa"/><g id="graphpaper-25f00cfa"><g id="grid-25f00cfa"><g><path fill="none" stroke="rgb(0,0,0)" class="dcg-svg-minor-gridline" paint-order="fill stroke markers" d=" M -0.5 0 L -0.5 400" stroke-opacity="0.12" stroke-miterlimit="10" stroke-dasharray=""/><path fill="none" stroke="rgb(0,0,0)" class="dcg-svg-minor-gridline" paint-order="fill stroke markers" d=" M 29.5 0 L 29.5 400" stroke-opacity="0.12" stroke-miterlimit="10" stroke-dasharray=""/><path fill="none" stroke="rgb(0,0,0)" class="dcg-svg-minor-gridline" paint-order="fill stroke markers" d=" M 59.5 0 L 59.5 400" stroke-opacity="0.12" stroke-miterlimit="10" stroke-dasharray=""/><path fill="none" stroke="rgb(0,0,0)" class="dcg-svg-minor-gridline" paint-order="fill stroke markers" d=" M 89.5 0 L 89.5 400" stroke-opacity="0.12" stroke-miterlimit="10" stroke-dasharray=""/><path fill="none" stroke="rgb(0,0,0)" class="dcg-svg-minor-gridline" paint-order="fill stroke markers" d=" M 119.5 0 L 119.5 400" stroke-opacity="0.12" stroke-miterlimit="10" stroke-dasharray=""/><path fill="none" stroke="rgb(0,0,0)" class="dcg-svg-minor-gridline" paint-order="fill stroke markers" d=" M 149.5 0 L 149.5 400" stroke-opacity="0.12" stroke-miterlimit="10" stroke-dasharray=""/><path fill="none" stroke="rgb(0,0,0)" class="dcg-svg-minor-gridline" paint-order="fill stroke markers" d=" M 179.5 0 L 179.5 400" stroke-opacity="0.12" stroke-miterlimit="10" stroke-dasharray=""/><path fill="none" stroke="rgb(0,0,0)" class="dcg-svg-minor-gridline" paint-order="fill stroke markers" d=" M 209.5 0 L 209.5 400" stroke-opacity="0.12" stroke-miterlimit="10" stroke-dasharray=""/><path fill="none" stroke="rgb(0,0,0)" class="dcg-svg-minor-gridline" paint-order="fill stroke markers" d=" M 239.5 0 L 239.5 400" stroke-opacity="0.12" stroke-miterlimit="10" stroke-dasharray=""/><path fill="none" stroke="rgb(0,0,0)" class="dcg-svg-minor-gridline" paint-order="fill stroke markers" d=" M 269.5 0 L 269.5 400" stroke-opacity="0.12" stroke-miterlimit="10" stroke-dasharray=""/><path fill="none" stroke="rgb(0,0,0)" class="dcg-svg-minor-gridline" paint-order="fill stroke markers" d=" M 329.5 0 L 329.5 400" stroke-opacity="0.12" stroke-miterlimit="10" stroke-dasharray=""/><path fill="none" stroke="rgb(0,0,0)" class="dcg-svg-minor-gridline" paint-order="fill stroke markers" d=" M 359.5 0 L 359.5 400" stroke-opacity="0.12" stroke-miterlimit="10" stroke-dasharray=""/><path fill="none" stroke="rgb(0,0,0)" class="dcg-svg-minor-gridline" paint-order="fill stroke markers" d=" M 389.5 0 L 389.5 400" stroke-opacity="0.12" stroke-miterlimit="10" stroke-dasharray=""/><path fill="none" stroke="rgb(0,0,0)" class="dcg-svg-minor-gridline" paint-order="fill stroke markers" d=" M 419.5 0 L 419.5 400" stroke-opacity="0.12" stroke-miterlimit="10" stroke-dasharray=""/><path fill="none" stroke="rgb(0,0,0)" class="dcg-svg-minor-gridline" paint-order="fill stroke markers" d=" M 449.5 0 L 449.5 400" stroke-opacity="0.12" stroke-miterlimit="10" stroke-dasharray=""/><path fill="none" stroke="rgb(0,0,0)" class="dcg-svg-minor-gridline" paint-order="fill stroke markers" d=" M 479.5 0 L 479.5 400" stroke-opacity="0.12" stroke-miterlimit="10" stroke-dasharray=""/><path fill="none" stroke="rgb(0,0,0)" class="dcg-svg-minor-gridline" paint-order="fill stroke markers" d=" M 509.5 0 L 509.5 400" stroke-opacity="0.12" stroke-miterlimit="10" stroke-dasharray=""/><path fill="none" stroke="rgb(0,0,0)" class="dcg-svg-minor-gridline" paint-order="fill stroke markers" d=" M 539.5 0 L 539.5 400" stroke-opacity="0.12" stroke-miterlimit="10" stroke-dasharray=""/><path fill="none" stroke="rgb(0,0,0)" class="dcg-svg-minor-gridline" paint-order="fill stroke markers" d=" M 569.5 0 L 569.5 400" stroke-opacity="0.12" stroke-miterlimit="10" stroke-dasharray=""/><path fill="none" stroke="rgb(0,0,0)" class="dcg-svg-minor-gridline" paint-order="fill stroke markers" d=" M 0 349.5 L 600 349.5" stroke-opacity="0.12" stroke-miterlimit="10" stroke-dasharray=""/><path fill="none" stroke="rgb(0,0,0)" class="dcg-svg-minor-gridline" paint-order="fill stroke markers" d=" M 0 299.5 L 600 299.5" stroke-opacity="0.12" stroke-miterlimit="10" stroke-dasharray=""/><path fill="none" stroke="rgb(0,0,0)" class="dcg-svg-minor-gridline" paint-order="fill stroke markers" d=" M 0 249.5 L 600 249.5" stroke-opacity="0.12" stroke-miterlimit="10" stroke-dasharray=""/><path fill="none" stroke="rgb(0,0,0)" class="dcg-svg-minor-gridline" paint-order="fill stroke markers" d=" M 0 199.5 L 600 199.5" stroke-opacity="0.12" stroke-miterlimit="10" stroke-dasharray=""/><path fill="none" stroke="rgb(0,0,0)" class="dcg-svg-minor-gridline" paint-order="fill stroke markers" d=" M 0 149.5 L 600 149.5" stroke-opacity="0.12" stroke-miterlimit="10" stroke-dasharray=""/><path fill="none" stroke="rgb(0,0,0)" class="dcg-svg-minor-gridline" paint-order="fill stroke markers" d=" M 0 99.5 L 600 99.5" stroke-opacity="0.12" stroke-miterlimit="10" stroke-dasharray=""/><path fill="none" stroke="rgb(0,0,0)" class="dcg-svg-minor-gridline" paint-order="fill stroke markers" d=" M 0 -0.5 L 600 -0.5" stroke-opacity="0.12" stroke-miterlimit="10" stroke-dasharray=""/><path fill="none" stroke="rgb(0,0,0)" class="dcg-svg-major-gridline" paint-order="fill stroke markers" d=" M -0.5 0 L -0.5 400" stroke-opacity="0.31818181818181823" stroke-miterlimit="10" stroke-dasharray=""/><path fill="none" stroke="rgb(0,0,0)" class="dcg-svg-major-gridline" paint-order="fill stroke markers" d=" M 149.5 0 L 149.5 400" stroke-opacity="0.31818181818181823" stroke-miterlimit="10" stroke-dasharray=""/><path fill="none" stroke="rgb(0,0,0)" class="dcg-svg-major-gridline" paint-order="fill stroke markers" d=" M 449.5 0 L 449.5 400" stroke-opacity="0.31818181818181823" stroke-miterlimit="10" stroke-dasharray=""/><path fill="none" stroke="rgb(0,0,0)" class="dcg-svg-major-gridline" paint-order="fill stroke markers" d=" M 0 299.5 L 600 299.5" stroke-opacity="0.31818181818181823" stroke-miterlimit="10" stroke-dasharray=""/></g></g><g id="axis-25f00cfa"><g id="yaxis-25f00cfa"><title>Y axis</title><path fill="none" stroke="rgb(0,0,0)" class="dcg-svg-axis-line" paint-order="fill stroke markers" d=" M 299.75 0 L 299.75 400" stroke-opacity="0.9" stroke-miterlimit="10" stroke-width="1.5" stroke-dasharray=""/></g><g id="xaxis-25f00cfa"><title>X axis</title><path fill="none" stroke="rgb(0,0,0)" class="dcg-svg-axis-line" paint-order="fill stroke markers" d=" M 0 49.75 L 600 49.75" stroke-opacity="0.9" stroke-miterlimit="10" stroke-width="1.5" stroke-dasharray=""/></g><g><g class="dcg-svg-axis-value"><text fill="none" stroke="#ffffff" font-family="Arial" font-size="14px" font-style="normal" font-weight="normal" text-decoration="normal" x="291.10693359375" y="65.808" text-anchor="middle" stroke-miterlimit="2" stroke-width="3" stroke-dasharray="">0</text><text fill="#000000" stroke="none" font-family="Arial" font-size="14px" font-style="normal" font-weight="normal" text-decoration="normal" x="291.10693359375" y="65.808" text-anchor="middle">0</text></g><g class="dcg-svg-axis-value dcg-svg-offcenter-axis-value"><text fill="none" stroke="#ffffff" font-family="Arial" font-size="14px" font-style="normal" font-weight="normal" text-decoration="normal" x="13.1171875" y="65.808" text-anchor="middle" stroke-miterlimit="2" stroke-width="3" stroke-dasharray="">-10</text><text fill="#000000" stroke="none" font-family="Arial" font-size="14px" font-style="normal" font-weight="normal" text-decoration="normal" x="13.1171875" y="65.808" text-anchor="middle">-10</text></g><g class="dcg-svg-axis-value"><text fill="none" stroke="#ffffff" font-family="Arial" font-size="14px" font-style="normal" font-weight="normal" text-decoration="normal" x="147.6689453125" y="65.808" text-anchor="middle" stroke-miterlimit="2" stroke-width="3" stroke-dasharray="">-5</text><text fill="#000000" stroke="none" font-family="Arial" font-size="14px" font-style="normal" font-weight="normal" text-decoration="normal" x="147.6689453125" y="65.808" text-anchor="middle">-5</text></g><g class="dcg-svg-axis-value"><text fill="none" stroke="#ffffff" font-family="Arial" font-size="14px" font-style="normal" font-weight="normal" text-decoration="normal" x="450" y="65.808" text-anchor="middle" stroke-miterlimit="2" stroke-width="3" stroke-dasharray="">5</text><text fill="#000000" stroke="none" font-family="Arial" font-size="14px" font-style="normal" font-weight="normal" text-decoration="normal" x="450" y="65.808" text-anchor="middle">5</text></g><g class="dcg-svg-axis-value dcg-svg-offcenter-axis-value"><text fill="none" stroke="#ffffff" font-family="Arial" font-size="14px" font-style="normal" font-weight="normal" text-decoration="normal" x="589.2138671875" y="65.808" text-anchor="middle" stroke-miterlimit="2" stroke-width="3" stroke-dasharray="">10</text><text fill="#000000" stroke="none" font-family="Arial" font-size="14px" font-style="normal" font-weight="normal" text-decoration="normal" x="589.2138671875" y="65.808" text-anchor="middle">10</text></g><g class="dcg-svg-axis-value"><text fill="none" stroke="#ffffff" font-family="Arial" font-size="14px" font-style="normal" font-weight="normal" text-decoration="normal" x="288.77587890625" y="303.808" text-anchor="middle" stroke-miterlimit="2" stroke-width="3" stroke-dasharray="">-5</text><text fill="#000000" stroke="none" font-family="Arial" font-size="14px" font-style="normal" font-weight="normal" text-decoration="normal" x="288.77587890625" y="303.808" text-anchor="middle">-5</text></g></g></g></g><g id="expressions-25f00cfa"><g id="sketch-25f00cfa"><title>Expression 1</title><path fill="#2d70b3" stroke="none" paint-order="stroke fill markers" d="" fill-opacity="0.4"/><g><path fill="none" stroke="#2d70b3" class="dcg-svg-curve" paint-order="fill stroke markers" d=" M -0.5 22.29894445553151 L -0.5 22.29894445553151 L 3.455078125 28.049970072862436 L 8.142578125 35.339662839866605 L 14.734375 46.132075058955934 L 26.599609375 65.6121664752614 L 31.43359375 72.99736554115145 L 35.53515625 78.79336453346735 L 39.05078125 83.33007065939859 L 42.2734375 87.08246786674448 L 45.203125 90.11880869271255 L 47.986328125 92.64522029085026 L 50.623046875 94.69667796809563 L 53.11328125 96.31403004762296 L 55.45703125 97.5419241316086 L 57.80078125 98.47674269242378 L 59.998046875 99.0818663630684 L 62.1953125 99.42113105595342 L 64.392578125 99.4927176268825 L 66.58984375 99.29624222720349 L 68.787109375 98.83275836201312 L 70.984375 98.10475124124082 L 73.181640625 97.11612445390267 L 75.525390625 95.78032701502372 L 78.015625 94.05190971211698 L 80.505859375 92.01669274466565 L 83.142578125 89.54296500425636 L 86.072265625 86.43273772026197 L 89.1484375 82.78880386887556 L 92.517578125 78.39808505969654 L 96.326171875 72.99933147927925 L 100.720703125 66.30586292919821 L 106.43359375 57.08863817771737 L 122.986328125 30.056891205429963 L 127.380859375 23.541453434313667 L 131.189453125 18.339767937578472 L 134.55859375 14.153845018382128 L 137.634765625 10.719607985651976 L 140.564453125 7.82717204309904 L 143.201171875 5.5627980165548365 L 145.69140625 3.735401696550241 L 148.181640625 2.223156028857602 L 150.525390625 1.0971102887785378 L 152.72265625 0.30950936451563393 L 154.919921875 -0.21433114661397212 L 157.1171875 -0.47160240111543317 L 159.314453125 -0.46092490527968266 L 161.51171875 -0.18235591205694845 L 163.708984375 0.36261088593471413 L 165.90625 1.1710533656197981 L 168.25 2.318890384951885 L 170.59375 3.754551604378662 L 173.083984375 5.585485346315636 L 175.720703125 7.853434086663242 L 178.50390625 10.595780527539546 L 181.43359375 13.843456405300458 L 184.65625 17.807052674311706 L 188.171875 22.5459820742405 L 192.126953125 28.3157836500053 L 196.9609375 35.856446535426755 L 203.69921875 46.912819808942345 L 214.83203125 65.19638405671537 L 219.8125 72.82557345603726 L 223.9140625 78.63558284003813 L 227.4296875 83.186653019922 L 230.65234375 86.95395078471853 L 233.58203125 90.00512810365353 L 236.365234375 92.5466400628257 L 239.001953125 94.61318763752092 L 241.4921875 96.24538514423807 L 243.8359375 97.48768509117588 L 246.1796875 98.43724039542809 L 248.376953125 99.05640034514704 L 250.57421875 99.40983786641328 L 252.771484375 99.495657820036 L 254.96875 99.31340003767514 L 257.166015625 98.86404178927347 L 259.36328125 98.14999254291547 L 261.560546875 97.17508104521016 L 263.904296875 95.85356303616709 L 266.39453125 94.13982615773983 L 268.884765625 92.11868419210043 L 271.521484375 89.65909186542262 L 274.3046875 86.72694099074323 L 277.380859375 83.11475306247439 L 280.75 78.75486364702311 L 284.55859375 73.38552984107031 L 288.953125 66.71825790728491 L 294.51953125 57.76270386238741 L 311.951171875 29.338716159536148 L 316.345703125 22.87618393874834 L 320.154296875 17.731925054090084 L 323.5234375 13.604991297943172 L 326.599609375 10.23067363485427 L 329.3828125 7.532299280647521 L 332.01953125 5.308562488567588 L 334.509765625 3.5213534295065188 L 336.853515625 2.1283173627372776 L 339.197265625 1.0242680699853963 L 341.39453125 0.2576949701401645 L 343.591796875 -0.2448398867333026 L 345.7890625 -0.4806418984924221 L 347.986328125 -0.4484466899451718 L 350.18359375 -0.14842689245585916 L 352.380859375 0.4178087817078904 L 354.578125 1.247224165323189 L 356.921875 2.4169793867734484 L 359.265625 3.8739604250096704 L 361.755859375 5.726745423407692 L 364.392578125 8.016767398358013 L 367.17578125 10.781042167250746 L 370.10546875 14.05007572729869 L 373.328125 18.03488407035917 L 376.84375 22.793950719661666 L 380.9453125 28.804326536673273 L 385.779296875 36.37480983518441 L 392.810546875 47.93819952882103 L 403.2109375 65.01167286468296 L 408.19140625 72.65342869091711 L 412.29296875 78.4773606199247 L 415.80859375 83.04272604210007 L 419.03125 86.82486740323526 L 421.9609375 89.89083508168477 L 424.744140625 92.44740897452095 L 427.380859375 94.52901520070264 L 429.87109375 96.17603345596973 L 432.21484375 97.43272048242648 L 434.55859375 98.39699817294803 L 436.755859375 99.03018504011351 L 438.953125 99.39779004582607 L 441.150390625 99.49784208455458 L 443.34765625 99.32980467522867 L 445.544921875 98.89457883786116 L 447.7421875 98.19449826226042 L 449.939453125 97.23331679473847 L 452.283203125 95.92609819673254 L 454.626953125 94.33566127923348 L 457.1171875 92.34638057382153 L 459.75390625 89.91881012163105 L 462.537109375 87.01828023481238 L 465.61328125 83.43811613059404 L 468.982421875 79.10939153364916 L 472.64453125 73.98305095974649 L 476.892578125 67.58540376245287 L 482.3125 58.91521670766571 L 501.501953125 27.742128159491813 L 505.75 21.606599595452963 L 509.412109375 16.76124578055021 L 512.634765625 12.898160671602056 L 515.7109375 9.60371599999695 L 518.494140625 6.983307255334353 L 521.130859375 4.837799479104376 L 523.62109375 3.1278209630225433 L 525.96484375 1.8099578184083498 L 528.30859375 0.783023572147556 L 530.505859375 0.0900914569286897 L 532.703125 -0.33790372186535933 L 534.900390625 -0.49866704536469797 L 537.09765625 -0.3913364973529383 L 539.294921875 -0.016487586415451005 L 541.4921875 0.6238697399489865 L 543.689453125 1.5263018727079611 L 546.033203125 2.7722827924661146 L 548.376953125 4.303322031904372 L 550.8671875 6.2319138703723524 L 553.50390625 8.598399404584598 L 556.287109375 11.438503189025369 L 559.36328125 14.95733615728767 L 562.5859375 19.032256087333906 L 566.248046875 24.086429740341373 L 570.49609375 30.417773853102062 L 575.623046875 38.555516577263234 L 584.265625 52.867924941044066 L 592.029296875 65.52222060094499 L 596.86328125 72.91348171553022 L 599.5 76.70105554446849" stroke-linecap="round" stroke-linejoin="round" stroke-miterlimit="10" stroke-width="2.5" stroke-opacity="0.9" stroke-dasharray=""/></g></g></g><g id="labels-25f00cfa"/></g></svg>