<svg version="1.1" xmlns="http://www.w3.org/2000/svg" xmlns:xlink="http://www.w3.org/1999/xlink" width="600" height="400"><defs/><g transform="scale(1,1)"><g id="background-f5db67b4"><rect fill="white" stroke="none" x="0" y="0" width="600" height="400" class="dcg-svg-background"/></g><g id="background-images-f5db67b4"/><g id="graphpaper-f5db67b4"><g id="grid-f5db67b4"><g><path fill="none" stroke="rgb(0,0,0)" class="dcg-svg-minor-gridline" paint-order="fill stroke markers" d=" M -0.5 0 L -0.5 400" stroke-opacity="0.12" stroke-miterlimit="10" stroke-dasharray=""/><path fill="none" stroke="rgb(0,0,0)" class="dcg-svg-minor-gridline" paint-order="fill stroke markers" d=" M 24.5 0 L 24.5 400" stroke-opacity="0.12" stroke-miterlimit="10" stroke-dasharray=""/><path fill="none" stroke="rgb(0,0,0)" class="dcg-svg-minor-gridline" paint-order="fill stroke markers" d=" M 49.5 0 L 49.5 400" stroke-opacity="0.12" stroke-miterlimit="10" stroke-dasharray=""/><path fill="none" stroke="rgb(0,0,0)" class="dcg-svg-minor-gridline" paint-order="fill stroke markers" d=" M 74.5 0 L 74.5 400" stroke-opacity="0.12" stroke-miterlimit="10" stroke-dasharray=""/><path fill="none" stroke="rgb(0,0,0)" class="dcg-svg-minor-gridline" paint-order="fill stroke markers" d=" M 99.5 0 L 99.5 400" stroke-opacity="0.12" stroke-miterlimit="10" stroke-dasharray=""/><path fill="none" stroke="rgb(0,0,0)" class="dcg-svg-minor-gridline" paint-order="fill stroke markers" d=" M 124.5 0 L 124.5 400" stroke-opacity="0.12" stroke-miterlimit="10" stroke-dasharray=""/><path fill="none" stroke="rgb(0,0,0)" class="dcg-svg-minor-gridline" paint-order="fill stroke markers" d=" M 149.5 0 L 149.5 400" stroke-opacity="0.12" stroke-miterlimit="10" stroke-dasharray=""/><path fill="none" stroke="rgb(0,0,0)" class="dcg-svg-minor-gridline" paint-order="fill stroke markers" d=" M 174.5 0 L 174.5 400" stroke-opacity="0.12" stroke-miterlimit="10" stroke-dasharray=""/><path fill="none" stroke="rgb(0,0,0)" class="dcg-svg-minor-gridline" paint-order="fill stroke markers" d=" M 199.5 0 L 199.5 400" stroke-opacity="0.12" stroke-miterlimit="10" stroke-dasharray=""/><path fill="none" stroke="rgb(0,0,0)" class="dcg-svg-minor-gridline" paint-order="fill stroke markers" d=" M 224.5 0 L 224.5 400" stroke-opacity="0.12" stroke-miterlimit="10" stroke-dasharray=""/><path fill="none" stroke="rgb(0,0,0)" class="dcg-svg-minor-gridline" paint-order="fill stroke markers" d=" M 249.5 0 L 249.5 400" stroke-opacity="0.12" stroke-miterlimit="10" stroke-dasharray=""/><path fill="none" stroke="rgb(0,0,0)" class="dcg-svg-minor-gridline" paint-order="fill stroke markers" d=" M 274.5 0 L 274.5 400" stroke-opacity="0.12" stroke-miterlimit="10" stroke-dasharray=""/><path fill="none" stroke="rgb(0,0,0)" class="dcg-svg-minor-gridline" paint-order="fill stroke markers" d=" M 324.5 0 L 324.5 400" stroke-opacity="0.12" stroke-miterlimit="10" stroke-dasharray=""/><path fill="none" stroke="rgb(0,0,0)" class="dcg-svg-minor-gridline" paint-order="fill stroke markers" d=" M 349.5 0 L 349.5 400" stroke-opacity="0.12" stroke-miterlimit="10" stroke-dasharray=""/><path fill="none" stroke="rgb(0,0,0)" class="dcg-svg-minor-gridline" paint-order="fill stroke markers" d=" M 374.5 0 L 374.5 400" stroke-opacity="0.12" stroke-miterlimit="10" stroke-dasharray=""/><path fill="none" stroke="rgb(0,0,0)" class="dcg-svg-minor-gridline" paint-order="fill stroke markers" d=" M 399.5 0 L 399.5 400" stroke-opacity="0.12" stroke-miterlimit="10" stroke-dasharray=""/><path fill="none" stroke="rgb(0,0,0)" class="dcg-svg-minor-gridline" paint-order="fill stroke markers" d=" M 424.5 0 L 424.5 400" stroke-opacity="0.12" stroke-miterlimit="10" stroke-dasharray=""/><path fill="none" stroke="rgb(0,0,0)" class="dcg-svg-minor-gridline" paint-order="fill stroke markers" d=" M 449.5 0 L 449.5 400" stroke-opacity="0.12" stroke-miterlimit="10" stroke-dasharray=""/><path fill="none" stroke="rgb(0,0,0)" class="dcg-svg-minor-gridline" paint-order="fill stroke markers" d=" M 474.5 0 L 474.5 400" stroke-opacity="0.12" stroke-miterlimit="10" stroke-dasharray=""/><path fill="none" stroke="rgb(0,0,0)" class="dcg-svg-minor-gridline" paint-order="fill stroke markers" d=" M 499.5 0 L 499.5 400" stroke-opacity="0.12" stroke-miterlimit="10" stroke-dasharray=""/><path fill="none" stroke="rgb(0,0,0)" class="dcg-svg-minor-gridline" paint-order="fill stroke markers" d=" M 524.5 0 L 524.5 400" stroke-opacity="0.12" stroke-miterlimit="10" stroke-dasharray=""/><path fill="none" stroke="rgb(0,0,0)" class="dcg-svg-minor-gridline" paint-order="fill stroke markers" d=" M 549.5 0 L 549.5 400" stroke-opacity="0.12" stroke-miterlimit="10" stroke-dasharray=""/><path fill="none" stroke="rgb(0,0,0)" class="dcg-svg-minor-gridline" paint-order="fill stroke markers" d=" M 574.5 0 L 574.5 400" stroke-opacity="0.12" stroke-miterlimit="10" stroke-dasharray=""/><path fill="none" stroke="rgb(0,0,0)" class="dcg-svg-minor-gridline" paint-order="fill stroke markers" d=" M 0 374.5 L 600 374.5" stroke-opacity="0.12" stroke-miterlimit="10" stroke-dasharray=""/><path fill="none" stroke="rgb(0,0,0)" class="dcg-svg-minor-gridline" paint-order="fill stroke markers" d=" M 0 349.5 L 600 349.5" stroke-opacity="0.12" stroke-miterlimit="10" stroke-dasharray=""/><path fill="none" stroke="rgb(0,0,0)" class="dcg-svg-minor-gridline" paint-order="fill stroke markers" d=" M 0 299.5 L 600 299.5" stroke-opacity="0.12" stroke-miterlimit="10" stroke-dasharray=""/><path fill="none" stroke="rgb(0,0,0)" class="dcg-svg-minor-gridline" paint-order="fill stroke markers" d=" M 0 274.5 L 600 274.5" stroke-opacity="0.12" stroke-miterlimit="10" stroke-dasharray=""/><path fill="none" stroke="rgb(0,0,0)" class="dcg-svg-minor-gridline" paint-order="fill stroke markers" d=" M 0 249.5 L 600 249.5" stroke-opacity="0.12" stroke-miterlimit="10" stroke-dasharray=""/><path fill="none" stroke="rgb(0,0,0)" class="dcg-svg-minor-gridline" paint-order="fill stroke markers" d=" M 0 224.5 L 600 224.5" stroke-opacity="0.12" stroke-miterlimit="10" stroke-dasharray=""/><path fill="none" stroke="rgb(0,0,0)" class="dcg-svg-minor-gridline" paint-order="fill stroke markers" d=" M 0 199.5 L 600 199.5" stroke-opacity="0.12" stroke-miterlimit="10" stroke-dasharray=""/><path fill="none" stroke="rgb(0,0,0)" class="dcg-svg-minor-gridline" paint-order="fill stroke markers" d=" M 0 174.5 L 600 174.5" stroke-opacity="0.12" stroke-miterlimit="10" stroke-dasharray=""/><path fill="none" stroke="rgb(0,0,0)" class="dcg-svg-minor-gridline" paint-order="fill stroke markers" d=" M 0 149.5 L 600 149.5" stroke-opacity="0.12" stroke-miterlimit="10" stroke-dasharray=""/><path fill="none" stroke="rgb(0,0,0)" class="dcg-svg-minor-gridline" paint-order="fill stroke markers" d=" M 0 124.5 L 600 124.5" stroke-opacity="0.12" stroke-miterlimit="10" stroke-dasharray=""/><path fill="none" stroke="rgb(0,0,0)" class="dcg-svg-minor-gridline" paint-order="fill stroke markers" d=" M 0 99.5 L 600 99.5" stroke-opacity="0.12" stroke-miterlimit="10" stroke-dasharray=""/><path fill="none" stroke="rgb(0,0,0)" class="dcg-svg-minor-gridline" paint-order="fill stroke markers" d=" M 0 74.5 L 600 74.5" stroke-opacity="0.12" stroke-miterlimit="10" stroke-dasharray=""/><path fill="none" stroke="rgb(0,0,0)" class="dcg-svg-minor-gridline" paint-order="fill stroke markers" d=" M 0 49.5 L 600 49.5" stroke-opacity="0.12" stroke-miterlimit="10" stroke-dasharray=""/><path fill="none" stroke="rgb(0,0,0)" class="dcg-svg-minor-gridline" paint-order="fill stroke markers" d=" M 0 24.5 L 600 24.5" stroke-opacity="0.12" stroke-miterlimit="10" stroke-dasharray=""/><path fill="none" stroke="rgb(0,0,0)" class="dcg-svg-minor-gridline" paint-order="fill stroke markers" d=" M 0 -0.5 L 600 -0.5" stroke-opacity="0.12" stroke-miterlimit="10" stroke-dasharray=""/><path fill="none" stroke="rgb(0,0,0)" class="dcg-svg-major-gridline" paint-order="fill stroke markers" d=" M -0.5 0 L -0.5 400" stroke-opacity="0.31818181818181823" stroke-miterlimit="10" stroke-dasharray=""/><path fill="none" stroke="rgb(0,0,0)" class="dcg-svg-major-gridline" paint-order="fill stroke markers" d=" M 99.5 0 L 99.5 400" stroke-opacity="0.31818181818181823" stroke-miterlimit="10" stroke-dasharray=""/><path fill="none" stroke="rgb(0,0,0)" class="dcg-svg-major-gridline" paint-order="fill stroke markers" d=" M 199.5 0 L 199.5 400" stroke-opacity="0.31818181818181823" stroke-miterlimit="10" stroke-dasharray=""/><path fill="none" stroke="rgb(0,0,0)" class="dcg-svg-major-gridline" paint-order="fill stroke markers" d=" M 399.5 0 L 399.5 400" stroke-opacity="0.31818181818181823" stroke-miterlimit="10" stroke-dasharray=""/><path fill="none" stroke="rgb(0,0,0)" class="dcg-svg-major-gridline" paint-order="fill stroke markers" d=" M 499.5 0 L 499.5 400" stroke-opacity="0.31818181818181823" stroke-miterlimit="10" stroke-dasharray=""/><path fill="none" stroke="rgb(0,0,0)" class="dcg-svg-major-gridline" paint-order="fill stroke markers" d=" M 0 224.5 L 600 224.5" stroke-opacity="0.31818181818181823" stroke-miterlimit="10" stroke-dasharray=""/><path fill="none" stroke="rgb(0,0,0)" class="dcg-svg-major-gridline" paint-order="fill stroke markers" d=" M 0 124.5 L 600 124.5" stroke-opacity="0.31818181818181823" stroke-miterlimit="10" stroke-dasharray=""/><path fill="none" stroke="rgb(0,0,0)" class="dcg-svg-major-gridline" paint-order="fill stroke markers" d=" M 0 24.5 L 600 24.5" stroke-opacity="0.31818181818181823" stroke-miterlimit="10" stroke-dasharray=""/></g></g><g id="axis-f5db67b4"><g id="yaxis-f5db67b4"><title>Y axis</title><path fill="none" stroke="rgb(0,0,0)" class="dcg-svg-axis-line" paint-order="fill stroke markers" d=" M 299.75 0 L 299.75 400" stroke-opacity="0.9" stroke-miterlimit="10" stroke-width="1.5" stroke-dasharray=""/></g><g id="xaxis-f5db67b4"><title>X axis</title><path fill="none" stroke="rgb(0,0,0)" class="dcg-svg-axis-line" paint-order="fill stroke markers" d=" M 0 324.75 L 600 324.75" stroke-opacity="0.9" stroke-miterlimit="10" stroke-width="1.5" stroke-dasharray=""/></g><g/></g></g><g id="expressions-f5db67b4"><g id="sketch-f5db67b4"><title>Expression 1</title><path fill="#2d70b3" stroke="none" paint-order="stroke fill markers" d="" fill-opacity="0.4"/><g><path fill="none" stroke="#2d70b3" class="dcg-svg-curve" paint-order="fill stroke markers" d=" M 49.5 224.5 L 49.5 224.5 L 53.454727030625804 203.3872233933482 L 57.26298268974705 184.63778913672843 L 61.07123834886819 167.38162690868572 L 64.73302263648473 152.1446572259105 L 68.39480692410119 138.18636927462256 L 71.91011984021304 125.94409227633417 L 75.42543275632492 114.79276292586815 L 78.79427430093207 105.09104482112593 L 82.16311584553927 96.31653232245026 L 85.53195739014646 88.43349676151064 L 88.754327563249 81.69493511138722 L 91.97669773635154 75.70950909556387 L 95.05259653794943 70.67127681666324 L 98.12849533954723 66.26648568401356 L 101.20439414114512 62.46994111743993 L 104.280292942743 59.256830460711456 L 107.35619174434089 56.60272298154126 L 110.28561917443407 54.572702173563584 L 113.06857523302264 53.07498267651022 L 115.70505992010652 52.027348467768036 L 118.34154460719041 51.32619280364315 L 120.83155792276962 50.96926900605325 L 123.3215712383489 50.89681583446895 L 125.95805592543277 51.11717828287868 L 128.59454061251665 51.629689506699606 L 131.3774966711052 52.47274196646083 L 134.3069241011984 53.678485892164986 L 137.5292942743009 55.360914635087795 L 141.04460719041276 57.59516341656581 L 144.85286284953392 60.451806814257964 L 148.95406125166448 63.994316062397615 L 153.64114513981357 68.5785785764217 L 158.7676431424767 74.17322254424573 L 164.33355525965382 80.84110868178067 L 170.48535286284954 88.81110672356255 L 177.66245006657792 98.73672644767095 L 186.59720372836222 111.75279586363479 L 202.7090545938748 136.00899666505757 L 215.45206391478027 154.8817615014772 L 224.2403462050599 167.26979615644944 L 231.71038615179762 177.19395712422332 L 238.44806924101198 185.55500619340899 L 244.74633821571234 192.78712312815784 L 250.75166444740347 199.09951365418397 L 256.4640479360852 204.53100906356687 L 261.73701731025295 209.01660789183316 L 266.7170439414114 212.7639804138718 L 271.4041278295606 215.8399094427389 L 275.7982689747004 218.31419279830632 L 280.0459387483356 220.32034687119514 L 284.0006657789614 221.84104445601105 L 287.80892143808256 222.98463989535398 L 291.61717709720375 223.8102542551479 L 295.27896138482026 224.30208791369105 L 298.9407456724367 224.4965248462473 L 302.60252996005323 224.3930643367796 L 306.2643142476698 223.99197278295665 L 309.92609853528626 223.29428369615306 L 313.7343541944075 222.25600020006053 L 317.54260985352863 220.90177562530607 L 321.49733688415444 219.16514946106267 L 325.59853528628497 217.01432824876312 L 329.99267643142474 214.32254701500116 L 334.53328894806924 211.13077934173512 L 339.36684420772303 207.28946715724987 L 344.63981358189085 202.59807145087427 L 350.2057256990679 197.10773163722024 L 356.211051930759 190.6039315995361 L 362.5093209054594 183.18913389626476 L 369.2470039946738 174.65546335399392 L 376.7170439414115 164.57050287469224 L 385.2123834886818 152.46612003762772 L 396.34420772303594 135.92877591619424 L 419.48668442077224 101.38314678066519 L 427.39613848202396 90.3180217562591 L 433.98735019973367 81.69219330228009 L 439.84620505992007 74.61697522019085 L 445.11917443408794 68.82722680696457 L 450.0992010652464 63.94539629480886 L 454.49334221038623 60.17430261113299 L 458.4480692410119 57.25801694889401 L 462.10985352862855 54.99861434838215 L 465.4786950732357 53.32407817530242 L 468.5545938748336 52.15676565402026 L 471.4840213049268 51.38558226986436 L 474.1205059920106 50.990947074835276 L 476.75699067909454 50.894029129747025 L 479.24700399467383 51.088257808507024 L 481.737017310253 51.57207032595818 L 484.2270306258322 52.35738879220054 L 486.7170439414115 53.45629933679993 L 489.3535286284954 54.97527292037785 L 492.13648468708385 56.991238387504325 L 495.0659121171771 59.59011191892364 L 498.141810918775 62.867663247647215 L 501.2177097203728 66.73142217835084 L 504.29360852197067 71.20624435437622 L 507.36950732356854 76.31736734300858 L 510.44540612516647 82.0904106354775 L 513.667776298269 88.87664731556487 L 516.8901464713715 96.44823055820706 L 520.1125166444741 104.83596556818924 L 523.4813581890812 114.51154430827347 L 526.8501997336883 125.14959574011726 L 530.3655126498003 137.3161469694059 L 533.8808255659121 150.61323524970538 L 537.396138482024 165.0839761034156 L 541.0579227696405 181.4528833624525 L 544.719707057257 199.19300132922018 L 548.5279627163782 219.152121776725 L 552.3362183754994 240.70773261342345 L 556.2909454061252 264.8455807873029 L 560.245672436751 290.83610760925325 L 564.3468708388815 319.81915272980626 L 568.448069241012 350.9454477144758 L 572.6957390146471 385.5266389484151 L 574.985427828985 405.5" stroke-linecap="round" stroke-linejoin="round" stroke-miterlimit="10" stroke-width="2.5" stroke-opacity="0.9" stroke-dasharray=""/></g></g><g id="sketch-f5db67b4"><title>Expression 2</title><path fill="#388c46" stroke="none" paint-order="stroke fill markers" d="" fill-opacity="0.4"/><path fill="#388c46" stroke="none" paint-order="stroke fill markers" d="" fill-opacity="0.4"/><path fill="#388c46" stroke="none" class="dcg-svg-region" paint-order="stroke fill markers" d=" M 49.5 324.5 L 564.9823667707293 324.5 L 564.9823667707293 324.4999999999999 L 564.05078125 317.655848026654 L 559.94921875 288.8220616284816 L 555.994140625 262.97055789819024 L 552.0390625 238.96697788545865 L 548.23046875 217.53622474093575 L 544.421875 197.69766316562894 L 540.759765625 180.06946407604303 L 537.09765625 163.80860058302645 L 533.58203125 149.43798164781768 L 530.06640625 136.23753297320224 L 526.697265625 124.64529145272724 L 523.328125 114.050829268992 L 519.958984375 104.41734902266217 L 516.736328125 96.06850136751933 L 513.513671875 88.53446921548499 L 510.4375 82.0747013092041 L 507.361328125 76.3029099440264 L 504.28515625 71.19308777796687 L 501.208984375 66.71960952862901 L 498.1328125 62.85723197320476 L 495.056640625 59.58109394847452 L 492.126953125 56.98359117737891 L 489.34375 54.96894609928131 L 486.70703125 53.45123623442487 L 484.216796875 52.353527761990335 L 481.7265625 51.56941703567287 L 479.236328125 51.086815388227535 L 476.74609375 50.893798230128596 L 474.109375 50.99199698120361 L 471.47265625 51.38790819505817 L 468.689453125 52.11382257763216 L 465.61328125 53.26561752185813 L 462.390625 54.84386370331055 L 458.728515625 57.069531665731176 L 454.7734375 59.95233408221975 L 450.37890625 63.689716385590145 L 445.3984375 68.53764272341505 L 440.125 74.29629516601562 L 434.265625 81.34251878410578 L 427.673828125 89.94239405361623 L 419.763671875 100.98517196002103 L 395.88671875 136.61760922000394 L 384.900390625 152.92035307411606 L 376.404296875 165.00429691583304 L 369.080078125 174.8737468842246 L 362.341796875 183.3937081783024 L 356.04296875 190.79374008756713 L 350.037109375 197.28185761047098 L 344.470703125 202.75639075389518 L 339.34375 207.3088814020157 L 334.509765625 211.1483679886096 L 329.96875 214.3382717370987 L 325.57421875 217.02811751925037 L 321.47265625 219.17702082256437 L 317.517578125 220.9117007236291 L 313.708984375 222.2639661113153 L 309.900390625 223.30021200377996 L 306.23828125 223.99587278664694 L 302.576171875 224.39487332576573 L 298.9140625 224.49618532368913 L 295.251953125 224.29954786912458 L 291.58984375 223.80546743693412 L 287.78125 222.97747385501862 L 283.97265625 221.83146279017092 L 280.017578125 220.3082260935862 L 275.76953125 218.2993199111952 L 271.375 215.82217407226562 L 266.6875 212.74318885803223 L 261.70703125 208.99258394670323 L 256.43359375 204.5036017446837 L 250.720703125 199.0685157112257 L 244.71484375 192.75247075306834 L 238.416015625 185.51669837379632 L 231.53125 176.96358454227448 L 224.060546875 167.02343154244045 L 215.271484375 154.6206118218488 L 202.52734375 135.73528814772726 L 186.560546875 111.69834411248485 L 177.625 98.68350219726562 L 170.447265625 88.7600818392475 L 164.294921875 80.79292142920349 L 158.728515625 74.12842458634441 L 153.6015625 68.53764272341505 L 148.9140625 63.957571527455 L 144.8125 60.41927528381353 L 141.00390625 57.56702171816147 L 137.48828125 55.337250618642486 L 134.265625 53.659298874437866 L 131.3359375 52.45794459292671 L 128.552734375 51.61935293345056 L 125.916015625 51.11133631722805 L 123.279296875 50.89573679561187 L 120.7890625 50.97294091293588 L 118.298828125 51.334867084917335 L 115.662109375 52.041600058111726 L 113.025390625 53.09510729184876 L 110.2421875 54.59935489157215 L 107.3125 56.63662147521973 L 104.236328125 59.298760851199404 L 101.16015625 62.52034923704923 L 98.083984375 66.3258293497729 L 95.0078125 70.74002596596256 L 91.931640625 75.78814592179879 L 88.708984375 81.78446114234436 L 85.486328125 88.53446921548499 L 82.1171875 96.43008309463045 L 78.748046875 105.21781570405625 L 75.37890625 114.93341274737031 L 71.86328125 126.09994552508584 L 68.34765625 138.35818187976844 L 64.685546875 152.333919594641 L 61.0234375 167.58920392999428 L 57.21484375 184.86535579609338 L 53.40625 203.63576662540436 L 49.5 224.5" fill-opacity="0.4"/><g><path fill="none" stroke="#388c46" class="dcg-svg-curve" paint-order="fill stroke markers" d=" M 49.5 324.5 L 60.5 324.5 M 67.5 324.5 L 78.5 324.5 M 85.5 324.5 L 96.5 324.5 M 103.5 324.5 L 114.5 324.5 M 121.5 324.5 L 132.5 324.5 M 139.5 324.5 L 150.5 324.5 M 157.5 324.5 L 168.5 324.5 M 175.5 324.5 L 186.5 324.5 M 193.5 324.5 L 204.5 324.5 M 211.5 324.5 L 222.5 324.5 M 229.5 324.5 L 240.5 324.5 M 247.5 324.5 L 258.5 324.5 M 265.5 324.5 L 276.5 324.5 M 283.5 324.5 L 294.5 324.5 M 301.5 324.5 L 312.5 324.5 M 319.5 324.5 L 330.5 324.5 M 337.5 324.5 L 348.5 324.5 M 355.5 324.5 L 366.5 324.5 M 373.5 324.5 L 384.5 324.5 M 391.5 324.5 L 402.5 324.5 M 409.5 324.5 L 420.5 324.5 M 427.5 324.5 L 438.5 324.5 M 445.5 324.5 L 456.5 324.5 M 463.5 324.5 L 474.5 324.5 M 481.5 324.5 L 492.5 324.5 M 499.5 324.5 L 510.5 324.5 M 517.5 324.5 L 528.5 324.5 M 535.5 324.5 L 546.5 324.5 M 553.5 324.5 L 564.5 324.5" stroke-linecap="round" stroke-linejoin="round" stroke-miterlimit="10" stroke-width="2.5" stroke-opacity="0.9" stroke-dasharray=""/></g><g><path fill="none" stroke="#388c46" class="dcg-svg-curve" paint-order="fill stroke markers" d=" M 49.5 224.5 L 51.524273374841144 213.6878625006935 M 52.81244734064914 206.8074113647712 L 53.40625 203.63576662540436 M 53.40625 203.63576662540436 L 54.95197604794014 196.01775460997118 M 56.343940267595855 189.15754793588343 L 57.21484375 184.86535579609338 M 57.21484375 184.86535579609338 L 58.64010111333794 178.40024970350942 M 60.147092512583214 171.56439007047123 L 61.0234375 167.58920392999428 M 61.0234375 167.58920392999428 L 62.64091468347239 160.85126363026808 M 64.27488020738802 154.04463769176851 L 64.685546875 152.333919594641 M 64.685546875 152.333919594641 L 67.02783581765762 143.39502330211042 M 68.84198665792731 136.63455692611737 L 71.86328125 126.09994552508584 M 71.86328125 126.09994552508584 L 71.87550360267713 126.06112417702116 M 73.97763260203953 119.38421967942352 L 75.37890625 114.93341274737031 M 75.37890625 114.93341274737031 L 77.45409219385144 108.949195208095 M 79.84012181118389 102.3693556375846 L 82.1171875 96.43008309463045 M 82.1171875 96.43008309463045 L 83.93794047307465 92.163130763217 M 86.80246924983348 85.77774850783322 L 88.708984375 81.78446114234436 M 88.708984375 81.78446114234436 L 91.82157293195596 75.99294610273348 M 95.49719818958178 70.03777500511092 L 98.083984375 66.3258293497729 M 98.083984375 66.3258293497729 L 101.16015625 62.52034923704923 M 101.16015625 62.52034923704923 L 102.25289113562489 61.375958689514526 M 107.36158418092069 56.60248897420198 L 110.2421875 54.59935489157215 M 110.2421875 54.59935489157215 L 113.025390625 53.09510729184876 M 113.025390625 53.09510729184876 L 115.662109375 52.041600058111726 M 115.662109375 52.041600058111726 L 117.09965318131164 51.65628796961848 M 124.02746736041539 50.95691328580177 L 125.916015625 51.11133631722805 M 125.916015625 51.11133631722805 L 128.552734375 51.61935293345056 M 128.552734375 51.61935293345056 L 131.3359375 52.45794459292671 M 131.3359375 52.45794459292671 L 134.265625 53.659298874437866 M 134.265625 53.659298874437866 L 134.57314255613412 53.8194151200625 M 140.6241228113871 57.32614559073179 L 141.00390625 57.56702171816147 M 141.00390625 57.56702171816147 L 144.8125 60.41927528381353 M 144.8125 60.41927528381353 L 148.9140625 63.957571527455 M 148.9140625 63.957571527455 L 149.182414602353 64.2197734974523 M 154.15684673742888 69.14316279892537 L 158.728515625 74.12842458634441 M 158.728515625 74.12842458634441 L 161.44391814520736 77.37949730907525 M 165.85502998847505 82.81322980307594 L 170.447265625 88.7600818392475 M 170.447265625 88.7600818392475 L 172.49056336281086 91.5849986318649 M 176.5930603699581 97.25681653323903 L 177.625 98.68350219726562 M 177.625 98.68350219726562 L 182.85445452657947 106.30033023458253 M 186.81075498601948 112.07501567715889 L 192.89718650377407 121.23773096137914 M 196.77037019689064 127.06854977861022 L 202.52734375 135.73528814772726 M 202.52734375 135.73528814772726 L 202.86040809609062 136.2288504965209 M 206.77598923988222 142.0312831162403 L 212.92904532298328 151.1493915186565 M 216.89753264026936 156.91523465461586 L 223.2575214946413 165.89023001797202 M 227.43171744039677 171.50894658003347 L 231.53125 176.96358454227448 M 231.53125 176.96358454227448 L 234.15012401376194 180.2170762034551 M 238.54521732950911 185.6651186999728 L 244.71484375 192.75247075306834 M 244.71484375 192.75247075306834 L 245.81977318632804 193.91446665734964 M 250.64339000229646 198.98720958526414 L 250.720703125 199.0685157112257 M 250.720703125 199.0685157112257 L 256.43359375 204.5036017446837 M 256.43359375 204.5036017446837 L 258.7199479076343 206.4498470772839 M 264.1651914566557 210.84373254469742 L 266.6875 212.74318885803223 M 266.6875 212.74318885803223 L 271.375 215.82217407226562 M 271.375 215.82217407226562 L 273.32127909013576 216.91926881917985 M 279.55695680273317 220.09039774816736 L 280.017578125 220.3082260935862 M 280.017578125 220.3082260935862 L 283.97265625 221.83146279017092 M 283.97265625 221.83146279017092 L 287.78125 222.97747385501862 M 287.78125 222.97747385501862 L 290.0042511068652 223.46075738954508 M 296.931614242378 224.3897374983331 L 298.9140625 224.49618532368913 M 298.9140625 224.49618532368913 L 302.576171875 224.39487332576573 M 302.576171875 224.39487332576573 L 306.23828125 223.99587278664694 M 306.23828125 223.99587278664694 L 307.8763910782946 223.68469454239434 M 314.6445220144718 221.93179753367812 L 317.517578125 220.9117007236291 M 317.517578125 220.9117007236291 L 321.47265625 219.17702082256437 M 321.47265625 219.17702082256437 L 324.69024807822893 217.49125016604086 M 330.6640117420564 213.84987481880648 L 334.509765625 211.1483679886096 M 334.509765625 211.1483679886096 L 339.34375 207.3088814020157 M 339.34375 207.3088814020157 L 339.4386874821191 207.22458143106493 M 344.663574255528 202.56670294652665 L 350.037109375 197.28185761047098 M 350.037109375 197.28185761047098 L 352.38963553870707 194.74042843725832 M 357.0942884642492 189.5586215420388 L 362.341796875 183.3937081783024 M 362.341796875 183.3937081783024 L 364.1433228793353 181.1158377158293 M 368.48559354468983 175.62542011160266 L 369.080078125 174.8737468842246 M 369.080078125 174.8737468842246 L 375.0642757965769 166.80998724834623 M 379.1371028653993 161.11744313455353 L 384.900390625 152.92035307411606 M 384.900390625 152.92035307411606 L 385.4478510561549 152.10796998507743 M 389.3597509492261 146.3030548929689 L 395.5070222097666 137.18104546251266 M 399.40517396923957 131.36689175218996 L 405.5285186609751 122.22880388950261 M 409.42519255571597 116.41365706779249 L 415.5485372474515 107.27556920510514 M 419.44521114219236 101.460422383395 L 419.763671875 100.98517196002103 M 419.763671875 100.98517196002103 L 425.83618539857434 92.50778971179162 M 430.0125242993304 86.89125401184691 L 434.265625 81.34251878410578 M 434.265625 81.34251878410578 L 436.82875283518246 78.2602153151442 M 441.3707734206951 72.93589672533761 L 445.3984375 68.53764272341505 M 445.3984375 68.53764272341505 L 449.00727641007165 65.02484381244837 M 454.25313900513476 60.3948282361024 L 454.7734375 59.95233408221975 M 454.7734375 59.95233408221975 L 458.728515625 57.069531665731176 M 458.728515625 57.069531665731176 L 462.390625 54.84386370331055 M 462.390625 54.84386370331055 L 463.4120925697629 54.34361571953761 M 469.9128130802568 51.79474612266232 L 471.47265625 51.38790819505817 M 471.47265625 51.38790819505817 L 474.109375 50.99199698120361 M 474.109375 50.99199698120361 L 476.74609375 50.893798230128596 M 476.74609375 50.893798230128596 L 479.236328125 51.086815388227535 M 479.236328125 51.086815388227535 L 480.7928156765304 51.388459066484415 M 487.32815911598624 53.80876086216324 L 489.34375 54.96894609928131 M 489.34375 54.96894609928131 L 492.126953125 56.98359117737891 M 492.126953125 56.98359117737891 L 495.056640625 59.58109394847452 M 495.056640625 59.58109394847452 L 495.9623439708075 60.54567242162156 M 500.51837019118915 65.85248869422874 L 501.208984375 66.71960952862901 M 501.208984375 66.71960952862901 L 504.28515625 71.19308777796687 M 504.28515625 71.19308777796687 L 506.5866904999225 75.01616113149957 M 509.947270868111 81.15488915781204 L 510.4375 82.0747013092041 M 510.4375 82.0747013092041 L 513.513671875 88.53446921548499 M 513.513671875 88.53446921548499 L 514.6159865901348 91.11149694082357 M 517.3155734462325 97.56913642343784 L 519.958984375 104.41734902266217 M 519.958984375 104.41734902266217 L 521.1670177213574 107.87151335545593 M 523.4656142567297 114.4831723775831 L 526.697265625 124.64529145272724 M 526.697265625 124.64529145272724 L 526.791152910752 124.96833053398798 M 528.7447767656167 131.6901869616204 L 530.06640625 136.23753297320224 M 530.06640625 136.23753297320224 L 531.6786068014081 142.29101439742976 M 533.480095009503 149.05523203408924 L 533.58203125 149.43798164781768 M 533.58203125 149.43798164781768 L 536.1018606223619 159.73814383575268 M 537.7149253000351 166.5494602169869 L 540.1317045595616 177.28068465834133 M 541.6021162684026 184.12426510042332 L 543.839504269496 194.8943205753298 M 545.2018133750462 201.76027957839224 L 547.2757138926513 212.5630077820951 M 548.569213647857 219.44232414703328 L 550.4939347035738 230.272626490813 M 551.7187571935754 237.1646370732183 L 552.0390625 238.96697788545865 M 552.0390625 238.96697788545865 L 553.529809937081 248.01440356298525 M 554.6678572223029 254.9212732140355 L 555.994140625 262.97055789819024 M 555.994140625 262.97055789819024 L 556.4239707720602 265.78004870947956 M 557.4825983113863 272.69953624346505 L 559.1461558731843 283.57301665401366 M 560.1872057756387 290.49509893141277 L 561.7363445032792 301.3854694119118 M 562.7221600572321 308.31570517222934 L 564.05078125 317.655848026654 M 564.05078125 317.655848026654 L 564.2619658792297 319.207374606577" stroke-linecap="round" stroke-linejoin="round" stroke-miterlimit="10" stroke-width="2.5" stroke-opacity="0.9" stroke-dasharray=""/></g></g></g><g id="labels-f5db67b4"/></g></svg>