<svg version="1.1" xmlns="http://www.w3.org/2000/svg" xmlns:xlink="http://www.w3.org/1999/xlink" width="600" height="400"><defs/><g transform="scale(1,1)"><g id="background-ead98c36"><rect fill="white" stroke="none" x="0" y="0" width="600" height="400" class="dcg-svg-background"/></g><g id="background-images-ead98c36"/><g id="graphpaper-ead98c36"><g id="grid-ead98c36"><g><path fill="none" stroke="rgb(0,0,0)" class="dcg-svg-minor-gridline" paint-order="fill stroke markers" d=" M -0.5 0 L -0.5 400" stroke-opacity="0.12" stroke-miterlimit="10" stroke-dasharray=""/><path fill="none" stroke="rgb(0,0,0)" class="dcg-svg-minor-gridline" paint-order="fill stroke markers" d=" M 29.5 0 L 29.5 400" stroke-opacity="0.12" stroke-miterlimit="10" stroke-dasharray=""/><path fill="none" stroke="rgb(0,0,0)" class="dcg-svg-minor-gridline" paint-order="fill stroke markers" d=" M 59.5 0 L 59.5 400" stroke-opacity="0.12" stroke-miterlimit="10" stroke-dasharray=""/><path fill="none" stroke="rgb(0,0,0)" class="dcg-svg-minor-gridline" paint-order="fill stroke markers" d=" M 89.5 0 L 89.5 400" stroke-opacity="0.12" stroke-miterlimit="10" stroke-dasharray=""/><path fill="none" stroke="rgb(0,0,0)" class="dcg-svg-minor-gridline" paint-order="fill stroke markers" d=" M 119.5 0 L 119.5 400" stroke-opacity="0.12" stroke-miterlimit="10" stroke-dasharray=""/><path fill="none" stroke="rgb(0,0,0)" class="dcg-svg-minor-gridline" paint-order="fill stroke markers" d=" M 149.5 0 L 149.5 400" stroke-opacity="0.12" stroke-miterlimit="10" stroke-dasharray=""/><path fill="none" stroke="rgb(0,0,0)" class="dcg-svg-minor-gridline" paint-order="fill stroke markers" d=" M 179.5 0 L 179.5 400" stroke-opacity="0.12" stroke-miterlimit="10" stroke-dasharray=""/><path fill="none" stroke="rgb(0,0,0)" class="dcg-svg-minor-gridline" paint-order="fill stroke markers" d=" M 209.5 0 L 209.5 400" stroke-opacity="0.12" stroke-miterlimit="10" stroke-dasharray=""/><path fill="none" stroke="rgb(0,0,0)" class="dcg-svg-minor-gridline" paint-order="fill stroke markers" d=" M 239.5 0 L 239.5 400" stroke-opacity="0.12" stroke-miterlimit="10" stroke-dasharray=""/><path fill="none" stroke="rgb(0,0,0)" class="dcg-svg-minor-gridline" paint-order="fill stroke markers" d=" M 269.5 0 L 269.5 400" stroke-opacity="0.12" stroke-miterlimit="10" stroke-dasharray=""/><path fill="none" stroke="rgb(0,0,0)" class="dcg-svg-minor-gridline" paint-order="fill stroke markers" d=" M 329.5 0 L 329.5 400" stroke-opacity="0.12" stroke-miterlimit="10" stroke-dasharray=""/><path fill="none" stroke="rgb(0,0,0)" class="dcg-svg-minor-gridline" paint-order="fill stroke markers" d=" M 359.5 0 L 359.5 400" stroke-opacity="0.12" stroke-miterlimit="10" stroke-dasharray=""/><path fill="none" stroke="rgb(0,0,0)" class="dcg-svg-minor-gridline" paint-order="fill stroke markers" d=" M 389.5 0 L 389.5 400" stroke-opacity="0.12" stroke-miterlimit="10" stroke-dasharray=""/><path fill="none" stroke="rgb(0,0,0)" class="dcg-svg-minor-gridline" paint-order="fill stroke markers" d=" M 419.5 0 L 419.5 400" stroke-opacity="0.12" stroke-miterlimit="10" stroke-dasharray=""/><path fill="none" stroke="rgb(0,0,0)" class="dcg-svg-minor-gridline" paint-order="fill stroke markers" d=" M 449.5 0 L 449.5 400" stroke-opacity="0.12" stroke-miterlimit="10" stroke-dasharray=""/><path fill="none" stroke="rgb(0,0,0)" class="dcg-svg-minor-gridline" paint-order="fill stroke markers" d=" M 479.5 0 L 479.5 400" stroke-opacity="0.12" stroke-miterlimit="10" stroke-dasharray=""/><path fill="none" stroke="rgb(0,0,0)" class="dcg-svg-minor-gridline" paint-order="fill stroke markers" d=" M 509.5 0 L 509.5 400" stroke-opacity="0.12" stroke-miterlimit="10" stroke-dasharray=""/><path fill="none" stroke="rgb(0,0,0)" class="dcg-svg-minor-gridline" paint-order="fill stroke markers" d=" M 539.5 0 L 539.5 400" stroke-opacity="0.12" stroke-miterlimit="10" stroke-dasharray=""/><path fill="none" stroke="rgb(0,0,0)" class="dcg-svg-minor-gridline" paint-order="fill stroke markers" d=" M 569.5 0 L 569.5 400" stroke-opacity="0.12" stroke-miterlimit="10" stroke-dasharray=""/><path fill="none" stroke="rgb(0,0,0)" class="dcg-svg-minor-gridline" paint-order="fill stroke markers" d=" M 0 370.5 L 600 370.5" stroke-opacity="0.12" stroke-miterlimit="10" stroke-dasharray=""/><path fill="none" stroke="rgb(0,0,0)" class="dcg-svg-minor-gridline" paint-order="fill stroke markers" d=" M 0 342.5 L 600 342.5" stroke-opacity="0.12" stroke-miterlimit="10" stroke-dasharray=""/><path fill="none" stroke="rgb(0,0,0)" class="dcg-svg-minor-gridline" paint-order="fill stroke markers" d=" M 0 313.5 L 600 313.5" stroke-opacity="0.12" stroke-miterlimit="10" stroke-dasharray=""/><path fill="none" stroke="rgb(0,0,0)" class="dcg-svg-minor-gridline" paint-order="fill stroke markers" d=" M 0 285.5 L 600 285.5" stroke-opacity="0.12" stroke-miterlimit="10" stroke-dasharray=""/><path fill="none" stroke="rgb(0,0,0)" class="dcg-svg-minor-gridline" paint-order="fill stroke markers" d=" M 0 256.5 L 600 256.5" stroke-opacity="0.12" stroke-miterlimit="10" stroke-dasharray=""/><path fill="none" stroke="rgb(0,0,0)" class="dcg-svg-minor-gridline" paint-order="fill stroke markers" d=" M 0 228.5 L 600 228.5" stroke-opacity="0.12" stroke-miterlimit="10" stroke-dasharray=""/><path fill="none" stroke="rgb(0,0,0)" class="dcg-svg-minor-gridline" paint-order="fill stroke markers" d=" M 0 170.5 L 600 170.5" stroke-opacity="0.12" stroke-miterlimit="10" stroke-dasharray=""/><path fill="none" stroke="rgb(0,0,0)" class="dcg-svg-minor-gridline" paint-order="fill stroke markers" d=" M 0 142.5 L 600 142.5" stroke-opacity="0.12" stroke-miterlimit="10" stroke-dasharray=""/><path fill="none" stroke="rgb(0,0,0)" class="dcg-svg-minor-gridline" paint-order="fill stroke markers" d=" M 0 113.5 L 600 113.5" stroke-opacity="0.12" stroke-miterlimit="10" stroke-dasharray=""/><path fill="none" stroke="rgb(0,0,0)" class="dcg-svg-minor-gridline" paint-order="fill stroke markers" d=" M 0 85.5 L 600 85.5" stroke-opacity="0.12" stroke-miterlimit="10" stroke-dasharray=""/><path fill="none" stroke="rgb(0,0,0)" class="dcg-svg-minor-gridline" paint-order="fill stroke markers" d=" M 0 56.5 L 600 56.5" stroke-opacity="0.12" stroke-miterlimit="10" stroke-dasharray=""/><path fill="none" stroke="rgb(0,0,0)" class="dcg-svg-minor-gridline" paint-order="fill stroke markers" d=" M 0 28.5 L 600 28.5" stroke-opacity="0.12" stroke-miterlimit="10" stroke-dasharray=""/><path fill="none" stroke="rgb(0,0,0)" class="dcg-svg-minor-gridline" paint-order="fill stroke markers" d=" M 0 -0.5 L 600 -0.5" stroke-opacity="0.12" stroke-miterlimit="10" stroke-dasharray=""/><path fill="none" stroke="rgb(0,0,0)" class="dcg-svg-major-gridline" paint-order="fill stroke markers" d=" M -0.5 0 L -0.5 400" stroke-opacity="0.31818181818181823" stroke-miterlimit="10" stroke-dasharray=""/><path fill="none" stroke="rgb(0,0,0)" class="dcg-svg-major-gridline" paint-order="fill stroke markers" d=" M 149.5 0 L 149.5 400" stroke-opacity="0.31818181818181823" stroke-miterlimit="10" stroke-dasharray=""/><path fill="none" stroke="rgb(0,0,0)" class="dcg-svg-major-gridline" paint-order="fill stroke markers" d=" M 449.5 0 L 449.5 400" stroke-opacity="0.31818181818181823" stroke-miterlimit="10" stroke-dasharray=""/><path fill="none" stroke="rgb(0,0,0)" class="dcg-svg-major-gridline" paint-order="fill stroke markers" d=" M 0 342.5 L 600 342.5" stroke-opacity="0.31818181818181823" stroke-miterlimit="10" stroke-dasharray=""/><path fill="none" stroke="rgb(0,0,0)" class="dcg-svg-major-gridline" paint-order="fill stroke markers" d=" M 0 56.5 L 600 56.5" stroke-opacity="0.31818181818181823" stroke-miterlimit="10" stroke-dasharray=""/></g></g><g id="axis-ead98c36"><g id="yaxis-ead98c36"><title>Y axis</title><path fill="none" stroke="rgb(0,0,0)" class="dcg-svg-axis-line" paint-order="fill stroke markers" d=" M 299.75 0 L 299.75 400" stroke-opacity="0.9" stroke-miterlimit="10" stroke-width="1.5" stroke-dasharray=""/></g><g id="xaxis-ead98c36"><title>X axis</title><path fill="none" stroke="rgb(0,0,0)" class="dcg-svg-axis-line" paint-order="fill stroke markers" d=" M 0 199.75 L 600 199.75" stroke-opacity="0.9" stroke-miterlimit="10" stroke-width="1.5" stroke-dasharray=""/></g><g><g class="dcg-svg-axis-value"><text fill="none" stroke="#ffffff" font-family="Arial" font-size="14px" font-style="normal" font-weight="normal" text-decoration="normal" x="291.10693359375" y="215.808" text-anchor="middle" stroke-miterlimit="2" stroke-width="3" stroke-dasharray="">0</text><text fill="#000000" stroke="none" font-family="Arial" font-size="14px" font-style="normal" font-weight="normal" text-decoration="normal" x="291.10693359375" y="215.808" text-anchor="middle">0</text></g><g class="dcg-svg-axis-value dcg-svg-offcenter-axis-value"><text fill="none" stroke="#ffffff" font-family="Arial" font-size="14px" font-style="normal" font-weight="normal" text-decoration="normal" x="13.1171875" y="215.808" text-anchor="middle" stroke-miterlimit="2" stroke-width="3" stroke-dasharray="">-10</text><text fill="#000000" stroke="none" font-family="Arial" font-size="14px" font-style="normal" font-weight="normal" text-decoration="normal" x="13.1171875" y="215.808" text-anchor="middle">-10</text></g><g class="dcg-svg-axis-value"><text fill="none" stroke="#ffffff" font-family="Arial" font-size="14px" font-style="normal" font-weight="normal" text-decoration="normal" x="147.6689453125" y="215.808" text-anchor="middle" stroke-miterlimit="2" stroke-width="3" stroke-dasharray="">-5</text><text fill="#000000" stroke="none" font-family="Arial" font-size="14px" font-style="normal" font-weight="normal" text-decoration="normal" x="147.6689453125" y="215.808" text-anchor="middle">-5</text></g><g class="dcg-svg-axis-value"><text fill="none" stroke="#ffffff" font-family="Arial" font-size="14px" font-style="normal" font-weight="normal" text-decoration="normal" x="450" y="215.808" text-anchor="middle" stroke-miterlimit="2" stroke-width="3" stroke-dasharray="">5</text><text fill="#000000" stroke="none" font-family="Arial" font-size="14px" font-style="normal" font-weight="normal" text-decoration="normal" x="450" y="215.808" text-anchor="middle">5</text></g><g class="dcg-svg-axis-value dcg-svg-offcenter-axis-value"><text fill="none" stroke="#ffffff" font-family="Arial" font-size="14px" font-style="normal" font-weight="normal" text-decoration="normal" x="589.2138671875" y="215.808" text-anchor="middle" stroke-miterlimit="2" stroke-width="3" stroke-dasharray="">10</text><text fill="#000000" stroke="none" font-family="Arial" font-size="14px" font-style="normal" font-weight="normal" text-decoration="normal" x="589.2138671875" y="215.808" text-anchor="middle">10</text></g><g class="dcg-svg-axis-value"><text fill="none" stroke="#ffffff" font-family="Arial" font-size="14px" font-style="normal" font-weight="normal" text-decoration="normal" x="288.77587890625" y="346.6651428571428" text-anchor="middle" stroke-miterlimit="2" stroke-width="3" stroke-dasharray="">-5</text><text fill="#000000" stroke="none" font-family="Arial" font-size="14px" font-style="normal" font-weight="normal" text-decoration="normal" x="288.77587890625" y="346.6651428571428" text-anchor="middle">-5</text></g><g class="dcg-svg-axis-value"><text fill="none" stroke="#ffffff" font-family="Arial" font-size="14px" font-style="normal" font-weight="normal" text-decoration="normal" x="291.10693359375" y="60.95085714285717" text-anchor="middle" stroke-miterlimit="2" stroke-width="3" stroke-dasharray="">5</text><text fill="#000000" stroke="none" font-family="Arial" font-size="14px" font-style="normal" font-weight="normal" text-decoration="normal" x="291.10693359375" y="60.95085714285717" text-anchor="middle">5</text></g></g></g></g><g id="expressions-ead98c36"><g id="sketch-ead98c36"><title>Expression 1</title><path fill="#2d70b3" stroke="none" paint-order="stroke fill markers" d="" fill-opacity="0.4"/><g><path fill="none" stroke="#2d70b3" class="dcg-svg-curve" paint-order="fill stroke markers" d=" M -0.5 185.52652774067278 L -0.5 185.52652774067278 L 3.30859375 183.5489618587476 L 6.82421875 182.05432694257266 L 10.046875 180.98945888808484 L 13.123046875 180.2643974866016 L 16.052734375 179.85236260979175 L 18.834966565144125 179.7224438887054 L 21.619140625 179.85458155135083 L 24.40234375 180.25386041477273 L 27.185546875 180.9232753764078 L 29.96875 181.86366857939623 L 32.8984375 183.1447782586029 L 35.974609375 184.80675619255285 L 39.34375 186.9897044249817 L 42.859375 189.6555257506305 L 46.814453125 193.0997143455207 L 51.208984375 197.43085499878492 L 56.189453125 202.8970413588209 L 61.90234375 209.74929065980498 L 69.51953125 219.5089457585441 L 83.728515625 237.80954217167331 L 89.294921875 244.32942759359264 L 93.982421875 249.26845748924634 L 98.083984375 253.06424449500653 L 101.74609375 255.96655466543257 L 104.96875 258.09489834487476 L 107.8984375 259.65363406297297 L 110.53515625 260.73033077772124 L 113.025390625 261.44938394222777 L 115.369140625 261.8516957037575 L 117.712890625 261.9797802572609 L 119.91015625 261.84494470075435 L 122.107421875 261.459013857302 L 124.451171875 260.7670533382134 L 126.794921875 259.78345359913993 L 129.28515625 258.41794857320735 L 131.921875 256.6134363066982 L 134.705078125 254.31255363292001 L 137.78125 251.30530608612935 L 141.150390625 247.4699235316123 L 144.666015625 242.89213928272753 L 148.328125 237.53962968208134 L 152.283203125 231.1505339215578 L 156.677734375 223.40589844629397 L 161.8046875 213.67796514580746 L 168.54296875 200.13989122446202 L 182.166015625 172.60017890417174 L 187 163.6478584884144 L 190.955078125 156.9706991147839 L 194.470703125 151.66733155133403 L 197.546875 147.61091902292705 L 200.4765625 144.33070335952766 L 203.11328125 141.923065463429 L 205.45703125 140.2586883281557 L 207.5078125 139.19908738594376 L 209.265625 138.60479332181535 L 210.876953125 138.32839451413463 L 212.48828125 138.32089610521143 L 214.099609375 138.59421205064388 L 215.7109375 139.16034644032368 L 217.322265625 140.0314146765797 L 219.080078125 141.34384889266505 L 220.984375 143.2103561123364 L 223.03515625 145.76108197680952 L 225.0859375 148.89866006391117 L 227.13671875 152.65079907523435 L 229.333984375 157.38571782767573 L 231.53125 162.8965598323794 L 233.875 169.6747984539646 L 236.21875 177.43301828922168 L 238.5625 186.2281475131769 L 241.052734375 196.77999154452743 L 243.54296875 208.6597638555113 L 246.033203125 221.96651977838945 L 248.669921875 237.7407541134874 L 251.306640625 255.4102336288471 L 253.943359375 275.17682292431334 L 256.580078125 297.29156736250957 L 259.216796875 322.0719027011844 L 261.70703125 348.28959186227183 L 264.197265625 377.69434655302524 L 266.29218007369303 405.5" stroke-linecap="round" stroke-linejoin="round" stroke-miterlimit="10" stroke-width="2.5" stroke-opacity="0.9" stroke-dasharray=""/></g><g><path fill="none" stroke="#2d70b3" class="dcg-svg-curve" paint-order="fill stroke markers" d=" M 332.7907484343796 -5.5 L 332.7907484343796 -5.5 L 334.802734375 21.30565344697476 L 337.29296875 50.71040813772811 L 339.9296875 78.38116655442855 L 342.56640625 103.00367567205302 L 345.203125 124.98034567706856 L 347.83984375 144.62436331811173 L 350.4765625 162.18364369902378 L 353.11328125 177.8577178117362 L 355.75 191.80986760983984 L 358.38671875 204.17599233685738 L 360.876953125 214.5027348282084 L 363.3671875 223.60142670983967 L 365.857421875 231.54614286671963 L 368.201171875 238.02899559483348 L 370.544921875 243.59922405990434 L 372.7421875 248.03433367498832 L 374.939453125 251.7451937583438 L 376.990234375 254.58594314464412 L 379.041015625 256.8533456911041 L 381.091796875 258.57384120748947 L 382.849609375 259.6328436535392 L 384.4609375 260.28093502732213 L 386.072265625 260.63291580049145 L 387.68359375 260.7008181220916 L 389.294921875 260.49657869069017 L 390.90625 260.0320566768921 L 392.6640625 259.24231313656327 L 394.568359375 258.0707208357626 L 396.765625 256.33504941337685 L 399.255859375 253.90645628879406 L 402.0390625 250.66243480969734 L 405.115234375 246.49536947030745 L 408.484375 241.32183607136747 L 412.29296875 234.83188820175332 L 416.833984375 226.39982109582823 L 422.693359375 214.77480234520795 L 440.41796875 179.1308717310929 L 445.3984375 170.1065398154407 L 449.646484375 163.0589565118168 L 453.6015625 157.13220394677978 L 457.263671875 152.25311917439518 L 460.779296875 148.16330391810783 L 464.1484375 144.81968830832508 L 467.224609375 142.2766849484591 L 470.0078125 140.40428285176853 L 472.64453125 139.00984778832702 L 475.134765625 138.03268161062869 L 477.478515625 137.4133206174311 L 479.822265625 137.0823995992618 L 482.01953125 137.03036388133376 L 484.36328125 137.24491459242262 L 486.70703125 137.73136076383662 L 489.197265625 138.536797424425 L 491.833984375 139.70107934270357 L 494.6171875 141.26071980264555 L 497.693359375 143.3554828647134 L 501.0625 146.06183153569407 L 504.87109375 149.58693879238402 L 509.265625 154.1836317459644 L 514.392578125 160.1224094019963 L 520.837890625 168.19916798027043 L 541.638671875 194.74243676167967 L 546.912109375 200.64476475004955 L 551.74609375 205.49011916765426 L 555.994140625 209.22511344660245 L 559.802734375 212.11290666750398 L 563.318359375 214.36531476707776 L 566.541015625 216.0662959014187 L 569.6171875 217.35679391764714 L 572.546875 218.27916287867902 L 575.330078125 218.87731890457817 L 578.11328125 219.2059205308181 L 580.896484375 219.26851935040582 L 583.6796875 219.0707378771727 L 586.609375 218.58964467347852 L 589.5390625 217.839635273904 L 592.615234375 216.77731132707262 L 595.984375 215.31167387639988 L 599.5 213.4734722593272" stroke-linecap="round" stroke-linejoin="round" stroke-miterlimit="10" stroke-width="2.5" stroke-opacity="0.9" stroke-dasharray=""/></g></g></g><g id="labels-ead98c36"/></g></svg>