<svg version="1.1" xmlns="http://www.w3.org/2000/svg" xmlns:xlink="http://www.w3.org/1999/xlink" width="600" height="400"><defs/><g transform="scale(1,1)"><g id="background-5d0b0554"><rect fill="white" stroke="none" x="0" y="0" width="600" height="400" class="dcg-svg-background"/></g><g id="background-images-5d0b0554"/><g id="graphpaper-5d0b0554"><g id="grid-5d0b0554"><g><path fill="none" stroke="rgb(0,0,0)" class="dcg-svg-minor-gridline" paint-order="fill stroke markers" d=" M -0.5 0 L -0.5 400" stroke-opacity="0.12" stroke-miterlimit="10" stroke-dasharray=""/><path fill="none" stroke="rgb(0,0,0)" class="dcg-svg-minor-gridline" paint-order="fill stroke markers" d=" M 19.5 0 L 19.5 400" stroke-opacity="0.12" stroke-miterlimit="10" stroke-dasharray=""/><path fill="none" stroke="rgb(0,0,0)" class="dcg-svg-minor-gridline" paint-order="fill stroke markers" d=" M 39.5 0 L 39.5 400" stroke-opacity="0.12" stroke-miterlimit="10" stroke-dasharray=""/><path fill="none" stroke="rgb(0,0,0)" class="dcg-svg-minor-gridline" paint-order="fill stroke markers" d=" M 59.5 0 L 59.5 400" stroke-opacity="0.12" stroke-miterlimit="10" stroke-dasharray=""/><path fill="none" stroke="rgb(0,0,0)" class="dcg-svg-minor-gridline" paint-order="fill stroke markers" d=" M 79.5 0 L 79.5 400" stroke-opacity="0.12" stroke-miterlimit="10" stroke-dasharray=""/><path fill="none" stroke="rgb(0,0,0)" class="dcg-svg-minor-gridline" paint-order="fill stroke markers" d=" M 99.5 0 L 99.5 400" stroke-opacity="0.12" stroke-miterlimit="10" stroke-dasharray=""/><path fill="none" stroke="rgb(0,0,0)" class="dcg-svg-minor-gridline" paint-order="fill stroke markers" d=" M 119.5 0 L 119.5 400" stroke-opacity="0.12" stroke-miterlimit="10" stroke-dasharray=""/><path fill="none" stroke="rgb(0,0,0)" class="dcg-svg-minor-gridline" paint-order="fill stroke markers" d=" M 139.5 0 L 139.5 400" stroke-opacity="0.12" stroke-miterlimit="10" stroke-dasharray=""/><path fill="none" stroke="rgb(0,0,0)" class="dcg-svg-minor-gridline" paint-order="fill stroke markers" d=" M 159.5 0 L 159.5 400" stroke-opacity="0.12" stroke-miterlimit="10" stroke-dasharray=""/><path fill="none" stroke="rgb(0,0,0)" class="dcg-svg-minor-gridline" paint-order="fill stroke markers" d=" M 179.5 0 L 179.5 400" stroke-opacity="0.12" stroke-miterlimit="10" stroke-dasharray=""/><path fill="none" stroke="rgb(0,0,0)" class="dcg-svg-minor-gridline" paint-order="fill stroke markers" d=" M 219.5 0 L 219.5 400" stroke-opacity="0.12" stroke-miterlimit="10" stroke-dasharray=""/><path fill="none" stroke="rgb(0,0,0)" class="dcg-svg-minor-gridline" paint-order="fill stroke markers" d=" M 239.5 0 L 239.5 400" stroke-opacity="0.12" stroke-miterlimit="10" stroke-dasharray=""/><path fill="none" stroke="rgb(0,0,0)" class="dcg-svg-minor-gridline" paint-order="fill stroke markers" d=" M 259.5 0 L 259.5 400" stroke-opacity="0.12" stroke-miterlimit="10" stroke-dasharray=""/><path fill="none" stroke="rgb(0,0,0)" class="dcg-svg-minor-gridline" paint-order="fill stroke markers" d=" M 279.5 0 L 279.5 400" stroke-opacity="0.12" stroke-miterlimit="10" stroke-dasharray=""/><path fill="none" stroke="rgb(0,0,0)" class="dcg-svg-minor-gridline" paint-order="fill stroke markers" d=" M 299.5 0 L 299.5 400" stroke-opacity="0.12" stroke-miterlimit="10" stroke-dasharray=""/><path fill="none" stroke="rgb(0,0,0)" class="dcg-svg-minor-gridline" paint-order="fill stroke markers" d=" M 319.5 0 L 319.5 400" stroke-opacity="0.12" stroke-miterlimit="10" stroke-dasharray=""/><path fill="none" stroke="rgb(0,0,0)" class="dcg-svg-minor-gridline" paint-order="fill stroke markers" d=" M 339.5 0 L 339.5 400" stroke-opacity="0.12" stroke-miterlimit="10" stroke-dasharray=""/><path fill="none" stroke="rgb(0,0,0)" class="dcg-svg-minor-gridline" paint-order="fill stroke markers" d=" M 359.5 0 L 359.5 400" stroke-opacity="0.12" stroke-miterlimit="10" stroke-dasharray=""/><path fill="none" stroke="rgb(0,0,0)" class="dcg-svg-minor-gridline" paint-order="fill stroke markers" d=" M 379.5 0 L 379.5 400" stroke-opacity="0.12" stroke-miterlimit="10" stroke-dasharray=""/><path fill="none" stroke="rgb(0,0,0)" class="dcg-svg-minor-gridline" paint-order="fill stroke markers" d=" M 399.5 0 L 399.5 400" stroke-opacity="0.12" stroke-miterlimit="10" stroke-dasharray=""/><path fill="none" stroke="rgb(0,0,0)" class="dcg-svg-minor-gridline" paint-order="fill stroke markers" d=" M 419.5 0 L 419.5 400" stroke-opacity="0.12" stroke-miterlimit="10" stroke-dasharray=""/><path fill="none" stroke="rgb(0,0,0)" class="dcg-svg-minor-gridline" paint-order="fill stroke markers" d=" M 439.5 0 L 439.5 400" stroke-opacity="0.12" stroke-miterlimit="10" stroke-dasharray=""/><path fill="none" stroke="rgb(0,0,0)" class="dcg-svg-minor-gridline" paint-order="fill stroke markers" d=" M 459.5 0 L 459.5 400" stroke-opacity="0.12" stroke-miterlimit="10" stroke-dasharray=""/><path fill="none" stroke="rgb(0,0,0)" class="dcg-svg-minor-gridline" paint-order="fill stroke markers" d=" M 479.5 0 L 479.5 400" stroke-opacity="0.12" stroke-miterlimit="10" stroke-dasharray=""/><path fill="none" stroke="rgb(0,0,0)" class="dcg-svg-minor-gridline" paint-order="fill stroke markers" d=" M 499.5 0 L 499.5 400" stroke-opacity="0.12" stroke-miterlimit="10" stroke-dasharray=""/><path fill="none" stroke="rgb(0,0,0)" class="dcg-svg-minor-gridline" paint-order="fill stroke markers" d=" M 519.5 0 L 519.5 400" stroke-opacity="0.12" stroke-miterlimit="10" stroke-dasharray=""/><path fill="none" stroke="rgb(0,0,0)" class="dcg-svg-minor-gridline" paint-order="fill stroke markers" d=" M 539.5 0 L 539.5 400" stroke-opacity="0.12" stroke-miterlimit="10" stroke-dasharray=""/><path fill="none" stroke="rgb(0,0,0)" class="dcg-svg-minor-gridline" paint-order="fill stroke markers" d=" M 559.5 0 L 559.5 400" stroke-opacity="0.12" stroke-miterlimit="10" stroke-dasharray=""/><path fill="none" stroke="rgb(0,0,0)" class="dcg-svg-minor-gridline" paint-order="fill stroke markers" d=" M 579.5 0 L 579.5 400" stroke-opacity="0.12" stroke-miterlimit="10" stroke-dasharray=""/><path fill="none" stroke="rgb(0,0,0)" class="dcg-svg-minor-gridline" paint-order="fill stroke markers" d=" M 0 379.5 L 600 379.5" stroke-opacity="0.12" stroke-miterlimit="10" stroke-dasharray=""/><path fill="none" stroke="rgb(0,0,0)" class="dcg-svg-minor-gridline" paint-order="fill stroke markers" d=" M 0 359.5 L 600 359.5" stroke-opacity="0.12" stroke-miterlimit="10" stroke-dasharray=""/><path fill="none" stroke="rgb(0,0,0)" class="dcg-svg-minor-gridline" paint-order="fill stroke markers" d=" M 0 339.5 L 600 339.5" stroke-opacity="0.12" stroke-miterlimit="10" stroke-dasharray=""/><path fill="none" stroke="rgb(0,0,0)" class="dcg-svg-minor-gridline" paint-order="fill stroke markers" d=" M 0 319.5 L 600 319.5" stroke-opacity="0.12" stroke-miterlimit="10" stroke-dasharray=""/><path fill="none" stroke="rgb(0,0,0)" class="dcg-svg-minor-gridline" paint-order="fill stroke markers" d=" M 0 299.5 L 600 299.5" stroke-opacity="0.12" stroke-miterlimit="10" stroke-dasharray=""/><path fill="none" stroke="rgb(0,0,0)" class="dcg-svg-minor-gridline" paint-order="fill stroke markers" d=" M 0 279.5 L 600 279.5" stroke-opacity="0.12" stroke-miterlimit="10" stroke-dasharray=""/><path fill="none" stroke="rgb(0,0,0)" class="dcg-svg-minor-gridline" paint-order="fill stroke markers" d=" M 0 259.5 L 600 259.5" stroke-opacity="0.12" stroke-miterlimit="10" stroke-dasharray=""/><path fill="none" stroke="rgb(0,0,0)" class="dcg-svg-minor-gridline" paint-order="fill stroke markers" d=" M 0 239.5 L 600 239.5" stroke-opacity="0.12" stroke-miterlimit="10" stroke-dasharray=""/><path fill="none" stroke="rgb(0,0,0)" class="dcg-svg-minor-gridline" paint-order="fill stroke markers" d=" M 0 219.5 L 600 219.5" stroke-opacity="0.12" stroke-miterlimit="10" stroke-dasharray=""/><path fill="none" stroke="rgb(0,0,0)" class="dcg-svg-minor-gridline" paint-order="fill stroke markers" d=" M 0 179.5 L 600 179.5" stroke-opacity="0.12" stroke-miterlimit="10" stroke-dasharray=""/><path fill="none" stroke="rgb(0,0,0)" class="dcg-svg-minor-gridline" paint-order="fill stroke markers" d=" M 0 159.5 L 600 159.5" stroke-opacity="0.12" stroke-miterlimit="10" stroke-dasharray=""/><path fill="none" stroke="rgb(0,0,0)" class="dcg-svg-minor-gridline" paint-order="fill stroke markers" d=" M 0 139.5 L 600 139.5" stroke-opacity="0.12" stroke-miterlimit="10" stroke-dasharray=""/><path fill="none" stroke="rgb(0,0,0)" class="dcg-svg-minor-gridline" paint-order="fill stroke markers" d=" M 0 119.5 L 600 119.5" stroke-opacity="0.12" stroke-miterlimit="10" stroke-dasharray=""/><path fill="none" stroke="rgb(0,0,0)" class="dcg-svg-minor-gridline" paint-order="fill stroke markers" d=" M 0 99.5 L 600 99.5" stroke-opacity="0.12" stroke-miterlimit="10" stroke-dasharray=""/><path fill="none" stroke="rgb(0,0,0)" class="dcg-svg-minor-gridline" paint-order="fill stroke markers" d=" M 0 79.5 L 600 79.5" stroke-opacity="0.12" stroke-miterlimit="10" stroke-dasharray=""/><path fill="none" stroke="rgb(0,0,0)" class="dcg-svg-minor-gridline" paint-order="fill stroke markers" d=" M 0 59.5 L 600 59.5" stroke-opacity="0.12" stroke-miterlimit="10" stroke-dasharray=""/><path fill="none" stroke="rgb(0,0,0)" class="dcg-svg-minor-gridline" paint-order="fill stroke markers" d=" M 0 39.5 L 600 39.5" stroke-opacity="0.12" stroke-miterlimit="10" stroke-dasharray=""/><path fill="none" stroke="rgb(0,0,0)" class="dcg-svg-minor-gridline" paint-order="fill stroke markers" d=" M 0 19.5 L 600 19.5" stroke-opacity="0.12" stroke-miterlimit="10" stroke-dasharray=""/><path fill="none" stroke="rgb(0,0,0)" class="dcg-svg-minor-gridline" paint-order="fill stroke markers" d=" M 0 -0.5 L 600 -0.5" stroke-opacity="0.12" stroke-miterlimit="10" stroke-dasharray=""/><path fill="none" stroke="rgb(0,0,0)" class="dcg-svg-major-gridline" paint-order="fill stroke markers" d=" M -0.5 0 L -0.5 400" stroke-opacity="0.31818181818181823" stroke-miterlimit="10" stroke-dasharray=""/><path fill="none" stroke="rgb(0,0,0)" class="dcg-svg-major-gridline" paint-order="fill stroke markers" d=" M 99.5 0 L 99.5 400" stroke-opacity="0.31818181818181823" stroke-miterlimit="10" stroke-dasharray=""/><path fill="none" stroke="rgb(0,0,0)" class="dcg-svg-major-gridline" paint-order="fill stroke markers" d=" M 299.5 0 L 299.5 400" stroke-opacity="0.31818181818181823" stroke-miterlimit="10" stroke-dasharray=""/><path fill="none" stroke="rgb(0,0,0)" class="dcg-svg-major-gridline" paint-order="fill stroke markers" d=" M 399.5 0 L 399.5 400" stroke-opacity="0.31818181818181823" stroke-miterlimit="10" stroke-dasharray=""/><path fill="none" stroke="rgb(0,0,0)" class="dcg-svg-major-gridline" paint-order="fill stroke markers" d=" M 499.5 0 L 499.5 400" stroke-opacity="0.31818181818181823" stroke-miterlimit="10" stroke-dasharray=""/><path fill="none" stroke="rgb(0,0,0)" class="dcg-svg-major-gridline" paint-order="fill stroke markers" d=" M 0 299.5 L 600 299.5" stroke-opacity="0.31818181818181823" stroke-miterlimit="10" stroke-dasharray=""/><path fill="none" stroke="rgb(0,0,0)" class="dcg-svg-major-gridline" paint-order="fill stroke markers" d=" M 0 99.5 L 600 99.5" stroke-opacity="0.31818181818181823" stroke-miterlimit="10" stroke-dasharray=""/><path fill="none" stroke="rgb(0,0,0)" class="dcg-svg-major-gridline" paint-order="fill stroke markers" d=" M 0 -0.5 L 600 -0.5" stroke-opacity="0.31818181818181823" stroke-miterlimit="10" stroke-dasharray=""/></g></g><g id="axis-5d0b0554"><g id="yaxis-5d0b0554"><title>Y axis</title><path fill="none" stroke="rgb(0,0,0)" class="dcg-svg-axis-line" paint-order="fill stroke markers" d=" M 199.75 0 L 199.75 400" stroke-opacity="0.9" stroke-miterlimit="10" stroke-width="1.5" stroke-dasharray=""/></g><g id="xaxis-5d0b0554"><title>X axis</title><path fill="none" stroke="rgb(0,0,0)" class="dcg-svg-axis-line" paint-order="fill stroke markers" d=" M 0 199.75 L 600 199.75" stroke-opacity="0.9" stroke-miterlimit="10" stroke-width="1.5" stroke-dasharray=""/></g><g><g class="dcg-svg-axis-value"><text fill="none" stroke="#ffffff" font-family="Arial" font-size="14px" font-style="normal" font-weight="normal" text-decoration="normal" x="191.10693359375" y="215.808" text-anchor="middle" stroke-miterlimit="2" stroke-width="3" stroke-dasharray="">0</text><text fill="#000000" stroke="none" font-family="Arial" font-size="14px" font-style="normal" font-weight="normal" text-decoration="normal" x="191.10693359375" y="215.808" text-anchor="middle">0</text></g><g class="dcg-svg-axis-value dcg-svg-offcenter-axis-value"><text fill="none" stroke="#ffffff" font-family="Arial" font-size="14px" font-style="normal" font-weight="normal" text-decoration="normal" x="9.22412109375" y="215.808" text-anchor="middle" stroke-miterlimit="2" stroke-width="3" stroke-dasharray="">-1</text><text fill="#000000" stroke="none" font-family="Arial" font-size="14px" font-style="normal" font-weight="normal" text-decoration="normal" x="9.22412109375" y="215.808" text-anchor="middle">-1</text></g><g class="dcg-svg-axis-value"><text fill="none" stroke="#ffffff" font-family="Arial" font-size="14px" font-style="normal" font-weight="normal" text-decoration="normal" x="97.6689453125" y="215.808" text-anchor="middle" stroke-miterlimit="2" stroke-width="3" stroke-dasharray="">-0.5</text><text fill="#000000" stroke="none" font-family="Arial" font-size="14px" font-style="normal" font-weight="normal" text-decoration="normal" x="97.6689453125" y="215.808" text-anchor="middle">-0.5</text></g><g class="dcg-svg-axis-value"><text fill="none" stroke="#ffffff" font-family="Arial" font-size="14px" font-style="normal" font-weight="normal" text-decoration="normal" x="300" y="215.808" text-anchor="middle" stroke-miterlimit="2" stroke-width="3" stroke-dasharray="">0.5</text><text fill="#000000" stroke="none" font-family="Arial" font-size="14px" font-style="normal" font-weight="normal" text-decoration="normal" x="300" y="215.808" text-anchor="middle">0.5</text></g><g class="dcg-svg-axis-value"><text fill="none" stroke="#ffffff" font-family="Arial" font-size="14px" font-style="normal" font-weight="normal" text-decoration="normal" x="400" y="215.808" text-anchor="middle" stroke-miterlimit="2" stroke-width="3" stroke-dasharray="">1</text><text fill="#000000" stroke="none" font-family="Arial" font-size="14px" font-style="normal" font-weight="normal" text-decoration="normal" x="400" y="215.808" text-anchor="middle">1</text></g><g class="dcg-svg-axis-value"><text fill="none" stroke="#ffffff" font-family="Arial" font-size="14px" font-style="normal" font-weight="normal" text-decoration="normal" x="500" y="215.808" text-anchor="middle" stroke-miterlimit="2" stroke-width="3" stroke-dasharray="">1.5</text><text fill="#000000" stroke="none" font-family="Arial" font-size="14px" font-style="normal" font-weight="normal" text-decoration="normal" x="500" y="215.808" text-anchor="middle">1.5</text></g><g class="dcg-svg-axis-value dcg-svg-offcenter-axis-value"><text fill="none" stroke="#ffffff" font-family="Arial" font-size="14px" font-style="normal" font-weight="normal" text-decoration="normal" x="593.10693359375" y="215.808" text-anchor="middle" stroke-miterlimit="2" stroke-width="3" stroke-dasharray="">2</text><text fill="#000000" stroke="none" font-family="Arial" font-size="14px" font-style="normal" font-weight="normal" text-decoration="normal" x="593.10693359375" y="215.808" text-anchor="middle">2</text></g><g class="dcg-svg-axis-value dcg-svg-offcenter-axis-value"><text fill="none" stroke="#ffffff" font-family="Arial" font-size="14px" font-style="normal" font-weight="normal" text-decoration="normal" x="188.77587890625" y="393.808" text-anchor="middle" stroke-miterlimit="2" stroke-width="3" stroke-dasharray="">-1</text><text fill="#000000" stroke="none" font-family="Arial" font-size="14px" font-style="normal" font-weight="normal" text-decoration="normal" x="188.77587890625" y="393.808" text-anchor="middle">-1</text></g><g class="dcg-svg-axis-value"><text fill="none" stroke="#ffffff" font-family="Arial" font-size="14px" font-style="normal" font-weight="normal" text-decoration="normal" x="182.93798828125" y="303.808" text-anchor="middle" stroke-miterlimit="2" stroke-width="3" stroke-dasharray="">-0.5</text><text fill="#000000" stroke="none" font-family="Arial" font-size="14px" font-style="normal" font-weight="normal" text-decoration="normal" x="182.93798828125" y="303.808" text-anchor="middle">-0.5</text></g><g class="dcg-svg-axis-value"><text fill="none" stroke="#ffffff" font-family="Arial" font-size="14px" font-style="normal" font-weight="normal" text-decoration="normal" x="185.26904296875" y="103.808" text-anchor="middle" stroke-miterlimit="2" stroke-width="3" stroke-dasharray="">0.5</text><text fill="#000000" stroke="none" font-family="Arial" font-size="14px" font-style="normal" font-weight="normal" text-decoration="normal" x="185.26904296875" y="103.808" text-anchor="middle">0.5</text></g><g class="dcg-svg-axis-value dcg-svg-offcenter-axis-value"><text fill="none" stroke="#ffffff" font-family="Arial" font-size="14px" font-style="normal" font-weight="normal" text-decoration="normal" x="191.10693359375" y="13.808" text-anchor="middle" stroke-miterlimit="2" stroke-width="3" stroke-dasharray="">1</text><text fill="#000000" stroke="none" font-family="Arial" font-size="14px" font-style="normal" font-weight="normal" text-decoration="normal" x="191.10693359375" y="13.808" text-anchor="middle">1</text></g></g></g></g><g id="expressions-5d0b0554"><g id="sketch-5d0b0554"><title>Expression 1</title><path fill="#2d70b3" stroke="none" paint-order="stroke fill markers" d="" fill-opacity="0.4"/><g><path fill="none" stroke="#2d70b3" class="dcg-svg-curve" paint-order="fill stroke markers" d=" M -0.5 -0.5 L -0.5 -0.5 L 7.99609375 16.131269454956055 L 16.4921875 32.04070281982422 L 24.841796875 46.9725604057312 L 33.044921875 60.96353483200073 L 41.248046875 74.28159666061401 L 49.3046875 86.70684051513672 L 57.21484375 98.27467155456543 L 65.125 109.216796875 L 72.888671875 119.34785795211792 L 80.65234375 128.87617301940918 L 88.416015625 137.80174207687378 L 96.033203125 145.97310972213745 L 103.357421875 153.28302335739136 L 110.388671875 159.79585599899292 L 117.2734375 165.69396209716797 L 123.865234375 170.8969111442566 L 130.310546875 175.56409788131714 L 136.462890625 179.63161420822144 L 142.46875 183.2371826171875 L 148.328125 186.40719604492188 L 154.041015625 189.16740369796753 L 159.607421875 191.54291105270386 L 165.173828125 193.6085696220398 L 170.59375 195.3221435546875 L 175.8671875 196.70745086669922 L 181.140625 197.81466674804688 L 186.267578125 198.6245150566101 L 191.39453125 199.17150688171387 L 196.521484375 199.45564222335815 L 201.6484375 199.47692108154297 L 206.775390625 199.2353434562683 L 211.90234375 198.73090934753418 L 217.029296875 197.96361875534058 L 222.15625 196.9334716796875 L 227.4296875 195.59966278076172 L 232.703125 193.98776245117188 L 238.123046875 192.04130125045776 L 243.54296875 189.80108451843262 L 249.109375 187.19454956054688 L 254.822265625 184.19723463058472 L 260.681640625 180.78403425216675 L 266.6875 176.92919921875 L 272.83984375 172.60633659362793 L 279.138671875 167.78840970993042 L 285.73046875 162.32153129577637 L 292.46875 156.2840576171875 L 299.5 149.5 L 306.677734375 142.06466627120972 L 314.1484375 133.77867889404297 L 321.912109375 124.57637739181519 L 329.67578125 114.77132987976074 L 337.439453125 104.36353635787964 L 345.349609375 93.13945722579956 L 353.259765625 81.28967237472534 L 361.31640625 68.5772533416748 L 369.373046875 55.215739727020264 L 377.576171875 40.944385051727295 L 385.92578125 25.727140426635742 L 394.275390625 9.81273603439331 L 401.96932668938604 -5.5" stroke-linecap="round" stroke-linejoin="round" stroke-miterlimit="10" stroke-width="2.5" stroke-opacity="0.9" stroke-dasharray=""/></g></g><g id="sketch-5d0b0554"><title>Expression 2</title><path fill="#388c46" stroke="none" class="dcg-svg-region" paint-order="stroke fill markers" d=" M -0.5 -0.5 L 7.99609375 16.131269454956055 L 16.4921875 32.04070281982422 L 24.841796875 46.9725604057312 L 33.044921875 60.96353483200073 L 41.248046875 74.28159666061401 L 49.3046875 86.70684051513672 L 57.21484375 98.27467155456543 L 65.125 109.216796875 L 72.888671875 119.34785795211792 L 80.65234375 128.87617301940918 L 88.416015625 137.80174207687378 L 96.033203125 145.97310972213745 L 103.357421875 153.28302335739136 L 110.388671875 159.79585599899292 L 117.2734375 165.69396209716797 L 123.865234375 170.8969111442566 L 130.310546875 175.56409788131714 L 136.462890625 179.63161420822144 L 142.46875 183.2371826171875 L 148.328125 186.40719604492188 L 154.041015625 189.16740369796753 L 159.607421875 191.54291105270386 L 165.173828125 193.6085696220398 L 170.59375 195.3221435546875 L 175.8671875 196.70745086669922 L 181.140625 197.81466674804688 L 186.267578125 198.6245150566101 L 191.39453125 199.17150688171387 L 196.521484375 199.45564222335815 L 201.6484375 199.47692108154297 L 206.775390625 199.2353434562683 L 211.90234375 198.73090934753418 L 217.029296875 197.96361875534058 L 222.15625 196.9334716796875 L 227.4296875 195.59966278076172 L 232.703125 193.98776245117188 L 238.123046875 192.04130125045776 L 243.54296875 189.80108451843262 L 249.109375 187.19454956054688 L 254.822265625 184.19723463058472 L 260.681640625 180.78403425216675 L 266.6875 176.92919921875 L 272.83984375 172.60633659362793 L 279.138671875 167.78840970993042 L 285.73046875 162.32153129577637 L 292.46875 156.2840576171875 L 299.5 149.5 L 306.677734375 142.06466627120972 L 314.1484375 133.77867889404297 L 321.912109375 124.57637739181519 L 329.67578125 114.77132987976074 L 337.439453125 104.36353635787964 L 345.349609375 93.13945722579956 L 353.259765625 81.28967237472534 L 361.31640625 68.5772533416748 L 369.373046875 55.215739727020264 L 377.576171875 40.944385051727295 L 385.92578125 25.727140426635742 L 394.275390625 9.81273603439331 L 400.7131932252055 -3 L 599.5 -3 L 599.5 399.5 L -0.5 399.5 L -0.5 -0.5" fill-opacity="0.4"/><path fill="#388c46" stroke="none" paint-order="stroke fill markers" d="" fill-opacity="0.4"/><path fill="#388c46" stroke="none" paint-order="stroke fill markers" d="" fill-opacity="0.4"/><path fill="#388c46" stroke="none" paint-order="stroke fill markers" d="" fill-opacity="0.4"/><path fill="#388c46" stroke="none" paint-order="stroke fill markers" d="" fill-opacity="0.4"/><g><path fill="none" stroke="#388c46" class="dcg-svg-curve" paint-order="fill stroke markers" d=" M -0.5 -0.5 L 4.504198093668034 9.295815506599194 M 7.6886877896386014 15.529516283525954 L 7.99609375 16.131269454956055 M 7.99609375 16.131269454956055 L 12.859505232637673 25.23829242171166 M 16.156965140198267 31.412979309160328 L 16.4921875 32.04070281982422 M 16.4921875 32.04070281982422 L 21.513521494482205 41.0205054344683 M 24.933136510084044 47.12834621888968 L 30.496817898998692 56.61757429090085 M 34.0739380964644 62.63417884389972 L 39.84278118784674 72.00009841364889 M 43.59858417194395 77.9066806705737 L 49.3046875 86.70684051513672 M 49.3046875 86.70684051513672 L 49.59357400849625 87.12930882223938 M 53.54477050932353 92.907547845666 L 57.21484375 98.27467155456543 M 57.21484375 98.27467155456543 L 59.850049023127035 101.91995306763619 M 63.95104137937435 107.59285899793338 L 65.125 109.216796875 M 65.125 109.216796875 L 70.59700813117286 116.35739342312473 M 74.9304868465503 121.85376709810994 L 80.65234375 128.87617301940918 M 80.65234375 128.87617301940918 L 81.92662421454504 130.34116000855533 M 86.52065267550711 135.62272251409007 L 88.416015625 137.80174207687378 M 88.416015625 137.80174207687378 L 93.94732551965177 143.73547637304074 M 98.82258654072896 148.75704512338257 L 103.357421875 153.28302335739136 M 103.357421875 153.28302335739136 L 106.72703250582703 156.40419101690253 M 111.91429066764883 161.10283752814448 L 117.2734375 165.69396209716797 M 117.2734375 165.69396209716797 L 120.36861344994371 168.13700502836133 M 125.92687949523487 172.38979186364543 L 130.310546875 175.56409788131714 M 130.310546875 175.56409788131714 L 134.97168285708113 178.6457278225954 M 140.93177464474977 182.31447207066398 L 142.46875 183.2371826171875 M 142.46875 183.2371826171875 L 148.328125 186.40719604492188 M 148.328125 186.40719604492188 L 150.62003181252732 187.51454066943154 M 156.9848036114044 190.42368821950924 L 159.607421875 191.54291105270386 M 159.607421875 191.54291105270386 L 165.173828125 193.6085696220398 M 165.173828125 193.6085696220398 L 167.28218536404216 194.27515229405142 M 174.00488155340832 196.21823182408872 L 175.8671875 196.70745086669922 M 175.8671875 196.70745086669922 L 181.140625 197.81466674804688 M 181.140625 197.81466674804688 L 184.7815703592984 198.3897867791665 M 191.73352909956495 199.19029411605254 L 196.521484375 199.45564222335815 M 196.521484375 199.45564222335815 L 201.6484375 199.47692108154297 M 201.6484375 199.47692108154297 L 202.7249434195364 199.42619704773668 M 209.70629757587557 198.94697541398247 L 211.90234375 198.73090934753418 M 211.90234375 198.73090934753418 L 217.029296875 197.96361875534058 M 217.029296875 197.96361875534058 L 220.5678733443295 197.25262060244552 M 227.37188280335613 195.61428330461987 L 227.4296875 195.59966278076172 M 227.4296875 195.59966278076172 L 232.703125 193.98776245117188 M 232.703125 193.98776245117188 L 237.80987550361888 192.15377075419352 M 244.26982181442554 189.460727053206 L 249.109375 187.19454956054688 M 249.109375 187.19454956054688 L 254.11801423516079 184.56672589932603 M 260.18365704582055 181.07411941328056 L 260.681640625 180.78403425216675 M 260.681640625 180.78403425216675 L 266.6875 176.92919921875 M 266.6875 176.92919921875 L 269.3771055163211 175.03938362403025 M 275.0383859307389 170.92468799688598 L 279.138671875 167.78840970993042 M 279.138671875 167.78840970993042 L 283.6321732855187 164.06174362313058 M 288.9136228848413 159.4694376251544 L 292.46875 156.2840576171875 M 292.46875 156.2840576171875 L 296.9496657542649 151.96067405740848 M 301.9003892732064 147.01346394379524 L 306.677734375 142.06466627120972 M 306.677734375 142.06466627120972 L 309.4375956366306 139.00361897834162 M 314.12496235730316 133.80471589923627 L 314.1484375 133.77867889404297 M 314.1484375 133.77867889404297 L 321.2190008040566 125.39792087617317 M 325.59024956949395 119.93110902606395 L 329.67578125 114.77132987976074 M 329.67578125 114.77132987976074 L 332.31774443320734 111.22957698938193 M 336.50317932886776 105.61868269932546 L 337.439453125 104.36353635787964 M 337.439453125 104.36353635787964 L 342.8741118917093 96.65205277582048 M 346.8501740059157 90.8915410697208 L 352.95738035475955 81.74265968385505 M 356.7153843734272 75.83711769428467 L 361.31640625 68.5772533416748 M 361.31640625 68.5772533416748 L 362.55823857095976 66.51773992461436 M 366.17280744512516 60.523168058841556 L 369.373046875 55.215739727020264 M 369.373046875 55.215739727020264 L 371.7662645710513 51.05214858882168 M 375.2546343425415 44.983270905316 L 377.576171875 40.944385051727295 M 377.576171875 40.944385051727295 L 380.62665665987765 35.38484674139731 M 383.9939323786747 29.247953860337727 L 385.92578125 25.727140426635742 M 385.92578125 25.727140426635742 L 389.1705250195905 19.542639789625717 M 392.4226971946905 13.343980568188769 L 394.275390625 9.81273603439331 M 394.275390625 9.81273603439331 L 397.4236554331406 3.546951191629061 M 400.566421011831 -2.7078888956472733 L 401.96932668938604 -5.5" stroke-linecap="round" stroke-linejoin="round" stroke-miterlimit="10" stroke-width="2.5" stroke-opacity="0.9" stroke-dasharray=""/></g></g></g><g id="labels-5d0b0554"/></g></svg>