<svg version="1.1" xmlns="http://www.w3.org/2000/svg" xmlns:xlink="http://www.w3.org/1999/xlink" width="600" height="400"><defs/><g transform="scale(1,1)"><g id="background-b39ec4dc"><rect fill="white" stroke="none" x="0" y="0" width="600" height="400" class="dcg-svg-background"/></g><g id="background-images-b39ec4dc"/><g id="graphpaper-b39ec4dc"><g id="grid-b39ec4dc"><g><path fill="none" stroke="rgb(0,0,0)" class="dcg-svg-minor-gridline" paint-order="fill stroke markers" d=" M -0.5 0 L -0.5 400" stroke-opacity="0.12" stroke-miterlimit="10" stroke-dasharray=""/><path fill="none" stroke="rgb(0,0,0)" class="dcg-svg-minor-gridline" paint-order="fill stroke markers" d=" M 24.5 0 L 24.5 400" stroke-opacity="0.12" stroke-miterlimit="10" stroke-dasharray=""/><path fill="none" stroke="rgb(0,0,0)" class="dcg-svg-minor-gridline" paint-order="fill stroke markers" d=" M 49.5 0 L 49.5 400" stroke-opacity="0.12" stroke-miterlimit="10" stroke-dasharray=""/><path fill="none" stroke="rgb(0,0,0)" class="dcg-svg-minor-gridline" paint-order="fill stroke markers" d=" M 74.5 0 L 74.5 400" stroke-opacity="0.12" stroke-miterlimit="10" stroke-dasharray=""/><path fill="none" stroke="rgb(0,0,0)" class="dcg-svg-minor-gridline" paint-order="fill stroke markers" d=" M 99.5 0 L 99.5 400" stroke-opacity="0.12" stroke-miterlimit="10" stroke-dasharray=""/><path fill="none" stroke="rgb(0,0,0)" class="dcg-svg-minor-gridline" paint-order="fill stroke markers" d=" M 124.5 0 L 124.5 400" stroke-opacity="0.12" stroke-miterlimit="10" stroke-dasharray=""/><path fill="none" stroke="rgb(0,0,0)" class="dcg-svg-minor-gridline" paint-order="fill stroke markers" d=" M 149.5 0 L 149.5 400" stroke-opacity="0.12" stroke-miterlimit="10" stroke-dasharray=""/><path fill="none" stroke="rgb(0,0,0)" class="dcg-svg-minor-gridline" paint-order="fill stroke markers" d=" M 174.5 0 L 174.5 400" stroke-opacity="0.12" stroke-miterlimit="10" stroke-dasharray=""/><path fill="none" stroke="rgb(0,0,0)" class="dcg-svg-minor-gridline" paint-order="fill stroke markers" d=" M 199.5 0 L 199.5 400" stroke-opacity="0.12" stroke-miterlimit="10" stroke-dasharray=""/><path fill="none" stroke="rgb(0,0,0)" class="dcg-svg-minor-gridline" paint-order="fill stroke markers" d=" M 224.5 0 L 224.5 400" stroke-opacity="0.12" stroke-miterlimit="10" stroke-dasharray=""/><path fill="none" stroke="rgb(0,0,0)" class="dcg-svg-minor-gridline" paint-order="fill stroke markers" d=" M 249.5 0 L 249.5 400" stroke-opacity="0.12" stroke-miterlimit="10" stroke-dasharray=""/><path fill="none" stroke="rgb(0,0,0)" class="dcg-svg-minor-gridline" paint-order="fill stroke markers" d=" M 274.5 0 L 274.5 400" stroke-opacity="0.12" stroke-miterlimit="10" stroke-dasharray=""/><path fill="none" stroke="rgb(0,0,0)" class="dcg-svg-minor-gridline" paint-order="fill stroke markers" d=" M 324.5 0 L 324.5 400" stroke-opacity="0.12" stroke-miterlimit="10" stroke-dasharray=""/><path fill="none" stroke="rgb(0,0,0)" class="dcg-svg-minor-gridline" paint-order="fill stroke markers" d=" M 349.5 0 L 349.5 400" stroke-opacity="0.12" stroke-miterlimit="10" stroke-dasharray=""/><path fill="none" stroke="rgb(0,0,0)" class="dcg-svg-minor-gridline" paint-order="fill stroke markers" d=" M 374.5 0 L 374.5 400" stroke-opacity="0.12" stroke-miterlimit="10" stroke-dasharray=""/><path fill="none" stroke="rgb(0,0,0)" class="dcg-svg-minor-gridline" paint-order="fill stroke markers" d=" M 399.5 0 L 399.5 400" stroke-opacity="0.12" stroke-miterlimit="10" stroke-dasharray=""/><path fill="none" stroke="rgb(0,0,0)" class="dcg-svg-minor-gridline" paint-order="fill stroke markers" d=" M 424.5 0 L 424.5 400" stroke-opacity="0.12" stroke-miterlimit="10" stroke-dasharray=""/><path fill="none" stroke="rgb(0,0,0)" class="dcg-svg-minor-gridline" paint-order="fill stroke markers" d=" M 449.5 0 L 449.5 400" stroke-opacity="0.12" stroke-miterlimit="10" stroke-dasharray=""/><path fill="none" stroke="rgb(0,0,0)" class="dcg-svg-minor-gridline" paint-order="fill stroke markers" d=" M 474.5 0 L 474.5 400" stroke-opacity="0.12" stroke-miterlimit="10" stroke-dasharray=""/><path fill="none" stroke="rgb(0,0,0)" class="dcg-svg-minor-gridline" paint-order="fill stroke markers" d=" M 499.5 0 L 499.5 400" stroke-opacity="0.12" stroke-miterlimit="10" stroke-dasharray=""/><path fill="none" stroke="rgb(0,0,0)" class="dcg-svg-minor-gridline" paint-order="fill stroke markers" d=" M 524.5 0 L 524.5 400" stroke-opacity="0.12" stroke-miterlimit="10" stroke-dasharray=""/><path fill="none" stroke="rgb(0,0,0)" class="dcg-svg-minor-gridline" paint-order="fill stroke markers" d=" M 549.5 0 L 549.5 400" stroke-opacity="0.12" stroke-miterlimit="10" stroke-dasharray=""/><path fill="none" stroke="rgb(0,0,0)" class="dcg-svg-minor-gridline" paint-order="fill stroke markers" d=" M 574.5 0 L 574.5 400" stroke-opacity="0.12" stroke-miterlimit="10" stroke-dasharray=""/><path fill="none" stroke="rgb(0,0,0)" class="dcg-svg-minor-gridline" paint-order="fill stroke markers" d=" M 0 374.5 L 600 374.5" stroke-opacity="0.12" stroke-miterlimit="10" stroke-dasharray=""/><path fill="none" stroke="rgb(0,0,0)" class="dcg-svg-minor-gridline" paint-order="fill stroke markers" d=" M 0 349.5 L 600 349.5" stroke-opacity="0.12" stroke-miterlimit="10" stroke-dasharray=""/><path fill="none" stroke="rgb(0,0,0)" class="dcg-svg-minor-gridline" paint-order="fill stroke markers" d=" M 0 299.5 L 600 299.5" stroke-opacity="0.12" stroke-miterlimit="10" stroke-dasharray=""/><path fill="none" stroke="rgb(0,0,0)" class="dcg-svg-minor-gridline" paint-order="fill stroke markers" d=" M 0 274.5 L 600 274.5" stroke-opacity="0.12" stroke-miterlimit="10" stroke-dasharray=""/><path fill="none" stroke="rgb(0,0,0)" class="dcg-svg-minor-gridline" paint-order="fill stroke markers" d=" M 0 249.5 L 600 249.5" stroke-opacity="0.12" stroke-miterlimit="10" stroke-dasharray=""/><path fill="none" stroke="rgb(0,0,0)" class="dcg-svg-minor-gridline" paint-order="fill stroke markers" d=" M 0 224.5 L 600 224.5" stroke-opacity="0.12" stroke-miterlimit="10" stroke-dasharray=""/><path fill="none" stroke="rgb(0,0,0)" class="dcg-svg-minor-gridline" paint-order="fill stroke markers" d=" M 0 199.5 L 600 199.5" stroke-opacity="0.12" stroke-miterlimit="10" stroke-dasharray=""/><path fill="none" stroke="rgb(0,0,0)" class="dcg-svg-minor-gridline" paint-order="fill stroke markers" d=" M 0 174.5 L 600 174.5" stroke-opacity="0.12" stroke-miterlimit="10" stroke-dasharray=""/><path fill="none" stroke="rgb(0,0,0)" class="dcg-svg-minor-gridline" paint-order="fill stroke markers" d=" M 0 149.5 L 600 149.5" stroke-opacity="0.12" stroke-miterlimit="10" stroke-dasharray=""/><path fill="none" stroke="rgb(0,0,0)" class="dcg-svg-minor-gridline" paint-order="fill stroke markers" d=" M 0 124.5 L 600 124.5" stroke-opacity="0.12" stroke-miterlimit="10" stroke-dasharray=""/><path fill="none" stroke="rgb(0,0,0)" class="dcg-svg-minor-gridline" paint-order="fill stroke markers" d=" M 0 99.5 L 600 99.5" stroke-opacity="0.12" stroke-miterlimit="10" stroke-dasharray=""/><path fill="none" stroke="rgb(0,0,0)" class="dcg-svg-minor-gridline" paint-order="fill stroke markers" d=" M 0 74.5 L 600 74.5" stroke-opacity="0.12" stroke-miterlimit="10" stroke-dasharray=""/><path fill="none" stroke="rgb(0,0,0)" class="dcg-svg-minor-gridline" paint-order="fill stroke markers" d=" M 0 49.5 L 600 49.5" stroke-opacity="0.12" stroke-miterlimit="10" stroke-dasharray=""/><path fill="none" stroke="rgb(0,0,0)" class="dcg-svg-minor-gridline" paint-order="fill stroke markers" d=" M 0 24.5 L 600 24.5" stroke-opacity="0.12" stroke-miterlimit="10" stroke-dasharray=""/><path fill="none" stroke="rgb(0,0,0)" class="dcg-svg-minor-gridline" paint-order="fill stroke markers" d=" M 0 -0.5 L 600 -0.5" stroke-opacity="0.12" stroke-miterlimit="10" stroke-dasharray=""/><path fill="none" stroke="rgb(0,0,0)" class="dcg-svg-major-gridline" paint-order="fill stroke markers" d=" M -0.5 0 L -0.5 400" stroke-opacity="0.31818181818181823" stroke-miterlimit="10" stroke-dasharray=""/><path fill="none" stroke="rgb(0,0,0)" class="dcg-svg-major-gridline" paint-order="fill stroke markers" d=" M 99.5 0 L 99.5 400" stroke-opacity="0.31818181818181823" stroke-miterlimit="10" stroke-dasharray=""/><path fill="none" stroke="rgb(0,0,0)" class="dcg-svg-major-gridline" paint-order="fill stroke markers" d=" M 199.5 0 L 199.5 400" stroke-opacity="0.31818181818181823" stroke-miterlimit="10" stroke-dasharray=""/><path fill="none" stroke="rgb(0,0,0)" class="dcg-svg-major-gridline" paint-order="fill stroke markers" d=" M 399.5 0 L 399.5 400" stroke-opacity="0.31818181818181823" stroke-miterlimit="10" stroke-dasharray=""/><path fill="none" stroke="rgb(0,0,0)" class="dcg-svg-major-gridline" paint-order="fill stroke markers" d=" M 499.5 0 L 499.5 400" stroke-opacity="0.31818181818181823" stroke-miterlimit="10" stroke-dasharray=""/><path fill="none" stroke="rgb(0,0,0)" class="dcg-svg-major-gridline" paint-order="fill stroke markers" d=" M 0 224.5 L 600 224.5" stroke-opacity="0.31818181818181823" stroke-miterlimit="10" stroke-dasharray=""/><path fill="none" stroke="rgb(0,0,0)" class="dcg-svg-major-gridline" paint-order="fill stroke markers" d=" M 0 124.5 L 600 124.5" stroke-opacity="0.31818181818181823" stroke-miterlimit="10" stroke-dasharray=""/><path fill="none" stroke="rgb(0,0,0)" class="dcg-svg-major-gridline" paint-order="fill stroke markers" d=" M 0 24.5 L 600 24.5" stroke-opacity="0.31818181818181823" stroke-miterlimit="10" stroke-dasharray=""/></g></g><g id="axis-b39ec4dc"><g id="yaxis-b39ec4dc"><title>Y axis</title><path fill="none" stroke="rgb(0,0,0)" class="dcg-svg-axis-line" paint-order="fill stroke markers" d=" M 299.75 0 L 299.75 400" stroke-opacity="0.9" stroke-miterlimit="10" stroke-width="1.5" stroke-dasharray=""/></g><g id="xaxis-b39ec4dc"><title>X axis</title><path fill="none" stroke="rgb(0,0,0)" class="dcg-svg-axis-line" paint-order="fill stroke markers" d=" M 0 324.75 L 600 324.75" stroke-opacity="0.9" stroke-miterlimit="10" stroke-width="1.5" stroke-dasharray=""/></g><g/></g></g><g id="expressions-b39ec4dc"><g id="sketch-b39ec4dc"><title>Expression 1</title><path fill="#2d70b3" stroke="none" paint-order="stroke fill markers" d="" fill-opacity="0.4"/><g><path fill="none" stroke="#2d70b3" class="dcg-svg-curve" paint-order="fill stroke markers" d=" M 34.00000000000002 324.63061689999995 L 34.00000000000002 324.63061689999995 L 38.24800000000005 294.3009710391244 L 42.34951724137929 267.13088693203844 L 46.451034482758615 241.9602066132592 L 50.406068965517235 219.51176034800292 L 54.36110344827586 198.78634369343712 L 58.16965517241378 180.3961247065329 L 61.978206896551704 163.48584288828485 L 65.640275862069 148.56906180272213 L 69.30234482758623 134.91899753825646 L 72.81793103448274 122.96152461908355 L 76.33351724137934 112.08429558191835 L 79.7026206896552 102.63535959116649 L 83.07172413793106 94.10408418751274 L 86.29434482758626 86.76959003200665 L 89.51696551724136 80.21145464408715 L 92.73958620689656 74.39946318059197 L 95.81572413793106 69.52035350694302 L 98.89186206896555 65.26849612718172 L 101.96800000000003 61.618785376495566 L 105.04413793103453 58.54649763279764 L 108.120275862069 56.02729131672652 L 110.90344827586206 54.20458992738327 L 113.68662068965521 52.79754413237373 L 116.3233103448276 51.83236124430408 L 118.8135172413793 51.23614220097511 L 121.30372413793106 50.93403165165779 L 123.79393103448281 50.9142068707921 L 126.4306206896552 51.18794362982641 L 129.2137931034483 51.79097629046112 L 131.9969655172414 52.70107498896738 L 135.0731034482759 54.04552428803004 L 138.29572413793107 55.81352513959342 L 141.8113103448276 58.13493240706566 L 145.61986206896552 61.07885769095344 L 149.8678620689655 64.84507678111135 L 154.5553103448276 69.53401557726738 L 159.82868965517238 75.39960964776589 L 165.54151724137935 82.36023973777617 L 171.98675862068964 90.83756281993345 L 179.4573793103448 101.30272485584686 L 188.9787586206897 115.30370250994173 L 219.5936551724138 160.80302831646546 L 227.65020689655174 171.87791129573145 L 234.82786206896552 181.13783916285777 L 241.41958620689658 189.0415077819417 L 247.57186206896552 195.83121117642892 L 253.43117241379315 201.71924606466098 L 258.99751724137934 206.75117964306767 L 264.12441379310343 210.8736135256915 L 268.9583448275862 214.29032149875732 L 273.49931034482756 217.06973921393947 L 277.74731034482755 219.28225415892018 L 281.8488275862069 221.05543628128075 L 285.80386206896554 222.42198678947614 L 289.6124137931035 223.41542849917437 L 293.2744827586207 224.06963298709547 L 296.9365517241379 224.42699359824212 L 300.59862068965515 224.4865895098732 L 304.2606896551724 224.24826725153173 L 307.92275862068965 223.71264070504526 L 311.58482758620687 222.8810911045256 L 315.3933793103448 221.7046822029291 L 319.3484137931034 220.15026372977195 L 323.44993103448274 218.18516733395737 L 327.6979310344828 215.77769136379922 L 332.09241379310345 212.8976565430301 L 336.77986206896554 209.40128955812906 L 341.76027586206897 205.223354131621 L 347.18013793103444 200.1588631592538 L 353.03944827586207 194.1110457088597 L 359.19172413793103 187.1669910591331 L 365.6369655172414 179.3002839364324 L 372.6681379310345 170.11106752729262 L 380.57820689655176 159.14150830893473 L 389.9531034482759 145.4921805661546 L 405.33379310344833 122.35035572339234 L 418.3707586206896 102.99299407164187 L 426.5737931034483 91.43608684049792 L 433.312 82.54606952051358 L 439.1713103448276 75.39960964776589 L 444.5911724137932 69.37963671546032 L 449.57158620689654 64.43325229623872 L 454.11255172413786 60.47971919976112 L 458.2140689655172 57.417193438335346 L 461.87613793103446 55.129485629408066 L 465.2452413793104 53.427053387343335 L 468.3213793103448 52.23268992280026 L 471.2510344827586 51.43431822979011 L 474.03420689655167 50.99922588047974 L 476.6708965517241 50.892349807627625 L 479.16110344827587 51.07680257319737 L 481.6513103448275 51.55047578153864 L 484.1415172413793 52.32528867025718 L 486.6317241379311 53.41332454743525 L 489.26841379310343 54.92037840396148 L 492.05158620689656 56.9233060935602 L 494.98124137931035 59.50794586306483 L 498.0573793103448 62.76998445618892 L 501.1335172413793 66.61764481447182 L 504.2096551724138 71.07577790757591 L 507.2857931034483 76.16961674788831 L 510.36193103448284 81.92477639052208 L 513.4380689655173 88.36725393331557 L 516.6606896551724 95.88245475725353 L 519.8833103448276 104.21172514283512 L 523.2524137931034 113.82392782267289 L 526.6215172413794 124.39627065521097 L 529.9906206896552 135.96553746508954 L 533.5062068965517 149.14108586735873 L 537.0217931034482 163.48584288828485 L 540.6838620689656 179.71872758796417 L 544.3459310344826 197.31787004706518 L 548.1544827586206 217.12505044263668 L 551.9630344827585 238.52321775613845 L 555.9180689655173 262.4916622932345 L 559.8731034482757 288.3066877218246 L 563.9746206896551 317.1012025287853 L 564.9999999999999 324.63061689999995" stroke-linecap="round" stroke-linejoin="round" stroke-miterlimit="10" stroke-width="2.5" stroke-opacity="0.9" stroke-dasharray=""/></g></g><g id="sketch-b39ec4dc"><title>Expression 2</title><path fill="#388c46" stroke="none" paint-order="stroke fill markers" d="" fill-opacity="0.4"/><path fill="#388c46" stroke="none" paint-order="stroke fill markers" d="" fill-opacity="0.4"/><path fill="#388c46" stroke="none" class="dcg-svg-region" paint-order="stroke fill markers" d=" M 34.01763322927071 324.5 L 564.9823667707293 324.5 L 564.9823667707293 324.4999999999999 L 563.7578125 315.5263108299114 L 559.65625 286.84226763248444 L 555.701171875 261.12997412547156 L 551.74609375 237.26059189243827 L 547.9375 215.95440101623538 L 544.12890625 196.23589445083053 L 540.466796875 178.71894660125872 L 536.8046875 162.56529237190261 L 533.2890625 148.29384862491864 L 529.7734375 135.18896094569942 L 526.404296875 123.68495752871428 L 523.03515625 113.1755118508882 L 519.666015625 103.62387431723806 L 516.443359375 95.35038527301555 L 513.220703125 87.88889349507559 L 510.14453125 81.49577811305068 L 507.068359375 75.78814592179879 L 503.9921875 70.74002596596256 L 500.916015625 66.3258293497729 L 497.83984375 62.52034923704923 L 494.763671875 59.298760851199404 L 491.833984375 56.751060643548044 L 489.05078125 54.781814724585274 L 486.4140625 53.30541982362047 L 483.923828125 52.245237986609936 L 481.43359375 51.49722318342543 L 478.943359375 51.04930605008303 L 476.453125 50.8895813003183 L 473.81640625 51.0215349420032 L 471.033203125 51.481882964255476 L 468.103515625 52.30551246841247 L 465.02734375 53.52495621601702 L 461.658203125 55.25319504504483 L 457.99609375 57.56702171816147 L 453.89453125 60.65646525417111 L 449.353515625 64.63699498035749 L 444.373046875 69.60969691990795 L 438.953125 75.65452442318201 L 432.947265625 83.0102615267624 L 426.0625 92.13543128967285 L 417.712890625 103.94670969599429 L 402.0390625 127.32816725084558 L 388.5625 147.5507755279541 L 379.48046875 160.6982761429681 L 371.716796875 171.38797998614064 L 364.83203125 180.31351490822271 L 358.38671875 188.10830462203012 L 352.234375 194.97579381614923 L 346.521484375 200.80219730789577 L 341.248046875 205.67448618017988 L 336.267578125 209.80428201419454 L 331.580078125 213.25349301023562 L 327.185546875 216.0878954759046 L 322.9375 218.45012855529785 L 318.8359375 220.3706453652121 L 314.880859375 221.8813846338544 L 311.072265625 223.01521788813443 L 307.41015625 223.80546743693412 L 303.748046875 224.29954786912458 L 300.0859375 224.49618532368913 L 296.423828125 224.39487332576573 L 292.76171875 223.99587278664694 L 288.953125 223.26623783260584 L 285.14453125 222.21777796690003 L 281.189453125 220.79469371598134 L 277.087890625 218.96371422826815 L 272.693359375 216.60740112620442 L 268.15234375 213.75305408323766 L 263.318359375 210.25899147116615 L 258.044921875 205.93032962333564 L 252.478515625 200.80219730789577 L 246.619140625 194.81923380717672 L 240.466796875 187.93772781919142 L 233.875 179.94570922851562 L 226.55078125 170.4057817015855 L 218.201171875 158.82742526806578 L 190.076171875 116.94766099663138 L 180.26171875 102.46167761684046 L 172.64453125 91.73432312850491 L 166.19921875 83.19728197940276 L 160.486328125 76.17073279088982 L 155.212890625 70.23298857526424 L 150.37890625 65.33019654630334 L 146.130859375 61.50587413776702 L 142.17578125 58.39789748602203 L 138.66015625 56.03560193153686 L 135.4375 54.2274112701416 L 132.361328125 52.84213330578683 L 129.431640625 51.85133869727184 L 126.6484375 51.2236995161511 L 124.01171875 50.92550964505068 L 121.375 50.92959594726568 L 118.884765625 51.223468050559006 L 116.39453125 51.81111458633677 L 113.7578125 52.766851811204106 L 110.974609375 54.163510025502546 L 108.044921875 56.08258354168538 L 104.96875 58.615081429481506 L 101.892578125 61.701264945260846 L 98.81640625 65.36548583945842 L 95.740234375 69.63247792209768 L 92.6640625 74.52735706279054 L 89.44140625 80.35656088209362 L 86.21875 86.93262827396399 L 82.99609375 94.2857858742646 L 79.626953125 102.83736795081683 L 76.2578125 112.30743649462244 L 72.7421875 123.20761206606409 L 69.2265625 135.18896094569942 L 65.564453125 148.86490097979006 L 61.90234375 163.80860058302645 L 58.09375 180.7480026483536 L 54.28515625 199.16850843178693 L 50.330078125 219.92663269320659 L 46.375 242.40908813476565 L 42.2734375 267.616435802076 L 38.171875 294.8246358409524 L 34.01763322927071 324.4999999999999" fill-opacity="0.4"/><g><path fill="none" stroke="#388c46" class="dcg-svg-curve" paint-order="fill stroke markers" d=" M 34.01763322927071 324.5 L 45.01763322927071 324.5 M 52.01763322927071 324.5 L 63.01763322927071 324.5 M 70.0176332292707 324.5 L 81.0176332292707 324.5 M 88.0176332292707 324.5 L 99.0176332292707 324.5 M 106.0176332292707 324.5 L 117.0176332292707 324.5 M 124.0176332292707 324.5 L 135.0176332292707 324.5 M 142.0176332292707 324.5 L 153.0176332292707 324.5 M 160.0176332292707 324.5 L 171.0176332292707 324.5 M 178.0176332292707 324.5 L 189.0176332292707 324.5 M 196.0176332292707 324.5 L 207.0176332292707 324.5 M 214.0176332292707 324.5 L 225.0176332292707 324.5 M 232.0176332292707 324.5 L 243.0176332292707 324.5 M 250.0176332292707 324.5 L 261.0176332292707 324.5 M 268.0176332292707 324.5 L 279.0176332292707 324.5 M 286.0176332292707 324.5 L 297.0176332292707 324.5 M 304.0176332292707 324.5 L 315.0176332292707 324.5 M 322.0176332292707 324.5 L 333.0176332292707 324.5 M 340.0176332292707 324.5 L 351.0176332292707 324.5 M 358.0176332292707 324.5 L 369.0176332292707 324.5 M 376.0176332292707 324.5 L 387.0176332292707 324.5 M 394.0176332292707 324.5 L 405.0176332292707 324.5 M 412.0176332292707 324.5 L 423.0176332292707 324.5 M 430.0176332292707 324.5 L 441.0176332292707 324.5 M 448.0176332292707 324.5 L 459.0176332292707 324.5 M 466.0176332292707 324.5 L 477.0176332292707 324.5 M 484.0176332292707 324.5 L 495.0176332292707 324.5 M 502.0176332292707 324.5 L 513.0176332292707 324.5 M 520.0176332292707 324.5 L 531.0176332292707 324.5 M 538.0176332292707 324.5 L 549.0176332292707 324.5 M 556.0176332292707 324.5 L 564.9823667707293 324.5" stroke-linecap="round" stroke-linejoin="round" stroke-miterlimit="10" stroke-width="2.5" stroke-opacity="0.9" stroke-dasharray=""/></g><g><path fill="none" stroke="#388c46" class="dcg-svg-curve" paint-order="fill stroke markers" d=" M 34.01763322927071 324.4999999999999 L 35.54264819009744 313.606225201095 M 36.51311225607808 306.67382305633737 L 38.038127216904805 295.7800482574325 M 39.071511238664755 288.8567924291275 L 40.711205303819526 277.97968787999787 M 41.754646981645294 271.05789407600633 L 42.2734375 267.616435802076 M 42.2734375 267.616435802076 L 43.4811011366207 260.1943869722785 M 44.60530720666308 253.2852509400325 L 46.37191674530111 242.42803717507454 M 47.58447918616634 235.53386062949912 L 49.49031629680528 224.70021927916306 M 50.7330643844109 217.81156983373495 L 52.791875087027016 207.0059556220951 M 54.10202735232818 200.12965566923336 L 54.28515625 199.16850843178693 M 54.28515625 199.16850843178693 L 56.314280481702475 189.35452009412816 M 57.73161134333091 182.4995092824171 L 58.09375 180.7480026483536 M 58.09375 180.7480026483536 L 60.11437538756291 171.76090974474957 M 61.649897101038874 164.9314022173034 L 61.90234375 163.80860058302645 M 61.90234375 163.80860058302645 L 64.2466191807386 154.24248875049676 M 65.94295453754472 147.45140889347567 L 68.78826211122865 136.82576892163695 M 70.72035617006328 130.0980701040371 L 72.7421875 123.20761206606409 M 72.7421875 123.20761206606409 L 73.91447347581465 119.57294598071127 M 76.06318255631498 112.91088554212506 L 76.2578125 112.30743649462244 M 76.2578125 112.30743649462244 L 79.626953125 102.83736795081683 M 79.626953125 102.83736795081683 L 79.74220124664475 102.54484416475088 M 82.30809410315948 96.03207256973185 L 82.99609375 94.2857858742646 M 82.99609375 94.2857858742646 L 86.21875 86.93262827396399 M 86.21875 86.93262827396399 L 86.70048933603793 85.94960368389165 M 89.81466034519418 79.6814115554236 L 92.6640625 74.52735706279054 M 92.6640625 74.52735706279054 L 95.38346738990785 70.20017418367782 M 99.50392174374977 64.54654309514818 L 101.892578125 61.701264945260846 M 101.892578125 61.701264945260846 L 104.96875 58.615081429481506 M 104.96875 58.615081429481506 L 107.22890432466917 56.75438043945052 M 113.15609737206562 53.06880259896675 L 113.7578125 52.766851811204106 M 113.7578125 52.766851811204106 L 116.39453125 51.81111458633677 M 116.39453125 51.81111458633677 L 118.884765625 51.223468050559006 M 118.884765625 51.223468050559006 L 121.375 50.92959594726568 M 121.375 50.92959594726568 L 123.83103455638961 50.92578966362322 M 130.67514753763422 52.271881825059054 L 132.361328125 52.84213330578683 M 132.361328125 52.84213330578683 L 135.4375 54.2274112701416 M 135.4375 54.2274112701416 L 138.66015625 56.03560193153686 M 138.66015625 56.03560193153686 L 140.4455621691224 57.235290881778816 M 146.0406994679399 61.43502474435176 L 146.130859375 61.50587413776702 M 146.130859375 61.50587413776702 L 150.37890625 65.33019654630334 M 150.37890625 65.33019654630334 L 154.0083358546773 69.01128799283634 M 158.72191771532374 74.18405565590061 L 160.486328125 76.17073279088982 M 160.486328125 76.17073279088982 L 165.74943638839432 82.64407378841838 M 169.98740892894315 88.21487196255134 L 172.64453125 91.73432312850491 M 172.64453125 91.73432312850491 L 176.4599647221964 97.1076328156974 M 180.50486079686465 102.82055157598523 L 186.6747797004104 111.92725793578781 M 190.59791990275914 117.72457422015631 L 196.73055708359072 126.85642842443937 M 200.63314438048354 132.6676083726195 L 206.76578156131512 141.79946257690256 M 210.66836885820797 147.61064252508268 L 216.80100603903955 156.7424967293657 M 220.8265829149721 162.46806801433735 L 226.55078125 170.4057817015855 M 226.55078125 170.4057817015855 L 227.28982280122418 171.3683967024098 M 231.5526087578497 176.92075258869772 L 233.875 179.94570922851562 M 233.875 179.94570922851562 L 238.44760781059946 185.48962499582 M 243.0172645807349 190.79047134301968 L 246.619140625 194.81923380717672 M 246.619140625 194.81923380717672 L 250.53452228980993 198.8172004148682 M 255.58338939091266 203.66260719880844 L 258.044921875 205.93032962333564 M 258.044921875 205.93032962333564 L 263.318359375 210.25899147116615 M 263.318359375 210.25899147116615 L 263.9915278894747 210.7455658486536 M 269.73221641388824 214.74611493984577 L 272.693359375 216.60740112620442 M 272.693359375 216.60740112620442 L 277.087890625 218.96371422826815 M 277.087890625 218.96371422826815 L 279.38542648495434 219.98935775603638 M 285.9361525240348 222.43570174379653 L 288.953125 223.26623783260584 M 288.953125 223.26623783260584 L 292.76171875 223.99587278664694 M 292.76171875 223.99587278664694 L 296.423828125 224.39487332576573 M 296.423828125 224.39487332576573 L 296.73287082219326 224.40342297021655 M 303.7263437624513 224.30071322066675 L 303.748046875 224.29954786912458 M 303.748046875 224.29954786912458 L 307.41015625 223.80546743693412 M 307.41015625 223.80546743693412 L 311.072265625 223.01521788813443 M 311.072265625 223.01521788813443 L 314.4618228326456 222.00613345130964 M 320.945163167953 219.38302092910845 L 322.9375 218.45012855529785 M 322.9375 218.45012855529785 L 327.185546875 216.0878954759046 M 327.185546875 216.0878954759046 L 330.49608402991026 213.95265188773658 M 336.17923815142285 209.8692853652884 L 336.267578125 209.80428201419454 M 336.267578125 209.80428201419454 L 341.248046875 205.67448618017988 M 341.248046875 205.67448618017988 L 344.4947680422037 202.6747420067871 M 349.49043695938695 197.774252815347 L 352.234375 194.97579381614923 M 352.234375 194.97579381614923 L 356.9590823346466 189.70188879969743 M 361.4840048144775 184.36252913696126 L 364.83203125 180.31351490822271 M 364.83203125 180.31351490822271 L 368.34154290228577 175.76372040277352 M 372.5828368688549 170.1955402231385 L 379.0469200383282 161.2952240052656 M 383.03966726603556 155.545842354708 L 388.5625 147.5507755279541 M 388.5625 147.5507755279541 L 389.27391449985845 146.4832438964054 M 393.15578356300057 140.65820376121147 L 399.2558635193668 131.50456926304958 M 403.1422208802336 125.68252901633099 L 409.2672209426665 116.54555061889583 M 413.1649482551238 110.731109820528 L 417.712890625 103.94670969599429 M 417.712890625 103.94670969599429 L 419.3478101017211 101.63396807609418 M 423.38854388600856 95.91798430385357 L 426.0625 92.13543128967285 M 426.0625 92.13543128967285 L 429.897711174076 87.05218591194009 M 434.17213758287954 81.5100871894787 L 438.953125 75.65452442318201 M 438.953125 75.65452442318201 L 441.24993841153935 73.09289324100529 M 446.01601936005954 67.96928657437898 L 449.353515625 64.63699498035749 M 449.353515625 64.63699498035749 L 453.89453125 60.65646525417111 M 453.89453125 60.65646525417111 L 454.09029418094826 60.50900961461707 M 459.780006834944 56.43989381022858 L 461.658203125 55.25319504504483 M 461.658203125 55.25319504504483 L 465.02734375 53.52495621601702 M 465.02734375 53.52495621601702 L 468.103515625 52.30551246841247 M 468.103515625 52.30551246841247 L 469.72343053396753 51.85010221962333 M 476.63117555995524 50.901001543095376 L 478.943359375 51.04930605008303 M 478.943359375 51.04930605008303 L 481.43359375 51.49722318342543 M 481.43359375 51.49722318342543 L 483.923828125 52.245237986609936 M 483.923828125 52.245237986609936 L 486.4140625 53.30541982362047 M 486.4140625 53.30541982362047 L 487.15239264026985 53.7188377713341 M 492.90161149021833 57.679485201845125 L 494.763671875 59.298760851199404 M 494.763671875 59.298760851199404 L 497.83984375 62.52034923704923 M 497.83984375 62.52034923704923 L 500.4034510296595 65.69174437230245 M 504.4107313452721 71.42687300298337 L 507.068359375 75.78814592179879 M 507.068359375 75.78814592179879 L 509.8641204351171 80.9754945077008 M 512.9233763614567 87.2709682351301 L 513.220703125 87.88889349507559 M 513.220703125 87.88889349507559 L 516.443359375 95.35038527301555 M 516.443359375 95.35038527301555 L 517.2369837876821 97.38784827688154 M 519.768336421913 103.91395753816822 L 523.03515625 113.1755118508882 M 523.03515625 113.1755118508882 L 523.3951346893376 114.29840171346477 M 525.5320845089766 120.9642434058803 L 526.404296875 123.68495752871428 M 526.404296875 123.68495752871428 L 528.6929498503072 131.49961253386917 M 530.5910965212648 138.23687693036123 L 533.2890625 148.29384862491864 M 533.2890625 148.29384862491864 L 533.4295684877661 148.86422325262177 M 535.1038936590027 155.6610339179974 L 536.8046875 162.56529237190261 M 536.8046875 162.56529237190261 L 537.6645984702766 166.3583807424209 M 539.2122586560756 173.18514776270897 L 540.466796875 178.71894660125872 M 540.466796875 178.71894660125872 L 541.5566469092146 183.93202034054048 M 542.989104344146 190.78388619570066 L 544.12890625 196.23589445083053 M 544.12890625 196.23589445083053 L 545.1586916169732 201.5674763554691 M 546.4861936037131 208.44044794534213 L 547.9375 215.95440101623538 M 547.9375 215.95440101623538 L 548.5264884458855 219.24934426186653 M 549.7582505101574 226.14011796421815 L 551.6938766111559 236.96847663934216 M 552.8418604543095 243.87367853112372 L 554.640007000273 254.72571377799053 M 555.7784680766775 261.6324831939895 L 557.4508247561325 272.50461376424494 M 558.5150517339675 279.4232423089529 L 559.65625 286.84226763248444 M 559.65625 286.84226763248444 L 560.1507903105048 290.30080706212624 M 561.1416493965445 297.2303235150696 L 562.6987136746069 308.11956365540914 M 563.6895727606466 315.0490801083525 L 563.7578125 315.5263108299114 M 563.7578125 315.5263108299114 L 564.9823667707293 324.4999999999999" stroke-linecap="round" stroke-linejoin="round" stroke-miterlimit="10" stroke-width="2.5" stroke-opacity="0.9" stroke-dasharray=""/></g></g><g id="sketch-b39ec4dc"><title>Expression 3</title><path fill="none" stroke="#43835c" class="dcg-svg-point" paint-order="fill stroke markers" d=" M 564.9 324.4 L 564.9 324.6 L 565.1 324.6 L 565.1 324.4" stroke-linecap="round" stroke-linejoin="round" stroke-miterlimit="10" stroke-width="9" stroke-opacity="0.9" stroke-dasharray=""/></g></g><g id="labels-b39ec4dc"><g transform="rotate(0,0,0) translate(565.5,325)"><g class="dcg-svg-label"><g transform="translate(-79.90625,8.5)"><g><path fill="none" stroke="#FFF" paint-order="fill stroke markers" d=" M 7.749696601941747 0 L 7.749696601941746 0 A 5.7650182038834945 10.444472446236558 0 0 0 7.749696601941746 19.234375 L 6.8046116504854375 19.234375 L 6.8046116504854375 19.234375 A 7.08813713592233 10.444472446236558 0 0 1 6.8046116504854375 0 Z" stroke-linecap="round" stroke-linejoin="round" stroke-miterlimit="10" stroke-width="3" stroke-dasharray=""/></g></g><g transform="translate(-70.015625,9.265625)"><g><text fill="none" stroke="#FFF" font-family="Symbola, &quot;Times New Roman&quot;, serif" font-size="17.71px" font-style="normal" font-weight="normal" text-decoration="normal" x="0" y="13.962119999999999" text-anchor="start" stroke-linecap="round" stroke-linejoin="round" stroke-miterlimit="2" stroke-width="3" stroke-dasharray="">5</text></g></g><g transform="translate(-60.6875,9.265625)"><g><text fill="none" stroke="#FFF" font-family="Symbola, &quot;Times New Roman&quot;, serif" font-size="17.71px" font-style="normal" font-weight="normal" text-decoration="normal" x="0" y="13.962119999999999" text-anchor="start" stroke-linecap="round" stroke-linejoin="round" stroke-miterlimit="2" stroke-width="3" stroke-dasharray="">.</text></g></g><g transform="translate(-55.9375,9.265625)"><g><text fill="none" stroke="#FFF" font-family="Symbola, &quot;Times New Roman&quot;, serif" font-size="17.71px" font-style="normal" font-weight="normal" text-decoration="normal" x="0" y="13.962119999999999" text-anchor="start" stroke-linecap="round" stroke-linejoin="round" stroke-miterlimit="2" stroke-width="3" stroke-dasharray="">3</text></g></g><g transform="translate(-46.609375,9.265625)"><g><text fill="none" stroke="#FFF" font-family="Symbola, &quot;Times New Roman&quot;, serif" font-size="17.71px" font-style="normal" font-weight="normal" text-decoration="normal" x="0" y="13.962119999999999" text-anchor="start" stroke-linecap="round" stroke-linejoin="round" stroke-miterlimit="2" stroke-width="3" stroke-dasharray="">1</text></g></g><g transform="translate(-37.4375,9.265625)"><g><text fill="none" stroke="#FFF" font-family="Symbola, &quot;Times New Roman&quot;, serif" font-size="17.71px" font-style="normal" font-weight="normal" text-decoration="normal" x="0" y="13.962119999999999" text-anchor="start" stroke-linecap="round" stroke-linejoin="round" stroke-miterlimit="2" stroke-width="3" stroke-dasharray="">,</text></g></g><g transform="translate(-33,9.265625)"><g><text fill="none" stroke="#FFF" font-family="Symbola, &quot;Times New Roman&quot;, serif" font-size="17.71px" font-style="normal" font-weight="normal" text-decoration="normal" x="0" y="13.962119999999999" text-anchor="start" stroke-linecap="round" stroke-linejoin="round" stroke-miterlimit="2" stroke-width="3" stroke-dasharray=""> </text></g></g><g transform="translate(-28.40625,9.265625)"><g><text fill="none" stroke="#FFF" font-family="Symbola, &quot;Times New Roman&quot;, serif" font-size="17.71px" font-style="normal" font-weight="normal" text-decoration="normal" x="0" y="13.962119999999999" text-anchor="start" stroke-linecap="round" stroke-linejoin="round" stroke-miterlimit="2" stroke-width="3" stroke-dasharray="">0</text></g></g><g transform="translate(-19.234375,8.5)"><g><path fill="none" stroke="#FFF" paint-order="fill stroke markers" d=" M 1.9846783980582523 0 L 1.9846783980582527 0 A 5.7650182038834945 10.444472446236558 0 0 1 1.9846783980582527 19.234375 L 2.929763349514563 19.234375 L 2.929763349514563 19.234375 A 7.08813713592233 10.444472446236558 0 0 0 2.929763349514563 0 Z" stroke-linecap="round" stroke-linejoin="round" stroke-miterlimit="10" stroke-width="3" stroke-dasharray=""/></g></g><g transform="translate(-79.90625,8.5)"><g><path fill="rgb(67, 131, 92)" stroke="none" paint-order="stroke fill markers" d=" M 7.749696601941747 0 L 7.749696601941746 0 A 5.7650182038834945 10.444472446236558 0 0 0 7.749696601941746 19.234375 L 6.8046116504854375 19.234375 L 6.8046116504854375 19.234375 A 7.08813713592233 10.444472446236558 0 0 1 6.8046116504854375 0 Z"/></g></g><g transform="translate(-70.015625,9.265625)"><g><text fill="rgb(67, 131, 92)" stroke="none" font-family="Symbola, &quot;Times New Roman&quot;, serif" font-size="17.71px" font-style="normal" font-weight="normal" text-decoration="normal" x="0" y="13.962119999999999" text-anchor="start">5</text></g></g><g transform="translate(-60.6875,9.265625)"><g><text fill="rgb(67, 131, 92)" stroke="none" font-family="Symbola, &quot;Times New Roman&quot;, serif" font-size="17.71px" font-style="normal" font-weight="normal" text-decoration="normal" x="0" y="13.962119999999999" text-anchor="start">.</text></g></g><g transform="translate(-55.9375,9.265625)"><g><text fill="rgb(67, 131, 92)" stroke="none" font-family="Symbola, &quot;Times New Roman&quot;, serif" font-size="17.71px" font-style="normal" font-weight="normal" text-decoration="normal" x="0" y="13.962119999999999" text-anchor="start">3</text></g></g><g transform="translate(-46.609375,9.265625)"><g><text fill="rgb(67, 131, 92)" stroke="none" font-family="Symbola, &quot;Times New Roman&quot;, serif" font-size="17.71px" font-style="normal" font-weight="normal" text-decoration="normal" x="0" y="13.962119999999999" text-anchor="start">1</text></g></g><g transform="translate(-37.4375,9.265625)"><g><text fill="rgb(67, 131, 92)" stroke="none" font-family="Symbola, &quot;Times New Roman&quot;, serif" font-size="17.71px" font-style="normal" font-weight="normal" text-decoration="normal" x="0" y="13.962119999999999" text-anchor="start">,</text></g></g><g transform="translate(-33,9.265625)"><g><text fill="rgb(67, 131, 92)" stroke="none" font-family="Symbola, &quot;Times New Roman&quot;, serif" font-size="17.71px" font-style="normal" font-weight="normal" text-decoration="normal" x="0" y="13.962119999999999" text-anchor="start"> </text></g></g><g transform="translate(-28.40625,9.265625)"><g><text fill="rgb(67, 131, 92)" stroke="none" font-family="Symbola, &quot;Times New Roman&quot;, serif" font-size="17.71px" font-style="normal" font-weight="normal" text-decoration="normal" x="0" y="13.962119999999999" text-anchor="start">0</text></g></g><g transform="translate(-19.234375,8.5)"><g><path fill="rgb(67, 131, 92)" stroke="none" paint-order="stroke fill markers" d=" M 1.9846783980582523 0 L 1.9846783980582527 0 A 5.7650182038834945 10.444472446236558 0 0 1 1.9846783980582527 19.234375 L 2.929763349514563 19.234375 L 2.929763349514563 19.234375 A 7.08813713592233 10.444472446236558 0 0 0 2.929763349514563 0 Z"/></g></g></g></g></g></g></svg>