<svg version="1.1" xmlns="http://www.w3.org/2000/svg" xmlns:xlink="http://www.w3.org/1999/xlink" width="600" height="400"><defs/><g transform="scale(1,1)"><g id="background-85947eed"><rect fill="white" stroke="none" x="0" y="0" width="600" height="400" class="dcg-svg-background"/></g><g id="background-images-85947eed"/><g id="graphpaper-85947eed"><g id="grid-85947eed"><g><path fill="none" stroke="rgb(0,0,0)" class="dcg-svg-minor-gridline" paint-order="fill stroke markers" d=" M -0.5 0 L -0.5 400" stroke-opacity="0.12" stroke-miterlimit="10" stroke-dasharray=""/><path fill="none" stroke="rgb(0,0,0)" class="dcg-svg-minor-gridline" paint-order="fill stroke markers" d=" M 29.5 0 L 29.5 400" stroke-opacity="0.12" stroke-miterlimit="10" stroke-dasharray=""/><path fill="none" stroke="rgb(0,0,0)" class="dcg-svg-minor-gridline" paint-order="fill stroke markers" d=" M 59.5 0 L 59.5 400" stroke-opacity="0.12" stroke-miterlimit="10" stroke-dasharray=""/><path fill="none" stroke="rgb(0,0,0)" class="dcg-svg-minor-gridline" paint-order="fill stroke markers" d=" M 89.5 0 L 89.5 400" stroke-opacity="0.12" stroke-miterlimit="10" stroke-dasharray=""/><path fill="none" stroke="rgb(0,0,0)" class="dcg-svg-minor-gridline" paint-order="fill stroke markers" d=" M 119.5 0 L 119.5 400" stroke-opacity="0.12" stroke-miterlimit="10" stroke-dasharray=""/><path fill="none" stroke="rgb(0,0,0)" class="dcg-svg-minor-gridline" paint-order="fill stroke markers" d=" M 149.5 0 L 149.5 400" stroke-opacity="0.12" stroke-miterlimit="10" stroke-dasharray=""/><path fill="none" stroke="rgb(0,0,0)" class="dcg-svg-minor-gridline" paint-order="fill stroke markers" d=" M 179.5 0 L 179.5 400" stroke-opacity="0.12" stroke-miterlimit="10" stroke-dasharray=""/><path fill="none" stroke="rgb(0,0,0)" class="dcg-svg-minor-gridline" paint-order="fill stroke markers" d=" M 209.5 0 L 209.5 400" stroke-opacity="0.12" stroke-miterlimit="10" stroke-dasharray=""/><path fill="none" stroke="rgb(0,0,0)" class="dcg-svg-minor-gridline" paint-order="fill stroke markers" d=" M 239.5 0 L 239.5 400" stroke-opacity="0.12" stroke-miterlimit="10" stroke-dasharray=""/><path fill="none" stroke="rgb(0,0,0)" class="dcg-svg-minor-gridline" paint-order="fill stroke markers" d=" M 269.5 0 L 269.5 400" stroke-opacity="0.12" stroke-miterlimit="10" stroke-dasharray=""/><path fill="none" stroke="rgb(0,0,0)" class="dcg-svg-minor-gridline" paint-order="fill stroke markers" d=" M 329.5 0 L 329.5 400" stroke-opacity="0.12" stroke-miterlimit="10" stroke-dasharray=""/><path fill="none" stroke="rgb(0,0,0)" class="dcg-svg-minor-gridline" paint-order="fill stroke markers" d=" M 359.5 0 L 359.5 400" stroke-opacity="0.12" stroke-miterlimit="10" stroke-dasharray=""/><path fill="none" stroke="rgb(0,0,0)" class="dcg-svg-minor-gridline" paint-order="fill stroke markers" d=" M 389.5 0 L 389.5 400" stroke-opacity="0.12" stroke-miterlimit="10" stroke-dasharray=""/><path fill="none" stroke="rgb(0,0,0)" class="dcg-svg-minor-gridline" paint-order="fill stroke markers" d=" M 419.5 0 L 419.5 400" stroke-opacity="0.12" stroke-miterlimit="10" stroke-dasharray=""/><path fill="none" stroke="rgb(0,0,0)" class="dcg-svg-minor-gridline" paint-order="fill stroke markers" d=" M 449.5 0 L 449.5 400" stroke-opacity="0.12" stroke-miterlimit="10" stroke-dasharray=""/><path fill="none" stroke="rgb(0,0,0)" class="dcg-svg-minor-gridline" paint-order="fill stroke markers" d=" M 479.5 0 L 479.5 400" stroke-opacity="0.12" stroke-miterlimit="10" stroke-dasharray=""/><path fill="none" stroke="rgb(0,0,0)" class="dcg-svg-minor-gridline" paint-order="fill stroke markers" d=" M 509.5 0 L 509.5 400" stroke-opacity="0.12" stroke-miterlimit="10" stroke-dasharray=""/><path fill="none" stroke="rgb(0,0,0)" class="dcg-svg-minor-gridline" paint-order="fill stroke markers" d=" M 539.5 0 L 539.5 400" stroke-opacity="0.12" stroke-miterlimit="10" stroke-dasharray=""/><path fill="none" stroke="rgb(0,0,0)" class="dcg-svg-minor-gridline" paint-order="fill stroke markers" d=" M 569.5 0 L 569.5 400" stroke-opacity="0.12" stroke-miterlimit="10" stroke-dasharray=""/><path fill="none" stroke="rgb(0,0,0)" class="dcg-svg-minor-gridline" paint-order="fill stroke markers" d=" M 0 379.5 L 600 379.5" stroke-opacity="0.12" stroke-miterlimit="10" stroke-dasharray=""/><path fill="none" stroke="rgb(0,0,0)" class="dcg-svg-minor-gridline" paint-order="fill stroke markers" d=" M 0 359.5 L 600 359.5" stroke-opacity="0.12" stroke-miterlimit="10" stroke-dasharray=""/><path fill="none" stroke="rgb(0,0,0)" class="dcg-svg-minor-gridline" paint-order="fill stroke markers" d=" M 0 339.5 L 600 339.5" stroke-opacity="0.12" stroke-miterlimit="10" stroke-dasharray=""/><path fill="none" stroke="rgb(0,0,0)" class="dcg-svg-minor-gridline" paint-order="fill stroke markers" d=" M 0 319.5 L 600 319.5" stroke-opacity="0.12" stroke-miterlimit="10" stroke-dasharray=""/><path fill="none" stroke="rgb(0,0,0)" class="dcg-svg-minor-gridline" paint-order="fill stroke markers" d=" M 0 299.5 L 600 299.5" stroke-opacity="0.12" stroke-miterlimit="10" stroke-dasharray=""/><path fill="none" stroke="rgb(0,0,0)" class="dcg-svg-minor-gridline" paint-order="fill stroke markers" d=" M 0 279.5 L 600 279.5" stroke-opacity="0.12" stroke-miterlimit="10" stroke-dasharray=""/><path fill="none" stroke="rgb(0,0,0)" class="dcg-svg-minor-gridline" paint-order="fill stroke markers" d=" M 0 259.5 L 600 259.5" stroke-opacity="0.12" stroke-miterlimit="10" stroke-dasharray=""/><path fill="none" stroke="rgb(0,0,0)" class="dcg-svg-minor-gridline" paint-order="fill stroke markers" d=" M 0 239.5 L 600 239.5" stroke-opacity="0.12" stroke-miterlimit="10" stroke-dasharray=""/><path fill="none" stroke="rgb(0,0,0)" class="dcg-svg-minor-gridline" paint-order="fill stroke markers" d=" M 0 219.5 L 600 219.5" stroke-opacity="0.12" stroke-miterlimit="10" stroke-dasharray=""/><path fill="none" stroke="rgb(0,0,0)" class="dcg-svg-minor-gridline" paint-order="fill stroke markers" d=" M 0 179.5 L 600 179.5" stroke-opacity="0.12" stroke-miterlimit="10" stroke-dasharray=""/><path fill="none" stroke="rgb(0,0,0)" class="dcg-svg-minor-gridline" paint-order="fill stroke markers" d=" M 0 159.5 L 600 159.5" stroke-opacity="0.12" stroke-miterlimit="10" stroke-dasharray=""/><path fill="none" stroke="rgb(0,0,0)" class="dcg-svg-minor-gridline" paint-order="fill stroke markers" d=" M 0 139.5 L 600 139.5" stroke-opacity="0.12" stroke-miterlimit="10" stroke-dasharray=""/><path fill="none" stroke="rgb(0,0,0)" class="dcg-svg-minor-gridline" paint-order="fill stroke markers" d=" M 0 119.5 L 600 119.5" stroke-opacity="0.12" stroke-miterlimit="10" stroke-dasharray=""/><path fill="none" stroke="rgb(0,0,0)" class="dcg-svg-minor-gridline" paint-order="fill stroke markers" d=" M 0 99.5 L 600 99.5" stroke-opacity="0.12" stroke-miterlimit="10" stroke-dasharray=""/><path fill="none" stroke="rgb(0,0,0)" class="dcg-svg-minor-gridline" paint-order="fill stroke markers" d=" M 0 79.5 L 600 79.5" stroke-opacity="0.12" stroke-miterlimit="10" stroke-dasharray=""/><path fill="none" stroke="rgb(0,0,0)" class="dcg-svg-minor-gridline" paint-order="fill stroke markers" d=" M 0 59.5 L 600 59.5" stroke-opacity="0.12" stroke-miterlimit="10" stroke-dasharray=""/><path fill="none" stroke="rgb(0,0,0)" class="dcg-svg-minor-gridline" paint-order="fill stroke markers" d=" M 0 39.5 L 600 39.5" stroke-opacity="0.12" stroke-miterlimit="10" stroke-dasharray=""/><path fill="none" stroke="rgb(0,0,0)" class="dcg-svg-minor-gridline" paint-order="fill stroke markers" d=" M 0 19.5 L 600 19.5" stroke-opacity="0.12" stroke-miterlimit="10" stroke-dasharray=""/><path fill="none" stroke="rgb(0,0,0)" class="dcg-svg-minor-gridline" paint-order="fill stroke markers" d=" M 0 -0.5 L 600 -0.5" stroke-opacity="0.12" stroke-miterlimit="10" stroke-dasharray=""/><path fill="none" stroke="rgb(0,0,0)" class="dcg-svg-major-gridline" paint-order="fill stroke markers" d=" M -0.5 0 L -0.5 400" stroke-opacity="0.31818181818181823" stroke-miterlimit="10" stroke-dasharray=""/><path fill="none" stroke="rgb(0,0,0)" class="dcg-svg-major-gridline" paint-order="fill stroke markers" d=" M 149.5 0 L 149.5 400" stroke-opacity="0.31818181818181823" stroke-miterlimit="10" stroke-dasharray=""/><path fill="none" stroke="rgb(0,0,0)" class="dcg-svg-major-gridline" paint-order="fill stroke markers" d=" M 449.5 0 L 449.5 400" stroke-opacity="0.31818181818181823" stroke-miterlimit="10" stroke-dasharray=""/><path fill="none" stroke="rgb(0,0,0)" class="dcg-svg-major-gridline" paint-order="fill stroke markers" d=" M 0 299.5 L 600 299.5" stroke-opacity="0.31818181818181823" stroke-miterlimit="10" stroke-dasharray=""/><path fill="none" stroke="rgb(0,0,0)" class="dcg-svg-major-gridline" paint-order="fill stroke markers" d=" M 0 99.5 L 600 99.5" stroke-opacity="0.31818181818181823" stroke-miterlimit="10" stroke-dasharray=""/><path fill="none" stroke="rgb(0,0,0)" class="dcg-svg-major-gridline" paint-order="fill stroke markers" d=" M 0 -0.5 L 600 -0.5" stroke-opacity="0.31818181818181823" stroke-miterlimit="10" stroke-dasharray=""/></g></g><g id="axis-85947eed"><g id="yaxis-85947eed"><title>Y axis</title><path fill="none" stroke="rgb(0,0,0)" class="dcg-svg-axis-line" paint-order="fill stroke markers" d=" M 299.75 0 L 299.75 400" stroke-opacity="0.9" stroke-miterlimit="10" stroke-width="1.5" stroke-dasharray=""/></g><g id="xaxis-85947eed"><title>X axis</title><path fill="none" stroke="rgb(0,0,0)" class="dcg-svg-axis-line" paint-order="fill stroke markers" d=" M 0 199.75 L 600 199.75" stroke-opacity="0.9" stroke-miterlimit="10" stroke-width="1.5" stroke-dasharray=""/></g><g><g class="dcg-svg-axis-value"><text fill="none" stroke="#ffffff" font-family="Arial" font-size="14px" font-style="normal" font-weight="normal" text-decoration="normal" x="291.10693359375" y="215.808" text-anchor="middle" stroke-miterlimit="2" stroke-width="3" stroke-dasharray="">0</text><text fill="#000000" stroke="none" font-family="Arial" font-size="14px" font-style="normal" font-weight="normal" text-decoration="normal" x="291.10693359375" y="215.808" text-anchor="middle">0</text></g><g class="dcg-svg-axis-value dcg-svg-offcenter-axis-value"><text fill="none" stroke="#ffffff" font-family="Arial" font-size="14px" font-style="normal" font-weight="normal" text-decoration="normal" x="13.1171875" y="215.808" text-anchor="middle" stroke-miterlimit="2" stroke-width="3" stroke-dasharray="">-10</text><text fill="#000000" stroke="none" font-family="Arial" font-size="14px" font-style="normal" font-weight="normal" text-decoration="normal" x="13.1171875" y="215.808" text-anchor="middle">-10</text></g><g class="dcg-svg-axis-value"><text fill="none" stroke="#ffffff" font-family="Arial" font-size="14px" font-style="normal" font-weight="normal" text-decoration="normal" x="147.6689453125" y="215.808" text-anchor="middle" stroke-miterlimit="2" stroke-width="3" stroke-dasharray="">-5</text><text fill="#000000" stroke="none" font-family="Arial" font-size="14px" font-style="normal" font-weight="normal" text-decoration="normal" x="147.6689453125" y="215.808" text-anchor="middle">-5</text></g><g class="dcg-svg-axis-value"><text fill="none" stroke="#ffffff" font-family="Arial" font-size="14px" font-style="normal" font-weight="normal" text-decoration="normal" x="450" y="215.808" text-anchor="middle" stroke-miterlimit="2" stroke-width="3" stroke-dasharray="">5</text><text fill="#000000" stroke="none" font-family="Arial" font-size="14px" font-style="normal" font-weight="normal" text-decoration="normal" x="450" y="215.808" text-anchor="middle">5</text></g><g class="dcg-svg-axis-value dcg-svg-offcenter-axis-value"><text fill="none" stroke="#ffffff" font-family="Arial" font-size="14px" font-style="normal" font-weight="normal" text-decoration="normal" x="589.2138671875" y="215.808" text-anchor="middle" stroke-miterlimit="2" stroke-width="3" stroke-dasharray="">10</text><text fill="#000000" stroke="none" font-family="Arial" font-size="14px" font-style="normal" font-weight="normal" text-decoration="normal" x="589.2138671875" y="215.808" text-anchor="middle">10</text></g><g class="dcg-svg-axis-value dcg-svg-offcenter-axis-value"><text fill="none" stroke="#ffffff" font-family="Arial" font-size="14px" font-style="normal" font-weight="normal" text-decoration="normal" x="288.77587890625" y="393.808" text-anchor="middle" stroke-miterlimit="2" stroke-width="3" stroke-dasharray="">-2</text><text fill="#000000" stroke="none" font-family="Arial" font-size="14px" font-style="normal" font-weight="normal" text-decoration="normal" x="288.77587890625" y="393.808" text-anchor="middle">-2</text></g><g class="dcg-svg-axis-value"><text fill="none" stroke="#ffffff" font-family="Arial" font-size="14px" font-style="normal" font-weight="normal" text-decoration="normal" x="288.77587890625" y="303.808" text-anchor="middle" stroke-miterlimit="2" stroke-width="3" stroke-dasharray="">-1</text><text fill="#000000" stroke="none" font-family="Arial" font-size="14px" font-style="normal" font-weight="normal" text-decoration="normal" x="288.77587890625" y="303.808" text-anchor="middle">-1</text></g><g class="dcg-svg-axis-value"><text fill="none" stroke="#ffffff" font-family="Arial" font-size="14px" font-style="normal" font-weight="normal" text-decoration="normal" x="291.10693359375" y="103.808" text-anchor="middle" stroke-miterlimit="2" stroke-width="3" stroke-dasharray="">1</text><text fill="#000000" stroke="none" font-family="Arial" font-size="14px" font-style="normal" font-weight="normal" text-decoration="normal" x="291.10693359375" y="103.808" text-anchor="middle">1</text></g><g class="dcg-svg-axis-value dcg-svg-offcenter-axis-value"><text fill="none" stroke="#ffffff" font-family="Arial" font-size="14px" font-style="normal" font-weight="normal" text-decoration="normal" x="291.10693359375" y="13.808" text-anchor="middle" stroke-miterlimit="2" stroke-width="3" stroke-dasharray="">2</text><text fill="#000000" stroke="none" font-family="Arial" font-size="14px" font-style="normal" font-weight="normal" text-decoration="normal" x="291.10693359375" y="13.808" text-anchor="middle">2</text></g></g></g></g><g id="expressions-85947eed"><g id="sketch-85947eed"><title>Expression 1</title><path fill="#2d70b3" stroke="none" paint-order="stroke fill markers" d="" fill-opacity="0.4"/><g><path fill="none" stroke="#2d70b3" class="dcg-svg-curve" paint-order="fill stroke markers" d=" M -0.5 162.08487694287805 L -0.5 162.08487694287805 L 4.1875 171.93030344708384 L 9.900390625 184.32272364456514 L 19.861328125 206.393787798794 L 27.625 223.41774649574344 L 32.751953125 234.30131448568577 L 37.146484375 243.27612830959836 L 41.1015625 250.99915634495557 L 44.763671875 257.7968931444889 L 48.1328125 263.7110256885561 L 51.35546875 269.0318086361367 L 54.431640625 273.77858803203253 L 57.361328125 277.97706120693294 L 60.14453125 281.65788053685696 L 62.78125 284.85537664142083 L 65.41796875 287.75991214738195 L 67.908203125 290.22508813147897 L 70.3984375 292.41250265597347 L 72.888671875 294.31545879211507 L 75.232421875 295.84139570856735 L 77.576171875 297.10604893601607 L 79.919921875 298.1059886584601 L 82.263671875 298.8385029789257 L 84.607421875 299.3016052742954 L 86.951171875 299.4940395831494 L 89.294921875 299.4152840120095 L 91.638671875 299.0655521507455 L 93.982421875 298.44579249330627 L 96.326171875 297.5576858653475 L 98.669921875 296.40364086573015 L 101.013671875 294.98678733425527 L 103.357421875 293.31096786334916 L 105.84765625 291.2517556249778 L 108.337890625 288.9116387097595 L 110.828125 286.29778155592595 L 113.46484375 283.2407075797697 L 116.1015625 279.8962149454656 L 118.884765625 276.0668021064172 L 121.814453125 271.71981688191386 L 124.890625 266.826498888683 L 128.11328125 261.36325925596657 L 131.482421875 255.31307457596344 L 135.14453125 248.38326243864242 L 139.099609375 240.5370646099104 L 143.494140625 231.450230976478 L 148.62109375 220.47037174974776 L 155.505859375 205.32441566341717 L 168.8359375 175.92922046488908 L 174.109375 164.72836929833477 L 178.50390625 155.75234018473063 L 182.458984375 148.02798605933833 L 186.12109375 141.22883431992375 L 189.490234375 135.31324938884381 L 192.712890625 129.99094981503566 L 195.7890625 125.24261377827997 L 198.71875 121.04256590010323 L 201.501953125 117.36017346697474 L 204.138671875 114.1611232685899 L 206.775390625 111.25497703706765 L 209.265625 108.788232792325 L 211.755859375 106.59920922420741 L 214.24609375 104.69460818766919 L 216.58984375 103.16709488354519 L 218.93359375 101.90084224142572 L 221.27734375 100.8992844150211 L 223.62109375 100.16513768970088 L 225.96484375 99.70039311576329 L 228.30859375 99.5063111085866 L 230.65234375 99.58341803030669 L 232.99609375 99.93150476229061 L 235.33984375 100.54962727227945 L 237.68359375 101.43610917466049 L 240.02734375 102.58854627692665 L 242.37109375 104.00381309999176 L 244.71484375 105.67807135467865 L 247.205078125 107.73565746730128 L 249.6953125 110.07418679250503 L 252.185546875 112.68649975258018 L 254.822265625 115.74199125213107 L 257.458984375 119.08496079168447 L 260.2421875 122.91283611459892 L 263.171875 127.2582871282932 L 266.248046875 132.1500941600545 L 269.470703125 137.61186826639783 L 272.83984375 143.66065725204325 L 276.501953125 150.58911949717267 L 280.45703125 158.4340650103051 L 284.8515625 167.51976893876645 L 289.978515625 178.49867209685362 L 296.86328125 193.64397718577604 L 310.33984375 223.35625719716745 L 315.466796875 234.24194343202822 L 319.861328125 243.21918693553894 L 323.81640625 250.94486637665295 L 327.478515625 257.7454323743808 L 330.84765625 263.66246909947677 L 334.0703125 268.9862847659888 L 337.146484375 273.7361769676162 L 340.076171875 277.9377991280434 L 342.859375 281.621764295242 L 345.49609375 284.82236826676507 L 348.1328125 287.73012493252736 L 350.623046875 290.1984371906414 L 353.11328125 292.3890695829477 L 355.603515625 294.29531532895936 L 357.947265625 295.8244048676323 L 360.291015625 297.09225679748954 L 362.634765625 298.09543262745535 L 364.978515625 298.83121168403704 L 367.322265625 299.29759848995525 L 369.666015625 299.4933281759991 L 372.009765625 299.4178699114283 L 374.353515625 299.0714283436178 L 376.697265625 298.45494304304185 L 379.041015625 297.57008595510223 L 381.384765625 296.41925686571113 L 383.728515625 295.00557689292657 L 386.072265625 293.33288002229176 L 388.5625 291.2769202416765 L 391.052734375 288.93997874090894 L 393.54296875 286.3292102364585 L 396.1796875 283.2753015198049 L 398.81640625 279.93385541011185 L 401.599609375 276.1075179870496 L 404.529296875 271.76360161976584 L 407.60546875 266.8733060398441 L 410.828125 261.4129980073791 L 414.197265625 255.36560532244076 L 417.859375 248.4384936640336 L 421.814453125 240.59480125290247 L 426.208984375 231.51022794019136 L 431.3359375 220.53228195130654 L 438.220703125 205.3876293780048 L 451.697265625 175.67449104079964 L 456.82421875 164.78774732024917 L 461.21875 155.80929032673873 L 465.173828125 148.08228634434903 L 468.8359375 141.28030677001783 L 472.205078125 135.361818844048 L 475.427734375 130.03648761850798 L 478.50390625 125.28503972815281 L 481.43359375 121.08184370665879 L 484.216796875 117.39630617468225 L 486.853515625 114.19414875085943 L 489.490234375 111.28478194233963 L 491.98046875 108.8149019182855 L 494.470703125 106.62266092138645 L 496.9609375 104.71477065698923 L 499.3046875 103.18410503704791 L 501.6484375 101.91465394654654 L 503.9921875 100.90986021358083 L 506.3359375 100.1724488994945 L 508.6796875 99.70441990834786 L 511.0234375 99.50704256305727 L 513.3671875 99.58085216291465 L 515.7109375 99.92564853182336 L 518.0546875 100.54049656118804 L 520.3984375 101.42372874598533 L 522.7421875 102.57294970713878 L 525.0859375 103.98504268793113 L 527.4296875 105.65617800683748 L 529.919921875 107.71051124934945 L 532.41015625 110.04586469141867 L 534.900390625 112.65508847853278 L 537.537109375 115.70741410615585 L 540.173828125 119.04733645103147 L 542.95703125 122.87213559067771 L 545.88671875 127.21451687610318 L 548.962890625 132.10330051396699 L 552.185546875 137.56214192519553 L 555.5546875 143.60813770321718 L 559.0703125 150.25033220300216 L 563.025390625 158.07983345117975 L 567.419921875 167.15158879513854 L 572.546875 178.11866037971447 L 579.28515625 192.93099455673266 L 593.201171875 223.61080292846114 L 598.328125 234.48768979273586 L 599.5 236.91512305712192" stroke-linecap="round" stroke-linejoin="round" stroke-miterlimit="10" stroke-width="2.5" stroke-opacity="0.9" stroke-dasharray=""/></g></g></g><g id="labels-85947eed"/></g></svg>