<svg version="1.1" xmlns="http://www.w3.org/2000/svg" xmlns:xlink="http://www.w3.org/1999/xlink" width="600" height="400"><defs/><g transform="scale(1,1)"><g id="background-8d371821"><rect fill="white" stroke="none" x="0" y="0" width="600" height="400" class="dcg-svg-background"/></g><g id="background-images-8d371821"/><g id="graphpaper-8d371821"><g id="grid-8d371821"><g><path fill="none" stroke="rgb(0,0,0)" class="dcg-svg-minor-gridline" paint-order="fill stroke markers" d=" M -0.5 0 L -0.5 400" stroke-opacity="0.12" stroke-miterlimit="10" stroke-dasharray=""/><path fill="none" stroke="rgb(0,0,0)" class="dcg-svg-minor-gridline" paint-order="fill stroke markers" d=" M 37.5 0 L 37.5 400" stroke-opacity="0.12" stroke-miterlimit="10" stroke-dasharray=""/><path fill="none" stroke="rgb(0,0,0)" class="dcg-svg-minor-gridline" paint-order="fill stroke markers" d=" M 112.5 0 L 112.5 400" stroke-opacity="0.12" stroke-miterlimit="10" stroke-dasharray=""/><path fill="none" stroke="rgb(0,0,0)" class="dcg-svg-minor-gridline" paint-order="fill stroke markers" d=" M 149.5 0 L 149.5 400" stroke-opacity="0.12" stroke-miterlimit="10" stroke-dasharray=""/><path fill="none" stroke="rgb(0,0,0)" class="dcg-svg-minor-gridline" paint-order="fill stroke markers" d=" M 187.5 0 L 187.5 400" stroke-opacity="0.12" stroke-miterlimit="10" stroke-dasharray=""/><path fill="none" stroke="rgb(0,0,0)" class="dcg-svg-minor-gridline" paint-order="fill stroke markers" d=" M 224.5 0 L 224.5 400" stroke-opacity="0.12" stroke-miterlimit="10" stroke-dasharray=""/><path fill="none" stroke="rgb(0,0,0)" class="dcg-svg-minor-gridline" paint-order="fill stroke markers" d=" M 262.5 0 L 262.5 400" stroke-opacity="0.12" stroke-miterlimit="10" stroke-dasharray=""/><path fill="none" stroke="rgb(0,0,0)" class="dcg-svg-minor-gridline" paint-order="fill stroke markers" d=" M 299.5 0 L 299.5 400" stroke-opacity="0.12" stroke-miterlimit="10" stroke-dasharray=""/><path fill="none" stroke="rgb(0,0,0)" class="dcg-svg-minor-gridline" paint-order="fill stroke markers" d=" M 337.5 0 L 337.5 400" stroke-opacity="0.12" stroke-miterlimit="10" stroke-dasharray=""/><path fill="none" stroke="rgb(0,0,0)" class="dcg-svg-minor-gridline" paint-order="fill stroke markers" d=" M 374.5 0 L 374.5 400" stroke-opacity="0.12" stroke-miterlimit="10" stroke-dasharray=""/><path fill="none" stroke="rgb(0,0,0)" class="dcg-svg-minor-gridline" paint-order="fill stroke markers" d=" M 412.5 0 L 412.5 400" stroke-opacity="0.12" stroke-miterlimit="10" stroke-dasharray=""/><path fill="none" stroke="rgb(0,0,0)" class="dcg-svg-minor-gridline" paint-order="fill stroke markers" d=" M 449.5 0 L 449.5 400" stroke-opacity="0.12" stroke-miterlimit="10" stroke-dasharray=""/><path fill="none" stroke="rgb(0,0,0)" class="dcg-svg-minor-gridline" paint-order="fill stroke markers" d=" M 487.5 0 L 487.5 400" stroke-opacity="0.12" stroke-miterlimit="10" stroke-dasharray=""/><path fill="none" stroke="rgb(0,0,0)" class="dcg-svg-minor-gridline" paint-order="fill stroke markers" d=" M 524.5 0 L 524.5 400" stroke-opacity="0.12" stroke-miterlimit="10" stroke-dasharray=""/><path fill="none" stroke="rgb(0,0,0)" class="dcg-svg-minor-gridline" paint-order="fill stroke markers" d=" M 562.5 0 L 562.5 400" stroke-opacity="0.12" stroke-miterlimit="10" stroke-dasharray=""/><path fill="none" stroke="rgb(0,0,0)" class="dcg-svg-minor-gridline" paint-order="fill stroke markers" d=" M 0 387.5 L 600 387.5" stroke-opacity="0.12" stroke-miterlimit="10" stroke-dasharray=""/><path fill="none" stroke="rgb(0,0,0)" class="dcg-svg-minor-gridline" paint-order="fill stroke markers" d=" M 0 312.5 L 600 312.5" stroke-opacity="0.12" stroke-miterlimit="10" stroke-dasharray=""/><path fill="none" stroke="rgb(0,0,0)" class="dcg-svg-minor-gridline" paint-order="fill stroke markers" d=" M 0 274.5 L 600 274.5" stroke-opacity="0.12" stroke-miterlimit="10" stroke-dasharray=""/><path fill="none" stroke="rgb(0,0,0)" class="dcg-svg-minor-gridline" paint-order="fill stroke markers" d=" M 0 237.5 L 600 237.5" stroke-opacity="0.12" stroke-miterlimit="10" stroke-dasharray=""/><path fill="none" stroke="rgb(0,0,0)" class="dcg-svg-minor-gridline" paint-order="fill stroke markers" d=" M 0 199.5 L 600 199.5" stroke-opacity="0.12" stroke-miterlimit="10" stroke-dasharray=""/><path fill="none" stroke="rgb(0,0,0)" class="dcg-svg-minor-gridline" paint-order="fill stroke markers" d=" M 0 162.5 L 600 162.5" stroke-opacity="0.12" stroke-miterlimit="10" stroke-dasharray=""/><path fill="none" stroke="rgb(0,0,0)" class="dcg-svg-minor-gridline" paint-order="fill stroke markers" d=" M 0 124.5 L 600 124.5" stroke-opacity="0.12" stroke-miterlimit="10" stroke-dasharray=""/><path fill="none" stroke="rgb(0,0,0)" class="dcg-svg-minor-gridline" paint-order="fill stroke markers" d=" M 0 87.5 L 600 87.5" stroke-opacity="0.12" stroke-miterlimit="10" stroke-dasharray=""/><path fill="none" stroke="rgb(0,0,0)" class="dcg-svg-minor-gridline" paint-order="fill stroke markers" d=" M 0 49.5 L 600 49.5" stroke-opacity="0.12" stroke-miterlimit="10" stroke-dasharray=""/><path fill="none" stroke="rgb(0,0,0)" class="dcg-svg-minor-gridline" paint-order="fill stroke markers" d=" M 0 12.5 L 600 12.5" stroke-opacity="0.12" stroke-miterlimit="10" stroke-dasharray=""/><path fill="none" stroke="rgb(0,0,0)" class="dcg-svg-major-gridline" paint-order="fill stroke markers" d=" M 224.5 0 L 224.5 400" stroke-opacity="0.31818181818181823" stroke-miterlimit="10" stroke-dasharray=""/><path fill="none" stroke="rgb(0,0,0)" class="dcg-svg-major-gridline" paint-order="fill stroke markers" d=" M 374.5 0 L 374.5 400" stroke-opacity="0.31818181818181823" stroke-miterlimit="10" stroke-dasharray=""/><path fill="none" stroke="rgb(0,0,0)" class="dcg-svg-major-gridline" paint-order="fill stroke markers" d=" M 524.5 0 L 524.5 400" stroke-opacity="0.31818181818181823" stroke-miterlimit="10" stroke-dasharray=""/><path fill="none" stroke="rgb(0,0,0)" class="dcg-svg-major-gridline" paint-order="fill stroke markers" d=" M 0 199.5 L 600 199.5" stroke-opacity="0.31818181818181823" stroke-miterlimit="10" stroke-dasharray=""/><path fill="none" stroke="rgb(0,0,0)" class="dcg-svg-major-gridline" paint-order="fill stroke markers" d=" M 0 49.5 L 600 49.5" stroke-opacity="0.31818181818181823" stroke-miterlimit="10" stroke-dasharray=""/></g></g><g id="axis-8d371821"><g id="yaxis-8d371821"><title>Y axis</title><path fill="none" stroke="rgb(0,0,0)" class="dcg-svg-axis-line" paint-order="fill stroke markers" d=" M 74.75 0 L 74.75 400" stroke-opacity="0.9" stroke-miterlimit="10" stroke-width="1.5" stroke-dasharray=""/></g><g id="xaxis-8d371821"><title>X axis</title><path fill="none" stroke="rgb(0,0,0)" class="dcg-svg-axis-line" paint-order="fill stroke markers" d=" M 0 349.75 L 600 349.75" stroke-opacity="0.9" stroke-miterlimit="10" stroke-width="1.5" stroke-dasharray=""/></g><g><g class="dcg-svg-axis-value"><text fill="none" stroke="#ffffff" font-family="Arial" font-size="14px" font-style="normal" font-weight="normal" text-decoration="normal" x="66.10693359375" y="365.808" text-anchor="middle" stroke-miterlimit="2" stroke-width="3" stroke-dasharray="">0</text><text fill="#000000" stroke="none" font-family="Arial" font-size="14px" font-style="normal" font-weight="normal" text-decoration="normal" x="66.10693359375" y="365.808" text-anchor="middle">0</text></g><g class="dcg-svg-axis-value"><text fill="none" stroke="#ffffff" font-family="Arial" font-size="14px" font-style="normal" font-weight="normal" text-decoration="normal" x="225" y="365.808" text-anchor="middle" stroke-miterlimit="2" stroke-width="3" stroke-dasharray="">2</text><text fill="#000000" stroke="none" font-family="Arial" font-size="14px" font-style="normal" font-weight="normal" text-decoration="normal" x="225" y="365.808" text-anchor="middle">2</text></g><g class="dcg-svg-axis-value"><text fill="none" stroke="#ffffff" font-family="Arial" font-size="14px" font-style="normal" font-weight="normal" text-decoration="normal" x="375" y="365.808" text-anchor="middle" stroke-miterlimit="2" stroke-width="3" stroke-dasharray="">4</text><text fill="#000000" stroke="none" font-family="Arial" font-size="14px" font-style="normal" font-weight="normal" text-decoration="normal" x="375" y="365.808" text-anchor="middle">4</text></g><g class="dcg-svg-axis-value"><text fill="none" stroke="#ffffff" font-family="Arial" font-size="14px" font-style="normal" font-weight="normal" text-decoration="normal" x="525" y="365.808" text-anchor="middle" stroke-miterlimit="2" stroke-width="3" stroke-dasharray="">6</text><text fill="#000000" stroke="none" font-family="Arial" font-size="14px" font-style="normal" font-weight="normal" text-decoration="normal" x="525" y="365.808" text-anchor="middle">6</text></g><g class="dcg-svg-axis-value"><text fill="none" stroke="#ffffff" font-family="Arial" font-size="14px" font-style="normal" font-weight="normal" text-decoration="normal" x="66.10693359375" y="203.80800000000002" text-anchor="middle" stroke-miterlimit="2" stroke-width="3" stroke-dasharray="">2</text><text fill="#000000" stroke="none" font-family="Arial" font-size="14px" font-style="normal" font-weight="normal" text-decoration="normal" x="66.10693359375" y="203.80800000000002" text-anchor="middle">2</text></g><g class="dcg-svg-axis-value"><text fill="none" stroke="#ffffff" font-family="Arial" font-size="14px" font-style="normal" font-weight="normal" text-decoration="normal" x="66.10693359375" y="53.80800000000006" text-anchor="middle" stroke-miterlimit="2" stroke-width="3" stroke-dasharray="">4</text><text fill="#000000" stroke="none" font-family="Arial" font-size="14px" font-style="normal" font-weight="normal" text-decoration="normal" x="66.10693359375" y="53.80800000000006" text-anchor="middle">4</text></g></g></g></g><g id="expressions-8d371821"><g id="sketch-8d371821"><title>Expression 1</title><path fill="#2d70b3" stroke="none" paint-order="stroke fill markers" d="" fill-opacity="0.4"/><g><path fill="none" stroke="#2d70b3" class="dcg-svg-curve" paint-order="fill stroke markers" d=" M 2.6263564483608555 -5.5 L 2.6263564483608555 -5.5 L 4.48046875 6.359038125252994 L 9.314453125 35.36667221578972 L 14.001953125 61.74368032201437 L 18.689453125 86.44046924993336 L 23.23046875 108.80471479859472 L 27.771484375 129.67339426410695 L 32.166015625 148.48259432762265 L 36.560546875 165.96489455989158 L 40.80859375 181.63726053616492 L 44.91015625 195.6555970167756 L 49.01171875 208.60973863638972 L 52.966796875 220.1210100551849 L 56.921875 230.69671333024942 L 60.73046875 240.0212560879286 L 64.5390625 248.5265741510735 L 68.34765625 256.23643191774624 L 72.009765625 262.921775040115 L 75.671875 268.9149348919266 L 79.333984375 274.2372396394517 L 82.849609375 278.7354158809123 L 86.365234375 282.6541997772366 L 90.02734375 286.1409476435139 L 93.54296875 288.9369177574644 L 96.765625 291.04263006378557 L 99.841796875 292.6593458967028 L 102.91796875 293.9059821697093 L 105.84765625 294.7621943594745 L 108.77734375 295.3083081485771 L 111.70703125 295.5574894229287 L 114.783203125 295.514627178069 L 117.859375 295.1763939105969 L 121.08203125 294.52479821591146 L 124.451171875 293.54217311003214 L 128.11328125 292.15671939425545 L 132.21484375 290.2606277636984 L 136.90234375 287.7277992598428 L 143.0546875 283.99521236490983 L 155.798828125 276.16233471404126 L 159.900390625 274.1021292440391 L 163.26953125 272.7650233925126 L 166.19921875 271.93953194105353 L 168.8359375 271.51657027902934 L 171.1796875 271.4293765191127 L 173.5234375 271.6406294255507 L 175.720703125 272.12873817072966 L 177.91796875 272.91111329310564 L 180.26171875 274.0789772305732 L 182.751953125 275.69917676457595 L 185.53515625 277.96280952170946 L 188.611328125 280.98828756181064 L 192.126953125 285.04212916569986 L 196.08203125 290.21105089358423 L 201.501953125 297.9535613995383 L 212.48828125 313.77361396788837 L 217.322265625 320.00646771840707 L 221.5703125 324.8951692068171 L 225.818359375 329.18497912767856 L 229.919921875 332.75923848267917 L 233.875 335.70464391976145 L 237.830078125 338.19910353632906 L 241.78515625 340.2907917074856 L 245.88671875 342.08840271430876 L 250.28125 343.65593179207985 L 254.96875 344.9874094382978 L 260.095703125 346.1176658739847 L 265.80859375 347.0624518892784 L 272.400390625 347.84281932852105 L 280.310546875 348.46850762799284 L 290.125 348.9371452705346 L 303.455078125 349.2613671381803 L 324.40234375 349.4447749047794 L 373.767578125 349.5006162585368 L 599.5 349.5000000983502" stroke-linecap="round" stroke-linejoin="round" stroke-miterlimit="10" stroke-width="2.5" stroke-opacity="0.9" stroke-dasharray=""/></g></g><g id="sketch-8d371821"><title>Expression 2</title><path fill="#388c46" stroke="none" paint-order="stroke fill markers" d="" fill-opacity="0.4"/><g><path fill="none" stroke="#388c46" class="dcg-svg-curve" paint-order="fill stroke markers" d=" M -0.5 274.4992809731709 L -0.5 274.4992809731709 L 88.5625 274.3495104882309 L 107.458984375 274.03236762907295 L 119.03125 273.56362279459984 L 127.52734375 272.94102471235396 L 134.265625 272.1642673432405 L 139.83203125 271.2380995405723 L 144.666015625 270.14053627459214 L 148.9140625 268.8749386002821 L 152.72265625 267.4307988038714 L 156.23828125 265.7707017006795 L 159.607421875 263.8150797390238 L 162.830078125 261.535785887958 L 165.90625 258.9079196802394 L 168.982421875 255.7473809367243 L 171.912109375 252.1435543369952 L 174.548828125 248.31156762057051 L 177.0390625 244.0912053723421 L 179.529296875 239.19071621738584 L 181.873046875 233.85926348411252 L 184.216796875 227.72279900316045 L 186.560546875 220.65977168023662 L 188.7578125 213.07254632144108 L 190.955078125 204.41612065570675 L 193.15234375 194.53982177662866 L 195.349609375 183.2717437828458 L 197.546875 170.41575560057782 L 199.744140625 155.7480871451586 L 201.94140625 139.01343440062345 L 204.138671875 119.92051562274446 L 206.3359375 98.13700131721299 L 208.533203125 73.28372974466146 L 210.73046875 44.92810726816555 L 212.927734375 12.576578670314518 L 214.00382381894048 -5.5" stroke-linecap="round" stroke-linejoin="round" stroke-miterlimit="10" stroke-width="2.5" stroke-opacity="0.9" stroke-dasharray=""/></g></g></g><g id="labels-8d371821"/></g></svg>