<svg version="1.1" xmlns="http://www.w3.org/2000/svg" xmlns:xlink="http://www.w3.org/1999/xlink" width="600" height="400"><defs/><g transform="scale(1,1)"><g id="background-e816bb5b"><rect fill="white" stroke="none" x="0" y="0" width="600" height="400" class="dcg-svg-background"/></g><g id="background-images-e816bb5b"/><g id="graphpaper-e816bb5b"><g id="grid-e816bb5b"><g><path fill="none" stroke="rgb(0,0,0)" class="dcg-svg-minor-gridline" paint-order="fill stroke markers" d=" M -0.5 0 L -0.5 400" stroke-opacity="0.12" stroke-miterlimit="10" stroke-dasharray=""/><path fill="none" stroke="rgb(0,0,0)" class="dcg-svg-minor-gridline" paint-order="fill stroke markers" d=" M 37.5 0 L 37.5 400" stroke-opacity="0.12" stroke-miterlimit="10" stroke-dasharray=""/><path fill="none" stroke="rgb(0,0,0)" class="dcg-svg-minor-gridline" paint-order="fill stroke markers" d=" M 112.5 0 L 112.5 400" stroke-opacity="0.12" stroke-miterlimit="10" stroke-dasharray=""/><path fill="none" stroke="rgb(0,0,0)" class="dcg-svg-minor-gridline" paint-order="fill stroke markers" d=" M 149.5 0 L 149.5 400" stroke-opacity="0.12" stroke-miterlimit="10" stroke-dasharray=""/><path fill="none" stroke="rgb(0,0,0)" class="dcg-svg-minor-gridline" paint-order="fill stroke markers" d=" M 187.5 0 L 187.5 400" stroke-opacity="0.12" stroke-miterlimit="10" stroke-dasharray=""/><path fill="none" stroke="rgb(0,0,0)" class="dcg-svg-minor-gridline" paint-order="fill stroke markers" d=" M 224.5 0 L 224.5 400" stroke-opacity="0.12" stroke-miterlimit="10" stroke-dasharray=""/><path fill="none" stroke="rgb(0,0,0)" class="dcg-svg-minor-gridline" paint-order="fill stroke markers" d=" M 262.5 0 L 262.5 400" stroke-opacity="0.12" stroke-miterlimit="10" stroke-dasharray=""/><path fill="none" stroke="rgb(0,0,0)" class="dcg-svg-minor-gridline" paint-order="fill stroke markers" d=" M 299.5 0 L 299.5 400" stroke-opacity="0.12" stroke-miterlimit="10" stroke-dasharray=""/><path fill="none" stroke="rgb(0,0,0)" class="dcg-svg-minor-gridline" paint-order="fill stroke markers" d=" M 337.5 0 L 337.5 400" stroke-opacity="0.12" stroke-miterlimit="10" stroke-dasharray=""/><path fill="none" stroke="rgb(0,0,0)" class="dcg-svg-minor-gridline" paint-order="fill stroke markers" d=" M 374.5 0 L 374.5 400" stroke-opacity="0.12" stroke-miterlimit="10" stroke-dasharray=""/><path fill="none" stroke="rgb(0,0,0)" class="dcg-svg-minor-gridline" paint-order="fill stroke markers" d=" M 412.5 0 L 412.5 400" stroke-opacity="0.12" stroke-miterlimit="10" stroke-dasharray=""/><path fill="none" stroke="rgb(0,0,0)" class="dcg-svg-minor-gridline" paint-order="fill stroke markers" d=" M 449.5 0 L 449.5 400" stroke-opacity="0.12" stroke-miterlimit="10" stroke-dasharray=""/><path fill="none" stroke="rgb(0,0,0)" class="dcg-svg-minor-gridline" paint-order="fill stroke markers" d=" M 487.5 0 L 487.5 400" stroke-opacity="0.12" stroke-miterlimit="10" stroke-dasharray=""/><path fill="none" stroke="rgb(0,0,0)" class="dcg-svg-minor-gridline" paint-order="fill stroke markers" d=" M 524.5 0 L 524.5 400" stroke-opacity="0.12" stroke-miterlimit="10" stroke-dasharray=""/><path fill="none" stroke="rgb(0,0,0)" class="dcg-svg-minor-gridline" paint-order="fill stroke markers" d=" M 562.5 0 L 562.5 400" stroke-opacity="0.12" stroke-miterlimit="10" stroke-dasharray=""/><path fill="none" stroke="rgb(0,0,0)" class="dcg-svg-minor-gridline" paint-order="fill stroke markers" d=" M 0 322.5 L 600 322.5" stroke-opacity="0.12" stroke-miterlimit="10" stroke-dasharray=""/><path fill="none" stroke="rgb(0,0,0)" class="dcg-svg-minor-gridline" paint-order="fill stroke markers" d=" M 0 257.5 L 600 257.5" stroke-opacity="0.12" stroke-miterlimit="10" stroke-dasharray=""/><path fill="none" stroke="rgb(0,0,0)" class="dcg-svg-minor-gridline" paint-order="fill stroke markers" d=" M 0 193.5 L 600 193.5" stroke-opacity="0.12" stroke-miterlimit="10" stroke-dasharray=""/><path fill="none" stroke="rgb(0,0,0)" class="dcg-svg-minor-gridline" paint-order="fill stroke markers" d=" M 0 128.5 L 600 128.5" stroke-opacity="0.12" stroke-miterlimit="10" stroke-dasharray=""/><path fill="none" stroke="rgb(0,0,0)" class="dcg-svg-minor-gridline" paint-order="fill stroke markers" d=" M 0 64.5 L 600 64.5" stroke-opacity="0.12" stroke-miterlimit="10" stroke-dasharray=""/><path fill="none" stroke="rgb(0,0,0)" class="dcg-svg-minor-gridline" paint-order="fill stroke markers" d=" M 0 -0.5 L 600 -0.5" stroke-opacity="0.12" stroke-miterlimit="10" stroke-dasharray=""/><path fill="none" stroke="rgb(0,0,0)" class="dcg-svg-major-gridline" paint-order="fill stroke markers" d=" M 224.5 0 L 224.5 400" stroke-opacity="0.31818181818181823" stroke-miterlimit="10" stroke-dasharray=""/><path fill="none" stroke="rgb(0,0,0)" class="dcg-svg-major-gridline" paint-order="fill stroke markers" d=" M 374.5 0 L 374.5 400" stroke-opacity="0.31818181818181823" stroke-miterlimit="10" stroke-dasharray=""/><path fill="none" stroke="rgb(0,0,0)" class="dcg-svg-major-gridline" paint-order="fill stroke markers" d=" M 524.5 0 L 524.5 400" stroke-opacity="0.31818181818181823" stroke-miterlimit="10" stroke-dasharray=""/><path fill="none" stroke="rgb(0,0,0)" class="dcg-svg-major-gridline" paint-order="fill stroke markers" d=" M 0 128.5 L 600 128.5" stroke-opacity="0.31818181818181823" stroke-miterlimit="10" stroke-dasharray=""/></g></g><g id="axis-e816bb5b"><g id="yaxis-e816bb5b"><title>Y axis</title><path fill="none" stroke="rgb(0,0,0)" class="dcg-svg-axis-line" paint-order="fill stroke markers" d=" M 74.75 0 L 74.75 400" stroke-opacity="0.9" stroke-miterlimit="10" stroke-width="1.5" stroke-dasharray=""/></g><g id="xaxis-e816bb5b"><title>X axis</title><path fill="none" stroke="rgb(0,0,0)" class="dcg-svg-axis-line" paint-order="fill stroke markers" d=" M 0 386.75 L 600 386.75" stroke-opacity="0.9" stroke-miterlimit="10" stroke-width="1.5" stroke-dasharray=""/></g><g><g class="dcg-svg-axis-value"><text fill="none" stroke="#ffffff" font-family="Arial" font-size="14px" font-style="normal" font-weight="normal" text-decoration="normal" x="66.10693359375" y="402.90477419354835" text-anchor="middle" stroke-miterlimit="2" stroke-width="3" stroke-dasharray="">0</text><text fill="#000000" stroke="none" font-family="Arial" font-size="14px" font-style="normal" font-weight="normal" text-decoration="normal" x="66.10693359375" y="402.90477419354835" text-anchor="middle">0</text></g><g class="dcg-svg-axis-value"><text fill="none" stroke="#ffffff" font-family="Arial" font-size="14px" font-style="normal" font-weight="normal" text-decoration="normal" x="225" y="393.808" text-anchor="middle" stroke-miterlimit="2" stroke-width="3" stroke-dasharray="">2</text><text fill="rgb(150,150,150)" stroke="none" font-family="Arial" font-size="14px" font-style="normal" font-weight="normal" text-decoration="normal" x="225" y="393.808" text-anchor="middle" fill-opacity="1">2</text></g><g class="dcg-svg-axis-value"><text fill="none" stroke="#ffffff" font-family="Arial" font-size="14px" font-style="normal" font-weight="normal" text-decoration="normal" x="375" y="393.808" text-anchor="middle" stroke-miterlimit="2" stroke-width="3" stroke-dasharray="">4</text><text fill="rgb(150,150,150)" stroke="none" font-family="Arial" font-size="14px" font-style="normal" font-weight="normal" text-decoration="normal" x="375" y="393.808" text-anchor="middle" fill-opacity="1">4</text></g><g class="dcg-svg-axis-value"><text fill="none" stroke="#ffffff" font-family="Arial" font-size="14px" font-style="normal" font-weight="normal" text-decoration="normal" x="525" y="393.808" text-anchor="middle" stroke-miterlimit="2" stroke-width="3" stroke-dasharray="">6</text><text fill="rgb(150,150,150)" stroke="none" font-family="Arial" font-size="14px" font-style="normal" font-weight="normal" text-decoration="normal" x="525" y="393.808" text-anchor="middle" fill-opacity="1">6</text></g><g class="dcg-svg-axis-value"><text fill="none" stroke="#ffffff" font-family="Arial" font-size="14px" font-style="normal" font-weight="normal" text-decoration="normal" x="66.10693359375" y="132.84025806451615" text-anchor="middle" stroke-miterlimit="2" stroke-width="3" stroke-dasharray="">2</text><text fill="#000000" stroke="none" font-family="Arial" font-size="14px" font-style="normal" font-weight="normal" text-decoration="normal" x="66.10693359375" y="132.84025806451615" text-anchor="middle">2</text></g></g></g></g><g id="expressions-e816bb5b"><g id="sketch-e816bb5b"><title>Expression 1</title><path fill="#2d70b3" stroke="none" paint-order="stroke fill markers" d="" fill-opacity="0.4"/><g><path fill="none" stroke="#2d70b3" class="dcg-svg-curve" paint-order="fill stroke markers" d=" M 149.5 244.78367452176786 L 149.5 244.78367452176786 L 152.72265625 253.22336205051334 L 155.798828125 260.4602079078018 L 158.728515625 266.6289120328171 L 161.51171875 271.85301993856814 L 164.1484375 276.2456014534122 L 166.638671875 279.9098928839479 L 168.982421875 282.9399034587749 L 171.326171875 285.57423480129455 L 173.5234375 287.693717487865 L 175.720703125 289.4831001098574 L 177.91796875 290.95115211993004 L 180.115234375 292.1068230396188 L 182.166015625 292.9116906351634 L 184.216796875 293.46006157682336 L 186.4140625 293.7719075127253 L 188.611328125 293.8083330869997 L 190.80859375 293.57972765354083 L 193.005859375 293.09693781042415 L 195.349609375 292.31462569746304 L 197.83984375 291.1970607119111 L 200.330078125 289.80276581228566 L 202.966796875 288.047132568456 L 205.896484375 285.79039284638344 L 209.119140625 282.98102782998257 L 212.78125 279.44449003145746 L 217.322265625 274.6920805839047 L 230.06640625 261.1237840048378 L 233.142578125 258.3133996325748 L 235.779296875 256.2192970688966 L 238.123046875 254.66578887724333 L 240.173828125 253.5880103499846 L 242.078125 252.85502047217267 L 243.8359375 252.43173381338383 L 245.59375 252.27269615791013 L 247.205078125 252.3751998822627 L 248.81640625 252.72862058088225 L 250.427734375 253.34411943394304 L 252.0390625 254.2306844907265 L 253.650390625 255.39480513974246 L 255.408203125 256.98556686229836 L 257.166015625 258.91163044439827 L 259.0703125 261.3718742384421 L 261.12109375 264.4429967293702 L 263.318359375 268.19312601271025 L 265.80859375 272.9695146716676 L 268.73828125 279.2091709232434 L 272.25390625 287.3907067752565 L 277.52734375 300.5080300714603 L 286.31640624999994 322.3732272724065 L 290.564453125 332.088212810139 L 294.22656249999994 339.75014550459645 L 297.44921875000006 345.8783182408888 L 300.525390625 351.17060880265444 L 303.455078125 355.7070772448003 L 306.384765625 359.76756716672554 L 309.16796875 363.20635810627806 L 311.951171875 366.2636089643722 L 314.734375 368.968193155816 L 317.6640625 371.46729403186924 L 320.59375 373.64431887209383 L 323.669921875 375.62100788625065 L 326.892578125 377.39228166564584 L 330.26171875 378.9588796124813 L 333.923828125 380.3783033870688 L 337.87890625 381.6320246511333 L 342.2734375 382.7449735204422 L 347.107421875 383.69587889323265 L 352.673828125 384.5155171040346 L 359.119140625 385.1905642120205 L 366.8828125 385.7298794814216 L 376.697265625 386.13582024770454 L 390.173828125 386.4117541096206 L 411.70703124999994 386.5607929606321 L 467.224609375 386.59833923743514 L 599.5 386.5967816405964" stroke-linecap="round" stroke-linejoin="round" stroke-miterlimit="10" stroke-width="2.5" stroke-opacity="0.9" stroke-dasharray=""/></g></g></g><g id="labels-e816bb5b"/></g></svg>