<svg version="1.1" xmlns="http://www.w3.org/2000/svg" xmlns:xlink="http://www.w3.org/1999/xlink" width="600" height="400"><defs/><g transform="scale(1,1)"><g id="background-49a6d4b1"><rect fill="white" stroke="none" x="0" y="0" width="600" height="400" class="dcg-svg-background"/></g><g id="background-images-49a6d4b1"/><g id="graphpaper-49a6d4b1"><g id="grid-49a6d4b1"><g><path fill="none" stroke="rgb(0,0,0)" class="dcg-svg-minor-gridline" paint-order="fill stroke markers" d=" M -0.5 0 L -0.5 400" stroke-opacity="0.12" stroke-miterlimit="10" stroke-dasharray=""/><path fill="none" stroke="rgb(0,0,0)" class="dcg-svg-minor-gridline" paint-order="fill stroke markers" d=" M 29.5 0 L 29.5 400" stroke-opacity="0.12" stroke-miterlimit="10" stroke-dasharray=""/><path fill="none" stroke="rgb(0,0,0)" class="dcg-svg-minor-gridline" paint-order="fill stroke markers" d=" M 59.5 0 L 59.5 400" stroke-opacity="0.12" stroke-miterlimit="10" stroke-dasharray=""/><path fill="none" stroke="rgb(0,0,0)" class="dcg-svg-minor-gridline" paint-order="fill stroke markers" d=" M 89.5 0 L 89.5 400" stroke-opacity="0.12" stroke-miterlimit="10" stroke-dasharray=""/><path fill="none" stroke="rgb(0,0,0)" class="dcg-svg-minor-gridline" paint-order="fill stroke markers" d=" M 119.5 0 L 119.5 400" stroke-opacity="0.12" stroke-miterlimit="10" stroke-dasharray=""/><path fill="none" stroke="rgb(0,0,0)" class="dcg-svg-minor-gridline" paint-order="fill stroke markers" d=" M 149.5 0 L 149.5 400" stroke-opacity="0.12" stroke-miterlimit="10" stroke-dasharray=""/><path fill="none" stroke="rgb(0,0,0)" class="dcg-svg-minor-gridline" paint-order="fill stroke markers" d=" M 179.5 0 L 179.5 400" stroke-opacity="0.12" stroke-miterlimit="10" stroke-dasharray=""/><path fill="none" stroke="rgb(0,0,0)" class="dcg-svg-minor-gridline" paint-order="fill stroke markers" d=" M 209.5 0 L 209.5 400" stroke-opacity="0.12" stroke-miterlimit="10" stroke-dasharray=""/><path fill="none" stroke="rgb(0,0,0)" class="dcg-svg-minor-gridline" paint-order="fill stroke markers" d=" M 239.5 0 L 239.5 400" stroke-opacity="0.12" stroke-miterlimit="10" stroke-dasharray=""/><path fill="none" stroke="rgb(0,0,0)" class="dcg-svg-minor-gridline" paint-order="fill stroke markers" d=" M 269.5 0 L 269.5 400" stroke-opacity="0.12" stroke-miterlimit="10" stroke-dasharray=""/><path fill="none" stroke="rgb(0,0,0)" class="dcg-svg-minor-gridline" paint-order="fill stroke markers" d=" M 329.5 0 L 329.5 400" stroke-opacity="0.12" stroke-miterlimit="10" stroke-dasharray=""/><path fill="none" stroke="rgb(0,0,0)" class="dcg-svg-minor-gridline" paint-order="fill stroke markers" d=" M 359.5 0 L 359.5 400" stroke-opacity="0.12" stroke-miterlimit="10" stroke-dasharray=""/><path fill="none" stroke="rgb(0,0,0)" class="dcg-svg-minor-gridline" paint-order="fill stroke markers" d=" M 389.5 0 L 389.5 400" stroke-opacity="0.12" stroke-miterlimit="10" stroke-dasharray=""/><path fill="none" stroke="rgb(0,0,0)" class="dcg-svg-minor-gridline" paint-order="fill stroke markers" d=" M 419.5 0 L 419.5 400" stroke-opacity="0.12" stroke-miterlimit="10" stroke-dasharray=""/><path fill="none" stroke="rgb(0,0,0)" class="dcg-svg-minor-gridline" paint-order="fill stroke markers" d=" M 449.5 0 L 449.5 400" stroke-opacity="0.12" stroke-miterlimit="10" stroke-dasharray=""/><path fill="none" stroke="rgb(0,0,0)" class="dcg-svg-minor-gridline" paint-order="fill stroke markers" d=" M 479.5 0 L 479.5 400" stroke-opacity="0.12" stroke-miterlimit="10" stroke-dasharray=""/><path fill="none" stroke="rgb(0,0,0)" class="dcg-svg-minor-gridline" paint-order="fill stroke markers" d=" M 509.5 0 L 509.5 400" stroke-opacity="0.12" stroke-miterlimit="10" stroke-dasharray=""/><path fill="none" stroke="rgb(0,0,0)" class="dcg-svg-minor-gridline" paint-order="fill stroke markers" d=" M 539.5 0 L 539.5 400" stroke-opacity="0.12" stroke-miterlimit="10" stroke-dasharray=""/><path fill="none" stroke="rgb(0,0,0)" class="dcg-svg-minor-gridline" paint-order="fill stroke markers" d=" M 569.5 0 L 569.5 400" stroke-opacity="0.12" stroke-miterlimit="10" stroke-dasharray=""/><path fill="none" stroke="rgb(0,0,0)" class="dcg-svg-minor-gridline" paint-order="fill stroke markers" d=" M 0 355.5 L 600 355.5" stroke-opacity="0.12" stroke-miterlimit="10" stroke-dasharray=""/><path fill="none" stroke="rgb(0,0,0)" class="dcg-svg-minor-gridline" paint-order="fill stroke markers" d=" M 0 266.5 L 600 266.5" stroke-opacity="0.12" stroke-miterlimit="10" stroke-dasharray=""/><path fill="none" stroke="rgb(0,0,0)" class="dcg-svg-minor-gridline" paint-order="fill stroke markers" d=" M 0 221.5 L 600 221.5" stroke-opacity="0.12" stroke-miterlimit="10" stroke-dasharray=""/><path fill="none" stroke="rgb(0,0,0)" class="dcg-svg-minor-gridline" paint-order="fill stroke markers" d=" M 0 177.5 L 600 177.5" stroke-opacity="0.12" stroke-miterlimit="10" stroke-dasharray=""/><path fill="none" stroke="rgb(0,0,0)" class="dcg-svg-minor-gridline" paint-order="fill stroke markers" d=" M 0 132.5 L 600 132.5" stroke-opacity="0.12" stroke-miterlimit="10" stroke-dasharray=""/><path fill="none" stroke="rgb(0,0,0)" class="dcg-svg-minor-gridline" paint-order="fill stroke markers" d=" M 0 88.5 L 600 88.5" stroke-opacity="0.12" stroke-miterlimit="10" stroke-dasharray=""/><path fill="none" stroke="rgb(0,0,0)" class="dcg-svg-minor-gridline" paint-order="fill stroke markers" d=" M 0 43.5 L 600 43.5" stroke-opacity="0.12" stroke-miterlimit="10" stroke-dasharray=""/><path fill="none" stroke="rgb(0,0,0)" class="dcg-svg-minor-gridline" paint-order="fill stroke markers" d=" M 0 -0.5 L 600 -0.5" stroke-opacity="0.12" stroke-miterlimit="10" stroke-dasharray=""/><path fill="none" stroke="rgb(0,0,0)" class="dcg-svg-major-gridline" paint-order="fill stroke markers" d=" M -0.5 0 L -0.5 400" stroke-opacity="0.31818181818181823" stroke-miterlimit="10" stroke-dasharray=""/><path fill="none" stroke="rgb(0,0,0)" class="dcg-svg-major-gridline" paint-order="fill stroke markers" d=" M 149.5 0 L 149.5 400" stroke-opacity="0.31818181818181823" stroke-miterlimit="10" stroke-dasharray=""/><path fill="none" stroke="rgb(0,0,0)" class="dcg-svg-major-gridline" paint-order="fill stroke markers" d=" M 449.5 0 L 449.5 400" stroke-opacity="0.31818181818181823" stroke-miterlimit="10" stroke-dasharray=""/><path fill="none" stroke="rgb(0,0,0)" class="dcg-svg-major-gridline" paint-order="fill stroke markers" d=" M 0 88.5 L 600 88.5" stroke-opacity="0.31818181818181823" stroke-miterlimit="10" stroke-dasharray=""/></g></g><g id="axis-49a6d4b1"><g id="yaxis-49a6d4b1"><title>Y axis</title><path fill="none" stroke="rgb(0,0,0)" class="dcg-svg-axis-line" paint-order="fill stroke markers" d=" M 299.75 0 L 299.75 400" stroke-opacity="0.9" stroke-miterlimit="10" stroke-width="1.5" stroke-dasharray=""/></g><g id="xaxis-49a6d4b1"><title>X axis</title><path fill="none" stroke="rgb(0,0,0)" class="dcg-svg-axis-line" paint-order="fill stroke markers" d=" M 0 310.75 L 600 310.75" stroke-opacity="0.9" stroke-miterlimit="10" stroke-width="1.5" stroke-dasharray=""/></g><g/></g></g><g id="expressions-49a6d4b1"><g id="sketch-49a6d4b1"><title>Expression 1</title><path fill="#2d70b3" stroke="none" paint-order="stroke fill markers" d="" fill-opacity="0.4"/><g><path fill="none" stroke="#2d70b3" class="dcg-svg-curve" paint-order="fill stroke markers" d=" M 132.4978047465642 405.5 L 132.4978047465642 405.5 L 134.412109375 379.70532026894216 L 137.78125 338.2112220128377 L 141.00390625 302.0056747751983 L 144.2265625 269.0479285903275 L 147.44921875 239.18432590481825 L 150.525390625 213.4262343312617 L 153.6015625 190.22202763830623 L 156.53125 170.3822029608268 L 159.4609375 152.63860861998467 L 162.244140625 137.62896259326033 L 165.02734375 124.32970021988473 L 167.6640625 113.23041823713316 L 170.30078125 103.51784209857902 L 172.791015625 95.55502480708645 L 175.28125 88.70882807837592 L 177.771484375 82.92255354788603 L 179.96875 78.6528622309367 L 182.01953125 75.34023350069327 L 183.923828125 72.81874771322572 L 185.681640625 70.9442623981692 L 187.29296875 69.59202261192343 L 188.904296875 68.57564664443606 L 190.515625 67.88149577379227 L 191.98046875 67.51875196375744 L 193.43398282201787 67.40123456790121 L 195.056640625 67.54350567937138 L 196.66796875 67.95773430864534 L 198.279296875 68.63123927228702 L 200.037109375 69.64700324247383 L 201.94140625 71.06035397525153 L 203.9921875 72.92415004623706 L 206.189453125 75.28731343144483 L 208.6796875 78.3873986479033 L 211.462890625 82.33343623710005 L 214.5390625 87.22030339955734 L 218.0546875 93.38941862723897 L 222.15625 101.2390489578247 L 227.13671875 111.49554954806376 L 234.021484375 126.51087923960586 L 251.599609375 165.19354912583853 L 257.3125 176.75647820366754 L 262.146484375 185.81660439314146 L 266.39453125 193.11900122883665 L 270.203125 199.07297460900412 L 273.71875 204.02571356738054 L 276.94140625 208.0766691263955 L 279.87109375 211.33275393775185 L 282.654296875 214.03501750450718 L 285.291015625 216.23296004256474 L 287.78125 217.97761560369423 L 290.125 219.32037579571764 L 292.46875 220.36886564890546 L 294.666015625 221.0818069495678 L 296.86328125 221.53154629419765 L 299.060546875 221.71692407705027 L 301.2578125 221.63746281340718 L 303.455078125 221.29336713957633 L 305.65234375 220.68552381289192 L 307.849609375 219.81550171171452 L 310.193359375 218.60104791209895 L 312.537109375 217.09445029352653 L 315.02734375 215.17860308116198 L 317.6640625 212.80328870357738 L 320.447265625 209.91890720024878 L 323.376953125 206.47768524317968 L 326.453125 202.43511809022337 L 329.822265625 197.5283178759742 L 333.484375 191.66312385267682 L 337.5859375 184.49246217241446 L 342.126953125 175.8973920284722 L 347.400390625 165.19354912583853 L 353.9921875 151.00844228143495 L 376.111328125 102.70314570540006 L 380.798828125 93.65850670666259 L 384.607421875 86.97612764320235 L 387.9765625 81.67879610688044 L 390.90625 77.61971505482995 L 393.396484375 74.62169484289188 L 395.740234375 72.21930201891843 L 397.791015625 70.47945767970856 L 399.6953125 69.1891050061418 L 401.453125 68.29376123348874 L 403.2109375 67.69884401435655 L 404.822265625 67.4313741719078 L 406.43359375 67.44287288815855 L 407.8984375 67.70633598706792 L 409.36328125 68.22099074341048 L 410.828125 68.99687528389472 L 412.439453125 70.16421401577827 L 414.05078125 71.67368119961094 L 415.662109375 73.53920249951756 L 417.419921875 75.99699540794518 L 419.32421875 79.17833024600549 L 421.375 83.23458297164353 L 423.572265625 88.33966686530414 L 425.916015625 94.6927403988251 L 428.40625 102.52121109432647 L 430.896484375 111.517264877674 L 433.38671875 121.7397184411185 L 436.0234375 133.96686035712014 L 438.66015625 147.70867183907137 L 441.443359375 163.9388742636996 L 444.2265625 182.02779631358055 L 447.15625 203.17623700035944 L 450.0859375 226.59199543007546 L 453.162109375 253.73883961175986 L 456.23828125 283.6359884855424 L 459.314453125 316.41564929355485 L 462.537109375 353.99486062558816 L 465.759765625 395.04374781349645 L 466.512518786811 405.5" stroke-linecap="round" stroke-linejoin="round" stroke-miterlimit="10" stroke-width="2.5" stroke-opacity="0.9" stroke-dasharray=""/></g></g><g id="sketch-49a6d4b1"><title>Expression 2</title><path fill="#388c46" stroke="none" paint-order="stroke fill markers" d="" fill-opacity="0.4"/><path fill="#388c46" stroke="none" paint-order="stroke fill markers" d="" fill-opacity="0.4"/><path fill="#388c46" stroke="none" class="dcg-svg-region" paint-order="stroke fill markers" d=" M 140.21057993756241 310.6111111111111 L 458.78942006243756 310.6111111111111 L 458.78942006243756 310.61111111111103 L 456.677734375 288.1392005572513 L 453.6015625 257.83841970328376 L 450.525390625 230.30666985542518 L 447.595703125 206.54140204361465 L 444.666015625 185.0597743729891 L 441.8828125 166.66914877502455 L 439.099609375 150.1514046655798 L 436.462890625 136.14999744482714 L 433.826171875 123.67548558160314 L 431.3359375 113.23041823713316 L 428.845703125 104.02224690858134 L 426.35546875 95.9919563104761 L 424.01171875 89.4581636196537 L 421.814453125 84.19163294668965 L 419.763671875 79.99153871595792 L 417.859375 76.6824527117941 L 416.1015625 74.11162772098629 L 414.34375 71.98597233383742 L 412.732421875 70.41280961153473 L 411.12109375 69.18429260693182 L 409.65625 68.35494567729808 L 408.19140625 67.7888523259424 L 406.7265625 67.47594747816527 L 405.26171875 67.40630079922266 L 403.650390625 67.59896561531383 L 402.0390625 68.06127336828246 L 400.28125 68.85827378873472 L 398.376953125 70.04809296601485 L 396.326171875 71.686522474887 L 394.12890625 73.82552830949942 L 391.638671875 76.69270576725881 L 388.85546875 80.40430689885073 L 385.6328125 85.29804670686525 L 381.970703125 91.53157058928576 L 377.576171875 99.79247269934183 L 372.15625 110.87469168062563 L 358.6796875 140.594779578486 L 350.623046875 158.34833846959938 L 344.763671875 170.63193914883595 L 339.9296875 180.1361145960788 L 335.681640625 187.8966124163702 L 331.873046875 194.30934613447633 L 328.357421875 199.72140643407144 L 325.134765625 204.22020408292505 L 322.05859375 208.0766691263955 L 319.275390625 211.1798609982248 L 316.638671875 213.76887736520763 L 314.1484375 215.89148537414496 L 311.658203125 217.69339550974192 L 309.314453125 219.09091563668926 L 306.970703125 220.19484322067487 L 304.7734375 220.96022573320403 L 302.576171875 221.46272006537282 L 300.37890625 221.7010301872312 L 298.181640625 221.67454218985546 L 295.984375 221.38332428534827 L 293.787109375 220.82812680683855 L 291.443359375 219.94657878878184 L 289.099609375 218.7689133087832 L 286.609375 217.19709140062332 L 283.97265625 215.17860308116198 L 281.3359375 212.80328870357738 L 278.40625 209.75658978356256 L 275.330078125 206.11131776372108 L 271.9609375 201.61695940061304 L 268.298828125 196.16963263383272 L 264.34375 189.6764472325643 L 259.802734375 181.5164428394222 L 254.67578125 171.5221783066841 L 231.677734375 121.32516789114203 L 225.525390625 108.10536855997685 L 220.837890625 98.64842658993928 L 216.8828125 91.26993540798628 L 213.513671875 85.53438004198932 L 210.583984375 81.03567956759179 L 207.947265625 77.431387797502 L 205.603515625 74.62169484289188 L 203.40625 72.35684567910658 L 201.35546875 70.5919612395594 L 199.451171875 69.27677231036608 L 197.693359375 68.35712201559124 L 196.08203125 67.77644374613925 L 194.470703125 67.4596328864136 L 192.859375 67.4194493978112 L 191.39453125 67.63386688332281 L 189.9296875 68.09748456972068 L 188.318359375 68.90724261888442 L 186.70703125 70.04416247518492 L 184.94921875 71.67368119961094 L 183.19140625 73.72693746694779 L 181.287109375 76.45076047760574 L 179.236328125 79.99153871595792 L 176.892578125 84.84724668930318 L 174.40234375 91.00120774952313 L 171.912109375 98.23497369396017 L 169.421875 106.60564007361734 L 166.78515625 116.7726021904964 L 164.1484375 128.34992283458513 L 161.365234375 142.1799627857286 L 158.58203125 157.7478199841851 L 155.65234375 176.10925199635565 L 152.72265625 196.5985728451827 L 149.646484375 220.51953064642052 L 146.5703125 247.03073856441512 L 143.34765625 277.7231400304698 L 140.21057993756241 310.61111111111103" fill-opacity="0.4"/><g><path fill="none" stroke="#388c46" class="dcg-svg-curve" paint-order="fill stroke markers" d=" M 140.21057993756241 310.6111111111111 L 151.21057993756241 310.6111111111111 M 158.21057993756241 310.6111111111111 L 169.21057993756241 310.6111111111111 M 176.21057993756241 310.6111111111111 L 187.21057993756241 310.6111111111111 M 194.21057993756241 310.6111111111111 L 205.21057993756241 310.6111111111111 M 212.21057993756241 310.6111111111111 L 223.21057993756241 310.6111111111111 M 230.21057993756241 310.6111111111111 L 241.21057993756241 310.6111111111111 M 248.21057993756241 310.6111111111111 L 259.21057993756244 310.6111111111111 M 266.21057993756244 310.6111111111111 L 277.21057993756244 310.6111111111111 M 284.21057993756244 310.6111111111111 L 295.21057993756244 310.6111111111111 M 302.21057993756244 310.6111111111111 L 313.21057993756244 310.6111111111111 M 320.21057993756244 310.6111111111111 L 331.21057993756244 310.6111111111111 M 338.21057993756244 310.6111111111111 L 349.21057993756244 310.6111111111111 M 356.21057993756244 310.6111111111111 L 367.21057993756244 310.6111111111111 M 374.21057993756244 310.6111111111111 L 385.21057993756244 310.6111111111111 M 392.21057993756244 310.6111111111111 L 403.21057993756244 310.6111111111111 M 410.21057993756244 310.6111111111111 L 421.21057993756244 310.6111111111111 M 428.21057993756244 310.6111111111111 L 439.21057993756244 310.6111111111111 M 446.21057993756244 310.6111111111111 L 457.21057993756244 310.6111111111111" stroke-linecap="round" stroke-linejoin="round" stroke-miterlimit="10" stroke-width="2.5" stroke-opacity="0.9" stroke-dasharray=""/></g><g><path fill="none" stroke="#388c46" class="dcg-svg-curve" paint-order="fill stroke markers" d=" M 140.21057993756241 310.61111111111103 L 141.25509300704442 299.66081465632584 M 141.91978314216934 292.6924441850989 L 142.96429621165134 281.7421477303137 M 143.6570398120693 274.77658794504964 L 144.805708858742 263.83672691205584 M 145.536680070261 256.8749971637871 L 146.5703125 247.03073856441512 M 146.5703125 247.03073856441512 L 146.6972853493874 245.93645523213226 M 147.50410234401622 238.9831073811199 L 148.77195762129006 228.05641790095763 M 149.57877461591886 221.10307004994527 L 149.646484375 220.51953064642052 M 149.646484375 220.51953064642052 L 150.97457370421853 210.19202942365126 M 151.86740296946655 203.24920176461228 L 152.72265625 196.5985728451827 M 152.72265625 196.5985728451827 L 153.3305422583706 192.34720765178983 M 154.3213672910008 185.41768632959784 L 155.65234375 176.10925199635565 M 155.65234375 176.10925199635565 L 155.90395564870246 174.5323074343577 M 157.00690046948375 167.61974548365436 L 158.58203125 157.7478199841851 M 158.58203125 157.7478199841851 L 158.7585834226839 156.76027473902076 M 159.9905027804342 149.86952915555884 L 161.365234375 142.1799627857286 M 161.365234375 142.1799627857286 L 161.99428985727263 139.05411746988716 M 163.3753058300802 132.191698444292 L 164.1484375 128.34992283458513 M 164.1484375 128.34992283458513 L 165.72090563640728 121.4455202251677 M 167.33930129851385 114.63586625098966 L 169.421875 106.60564007361734 M 169.421875 106.60564007361734 L 170.19294008533362 104.01378420208731 M 172.22813701058237 97.31695972277456 L 174.40234375 91.00120774952313 M 174.40234375 91.00120774952313 L 176.02299300344814 86.99619822185795 M 178.92770403422125 80.63093645819184 L 179.236328125 79.99153871595792 M 179.236328125 79.99153871595792 L 181.287109375 76.45076047760574 M 181.287109375 76.45076047760574 L 183.19140625 73.72693746694779 M 183.19140625 73.72693746694779 L 184.94921875 71.67368119961094 M 184.94921875 71.67368119961094 L 185.07521987589473 71.55687625372266 M 190.8825907791323 67.79589416894773 L 191.39453125 67.63386688332281 M 191.39453125 67.63386688332281 L 192.859375 67.4194493978112 M 192.859375 67.4194493978112 L 194.470703125 67.4596328864136 M 194.470703125 67.4596328864136 L 196.08203125 67.77644374613925 M 196.08203125 67.77644374613925 L 197.693359375 68.35712201559124 M 197.693359375 68.35712201559124 L 199.451171875 69.27677231036608 M 199.451171875 69.27677231036608 L 201.1231311816703 70.43149897040666 M 206.15211652624782 75.27935888006682 L 207.947265625 77.431387797502 M 207.947265625 77.431387797502 L 210.583984375 81.03567956759179 M 210.583984375 81.03567956759179 L 212.62045118439772 84.16278926838152 M 216.2300986561406 90.15876885060688 L 216.8828125 91.26993540798628 M 216.8828125 91.26993540798628 L 220.837890625 98.64842658993928 M 220.837890625 98.64842658993928 L 221.43283360510782 99.84871272078962 M 224.54157241840386 106.12053406635637 L 225.525390625 108.10536855997685 M 225.525390625 108.10536855997685 L 229.23196007414984 116.06982996133925 M 232.17898262523033 122.4192244331754 L 236.76071644563766 132.41961018568193 M 239.67636524044232 138.7834920281861 L 244.25809906084964 148.78387778069262 M 247.17374785565428 155.14775962319678 L 251.7554816760616 165.14814537570334 M 254.67113047086625 171.5120272182075 L 254.67578125 171.5221783066841 M 254.67578125 171.5221783066841 L 259.6914776945821 181.29956379488624 M 263.0881039120907 187.42010670443153 L 264.34375 189.6764472325643 M 264.34375 189.6764472325643 L 268.298828125 196.16963263383272 M 268.298828125 196.16963263383272 L 268.75347998861554 196.84591971666717 M 272.71132614863893 202.617961102224 L 275.330078125 206.11131776372108 M 275.330078125 206.11131776372108 L 278.40625 209.75658978356256 M 278.40625 209.75658978356256 L 279.69843692799014 211.10038652569457 M 284.83710283704886 215.84036320963847 L 286.609375 217.19709140062332 M 286.609375 217.19709140062332 L 289.099609375 218.7689133087832 M 289.099609375 218.7689133087832 L 291.443359375 219.94657878878184 M 291.443359375 219.94657878878184 L 293.787109375 220.82812680683855 M 293.787109375 220.82812680683855 L 294.4620831891106 220.9986768556768 M 301.38894201544474 221.59148414800597 L 302.576171875 221.46272006537282 M 302.576171875 221.46272006537282 L 304.7734375 220.96022573320403 M 304.7734375 220.96022573320403 L 306.970703125 220.19484322067487 M 306.970703125 220.19484322067487 L 309.314453125 219.09091563668926 M 309.314453125 219.09091563668926 L 311.5770940387399 217.74175885076667 M 317.0380129603493 213.37676098723674 L 319.275390625 211.1798609982248 M 319.275390625 211.1798609982248 L 322.05859375 208.0766691263955 M 322.05859375 208.0766691263955 L 324.3632941664924 205.18736483748137 M 328.4821038494145 199.52946720170056 L 331.873046875 194.30934613447633 M 331.873046875 194.30934613447633 L 334.31145958392716 190.20365977787932 M 337.75437907005494 184.1100529319288 L 339.9296875 180.1361145960788 M 339.9296875 180.1361145960788 L 342.8626829426985 174.36950446437552 M 345.97208563221835 168.0986191191457 L 350.623046875 158.34833846959938 M 350.623046875 158.34833846959938 L 350.70455904526665 158.168718801486 M 353.5972634824855 151.79437483219047 L 358.14294188382945 141.77754859472606 M 361.03411928517676 135.40251192084185 L 365.5768513642347 125.3843491522551 M 368.46768086908975 119.00915466315443 L 372.15625 110.87469168062563 M 372.15625 110.87469168062563 L 373.0649376901293 109.0166804029982 M 376.14030075875763 102.7284261145556 L 377.576171875 99.79247269934183 M 377.576171875 99.79247269934183 L 381.2073752649062 92.96648511631601 M 384.6931971785115 86.89742945244114 L 385.6328125 85.29804670686525 M 385.6328125 85.29804670686525 L 388.85546875 80.40430689885073 M 388.85546875 80.40430689885073 L 390.82653935038337 77.77574277964705 M 395.4535520425993 72.53600507347069 L 396.326171875 71.686522474887 M 396.326171875 71.686522474887 L 398.376953125 70.04809296601485 M 398.376953125 70.04809296601485 L 400.28125 68.85827378873472 M 400.28125 68.85827378873472 L 402.0390625 68.06127336828246 M 402.0390625 68.06127336828246 L 403.650390625 67.59896561531383 M 403.650390625 67.59896561531383 L 404.94659079820286 67.4439803183325 M 411.4904710348192 69.46591511973594 L 412.732421875 70.41280961153473 M 412.732421875 70.41280961153473 L 414.34375 71.98597233383742 M 414.34375 71.98597233383742 L 416.1015625 74.11162772098629 M 416.1015625 74.11162772098629 L 417.859375 76.6824527117941 M 417.859375 76.6824527117941 L 418.5146083244473 77.82104798643593 M 421.7362404660724 84.0314498274359 L 421.814453125 84.19163294668965 M 421.814453125 84.19163294668965 L 424.01171875 89.4581636196537 M 424.01171875 89.4581636196537 L 425.7388545211441 94.2729890394123 M 427.88789409647825 100.9335878997205 L 428.845703125 104.02224690858134 M 428.845703125 104.02224690858134 L 430.87315286661845 111.51917361085243 M 432.5482098910756 118.31518732222234 L 433.826171875 123.67548558160314 M 433.826171875 123.67548558160314 L 434.9613902448538 129.04628784183325 M 436.4089861488274 135.8949713721768 L 436.462890625 136.14999744482714 M 436.462890625 136.14999744482714 L 438.45036822446946 146.70382811497197 M 439.67979543308365 153.59469084085435 L 441.5075068113659 164.4417858951856 M 442.59226447675576 171.35700844543604 L 444.2382416567669 182.23316397590187 M 445.22561716670583 189.16299424296926 L 446.7120490270679 200.06210064324358 M 447.65207206864017 206.99866004190858 L 448.9979203765668 217.91601742966733 M 449.8543692997929 224.86342667642293 L 450.525390625 230.30666985542518 M 450.525390625 230.30666985542518 L 451.1378421363449 235.78811318482005 M 451.91512794567285 242.74482410095112 L 453.1365770746168 253.67679839772856 M 453.88562899346545 260.63651971726676 L 454.99665155009114 271.5802681097815 M 455.7036659043075 278.5444716322909 L 456.677734375 288.1392005572513 M 456.677734375 288.1392005572513 L 456.8045944631708 289.4892066548388 M 457.4594993731101 296.4585035748256 L 458.4886356601575 307.41025587766205" stroke-linecap="round" stroke-linejoin="round" stroke-miterlimit="10" stroke-width="2.5" stroke-opacity="0.9" stroke-dasharray=""/></g></g></g><g id="labels-49a6d4b1"/></g></svg>