<svg version="1.1" xmlns="http://www.w3.org/2000/svg" xmlns:xlink="http://www.w3.org/1999/xlink" width="600" height="400"><defs/><g transform="scale(1,1)"><g id="background-c64a7153"><rect fill="white" stroke="none" x="0" y="0" width="600" height="400" class="dcg-svg-background"/></g><g id="background-images-c64a7153"/><g id="graphpaper-c64a7153"><g id="grid-c64a7153"><g><path fill="none" stroke="rgb(0,0,0)" class="dcg-svg-minor-gridline" paint-order="fill stroke markers" d=" M -0.5 0 L -0.5 400" stroke-opacity="0.12" stroke-miterlimit="10" stroke-dasharray=""/><path fill="none" stroke="rgb(0,0,0)" class="dcg-svg-minor-gridline" paint-order="fill stroke markers" d=" M 49.5 0 L 49.5 400" stroke-opacity="0.12" stroke-miterlimit="10" stroke-dasharray=""/><path fill="none" stroke="rgb(0,0,0)" class="dcg-svg-minor-gridline" paint-order="fill stroke markers" d=" M 149.5 0 L 149.5 400" stroke-opacity="0.12" stroke-miterlimit="10" stroke-dasharray=""/><path fill="none" stroke="rgb(0,0,0)" class="dcg-svg-minor-gridline" paint-order="fill stroke markers" d=" M 199.5 0 L 199.5 400" stroke-opacity="0.12" stroke-miterlimit="10" stroke-dasharray=""/><path fill="none" stroke="rgb(0,0,0)" class="dcg-svg-minor-gridline" paint-order="fill stroke markers" d=" M 249.5 0 L 249.5 400" stroke-opacity="0.12" stroke-miterlimit="10" stroke-dasharray=""/><path fill="none" stroke="rgb(0,0,0)" class="dcg-svg-minor-gridline" paint-order="fill stroke markers" d=" M 299.5 0 L 299.5 400" stroke-opacity="0.12" stroke-miterlimit="10" stroke-dasharray=""/><path fill="none" stroke="rgb(0,0,0)" class="dcg-svg-minor-gridline" paint-order="fill stroke markers" d=" M 349.5 0 L 349.5 400" stroke-opacity="0.12" stroke-miterlimit="10" stroke-dasharray=""/><path fill="none" stroke="rgb(0,0,0)" class="dcg-svg-minor-gridline" paint-order="fill stroke markers" d=" M 399.5 0 L 399.5 400" stroke-opacity="0.12" stroke-miterlimit="10" stroke-dasharray=""/><path fill="none" stroke="rgb(0,0,0)" class="dcg-svg-minor-gridline" paint-order="fill stroke markers" d=" M 449.5 0 L 449.5 400" stroke-opacity="0.12" stroke-miterlimit="10" stroke-dasharray=""/><path fill="none" stroke="rgb(0,0,0)" class="dcg-svg-minor-gridline" paint-order="fill stroke markers" d=" M 499.5 0 L 499.5 400" stroke-opacity="0.12" stroke-miterlimit="10" stroke-dasharray=""/><path fill="none" stroke="rgb(0,0,0)" class="dcg-svg-minor-gridline" paint-order="fill stroke markers" d=" M 549.5 0 L 549.5 400" stroke-opacity="0.12" stroke-miterlimit="10" stroke-dasharray=""/><path fill="none" stroke="rgb(0,0,0)" class="dcg-svg-minor-gridline" paint-order="fill stroke markers" d=" M 0 370.5 L 600 370.5" stroke-opacity="0.12" stroke-miterlimit="10" stroke-dasharray=""/><path fill="none" stroke="rgb(0,0,0)" class="dcg-svg-minor-gridline" paint-order="fill stroke markers" d=" M 0 342.5 L 600 342.5" stroke-opacity="0.12" stroke-miterlimit="10" stroke-dasharray=""/><path fill="none" stroke="rgb(0,0,0)" class="dcg-svg-minor-gridline" paint-order="fill stroke markers" d=" M 0 313.5 L 600 313.5" stroke-opacity="0.12" stroke-miterlimit="10" stroke-dasharray=""/><path fill="none" stroke="rgb(0,0,0)" class="dcg-svg-minor-gridline" paint-order="fill stroke markers" d=" M 0 285.5 L 600 285.5" stroke-opacity="0.12" stroke-miterlimit="10" stroke-dasharray=""/><path fill="none" stroke="rgb(0,0,0)" class="dcg-svg-minor-gridline" paint-order="fill stroke markers" d=" M 0 256.5 L 600 256.5" stroke-opacity="0.12" stroke-miterlimit="10" stroke-dasharray=""/><path fill="none" stroke="rgb(0,0,0)" class="dcg-svg-minor-gridline" paint-order="fill stroke markers" d=" M 0 228.5 L 600 228.5" stroke-opacity="0.12" stroke-miterlimit="10" stroke-dasharray=""/><path fill="none" stroke="rgb(0,0,0)" class="dcg-svg-minor-gridline" paint-order="fill stroke markers" d=" M 0 170.5 L 600 170.5" stroke-opacity="0.12" stroke-miterlimit="10" stroke-dasharray=""/><path fill="none" stroke="rgb(0,0,0)" class="dcg-svg-minor-gridline" paint-order="fill stroke markers" d=" M 0 142.5 L 600 142.5" stroke-opacity="0.12" stroke-miterlimit="10" stroke-dasharray=""/><path fill="none" stroke="rgb(0,0,0)" class="dcg-svg-minor-gridline" paint-order="fill stroke markers" d=" M 0 113.5 L 600 113.5" stroke-opacity="0.12" stroke-miterlimit="10" stroke-dasharray=""/><path fill="none" stroke="rgb(0,0,0)" class="dcg-svg-minor-gridline" paint-order="fill stroke markers" d=" M 0 85.5 L 600 85.5" stroke-opacity="0.12" stroke-miterlimit="10" stroke-dasharray=""/><path fill="none" stroke="rgb(0,0,0)" class="dcg-svg-minor-gridline" paint-order="fill stroke markers" d=" M 0 56.5 L 600 56.5" stroke-opacity="0.12" stroke-miterlimit="10" stroke-dasharray=""/><path fill="none" stroke="rgb(0,0,0)" class="dcg-svg-minor-gridline" paint-order="fill stroke markers" d=" M 0 28.5 L 600 28.5" stroke-opacity="0.12" stroke-miterlimit="10" stroke-dasharray=""/><path fill="none" stroke="rgb(0,0,0)" class="dcg-svg-minor-gridline" paint-order="fill stroke markers" d=" M 0 -0.5 L 600 -0.5" stroke-opacity="0.12" stroke-miterlimit="10" stroke-dasharray=""/><path fill="none" stroke="rgb(0,0,0)" class="dcg-svg-major-gridline" paint-order="fill stroke markers" d=" M 349.5 0 L 349.5 400" stroke-opacity="0.31818181818181823" stroke-miterlimit="10" stroke-dasharray=""/><path fill="none" stroke="rgb(0,0,0)" class="dcg-svg-major-gridline" paint-order="fill stroke markers" d=" M 0 342.5 L 600 342.5" stroke-opacity="0.31818181818181823" stroke-miterlimit="10" stroke-dasharray=""/><path fill="none" stroke="rgb(0,0,0)" class="dcg-svg-major-gridline" paint-order="fill stroke markers" d=" M 0 56.5 L 600 56.5" stroke-opacity="0.31818181818181823" stroke-miterlimit="10" stroke-dasharray=""/></g></g><g id="axis-c64a7153"><g id="yaxis-c64a7153"><title>Y axis</title><path fill="none" stroke="rgb(0,0,0)" class="dcg-svg-axis-line" paint-order="fill stroke markers" d=" M 99.75 0 L 99.75 400" stroke-opacity="0.9" stroke-miterlimit="10" stroke-width="1.5" stroke-dasharray=""/></g><g id="xaxis-c64a7153"><title>X axis</title><path fill="none" stroke="rgb(0,0,0)" class="dcg-svg-axis-line" paint-order="fill stroke markers" d=" M 0 199.75 L 600 199.75" stroke-opacity="0.9" stroke-miterlimit="10" stroke-width="1.5" stroke-dasharray=""/></g><g><g class="dcg-svg-axis-value"><text fill="none" stroke="#ffffff" font-family="Arial" font-size="14px" font-style="normal" font-weight="normal" text-decoration="normal" x="91.10693359375" y="215.808" text-anchor="middle" stroke-miterlimit="2" stroke-width="3" stroke-dasharray="">0</text><text fill="#000000" stroke="none" font-family="Arial" font-size="14px" font-style="normal" font-weight="normal" text-decoration="normal" x="91.10693359375" y="215.808" text-anchor="middle">0</text></g><g class="dcg-svg-axis-value"><text fill="none" stroke="#ffffff" font-family="Arial" font-size="14px" font-style="normal" font-weight="normal" text-decoration="normal" x="350" y="215.808" text-anchor="middle" stroke-miterlimit="2" stroke-width="3" stroke-dasharray="">5</text><text fill="#000000" stroke="none" font-family="Arial" font-size="14px" font-style="normal" font-weight="normal" text-decoration="normal" x="350" y="215.808" text-anchor="middle">5</text></g><g class="dcg-svg-axis-value dcg-svg-offcenter-axis-value"><text fill="none" stroke="#ffffff" font-family="Arial" font-size="14px" font-style="normal" font-weight="normal" text-decoration="normal" x="589.2138671875" y="215.808" text-anchor="middle" stroke-miterlimit="2" stroke-width="3" stroke-dasharray="">10</text><text fill="#000000" stroke="none" font-family="Arial" font-size="14px" font-style="normal" font-weight="normal" text-decoration="normal" x="589.2138671875" y="215.808" text-anchor="middle">10</text></g><g class="dcg-svg-axis-value"><text fill="none" stroke="#ffffff" font-family="Arial" font-size="14px" font-style="normal" font-weight="normal" text-decoration="normal" x="88.77587890625" y="346.6651428571428" text-anchor="middle" stroke-miterlimit="2" stroke-width="3" stroke-dasharray="">-5</text><text fill="#000000" stroke="none" font-family="Arial" font-size="14px" font-style="normal" font-weight="normal" text-decoration="normal" x="88.77587890625" y="346.6651428571428" text-anchor="middle">-5</text></g><g class="dcg-svg-axis-value"><text fill="none" stroke="#ffffff" font-family="Arial" font-size="14px" font-style="normal" font-weight="normal" text-decoration="normal" x="91.10693359375" y="60.95085714285717" text-anchor="middle" stroke-miterlimit="2" stroke-width="3" stroke-dasharray="">5</text><text fill="#000000" stroke="none" font-family="Arial" font-size="14px" font-style="normal" font-weight="normal" text-decoration="normal" x="91.10693359375" y="60.95085714285717" text-anchor="middle">5</text></g></g></g></g><g id="expressions-c64a7153"><g id="sketch-c64a7153"><title>Expression 1</title><path fill="#2d70b3" stroke="none" paint-order="stroke fill markers" d="" fill-opacity="0.4"/><g><path fill="none" stroke="#2d70b3" class="dcg-svg-curve" paint-order="fill stroke markers" d=" M 99.69457024103639 405.5 L 99.69457024103639 405.5 L 99.6953125 357.93364127084465 L 100.134765625 324.2577842325119 L 100.720703125 305.5741708780358 L 101.453125 292.145495756729 L 102.33203125 281.52939414437236 L 103.357421875 272.7006843752123 L 104.529296875 265.1212233534234 L 105.84765625 258.46963871839625 L 107.3125 252.5370854390179 L 108.923828125 247.17947476270191 L 110.681640625 242.2928514870061 L 112.5859375 237.79956643110273 L 114.783203125 233.36481757312285 L 117.126953125 229.28839563618777 L 119.6171875 225.51281303571218 L 122.400390625 221.8105439186621 L 125.330078125 218.37095353546152 L 128.552734375 215.0117257158235 L 132.068359375 211.74805027668083 L 135.876953125 208.58821677771124 L 140.125 205.4325532793784 L 144.8125 202.31257350895007 L 149.939453125 199.2499810422804 L 155.65234375 196.18441669263305 L 161.951171875 193.14680011487457 L 169.12890625 190.03837727500604 L 177.185546875 186.9101079217619 L 186.4140625 183.70294749466635 L 196.375 180.60290050727528 L 207.21484375 177.57244587960017 L 218.93359375 174.6217854100667 L 231.677734375 171.7250147424329 L 245.59375 168.86498475728814 L 260.828125 166.03093345595954 L 277.52734375 163.2167385817384 L 295.837890625 160.41959710577657 L 315.759765625 157.65836290503586 L 337.5859375 154.91118042852256 L 361.609375 152.16460362708386 L 387.9765625 149.42597605566237 L 416.833984375 146.70194879157438 L 448.474609375 143.9863953822707 L 483.19140625 141.27669729945848 L 521.27734375 138.5727272022516 L 563.171875 135.86702483742715 L 599.5 133.71185448588437" stroke-linecap="round" stroke-linejoin="round" stroke-miterlimit="10" stroke-width="2.5" stroke-opacity="0.9" stroke-dasharray=""/></g></g><g id="sketch-c64a7153"><title>Expression 2</title><path fill="#388c46" stroke="none" paint-order="stroke fill markers" d="" fill-opacity="0.4"/><g><path fill="none" stroke="#388c46" class="dcg-svg-curve" paint-order="fill stroke markers" d=" M 99.90852136842219 -5.5 L 99.90852136842219 -5.5 L 100.134765625 19.512563375459763 L 100.720703125 46.46731970784924 L 101.453125 65.84080271106751 L 102.33203125 81.15659986078776 L 103.357421875 93.89373566220291 L 104.529296875 104.82858649094908 L 105.84765625 114.42479465795583 L 107.3125 122.98365985392462 L 108.923828125 130.71305820765946 L 110.681640625 137.76296537419842 L 112.5859375 144.24540544165066 L 114.63671875 150.24641157926393 L 116.833984375 155.8335775540584 L 119.32421875 161.366740491005 L 121.9609375 166.51400145555357 L 124.744140625 171.32915629471242 L 127.673828125 175.8550716755852 L 130.896484375 180.31928363794134 L 134.265625 184.52095517046848 L 137.927734375 188.64913787164244 L 141.8828125 192.68717806984228 L 146.130859375 196.6244835120889 L 150.671875 200.45494290106998 L 155.505859375 204.17570502902356 L 160.779296875 207.8849042525181 L 166.4921875 211.5589933192232 L 172.791015625 215.2630931891625 L 179.67578125 218.96395462222299 L 187.146484375 222.63623224886896 L 195.349609375 226.32412735617632 L 204.431640625 230.0557076407938 L 214.5390625 233.8463949665846 L 225.671875 237.65401013411213 L 237.537109375 241.3587476523193 L 250.28125 244.9987724933737 L 263.904296875 248.56422873793275 L 278.552734375 252.08241573461902 L 294.373046875 255.57241610032202 L 311.365234375 259.0184820233355 L 329.67578125 262.4353155214334 L 349.451171875 265.8327511711823 L 370.69140625 269.19461319482417 L 393.689453125 272.54987217156247 L 418.4453125 275.8802593017627 L 445.10546875 279.1893156121494 L 473.962890625 282.4949358369774 L 505.1640625 285.7938714527042 L 538.85546875 289.08253290225844 L 575.18359375 292.35720765258424 L 599.5 294.41223128249607" stroke-linecap="round" stroke-linejoin="round" stroke-miterlimit="10" stroke-width="2.5" stroke-opacity="0.9" stroke-dasharray=""/></g></g><g id="sketch-c64a7153"><title>a &gt; 1</title><path fill="none" stroke="#395C84" class="dcg-svg-point" paint-order="fill stroke markers" d=" M 235.31409142295226 170.82857142857145 L 235.31409142295226 171.02857142857144 L 235.51409142295225 171.02857142857144 L 235.51409142295225 170.82857142857145" stroke-linecap="round" stroke-linejoin="round" stroke-miterlimit="10" stroke-width="9" stroke-opacity="0.9" stroke-dasharray=""/></g><g id="sketch-c64a7153"><title>0 &lt; a &lt; 1</title><path fill="none" stroke="#4D8939" class="dcg-svg-point" paint-order="fill stroke markers" d=" M 349.4 265.97142857142853 L 349.4 266.1714285714286 L 349.6 266.1714285714286 L 349.6 265.97142857142853" stroke-linecap="round" stroke-linejoin="round" stroke-miterlimit="10" stroke-width="9" stroke-opacity="0.9" stroke-dasharray=""/></g></g><g id="labels-c64a7153"><g transform="rotate(0,0,0) translate(235.91409142295225,171.42857142857144)"><g class="dcg-svg-label"><g transform="translate(-42.195341422952254,-25.506696428571445)"><g><text fill="none" stroke="#FFF" font-family="arial, sans-serif" font-size="15.4px" font-style="normal" font-weight="normal" text-decoration="normal" x="0" y="13.4888" text-anchor="start" stroke-linecap="round" stroke-linejoin="round" stroke-miterlimit="2" stroke-width="3" stroke-dasharray="">a &gt; 1</text></g></g><g transform="translate(-42.195341422952254,-25.506696428571445)"><g><text fill="rgb(57, 92, 132)" stroke="none" font-family="arial, sans-serif" font-size="15.4px" font-style="normal" font-weight="normal" text-decoration="normal" x="0" y="13.4888" text-anchor="start">a &gt; 1</text></g></g></g></g><g transform="rotate(0,0,0) translate(350,266.57142857142856)"><g class="dcg-svg-label"><g transform="translate(6.5,-25.508928571428555)"><g><text fill="none" stroke="#FFF" font-family="arial, sans-serif" font-size="15.4px" font-style="normal" font-weight="normal" text-decoration="normal" x="0" y="13.4888" text-anchor="start" stroke-linecap="round" stroke-linejoin="round" stroke-miterlimit="2" stroke-width="3" stroke-dasharray="">0 &lt; a &lt; 1</text></g></g><g transform="translate(6.5,-25.508928571428555)"><g><text fill="rgb(77, 137, 57)" stroke="none" font-family="arial, sans-serif" font-size="15.4px" font-style="normal" font-weight="normal" text-decoration="normal" x="0" y="13.4888" text-anchor="start">0 &lt; a &lt; 1</text></g></g></g></g></g></g></svg>