<svg version="1.1" xmlns="http://www.w3.org/2000/svg" xmlns:xlink="http://www.w3.org/1999/xlink" width="600" height="400"><defs/><g transform="scale(1,1)"><g id="background-166548d6"><rect fill="white" stroke="none" x="0" y="0" width="600" height="400" class="dcg-svg-background"/></g><g id="background-images-166548d6"/><g id="graphpaper-166548d6"><g id="grid-166548d6"><g><path fill="none" stroke="rgb(0,0,0)" class="dcg-svg-minor-gridline" paint-order="fill stroke markers" d=" M -0.5 0 L -0.5 400" stroke-opacity="0.12" stroke-miterlimit="10" stroke-dasharray=""/><path fill="none" stroke="rgb(0,0,0)" class="dcg-svg-minor-gridline" paint-order="fill stroke markers" d=" M 29.5 0 L 29.5 400" stroke-opacity="0.12" stroke-miterlimit="10" stroke-dasharray=""/><path fill="none" stroke="rgb(0,0,0)" class="dcg-svg-minor-gridline" paint-order="fill stroke markers" d=" M 59.5 0 L 59.5 400" stroke-opacity="0.12" stroke-miterlimit="10" stroke-dasharray=""/><path fill="none" stroke="rgb(0,0,0)" class="dcg-svg-minor-gridline" paint-order="fill stroke markers" d=" M 89.5 0 L 89.5 400" stroke-opacity="0.12" stroke-miterlimit="10" stroke-dasharray=""/><path fill="none" stroke="rgb(0,0,0)" class="dcg-svg-minor-gridline" paint-order="fill stroke markers" d=" M 119.5 0 L 119.5 400" stroke-opacity="0.12" stroke-miterlimit="10" stroke-dasharray=""/><path fill="none" stroke="rgb(0,0,0)" class="dcg-svg-minor-gridline" paint-order="fill stroke markers" d=" M 149.5 0 L 149.5 400" stroke-opacity="0.12" stroke-miterlimit="10" stroke-dasharray=""/><path fill="none" stroke="rgb(0,0,0)" class="dcg-svg-minor-gridline" paint-order="fill stroke markers" d=" M 179.5 0 L 179.5 400" stroke-opacity="0.12" stroke-miterlimit="10" stroke-dasharray=""/><path fill="none" stroke="rgb(0,0,0)" class="dcg-svg-minor-gridline" paint-order="fill stroke markers" d=" M 209.5 0 L 209.5 400" stroke-opacity="0.12" stroke-miterlimit="10" stroke-dasharray=""/><path fill="none" stroke="rgb(0,0,0)" class="dcg-svg-minor-gridline" paint-order="fill stroke markers" d=" M 239.5 0 L 239.5 400" stroke-opacity="0.12" stroke-miterlimit="10" stroke-dasharray=""/><path fill="none" stroke="rgb(0,0,0)" class="dcg-svg-minor-gridline" paint-order="fill stroke markers" d=" M 269.5 0 L 269.5 400" stroke-opacity="0.12" stroke-miterlimit="10" stroke-dasharray=""/><path fill="none" stroke="rgb(0,0,0)" class="dcg-svg-minor-gridline" paint-order="fill stroke markers" d=" M 329.5 0 L 329.5 400" stroke-opacity="0.12" stroke-miterlimit="10" stroke-dasharray=""/><path fill="none" stroke="rgb(0,0,0)" class="dcg-svg-minor-gridline" paint-order="fill stroke markers" d=" M 359.5 0 L 359.5 400" stroke-opacity="0.12" stroke-miterlimit="10" stroke-dasharray=""/><path fill="none" stroke="rgb(0,0,0)" class="dcg-svg-minor-gridline" paint-order="fill stroke markers" d=" M 389.5 0 L 389.5 400" stroke-opacity="0.12" stroke-miterlimit="10" stroke-dasharray=""/><path fill="none" stroke="rgb(0,0,0)" class="dcg-svg-minor-gridline" paint-order="fill stroke markers" d=" M 419.5 0 L 419.5 400" stroke-opacity="0.12" stroke-miterlimit="10" stroke-dasharray=""/><path fill="none" stroke="rgb(0,0,0)" class="dcg-svg-minor-gridline" paint-order="fill stroke markers" d=" M 449.5 0 L 449.5 400" stroke-opacity="0.12" stroke-miterlimit="10" stroke-dasharray=""/><path fill="none" stroke="rgb(0,0,0)" class="dcg-svg-minor-gridline" paint-order="fill stroke markers" d=" M 479.5 0 L 479.5 400" stroke-opacity="0.12" stroke-miterlimit="10" stroke-dasharray=""/><path fill="none" stroke="rgb(0,0,0)" class="dcg-svg-minor-gridline" paint-order="fill stroke markers" d=" M 509.5 0 L 509.5 400" stroke-opacity="0.12" stroke-miterlimit="10" stroke-dasharray=""/><path fill="none" stroke="rgb(0,0,0)" class="dcg-svg-minor-gridline" paint-order="fill stroke markers" d=" M 539.5 0 L 539.5 400" stroke-opacity="0.12" stroke-miterlimit="10" stroke-dasharray=""/><path fill="none" stroke="rgb(0,0,0)" class="dcg-svg-minor-gridline" paint-order="fill stroke markers" d=" M 569.5 0 L 569.5 400" stroke-opacity="0.12" stroke-miterlimit="10" stroke-dasharray=""/><path fill="none" stroke="rgb(0,0,0)" class="dcg-svg-minor-gridline" paint-order="fill stroke markers" d=" M 0 370.5 L 600 370.5" stroke-opacity="0.12" stroke-miterlimit="10" stroke-dasharray=""/><path fill="none" stroke="rgb(0,0,0)" class="dcg-svg-minor-gridline" paint-order="fill stroke markers" d=" M 0 342.5 L 600 342.5" stroke-opacity="0.12" stroke-miterlimit="10" stroke-dasharray=""/><path fill="none" stroke="rgb(0,0,0)" class="dcg-svg-minor-gridline" paint-order="fill stroke markers" d=" M 0 313.5 L 600 313.5" stroke-opacity="0.12" stroke-miterlimit="10" stroke-dasharray=""/><path fill="none" stroke="rgb(0,0,0)" class="dcg-svg-minor-gridline" paint-order="fill stroke markers" d=" M 0 285.5 L 600 285.5" stroke-opacity="0.12" stroke-miterlimit="10" stroke-dasharray=""/><path fill="none" stroke="rgb(0,0,0)" class="dcg-svg-minor-gridline" paint-order="fill stroke markers" d=" M 0 256.5 L 600 256.5" stroke-opacity="0.12" stroke-miterlimit="10" stroke-dasharray=""/><path fill="none" stroke="rgb(0,0,0)" class="dcg-svg-minor-gridline" paint-order="fill stroke markers" d=" M 0 228.5 L 600 228.5" stroke-opacity="0.12" stroke-miterlimit="10" stroke-dasharray=""/><path fill="none" stroke="rgb(0,0,0)" class="dcg-svg-minor-gridline" paint-order="fill stroke markers" d=" M 0 170.5 L 600 170.5" stroke-opacity="0.12" stroke-miterlimit="10" stroke-dasharray=""/><path fill="none" stroke="rgb(0,0,0)" class="dcg-svg-minor-gridline" paint-order="fill stroke markers" d=" M 0 142.5 L 600 142.5" stroke-opacity="0.12" stroke-miterlimit="10" stroke-dasharray=""/><path fill="none" stroke="rgb(0,0,0)" class="dcg-svg-minor-gridline" paint-order="fill stroke markers" d=" M 0 113.5 L 600 113.5" stroke-opacity="0.12" stroke-miterlimit="10" stroke-dasharray=""/><path fill="none" stroke="rgb(0,0,0)" class="dcg-svg-minor-gridline" paint-order="fill stroke markers" d=" M 0 85.5 L 600 85.5" stroke-opacity="0.12" stroke-miterlimit="10" stroke-dasharray=""/><path fill="none" stroke="rgb(0,0,0)" class="dcg-svg-minor-gridline" paint-order="fill stroke markers" d=" M 0 56.5 L 600 56.5" stroke-opacity="0.12" stroke-miterlimit="10" stroke-dasharray=""/><path fill="none" stroke="rgb(0,0,0)" class="dcg-svg-minor-gridline" paint-order="fill stroke markers" d=" M 0 28.5 L 600 28.5" stroke-opacity="0.12" stroke-miterlimit="10" stroke-dasharray=""/><path fill="none" stroke="rgb(0,0,0)" class="dcg-svg-minor-gridline" paint-order="fill stroke markers" d=" M 0 -0.5 L 600 -0.5" stroke-opacity="0.12" stroke-miterlimit="10" stroke-dasharray=""/><path fill="none" stroke="rgb(0,0,0)" class="dcg-svg-major-gridline" paint-order="fill stroke markers" d=" M -0.5 0 L -0.5 400" stroke-opacity="0.31818181818181823" stroke-miterlimit="10" stroke-dasharray=""/><path fill="none" stroke="rgb(0,0,0)" class="dcg-svg-major-gridline" paint-order="fill stroke markers" d=" M 149.5 0 L 149.5 400" stroke-opacity="0.31818181818181823" stroke-miterlimit="10" stroke-dasharray=""/><path fill="none" stroke="rgb(0,0,0)" class="dcg-svg-major-gridline" paint-order="fill stroke markers" d=" M 449.5 0 L 449.5 400" stroke-opacity="0.31818181818181823" stroke-miterlimit="10" stroke-dasharray=""/><path fill="none" stroke="rgb(0,0,0)" class="dcg-svg-major-gridline" paint-order="fill stroke markers" d=" M 0 342.5 L 600 342.5" stroke-opacity="0.31818181818181823" stroke-miterlimit="10" stroke-dasharray=""/><path fill="none" stroke="rgb(0,0,0)" class="dcg-svg-major-gridline" paint-order="fill stroke markers" d=" M 0 56.5 L 600 56.5" stroke-opacity="0.31818181818181823" stroke-miterlimit="10" stroke-dasharray=""/></g></g><g id="axis-166548d6"><g id="yaxis-166548d6"><title>Y axis</title><path fill="none" stroke="rgb(0,0,0)" class="dcg-svg-axis-line" paint-order="fill stroke markers" d=" M 299.75 0 L 299.75 400" stroke-opacity="0.9" stroke-miterlimit="10" stroke-width="1.5" stroke-dasharray=""/></g><g id="xaxis-166548d6"><title>X axis</title><path fill="none" stroke="rgb(0,0,0)" class="dcg-svg-axis-line" paint-order="fill stroke markers" d=" M 0 199.75 L 600 199.75" stroke-opacity="0.9" stroke-miterlimit="10" stroke-width="1.5" stroke-dasharray=""/></g><g><g class="dcg-svg-axis-value"><text fill="none" stroke="#ffffff" font-family="Arial" font-size="14px" font-style="normal" font-weight="normal" text-decoration="normal" x="291.10693359375" y="215.808" text-anchor="middle" stroke-miterlimit="2" stroke-width="3" stroke-dasharray="">0</text><text fill="#000000" stroke="none" font-family="Arial" font-size="14px" font-style="normal" font-weight="normal" text-decoration="normal" x="291.10693359375" y="215.808" text-anchor="middle">0</text></g><g class="dcg-svg-axis-value dcg-svg-offcenter-axis-value"><text fill="none" stroke="#ffffff" font-family="Arial" font-size="14px" font-style="normal" font-weight="normal" text-decoration="normal" x="13.1171875" y="215.808" text-anchor="middle" stroke-miterlimit="2" stroke-width="3" stroke-dasharray="">-10</text><text fill="#000000" stroke="none" font-family="Arial" font-size="14px" font-style="normal" font-weight="normal" text-decoration="normal" x="13.1171875" y="215.808" text-anchor="middle">-10</text></g><g class="dcg-svg-axis-value"><text fill="none" stroke="#ffffff" font-family="Arial" font-size="14px" font-style="normal" font-weight="normal" text-decoration="normal" x="147.6689453125" y="215.808" text-anchor="middle" stroke-miterlimit="2" stroke-width="3" stroke-dasharray="">-5</text><text fill="#000000" stroke="none" font-family="Arial" font-size="14px" font-style="normal" font-weight="normal" text-decoration="normal" x="147.6689453125" y="215.808" text-anchor="middle">-5</text></g><g class="dcg-svg-axis-value"><text fill="none" stroke="#ffffff" font-family="Arial" font-size="14px" font-style="normal" font-weight="normal" text-decoration="normal" x="450" y="215.808" text-anchor="middle" stroke-miterlimit="2" stroke-width="3" stroke-dasharray="">5</text><text fill="#000000" stroke="none" font-family="Arial" font-size="14px" font-style="normal" font-weight="normal" text-decoration="normal" x="450" y="215.808" text-anchor="middle">5</text></g><g class="dcg-svg-axis-value dcg-svg-offcenter-axis-value"><text fill="none" stroke="#ffffff" font-family="Arial" font-size="14px" font-style="normal" font-weight="normal" text-decoration="normal" x="589.2138671875" y="215.808" text-anchor="middle" stroke-miterlimit="2" stroke-width="3" stroke-dasharray="">10</text><text fill="#000000" stroke="none" font-family="Arial" font-size="14px" font-style="normal" font-weight="normal" text-decoration="normal" x="589.2138671875" y="215.808" text-anchor="middle">10</text></g><g class="dcg-svg-axis-value"><text fill="none" stroke="#ffffff" font-family="Arial" font-size="14px" font-style="normal" font-weight="normal" text-decoration="normal" x="288.77587890625" y="346.6651428571428" text-anchor="middle" stroke-miterlimit="2" stroke-width="3" stroke-dasharray="">-5</text><text fill="#000000" stroke="none" font-family="Arial" font-size="14px" font-style="normal" font-weight="normal" text-decoration="normal" x="288.77587890625" y="346.6651428571428" text-anchor="middle">-5</text></g><g class="dcg-svg-axis-value"><text fill="none" stroke="#ffffff" font-family="Arial" font-size="14px" font-style="normal" font-weight="normal" text-decoration="normal" x="291.10693359375" y="60.95085714285717" text-anchor="middle" stroke-miterlimit="2" stroke-width="3" stroke-dasharray="">5</text><text fill="#000000" stroke="none" font-family="Arial" font-size="14px" font-style="normal" font-weight="normal" text-decoration="normal" x="291.10693359375" y="60.95085714285717" text-anchor="middle">5</text></g></g></g></g><g id="expressions-166548d6"><g id="sketch-166548d6"><title>Expression 1</title><path fill="#2d70b3" stroke="none" paint-order="stroke fill markers" d="" fill-opacity="0.4"/><g><path fill="none" stroke="#2d70b3" class="dcg-svg-curve" paint-order="fill stroke markers" d=" M 41.71931604103675 -5.5 L 41.71931604103675 -5.5 L 51.794921875 90.03989254988306 L 56.3359375 129.65915077094826 L 60.291015625 161.6615754921532 L 63.806640625 187.74457838516975 L 67.029296875 209.43947737093475 L 69.958984375 227.15676849599123 L 72.595703125 241.36555233242657 L 75.0859375 253.20647130531367 L 77.4296875 262.90616738252766 L 79.626953125 270.70004939235605 L 81.53125 276.4239879566155 L 83.435546875 281.18408924202015 L 85.193359375 284.7207875888398 L 86.8046875 287.2411523173006 L 88.26953125 288.93637369084945 L 89.734375 290.0681810095227 L 90.90625 290.57163586209197 L 91.99213491947518 290.7224221123258 L 92.95703125 290.6042026365292 L 93.982421875 290.22136306296414 L 95.154296875 289.46348188052 L 96.47265625 288.2089260429725 L 98.083984375 286.1096527374829 L 99.6953125 283.40395968857433 L 101.453125 279.78274209150527 L 103.357421875 275.10134684337623 L 105.408203125 269.2187266932318 L 107.751953125 261.48952378711897 L 110.2421875 252.18602775279868 L 113.025390625 240.57949293538607 L 116.1015625 226.44095194379685 L 119.6171875 208.8615696042643 L 123.865234375 186.04846163604992 L 129.724609375 152.80414659197055 L 141.736328125 84.29799043666321 L 146.27734375 60.3098896099973 L 150.0859375 41.69720386325133 L 153.455078125 26.637692125258468 L 156.53125 14.20224344889698 L 159.314453125 4.135157346635822 L 161.951171875 -4.294874641209788 L 162.38263199268704 -5.5 L 197.06420411942284 -5.5 L 199.3046875 0.5837311851743152 L 202.380859375 9.880194326758613 L 205.896484375 21.54528089224806 L 209.998046875 36.2798347055367 L 215.271484375 56.45993977519123 L 232.703125 124.15394318977229 L 237.09765625 139.48031487651042 L 240.90625 151.6919141516103 L 244.421875 161.94045620337593 L 247.64453125 170.38710561115224 L 250.57421875 177.23083746399286 L 253.357421875 182.96871712320723 L 255.994140625 187.70519430066287 L 258.630859375 191.75747765864446 L 261.12109375 194.9602640596532 L 263.611328125 197.56661415937978 L 265.955078125 199.488936926529 L 268.15234375 200.839723224662 L 270.203125 201.72242431373826 L 272.107421875 202.23035002018617 L 274.01171875 202.45365483389335 L 275.916015625 202.4089961757392 L 277.966796875 202.08189118653084 L 280.1640625 201.4370606959276 L 282.5078125 200.44822944363457 L 285.14453125 199.0133417220058 L 288.220703125 196.98452431259244 L 292.17578125 193.96517389649892 L 299.353515625 187.95083741869436 L 305.212890625 183.25246666427802 L 309.021484375 180.62297207943348 L 312.09765625 178.86844404452438 L 314.880859375 177.62931817453838 L 317.37109375 176.8397372078452 L 319.568359375 176.4165394129111 L 321.83395629477644 176.26635176282562 L 323.81640625 176.38433135156296 L 325.8671875 176.75945743496575 L 327.91796875 177.39749823062238 L 330.115234375 178.37641277554994 L 332.458984375 179.75797348262867 L 334.94921875 181.6037857633677 L 337.732421875 184.1162448211542 L 340.80859375 187.42082705440538 L 344.03125 191.4354088143482 L 347.546875 196.3921240020332 L 351.501953125 202.57528052619048 L 356.3359375 210.7835618778999 L 366.150390625 228.3234859426423 L 371.716796875 237.8444730800541 L 375.818359375 244.22461221952526 L 379.333984375 249.06930970606902 L 382.41015625 252.72297790353625 L 385.193359375 255.48408335538332 L 387.68359375 257.4677757433419 L 389.880859375 258.805880881128 L 391.78515625 259.6348917991027 L 393.54296875 260.11596128793826 L 395.30078125 260.31529638710026 L 396.912109375 260.2442351436863 L 398.5234375 259.92563000987127 L 400.28125 259.2915140735841 L 402.0390625 258.3552316961614 L 403.943359375 256.9979261181453 L 406.140625 254.98845096438566 L 408.484375 252.32518635779525 L 410.974609375 248.9174261782613 L 413.611328125 244.6787345834154 L 416.39453125 239.53162999095602 L 419.32421875 233.41326663338816 L 422.546875 225.92583193404442 L 426.208984375 216.57558938098472 L 430.45703125 204.8219540321648 L 436.0234375 188.4331112807791 L 448.03515625 152.7842690403838 L 452.13671875 141.71763873668692 L 455.505859375 133.4687733289847 L 458.435546875 127.07401452954741 L 461.072265625 122.04374677432622 L 463.416015625 118.22027008148996 L 465.61328125 115.24182069387018 L 467.6640625 113.03043620715982 L 469.568359375 111.4980749461082 L 471.1796875 110.61202275793818 L 472.64453125 110.14534381757903 L 473.95921700954995 110.00931856008413 L 475.28125 110.14889114540927 L 476.599609375 110.56981080318172 L 477.91796875 111.27725659688332 L 479.3828125 112.40491189788304 L 481.140625 114.24001896533184 L 482.8984375 116.60786517072677 L 484.802734375 119.78048220387001 L 486.70703125 123.5888178044471 L 488.7578125 128.40231221859239 L 490.955078125 134.3763059967216 L 493.298828125 141.67037465692056 L 495.7890625 150.44403442064748 L 498.42578125 160.85123032037345 L 501.35546875 173.7075216066543 L 504.431640625 188.58681011119944 L 507.80078125 206.37489733126117 L 511.609375 228.14825821142043 L 516.00390625 255.09937564235094 L 521.423828125 290.30612045553147 L 538.9039806480434 405.5" stroke-linecap="round" stroke-linejoin="round" stroke-miterlimit="10" stroke-width="2.5" stroke-opacity="0.9" stroke-dasharray=""/></g></g><g id="sketch-166548d6"><title>Expression 2</title><path fill="#388c46" stroke="none" paint-order="stroke fill markers" d="" fill-opacity="0.4"/><path fill="#388c46" stroke="none" paint-order="stroke fill markers" d="" fill-opacity="0.4"/><path fill="#388c46" stroke="none" class="dcg-svg-region" paint-order="stroke fill markers" d=" M -0.5 -3 L -0.5 199.5 L 65.51160920901707 199.5 L 65.51160920901707 199.49999999999994 L 63.806640625 187.74457838516975 L 60.291015625 161.6615754921532 L 56.3359375 129.65915077094826 L 51.794921875 90.03989254988306 L 41.98296522372509 -3 M 121.39381433562274 199.5 L 265.97061313625863 199.5 L 265.97061313625863 199.5 L 263.611328125 197.56661415937978 L 261.12109375 194.9602640596532 L 258.630859375 191.75747765864446 L 255.994140625 187.70519430066287 L 253.357421875 182.96871712320723 L 250.57421875 177.23083746399286 L 247.64453125 170.38710561115224 L 244.421875 161.94045620337593 L 240.90625 151.6919141516103 L 237.09765625 139.48031487651042 L 232.703125 124.15394318977229 L 215.271484375 56.45993977519123 L 209.998046875 36.2798347055367 L 205.896484375 21.54528089224806 L 202.380859375 9.880194326758613 L 199.3046875 0.5837311851743152 L 197.9848905010126 -3 L 161.54616507902344 -3 L 159.314453125 4.135157346635822 L 156.53125 14.20224344889698 L 153.455078125 26.637692125258468 L 150.0859375 41.69720386325133 L 146.27734375 60.3098896099973 L 141.736328125 84.29799043666321 L 134.8515625 123.13628071507986 L 126.208984375 172.92738729111943 L 121.39381433562274 199.49999999999983 M 284.31191511001697 199.5 L 349.58066665602945 199.5 L 349.58066665602945 199.5 L 347.400390625 196.1746731370144 L 343.884765625 191.2414170272168 L 340.662109375 187.25141164620763 L 337.5859375 183.97246597608998 L 334.802734375 181.48456553159056 L 332.3125 179.66146267295224 L 329.96875 178.30161801974324 L 327.771484375 177.3431231448856 L 325.720703125 176.72399627704448 L 323.669921875 176.3674633942085 L 321.619140625 176.2677200586007 L 319.421875 176.43641509531852 L 317.224609375 176.87728872234914 L 314.734375 177.68548134293127 L 311.951171875 178.9433014007623 L 308.728515625 180.80877604961054 L 304.7734375 183.5823302334308 L 296.27734375 190.55521556240924 L 290.857421875 195.01170468172717 L 287.1953125 197.69778604909544 L 284.31191511001697 199.5 M 432.29664851165563 199.5 L 506.5314567680442 199.5 L 506.5314567680442 199.49999999999983 L 503.845703125 185.64843809971637 L 500.76953125 171.0307753795325 L 497.986328125 159.0386362947662 L 495.349609375 148.8202420373874 L 492.859375 140.23092297321023 L 490.515625 133.11423358110272 L 488.318359375 127.30873534542621 L 486.267578125 122.65343745746026 L 484.36328125 118.99201803995737 L 482.458984375 115.96562567959501 L 480.701171875 113.73155635196758 L 479.08984375 112.15035743924034 L 477.625 111.09504068133344 L 476.306640625 110.45168473063092 L 474.98828125 110.09375489750437 L 473.669921875 110.01594383032227 L 472.3515625 110.21237416396679 L 470.88671875 110.7444365855182 L 469.275390625 111.7001200637506 L 467.37109375 113.31141591202476 L 465.3203125 115.60340731394643 L 463.123046875 118.66277053308238 L 460.6328125 122.83055332829395 L 457.99609375 127.98183496464878 L 454.919921875 134.83932676449848 L 451.404296875 143.61993709902762 L 447.15625 155.27075496530904 L 439.24609375 178.70526021095623 L 432.29664851165563 199.49999999999991" fill-opacity="0.4"/><g><path fill="none" stroke="#388c46" class="dcg-svg-curve" paint-order="fill stroke markers" d=" M -0.5 199.5 L 10.5 199.5 M 17.5 199.5 L 28.5 199.5 M 35.5 199.5 L 46.5 199.5 M 53.5 199.5 L 64.5 199.5" stroke-linecap="round" stroke-linejoin="round" stroke-miterlimit="10" stroke-width="2.5" stroke-opacity="0.9" stroke-dasharray=""/></g><g><path fill="none" stroke="#388c46" class="dcg-svg-curve" paint-order="fill stroke markers" d=" M 121.39381433562274 199.5 L 132.39381433562272 199.5 M 139.39381433562272 199.5 L 150.39381433562272 199.5 M 157.39381433562272 199.5 L 168.39381433562272 199.5 M 175.39381433562272 199.5 L 186.39381433562272 199.5 M 193.39381433562272 199.5 L 204.39381433562272 199.5 M 211.39381433562272 199.5 L 222.39381433562272 199.5 M 229.39381433562272 199.5 L 240.39381433562272 199.5 M 247.39381433562272 199.5 L 258.3938143356227 199.5 M 265.3938143356227 199.5 L 265.97061313625863 199.5" stroke-linecap="round" stroke-linejoin="round" stroke-miterlimit="10" stroke-width="2.5" stroke-opacity="0.9" stroke-dasharray=""/></g><g><path fill="none" stroke="#388c46" class="dcg-svg-curve" paint-order="fill stroke markers" d=" M 284.31191511001697 199.5 L 295.31191511001697 199.5 M 302.31191511001697 199.5 L 313.31191511001697 199.5 M 320.31191511001697 199.5 L 331.31191511001697 199.5 M 338.31191511001697 199.5 L 349.31191511001697 199.5" stroke-linecap="round" stroke-linejoin="round" stroke-miterlimit="10" stroke-width="2.5" stroke-opacity="0.9" stroke-dasharray=""/></g><g><path fill="none" stroke="#388c46" class="dcg-svg-curve" paint-order="fill stroke markers" d=" M 432.29664851165563 199.5 L 443.29664851165563 199.5 M 450.29664851165563 199.5 L 461.29664851165563 199.5 M 468.29664851165563 199.5 L 479.29664851165563 199.5 M 486.29664851165563 199.5 L 497.29664851165563 199.5 M 504.29664851165563 199.5 L 506.5314567680442 199.5" stroke-linecap="round" stroke-linejoin="round" stroke-miterlimit="10" stroke-width="2.5" stroke-opacity="0.9" stroke-dasharray=""/></g><g><path fill="none" stroke="#388c46" class="dcg-svg-curve" paint-order="fill stroke markers" d=" M 41.71931604103675 -5.5 L 42.872974835713066 5.439335966385986 M 43.607121341416175 12.400731581358887 L 44.760780136092485 23.340067547744873 M 45.494926641795594 30.301463162717774 L 46.64858543647191 41.24079912910376 M 47.38273194217502 48.202194744076664 L 48.53639073685133 59.141530710462646 M 49.27053724255444 66.10292632543555 L 50.42419603723076 77.04226229182153 M 51.158342542933866 84.00365790679443 L 51.794921875 90.03989254988306 M 51.794921875 90.03989254988306 L 52.356338384242925 94.93811521329098 M 53.1534343787815 101.89258413445891 L 54.40601379877068 112.82103529629423 M 55.20310979330925 119.77550421746214 L 56.3359375 129.65915077094826 M 56.3359375 129.65915077094826 L 56.464925634518224 130.70285532857898 M 57.323501453899176 137.65000204952668 L 58.67269202721209 148.5669468967302 M 59.531267846593046 155.5140936176779 L 60.291015625 161.6615754921532 M 60.291015625 161.6615754921532 L 60.93295857970474 166.42425636531664 M 61.868005547951036 173.36152435546762 L 63.33736506948093 184.26294548284773 M 64.3071303399635 191.19535611118522 L 65.51160920901707 199.49999999999994" stroke-linecap="round" stroke-linejoin="round" stroke-miterlimit="10" stroke-width="2.5" stroke-opacity="0.9" stroke-dasharray=""/></g><g><path fill="none" stroke="#388c46" class="dcg-svg-curve" paint-order="fill stroke markers" d=" M 121.39381433562274 199.49999999999983 L 123.35516072577764 188.67627049775217 M 124.60329024678529 181.78844263268547 L 126.208984375 172.92738729111943 M 126.208984375 172.92738729111943 L 126.5501063621209 170.96213560689853 M 127.74724319478918 164.06526215555343 L 129.6284582175536 153.22731816058254 M 130.82559505022186 146.33044470923744 L 132.7068100729863 135.49250071426655 M 133.90394690565458 128.59562726292143 L 134.8515625 123.13628071507986 M 134.8515625 123.13628071507986 L 135.804414205847 117.761060531899 M 137.0262378685627 110.8685176820338 L 138.9462464814017 100.03737891795991 M 140.16807014411742 93.14483606809472 L 141.736328125 84.29799043666321 M 141.736328125 84.29799043666321 L 142.11115965537093 82.31792754191132 M 143.4131559895122 75.44007863793831 L 145.4591502288771 64.63203036026644 M 146.79878494814227 57.761594414052986 L 149.00395130695398 46.98489541436087 M 150.43585609967735 40.13312451907646 L 152.8374282950918 29.398486612271586 M 154.45666329815236 22.588776290300203 L 156.53125 14.20224344889698 M 156.53125 14.20224344889698 L 157.16029941987048 11.926917363089448 M 159.02558619558297 5.180013981214758 L 159.314453125 4.135157346635822 M 159.314453125 4.135157346635822 L 161.951171875 -4.294874641209788 M 161.951171875 -4.294874641209788 L 162.31627992360046 -5.314669866839402 M 169.1857821633008 -5.5 L 180.1857821633008 -5.5 M 187.1857821633008 -5.5 L 197.06420411942284 -5.5 M 197.06420411942284 -5.5 L 197.45180389601617 -4.447524954360491 M 199.81938432306669 2.139190450508768 L 202.380859375 9.880194326758613 M 202.380859375 9.880194326758613 L 203.20216150647423 12.605331524289044 M 205.22208112831683 19.307564340395576 L 205.896484375 21.54528089224806 M 205.896484375 21.54528089224806 L 208.21958527788996 29.890845605045072 M 210.0911129224623 36.63597481646176 L 212.87222829963181 47.27859654509946 M 214.64202899419422 54.05117400877799 L 215.271484375 56.45993977519123 M 215.271484375 56.45993977519123 L 217.39372067281076 64.70142858746695 M 219.1393195500676 71.480284284391 L 221.88240350004264 82.1327718081288 M 223.62800237729948 88.91162750505283 L 226.37108632727453 99.56411502879062 M 228.11668520453136 106.34297072571468 L 230.8597691545064 116.99545824945247 M 232.60536803176328 123.77431394637651 L 232.703125 124.15394318977229 M 232.703125 124.15394318977229 L 235.62693773561935 134.35103547999572 M 237.5931037415659 141.06888184531775 L 240.86822816448833 151.57000369083394 M 243.13614718940966 158.19237854038298 L 244.421875 161.94045620337593 M 244.421875 161.94045620337593 L 246.9305226561162 168.51567415870494 M 249.61104612027862 174.98087216707685 L 250.57421875 177.23083746399286 M 250.57421875 177.23083746399286 L 253.357421875 182.96871712320723 M 253.357421875 182.96871712320723 L 254.41546911297397 184.86934326899305 M 258.0417093266086 190.85203298941286 L 258.630859375 191.75747765864446 M 258.630859375 191.75747765864446 L 261.12109375 194.9602640596532 M 261.12109375 194.9602640596532 L 263.611328125 197.56661415937978 M 263.611328125 197.56661415937978 L 265.3578188800694 198.99782763317023" stroke-linecap="round" stroke-linejoin="round" stroke-miterlimit="10" stroke-width="2.5" stroke-opacity="0.9" stroke-dasharray=""/></g><g><path fill="none" stroke="#388c46" class="dcg-svg-curve" paint-order="fill stroke markers" d=" M 284.31191511001697 199.5 L 287.1953125 197.69778604909544 M 287.1953125 197.69778604909544 L 290.857421875 195.01170468172717 M 290.857421875 195.01170468172717 L 293.21956701447374 193.0694489896533 M 298.62825071945616 188.62578714513052 L 304.7734375 183.5823302334308 M 304.7734375 183.5823302334308 L 307.2707511487566 181.83105389958587 M 313.31430253413583 178.3272582995224 L 314.734375 177.68548134293127 M 314.734375 177.68548134293127 L 317.224609375 176.87728872234914 M 317.224609375 176.87728872234914 L 319.421875 176.43641509531852 M 319.421875 176.43641509531852 L 321.619140625 176.2677200586007 M 321.619140625 176.2677200586007 L 323.669921875 176.3674633942085 M 323.669921875 176.3674633942085 L 323.9906562855549 176.42322378504485 M 330.57817839854033 178.65520861143128 L 332.3125 179.66146267295224 M 332.3125 179.66146267295224 L 334.802734375 181.48456553159056 M 334.802734375 181.48456553159056 L 337.5859375 183.97246597608998 M 337.5859375 183.97246597608998 L 339.0744549049801 185.55910284109095 M 343.6024128214878 190.89183298288796 L 343.884765625 191.2414170272168 M 343.884765625 191.2414170272168 L 347.400390625 196.1746731370144 M 347.400390625 196.1746731370144 L 349.58066665602945 199.5" stroke-linecap="round" stroke-linejoin="round" stroke-miterlimit="10" stroke-width="2.5" stroke-opacity="0.9" stroke-dasharray=""/></g><g><path fill="none" stroke="#388c46" class="dcg-svg-curve" paint-order="fill stroke markers" d=" M 432.29664851165563 199.49999999999991 L 435.78321970122227 189.06717577354598 M 438.00194682185554 182.42810581125713 L 439.24609375 178.70526021095623 M 439.24609375 178.70526021095623 L 441.50871159897304 172.00206394341683 M 443.74741890851743 165.36970466619184 L 447.15625 155.27075496530904 M 447.15625 155.27075496530904 L 447.2731470936884 154.95014956999745 M 449.67102396883683 148.3736621723338 L 451.404296875 143.61993709902762 M 451.404296875 143.61993709902762 L 453.6122415010649 138.1053838114348 M 456.3450253561722 131.66244464178698 L 457.99609375 127.98183496464878 M 457.99609375 127.98183496464878 L 460.6328125 122.83055332829395 M 460.6328125 122.83055332829395 L 461.23761520405264 121.81832478878223 M 465.06213955805384 115.96287445973871 L 465.3203125 115.60340731394643 M 465.3203125 115.60340731394643 L 467.37109375 113.31141591202476 M 467.37109375 113.31141591202476 L 469.275390625 111.7001200637506 M 469.275390625 111.7001200637506 L 470.88671875 110.7444365855182 M 470.88671875 110.7444365855182 L 472.3515625 110.21237416396679 M 472.3515625 110.21237416396679 L 473.669921875 110.01594383032227 M 473.669921875 110.01594383032227 L 473.89209429586737 110.02905669885716 M 479.9916372710747 113.03528888982727 L 480.701171875 113.73155635196758 M 480.701171875 113.73155635196758 L 482.458984375 115.96562567959501 M 482.458984375 115.96562567959501 L 484.36328125 118.99201803995737 M 484.36328125 118.99201803995737 L 486.01864415709616 122.17480848120934 M 488.8045489225255 128.59331947956505 L 490.515625 133.11423358110272 M 490.515625 133.11423358110272 L 492.44441532822407 138.97091695965074 M 494.43917101073805 145.6799570596277 L 495.349609375 148.8202420373874 M 495.349609375 148.8202420373874 L 497.2810697034638 156.30546325361658 M 498.9307192213456 163.10778571331298 L 500.76953125 171.0307753795325 M 500.76953125 171.0307753795325 L 501.3598192850962 173.8357653981075 M 502.80134036081773 180.6857301416847 L 503.845703125 185.64843809971637 M 503.845703125 185.64843809971637 L 504.9742122592214 191.4686346647242 M 506.30666386613785 198.34064839544575 L 506.5314567680442 199.49999999999983" stroke-linecap="round" stroke-linejoin="round" stroke-miterlimit="10" stroke-width="2.5" stroke-opacity="0.9" stroke-dasharray=""/></g></g><g id="sketch-166548d6"><title>Expression 3</title><path fill="#6042a6" stroke="none" paint-order="stroke fill markers" d="" fill-opacity="0.4"/><path fill="#6042a6" stroke="none" paint-order="stroke fill markers" d="" fill-opacity="0.4"/><path fill="#6042a6" stroke="none" class="dcg-svg-region" paint-order="stroke fill markers" d=" M 65.5116092090171 199.50000000000028 L 68.494140625 218.54548224742177 L 71.27734375 234.4720625922724 L 73.9140625 247.8287469477682 L 76.2578125 258.2336186882943 L 78.455078125 266.70107227802356 L 80.505859375 273.46133754339036 L 82.41015625 278.7409417216572 L 84.16796875 282.7577021510965 L 85.779296875 285.71700112713967 L 87.390625 287.98714615583793 L 88.85546875 289.45642798413814 L 90.173828125 290.2986473841469 L 91.345703125 290.6690624313644 L 92.37109375 290.7041484673858 L 93.396484375 290.47240284337767 L 94.568359375 289.88483591498556 L 95.88671875 288.8185597631538 L 97.3515625 287.1401092138348 L 98.962890625 284.7078373956482 L 100.720703125 281.37492385276477 L 102.625 276.9930657664439 L 104.67578125 271.4169068891979 L 106.873046875 264.5092344667406 L 109.36328125 255.59201734492729 L 112 244.99532493809755 L 114.9296875 231.97680588063696 L 118.298828125 215.6124424371511 L 121.39381433562271 199.5 L 121.39381433562271 199.5 L 65.5116092090171 199.5 M 265.9706131362587 199.5 L 268.15234375 200.839723224662 L 270.203125 201.72242431373826 L 272.107421875 202.23035002018617 L 274.01171875 202.45365483389335 L 275.916015625 202.4089961757392 L 277.966796875 202.08189118653084 L 280.1640625 201.4370606959276 L 282.5078125 200.44822944363457 L 284.31191511001697 199.5 L 284.31191511001697 199.5 L 265.9706131362587 199.5 M 349.58066665602945 199.5 L 353.845703125 206.48255669578285 L 359.705078125 216.76685981392836 L 370.69140625 236.15175116566957 L 374.939453125 242.916735831289 L 378.455078125 247.92042500093083 L 381.677734375 251.90758838627886 L 384.607421875 254.94886178307783 L 387.244140625 257.1528932302903 L 389.44140625 258.57036683949275 L 391.4921875 259.527912082826 L 393.396484375 260.0865219830911 L 395.154296875 260.30963381136746 L 396.765625 260.26086193512486 L 398.376953125 259.9649257274168 L 400.134765625 259.35586278317487 L 401.892578125 258.4448495941298 L 403.796875 257.1150149280978 L 405.994140625 255.13714992221446 L 408.337890625 252.5072214875829 L 410.828125 249.13410270263748 L 413.46484375 244.93080135198588 L 416.248046875 239.81912846284814 L 419.177734375 233.73536736307602 L 422.400390625 226.2821188513231 L 426.0625 216.96488952295022 L 430.310546875 205.24051636327582 L 432.29664851165563 199.50000000000006 L 432.29664851165563 199.5 L 349.58066665602945 199.5 M 506.5314567680442 199.5000000000001 L 510.14453125 219.58114306146422 L 514.24609375 244.11251712916845 L 519.2265625 275.8297436124328 L 526.404296875 323.71226359289176 L 536.072265625 387.9391926567896 L 538.4953121574922 403 L 599.5 403 L 599.5 199.5 L 506.5314567680442 199.5" fill-opacity="0.4"/><g><path fill="none" stroke="#6042a6" class="dcg-svg-curve" paint-order="fill stroke markers" d=" M 65.5116092090171 199.50000000000028 L 67.21347274138078 210.36755080582634 M 68.2964768074304 217.28326495498837 L 68.494140625 218.54548224742177 M 68.494140625 218.54548224742177 L 70.16778720632666 228.12274468542066 M 71.38472682232985 235.0160272461564 L 73.51510315262877 245.807760039888 M 74.99962498886835 252.64800602531548 L 76.2578125 258.2336186882943 M 76.2578125 258.2336186882943 L 77.58262569892955 263.33896150591414 M 79.47881236592133 270.0757447497302 L 80.505859375 273.46133754339036 M 80.505859375 273.46133754339036 L 82.41015625 278.7409417216572 M 82.41015625 278.7409417216572 L 83.15164741684464 280.43531605211643 M 86.41333755120694 286.6102793283649 L 87.390625 287.98714615583793 M 87.390625 287.98714615583793 L 88.85546875 289.45642798413814 M 88.85546875 289.45642798413814 L 90.173828125 290.2986473841469 M 90.173828125 290.2986473841469 L 91.345703125 290.6690624313644 M 91.345703125 290.6690624313644 L 92.37109375 290.7041484673858 M 92.37109375 290.7041484673858 L 93.396484375 290.47240284337767 M 93.396484375 290.47240284337767 L 94.568359375 289.88483591498556 M 94.568359375 289.88483591498556 L 95.38880241870847 289.2212696158173 M 99.52934481177316 283.6338076965083 L 100.720703125 281.37492385276477 M 100.720703125 281.37492385276477 L 102.625 276.9930657664439 M 102.625 276.9930657664439 L 103.89124470911935 273.55009413038 M 106.10868803148567 266.91219405621007 L 106.873046875 264.5092344667406 M 106.873046875 264.5092344667406 L 109.15348405810533 256.3432747889867 M 110.86517472183381 249.55606711366028 L 112 244.99532493809755 M 112 244.99532493809755 L 113.38320291860485 238.8488490575839 M 114.92004827462733 232.01963926788844 L 114.9296875 231.97680588063696 M 114.9296875 231.97680588063696 L 117.139020524771 221.24578197597324 M 118.53434420255847 214.3863499816629 L 120.60936355425605 203.58383663105414" stroke-linecap="round" stroke-linejoin="round" stroke-miterlimit="10" stroke-width="2.5" stroke-opacity="0.9" stroke-dasharray=""/></g><g><path fill="none" stroke="#6042a6" class="dcg-svg-curve" paint-order="fill stroke markers" d=" M 265.9706131362587 199.5 L 268.15234375 200.839723224662 M 268.15234375 200.839723224662 L 270.203125 201.72242431373826 M 270.203125 201.72242431373826 L 272.107421875 202.23035002018617 M 272.107421875 202.23035002018617 L 274.01171875 202.45365483389335 M 274.01171875 202.45365483389335 L 275.916015625 202.4089961757392 M 275.916015625 202.4089961757392 L 276.3248932783026 202.3437791174249 M 282.95359345613224 200.21392867511443 L 284.31191511001697 199.5" stroke-linecap="round" stroke-linejoin="round" stroke-miterlimit="10" stroke-width="2.5" stroke-opacity="0.9" stroke-dasharray=""/></g><g><path fill="none" stroke="#6042a6" class="dcg-svg-curve" paint-order="fill stroke markers" d=" M 349.58066665602945 199.5 L 353.845703125 206.48255669578285 M 353.845703125 206.48255669578285 L 355.2406584063274 208.93096509248534 M 358.7058843620062 215.0130871790674 L 359.705078125 216.76685981392836 M 359.705078125 216.76685981392836 L 364.13357417647455 224.58074574858398 M 367.5850322751565 230.67069131427195 L 370.69140625 236.15175116566957 M 370.69140625 236.15175116566957 L 373.1907621089194 240.13195773048432 M 377.0732836547744 245.95375619372334 L 378.455078125 247.92042500093083 M 378.455078125 247.92042500093083 L 381.677734375 251.90758838627886 M 381.677734375 251.90758838627886 L 384.0849385276653 254.4064780972685 M 389.61856110310157 258.6530835051151 L 391.4921875 259.527912082826 M 391.4921875 259.527912082826 L 393.396484375 260.0865219830911 M 393.396484375 260.0865219830911 L 395.154296875 260.30963381136746 M 395.154296875 260.30963381136746 L 396.765625 260.26086193512486 M 396.765625 260.26086193512486 L 398.376953125 259.9649257274168 M 398.376953125 259.9649257274168 L 400.134765625 259.35586278317487 M 400.134765625 259.35586278317487 L 400.19253039892936 259.3259253063895 M 405.8500946384674 255.26681267794103 L 405.994140625 255.13714992221446 M 405.994140625 255.13714992221446 L 408.337890625 252.5072214875829 M 408.337890625 252.5072214875829 L 410.828125 249.13410270263748 M 410.828125 249.13410270263748 L 412.4705141025649 246.5159029674149 M 415.917415607724 240.42637084126272 L 416.248046875 239.81912846284814 M 416.248046875 239.81912846284814 L 419.177734375 233.73536736307602 M 419.177734375 233.73536736307602 L 420.58907649879217 230.47126385103437 M 423.2915048257582 224.01492404198362 L 426.0625 216.96488952295022 M 426.0625 216.96488952295022 L 427.2292253918825 213.7447923178557 M 429.6138092984314 207.1634733320727 L 430.310546875 205.24051636327582 M 430.310546875 205.24051636327582 L 432.29664851165563 199.50000000000006" stroke-linecap="round" stroke-linejoin="round" stroke-miterlimit="10" stroke-width="2.5" stroke-opacity="0.9" stroke-dasharray=""/></g><g><path fill="none" stroke="#6042a6" class="dcg-svg-curve" paint-order="fill stroke markers" d=" M 506.5314567680442 199.5000000000001 L 508.4793401133207 210.32616046773725 M 509.71890224213297 217.2155353108427 L 510.14453125 219.58114306146422 M 510.14453125 219.58114306146422 L 511.5621434121345 228.0598567790409 M 512.716496076037 234.9640200105514 L 514.24609375 244.11251712916845 M 514.24609375 244.11251712916845 L 514.5136111201153 245.81615376300073 M 515.5994957415094 252.73141620118918 L 517.3058858608427 263.59825717548534 M 518.3917704822367 270.5135196136738 L 519.2265625 275.8297436124328 M 519.2265625 275.8297436124328 L 520.0595059844403 281.3862926504158 M 521.097232568074 288.3089455766876 L 522.727945770927 299.18740017511476 M 523.7656723545607 306.1100531013866 L 525.3963855574137 316.98850769981374 M 526.4342337521941 323.91114235819026 L 528.0715983430377 334.7885978141621 M 529.11355762812 341.7106149225078 L 530.7509222189636 352.5880703784796 M 531.792881504046 359.5100874868253 L 533.4302460948896 370.38754294279715 M 534.472205379972 377.30956005114285 L 536.072265625 387.9391926567896 M 536.072265625 387.9391926567896 L 536.1120736973363 388.1866256714357 M 537.2239653465567 395.0977541581876 L 538.897522755715 405.5" stroke-linecap="round" stroke-linejoin="round" stroke-miterlimit="10" stroke-width="2.5" stroke-opacity="0.9" stroke-dasharray=""/></g><g><path fill="none" stroke="#6042a6" class="dcg-svg-curve" paint-order="fill stroke markers" d=" M 65.5116092090171 199.5 L 76.5116092090171 199.5 M 83.5116092090171 199.5 L 94.5116092090171 199.5 M 101.5116092090171 199.5 L 112.5116092090171 199.5 M 119.5116092090171 199.5 L 121.39381433562271 199.5" stroke-linecap="round" stroke-linejoin="round" stroke-miterlimit="10" stroke-width="2.5" stroke-opacity="0.9" stroke-dasharray=""/></g><g><path fill="none" stroke="#6042a6" class="dcg-svg-curve" paint-order="fill stroke markers" d=" M 265.9706131362587 199.5 L 276.9706131362587 199.5 M 283.9706131362587 199.5 L 284.31191511001697 199.5" stroke-linecap="round" stroke-linejoin="round" stroke-miterlimit="10" stroke-width="2.5" stroke-opacity="0.9" stroke-dasharray=""/></g><g><path fill="none" stroke="#6042a6" class="dcg-svg-curve" paint-order="fill stroke markers" d=" M 349.58066665602945 199.5 L 360.58066665602945 199.5 M 367.58066665602945 199.5 L 378.58066665602945 199.5 M 385.58066665602945 199.5 L 396.58066665602945 199.5 M 403.58066665602945 199.5 L 414.58066665602945 199.5 M 421.58066665602945 199.5 L 432.29664851165563 199.5" stroke-linecap="round" stroke-linejoin="round" stroke-miterlimit="10" stroke-width="2.5" stroke-opacity="0.9" stroke-dasharray=""/></g><g><path fill="none" stroke="#6042a6" class="dcg-svg-curve" paint-order="fill stroke markers" d=" M 506.5314567680442 199.5 L 517.5314567680442 199.5 M 524.5314567680442 199.5 L 535.5314567680442 199.5 M 542.5314567680442 199.5 L 553.5314567680442 199.5 M 560.5314567680442 199.5 L 571.5314567680442 199.5 M 578.5314567680442 199.5 L 589.5314567680442 199.5 M 596.5314567680442 199.5 L 599.5 199.5" stroke-linecap="round" stroke-linejoin="round" stroke-miterlimit="10" stroke-width="2.5" stroke-opacity="0.9" stroke-dasharray=""/></g></g></g><g id="labels-166548d6"/></g></svg>